<?xml version='1.0' encoding='utf-8'?>
<svg xmlns="http://www.w3.org/2000/svg" width="640.859mm" height="508.264mm" version="1.1" style="shape-rendering:geometricPrecision; text-rendering:geometricPrecision; image-rendering:optimizeQuality; fill-rule:evenodd; clip-rule:evenodd" viewBox="0 0 61592 48849"> <defs> <style type="text/css">  .fil37 {fill:black} .fil39 {fill:#26A699} .fil3 {fill:#294518} .fil31 {fill:#3B261B} .fil0 {fill:#3B6620} .fil11 {fill:#3C0C0C} .fil10 {fill:#400505} .fil15 {fill:#406A1C} .fil12 {fill:#461717} .fil19 {fill:#46210C} .fil23 {fill:#52260D} .fil26 {fill:#52280F} .fil22 {fill:#58311A} .fil14 {fill:#599029} .fil29 {fill:#5C2B11} .fil28 {fill:#623318} .fil7 {fill:#6D9438} .fil21 {fill:#6E3717} .fil30 {fill:#6E3C20} .fil18 {fill:#743712} .fil25 {fill:#783F1D} .fil20 {fill:#793813} .fil6 {fill:#803D17} .fil38 {fill:#8B3C77} .fil4 {fill:#8BBC4E} .fil27 {fill:#8F4E28} .fil24 {fill:#8F522E} .fil2 {fill:#8F593B} .fil13 {fill:#905E40} .fil42 {fill:#992B2F} .fil8 {fill:#994517} .fil17 {fill:#9EB361} .fil40 {fill:#A3D0B4} .fil5 {fill:#A55325} .fil36 {fill:#AB4A91} .fil1 {fill:#B3744F} .fil16 {fill:#BED573} .fil9 {fill:#D1BD83} .fil41 {fill:#D92328} .fil35 {fill:#DFCD2D} .fil32 {fill:#E26212} .fil33 {fill:#F59049} .fil34 {fill:#F7DE00}  </style> </defs> <g id="Vrstva_x0020_1"> <metadata id="CorelCorpID_0Corel-Layer"/> <g id="_527153280"> <g> <path class="fil0" d="M26851 31563c-691,764 -1522,1352 -2434,1841 289,238 590,224 896,76 213,123 440,190 745,-56 215,148 562,339 859,-26 512,372 718,128 1132,13 388,262 743,236 1075,20 193,92 375,104 531,-62 -963,-536 -1897,-1141 -2804,-1806z"/> <path class="fil0" d="M23500 36684c1238,-698 2347,-1482 3297,-2372 1095,806 2323,1529 3643,2194 -319,267 -681,302 -1080,143 -364,238 -742,346 -1166,31 -555,273 -657,391 -1508,104 -474,256 -933,166 -1169,-11 -304,253 -623,219 -951,-26 -444,174 -779,108 -1066,-63z"/> <path class="fil0" d="M31261 40265c-1550,-584 -3003,-1345 -4369,-2260 -1437,985 -2690,1691 -3901,2329 295,209 656,288 1172,55 364,238 761,249 1199,-27 618,180 1079,140 1609,-76 551,253 1220,238 1726,90 414,317 827,229 1241,-42 477,233 919,213 1323,-69z"/> <path class="fil0" d="M32055 44669c-1833,-941 -3597,-1976 -5209,-3212 -1302,1259 -2802,2390 -4508,3391 341,139 670,296 1310,-14 374,226 759,408 1282,42 917,421 1513,-161 1993,-51 1135,261 1510,431 2073,-46 580,346 1137,275 1681,-41 460,208 919,200 1378,-69z"/> <polygon class="fil1" points="26850,31150 25885,48820 27898,48820 "/> <polygon class="fil2" points="26862,33459 26865,34362 26872,36844 26875,38016 26876,38086 26868,40327 26863,41471 26851,44814 26837,48820 27898,48820 27671,45000 27490,41935 27400,40428 27271,38254 27193,36925 27048,34494 26986,33446 26876,31581 26855,31239 26856,31567 "/> <path class="fil3" d="M28122 44420c-180,-350 -267,-735 -334,-1094 -66,-358 -112,-689 -149,-1024 -10,-94 -20,-187 -29,-281 -40,-29 -80,-57 -120,-86l181 3065c368,81 628,112 872,41 -161,-199 -309,-403 -421,-621z"/> <path class="fil3" d="M27692 39929c-126,-352 -177,-641 -214,-963 -22,-196 -39,-403 -55,-616 -51,-32 -101,-64 -152,-96l129 2174c173,37 350,54 523,55 -89,-195 -169,-382 -231,-554z"/> <path class="fil3" d="M27343 35688c-76,-394 -115,-747 -146,-1089 -50,-35 -99,-70 -149,-105l145 2431c184,35 318,32 446,0 -116,-432 -223,-854 -296,-1237z"/> <path class="fil3" d="M27013 32417c-20,-241 -42,-511 -65,-783 -24,-17 -48,-35 -72,-53l110 1865c76,49 145,85 209,109 -39,-135 -74,-270 -100,-408 -42,-227 -60,-461 -82,-730z"/> </g> <g> <path class="fil4" d="M32907 1497c-914,1012 -2015,1791 -3221,2437 382,315 780,297 1186,101 281,163 582,252 985,-73 286,195 745,448 1138,-35 678,492 950,169 1499,16 514,348 983,313 1424,28 255,121 495,138 702,-82 -1275,-710 -2511,-1511 -3713,-2392z"/> <path class="fil4" d="M28470 8277c1640,-924 3109,-1962 4366,-3140 1450,1067 3076,2024 4823,2905 -421,353 -901,399 -1429,190 -483,315 -983,458 -1544,40 -735,361 -870,517 -1996,138 -628,338 -1236,219 -1548,-15 -404,335 -825,290 -1259,-34 -588,231 -1032,143 -1413,-84z"/> <path class="fil4" d="M38746 13019c-2052,-774 -3975,-1781 -5784,-2993 -1902,1304 -3562,2239 -5165,3084 391,276 868,381 1551,73 483,315 1008,330 1588,-37 818,240 1429,186 2131,-99 729,335 1615,315 2285,118 548,420 1095,303 1642,-55 633,309 1217,281 1752,-91z"/> <path class="fil4" d="M39798 18849c-2427,-1246 -4762,-2616 -6898,-4252 -1722,1666 -3709,3164 -5967,4489 451,184 886,392 1734,-18 495,299 1005,539 1697,55 1215,557 2003,-213 2639,-67 1503,345 1999,570 2744,-61 769,458 1506,363 2226,-55 609,276 1217,266 1825,-91z"/> <polygon class="fil5" points="32907,951 31629,24345 34293,24345 "/> <polygon class="fil6" points="32922,4007 32926,5203 32935,8489 32940,10041 32940,10133 32930,13100 32924,14616 32908,19041 32889,24345 34293,24345 33994,19288 33753,15229 33635,13234 33464,10355 33360,8597 33169,5378 33087,3990 32940,1522 32914,1068 32915,1503 "/> <path class="fil7" d="M34590 18519c-237,-462 -353,-973 -441,-1448 -88,-474 -149,-912 -198,-1356 -13,-124 -26,-247 -38,-372 -53,-38 -107,-76 -160,-114l241 4059c487,107 831,148 1154,53 -214,-263 -410,-533 -558,-822z"/> <path class="fil7" d="M34021 12573c-167,-465 -234,-848 -283,-1274 -30,-260 -52,-534 -73,-816 -67,-42 -134,-85 -201,-128l171 2879c228,49 462,72 692,73 -118,-258 -224,-506 -306,-734z"/> <path class="fil7" d="M33558 6959c-99,-521 -152,-989 -192,-1443 -66,-46 -132,-92 -197,-138l191 3219c244,45 422,41 591,-1 -154,-572 -296,-1130 -393,-1637z"/> <path class="fil7" d="M33122 2628c-26,-320 -56,-676 -86,-1037 -32,-23 -64,-46 -96,-69l147 2468c100,66 191,112 276,144 -51,-178 -97,-357 -132,-540 -56,-300 -80,-610 -109,-966z"/> </g> <g> <path class="fil1" d="M3224 38146c149,-20 93,-87 242,-107 -2,-494 296,-976 1115,-1352 -136,-133 -272,-265 -408,-398 -695,235 -841,1008 -949,1857z"/> <path class="fil8" d="M3511 37900c-954,28 -750,806 -726,1432 463,0 927,0 1390,0 -65,-549 198,-1399 -664,-1432z"/> <path class="fil1" d="M3407 48743c-1059,-6 -3149,-3099 -3263,-6776 2092,0 4183,0 6274,0 -289,3407 -1653,6782 -3011,6776z"/> <path class="fil9" d="M4572 37915c-955,29 -751,806 -727,1433 464,0 927,0 1391,0 -65,-550 197,-1400 -664,-1433z"/> <path class="fil8" d="M5195 38412c-955,29 -751,806 -727,1433 464,0 927,0 1391,0 -65,-550 198,-1400 -664,-1433z"/> <path class="fil10" d="M4170 38349c-954,29 -751,807 -727,1433 464,0 927,0 1391,0 -65,-549 198,-1399 -664,-1433z"/> <path class="fil9" d="M2403 37900c-955,28 -751,806 -727,1432 464,0 927,0 1391,0 -65,-549 198,-1399 -664,-1432z"/> <path class="fil11" d="M3082 38537c-955,29 -751,807 -727,1433 464,0 927,0 1391,0 -65,-549 198,-1399 -664,-1433z"/> <path class="fil8" d="M1744 38485c-955,29 -751,806 -727,1433 464,0 928,0 1391,0 -65,-550 198,-1399 -664,-1433z"/> <path class="fil12" d="M1588 38917c-955,28 -751,806 -727,1432 463,0 927,0 1391,0 -65,-549 197,-1399 -664,-1432z"/> <path class="fil9" d="M1002 39677c-955,29 -751,807 -727,1433 464,0 927,0 1391,0 -65,-549 197,-1399 -664,-1433z"/> <path class="fil8" d="M761 40597c-954,29 -751,807 -727,1433 464,0 928,0 1391,0 -65,-549 198,-1399 -664,-1433z"/> <path class="fil9" d="M2623 39029c-955,29 -751,806 -727,1433 463,0 927,0 1391,0 -65,-550 197,-1400 -664,-1433z"/> <path class="fil11" d="M5604 38966c-955,29 -751,806 -727,1433 464,0 927,0 1391,0 -65,-549 198,-1399 -664,-1433z"/> <path class="fil9" d="M4773 38981c-955,29 -751,806 -727,1433 463,0 927,0 1391,0 -65,-549 197,-1399 -664,-1433z"/> <path class="fil8" d="M3799 39029c-954,29 -750,806 -726,1433 463,0 927,0 1390,0 -64,-550 198,-1400 -664,-1433z"/> <path class="fil9" d="M5898 39583c-954,28 -750,806 -726,1432 463,0 927,0 1390,0 -65,-549 198,-1399 -664,-1432z"/> <path class="fil8" d="M4706 39619c-955,28 -751,806 -727,1432 463,0 927,0 1391,0 -65,-549 197,-1399 -664,-1432z"/> <path class="fil10" d="M3469 39594c-954,28 -750,806 -726,1432 463,0 927,0 1391,0 -65,-549 197,-1399 -665,-1432z"/> <path class="fil8" d="M2222 39818c-955,28 -751,806 -727,1432 464,0 928,0 1391,0 -65,-549 198,-1399 -664,-1432z"/> <path class="fil8" d="M5937 40597c-954,29 -751,807 -726,1433 463,0 927,0 1390,0 -64,-549 198,-1399 -664,-1433z"/> <path class="fil9" d="M4683 40597c-955,29 -751,807 -727,1433 463,0 927,0 1390,0 -64,-549 198,-1399 -663,-1433z"/> <path class="fil8" d="M3408 40597c-954,29 -750,807 -726,1433 463,0 927,0 1390,0 -65,-549 198,-1399 -664,-1433z"/> <path class="fil9" d="M2083 40597c-955,29 -751,807 -727,1433 464,0 927,0 1391,0 -65,-549 198,-1399 -664,-1433z"/> <path class="fil13" d="M4444 36553c-145,63 -281,131 -395,213 -178,129 -300,293 -392,452 -93,158 -155,312 -209,498 -18,61 -35,125 -50,191 24,-3 49,-4 76,-6 51,-445 365,-873 1107,-1214l-137 -134z"/> <path class="fil13" d="M171 42450l6200 -10c16,-136 30,-273 42,-410l-1067 0 -135 0 -1139 0 -116 0 -1209 0 -65 0 -1257 0 -69 0 -1209 0c5,141 13,281 24,420z"/> </g> <g> <path class="fil5" d="M20030 13053l2625 0 0 3220c0,292 -239,531 -531,531l-1563 0c-292,0 -531,-239 -531,-531l0 -3220z"/> <path class="fil14" d="M21342 8622c2619,2089 4259,3921 4905,5544 -4081,436 -7332,447 -9809,0 1463,-2524 3073,-4367 4904,-5544z"/> <path class="fil14" d="M21287 4276c1532,1431 2849,3008 3850,4801 -2487,240 -5043,273 -7700,0 956,-1670 2194,-3280 3850,-4801z"/> <path class="fil14" d="M21287 475c1160,1106 2108,2530 2843,4276 -1683,319 -3577,320 -5685,0 523,-1426 1469,-2851 2842,-4276z"/> <path class="fil15" d="M20269 5276c489,55 975,129 1448,305 526,196 1035,520 1609,856 -413,-502 -852,-987 -1315,-1456 -467,16 -949,12 -1444,-12 -101,102 -200,204 -298,307z"/> <path class="fil15" d="M19874 9750c513,97 1093,238 1915,530 740,264 1674,650 2507,1026 -605,-653 -1331,-1334 -2176,-2047 -553,13 -1109,14 -1669,2 -195,155 -387,318 -577,489z"/> <path class="fil6" d="M22040 14863c140,116 134,344 125,748 -8,318 -17,744 -27,1193 286,-8 517,-244 517,-531l0 -1823c-930,43 -1805,57 -2625,41l0 213c426,12 835,23 1164,31 417,9 705,12 846,128z"/> </g> <g> <path class="fil1" d="M45452 43732l3463 0 0 4245c0,385 -316,701 -701,701l-2061 0c-385,0 -701,-316 -701,-701l0 -4245z"/> <path class="fil16" d="M47184 37889c3453,2754 5615,5169 6467,7310 -5382,575 -9668,590 -12934,0 1928,-3329 4051,-5759 6467,-7310z"/> <path class="fil16" d="M47111 32158c2019,1887 3757,3967 5076,6331 -3279,315 -6649,359 -10153,0 1260,-2203 2893,-4326 5077,-6331z"/> <path class="fil16" d="M47111 27145c1528,1459 2779,3336 3748,5639 -2220,420 -4717,422 -7496,0 690,-1880 1936,-3759 3748,-5639z"/> <path class="fil17" d="M45768 33476c645,73 1286,170 1909,402 693,259 1365,686 2123,1129 -545,-663 -1124,-1302 -1734,-1920 -617,21 -1252,16 -1904,-16 -134,134 -265,269 -394,405z"/> <path class="fil17" d="M45248 39376c676,128 1441,313 2525,699 975,347 2207,857 3305,1353 -797,-861 -1754,-1760 -2870,-2700 -728,17 -1461,19 -2200,4 -257,203 -510,418 -760,644z"/> <path class="fil2" d="M48103 46118c185,152 177,453 165,987 -10,418 -22,980 -35,1572 377,-10 682,-321 682,-700l0 -2404c-1227,57 -2380,76 -3463,54l0 281c563,16 1102,31 1536,41 550,12 929,16 1115,169z"/> </g> <g> <path class="fil4" d="M54143 5543c-348,3246 933,4280 3295,4364 1788,-81 3826,-34 3384,-4631 -330,-2110 -1885,-4339 -3473,-4431 -1618,16 -2766,2053 -3206,4698z"/> <path class="fil5" d="M57581 4184c499,-140 974,-175 1432,-138 -417,317 -869,565 -1362,730l151 1291c569,-185 1129,-268 1684,-279 -492,381 -1005,736 -1602,973l145 1231c645,82 1267,155 1875,279 -502,246 -1101,434 -1775,575l283 2408c-646,0 -1291,0 -1937,0l243 -2290c-672,-99 -1272,-264 -1813,-482 581,-212 1212,-372 1913,-464l108 -1017c-548,-122 -1095,-290 -1642,-495 594,-176 1175,-302 1730,-335l134 -1266c-451,-80 -881,-291 -1307,-520 470,-98 934,-168 1379,-163l173 -1635 188 1597z"/> <path class="fil7" d="M57992 6009c-18,-168 -33,-336 -28,-508 5,-205 38,-415 253,-707 110,-151 269,-324 451,-507 -319,204 -657,368 -1017,489l151 1291c64,-20 127,-40 190,-58z"/> <path class="fil7" d="M58203 7515c-22,-202 -11,-382 165,-649 127,-193 340,-431 577,-682 -330,225 -678,425 -1061,577l145 1231c91,12 182,23 273,35 -43,-178 -82,-352 -99,-512z"/> <path class="fil7" d="M58497 9838c-25,-148 -47,-292 -53,-415 -7,-151 9,-270 167,-410 158,-140 456,-301 732,-473 41,-26 83,-52 123,-78 -401,155 -849,282 -1337,384l120 1017c83,-7 166,-15 248,-25z"/> <path class="fil6" d="M57393 2587l76 7319 14 1348 929 0 -163 -1391 -120 -1017c488,-102 936,-229 1337,-384 153,-60 299,-123 438,-191 -522,-107 -1054,-175 -1602,-244 -91,-12 -182,-23 -273,-35l-145 -1231c383,-152 731,-352 1061,-577 185,-126 365,-259 541,-396 -493,10 -991,76 -1494,221 -63,18 -126,38 -190,58l-151 -1291c360,-121 698,-285 1017,-489 118,-75 233,-156 345,-241 -458,-37 -933,-2 -1432,138l-188 -1597z"/> </g> <g> <path class="fil16" d="M42058 6768c-476,4457 1282,5876 4525,5992 2455,-112 5254,-48 4647,-6359 -453,-2897 -2588,-5959 -4769,-6084 -2221,21 -3798,2818 -4403,6451z"/> <path class="fil1" d="M46780 4902c685,-192 1337,-242 1966,-190 -573,435 -1194,775 -1871,1002l208 1773c781,-254 1551,-368 2313,-383 -677,523 -1380,1010 -2201,1336l199 1690c886,113 1740,213 2575,383 -689,339 -1512,596 -2437,789l389 3307c-887,0 -1774,0 -2660,0l333 -3145c-922,-135 -1746,-361 -2488,-661 797,-290 1664,-511 2626,-637l148 -1396c-752,-168 -1503,-398 -2255,-680 816,-241 1613,-416 2375,-460l185 -1739c-620,-110 -1210,-399 -1795,-713 646,-135 1283,-231 1894,-224l238 -2245 258 2193z"/> <path class="fil17" d="M47343 7407c-24,-230 -45,-461 -38,-697 7,-282 53,-570 347,-971 152,-207 370,-444 621,-696 -438,279 -903,505 -1398,671l208 1773c87,-28 174,-55 260,-80z"/> <path class="fil17" d="M47633 9475c-30,-277 -15,-525 227,-891 175,-265 467,-592 793,-937 -454,309 -932,584 -1458,793l199 1690c126,16 251,32 375,48 -59,-244 -112,-483 -136,-703z"/> <path class="fil17" d="M48037 12665c-34,-203 -64,-401 -73,-570 -10,-207 13,-370 230,-563 216,-192 626,-414 1005,-649 57,-36 113,-72 169,-108 -551,214 -1166,387 -1836,527l164 1397c114,-9 228,-20 341,-34z"/> <path class="fil2" d="M46522 2709l103 10049 19 1851 1277 0 -225 -1910 -164 -1397c670,-140 1285,-313 1836,-527 210,-81 410,-169 601,-262 -717,-146 -1447,-241 -2200,-335 -124,-16 -249,-32 -375,-48l-199 -1690c526,-209 1004,-484 1458,-793 254,-172 500,-355 743,-543 -678,13 -1361,105 -2053,303 -86,25 -173,52 -260,80l-208 -1773c495,-166 960,-392 1398,-671 161,-104 319,-214 473,-331 -629,-52 -1281,-2 -1966,190l-258 -2193z"/> </g> <g> <path class="fil16" d="M60491 41529c2268,-2190 -103,-11076 -2012,-16093 -3575,6444 -4363,14520 -2203,15949 1298,728 2884,1085 4215,144z"/> <path class="fil8" d="M58090 30145l-39 2021c-313,146 -627,207 -940,230 302,82 611,122 934,80l-19 971c-278,150 -624,142 -984,101 292,217 606,335 979,201l-26 1347c-617,191 -978,165 -1264,74 293,278 660,462 1256,354l-25 1298c-482,252 -963,157 -1444,85 478,232 957,462 1435,347l-24 1285c-519,244 -1150,116 -1761,51 565,203 1129,413 1752,416l-26 1353c-545,121 -1122,-54 -1696,-195 532,328 1071,637 1685,744l-129 6743c368,0 735,0 1102,0l-301 -6868c783,-73 1359,-416 1798,-939 -577,211 -1170,375 -1822,385l-55 -1267c647,-61 1223,-319 1775,-645 -598,119 -1197,229 -1796,184l-53 -1222c538,59 986,-115 1394,-393 -419,78 -864,112 -1412,-17l-64 -1465c439,2 797,-77 1015,-296 -344,-6 -689,-38 -1032,-99l-55 -1254c512,83 757,-40 895,-246 -197,92 -436,140 -909,-55l-45 -1028c365,55 680,-33 981,-162 -343,19 -678,4 -992,-99l-88 -2020z"/> <path class="fil18" d="M58094 30248l111 11653 55 5750 596 0 -252 -5752 -49 -1116c783,-73 1359,-416 1798,-939 -577,211 -1170,375 -1822,385l-55 -1267c647,-61 1223,-319 1775,-645 -598,119 -1197,229 -1796,184l-53 -1222c538,59 986,-115 1394,-393 -419,78 -864,112 -1412,-17l-64 -1465c439,2 797,-77 1015,-296 -344,-6 -689,-38 -1032,-99l-55 -1254c512,83 757,-40 895,-246 -197,92 -436,140 -909,-55l-45 -1028c365,55 680,-33 981,-162 -343,19 -678,4 -992,-99l-84 -1917z"/> </g> <g> <path class="fil4" d="M14301 42787c-9661,3110 -3785,-10364 -5815,-13199 4446,1567 13914,9040 5815,13199z"/> <path class="fil0" d="M14403 42734c-111,2101 -572,4149 -1566,6115 -291,-35 -581,-69 -871,-104 1147,-1639 1886,-3588 2209,-5853 27,-283 40,-563 42,-840 -1182,130 -2229,-86 -3240,-406 1084,212 2166,334 3239,170 -10,-517 -62,-1022 -152,-1518 -1139,130 -2112,-126 -3048,-470 978,281 1977,460 3029,367 -103,-535 -251,-1059 -437,-1573 -879,160 -1661,3 -2402,-285 779,220 1563,326 2359,171 -209,-557 -464,-1102 -758,-1637 -892,277 -1819,65 -2762,-339 960,323 1867,443 2673,180 -498,-877 -1101,-1726 -1780,-2554 432,455 826,923 1182,1406 182,-414 283,-999 345,-1667 12,647 -47,1261 -235,1818 358,502 675,1020 949,1555 441,-387 658,-1186 728,-2253 5,977 -126,1843 -668,2373 313,631 565,1287 755,1971 594,-640 879,-1622 1061,-2719 -65,1058 -332,2045 -1017,2883 146,563 250,1144 309,1746 685,-564 1179,-1631 1590,-2918 -322,1277 -752,2423 -1574,3098 35,417 49,845 40,1283z"/> </g> <g> <path class="fil0" d="M4264 27192c10470,4804 5658,-11173 8328,-14095 -5222,1168 -16898,8319 -8328,14095z"/> <path class="fil16" d="M4155 27118c-157,2384 87,4754 944,7103 332,0 664,0 996,0 -1074,-2001 -1644,-4298 -1704,-6893 8,-323 30,-640 66,-953 1315,305 2524,203 3706,-22 -1251,93 -2486,84 -3673,-245 80,-580 207,-1143 375,-1689 1266,299 2397,141 3499,-120 -1141,184 -2290,252 -3463,6 188,-589 424,-1160 704,-1714 969,298 1871,227 2745,1 -908,143 -1806,158 -2682,-125 310,-599 671,-1179 1075,-1742 967,432 2041,318 3157,-11 -1125,235 -2163,248 -3036,-156 679,-922 1473,-1798 2350,-2640 -548,455 -1056,930 -1522,1426 -149,-491 -185,-1164 -164,-1925 -101,727 -117,1428 21,2081 -472,517 -899,1058 -1279,1625 -445,-496 -582,-1425 -518,-2638 -137,1100 -106,2094 434,2765 -438,669 -811,1374 -1116,2120 -583,-801 -774,-1946 -830,-3208 -69,1202 99,2350 758,3387 -240,614 -435,1256 -583,1926 -696,-728 -1110,-1997 -1400,-3503 191,1483 522,2833 1358,3703 -96,466 -169,946 -218,1441z"/> </g> <g> <path class="fil4" d="M16372 30835c1521,912 2620,980 4004,-23 2216,891 3913,619 4693,-1705 2435,-567 2692,-2313 1844,-4658 1694,-2490 489,-3906 -1514,-5027 -318,-2549 -1989,-2760 -4565,-1410 -1868,-1473 -3491,-1443 -4744,846 -2277,625 -2758,2025 -2026,3949 -1608,1752 -1342,3378 128,4924 -451,1825 536,3450 2180,3104z"/> <path class="fil5" d="M19699 31357c-43,3949 -86,7899 -129,11848 479,0 958,0 1437,0 0,-3971 0,-7942 0,-11912 315,-1227 1265,-2706 2115,-3963 524,-880 811,-1094 398,-2718 -678,-111 -133,2783 -1090,1641 -234,-202 -394,-787 -318,-1248 205,-1247 893,-2562 395,-3048 -1117,-179 -822,4581 -526,5514 296,933 -826,1640 -1083,1456 -200,-207 501,-2165 -45,-2366 -838,-195 -113,2364 -1001,2385 -2081,-978 1027,-4229 949,-4539 -320,-98 -937,1257 -1154,1218 -707,-240 1463,-3733 1206,-3757 -883,-33 -1699,2565 -1776,3000 -94,463 -160,1344 -635,1539 -588,157 -207,-5536 -539,-5437 -876,1208 223,3145 -128,5514 -108,656 -908,-539 -1205,0 214,935 867,549 1891,1872 573,671 793,2035 1238,3001z"/> <path class="fil6" d="M20379 30813l0 12392 628 0 0 -11912c19,-78 42,-156 66,-235 368,-1177 1252,-2550 2049,-3728 524,-880 811,-1094 398,-2718 -678,-111 -133,2783 -1090,1641 -234,-202 -394,-787 -318,-1248 205,-1247 893,-2562 395,-3048 -1117,-179 -822,4581 -526,5514 296,933 -826,1640 -1083,1456 -200,-207 501,-2165 -45,-2366 -390,-91 -442,415 -474,983l0 3269z"/> </g> <g> <path class="fil4" d="M33197 37259c1223,733 2106,788 3219,-18 1782,716 3146,497 3773,-1371 1957,-456 2165,-1859 1482,-3745 1363,-2002 394,-3140 -1216,-4041 -256,-2049 -1600,-2219 -3670,-1134 -1502,-1183 -2807,-1160 -3814,681 -1831,502 -2218,1628 -1629,3175 -1293,1408 -1079,2715 103,3958 -362,1467 431,2774 1752,2495z"/> <path class="fil16" d="M36318 28134c-1008,454 -123,2598 348,1333 263,-709 236,-960 -348,-1333z"/> <path class="fil16" d="M33912 35234c-1008,455 -123,2599 347,1333 264,-708 237,-960 -347,-1333z"/> <path class="fil16" d="M34791 30219c-649,-18 -1967,1917 -288,1738 236,-25 354,-1430 288,-1738z"/> <path class="fil16" d="M36318 30895c-700,640 927,4984 886,857 -7,-743 -431,-573 -886,-857z"/> <path class="fil16" d="M37787 28310c-1243,2544 2245,3429 445,128 -169,-13 -193,-83 -445,-128z"/> <path class="fil16" d="M33705 27194c262,825 36,1256 430,1836 732,1080 1919,-2469 -430,-1836z"/> <path class="fil16" d="M34813 32422c39,299 -51,4646 344,1985 102,-689 169,-1312 -138,-1938 -39,-79 -198,10 -206,-47z"/> <path class="fil16" d="M39109 31482c-122,268 198,2293 360,2294 1117,1 461,-3128 -197,-2262 -50,66 -167,-23 -163,-32z"/> <path class="fil16" d="M38183 34537c-515,-171 -687,413 -323,1035 285,487 -693,407 74,1655 1138,162 528,-543 678,-1633 108,-789 -264,-1003 -429,-1057z"/> <path class="fil16" d="M33837 32363c-1501,1071 -282,1092 -223,2306 20,405 1017,-238 627,-1246 -29,-75 35,-997 -404,-1060z"/> <path class="fil16" d="M39329 28619c8,46 -109,1876 557,1510 7,-4 690,-1701 -283,-1701 -348,0 -307,8 -274,191z"/> <path class="fil16" d="M32794 28340c-926,614 -930,2790 318,1945 315,-214 243,-1766 -318,-1945z"/> <path class="fil16" d="M32254 31748c-926,615 -930,2791 318,1945 315,-213 242,-1766 -318,-1945z"/> <path class="fil16" d="M35537 30407c-88,-2 -259,457 212,416 35,-3 354,-335 -33,-383 -88,-11 -10,-30 -179,-33z"/> <path class="fil16" d="M39681 34537c-854,1317 485,1433 485,878 0,-879 -223,-297 -485,-878z"/> <path class="fil16" d="M41223 30307c-541,-20 -618,1457 374,1229 348,-80 -259,-1725 -374,-1229z"/> <path class="fil16" d="M38477 26607c-319,395 -314,1429 602,1495 421,31 487,-1225 -472,-1407 -40,-7 -136,-81 -130,-88z"/> <path class="fil16" d="M40827 32202c-492,1384 1659,1356 567,-135 -25,-35 -490,-83 -567,135z"/> <path class="fil16" d="M32322 34498c-492,1385 1659,1356 568,-135 -26,-35 -491,-83 -568,135z"/> <path class="fil16" d="M40085 30535c-72,31 -265,-58 -244,250 7,105 391,395 362,51 -16,-184 55,-165 -95,-292 -5,-4 -21,-10 -23,-9z"/> <path class="fil16" d="M32764 30999c-72,31 -265,-58 -244,250 7,105 391,395 362,51 -16,-183 56,-165 -95,-292 -5,-4 -20,-10 -23,-9z"/> <path class="fil16" d="M38503 30847c-257,180 -107,484 200,367 336,-128 -91,-563 -165,-363 -7,20 -54,10 -35,-4z"/> <path class="fil16" d="M30960 31280c272,596 482,1084 441,-221 -3,-101 -24,-185 -59,-253 -147,159 -274,317 -382,474z"/> <path class="fil16" d="M31143 34106c347,-80 -260,-1726 -374,-1229 -119,-4 -215,63 -282,168 57,367 209,729 445,1084 64,2 134,-6 211,-23z"/> <path class="fil16" d="M31814 35979c421,31 487,-1225 -472,-1407 -40,-8 -136,-81 -130,-88 -3,3 -5,6 -8,10 75,90 155,181 241,270 -94,380 -110,749 -60,1082 113,72 254,120 429,133z"/> <path class="fil16" d="M32172 37109c0,-880 -223,-298 -484,-879 -49,75 -90,146 -125,213 140,294 347,531 609,680 0,-5 0,-9 0,-14z"/> <path class="fil16" d="M32322 34498c-492,1385 1659,1356 568,-135 -26,-35 -491,-83 -568,135z"/> <path class="fil16" d="M32254 31748c-926,615 -930,2791 318,1945 315,-213 242,-1766 -318,-1945z"/> <path class="fil16" d="M33837 32363c-1501,1071 -282,1092 -223,2306 20,405 1017,-238 627,-1246 -29,-75 35,-997 -404,-1060z"/> <path class="fil16" d="M36318 30895c-700,640 927,4984 886,857 -7,-743 -431,-573 -886,-857z"/> <path class="fil16" d="M35157 34407c102,-689 169,-1312 -138,-1938 -39,-79 -198,10 -206,-47 39,299 -51,4646 344,1985z"/> <path class="fil16" d="M34259 36567c264,-708 237,-960 -347,-1333 -1008,455 -123,2599 347,1333z"/> <path class="fil16" d="M36167 35695c-68,-562 -908,-413 -908,959 0,113 -20,930 5,1134 15,-3 30,-6 46,-10 223,-527 862,-2043 857,-2083z"/> <path class="fil16" d="M36480 34346c-17,170 -76,2147 24,2929 179,70 354,130 525,179 258,-269 -64,-910 -64,-1764 0,-464 -136,-1037 -485,-1344z"/> <path class="fil16" d="M37860 35572c285,487 -693,407 74,1655 1138,162 528,-543 678,-1633 108,-789 -264,-1003 -429,-1057 -515,-171 -687,413 -323,1035z"/> <path class="fil16" d="M39681 34537c-854,1317 485,1433 485,878 0,-879 -223,-297 -485,-878z"/> <path class="fil16" d="M40475 33773c-90,198 62,1356 212,1947 302,-115 547,-261 741,-434 87,-862 -351,-2058 -789,-1481 -50,65 -168,-24 -164,-32z"/> <path class="fil16" d="M40827 32202c-492,1384 1659,1356 567,-135 -25,-35 -490,-83 -567,135z"/> <path class="fil16" d="M39469 33776c1117,1 461,-3128 -197,-2262 -50,66 -167,-23 -163,-32 -122,268 198,2293 360,2294z"/> <path class="fil16" d="M37843 33804c314,471 997,-41 377,-1265 -55,-109 -460,-963 -538,-1040l-19 -11c34,490 157,2281 180,2316z"/> <path class="fil16" d="M37787 28310c-1243,2544 2245,3429 445,128 -169,-13 -193,-83 -445,-128z"/> <path class="fil16" d="M39329 28619c8,46 -109,1876 557,1510 7,-4 690,-1701 -283,-1701 -348,0 -307,8 -274,191z"/> <path class="fil16" d="M39079 28102c421,31 487,-1225 -472,-1407 -40,-7 -136,-81 -130,-88 -319,395 -314,1429 602,1495z"/> <path class="fil16" d="M37611 27723c0,-513 -73,-850 -189,-1077 -203,87 -416,188 -637,304 -199,-157 -395,-292 -587,-405 99,883 88,1178 1413,1178z"/> <path class="fil16" d="M34135 29030c732,1080 1919,-2469 -430,-1836 262,825 36,1256 430,1836z"/> <path class="fil16" d="M33112 30285c315,-214 243,-1766 -318,-1945 -926,614 -930,2790 318,1945z"/> <path class="fil16" d="M34791 30219c-649,-18 -1967,1917 -288,1738 236,-25 354,-1430 288,-1738z"/> <path class="fil16" d="M32882 31300c-16,-183 56,-165 -95,-292 -5,-4 -20,-10 -23,-9 -72,31 -265,-58 -244,250 7,105 391,395 362,51z"/> <path class="fil16" d="M35537 30407c-88,-2 -259,457 212,416 35,-3 354,-335 -33,-383 -88,-11 -10,-30 -179,-33z"/> <path class="fil16" d="M36318 28134c-1008,454 -123,2598 348,1333 263,-709 236,-960 -348,-1333z"/> <path class="fil16" d="M38503 30847c-257,180 -107,484 200,367 336,-128 -91,-563 -165,-363 -7,20 -54,10 -35,-4z"/> <path class="fil16" d="M41223 30307c-541,-20 -618,1457 374,1229 348,-80 -259,-1725 -374,-1229z"/> <path class="fil16" d="M40357 27987c409,532 856,2288 812,549 -217,-159 -458,-308 -714,-452 -5,-37 -10,-73 -15,-108 -7,1 -13,2 -20,4l-63 7z"/> <path class="fil16" d="M40108 30544c-5,-4 -21,-10 -23,-9 -72,31 -265,-58 -244,250 7,105 391,395 362,51 -16,-184 55,-165 -95,-292z"/> <g> <path class="fil5" d="M35872 37679c-35,3175 -69,6350 -103,9525 385,0 769,0 1154,0 0,-3192 0,-6385 0,-9577 254,-986 1017,-2175 1701,-3185 421,-708 652,-880 320,-2186 -545,-89 -107,2238 -877,1320 -187,-162 -316,-633 -255,-1004 165,-1002 718,-2060 317,-2450 -898,-144 -660,3683 -422,4433 238,750 -665,1318 -871,1170 -161,-166 403,-1740 -37,-1902 -673,-157 -90,1901 -804,1918 -1673,-786 826,-3400 763,-3650 -257,-78 -753,1011 -928,980 -568,-193 1176,-3002 969,-3021 -709,-26 -1365,2062 -1427,2412 -76,373 -128,1080 -511,1237 -472,127 -166,-4450 -433,-4370 -704,971 179,2528 -103,4432 -86,527 -730,-433 -969,0 173,752 697,442 1521,1505 460,540 637,1636 995,2413z"/> <path class="fil6" d="M36418 37242l0 9962 505 0 0 -9577c16,-62 34,-125 54,-188 296,-947 1006,-2051 1647,-2997 421,-708 652,-880 320,-2186 -545,-89 -107,2238 -877,1320 -187,-162 -316,-633 -255,-1004 165,-1002 718,-2060 317,-2450 -898,-144 -660,3683 -422,4433 238,750 -665,1318 -871,1170 -161,-166 403,-1740 -37,-1902 -313,-73 -354,334 -381,791l0 2628z"/> </g> </g> <g> <path class="fil19" d="M43303 27635c-615,-23 -702,-379 -567,-1335 402,0 804,0 1207,0 61,863 -24,1329 -640,1335z"/> <path class="fil8" d="M42802 27012c-614,-23 -701,-379 -567,-1335 402,0 805,0 1207,0 61,863 -24,1329 -640,1335z"/> <path class="fil8" d="M42335 26233c-615,-23 -702,-379 -567,-1335 402,0 804,0 1207,0 61,863 -24,1329 -640,1335z"/> <path class="fil20" d="M44215 27557c-614,-23 -701,-379 -567,-1335 402,0 805,0 1207,0 61,863 -24,1329 -640,1335z"/> <path class="fil8" d="M44705 26934c-615,-23 -702,-379 -567,-1335 402,0 804,0 1207,0 61,863 -24,1329 -640,1335z"/> <path class="fil21" d="M43715 27023c-615,-23 -702,-379 -568,-1335 403,0 805,0 1207,0 62,863 -24,1329 -639,1335z"/> <path class="fil20" d="M43223 26214c-615,-23 -702,-379 -567,-1335 402,0 804,0 1207,0 61,863 -24,1329 -640,1335z"/> <path class="fil8" d="M44046 26178c-615,-23 -702,-379 -568,-1335 403,0 805,0 1207,0 62,863 -24,1329 -639,1335z"/> <path class="fil22" d="M45020 26087c-615,-23 -702,-379 -568,-1335 403,0 805,0 1207,0 61,863 -24,1329 -639,1335z"/> <path class="fil8" d="M45291 25402c-614,-23 -701,-378 -567,-1335 402,0 805,0 1207,0 61,863 -24,1329 -640,1335z"/> <path class="fil19" d="M44327 25299c-615,-22 -701,-378 -567,-1335 402,0 805,0 1207,0 61,864 -24,1330 -640,1335z"/> <path class="fil8" d="M44211 24527c-615,-22 -701,-378 -567,-1335 402,0 805,0 1207,0 61,864 -24,1330 -640,1335z"/> <path class="fil22" d="M45369 24545c-615,-22 -701,-378 -567,-1335 402,0 805,0 1207,0 61,864 -24,1330 -640,1335z"/> <path class="fil22" d="M43260 25282c-615,-23 -702,-378 -567,-1335 402,0 804,0 1207,0 61,864 -24,1329 -640,1335z"/> <path class="fil23" d="M42146 25351c-615,-23 -702,-379 -568,-1336 402,0 805,0 1207,0 61,864 -24,1330 -639,1336z"/> <path class="fil23" d="M42146 25351c-615,-23 -702,-379 -568,-1336 402,0 805,0 1207,0 61,864 -24,1330 -639,1336z"/> <path class="fil20" d="M42146 25351c-615,-23 -702,-379 -568,-1336 402,0 805,0 1207,0 61,864 -24,1330 -639,1336z"/> <path class="fil22" d="M42045 24597c-661,-23 -755,-379 -610,-1335 433,0 866,0 1299,0 65,863 -26,1329 -689,1335z"/> <path class="fil8" d="M43329 24596c-677,-23 -772,-379 -624,-1336 443,0 886,0 1329,0 67,864 -27,1330 -705,1336z"/> <path class="fil8" d="M45621 23703c-615,-23 -702,-379 -568,-1335 403,0 805,0 1207,0 61,863 -24,1329 -639,1335z"/> <path class="fil5" d="M44796 23648c-615,-23 -702,-378 -567,-1335 402,0 804,0 1207,0 61,864 -24,1329 -640,1335z"/> <path class="fil19" d="M43869 23595c-615,-23 -702,-379 -568,-1335 403,0 805,0 1208,0 61,863 -24,1329 -640,1335z"/> <path class="fil5" d="M42892 23610c-615,-23 -702,-379 -568,-1335 403,0 805,0 1207,0 62,863 -24,1329 -639,1335z"/> <path class="fil5" d="M41724 23745c-615,-23 -702,-378 -568,-1335 403,0 805,0 1208,0 61,863 -24,1329 -640,1335z"/> <path class="fil19" d="M45630 22837c-614,-22 -701,-378 -567,-1335 402,0 805,0 1207,0 61,864 -24,1330 -640,1335z"/> <path class="fil8" d="M44660 22840c-614,-23 -701,-379 -567,-1336 402,0 805,0 1207,0 61,864 -24,1330 -640,1336z"/> <path class="fil5" d="M43499 22737c-615,-23 -702,-378 -567,-1335 402,0 805,0 1207,0 61,864 -24,1330 -640,1335z"/> <path class="fil8" d="M42371 22904c-615,-23 -702,-378 -568,-1335 403,0 805,0 1207,0 61,863 -24,1329 -639,1335z"/> <path class="fil5" d="M41428 23000c-615,-23 -702,-379 -567,-1336 402,0 804,0 1207,0 61,864 -24,1330 -640,1336z"/> <path class="fil5" d="M45850 22002c-609,82 -755,-253 -786,-1219 396,-68 792,-137 1189,-206 208,840 203,1314 -403,1425z"/> <path class="fil5" d="M44690 22109c-614,-23 -701,-379 -567,-1335 402,0 805,0 1207,0 61,863 -24,1329 -640,1335z"/> <path class="fil19" d="M43516 22070c-614,-23 -701,-379 -567,-1335 402,0 805,0 1207,0 61,863 -24,1329 -640,1335z"/> <path class="fil8" d="M42432 22042c-615,-23 -702,-378 -567,-1335 402,0 804,0 1207,0 61,863 -24,1329 -640,1335z"/> <path class="fil24" d="M41291 21958c-615,-22 -702,-378 -567,-1335 402,0 805,0 1207,0 61,864 -24,1330 -640,1335z"/> <path class="fil25" d="M45630 21251c-615,-23 -702,-378 -568,-1335 403,0 805,0 1207,0 62,864 -24,1329 -639,1335z"/> <path class="fil8" d="M44646 21185c-615,-22 -702,-378 -567,-1335 402,0 804,0 1207,0 61,864 -24,1330 -640,1335z"/> <path class="fil26" d="M43522 21185c-615,-22 -701,-378 -567,-1335 402,0 805,0 1207,0 61,864 -24,1330 -640,1335z"/> <path class="fil19" d="M42376 21085c-615,-22 -701,-378 -567,-1335 402,0 805,0 1207,0 61,864 -24,1330 -640,1335z"/> <path class="fil27" d="M42365 20129c-615,-23 -701,-379 -567,-1336 402,0 805,0 1207,0 61,864 -24,1330 -640,1336z"/> <path class="fil5" d="M41164 21073c-609,-89 -657,-452 -420,-1389 400,43 800,87 1200,130 -33,865 -167,1319 -780,1259z"/> <path class="fil28" d="M46021 20221c-528,316 -795,66 -1205,-809 337,-220 674,-439 1011,-659 523,690 706,1126 194,1468z"/> <path class="fil29" d="M44585 20344c-615,-23 -702,-379 -568,-1335 403,0 805,0 1207,0 62,863 -24,1329 -639,1335z"/> <path class="fil8" d="M43522 20240c-615,-23 -701,-379 -567,-1335 402,0 805,0 1207,0 61,863 -24,1329 -640,1335z"/> <path class="fil8" d="M43622 19283c-614,-23 -701,-379 -567,-1335 402,0 805,0 1207,0 61,863 -24,1329 -640,1335z"/> <path class="fil8" d="M41156 20116c-581,-204 -558,-570 -147,-1443 384,119 769,238 1153,357 -197,843 -416,1262 -1006,1086z"/> <path class="fil5" d="M41267 19057c-535,-303 -449,-659 110,-1446 358,185 715,370 1072,555 -343,794 -632,1169 -1182,891z"/> <path class="fil30" d="M42547 19276c-612,-66 -673,-427 -471,-1372 401,29 803,57 1204,86 0,866 -118,1324 -733,1286z"/> <path class="fil8" d="M41700 18359c-733,-298 -409,-844 147,-1382 462,174 804,254 1266,428 -335,649 -646,1249 -1413,954z"/> <path class="fil27" d="M43215 18421c-677,-17 -821,-384 -628,-1319 498,0 997,0 1496,0 44,912 -304,1268 -868,1319z"/> <path class="fil5" d="M45752 19539c-574,258 -815,-29 -1126,-966 369,-182 738,-365 1106,-547 448,763 581,1228 20,1513z"/> <path class="fil27" d="M45432 18712c-544,289 -797,25 -1162,-869 348,-202 696,-404 1044,-607 487,716 647,1162 118,1476z"/> <path class="fil19" d="M44745 19168c-598,158 -778,-194 -906,-1252 388,-120 775,-239 1163,-359 291,900 335,1421 -257,1611z"/> <path class="fil8" d="M44691 18326c691,-132 773,-519 410,-1407 -511,86 -1022,171 -1533,256 117,906 536,1197 1123,1151z"/> <path class="fil5" d="M43567 15315c-196,-5 -281,595 -334,1146 182,0 364,0 545,0 -16,-439 -19,-1133 -211,-1146z"/> <path class="fil31" d="M45372 17346c-86,-464 -705,-975 -1235,-991 -464,0 -927,0 -1391,0 -482,7 -1119,720 -1324,1080 494,78 987,79 1480,-290 365,321 800,332 1313,0 499,326 866,350 1157,201z"/> </g> <g> <path class="fil32" d="M7281 8104c700,-1043 1401,-2086 2101,-3129 309,82 867,-7484 -1368,-4048 -1393,-1548 -1286,-1009 -2133,526 467,2217 934,4433 1400,6651z"/> <path class="fil33" d="M6737 8346c321,-241 642,-481 963,-722 -189,-5880 -2314,-9243 -2669,-5645 -939,-1192 -2151,-656 -1510,897 -2119,-2318 -2940,3845 3216,5470z"/> <path class="fil1" d="M7242 11945c-163,42 -325,84 -487,126 -58,729 -403,1241 -782,1635 -142,-64 -241,-166 -383,-230 -75,123 -150,245 -224,367 113,69 226,138 339,208 -113,138 -226,277 -339,415 91,64 182,128 273,192 100,-141 201,-281 301,-421 117,63 233,127 350,191 78,-119 157,-237 235,-355 -105,-64 -211,-128 -317,-192 455,-431 812,-1053 1034,-1936z"/> <path class="fil1" d="M8386 11561c-154,67 -308,134 -461,201 57,729 -204,1289 -516,1738 -150,-41 -264,-126 -414,-167 -55,132 -109,265 -164,397 122,51 245,101 367,152 -89,155 -179,309 -269,464 100,49 200,97 300,146 77,-154 154,-309 231,-463 125,45 250,89 376,134 59,-129 117,-259 176,-388 -114,-47 -229,-93 -343,-139 382,-497 636,-1168 717,-2075z"/> <g> <polygon class="fil34" points="12812,4741 12560,3440 14168,3440 "/> <polygon class="fil35" points="14160,3448 12653,3923 12812,4741 "/> </g> <path class="fil36" d="M7227 7586c-2282,3150 -4682,1769 -6957,985 1460,2836 3401,4806 7198,3435 8293,-2682 6437,-16668 -241,-4420z"/> <path class="fil37" d="M12183 3539c-170,252 -492,659 -689,665 -197,6 -511,-246 -677,-703 711,663 682,465 1366,38z"/> <path class="fil38" d="M9991 10644c1549,-1253 2456,-2968 2817,-4490 -152,31 -302,70 -448,120 -427,146 -828,387 -1131,715 -302,328 -506,744 -663,1145 -157,401 -266,788 -372,1302 -74,359 -146,781 -203,1208z"/> </g> <g> <path class="fil39" d="M55043 21037c-654,-974 -1308,-1949 -1962,-2923 -290,77 -811,-6991 1277,-3781 1301,-1446 1201,-943 1993,491 -436,2071 -872,4142 -1308,6213z"/> <path class="fil40" d="M55551 21263c-299,-225 -599,-449 -899,-674 176,-5493 2162,-8634 2493,-5273 877,-1114 2009,-613 1411,838 1979,-2166 2746,3592 -3005,5109z"/> <path class="fil1" d="M55080 24625c151,39 303,78 455,118 53,681 376,1160 730,1527 133,-59 225,-155 358,-214 70,114 139,228 209,342 -105,65 -211,130 -316,194 105,130 211,259 316,389 -85,59 -170,119 -255,178 -94,-131 -187,-262 -281,-393 -109,60 -218,119 -327,179 -73,-111 -147,-222 -220,-332 99,-60 198,-120 296,-179 -425,-402 -758,-984 -965,-1809z"/> <path class="fil1" d="M54011 24267c144,62 287,125 431,187 -54,682 190,1205 482,1624 140,-38 246,-118 386,-156 51,123 103,247 154,371 -115,47 -229,95 -344,142 84,144 168,289 252,433 -93,46 -187,91 -280,137 -72,-145 -144,-289 -216,-433 -117,42 -234,83 -351,125 -55,-121 -110,-242 -165,-362 107,-44 214,-87 321,-130 -357,-465 -594,-1091 -670,-1938z"/> <g> <polygon class="fil34" points="49877,17896 50112,16680 48610,16680 "/> <polygon class="fil35" points="48618,16688 50025,17132 49877,17896 "/> </g> <path class="fil41" d="M55093 20554c2132,2942 4375,1652 6499,920 -1363,2649 -3177,4489 -6724,3208 -7746,-2505 -6012,-15570 225,-4128z"/> <path class="fil37" d="M50464 16773c159,235 459,615 644,621 184,6 476,-229 632,-657 -664,620 -637,435 -1276,36z"/> <path class="fil42" d="M52511 23410c-1446,-1171 -2294,-2773 -2631,-4195 142,30 282,66 419,113 398,136 773,361 1056,668 282,306 473,695 620,1069 146,375 248,736 347,1216 69,336 137,730 189,1129z"/> </g> </g> </g> </svg>