<?xml version="1.0" encoding="UTF-8"?>
<svg version="1.1" viewBox="0 0 1075 930" xmlns="http://www.w3.org/2000/svg">
 <path d="m0 0h638.4c-42.23 1.97-84.3 11.08-122.9 28.52-28.82 12.88-55.6 30.05-80.03 49.99-1.02 1.02-2.42 1.79-3.75 0.82-17.61-9.77-36.61-16.69-55.61-23.22-4.91-2.82-9.64-5.97-14.8-8.36-20.03-9.38-41.2-16.34-62.84-20.91-11.64-2.31-23.53-4.25-35.43-3.17-4.57 0.63-9.79 1.67-12.59 5.75-4.22 5.94-3.26 13.68-2.93 20.54 1.74 13.78 6.16 27.05 11.01 40.01 5.75 15.12 12.79 29.72 20.6 43.88 9.78 22.58 19.34 45.46 32.84 66.14 1.77 3.14 4.72 5.29 6.94 8.04-1.34 2.81-3.48 5.12-5.2 7.69-11.58 16.44-22.88 33.08-34 49.84-8.69 13.34-18.52 26.28-23.52 41.59-6.95 18.99-6.49 40.19-0.19 59.29 1.51 6.1 4.4 11.72 7.24 17.28 10.78 20.28 26.65 37.3 43.74 52.41 27.36 23.54 58.6 42.17 90.99 57.92 22.77 11.04 46.27 20.57 70.18 28.86 4.54 1.64 9.35 2.67 13.52 5.21-44.99 6.49-90.32 10.22-135.64 13.54-20.94 1.89-42.26 3.28-62.32 10.07-13.15 4.4-24.94 12.62-33.51 23.53-8.43 10.64-14.17 23.07-19.25 35.58-3.88-3.78-6.96-8.26-10.62-12.22-5.2-5.37-11.27-10.07-18.34-12.69-14.27-5.28-30.2-6.05-44.89-2.06-7.29 1.96-14.72 4.06-21.1 8.23-14.13 8.85-24.32 22.65-38.47 31.48-7.29 4.47-15.41 7.87-24 8.6-15.93-4-30.84-12.59-41.34-25.35-9.56-11.17-15.33-25.29-17.17-39.82-0.64-2.2-0.31-5.69-3.11-6.33-2.05 0.22-2.32 2.68-2.79 4.26-3.15 14.54-5.39 29.27-7.02 44.06-0.83 6.81-0.78 13.72-2.1 20.47v-629.47z" fill="#fff"/>
 <path d="m638.4 0h49.26c42.24 2.02 84.32 11.14 122.91 28.64 27.42 12.26 52.99 28.44 76.44 47.18 16.57-8.24 33.86-15.01 51.49-20.65 1.75-0.6 3.48-1.31 5.22-2.02 19.88-5.2 39.81-10.72 60.32-12.81 11.81-1.08 24.31-2.18 35.59 2.27 6.4 2.38 9.64 9.2 10.65 15.55 1.74 14.44-1.19 28.92-5.03 42.8-3.2 12.68-8.23 24.78-12.26 37.2-9.8 21.01-18.44 42.85-31.76 61.97 7.49 11.33 15.77 22.13 23.3 33.44 8.1 11.9 16.23 23.78 24.12 35.83 6.21 9.55 13.03 18.79 17.62 29.27 7.51 16.6 10.64 35.46 7.09 53.45-0.68 4.82-2.46 9.39-3.21 14.19-3.36 0.83-7.11 2.43-10.39 0.55-25.7 4.12-50.49 12.32-75.43 19.51-68.2 20.53-136.59 41.24-206.9 53.32-39.7 6.93-79.97 11.19-120.31 10.81-42.66 0.22-85.22-4.82-127.12-12.59-65.9-12-130.11-31.39-194.15-50.67-26.4-7.72-52.68-16.17-79.85-20.8-6.3-19.1-6.76-40.3 0.19-59.29 5-15.31 14.83-28.25 23.52-41.59 11.12-16.76 22.42-33.4 34-49.84 1.72-2.57 3.86-4.88 5.2-7.69-2.22-2.75-5.17-4.9-6.94-8.04-13.5-20.68-23.06-43.56-32.84-66.14-7.4-22.32-16.28-44.98-15.81-68.87 0.05-6.97 1.82-14.67 7.38-19.34 5.29-3.72 11.97-4.71 18.29-5.16 20.82-0.88 41.39 3.51 61.51 8.36 8.58 2.24 17.15 4.59 25.61 7.27 19 6.53 38 13.45 55.61 23.22 1.33 0.97 2.73 0.2 3.75-0.82 24.43-19.94 51.21-37.11 80.03-49.99 38.6-17.44 80.67-26.55 122.9-28.52z" fill="#ff6932"/>
 <path d="m687.66 0h387.34v930h-814.68c5.07-1.35 10.36-2.77 14.42-6.27 8.87-6.99 14.54-17.57 16.06-28.7 1.16-8.86 0.99-17.95-0.91-26.69-0.15-1.28-0.25-2.56-0.3-3.84 3.03 3.78 4.75 8.38 7.63 12.26 7.8 11.39 19.16 20.65 32.51 24.58 6.92 1.81 14.29 1.04 21.16-0.65 13.32-3.53 21.51-16.87 24.07-29.68 2.02-13.14-0.29-26.74-5.08-39.05-1.29-7.8-2.72-15.59-3.69-23.44-0.09-2.35-0.06-4.68-0.08-7.01 43.56 9.92 89.72 9.37 132.73-3.03 21.04-5.99 41.34-14.51 60.56-24.95-2.87 27.18-2.39 54.97 4.23 81.6 1.22 7.57 1.56 15.42 4.53 22.59 5.86 14.26 16.36 26.59 29.55 34.57 10.48 6.29 23.25 9.77 35.39 7.01 7.53-1.63 15.15-5.04 19.94-11.3 7.04-9.66 9.68-22.34 7.16-34.02-0.64-4.56-3.06-8.75-2.92-13.41 9.23 8.87 21.22 14.74 33.7 17.36 10.71 1.85 22.31 1.37 32.04-3.92 7.38-3.91 14.16-10.01 16.81-18.15 3.74-11.95 1.67-25.28-4.81-35.91-4.42-7.4-10.03-14.12-16.39-19.91-9.54-9.95-19.67-19.46-27.89-30.59-5.93-7.9-9.4-17.23-13.22-26.24-6.24-15.65-11.26-31.78-14.93-48.21-0.42-2.19-1.32-4.42-0.78-6.66 10.87-12.96 20.43-27.01 28.73-41.75 10.25-18.45 18.43-38.45 20.83-59.56 0.81-9.38 0.72-19.14-2.82-28.01 0.05-0.53 0.13-1.59 0.17-2.12 70.99-7.99 140.69-27.22 205.9-56.37 22.65-10.2 44.66-21.87 65.57-35.29 24.1-15.54 47.02-33.46 65.47-55.55 9.26-11.23 17.42-23.54 22.9-37.07 0.87-2.01 1.26-4.17 1.59-6.31 0.75-4.8 2.53-9.37 3.21-14.19 3.55-17.99 0.42-36.85-7.09-53.45-4.59-10.48-11.41-19.72-17.62-29.27-7.89-12.05-16.02-23.93-24.12-35.83-7.53-11.31-15.81-22.11-23.3-33.44 13.32-19.12 21.96-40.96 31.76-61.97 7.68-12.01 13.71-24.97 19.38-38.01 5.8-13.86 10.91-28.09 13.94-42.83 1.39-6.57 1.81-13.34 1.2-20.03-0.58-4.84-3.15-9.92-7.91-11.77-7.18-2.81-15.08-2.21-22.61-1.84-18.2 1.83-36.02 6.39-53.36 12.1-13.72 4.74-27.39 9.96-39.91 17.37-1.74 0.71-3.47 1.42-5.22 2.02-17.63 5.64-34.92 12.41-51.49 20.65-23.45-18.74-49.02-34.92-76.44-47.18-38.59-17.5-80.67-26.62-122.91-28.64z" fill="#fff"/>
 <path d="m250.45 29.42c2.8-4.08 8.02-5.12 12.59-5.75 11.9-1.08 23.79 0.86 35.43 3.17 21.64 4.57 42.81 11.53 62.84 20.91 5.16 2.39 9.89 5.54 14.8 8.36-8.46-2.68-17.03-5.03-25.61-7.27-20.12-4.85-40.69-9.24-61.51-8.36-6.32 0.45-13 1.44-18.29 5.16-5.56 4.67-7.33 12.37-7.38 19.34-0.47 23.89 8.41 46.55 15.81 68.87-7.81-14.16-14.85-28.76-20.6-43.88-4.85-12.96-9.27-26.23-11.01-40.01-0.33-6.86-1.29-14.6 2.93-20.54z" fill="#583d00"/>
 <path d="m983.63 35.78c17.34-5.71 35.16-10.27 53.36-12.1 7.53-0.37 15.43-0.97 22.61 1.84 4.76 1.85 7.33 6.93 7.91 11.77 0.61 6.69 0.19 13.46-1.2 20.03-3.03 14.74-8.14 28.97-13.94 42.83-5.67 13.04-11.7 26-19.38 38.01 4.03-12.42 9.06-24.52 12.26-37.2 3.84-13.88 6.77-28.36 5.03-42.8-1.01-6.35-4.25-13.17-10.65-15.55-11.28-4.45-23.78-3.35-35.59-2.27-20.51 2.09-40.44 7.61-60.32 12.81 12.52-7.41 26.19-12.63 39.91-17.37z" fill="#583d00"/>
 <path d="m967.86 83.72c9.17-2.09 19.32-3.93 28.26 0.03 5.29 2.18 9.44 7.43 9.27 13.31-0.54 8.02-4.05 15.43-7.94 22.33-4.86 8.39-10.3 16.43-15.26 24.77-3.54 5.31-7.84 11.07-13.86 13.39-14.67-17.47-29.88-34.53-46.08-50.62 13.07-11.2 29.02-18.83 45.61-23.21z" fill="#ffc37e"/>
 <path d="m328.8 90.74c11.97-1.9 24.03 1.02 35.24 5.11 11.51 4.48 22.73 10.14 32.24 18.13-0.78 0.97-1.54 1.96-2.38 2.88-15.2 15.49-29.29 32.02-42.92 48.9-6.33-3.41-10.64-9.45-14.27-15.47-6.43-10.89-14.08-21.15-18.94-32.9-2.05-5.21-3.38-11.04-1.99-16.58 2.08-5.46 7.56-8.76 13.02-10.07z" fill="#ffc37e"/>
 <path d="m441.06 334.96c11.31-5.29 25.77-2.42 34.13 6.88 7.97 8.17 10.14 20.84 6.15 31.4 0.78-4.77 0.9-9.85-0.93-14.4-2.83-7.42-9.57-13.25-17.38-14.75-6.95-1.48-14.5 0.45-19.92 5.03-6.6 5.43-9.81 14.6-7.99 22.96 1.06 6.08 4.86 11.52 9.94 14.95 6.32 4.34 14.83 5 21.94 2.34-8.28 3.53-18.17 4.29-26.39 0.13-10.39-4.79-17.61-15.93-17.22-27.44-0.16-11.48 7.2-22.5 17.67-27.1z" fill="#fff"/>
 <path d="m841.9 353.58c3.69-12.36 16.01-21.71 29.02-21.21 13.65-0.25 26.28 10.29 29.03 23.57 3.05 13.01-3.89 27.41-15.9 33.21-7.69 4.19-16.96 3.88-25.04 1.01 5.28 1.12 11.04 1.17 16.04-1.11 6.95-3.01 12.35-9.52 13.77-16.99 2.04-9.01-1.99-18.97-9.59-24.17-5.24-3.72-12.04-5.13-18.32-3.79-7.52 1.45-14.06 6.9-17.03 13.93-2.18 4.7-1.99 10.07-1.31 15.1-2.03-6.29-2.73-13.17-0.67-19.55z" fill="#fff"/>
 <path d="m443.11 349.12c5.42-4.58 12.97-6.51 19.92-5.03 7.81 1.5 14.55 7.33 17.38 14.75 1.83 4.55 1.71 9.63 0.93 14.4-2.19 7.14-7.36 13.3-14.34 16.13-7.11 2.66-15.62 2-21.94-2.34-5.08-3.43-8.88-8.87-9.94-14.95-1.82-8.36 1.39-17.53 7.99-22.96z" fill="#553018"/>
 <path d="m843.88 358.03c2.97-7.03 9.51-12.48 17.03-13.93 6.28-1.34 13.08 0.07 18.32 3.79 7.6 5.2 11.63 15.16 9.59 24.17-1.42 7.47-6.82 13.98-13.77 16.99-5 2.28-10.76 2.23-16.04 1.11-7.94-2.43-14.23-9.05-16.44-17.03-0.68-5.03-0.87-10.4 1.31-15.1z" fill="#553018"/>
 <path d="m463.31 358.46c3.89-2.55 9.59 0.82 9.18 5.46 0.07 4.5-5.61 7.42-9.29 4.93-3.78-2.14-3.71-8.34 0.11-10.39z" fill="#995c3c"/>
 <path d="m871.21 358.22c3.91-2.18 9.1 1.42 8.56 5.83 0.2 4.94-6.54 7.55-9.98 4.23-3.33-2.61-2.48-8.48 1.42-10.06z" fill="#995c3c"/>
 <path d="m1059.8 366.86c3.28 1.88 7.03 0.28 10.39-0.55-0.33 2.14-0.72 4.3-1.59 6.31-5.48 13.53-13.64 25.84-22.9 37.07-18.45 22.09-41.37 40.01-65.47 55.55-20.91 13.42-42.92 25.09-65.57 35.29-65.21 29.15-134.91 48.38-205.9 56.37-0.04 0.53-0.12 1.59-0.17 2.12-0.2-0.47-0.6-1.42-0.81-1.89-12.57 0.68-25.1 2.1-37.7 2.31-4.34-0.18-8.67 0-13 0.14 0.04-17.13-0.03-34.27-0.01-51.4 16.51 2.78 33.48-8.61 38.83-24.13 2.31-5.99-1.49-12.17-6.42-15.44-10.36-7.1-23.54-8.11-35.72-7.11 1.09-0.83 2.17-1.68 3.26-2.53 0.07-2.83 0.12-5.65 0.14-8.47 40.34 0.38 80.61-3.88 120.31-10.81 70.31-12.08 138.7-32.79 206.9-53.32 24.94-7.19 49.73-15.39 75.43-19.51z" fill="#f5e8bb"/>
 <path d="m256 366.44c27.17 4.63 53.45 13.08 79.85 20.8 64.04 19.28 128.25 38.67 194.15 50.67 41.9 7.77 84.46 12.81 127.12 12.59-0.02 2.82-0.07 5.64-0.14 8.47-1.09 0.85-2.17 1.7-3.26 2.53-8.99 1.44-18.8 4.03-24.69 11.51-3.18 3.78-3.04 9.24-0.81 13.45 5.61 11.1 16.65 19.26 28.81 21.72-0.02 17.13 0.05 34.27 0.01 51.4-7.29-1-14.66-0.76-21.98-1.25-45.96-3.62-91.42-12.55-135.61-25.6-5.95-1.43-11.62-4.24-17.78-4.61-4.17-2.54-8.98-3.57-13.52-5.21-23.91-8.29-47.41-17.82-70.18-28.86-32.39-15.75-63.63-34.38-90.99-57.92-17.09-15.11-32.96-32.13-43.74-52.41-2.84-5.56-5.73-11.18-7.24-17.28z" fill="#fbeebe"/>
 <path d="m629.03 473.01c5.89-7.48 15.7-10.07 24.69-11.51 12.18-1 25.36 0.01 35.72 7.11 4.93 3.27 8.73 9.45 6.42 15.44-5.35 15.52-22.32 26.91-38.83 24.13-12.16-2.46-23.2-10.62-28.81-21.72-2.23-4.21-2.37-9.67 0.81-13.45z" fill="#553018"/>
 <path d="m346.03 541.66c45.32-3.32 90.65-7.05 135.64-13.54 6.16 0.37 11.83 3.18 17.78 4.61 44.19 13.05 89.65 21.98 135.61 25.6 7.32 0.49 14.69 0.25 21.98 1.25 4.33-0.14 8.66-0.32 13-0.14 12.6-0.21 25.13-1.63 37.7-2.31 0.21 0.47 0.61 1.42 0.81 1.89 3.54 8.87 3.63 18.63 2.82 28.01-2.4 21.11-10.58 41.11-20.83 59.56-8.3 14.74-17.86 28.79-28.73 41.75-8.72 10.68-18.16 20.8-28.17 30.29-2.72 2.76-7.12 4.9-7.01 9.36-1.85 22.55-1.32 45.31 1.78 67.72 1.69 13.72 7.76 26.39 14.35 38.37 2.12 4.68 4.48 9.24 6.78 13.84-7.53 9.94-17.83 17.99-29.94 21.41-14.94 4.56-31.73 2.27-44.99-5.93-3.98-2.32-7.37-5.46-10.98-8.27-6.62-26.63-7.1-54.42-4.23-81.6-19.22 10.44-39.52 18.96-60.56 24.95-43.01 12.4-89.17 12.95-132.73 3.03 0.02 2.33-0.01 4.66 0.08 7.01-0.7-2.39-1.26-4.81-1.51-7.28-19.05-4.68-37.6-11.61-54.62-21.41-1.93-1.14-3.94-2.1-5.96-3.05-5.79 13-10.1 26.61-13.83 40.32-0.91 3.39-1.31 6.88-1.64 10.38-1.06 12.35 0.46 24.69 0.96 37.02 0.05 1.28 0.15 2.56 0.3 3.84-13.07 8.73-29.74 11.77-44.99 7.84-15.23-3.82-28.51-14.48-35.7-28.42-0.68-1.45-1.04-3.03-1.47-4.55 2.63-12.41 5.38-24.84 9.89-36.74 9.36-25.79 23.1-49.74 38.26-72.52-9.38-11.02-17.79-23.03-23.32-36.48-2.58-5.75-4.2-11.84-6.31-17.77-4.24 17.02-15.25 31.88-29.25 42.23-14.6 10.79-32.13 17.08-49.94 20.03-21.63 3.3-44.03 2.42-65.14-3.53-18.36-4.82-36.9-11.38-51.54-23.87-9.12-7.36-15.96-17.34-20.12-28.25-0.04-0.48-0.11-1.46-0.15-1.94 4.71 5.24 11.81 8.32 18.89 7.31 9.91-1.3 18.29-7.67 25.15-14.57 5.93-5.95 11.06-12.8 14.6-20.44 3.56-7.63 4.74-16.14 4.78-24.49 8.59-0.73 16.71-4.13 24-8.6 14.15-8.83 24.34-22.63 38.47-31.48 6.38-4.17 13.81-6.27 21.1-8.23 14.69-3.99 30.62-3.22 44.89 2.06 7.07 2.62 13.14 7.32 18.34 12.69 3.66 3.96 6.74 8.44 10.62 12.22 5.08-12.51 10.82-24.94 19.25-35.58 8.57-10.91 20.36-19.13 33.51-23.53 20.06-6.79 41.38-8.18 62.32-10.07z" fill="#ff6932"/>
 <path d="m9.12 564.94c0.47-1.58 0.74-4.04 2.79-4.26 2.8 0.64 2.47 4.13 3.11 6.33 1.84 14.53 7.61 28.65 17.17 39.82 10.5 12.76 25.41 21.35 41.34 25.35-0.04 8.35-1.22 16.86-4.78 24.49-3.54 7.64-8.67 14.49-14.6 20.44-6.86 6.9-15.24 13.27-25.15 14.57-7.08 1.01-14.18-2.07-18.89-7.31 0.04 0.48 0.11 1.46 0.15 1.94-2.55-4.74-5.4-9.4-6.81-14.63-1.92-6.35-2.07-13.02-3.45-19.47v-22.74c1.32-6.75 1.27-13.66 2.1-20.47 1.63-14.79 3.87-29.52 7.02-44.06z" fill="#fbeebe"/>
 <path d="m0 652.21c1.38 6.45 1.53 13.12 3.45 19.47 1.41 5.23 4.26 9.89 6.81 14.63 4.16 10.91 11 20.89 20.12 28.25 14.64 12.49 33.18 19.05 51.54 23.87 21.11 5.95 43.51 6.83 65.14 3.53 17.81-2.95 35.34-9.24 49.94-20.03 14-10.35 25.01-25.21 29.25-42.23 2.11 5.93 3.73 12.02 6.31 17.77 5.53 13.45 13.94 25.46 23.32 36.48-15.16 22.78-28.9 46.73-38.26 72.52-4.51 11.9-7.26 24.33-9.89 36.74-2.5 9.71-5.33 19.67-3.97 29.79 2.19 19.67 12.13 39.31 29.11 50.14 5.29 3.56 11.54 5.1 17.58 6.86h-250.45v-277.79z" fill="#fff"/>
 <path d="m633.64 718.63c10.01-9.49 19.45-19.61 28.17-30.29-0.54 2.24 0.36 4.47 0.78 6.66 3.67 16.43 8.69 32.56 14.93 48.21 3.82 9.01 7.29 18.34 13.22 26.24 8.22 11.13 18.35 20.64 27.89 30.59-4.56 15.9-17.23 29.02-32.58 34.96-13.82 5.54-29.64 4.74-43.29-0.92-6.59-11.98-12.66-24.65-14.35-38.37-3.1-22.41-3.63-45.17-1.78-67.72-0.11-4.46 4.29-6.6 7.01-9.36z" fill="#fe480a"/>
 <path d="m304.1 776.78c2.02 0.95 4.03 1.91 5.96 3.05 17.02 9.8 35.57 16.73 54.62 21.41 0.25 2.47 0.81 4.89 1.51 7.28 0.97 7.85 2.4 15.64 3.69 23.44 0.2 1.59 0.46 3.21 0.34 4.84-11.89 10.49-28.52 15.44-44.21 13.1-14.82-2.03-28.56-10.38-37.38-22.42 0.33-3.5 0.73-6.99 1.64-10.38 3.73-13.71 8.04-27.32 13.83-40.32z" fill="#fe480a"/>
 <path d="m718.63 800.04c6.36 5.79 11.97 12.51 16.39 19.91 6.48 10.63 8.55 23.96 4.81 35.91-2.65 8.14-9.43 14.24-16.81 18.15-9.73 5.29-21.33 5.77-32.04 3.92-12.48-2.62-24.47-8.49-33.7-17.36-3.49-3.66-4.37-8.91-7.74-12.65-2.3-4.6-4.66-9.16-6.78-13.84 13.65 5.66 29.47 6.46 43.29 0.92 15.35-5.94 28.02-19.06 32.58-34.96z" fill="#f1e3b0"/>
 <path d="m289.59 864.5c-0.5-12.33-2.02-24.67-0.96-37.02 8.82 12.04 22.56 20.39 37.38 22.42 15.69 2.34 32.32-2.61 44.21-13.1 0.12-1.63-0.14-3.25-0.34-4.84 4.79 12.31 7.1 25.91 5.08 39.05-2.56 12.81-10.75 26.15-24.07 29.68-6.87 1.69-14.24 2.46-21.16 0.65-13.35-3.93-24.71-13.19-32.51-24.58-2.88-3.88-4.6-8.48-7.63-12.26z" fill="#f1e3b0"/>
 <path d="m203.76 873c-1.36-10.12 1.47-20.08 3.97-29.79 0.43 1.52 0.79 3.1 1.47 4.55 7.19 13.94 20.47 24.6 35.7 28.42 15.25 3.93 31.92 0.89 44.99-7.84 1.9 8.74 2.07 17.83 0.91 26.69-1.52 11.13-7.19 21.71-16.06 28.7-4.06 3.5-9.35 4.92-14.42 6.27h-9.87c-6.04-1.76-12.29-3.3-17.58-6.86-16.98-10.83-26.92-30.47-29.11-50.14z" fill="#fbeebe"/>
 <path d="m619.6 869.33c12.11-3.42 22.41-11.47 29.94-21.41 3.37 3.74 4.25 8.99 7.74 12.65-0.14 4.66 2.28 8.85 2.92 13.41 2.52 11.68-0.12 24.36-7.16 34.02-4.79 6.26-12.41 9.67-19.94 11.3-12.14 2.76-24.91-0.72-35.39-7.01-13.19-7.98-23.69-20.31-29.55-34.57-2.97-7.17-3.31-15.02-4.53-22.59 3.61 2.81 7 5.95 10.98 8.27 13.26 8.2 30.05 10.49 44.99 5.93z" fill="#fbeebe"/>
</svg>
