<?xml version="1.0" encoding="UTF-8"?>
<svg width="269.97" height="244.45" enable-background="new 0 0 595.28 841.89" version="1.1" viewBox="0 0 269.972 244.44876" xmlns="http://www.w3.org/2000/svg">
 <radialGradient id="v" cx="-628.43" cy="-1811.4" r="16.316" gradientTransform="matrix(.7071 -.7071 .7071 .7071 1735.3 850.87)" gradientUnits="userSpaceOnUse">
  <stop stop-color="#EEEBE9" offset="0"/>
  <stop stop-color="#FBFBFA" offset="0"/>
  <stop stop-color="#fff" offset="0"/>
  <stop stop-color="#F3F3F3" offset=".1232"/>
  <stop stop-color="#D4D4D4" offset=".3585"/>
  <stop stop-color="#BABABA" offset=".5225"/>
  <stop stop-color="#AFB0B1" offset=".6004"/>
  <stop stop-color="#949798" offset=".7316"/>
  <stop stop-color="#696F70" offset=".8989"/>
  <stop stop-color="#4C5354" offset="1"/>
 </radialGradient>
 <path d="m77.972 74.458c1.633 1.633 1.633 4.28 0 5.912-1.633 1.633-4.279 1.633-5.911 0l-64-63.992c-1.633-1.633-1.633-4.279 0-5.912s4.279-1.633 5.912 0l63.999 63.992z" fill="url(#v)"/>
 <radialGradient id="s" cx="2440.1" cy="-4478.3" r="38.947" gradientTransform="matrix(-.7071 -.7071 .7071 -.7071 4925.8 -1385.5)" gradientUnits="userSpaceOnUse">
  <stop stop-color="#FFF046" offset="0"/>
  <stop stop-color="#FAB400" offset="1"/>
 </radialGradient>
 <path d="m92.483 15.868c-21.157-21.157-55.459-21.157-76.616 0-21.156 21.151-21.156 55.453 0 76.61l76.616-76.61z" fill="url(#s)"/>
 <radialGradient id="p" cx="19.872" cy="52.981" r="64.376" gradientTransform="translate(-13.423 -18.706)" gradientUnits="userSpaceOnUse">
  <stop stop-color="#FFF046" offset="0"/>
  <stop stop-color="#FAB400" offset="1"/>
 </radialGradient>
 <path d="m15.901 89.211c-8.797-9.59-13.616-21.945-13.616-35.041 0-13.86 5.398-26.891 15.198-36.686 9.801-9.802 22.832-15.199 36.691-15.199 7.064 0-17.195 9.087-29.466 40.878-8.087 28.241-8.807 46.048-8.807 46.048z" fill="url(#p)"/>
 <ellipse transform="matrix(.9865 .1635 -.1635 .9865 -2.7402 -21.429)" cx="21.876" cy="63.522" rx="3.223" ry="8.764" fill="#fff"/>
 <ellipse transform="matrix(.9929 -.1187 .1187 .9929 -23.27 -15.505)" cx="21.949" cy="84.27" rx="1.08" ry="4.217" fill="#fff"/>
 <radialGradient id="n" cx="3704.7" cy="2534.7" r="28.494" gradientTransform="matrix(-.7071 -.7071 -.7071 .7071 4653.3 850.87)" gradientUnits="userSpaceOnUse">
  <stop stop-color="#EEEBE9" offset="0"/>
  <stop stop-color="#FBFBFA" offset="0"/>
  <stop stop-color="#fff" offset="0"/>
  <stop stop-color="#F3F3F3" offset=".1232"/>
  <stop stop-color="#D4D4D4" offset=".3585"/>
  <stop stop-color="#BABABA" offset=".5225"/>
  <stop stop-color="#AFB0B1" offset=".6004"/>
  <stop stop-color="#949798" offset=".7316"/>
  <stop stop-color="#696F70" offset=".8989"/>
  <stop stop-color="#4C5354" offset="1"/>
 </radialGradient>
 <path d="m192 74.458c-1.633 1.633-1.633 4.28 0 5.912 1.633 1.633 4.279 1.633 5.911 0l63.999-63.992c1.633-1.633 1.633-4.279 0-5.912s-4.279-1.633-5.912 0l-63.998 63.992z" fill="url(#n)"/>
 <radialGradient id="m" cx="-1890.3" cy="-143.42" r="46.508" gradientTransform="matrix(.7071 -.7071 -.7071 -.7071 1462.9 -1385.5)" gradientUnits="userSpaceOnUse">
  <stop stop-color="#FFF046" offset="0"/>
  <stop stop-color="#FAB400" offset="1"/>
 </radialGradient>
 <path d="m177.49 15.868c21.157-21.157 55.459-21.157 76.616 0 21.156 21.151 21.156 55.453 0 76.61l-76.616-76.61z" fill="url(#m)"/>
 <radialGradient id="l" cx="4333.8" cy="1594.7" r="51.746" gradientTransform="matrix(.1502 .9887 -.9887 .1502 1149.3 -4521.9)" gradientUnits="userSpaceOnUse">
  <stop stop-color="#FFF046" offset="0"/>
  <stop stop-color="#FAB400" offset="1"/>
 </radialGradient>
 <path d="m181.07 16.646c6.561-8.148 15.797-13.47 26.204-15.05 11.016-1.673 22.022 1.044 30.994 7.65 8.973 6.605 14.835 16.305 16.508 27.319 0.853 5.614-9.297-12.566-36.048-18.477-23.42-3.02-37.658-1.442-37.658-1.442z" fill="url(#l)"/>
 <ellipse transform="matrix(-.0136 .9999 -.9999 -.0136 242.63 -223.16)" cx="228.88" cy="24.074" rx="2.591" ry="7.045" fill="#fff"/>
 <ellipse transform="matrix(.2666 .9638 -.9638 .2666 168.02 -203.88)" cx="212.4" cy="26.636" rx=".868" ry="3.39" fill="#fff"/>
 <linearGradient id="k" x1="178.86" x2="136.97" y1="242.84" y2="113.21" gradientUnits="userSpaceOnUse">
  <stop stop-color="#FFED00" offset="0"/>
  <stop stop-color="#B90E0C" offset="1"/>
 </linearGradient>
 <circle transform="translate(-13.423 -18.706)" cx="148.37" cy="148.5" r="107.12" fill="url(#k)"/>
 <linearGradient id="ab" x1="145.89" x2="121.25" y1="142.47" y2="66.069" gradientTransform="translate(-13.306 -19.02)" gradientUnits="userSpaceOnUse">
  <stop stop-color="#FFED00" offset="0"/>
  <stop stop-color="#B90E0C" offset="1"/>
 </linearGradient>
 <path d="m231.15 89.893c-5.251-12.416-12.771-23.567-22.347-33.144-9.578-9.578-20.729-17.096-33.145-22.348-12.854-5.436-26.509-8.192-40.587-8.192s-27.732 2.756-40.586 8.192c-12.416 5.252-23.568 12.771-33.146 22.348-9.576 9.577-17.095 20.728-22.347 33.144-5.437 12.853-8.192 26.509-8.192 40.586s2.756 27.733 8.192 40.587c0 0-1.681-8.123 17.487-25.219-0.979-5.006-1.498-10.177-1.498-15.469 0-44.233 35.856-80.09 80.089-80.09 29.577 0 55.405 16.034 69.277 39.882 16.281-0.907 26.803-0.277 26.803-0.277z" fill="url(#ab)" stroke="#f2f2f2"/>
 <linearGradient id="aa" x1="183.02" x2="125.14" y1="263.81" y2="72.671" gradientTransform="translate(-13.423 -18.706)" gradientUnits="userSpaceOnUse">
  <stop stop-color="#D8CD2E" offset="0"/>
  <stop stop-color="#99A33D" offset=".4945"/>
  <stop stop-color="#8C963B" offset=".6212"/>
  <stop stop-color="#6D7434" offset=".8752"/>
  <stop stop-color="#5C632E" offset="1"/>
 </linearGradient>
 <path d="m56.359 146.16c7.207 36.828 39.651 64.621 78.591 64.621 44.233 0 80.09-35.857 80.09-80.09 0-14.656-3.939-28.391-10.813-40.208-29.546 1.646-78.058 8.356-117.08 33.089-13.845 8.776-23.731 16.29-30.792 22.588z" fill="url(#aa)"/>
 <linearGradient id="z" x1="159.11" x2="128.55" y1="179.3" y2="92.547" gradientTransform="translate(-13.423 -18.706)" gradientUnits="userSpaceOnUse">
  <stop stop-color="#FFFEFA" offset="0"/>
  <stop stop-color="#BABABA" offset="1"/>
 </linearGradient>
 <path d="m56.676 146.48c7.207 36.829 39.651 64.621 78.592 64.621 44.232 0 80.089-35.857 80.089-80.09 0-14.656-3.939-28.391-10.813-40.208-29.546 1.646-78.058 8.356-117.08 33.089-13.844 8.775-23.732 16.29-30.792 22.588z" fill="url(#z)" stroke="#fff"/>
 <linearGradient id="y" x1="182.18" x2="124.31" y1="264.07" y2="72.925" gradientTransform="translate(-13.423 -18.706)" gradientUnits="userSpaceOnUse">
  <stop stop-color="#D8CD2E" offset="0"/>
  <stop stop-color="#99A33D" offset=".4945"/>
  <stop stop-color="#8C963B" offset=".6212"/>
  <stop stop-color="#6D7434" offset=".8752"/>
  <stop stop-color="#5C632E" offset="1"/>
 </linearGradient>
 <path d="m134.95 50.602c-44.232 0-80.089 35.857-80.089 80.09 0 5.292 0.519 10.463 1.498 15.469 7.061-6.298 16.947-13.813 30.792-22.588 39.019-24.733 87.53-31.443 117.08-33.089-13.872-23.848-39.7-39.882-69.277-39.882z" fill="url(#y)"/>
 <linearGradient id="x" x1="152.62" x2="115.25" y1="166.96" y2="41.293" gradientTransform="translate(-13.423 -18.706)" gradientUnits="userSpaceOnUse">
  <stop stop-color="#D8CD2E" offset="0"/>
  <stop stop-color="#99A33D" offset=".4945"/>
  <stop stop-color="#8C963B" offset=".6212"/>
  <stop stop-color="#6D7434" offset=".8752"/>
  <stop stop-color="#5C632E" offset="1"/>
 </linearGradient>
 <path d="m134.95 50.602c-44.232 0-80.089 35.857-80.089 80.09 0 5.292 0.519 10.463 1.498 15.469 7.061-6.298 16.947-13.813 30.792-22.588 39.019-24.733 87.53-31.443 117.08-33.089-13.872-23.848-39.7-39.882-69.277-39.882z" fill="url(#x)"/>
 <linearGradient id="w" x1="138.22" x2="120.96" y1="117.7" y2="57.072" gradientTransform="translate(-13.423 -18.706)" gradientUnits="userSpaceOnUse">
  <stop stop-color="#FFFEFA" offset="0"/>
  <stop stop-color="#BABABA" offset="1"/>
 </linearGradient>
 <path d="m134.95 50.602c-44.232 0-80.089 35.857-80.089 80.09 0 5.292 0.519 10.463 1.498 15.469 7.061-6.298 16.947-13.813 30.792-22.588 39.019-24.733 87.53-31.443 117.08-33.089-13.872-23.848-39.7-39.882-69.277-39.882z" fill="url(#w)"/>
 <g transform="translate(-13.423 -18.706)">
  <radialGradient id="j" cx="-318.73" cy="-814.06" r="41.3" gradientTransform="matrix(.9602 -.2793 .2793 .9602 681.33 772.89)" gradientUnits="userSpaceOnUse">
   <stop stop-color="#A0A0A0" offset="0"/>
   <stop stop-color="#959697" offset=".1635"/>
   <stop stop-color="#7A7D7E" offset=".4386"/>
   <stop stop-color="#4E5354" offset=".7894"/>
   <stop stop-color="#313637" offset="1"/>
  </radialGradient>
  <polygon points="126.34 72.43 127.87 77.708 126.8 78.019 125.27 72.741" fill="url(#j)"/>
  <radialGradient id="i" cx="-320.25" cy="-659.58" r="41.285" gradientTransform="matrix(.9602 -.2793 .2793 .9602 681.33 772.89)" gradientUnits="userSpaceOnUse">
   <stop stop-color="#A0A0A0" offset="0"/>
   <stop stop-color="#959697" offset=".1635"/>
   <stop stop-color="#7A7D7E" offset=".4386"/>
   <stop stop-color="#4E5354" offset=".7894"/>
   <stop stop-color="#313637" offset="1"/>
  </radialGradient>
  <polygon points="168.03 221.18 169.56 226.46 168.49 226.77 166.96 221.49" fill="url(#i)"/>
 </g>
 <g transform="translate(-13.423 -18.706)">
  <radialGradient id="h" cx="582.01" cy="758.54" r="41.286" gradientTransform="matrix(.9709 .2393 -.2393 .9709 -200.96 -785.91)" gradientUnits="userSpaceOnUse">
   <stop stop-color="#A0A0A0" offset="0"/>
   <stop stop-color="#959697" offset=".1635"/>
   <stop stop-color="#7A7D7E" offset=".4386"/>
   <stop stop-color="#4E5354" offset=".7894"/>
   <stop stop-color="#313637" offset="1"/>
  </radialGradient>
  <polygon points="167.83 72.253 166.52 77.589 165.44 77.323 166.75 71.986" fill="url(#h)"/>
  <radialGradient id="g" cx="580.48" cy="913.03" r="41.254" gradientTransform="matrix(.9709 .2393 -.2393 .9709 -200.96 -785.91)" gradientUnits="userSpaceOnUse">
   <stop stop-color="#A0A0A0" offset="0"/>
   <stop stop-color="#959697" offset=".1635"/>
   <stop stop-color="#7A7D7E" offset=".4386"/>
   <stop stop-color="#4E5354" offset=".7894"/>
   <stop stop-color="#313637" offset="1"/>
  </radialGradient>
  <polygon points="129.39 221.88 128.08 227.22 127 226.95 128.31 221.61" fill="url(#g)"/>
 </g>
 <g transform="translate(-13.423 -18.706)">
  <radialGradient id="f" cx="2131.9" cy="1661.9" r="41.256" gradientTransform="matrix(.7239 .6899 -.6899 .7239 -188.5 -2559.2)" gradientUnits="userSpaceOnUse">
   <stop stop-color="#A0A0A0" offset="0"/>
   <stop stop-color="#959697" offset=".1635"/>
   <stop stop-color="#7A7D7E" offset=".4386"/>
   <stop stop-color="#4E5354" offset=".7894"/>
   <stop stop-color="#313637" offset="1"/>
  </radialGradient>
  <polygon points="204.22 92.09 200.43 96.069 199.62 95.3 203.42 91.321" fill="url(#f)"/>
  <radialGradient id="e" cx="2130.4" cy="1816.3" r="41.255" gradientTransform="matrix(.7239 .6899 -.6899 .7239 -188.5 -2559.2)" gradientUnits="userSpaceOnUse">
   <stop stop-color="#A0A0A0" offset="0"/>
   <stop stop-color="#959697" offset=".1635"/>
   <stop stop-color="#7A7D7E" offset=".4386"/>
   <stop stop-color="#4E5354" offset=".7894"/>
   <stop stop-color="#313637" offset="1"/>
  </radialGradient>
  <polygon points="96.552 202.87 92.76 206.85 91.953 206.08 95.745 202.1" fill="url(#e)"/>
 </g>
 <g transform="translate(-13.423 -18.706)">
  <radialGradient id="d" cx="3978.7" cy="1664.1" r="41.286" gradientTransform="matrix(.2713 .9625 -.9625 .2713 740.15 -4130.8)" gradientUnits="userSpaceOnUse">
   <stop stop-color="#A0A0A0" offset="0"/>
   <stop stop-color="#959697" offset=".1635"/>
   <stop stop-color="#7A7D7E" offset=".4386"/>
   <stop stop-color="#4E5354" offset=".7894"/>
   <stop stop-color="#313637" offset="1"/>
  </radialGradient>
  <polygon points="225.83 128.66 220.54 130.15 220.23 129.08 225.52 127.58" fill="url(#d)"/>
  <radialGradient id="c" cx="3977.2" cy="1818.6" r="41.286" gradientTransform="matrix(.2713 .9625 -.9625 .2713 740.15 -4130.8)" gradientUnits="userSpaceOnUse">
   <stop stop-color="#A0A0A0" offset="0"/>
   <stop stop-color="#959697" offset=".1635"/>
   <stop stop-color="#7A7D7E" offset=".4386"/>
   <stop stop-color="#4E5354" offset=".7894"/>
   <stop stop-color="#313637" offset="1"/>
  </radialGradient>
  <polygon points="76.73 169.1 71.44 170.59 71.138 169.52 76.429 168.03" fill="url(#c)"/>
 </g>
 <g transform="translate(-13.423 -18.706)">
  <radialGradient id="b" cx="5532.4" cy="762.3" r="41.285" gradientTransform="matrix(-.2424 .9702 -.9702 -.2424 2288.8 -4998.3)" gradientUnits="userSpaceOnUse">
   <stop stop-color="#A0A0A0" offset="0"/>
   <stop stop-color="#959697" offset=".1635"/>
   <stop stop-color="#7A7D7E" offset=".4386"/>
   <stop stop-color="#4E5354" offset=".7894"/>
   <stop stop-color="#313637" offset="1"/>
  </radialGradient>
  <polygon points="225.76 169.76 220.43 168.42 220.7 167.34 226.03 168.68" fill="url(#b)"/>
  <radialGradient id="a" cx="5530.9" cy="916.78" r="41.286" gradientTransform="matrix(-.2424 .9702 -.9702 -.2424 2288.8 -4998.3)" gradientUnits="userSpaceOnUse">
   <stop stop-color="#A0A0A0" offset="0"/>
   <stop stop-color="#959697" offset=".1635"/>
   <stop stop-color="#7A7D7E" offset=".4386"/>
   <stop stop-color="#4E5354" offset=".7894"/>
   <stop stop-color="#313637" offset="1"/>
  </radialGradient>
  <polygon points="76.264 130.83 70.931 129.5 71.201 128.42 76.533 129.75" fill="url(#a)"/>
 </g>
 <g transform="translate(-13.423 -18.706)">
  <radialGradient id="u" cx="6432.3" cy="-784.4" r="41.315" gradientTransform="matrix(-.6904 .7234 -.7234 -.6904 4056.3 -4985.4)" gradientUnits="userSpaceOnUse">
   <stop stop-color="#A0A0A0" offset="0"/>
   <stop stop-color="#959697" offset=".1635"/>
   <stop stop-color="#7A7D7E" offset=".4386"/>
   <stop stop-color="#4E5354" offset=".7894"/>
   <stop stop-color="#313637" offset="1"/>
  </radialGradient>
  <polygon points="205.44 205.26 201.46 201.47 202.23 200.66 206.21 204.46" fill="url(#u)"/>
  <radialGradient id="t" cx="6430.8" cy="-629.92" r="41.284" gradientTransform="matrix(-.6904 .7234 -.7234 -.6904 4056.3 -4985.4)" gradientUnits="userSpaceOnUse">
   <stop stop-color="#A0A0A0" offset="0"/>
   <stop stop-color="#959697" offset=".1635"/>
   <stop stop-color="#7A7D7E" offset=".4386"/>
   <stop stop-color="#4E5354" offset=".7894"/>
   <stop stop-color="#313637" offset="1"/>
  </radialGradient>
  <polygon points="94.734 97.512 90.759 93.717 91.527 92.911 95.504 96.706" fill="url(#t)"/>
 </g>
 <g transform="translate(-13.423 -18.706)">
  <polygon points="225.76 169.76 220.43 168.42 220.7 167.34 226.03 168.68" fill="url(#b)"/>
  <polygon points="76.264 130.83 70.931 129.5 71.201 128.42 76.533 129.75" fill="url(#a)"/>
 </g>
 <g transform="translate(-13.423 -18.706)">
  <polygon points="225.83 128.66 220.54 130.15 220.23 129.08 225.52 127.58" fill="url(#d)"/>
  <polygon points="76.73 169.1 71.44 170.59 71.138 169.52 76.429 168.03" fill="url(#c)"/>
 </g>
 <g transform="translate(-13.423 -18.706)">
  <polygon points="204.22 92.09 200.43 96.069 199.62 95.3 203.42 91.321" fill="url(#f)"/>
  <polygon points="96.552 202.87 92.76 206.85 91.953 206.08 95.745 202.1" fill="url(#e)"/>
 </g>
 <g transform="translate(-13.423 -18.706)">
  <polygon points="167.83 72.253 166.52 77.589 165.44 77.323 166.75 71.986" fill="url(#h)"/>
  <polygon points="129.39 221.88 128.08 227.22 127 226.95 128.31 221.61" fill="url(#g)"/>
 </g>
 <g transform="translate(-13.423 -18.706)">
  <polygon points="126.34 72.43 127.87 77.708 126.8 78.019 125.27 72.741" fill="url(#j)"/>
  <polygon points="168.03 221.18 169.56 226.46 168.49 226.77 166.96 221.49" fill="url(#i)"/>
 </g>
 <path d="m134.77 87.672c-5.826 0-10.55 4.723-10.55 10.548 0 4.778 3.179 8.812 7.535 10.109v37.359h6.028v-37.359c4.356-1.297 7.535-5.331 7.535-10.109 1e-3 -5.825-4.722-10.548-10.548-10.548zm-0.293 16.75c-3.425 0-6.201-2.776-6.201-6.202 0-3.425 2.776-6.202 6.201-6.202 3.426 0 6.202 2.777 6.202 6.202 1e-3 3.426-2.776 6.202-6.202 6.202z"/>
 <path d="m187.69 104.5c2.615-1.703 3.355-5.204 1.652-7.819-1.702-2.616-5.203-3.355-7.819-1.652-2.144 1.396-3.027 4.002-2.336 6.337l-54.819 35.689 1.762 2.707 54.818-35.689c1.858 1.575 4.597 1.823 6.742 0.427z"/>
 <radialGradient id="r" cx="142.35" cy="156.06" r="16.387" gradientUnits="userSpaceOnUse">
  <stop stop-color="#EEEBE9" offset="0"/>
  <stop stop-color="#FBFBFA" offset="0"/>
  <stop stop-color="#fff" offset="0"/>
  <stop stop-color="#F3F3F3" offset=".1232"/>
  <stop stop-color="#D4D4D4" offset=".3585"/>
  <stop stop-color="#BABABA" offset=".5225"/>
  <stop stop-color="#AFB0B1" offset=".6004"/>
  <stop stop-color="#949798" offset=".7316"/>
  <stop stop-color="#696F70" offset=".8989"/>
  <stop stop-color="#4C5354" offset="1"/>
 </radialGradient>
 <circle transform="translate(-13.423 -18.706)" cx="147.72" cy="151.28" r="6.493" fill="url(#r)"/>
 <circle transform="translate(-13.423 -18.706)" cx="147.72" cy="151.28" r="2.537"/>
 <radialGradient id="q" cx="73.285" cy="240.46" r="25.706" gradientUnits="userSpaceOnUse">
  <stop stop-color="#EEEBE9" offset="0"/>
  <stop stop-color="#EFEBE0" offset="0"/>
  <stop stop-color="#F3EBC7" offset="0"/>
  <stop stop-color="#FAEC97" offset="0"/>
  <stop stop-color="#FFEC33" offset="0"/>
  <stop stop-color="#FFED00" offset="0"/>
  <stop stop-color="#FCE500" offset=".1029"/>
  <stop stop-color="#DFCE40" offset=".3004"/>
  <stop stop-color="#BBB165" offset=".5225"/>
  <stop stop-color="#B0A75A" offset=".6004"/>
  <stop stop-color="#958E3E" offset=".7316"/>
  <stop stop-color="#6A6816" offset=".8989"/>
  <stop stop-color="#4D4F00" offset="1"/>
 </radialGradient>
 <circle transform="translate(-13.423 -18.706)" cx="78.071" cy="248.43" r="14.723" fill="url(#q)"/>
 <g transform="translate(-13.423 -18.706)">
  <path d="m137.02 78.441c-0.155 0.039-0.35-0.233-0.427-0.389-0.039-0.078 0-0.155 0.077-0.194l6.837-2.797c0.078-0.039 0.155-0.039 0.194-0.039 0.194 0 0.271 0.117 0.271 0.272 0 0.194-0.35 10.1-0.388 12.664-0.039 3.923-0.155 8.857-0.155 9.167 0 0.311 0.582 0.389 0.854 0.466l1.165 0.272c0.117 0.039 0.194 0.233 0.194 0.427 0 0.039-0.039 0.078-0.116 0.078-0.777-0.039-2.215-0.078-3.769-0.078-1.825 0-3.457 0.039-4.234 0.078-0.077 0-0.077-0.039-0.077-0.078 0-0.117 0.077-0.388 0.194-0.427l1.515-0.311c0.233-0.039 0.583-0.078 0.583-0.311 0.039-0.816-0.078-7.653-0.116-8.896-0.039-1.359-0.078-7.458-0.233-9.75-0.039-0.272-0.194-0.505-0.467-0.466l-1.902 0.312z"/>
  <path d="m150.46 97.282c0.428 0 0.894-0.039 1.088-0.039 0.583 0 4.157-0.311 5.75-0.699 0.193-0.039 0.582-0.233 0.854-0.66l1.36-2.292c0.039-0.078 0.078-0.117 0.155-0.117 0.155 0 0.389 0.272 0.35 0.389l-0.815 4.156c-0.039 0.233-0.117 0.35-0.389 0.35-0.544 0-2.564-0.078-6.138-0.078-3.03 0-4.273 0.078-5.05 0.078-0.35 0-0.661-0.116-0.777-0.466-0.116-0.233-0.233-0.544-0.233-0.661 0-0.078 0-0.117 0.078-0.194 4.934-5.011 7.809-10.139 7.809-15.072 0-3.496-1.477-5.089-3.303-5.089-1.632 0-2.719 1.049-3.457 2.175-0.039 0.078-0.077 0.078-0.116 0.078-0.155 0-0.467-0.661-0.311-0.933 1.204-1.864 3.302-3.107 6.176-3.107 3.574 0 5.904 2.68 5.904 6.487 0 5.555-4.894 11.654-7.652 14.49-0.35 0.349-0.815 0.738-1.32 1.126l0.037 0.078z"/>
 </g>
 <g transform="translate(-13.423 -18.706)">
  <path d="m144.87 210.12c0.185-0.695 0.417-1.344 0.556-1.668 0.88-1.947 2.411-3.337 4.774-3.337 4.218 0 6.258 3.8 6.258 8.482 0 5.376-3.337 9.687-8.575 9.687-4.774 0-8.343-3.337-8.343-10.707 0-5.516 1.947-9.687 4.31-12.7 2.411-3.013 5.701-4.774 8.482-5.284 0.325-0.046 0.649 0.232 0.649 0.324 0 0.093-0.139 0.14-0.231 0.232-2.178 1.112-3.801 2.874-5.191 5.284-1.668 2.92-2.317 5.748-2.642 7.741-0.046 0.324-0.185 1.066-0.232 1.854l0.185 0.092zm3.382 12.375c2.596 0 2.966-3.476 2.966-8.25 0-4.033-1.112-7.046-2.873-7.046-1.669 0-2.966 2.596-3.338 6.073-0.046 0.278-0.092 0.463-0.092 1.02 0 5.33 1.623 8.204 3.291 8.204h0.046z"/>
 </g>
 <g transform="translate(-13.423 -18.706)">
  <path d="m92.844 147.67c-0.205 0.82-0.513 1.487-0.667 1.845-0.974 1.897-2.769 3.436-5.385 3.436-3.64 0-6.256-3.692-6.256-8.974 0-5.846 3.18-10.512 8.256-10.512 4.615 0 7.641 4.308 7.641 11.538 0 6.512-1.795 11.128-4.051 14.205-2 2.717-4.82 5.024-8.103 5.744-0.308 0.051-0.667-0.206-0.667-0.36 0-0.103 0.051-0.154 0.154-0.205 2.513-1.128 4.77-3.076 6.206-5.692 1.794-3.333 2.461-6.205 2.82-9.025 0.051-0.359 0.154-1.077 0.256-1.948l-0.204-0.052zm-4.615-13.384c-2.564 0-4.153 3.846-4.153 9.23 0 4.821 1.538 7.949 3.949 7.949 2.05 0 3.999-2.257 4.615-6.359 0.051-0.308 0.051-0.77 0.051-1.333 0-5.282-1.64-9.487-4.41-9.487h-0.052z"/>
 </g>
 <g transform="translate(-13.423 -18.706)">
  <path d="m209.23 148.11c0.259 0 0.983 0.104 1.45 0.208 4.093 0.881 6.269 3.937 6.269 7.667 0 5.491-4.195 8.753-9.479 8.753-2.229 0-4.352-0.88-5.234-1.709-0.259-0.311 0-0.985 0.208-0.985 0.051 0 0.051 0 0.156 0.053 1.037 0.881 2.538 1.399 4.196 1.399 3.418 0 6.371-2.435 6.371-7.149 0-3.471-2.227-7.408-7.562-7.511-0.259 0-0.364-0.104-0.364-0.623-0.052-0.155 0.053-0.208 0.156-0.208 5.076-0.83 6.941-3.988 6.941-7.667 0-3.003-1.605-5.438-4.352-5.438-2.123 0-3.833 1.501-4.973 3.574 0 0.104-0.052 0.104-0.103 0.104-0.208 0-0.57-0.622-0.415-0.984 1.244-2.54 3.782-4.249 6.735-4.249 4.352 0 6.785 2.953 6.785 6.838 0 3.42-2.589 6.267-5.489 7.304-0.364 0.156-0.933 0.364-1.295 0.415v0.208z"/>
 </g>
 <radialGradient id="o" cx="214.12" cy="240.46" r="25.706" gradientUnits="userSpaceOnUse">
  <stop stop-color="#EEEBE9" offset="0"/>
  <stop stop-color="#EFEBE0" offset="0"/>
  <stop stop-color="#F3EBC7" offset="0"/>
  <stop stop-color="#FAEC97" offset="0"/>
  <stop stop-color="#FFEC33" offset="0"/>
  <stop stop-color="#FFED00" offset="0"/>
  <stop stop-color="#FCE500" offset=".1029"/>
  <stop stop-color="#DFCE40" offset=".3004"/>
  <stop stop-color="#BBB165" offset=".5225"/>
  <stop stop-color="#B0A75A" offset=".6004"/>
  <stop stop-color="#958E3E" offset=".7316"/>
  <stop stop-color="#6A6816" offset=".8989"/>
  <stop stop-color="#4D4F00" offset="1"/>
 </radialGradient>
 <circle transform="translate(-13.423 -18.706)" cx="218.91" cy="248.43" r="14.723" fill="url(#o)"/>
</svg>
