<?xml version="1.0" encoding="UTF-8"?>
<svg width="30mm" height="34mm" version="1.1" viewBox="0 0 106.2992 120.47242" xmlns="http://www.w3.org/2000/svg" xmlns:xlink="http://www.w3.org/1999/xlink">
 <defs>
  <pattern id="j" patternTransform="matrix(.86065 0 0 .96671 14.142 -5.4801)" xlink:href="#a"/>
  <pattern id="i" patternTransform="matrix(.4 0 0 .4125 7.9976 -.63588)" xlink:href="#a"/>
  <pattern id="h" patternTransform="matrix(1.0875 0 0 1.0875 8.0601 -.78677)" xlink:href="#a"/>
  <pattern id="a" width="10" height="10" patternTransform="translate(0) scale(10)" patternUnits="userSpaceOnUse">
   <circle cx="2.567" cy=".81" r=".45"/>
   <circle cx="3.048" cy="2.33" r=".45"/>
   <circle cx="4.418" cy="2.415" r=".45"/>
   <circle cx="1.844" cy="3.029" r=".45"/>
   <circle cx="6.08" cy="1.363" r=".45"/>
   <circle cx="5.819" cy="4.413" r=".45"/>
   <circle cx="4.305" cy="4.048" r=".45"/>
   <circle cx="5.541" cy="3.045" r=".45"/>
   <circle cx="4.785" cy="5.527" r=".45"/>
   <circle cx="2.667" cy="5.184" r=".45"/>
   <circle cx="7.965" cy="1.448" r=".45"/>
   <circle cx="7.047" cy="5.049" r=".45"/>
   <circle cx="4.34" cy=".895" r=".45"/>
   <circle cx="7.125" cy=".34" r=".45"/>
   <circle cx="9.553" cy="1.049" r=".45"/>
   <circle cx="7.006" cy="2.689" r=".45"/>
   <circle cx="8.909" cy="2.689" r=".45"/>
   <circle cx="9.315" cy="4.407" r=".45"/>
   <circle cx="7.82" cy="3.87" r=".45"/>
   <circle cx="8.27" cy="5.948" r=".45"/>
   <circle cx="7.973" cy="7.428" r=".45"/>
   <circle cx="9.342" cy="8.072" r=".45"/>
   <circle cx="8.206" cy="9.315" r=".45"/>
   <circle cx="9.682" cy="9.475" r=".45"/>
   <circle cx="9.688" cy="6.186" r=".45"/>
   <circle cx="3.379" cy="6.296" r=".45"/>
   <circle cx="2.871" cy="8.204" r=".45"/>
   <circle cx="4.59" cy="8.719" r=".45"/>
   <circle cx="3.181" cy="9.671" r=".45"/>
   <circle cx="5.734" cy="7.315" r=".45"/>
   <circle cx="6.707" cy="6.513" r=".45"/>
   <circle cx="5.73" cy="9.67" r=".45"/>
   <circle cx="6.535" cy="8.373" r=".45"/>
   <circle cx="4.37" cy="7.154" r=".45"/>
   <circle cx=".622" cy="7.25" r=".45"/>
   <circle cx=".831" cy="5.679" r=".45"/>
   <circle cx="1.257" cy="8.519" r=".45"/>
   <circle cx="1.989" cy="6.877" r=".45"/>
   <circle cx=".374" cy="3.181" r=".45"/>
   <circle cx="1.166" cy="1.664" r=".45"/>
   <circle cx="1.151" cy=".093" r=".45"/>
   <circle cx="1.151" cy="10.093" r=".45"/>
   <circle cx="1.302" cy="4.451" r=".45"/>
   <circle cx="3.047" cy="3.763" r=".45"/>
  </pattern>
  <radialGradient id="k" cx="124.98" cy="52.552" r="24.395" gradientTransform="matrix(.84786 -.53023 .85509 1.3673 -106.1 64.452)" gradientUnits="userSpaceOnUse">
   <stop stop-color="#151e2f" offset="0"/>
   <stop stop-color="#011c4b" offset=".16667"/>
   <stop stop-color="#011c4b" offset=".59032"/>
   <stop stop-color="#4e6ca1" offset="1"/>
  </radialGradient>
  <radialGradient id="l" cx="133.89" cy="25.929" r="15.098" gradientTransform="matrix(1 0 0 1.0723 -84.676 -12.482)" gradientUnits="userSpaceOnUse">
   <stop stop-color="#e86666" offset="0"/>
   <stop stop-color="#c92222" offset=".58542"/>
   <stop stop-color="#c92222" offset="1"/>
  </radialGradient>
  <radialGradient id="m" cx="142.72" cy="55.771" r="22.184" gradientTransform="matrix(1.6309 .24697 -.43704 2.8861 -127.72 -125.73)" gradientUnits="userSpaceOnUse">
   <stop stop-color="#151e2f" offset="0"/>
   <stop stop-color="#011c4b" offset=".16667"/>
   <stop stop-color="#014b48" offset=".41438"/>
   <stop stop-color="#011c4b" offset=".59032"/>
   <stop stop-color="#4e6ca1" offset="1"/>
  </radialGradient>
 </defs>
 <g transform="translate(-13.5 6.6852)">
  <path d="m67.483 92.228 0.17678 7.3362-2.2097 2.4749c-1.6499-0.53824-3.2998-0.28334-4.9497 0.35355-1.0147 0.84004-2.0754 1.6709-1.9445 2.74 1.7383-1.0071 3.4766-1.4969 5.2149-1.3258-0.76502 1.9733 0.02528 2.9098 0.61872 3.9775 1.0979-1.942 2.1252-3.9074 4.5962-5.3917l1.591 1.9445 1.149-1.3258c0.45532-1.1718 0.44628-2.5758 0.44194-3.9775 1.7934-0.14102 3.8094 1.0542 5.8336 2.2981 0.74356-0.79317-0.4164-2.2208-0.97227-3.4471l-5.1265-2.3865 2.2097-1.5026c1.2324-1.0901 1.8297-2.1802 1.4142-3.2704l-4.5078 2.1213-0.17678-1.7678z" fill="#bd9a34" fill-rule="evenodd" stroke="#ff9d00" stroke-width=".29055"/>
  <path d="m71.763 92.227-0.19336-1.543-1.6445 0.6582 0.93164 2.3301 4.3828-2.2324c-0.87752 2.2845-2.9806 3.1391-4.7988 4.3262l4.9219 1.959c0.93448 0.25072 1.5233 1.3656 2.1348 2.4238-1.8525-1.0244-3.9345-2.6488-6.127-1.4961l0.20898 2.7441c-0.56323 2.6987-1.3261 0.80633-2.0469-0.11914-1.1605 0.73691-2.6156 1.3488-3.6086 3.2235-0.42238 0.79741-1.2152 1.3142-1.4754 2.0616-0.05736-0.95721-0.77676-1.7158 0.70508-3.1348-1.0907 0.19347-2.0574-0.31815-3.1024-0.16032-1.0363 0.15651-2.1527 0.98381-2.8058 0.85954 0.69104-0.27735 1.5291-1.1647 2.4015-1.4856 1.4026-0.51599 2.8937-0.36025 4.0048 0.20049l3.252-2.957-0.39648-7.5449-1.7695 0.09375 0.35352 6.7051-2.248 2.043-4.4531 0.75391c-1.1442 1.2745-2.8058 2.2668-2.2246 4.4824 1.2211-1.373 4.6543-2.0058 4.6543-2.0058l-0.10352 1.3086c-0.12626 1.3076 0.95701 2.141 2.1641 3.1152l1.457-2.6328c0.65081-1.4341 1.7998-2.3093 2.9375-2.332 1.5107 2.7242 2.5132 0.31392 3.0781-0.42968l0.64648-3.5059s1.7803 0.45455 2.6074 0.8418c1.0322 0.48325 2.8906 1.8262 2.8906 1.8262 0.36468-3.5061-0.8554-4.9006-2.9277-6.4277l-2.2656-1.043c2.153-1.1287 2.9858-3.718 2.6221-4.4762-0.36369-0.75823-2.6348 0.6464-4.1632 1.57z" color="#000000" color-rendering="auto" fill="#68430e" fill-rule="evenodd" image-rendering="auto" shape-rendering="auto" solid-color="#000000" style="block-progression:tb;isolation:auto;mix-blend-mode:normal;text-decoration-color:#000000;text-decoration-line:none;text-decoration-style:solid;text-indent:0;text-transform:none;white-space:normal"/>
  <path d="m51.927 13.916c0.5939 3.6627-0.2876 4.3745-0.53033 6.364-0.65973 1.9313-1.5139 3.6405-3.8007 3.7123l-2.4749 5.5685-6.5407 3.2704-7.3362 10.43-5.0381 6.4523-0.53033 7.4246 2.3865-1.8562c0.03458 4.2222 0.319 7.003 1.0607 8.3969l1.9445 2.1213 0.53033-3.5355c1.4487 1.4027 2.3503 2.9878 2.3865 4.8614l1.9445 5.0381c3.1028 2.3618 6.7276 3.9928 8.7504 7.8666l2.4749 5.8336 2.8284 0.7955 4.4194 3.4471 4.2426 0.17678 2.9168-2.6516 4.4194 4.5078 2.5633-0.08839c2.9332-0.86402 4.3135-1.9351 3.7123-3.2704 2.8348-1.4997 3.2417-0.91824 4.5962-1.149l0.97227-3.9775 2.74-4.8614 1.0607 1.149 3.0052-3.8007c1.0005-1.9675 1.2605-4.4905 1.3258-7.1595 1.3258 0.37723 2.6516 0.57897 3.9775 1.8562l5.1265 5.2149 1.0607-2.5633-2.4749-5.8336-2.8284-2.3865 2.2097-0.70711 3.8891 3.0052-0.26516-4.5078 2.6516-0.35355 2.74 4.5962c0.68109-2.0635 1.434-3.4076 0.97227-7.0711l3.0052-3.0936-0.0884-3.7123-2.1213-1.0607c2.3695-2.1271 3.2102-4.4454 3.7123-6.8059-2.0035-2.5744-4.0069-1.7737-6.0104-1.9445 1.0851-2.2441 2.5949-4.4275 2.1213-6.8943-0.56072-2.6599-3.2096-1.8396-5.0381-2.3865 1.3794-2.0597 0.61708-4.8071 0.35355-7.3362l-4.773-0.35355c1.215-3.4958 0.41853-4.3096 0.35355-6.0988-3.3553-1.6997-5.9772 0.08409-8.3969 2.8284l-0.53033-2.1213h-2.1213l1.9445-5.7452c0.0026-3.0242-0.86347-3.6163-2.0329-3.3588-4.0292 0.04272-4.5338 2.6488-6.1872 4.4194-3.0619 3.4303-4.046 6.3988-5.0381 9.3692-0.37899-0.95422-0.57489-2.4272 0.44194-7.3362l3.0936-6.1872c2.1354-2.882 5.1799-5.0367 8.4853-6.9827l3.5355-3.3588-4.9497-0.44194c-5.3754 1.3747-9.6391 6.0844-13.612 11.667l3.6239-12.374c-2.8432 2.0385-4.1502 4.2689-5.1265 6.5407-2.4917 4.5565-3.0531 8.8373-3.9775 13.17l-0.97227 14.054c0.76001 6.3925 1.8668 12.161 3.8007 16.44l1.4142 4.0659-4.1543-3.7123c-1.7044-1.7118-2.715-3.8861-3.0052-6.5407v-9.3692z" fill="#efc819" fill-rule="evenodd" stroke="#aad400" stroke-width=".29055"/>
  <path d="m67.856 54.902c-2.5163-5.9914-3.5733-10.685-4.625-15.375-0.625-6.8333-0.41667-13.333 0.625-19.5 0.24935-5.2848 2.853-10.373 5-15.5l4-3.75c-0.18559 3.9839-2.3736 8.4684-3.75 12.75l7.125-8.625c1.8694-1.2346 3.5609-2.568 6.875-3 1.6078-0.41402 3.0551-0.025507 4.5 0.375-1.021 1.5693-2.6294 2.747-4.125 4-3.2897 1.477-5.1896 3.5497-7.375 5.5-4.7615 6.6059-3.7428 10.115-4.125 14.375l4.625-8.875 4.125-4.5c1.1882-0.62219 2.3628-1.2987 3.875-0.625 0.94725 1.946 0.68298 3.1998 0.5 4.5l-1.75 4.75 2.125-0.125 0.375 1.875 5.625-3.375c1.6749-0.47009 2.866 0.09675 3.375 2.125-0.0837 1.9556-0.13269 4.1545-0.375 5 1.6242-0.61534 3.0774-0.9571 3.875-0.25 2.8175 2.9762 1.2082 5.375 0.375 7.875 1.6273 0.18507 3.2148 0.05181 5 1.5 0.68613 1.5087-0.39605 2.7648-0.75 4.125l-1.5 3.75c1.5833 0.27332 3.1667-0.62574 4.75 1.125 1.0632 1.2471 0.65129 2.2835 0.625 3.375l-3.25 4.375c1.3832-0.04984 2.1975 0.46918 2.75 1.25 0.69948 2.9242-0.49172 3.0124-1 4.125l-2.25 1.75-0.75 7.375-3.25-4.5-2.375 0.875 0.5 3.625c-0.94751-0.10284-1.7131 0.4007-3.125-1.25l-1.25-1.375-1.75 0.75 3.25 3.5c1.2823 2.6329 1.6234 4.8624 1.75 7l-1.875-0.75-4.375-4.25-4.125-1.875c0.23796 3.3213-0.19694 5.9697-1.125 8.125l-3.25 3.125-0.8125-1.1875-2.5625 5.0625-1 3.875-2.625-0.625 2.125-4.875c0.063-3.0864-0.0716-6.3375-1-10.25 1.125 0.35017 2.25 2.4325 2.875 3.9375 0.42611-1.4156 0.3057-2.5118-1.0625-5.3125 0.76121-0.07993 1.8125-0.375 1.8125-0.375l-2.625-8.375z" fill="url(#m)" fill-rule="evenodd" stroke="#aad400" stroke-width=".29055"/>
  <path d="m42.839 30.732-5.75 3.875-5.125 7.875-5.375 6.5-0.875 8.125 2.5-2c-0.226 6.0628 1.199 8.9506 3.125 10.875l0.375-3.75 3.375 7.875 9.125 8.625 3 7.3125 3.375 0.5625 2.5 3 5.75 0.625 3.25-2.75 4.375 4.625c1.8672 0.06394 3.8022-0.24573 6-2l-0.125-1.875 1.6875-0.375c0.0442-2.7917 0.49707-5.5833-0.4375-8.375l-2.625 6.0625-0.125-6.375-1.625 2.6875-0.75-9.125-2 3.75-1.625-12.125c-0.97721-2.2794-2.4219-5.1458-2.475-7.5711 0.19268-0.8201-0.33014-2.9034 0.40284-3.6704 0.31632-0.33099 1.8518 0.19348 2.3944 0.16017l-2.9602-3.7484c-0.14579 1.617 1.0378 4.4198-0.17459 5.5796l-1.6875-2.125 0.5 4.125-1.75-1.75-0.875 5.5c-1.3314-1.1127-1.6392-3.0785-2-5-1.0033 0.76167-1.5518-0.06872-2.25-0.375l-2.875 4.875-0.375-3.625-2.375 1.25 0.375-2.75c1.6672-2.6588 0.81993-3.0546 1-4.375-1.375 1.5828-2.75 3.2583-4.125 3.875-0.89513-0.89622-0.4565-2.5334 0.125-4.25l-2.125 0.625 0.125-2.875c-0.83333 0.50307-1.6667 0.8954-2.5 0.25 0.40183-1.2288 0.68446-2.4129 2.375-4.125l-1.125-0.75c-2.426 1.9909-4.8733 4.0083-6 4.375 0.24858-1.8535 0.87773-3.8972 2.125-6.25l4.625-9.625z" fill="url(#k)" fill-rule="evenodd" stroke="#aad400" stroke-width=".29055"/>
  <path d="m67.875 54.787c-2.5163-5.9914-3.5733-10.685-4.625-15.375-0.625-6.8333-0.41667-13.333 0.625-19.5 0.24935-5.2848 2.8531-10.373 5-15.5l4-3.75c-0.18559 3.9839-2.3736 8.4684-3.75 12.75l7.125-8.625c1.8694-1.2346 3.5609-2.568 6.875-3 1.6078-0.41402 3.0551-0.025507 4.5 0.375-1.021 1.5693-2.6294 2.747-4.125 4-3.2897 1.477-5.1896 3.5497-7.375 5.5-4.7615 6.6059-3.7428 10.115-4.125 14.375l4.625-8.875 4.125-4.5c1.1882-0.62219 2.3628-1.2987 3.875-0.625 0.94725 1.946 0.68299 3.1998 0.5 4.5l-1.75 4.75 2.125-0.125 0.375 1.875 5.625-3.375c1.6749-0.47009 2.866 0.09675 3.375 2.125-0.08372 1.9556-0.13269 4.1545-0.375 5 1.6242-0.61534 3.0774-0.9571 3.875-0.25 2.8175 2.9762 1.2082 5.375 0.375 7.875 1.6273 0.18507 3.2148 0.05181 5 1.5 0.68613 1.5087-0.39605 2.7648-0.75 4.125l-1.5 3.75c1.5833 0.27332 3.1667-0.62574 4.75 1.125 1.0632 1.2471 0.65129 2.2835 0.625 3.375l-3.25 4.375c1.3832-0.04984 2.1975 0.46918 2.75 1.25 0.69948 2.9242-0.49172 3.0124-1 4.125l-2.25 1.75-0.75 7.375-3.25-4.5-2.375 0.875 0.5 3.625c-0.94752-0.10284-1.7131 0.4007-3.125-1.25l-1.25-1.375-1.75 0.75 3.25 3.5c1.2823 2.6329 1.6233 4.8624 1.75 7l-1.875-0.75-4.375-4.25-4.125-1.875c0.23796 3.3213-0.19693 5.9697-1.125 8.125l-3.25 3.125-0.8125-1.1875-2.5625 5.0625-1 3.875-2.625-0.625 2.125-4.875c0.06302-3.0864-0.07162-6.3375-1-10.25 1.125 0.35017 2.25 2.4325 2.875 3.9375 0.42611-1.4156 0.30571-2.5118-1.0625-5.3125 0.76121-0.07993 1.8125-0.375 1.8125-0.375l-2.625-8.375z" fill="url(#j)" fill-rule="evenodd" stroke="#aad400" stroke-width=".29055"/>
  <path d="m42.81 30.762-5.75 3.875-5.125 7.875-5.375 6.5-0.875 8.125 2.5-2c-0.226 6.0628 1.199 8.9506 3.125 10.875l0.375-3.75 3.375 7.875 9.125 8.625 3 7.3125 3.375 0.5625 2.5 3 5.75 0.625 3.25-2.75 4.375 4.625c1.8672 0.06394 3.8023-0.24573 6-2l-0.125-1.875 1.6875-0.375c0.0442-2.7917 0.49708-5.5833-0.4375-8.375l-2.625 6.0625-0.125-6.375-1.625 2.6875-0.75-9.125-2 3.75-1.625-12.125-3.125-10-1.375-1.375 0.5 4.125-1.75-1.75-0.875 5.5c-1.3314-1.1127-1.6392-3.0785-2-5-1.0033 0.76167-1.5518-0.06872-2.25-0.375l-2.875 4.875-0.375-3.625-2.375 1.25 0.375-2.75c1.6672-2.6588 0.81993-3.0546 1-4.375-1.375 1.5828-2.75 3.2583-4.125 3.875-0.89514-0.89622-0.4565-2.5334 0.125-4.25l-2.125 0.625 0.125-2.875c-0.83333 0.50307-1.6667 0.8954-2.5 0.25 0.40182-1.2288 0.68445-2.4129 2.375-4.125l-1.125-0.75c-2.426 1.9909-4.8733 4.0083-6 4.375 0.24858-1.8535 0.87773-3.8972 2.125-6.25l4.625-9.625z" fill="url(#h)" fill-rule="evenodd" opacity=".296" stroke="#aad400" stroke-width=".29055"/>
  <path d="m39.11 17.01c-1.481 3.4652-2.2711 7.506-5.0381 9.8995 0.55642 1.7451 1.4202 2.8753 2.9168 2.74 1.4437-0.19026 2.8874 0.54709 4.331 1.7678 1.0901 0.28776 2.1802-0.54898 3.2704-1.4142 1.0473-1.8158 2.7078-2.0988 2.9168-6.0104 0.74006-0.02097 1.4232 0.29952 2.3865-1.0607 1.3799-1.7216 1.9145-3.6122 2.1213-5.5685 0.10544-1.2669-0.0571-2.5338-0.17678-3.8007l2.2097 5.1265c1.417 0.78607 2.5821 2.2471 4.8614 2.3865 1.3281-0.66211 3.1389-0.70357 2.9168-3.3588l-2.9168-1.8562 4.1543-2.5633c-1.1112-0.45808-2.6377-0.74381-5.1265-0.97227 1.8267-1.6784 3.6534-2.1086 5.4801-2.9168-2.6194-1.306-5.038-1.2071-7.4246-0.88388 1.3553-1.6794 1.5883-1.6753 4.0659-5.0381l-5.3033 2.0329 2.5633-5.3033-5.8336 4.5962-0.53033-4.5962-3.3588 3.2704-0.88388-2.9168-6.7175 4.6846 0.44194 1.6794 4.5078 3.3588c0.68948 1.0488 1.2251 2.2515 1.6794 3.5355-0.74056 2.5139-1.9868 2.4991-3.182 2.74z" fill="#fff" fill-rule="evenodd" stroke="#fc0" stroke-width=".29055"/>
  <path d="m38.922 17.096-2 5.6875-2.625 4.25 2.6875 2.5625 2-0.375 2.8125 2.125 2.75-1.1875c1.728-1.5496 2.4298-3.9543 3.1875-6.3125 0.85416 0.40487 1.7083-0.32431 2.5625-0.875 0.74431-1.4877 1.4587-3.0203 1.875-5l-0.0625-4.75 2.1875 5.75 1.5 0.3125 2.5 1.5625 2.625-0.875 0.75-2.75-2.75-1.6875 4.375-2.3125-2.625-1-2.625-0.0625c1.5084-1.4978 3.5165-2.2461 5.6875-2.75-2.4314-0.70944-4.8453-1.5411-7.4375-1.125l4-4.625-5.5 1.6875 2.875-5c-3.1609 0.63645-4.5784 2.6288-6.3125 4.375v-5.1875l-3.4375 4.125-1.5625-3.375-6.375 5.6875 2.375 2.1875c1.5414 0.5003 2.4899 1.5934 3.375 2.75l0.8125 3.1875c-0.22794 0.67227-0.749 1.9997-2.4375 2.4375z" fill="url(#l)" fill-rule="evenodd" stroke="#f00" stroke-width=".29055"/>
  <path d="m38.81 17.351-2 5.6875-2.625 4.25 2.6875 2.5625 2-0.375 2.8125 2.125 2.75-1.1875c1.728-1.5496 2.4298-3.9543 3.1875-6.3125 0.85417 0.40487 1.7083-0.32431 2.5625-0.875 0.74431-1.4877 1.4587-3.0203 1.875-5l-0.0625-4.75 2.1875 5.75 1.5 0.3125 2.5 1.5625 2.625-0.875 0.75-2.75-2.75-1.6875 4.375-2.3125-2.625-1-2.625-0.0625c1.5084-1.4978 3.5165-2.2461 5.6875-2.75-2.4314-0.70944-4.8453-1.5411-7.4375-1.125l4-4.625-5.5 1.6875 2.875-5c-3.1609 0.63645-4.5784 2.6288-6.3125 4.375v-5.1875l-3.4375 4.125-1.5625-3.375-6.375 5.6875 2.375 2.1875c1.5414 0.5003 2.4899 1.5934 3.375 2.75l0.8125 3.1875c-0.22794 0.67227-0.74899 1.9997-2.4375 2.4375z" fill="url(#i)" fill-rule="evenodd" opacity=".302" stroke="#f00" stroke-width=".29055"/>
  <path d="m47.596 23.992c-0.92535 2.2039-0.53567 3.6564-4.5078 7.6014-2.3444 5.5638-5.3324 10.639-6.6291 16.308l2.6516-1.5468 2.9168-2.5633c0.98877 0.16404 1.918 0.35413 1.0607 1.3258l-1.8562 2.6516 0.61872 1.149 2.0329-0.53033-0.44194 2.9168 2.2097-0.61872c-1.0266 1.5987-0.88699 2.6584-0.26516 4.0217 1.3555-0.04663 2.8667-2.1185 4.331-3.5797-0.15683 1.149 0.0851 2.2981-0.70711 3.4471l-0.88388 3.0052c0.83282 0.16494 1.7014 8e-3 2.6516-0.88388 0.05284 1.1175-0.53578 2.7964 0.35355 3.182 1.1851-0.48112 2.1902-3.1211 3.2704-4.8614l0.53033 1.591 1.2374-0.7955c0.30316 1.7645 0.27375 3.6569 2.0329 4.8614 0.55881-1.2689 0.58926-3.5945 0.88388-5.3917l1.6794 2.0329-0.44194-4.5962 2.1213 2.74c0.52273-2.8365-0.803-5.4882-1.3258-8.2201l-0.70711-12.286-8.3969-21.655v3.9775c-0.15066 1.8823-0.71026 3.3556-1.3258 4.773-0.65362 1.5292-1.7336 2.0636-3.0936 1.9445z" fill="#ecce71" fill-rule="evenodd"/>
  <path d="m73.162 0.223c-0.26958-0.005827-0.70869 0.23225-1.373 0.81836-0.43974 0.38795-2.9354 2.3503-4.2852 5.0645-2.1339 4.291-3.5189 8.9558-4.3379 13.637-0.93947 5.3693-1.0136 10.874-0.63281 16.258 0.28532 4.0347 1.0932 8.0164 2.1582 11.875 0.41357 1.4984 1.6882 4.5261 2.3516 6.1895-1.7494-1.6538-4.8235-5.8488-5.332-7.8711-0.24358-0.96855-0.13617-3.6063-0.17383-5.8711-0.0336-2.0216-0.2161-5.9539-0.94922-7.6719-2.697-6.3201-4.414-9.3896-6.7695-16.42l0.02148 0.06641c-0.88713-2.6395-1.4711-3.3422-2.4941-4.2402-0.62649-0.54991-1.8983-1.3746-2.3164-1.332 0.81401 0.78673 1.8056 1.5766 2.4805 2.7734 0.32511 0.57651 0.05411 2.0901 0.17773 3.8047 0.24344 1.2884-1.0214 3.9817-1.623 4.5801-0.60161 0.59836-0.94551 2.2813-2.6641 1.5879-0.84355 1.3066-1.4311 3.4723-2.1855 4.6211-0.75442 1.1488-1.7528 2.1708-2.5059 2.4512-0.75305 0.28042-1.0545 0.3874-2.0117-0.25195-2.5822 1.7669-7.1063 6.8143-9.1621 11.709-2.8339 2.0958-4.5642 4.3031-5.3555 6.5898-1.0555 3.0501-1.4201 6.9636-0.91016 10.1l2.5391-2.7793c0.0783 3.2806-0.40316 7.4807 1.5293 9.5508l2.7773 1.6895c-0.61534-1.2309-0.38814-2.3775-0.19336-3.5273 0.83781 0.71278 0.80878 2.6185 1.2939 3.9136 0.52424 1.3994 0.84779 3.5263 1.8432 4.5283 2.6399 2.6574 5.9933 4.4345 8.0797 7.0347 0.65775 0.8197 1.0942 2.0167 1.623 3.2852 0.52883 1.2684 1.0798 3.2662 2.3725 4.2398 0.63805 0.48052 1.3084 0.33519 2.1191 0.52635 0.81073 0.19116 1.5539 0.85172 2.0093 1.5664 1.8468 2.8985 6.0227 2.183 7.7647 2.0756 1.2024-0.57619 2.2096-1.2988 2.748-2.373 1.0824 1.4047 2.8592 3.4128 4.375 4.4004 0.84528-0.0093 1.8613-0.16146 2.9004-0.46875 1.191-0.35222 2.1807-0.66467 2.8203-1.2715 1.1522-1.093 0.80713-1.2693 0.97852-1.8574 0.50372-0.51467 1.7032-0.62964 2.2109-0.70703 0.91071 1.0612 2.0901 0.76454 2.7734-0.71875 0.30898-1.3794 0.75567-2.9754 0.69726-3.4746 0.82131-0.69624 2.1667-3.941 2.1328-4.3125l0.64258 1.6719s0.74786-1.3951 1.5996-2.0488 1.8213-1.432 2.3867-2.4434c0.72753-1.3012 0.9667-3.0233 1.1211-4.5098 0.06722-0.64717-0.31133-1.8043-0.1582-2.0996 0.1091-0.21038 0.43739-0.47265 0.73438-0.56055 0.71383-0.21128 2.2278 1.2933 2.9023 1.8281 0.87801 0.69613 2.7676 2.8613 2.7676 2.8613l0.01758 0.01953 0.01758 0.01953c1.1074 1.1467 2.3049 2.5422 3.6172 1.6777 0.68165-1.0314 0.45252-2.2124 0.37891-3.2676-0.09394-1.3465-1.8679-5.815-4.9023-7.6836-0.15925-0.2309 1.2274-0.31118 1.1055-0.48242 0.8841 1.9178 4.005 3.7098 4.7559 3.0039 0.63461-1.1492 0.08256-2.9956-0.06836-4.1543l0.86133-0.38086c1.1956 1.8564 2.0854 3.7985 3.8203 4.8359 1.2888-0.95901 1.4768-2.4274 1.7051-3.75 0.15028-0.87065-0.19287-3.2604-0.11133-4.0781 0.0815-0.81768 1.6138-1.3084 2.2578-2.1992 0.7856-1.0867 1.6886-2.461 1.4434-4.0742-0.10323-0.67906-1.1385-1.9531-3.1406-1.8457 1.0291-1.0801 2.7324-2.4245 3.2676-3.6387 0.74704-1.6951 0.9343-4.2588-0.48633-5.5469-0.86375-0.78312-3.8725-0.07545-4.9531-0.13672 0.32559-0.87376 1.6702-3.1187 2.0996-4.1211 0.60225-1.4057 0.67879-2.925-0.0527-4.0254-1.0699-1.6094-3.0808-0.76864-4.627-0.96094 0.30854-0.79171 0.75416-1.4376 1.0898-3.293 0.38736-2.141-0.31189-4.084-1.709-5.5293-1.372-1.4193-3.6761 0.35731-3.9844 1.1152 0.38022-1.6172 1.131-5.009 0.26953-6.1777-0.60922-0.82655-1.545-1.1967-2.4238-1.3438-1.7512-0.29308-5.1888 1.9865-6.4375 3.5234-0.10604-1.9887-0.80781-2.0811-2.4629-1.3145 1.2076-1.8216 1.8929-3.0207 2.0391-4.998 0.19919-2.6946-0.16646-5.5935-2.9629-4.9082-0.96056 0.23538-3.0695 1.4187-4.0488 2.166-2.0888 1.5941-5.4401 7.8105-6.5098 9.7441 0.01611-2.8593 2.4724-8.1024 3.6328-9.8281 1.233-1.8338 2.5975-3.1744 4.3535-4.4414s4.0337-2.2548 4.9492-3.2344l3.1562-3.377c-3.2336-1.5087-6.5987-1.198-9.6836 0.33789-3.3852 1.6854-6.4333 5.1121-8.3809 8.5469 1.2608-2.8724 2.0492-5.9804 2.8203-9.0977 0.21997-0.88918 0.23837-1.5782-0.21094-1.5879zm-0.81445 1.5918-3.9922 11.566c-2.0323 4.166-4.826 15.398-4.4062 25.16 0.1219 1.0197-0.26065 1.0388-0.26367 0.12109-0.37217-5.2629-0.10242-13.412 0.98047-18.521 1.2015-5.6685 2.5354-14.134 7.6816-18.326zm12.535 0.35742c0.64332-0.014933 1.2729 0.056564 1.8438 0.25195-0.42832 1.0605-4.8225 3.6982-6.6836 5.041-1.8693 1.3488-3.3566 2.7365-4.8652 4.707-1.6777 2.1914-2.7125 5.0434-3.3965 7.5645-0.68746 2.5341-0.50595 5.9165-0.5293 6.4531-0.33702 7.7481 1.4533 18.638 3.0449 26.527-1.8054 0.93542-3.1895 2.0212-3.9688 3.8496l1.2109 0.80469c1.1993-2.8139 4.7461-4.4393 8.541-4.8652 3.2804-0.36818 6.9946-0.16408 8.7031 1.168 1.4536 1.1332 3.0518 2.5635 4.127 4.0332 1.0724 1.466 2.0083 4.6489 2.4162 5.6 0.40782 0.95107 0.7297 1.6624 0.6385 2.5934-0.8803 0.3182-1.8947-0.57537-2.5371-1.5469-0.02503-0.0588-0.60465-1.4171-1.4961-3.0039-0.91087-1.6214-2.4093-3.3353-3.8926-4.2988-2.5084-1.6294-5.554-2.24-8.7227-2.0586-3.1686 0.18141-5.8293 1.1149-7.5664 2.5625l0.78906 0.67383c1.1797-0.98305 4.16-1.74 7.0645-1.9062 2.9045-0.16628 5.8006 0.77976 7.8145 2.0879 0.58135 0.37763 1.3919 1.0174 2.1289 1.8223-2.9439 0.73081-6.4478 0.16025-9.1289-0.52539-0.02255-0.0094-0.04372-0.02008-0.06641-0.0293-1.8121-0.73668-4.1922-1.2593-7.2402-0.85352l0.94061 0.93333c0.41717 0.58958 1.1893 2.2724 2.1121 4.0999 1.239 2.4535 2.7183 5.3282 2.7715 7.2305 0.04378 1.5671-0.57266 4.288-0.95703 6.4551-0.29805 1.6804-0.54771 2.8476-0.72708 3.8486s-0.03916 2.1296-0.09128 3.1162c-0.05078 0.96133-0.53957 1.7467-0.77539 2.1914-1.1957 0.31652-1.1696-0.71091-1.6895-0.54102-0.65956 0.457-0.94617 1.8312-2.8652 1.7344-1.0937 1.1175-0.25028 1.7478-0.73438 2.207-0.96706 0.93588-3.2691 2.0674-4.3066 1.6426-0.59476-0.37681-1.9151-1.8773-2.6719-2.8145-0.75676-0.93718-1.6094-1.8125-1.6094-1.8125-0.39386-0.38375-0.80761-0.68135-1.4473 0-0.7368 0.95934-1.5855 1.6948-2.5723 2.1543-1.5714 0.08993-2.4565 0.89068-4.627-0.34766-1.197-0.68292-2.2568-2.367-3.4258-3.0645-0.6568-0.39187-1.23-0.0785-2.1523-0.47656-1.3523-0.58359-1.2796-2.3393-1.7773-3.5332-0.49776-1.1939-1.037-2.5946-2.043-3.7559-2.624-3.0291-4.4333-4.3786-7.2715-6.748-0.68875-0.57501-1.9961-3.0254-2.4023-4.3789-0.82322-2.7426-1.8929-5.0259-4.4258-6.1875l0.75 3.3438c-2.39-2.2197-2.8355-7.1466-2.5742-9.7598l-1.8555 1.2266c0.06766-1.4702 0.21944-4.8742 0.73633-6.25 0.73093-1.9455 2.9051-3.5208 5.3926-6.9922s4.9977-7.5985 7.1406-8.9824c2.143-1.384 3.0432-1.2801 4.0234-1.9766 0.98025-0.69645 1.7411-1.59 2.5332-2.666 0.79215-1.076 1.5439-2.5766 1.7715-4.2539 0.63077-0.10203 1.3117-0.33551 2.0352-0.99609 1.0478-0.9568 2.6608-5.5995 1.9668-8.1543 2.1157 5.9276 4.9696 13.926 7.3203 19.52 0.65535 1.5594 0.29981 3.9525 0.33984 5.5391 0.05654 2.2408 0.03851 4.5202 0.4082 6.0527 0.58496 2.425 2.0212 3.8941 3.4844 5.666 2.1149 2.2644 2.9259 2.6256 5.0215 3.5449-1.4739-3.675-1.7395-4.2308-2.8047-8.0176-0.40215-1.4297-0.99616-2.8647-1.0488-4.3691-0.33216-9.4885 0.0581-19.554 4.3926-28.697 2.8111-4.5657 6.8733-8.9251 10.605-11.025 0.90072-0.50689 2.9509-1.3126 4.8809-1.3574zm-2.4023 10.906c0.34276-0.0064 0.69639 0.04502 1.0586 0.16992 1.8761 0.64696 1.0847 4.2445 0.34766 5.9688-0.30944 0.72392-0.45908 1.1092-2.4043 4.5527-1.9452 3.4435-3.5797 10.802-3.0586 18.377 0.24542 3.5672-0.52568 6.6173-1.0059 9.416-0.49612 0.12527-0.98046 0.27419-1.4551 0.44336-1.6499-8.2222-3.5201-19.533-2.6504-24.639 0.90666-5.3233 1.7798-6.5609 4.3809-10.539 0.52281-0.79957 2.3878-3.7053 4.7871-3.75zm11.211 9.3223c0.92931 1.8964 0.6319 2.8081 0.02148 4.5645l-11.553 23.844c-1.2059 0.30642-2.4736 0.31079-3.6152 0.49805 0.48563-2.692 1.1625-5.8335 1.0039-9.3945-0.1401-3.1462 3.28e-4 -0.0065 0-0.0098-3.35e-4 -0.0033 0.55581 6.897-2e-3 -0.0098-0.59134-7.322 0.99577-14.236 4.4648-20.303 0.49044-0.09079 0.8868 0.02735 1.2129 0.29688 0.56428 0.46639-3.4355 7.2891-3.4355 7.2891 2.0278-2.2694 5.9758-7.1144 8.1715-7.4767 2.1957-0.36232 3.392 0.0099 3.7309 0.70135zm3.6855 5.3438c0.93751 0.35191 1.7436 2.0081 1.5059 3.2109-0.25491 1.2897-0.63755 2.5856-0.79883 2.9531l-9.2559 15.145c-1.5635 0.17994-3.2039 0.99927-4.7578 1.4395-0.06076 0.01981 10.621-23.111 10.621-23.111 0.91263-0.17987 1.8774 0.05993 2.6855 0.36328zm1.4043 7.1641c1.325 0.0407 2.4251 0.37642 3.3184 1.5195 0.3738 0.47837 0.83189 2.2922 0.42968 3.2227-0.796 1.8414-1.1449 2.315-1.918 3.9609l-5.0215 5.8965c-1.8907-0.7089-3.59-0.73463-5.4102-0.62109zm5.2148 9.8867c0.87531 0.46151 1.5565 1.3257 1.7461 2.3633 0.15582 0.8526-1.1032 3.5505-2.3106 4.7715-1.0373 1.049-2.0039 1.6421-2.8535 2.252-1.1736-1.6442-2.5365-3.2255-4.0059-4.1641l4.8711-5.4238c0.85416-0.11557 1.7689 0.07049 2.5527 0.20117zm-12.105 5.4688c1.3307 0.02219 2.5454 0.21753 3.4277 0.6582 1.4975 0.74794 3.3923 2.937 4.7852 5.0449 0.69642 1.054 1.2542 2.1032 1.6777 2.8984 0.99285 1.864 0.28712 5.117-0.23047 5.9629-1.5884-1.6607-1.9877-3.9266-2.834-5.8691-0.71842-1.6491-1.5796-3.597-2.9844-4.5566-1.9133-1.3071-4.209-1.4844-6.2988-1.7051-1.1117-0.72294-2.5415-1.209-4.125-1.4766 0.75042-0.20839 1.5622-0.41261 2.4551-0.57812 1.3494-0.25015 2.7962-0.4011 4.127-0.37891zm12.094 2.6055c0.45038 0.23012 0.71078 0.49231 1.1856 0.91992 0.86846 0.79508 0.14913 2.7824-0.51367 3.6992-0.30906 0.4275-0.84154 0.95334-1.3242 1.4004-0.5507-1.3056-1.3648-2.667-1.3301-3.584 0.0347-0.91697 1.1661-1.531 1.9824-2.4355zm-12.844 1.3164c2.3026 0.38711 3.9547 1.2171 5.2402 2.9512-0.41773 0.2781-1.2655 0.85609-1.6211 1.0469-0.79527-1.6769-2.3281-2.7325-3.6191-3.998zm5.5469 3.9531c0.7292 1.2041 1.133 2.589 1.3203 3.8926l-1.0645 0.47852c-0.25188-0.56383-0.91723-2.0059-1.6953-3.4453 0.38607-0.20554 1.0374-0.65424 1.4395-0.92578zm-21.393 1.5645c1.8386 0.15049 3.3887 0.44564 4.6562 0.96094 1.8389 0.97059 3.0168 2.0451 3.8848 3.5449 1.5999-0.20028 2.9335-0.30934 4-0.11328 1.0608 0.18564 1.9472 0.88885 2.7109 1.375l1.4297 1.2852c0.84159 0.69357 3.987 5.058 2.8691 7.3164-0.45253 0.9142-3.0469-1.9429-4.0391-3.1719-1.0364-1.2837-4.0879-2.4121-4.0879-2.4121-1.346-0.20055-3.7244-1.4948-5.668-3.1543-0.86435-1.2805-2.2212-2.5892-3.498-3.7305-0.84402-0.75445-1.6507-1.4175-2.2578-1.9004zm15.002 1.4414c0.64969 1.0445 1.2834 2.1354 1.9668 3.1973-0.32544 0.10434-0.85406 0.29426-1.2754 0.44141-0.2488-0.26235-0.51997-0.53572-0.80664-0.80664-0.29052-0.27455-0.69757-0.60585-2.1465-0.92383-1.759-0.38603-2.6699-0.13131-3.6953 0.01953-0.35119-0.56096-0.74566-1.0634-1.1816-1.5117 2.106 0.20567 4.3367 0.4443 7.1387-0.41601zm-15.104-0.53711c0.19722 0.17013 1.8531 1.7321 2.0566 1.9141 1.6762 1.4983 3.0594 3.288 3.498 4.4863 0.59076 1.6137 0.46026 4.4797 0.12695 6.8848-0.14494 1.0459-0.31628 1.9701-0.46875 2.7227-0.56926 2.039-0.75834 3.7906-2.1328 5.2402-0.18064 0.55398-0.19438 0.01726-0.20117-0.62109 0.04627-0.22786 0.31291-1.525 0.67188-3.5488 0.38878-2.1919 0.99021-4.753 0.94141-6.5-0.06365-2.2787-1.3658-5.2781-2.6289-7.7793-0.2732-0.54102-1.6039-2.3218-1.8633-2.7988zm6.8105 6.957c1.3142 0.49843 2.717 1.4041 3.2148 2.2344 0 0-0.04307 2.6699-0.41992 4.2539-0.32032 1.3464-2.5272 4.4053-3.1914 4.7598-0.05219 0.09334-0.23973-0.26283-0.44141-0.69531 0.1183-0.48867 0.47164-1.985 0.76172-4.0781 0.29317-2.1155 0.48785-4.5532 0.07617-6.4746z" color="#000000" color-rendering="auto" fill="#000a1c" fill-opacity=".94946" fill-rule="evenodd" image-rendering="auto" shape-rendering="auto" solid-color="#000000" style="block-progression:tb;isolation:auto;mix-blend-mode:normal;text-decoration-color:#000000;text-decoration-line:none;text-decoration-style:solid;text-indent:0;text-transform:none;white-space:normal"/>
  <path d="m63.013 52.344c-0.62072 0.03796-0.80132 1.4128-1.1777 1.7448-0.37638 0.33194-0.96605-0.43157-0.35795 2.0621 0.60814 2.4936 2.2981 7.5344 3.104 12.176 0.27042 1.5574 0.3129 3.1978 0.41016 4.6719s0.18262 2.7946 0.90234 3.832l0.95117 1.3711c0.20958-0.65141 0.90665-3.3664 1.0992-3.799-0.10168 1.9522 0.04447 5.5158 0.51608 7.3264 0.17672 0.67846 0.49516 1.0735 0.7832 1.5293 0.05239-0.91008 0.78637-2.2457 1.1856-2.5777-0.0985 2.0087 9.9e-4 4.7337 0.39254 6.7496 0.50163-1.7266 1.5134-4.8271 2.3484-6.2719 0.96072 2.6108 0.23153 5.2697 0.35126 8.1959 0.60949-0.4977 1.3052-1.4461 1.8096-2.3639 1.0731-1.9524 2.2573-3.6318 2.2802-5.9602l-1.181-7.3962c1.3137 0.71481 1.4087 3.2498 2.614 4.9401-0.29831-2.2641 0.55294-4.7589-0.99655-7.0834 1.7334-0.26154 1.4453 2.581 2.4331 3.5622l-1.2095-8.1431c-0.29918-2.0142-1.5772-5.9574-4.8675-8.419-3.2494-2.431-6.175-4.2226-9.3496-5.623-0.75658-0.33375-1.4232-0.56122-2.041-0.52344zm2.0996 1.6391c1.8232 0.78778 4.9026 3.3858 7.9633 6.0137 3.5045 3.0089 4.0769 6.4703 5.0328 10.22l-2.0378-0.23327c0.97415 1.8423 1.8429 2.5641 2.0565 4.841-1.0384-2.1972-2.3358-3.4882-3.6007-4.8928l1.3301 8.8672c-0.0305 2.37-0.81075 6.3944-1.3894 7.4678 0.66166-2.5068 0.07718-6.0743-0.41525-8.5811l-1.3105 1.6504c-0.5627 0.70862-1.2148 4.1944-1.5504 4.7037-0.28037-1.377 0.36435-5.9976 0.02516-6.1762-0.33919-0.17857-1.6972 2.6098-1.6972 2.6098-0.1553-1.7163-0.55322-4.3817-0.54986-6.4688 0.0018-1.1128 0.13502-2.086 0.29006-3.4995l-1.6816 2.2981c-0.36726 0.50191-0.73424 1.9792-0.81963 2.1038-0.39554-1.8153-0.13874-5.1885-0.43064-6.8834-0.83337-4.8388-3.7552-10.564-3.9566-12.583s0.9186-2.2449 2.7418-1.4571z" color="#000000" color-rendering="auto" fill="#ce9626" fill-rule="evenodd" image-rendering="auto" shape-rendering="auto" solid-color="#000000" style="block-progression:tb;isolation:auto;mix-blend-mode:normal;text-decoration-color:#000000;text-decoration-line:none;text-decoration-style:solid;text-indent:0;text-transform:none;white-space:normal"/>
  <path d="m54.313 86.925c-1.9613 4.3529-3.2154 8.2814-2.8284 11.225l-3.0052 1.3258c-1.9207-0.61376-3.1724-0.0568-4.1543 0.97228-2.4882-0.50705-3.5744 0.15424-4.6846 0.79549l-0.53033 3.2704 3.8891-1.0607 5.922-0.44194c-0.97793 1.9071-2.2134 3.9002-1.149 5.1265 0.50003-0.35159 1.0996-0.93545 2.2981-2.9168 1.6873-0.15863 3.2875-0.8401 4.5078-3.8007l2.4749 4.331 1.2374-3.6239-1.6794-3.8891c2.2469-0.31641 4.1102-1.0163 4.9497-2.74-2.2984 0.43631-3.4482-0.04627-4.5962-0.53033-0.63881-2.8874 0.66649-5.7747 1.8562-8.6621-1.4911-0.87903-2.593-1.6782-4.5078 0.61872z" fill="#dda32d" fill-rule="evenodd"/>
  <path d="m43.176 14.093-7.9991-0.83969 0.17678 1.2816c0.7518 0.79676 2.0089 1.7388 4.1984 2.2539l4.2868-0.22097c0.90271-0.31016 1.7776-0.81483 2.5633-1.9445 0.17356-2.6452-0.79062-3.015-1.37-4.1543-1.0042-1.2801-2.5252-2.2502-4.1101-3.182l-4.773 0.48614-1.0607 0.53033c1.3683 1.533 2.8994 1.6001 4.3752 2.1655 1.5294 0.24365 2.9042 0.95124 4.1984 1.9003 0.70314 0.98435 1.0268 1.789-0.48614 1.7236z" fill="#fff" fill-rule="evenodd" stroke="#f60" stroke-width=".29055"/>
  <path d="m41.373 7.5124-4.375 0.125c-1.0464 0.25901-2.1383 0.50434-1.5625 1.25l4.75 1.6875c1.3248 0.59422 2.7937 0.82825 3.8125 2.1875l-0.5 1.4375-7.875-1.0625c-0.85232 0.39312-0.60272 0.94366-0.3125 1.5 1.0104 0.87083 2.1063 1.7075 3.9375 2.25l4.3125-0.375c0.76296-0.24441 1.5132-0.10005 2.4375-1.3125l0.1875-2.8125c-0.47683-1.0761-0.82296-2.1377-2.75-3.375z" fill="#f0b91d" fill-rule="evenodd" stroke="#8a0" stroke-width=".29055"/>
  <path d="m52.701-2.4176-1.7949 1.1152c-1.2394 0.77007-2.1665 2.1881-3.0684 3.5488-0.27574-1.1293-0.44067-2.7209-0.24024-3.8945l-6.7793 5.0744c-0.41355 0.30955-1.301 1.1234-1.6934 2.117-0.19619 0.49682-0.24069 1.1275 0.0098 1.6875 0.25048 0.55998 1.6942 0.81182 2.3281 1.1758 1.0389 0.59654 1.7781 0.96144 2.5605 1.7988 1.1984 1.2826 2.3646 3.2938 1.6445 4.6504-0.73493 1.3845-4.1774 1.3624-5.832 1.4922-1.4264 0.11187-1.8135 0.45336-2.4531 1.7363-0.62233 1.2483-0.31628 2.5941-1.4238 4.5684-1.0533 1.8775-2.658 2.807-2.6836 3.9238-0.02671 1.1641 0.76147 2.2795 1.541 2.9375 1.0125 0.85468 2.0262 1.2495 2.7637 1.1504 0.57058-0.07671 1.1704-0.53204 1.4277-0.4043 0.72083 0.35776 1.3663 0.53302 1.5335 0.3551 0.16724-0.17792-0.60663-1.3241-1.2366-1.6982-0.9725-0.57765-1.5819-0.27815-1.961-0.22718-0.37911 0.05097-0.64292 0.07158-1.4141-0.55273-0.30779-0.24918-0.52958-0.5838-0.6349-1.0455s0.63379-1.3025 1.8134-3.408c1.1796-2.1055 1.3559-3.7961 1.8605-4.8082s0.7994-1.2951 1.6602-1.3555c0.43087-0.03023 1.2733 0.01429 1.7512-0.01442-0.7156-0.06937-3.6901 7.8136-3.0471 8.4884 0.47617 0.49975 3.3433 0.15789 4.496-2.3145 0.81224-1.7422 0.0176-5.1989-0.23557-6.402 1.1943-0.20469 2.7122-1.4827 3.2411-2.5328 0.43434 0.41316 1.2621 0.95946 2.0773 0.89703 0.98498-0.07543 1.9219-1.0801 1.8775-1.4535-0.07293-0.61384-0.7449-1.7935-1.5212-2.063-0.88596-0.30756-1.9462-0.1148-2.5769 0.4263-0.26809-1.0676-0.87194-2.0588-1.5682-2.8441-1.1924-1.3448-3.3724-1.9683-3.8331-3.3534-0.12025-0.36151 0.63258-1.054 1.3663-1.5704l3.8516-2.7109c0.36838 1.2823 0.47531 2.3333 1.252 3.373 0.71544-1.0801 1.6917-2.1739 2.3223-3.0215-0.036 1.0039 0.03367 1.8499 0.17188 2.5684l0.89062 1.5684 1.5684-1.8984c1.378-1.2383 3.4531-2.8633 3.4531-2.8633s-2.1068 3.0815-2.3984 4.1719l0.20117 1.4531c1.4927-1.3712 2.9037-2.55 4.7168-2.6055-1.3697 1.5557-4.612 3.9762-3.7402 4.4121l1.4785 0.28516c1.8165-0.23394 4.0719-0.10919 5.3945 0.10937-1.4626 0.60494-3.6293 1.7564-4.6267 2.9793 1.3776 0.28547 4.4446 0.25754 4.2312 0.78652-0.21336 0.52898-3.0837 1.3822-3.4795 2.5701l2.3516 1.4688c0.73984 0.46209 0.50522 1.5738 0.08594 1.8516-1.1558 0.76579-2.0108 1.1692-3.1973 0.55664-0.47541-0.24546-2.281-1.4088-2.384-0.86401-0.103 0.54483 1.6571 1.9487 3.0207 2.321 1.6797 0.45868 3.2062 0.10352 3.9902-0.9668 0.8021-1.095 1.0793-2.9878 0.30158-3.4049l-2.3151-1.2417c1.2858-0.6565 2.8065-1.4623 4.16-2.0955l-1.166-1.0938c-0.77239-0.88421-3.5138-0.38239-3.631-0.66873-0.11718-0.28634 2.6788-1.0961 4.0216-1.382l2.2109-0.47076-1.9414-1.1562c-1.6387-0.97594-3.7957-1.1599-6.1602-1.0547 0.68628-0.91915 1.2873-1.7985 2.5117-2.9863l2.0273-1.9668c-0.87549 0.12175-0.87649-0.25622-2.7871 0.45703-0.85651 0.31974-1.8375 0.47745-2.7871 0.93359 0.41236-0.96867 0.94714-1.9693 1.8145-3.0781l1.3047-1.668-2.1035 0.24414c-1.6204 0.18807-2.8578 1.0057-3.8809 1.8926-0.56409 0.48903-1.0402 0.91816-1.541 1.3926-0.01361-0.86577 0.06176-1.8793 0.38867-3.3359z" color="#000000" color-rendering="auto" fill="#7c0000" fill-rule="evenodd" image-rendering="auto" shape-rendering="auto" solid-color="#000000" style="block-progression:tb;isolation:auto;mix-blend-mode:normal;text-decoration-color:#000000;text-decoration-line:none;text-decoration-style:solid;text-indent:0;text-transform:none;white-space:normal"/>
  <path d="m39.721 7.4164c-1.2585-0.26726-3.6619-0.26778-5.0574 0.78959-0.40581 0.32742 0.58131 1.3549 2.1214 2.0174 2.1145 0.90955 3.0865 0.90682 5.2514 1.8163 0.52839 0.22197 1.4002 0.57861 1.2274 1.0972-0.15265 0.45816-1.6235 0.04618-2.5795-0.13496-1.9548-0.37038-2.592-0.65589-4.7158-0.34075-1.5742 0.15531-1.7053 1.2556-0.98156 2.2029 0.4676 0.61198 1.8019 1.6766 2.4102 1.8856 0.78376 0.26927 1.7856-0.08539 1.8934-0.27735s-1.0741-0.48139-1.4995-0.6232c-0.54285-0.18097-2.4007-1.1622-1.9911-1.9038 0.80071 0.37471 5.6628 1.3382 7.0948 1.1575 1.4319-0.18066 1.7062-0.94596 1.7387-1.7963 0.02198-0.57588-0.57093-1.1511-0.9632-1.5455-1.3078-1.315-3.3819-1.5343-4.22-1.8747-1.7851-0.7249-2.5643-0.58223-3.5156-1.2812 0.75765-0.71348 1.8495-0.42867 2.6357-0.34969 0.89362 0.089776 1.7478 0.28893 2.6284 0.18559-0.03578-0.35809-0.7508-0.54917-1.4777-1.0247z" color="#000000" color-rendering="auto" fill="#ac7d26" fill-rule="evenodd" image-rendering="auto" shape-rendering="auto" solid-color="#000000" style="block-progression:tb;isolation:auto;mix-blend-mode:normal;text-decoration-color:#000000;text-decoration-line:none;text-decoration-style:solid;text-indent:0;text-transform:none;white-space:normal"/>
  <path d="m49.566 14.857c-0.61608 0.58138-1.5845 0.56155-2.1762-0.04456-0.59174-0.60613-0.58834-1.5747 0.0077-2.1767 0.59598-0.60197 1.5645-0.61504 2.2133 0.0084 0.60764 0.66359 0.57136 1.6315-0.04472 2.2129z" stroke="#830c0c" stroke-linecap="round" stroke-linejoin="round" stroke-width=".35433"/>
  <path d="m49.24 14.429c-0.36137 0.34101-0.92939 0.32938-1.2765-0.02614-0.34709-0.35553-0.3451-0.92367 0.0045-1.2768 0.34958-0.35309 0.91767-0.36076 1.2982 0.0049 0.35641 0.38924 0.33514 0.95698-0.02623 1.298z" stroke="#fff" stroke-linecap="round" stroke-linejoin="round" stroke-width=".35433"/>
  <path d="m56.405 95.466c0.62903 0.9075 2.7373 0.68288 3.9459 0.58509-1.4447 0.83845-3.7025 1.6322-4.7629 1.6928 1.1489 1.9712 1.809 5.2761 1.5267 6.794-0.66217-2.0108-1.3505-3.3602-2.092-4.0689-0.81763 0.44023-1.8993 0.69048-2.213 1.6535-0.2646 0.81246-0.85164 2.075-2.6894 2.2652-0.54975 0.0108-0.77997 1.3076-1.9394 3.0028-0.22016-2.0453 1.197-4.3302 3.7073-6.485-0.55653-1.0457-3.2626 1.3482-4.1186 1.3642-1.9203 0.46939-3.9326 0.0492-5.8594 0.34994l-2.1708 1.2753c-0.31076-0.94821 1.0466-2.2647 2.0039-2.2889l3.7265-0.51382c0.41508-0.73566 1.3149-1.1902 2.0512-0.57326 0.94991 0.0114 1.9051 2e-3 2.857 5e-3 0.02885-0.90154 0.78054-1.3036 1.5644-1.5553 0.71033-0.12193 0.24841-2.1417 0.30792-2.6596 0.41926-3.6489 3.1781-9.6854 2.2761-9.7965s-3.5268 7.1716-3.8301 11.078c-0.96794 0.02379-1.3991 1.0459-2.464 0.77716-1.0649-0.26872-2.1616-0.7032-2.8877 0.02306-0.36507 0.56796-1.0407 1.09-1.6427 1.157-1.0405 0.16698-2.5191-0.13746-3.5056 0.2186-2.1945 0.79207-2.571 4.6268-1.3548 5.5913 2.0417-1.1296 3.6595-1.0269 3.6595-1.0269 1.7888-0.10372 3.6033 0.0959 5.3691-0.29102-1.17 2.0665-1.0514 3.522-0.59996 5.4801 1.1217-1.2465 2.0462-2.7035 3.4021-3.7098 1.1209-0.32498 2.3093-0.73756 3.0289-1.7493 0.36917-0.51901 0.41738-1.1494 0.95645-1.5231 0.60964 1.0103 1.607 3.332 2.5055 4.0996 0.78246-0.79443 1.3941-1.6045 1.6837-2.8959 0.22815-1.0171 0.3886-1.7642-0.08881-2.6816l-1.1672-2.2428c2.1204-0.12779 4.0195-1.5823 4.6367-4.0547-1.2918 0.2315-2.7685 0.55275-4.6163-0.51077-0.11407-1.6776 0.39452-2.6315 0.56464-3.8219 0.45692-1.5834 1.071-3.1251 1.3778-4.7494-0.57942-0.11193-1.7215 0.77592-2.4867 2.7215-0.76521 1.9456-1.1994 3.3184-0.66236 7.0645z" color="#000000" color-rendering="auto" fill="#845a14" fill-rule="evenodd" image-rendering="auto" shape-rendering="auto" solid-color="#000000" style="block-progression:tb;isolation:auto;mix-blend-mode:normal;text-decoration-color:#000000;text-decoration-line:none;text-decoration-style:solid;text-indent:0;text-transform:none;white-space:normal"/>
  <path d="m56.652 82.815c-0.95823 0.06601-1.7351 1.1295-2.5183 1.6855-0.76305 0.54177-2.3576 0.96635-2.052 1.543s1.8033-0.12989 2.6627-0.3862c0.7175-0.21397 1.3207-1.3651 2.0677-1.4166 0.90842-0.06257 1.707 0.94482 2.6113 1.0523 0.83299 0.09897 2.3285 0.40955 2.4805 0.06396 0.15203-0.3456-1.3892-0.76196-2.1569-1.1549-0.98995-0.50671-1.9856-1.4635-3.0951-1.3871z" color="#000000" color-rendering="auto" fill="#090d15" fill-rule="evenodd" image-rendering="auto" shape-rendering="auto" solid-color="#000000" style="block-progression:tb;isolation:auto;mix-blend-mode:normal;text-decoration-color:#000000;text-decoration-line:none;text-decoration-style:solid;text-indent:0;text-transform:none;white-space:normal"/>
  <path d="m36.943 43.846c-0.71712 1.46-1.3862 3.9536-1.0215 5.3436 1.0723-0.66573 1.5504-1.0244 2.4079-1.5453 0.70245-0.42666 1.3247-0.99182 1.8642-1.6908 0.54082-0.70067 1.6519-1.4886 2.3783-1.6033-0.43936 0.78218-0.97084 2.0311-1.4727 2.6929-0.6219 0.82017-0.72652 1.4177-0.13867 2.0508 0.53927 0.58072 1.3052 0.17172 2-0.0098-0.29808 0.80528-0.38136 2.2455 0.02436 2.7987 0.43501 0.30482 1.3108-0.59169 1.7022-0.55844-0.6518 1.1599-0.40961 3.0924 0.4869 4.2968 2.0074-0.63249 2.7379-1.7476 3.831-3.3854 0.23398 1.697-0.65115 2.2878-1.0249 3.3641-0.24259 0.69851-0.61336 2.3915-0.13345 2.8951s2.2313-0.76116 2.4599-0.87367c-0.1134 0.74304-0.15835 1.7073-0.03547 2.1817 0.13445 0.51899 0.54758 1.8105 0.84838 1.778 0.3008-0.03253 0.90545-1.4345 1.1543-1.5941 0.49778-0.31921 0.82267-0.97485 1.0478-1.4643l1.0263-2.231c0.03975 0.52385 0.47092 2.1639 1.3563 0.3799l0.64359 2.0796c0.39756 1.2846 1.1857 2.7087 2.4666 2.752 0.12915-1.5482 0.22352-4.2669 0.50369-5.0515 0.54533 0.85064 1.6275 1.8198 1.7863 1.6338 0.23661-0.7327-0.39688-3.322-0.35286-3.8418 0.4633 0.26735 1.2731 1.4584 1.855 1.8469 0.85763-1.1739 0.22023-4.0241 0.0044-5.182-0.23884-1.2812-1.0311-2.5329-1.492-2.3667-0.46089 0.16617 0.3737 2.5913 0.4561 3.0262 0.09544 0.50376 0.51153 2.2685 0.32135 2.3883-0.0045 0.14623-1.9359-2.2002-1.9359-2.2002l-0.12305 1.752c-0.03895 0.55457 0.39648 1.9683 0.34746 2.3876l-1.3534-2.2294-0.66334 3.6837c-0.03895 0.21632 0.03369 1.8745-0.06932 2.0685-0.49266 0.20906-0.72882-0.55133-1.0993-1.484-0.26723-0.67273-0.10713-1.9925-0.98445-3.9831 0 0-0.25455 1.9393-0.80691 1.9325s-0.33372-3.0907-0.33372-3.0907l-2.3809 4.5039c-0.4134 0.78204-1.0353 1.7276-1.2124 1.4311-0.17712-0.29651 0.38445-2.7948-0.01-2.9493-0.39444-0.15451-2.0992 1.5214-2.445 1.2418-0.34574-0.27955 0.97662-2.4099 1.2164-3.2057 0.37489-1.2444 0.58802-2.4672 0.09557-3.6742-1.4479 0.36943-2.5301 1.8941-3.1113 2.7695-0.32962 0.38357-1.1077 1.2366-1.5892 0.8365-0.16254-1.2619 0.67303-2.3619 1.2474-3.4732-0.91681-0.30173-2.1505-0.01422-2.7531 0.14189 0.18754-1.1651 0.66483-2.2696 1.0578-3.388-0.8671 0.48275-3.0025 2.0643-3.1795 0.87354-0.13723-0.92309 1.4312-1.8305 1.8902-2.5972 0.53774-0.89834 0.36691-1.2523-0.13008-1.5922-0.59492-0.40689-1.3338-0.28653-1.981-0.05326-0.64714 0.23327-1.2154 0.74373-1.7057 1.3384-0.78157 0.94795-1.624 1.5452-2.7298 1.9936 0.06055-0.40061 0.35243-1.5952 0.64701-2.2457 0 0 2.3931-5.1248 3.4992-7.727 0.72389-1.703 2.8466-4.9307 2.0521-5.1582s-1.9095 3.0027-2.7627 4.5625c-1.323 2.4188-3.6465 7.4238-3.6465 7.4238z" color="#000000" color-rendering="auto" fill="#e39735" fill-rule="evenodd" image-rendering="auto" shape-rendering="auto" solid-color="#000000" style="block-progression:tb;isolation:auto;mix-blend-mode:normal;text-decoration-color:#000000;text-decoration-line:none;text-decoration-style:solid;text-indent:0;text-transform:none;white-space:normal"/>
  <path d="m67.014 54.067c-1.7494-1.6538-3.8971-4.8816-5.1111-7.9153-0.37105-0.92722-0.35714-3.5622-0.3948-5.8269-0.0336-2.0216-0.14599-5.6028-0.77244-7.3625-2.3057-6.4766-4.2774-10.125-5.9784-14.89-1.701-4.7655-2.4175-5.1148-3.4406-6.0128-0.62649-0.54991-1.8983-1.3746-2.3164-1.332 0.81401 0.78673 1.8056 1.5766 2.4805 2.7734 0.32511 0.57651 0.05411 2.0901 0.17773 3.8047 0.24344 1.2884-1.0214 3.9817-1.623 4.5801-0.60161 0.59836-0.94551 2.2813-2.6641 1.5879-0.84355 1.3066-1.4311 3.4723-2.1855 4.6211-0.75442 1.1488-1.7528 2.1708-2.5059 2.4512-0.75305 0.28042-1.1429 0.3432-2.1001-0.29615-0.6973 1.0374-1.1562 2.0302 0.0072 2.7187 1.7894-0.89783 2.3803-0.88236 3.3605-1.5788 0.98025-0.69645 1.9178-1.5458 2.71-2.6218 0.79215-1.076 1.4997-2.4882 1.7273-4.1655 0.63077-0.10203 1.4885-0.33551 2.2119-0.99609 1.0478-0.9568 2.5724-5.2018 1.8784-7.7565 2.1157 5.9276 4.7487 13.396 7.0993 18.989 0.65535 1.5594 0.29981 3.9525 0.33984 5.5391 0.05654 2.2408 0.03851 4.5202 0.4082 6.0527 0.58496 2.425 2.0212 3.8941 3.4844 5.666 2.1149 2.2643 2.9259 2.6256 5.0215 3.5449z" color="#000000" color-rendering="auto" fill="#e39735" fill-rule="evenodd" image-rendering="auto" shape-rendering="auto" solid-color="#000000" style="block-progression:tb;isolation:auto;mix-blend-mode:normal;text-decoration-color:#000000;text-decoration-line:none;text-decoration-style:solid;text-indent:0;text-transform:none;white-space:normal"/>
 </g>
</svg>
