<?xml version="1.0" encoding="UTF-8" standalone="no"?>
<svg
   version="1.1"
   id="Frame_0"
   width="200px"
   height="200px"
   xmlns="http://www.w3.org/2000/svg">
  <defs
     id="defs26" />
  <g
     id="Layer_4"
     transform="matrix(0.33116089,0,0,0.33116089,-113.38103,-7.375339)">
    <path
       fill="#512d13"
       fill-rule="evenodd"
       stroke="none"
       d="m 632.302,192.711 c 0,0 0,0 0,0 1.81,-14.266 5.554,-33.181 6.033,-47.554 0.384,-11.509 -0.512,-26.925 -2.129,-38.327 -1.288,-9.078 -4.72,-20.867 -6.743,-29.81 0,0 0,0 0,0 -11.711,0.639 -27.326,1.491 -39.037,2.13 0,0 0,0 0,0 2.129,3.3 5.23,7.546 7.098,11.001 2.652,4.907 5.338,11.872 7.452,17.034 3.411,8.325 7.961,19.449 10.647,28.036 2.359,7.541 4.867,17.797 6.387,25.551 1.284,6.545 2.879,15.34 3.194,22.003 0.142,2.979 -0.355,9.935 -0.355,9.936 2.236,0 7.452,0 7.453,0 0,0 0,0 0,0 z"
       id="path2" />
    <path
       fill="none"
       stroke="#512d13"
       stroke-width="1"
       stroke-linecap="round"
       stroke-linejoin="round"
       d="m 624.849,192.711 c 0,0 0,0 0,0 0,-0.001 0.497,-6.957 0.355,-9.936 -0.315,-6.663 -1.91,-15.458 -3.194,-22.003 -1.52,-7.754 -4.028,-18.01 -6.387,-25.551 -2.686,-8.587 -7.236,-19.711 -10.647,-28.036 -2.114,-5.162 -4.8,-12.127 -7.452,-17.034 -1.868,-3.455 -4.969,-7.701 -7.098,-11.001 11.711,-0.639 27.326,-1.491 39.037,-2.13 2.023,8.943 5.455,20.732 6.743,29.81 1.617,11.402 2.513,26.818 2.129,38.327 -0.479,14.373 -4.223,33.288 -6.033,47.554 0,0 0,0 0,0 -10e-4,0 -5.217,0 -7.453,0 M 629.463,77.02 c 0,0 0,0 0,0 m -39.037,2.13 c 0,0 0,0 0,0 m 41.876,113.561 c 0,0 0,0 0,0"
       id="path4" />
    <path
       fill="#331c0e"
       fill-rule="evenodd"
       stroke="#331c0e"
       stroke-width="1"
       stroke-linecap="round"
       stroke-linejoin="round"
       d="m 622.21,163.513 c 0,0 0,0 0,0 1.272,-7.361 3.753,-17.082 4.24,-24.535 0.669,-10.222 -0.245,-23.956 -1.616,-34.107 -1.121,-8.301 -4.22,-19.085 -6.029,-27.264 0,0 0,0 0,0 -8.566,0.447 -19.988,1.043 -28.554,1.49 0,0 0,0 0,0 2.471,4.047 6.05,9.281 8.235,13.489 3.923,7.557 8.081,18.159 11.084,26.126 2.738,7.265 6.091,17.076 8.149,24.561 1.648,5.997 4.49,20.238 4.491,20.24 0,0 0,0 0,0 z"
       id="path6" />
    <path
       fill="#3e6303"
       fill-rule="evenodd"
       stroke="#3e6303"
       stroke-width="1"
       stroke-linecap="round"
       stroke-linejoin="round"
       d="m 834.136,53.215 c 0,0 0,0 0,0 -7.498,-1.514 -17.407,-4.073 -24.994,-5.047 -9.453,-1.214 -22.209,-2.234 -31.724,-1.682 -9.052,0.525 -21.031,2.74 -29.801,5.047 -8.822,2.32 -20.344,6.451 -28.599,10.334 -6.725,3.163 -15.278,8.269 -21.39,12.497 -7.037,4.869 -16.079,11.953 -22.11,18.025 -6.833,6.877 -14.757,17.203 -20.188,25.235 -4.323,6.393 -8.916,15.645 -12.737,22.35 0,0 0,0 0,0 6.056,1.082 14.082,2.848 20.188,3.605 7.386,0.916 17.311,1.763 24.753,1.682 7.964,-0.086 18.592,-1.032 26.437,-2.403 8.665,-1.514 20.129,-4.346 28.359,-7.45 10.439,-3.937 23.747,-10.843 33.165,-16.823 8.632,-5.482 19.602,-13.765 26.918,-20.909 6.34,-6.192 13.648,-15.581 18.745,-22.831 4.352,-6.191 12.977,-21.628 12.978,-21.63 0,0 0,0 0,0 z"
       id="path8" />
    <path
       fill="#4a7a02"
       fill-rule="evenodd"
       stroke="#4a7a02"
       stroke-width="1"
       stroke-linecap="round"
       stroke-linejoin="round"
       d="m 816.691,59.936 c 0,0 0,0 0,0 -3.695,-1.033 -8.546,-2.728 -12.315,-3.441 -8.627,-1.632 -20.38,-2.812 -29.156,-2.536 -10.606,0.334 -24.689,2.732 -34.951,5.433 -9.992,2.63 -23.116,7.274 -32.235,12.134 -9.006,4.8 -20.239,12.783 -27.707,19.739 -6.21,5.784 -13.237,14.783 -18.109,21.731 -4.698,6.698 -9.635,16.48 -13.763,23.542 0,0 0,0 0,0 7.117,1.195 16.53,3.401 23.723,3.984 8.123,0.659 19.045,0.52 27.164,-0.181 8.507,-0.734 19.888,-2.264 28.069,-4.708 7.902,-2.361 17.903,-7.154 25.172,-11.047 7.453,-3.991 17.079,-9.985 23.724,-15.212 6.916,-5.44 15.435,-13.624 21.188,-20.282 4.633,-5.362 10.021,-13.179 13.763,-19.196 1.797,-2.891 5.432,-9.959 5.433,-9.96 0,0 0,0 0,0 z"
       id="path10" />
    <path
       fill="#aa0000"
       fill-rule="evenodd"
       stroke="none"
       d="m 839.338,223.822 c 7.878,9.173 15.784,23.385 22.549,33.407 0.001,0.003 9.565,19.569 12.528,28.396 5.057,15.068 10.305,35.845 11.664,51.681 1.376,16.022 -0.574,37.599 -2.731,53.535 -2.23,16.47 -6.981,38.244 -12.018,54.082 -5.01,15.75 -13.214,36.394 -21.305,50.805 -7.014,12.492 -18.951,27.566 -27.861,38.786 -8.406,10.586 -19.808,24.668 -29.673,33.91 -8.149,7.636 -19.68,17.367 -29.466,22.747 -9.115,5.01 -22.333,10.04 -32.569,11.89 -19.537,3.53 -46.335,-0.176 -66.17,-1.034 -13.512,-0.585 -31.451,-3.151 -44.976,-3.102 -12.442,0.045 -28.922,2.675 -41.356,3.102 -5.115,0.175 -11.958,0.406 -17.06,0 -5.795,-0.461 -13.533,-1.524 -19.128,-3.102 -6.625,-1.869 -15.328,-5.188 -21.195,-8.788 -17.961,-11.023 -37.957,-31.581 -51.696,-47.56 -11.133,-12.949 -23.717,-32.138 -32.051,-47.043 -8.708,-15.572 -18.649,-37.358 -24.297,-54.281 -5.289,-15.845 -10.306,-37.709 -12.407,-54.281 -2.287,-18.031 -3.183,-42.461 -1.568,-60.565 1.211,-13.588 4.873,-31.561 8.918,-44.589 4.94,-15.912 13.178,-36.877 22.082,-50.959 0.871,-1.379 2.358,-2.989 3.397,-4.247 6.214,-7.521 14.016,-18.066 21.233,-24.63 7.845,-7.135 19.404,-15.62 28.877,-20.384 6.286,-3.161 15.398,-5.767 22.198,-7.577 5.198,-1.383 12.223,-3.142 17.592,-3.472 6.326,-0.388 14.789,0.727 21.064,1.62 9.493,1.352 21.869,4.726 31.249,6.713 7.635,1.618 17.784,3.928 25.462,5.324 3.044,0.554 7.101,1.37 10.185,1.621 4.015,0.325 9.398,0 13.426,0 7.405,-1.129 17.348,-2.247 24.684,-3.763 10.028,-2.074 22.977,-6.617 32.989,-8.77 10.551,-2.268 24.708,-5.527 35.495,-5.846 10.828,-0.32 25.323,1.477 35.912,3.758 9.411,2.028 21.738,5.999 30.484,10.022 8.783,4.041 19.829,10.899 27.56,16.704 9.145,6.867 20.528,17.215 27.979,25.89 M 624.235,185.827 c 0,0 0,0 0,0 z"
       id="path12" />
    <path
       fill="none"
       stroke="#aa0000"
       stroke-width="1"
       stroke-linecap="round"
       stroke-linejoin="round"
       d="m 861.887,257.229 c 0,0 0,0 0,0 -6.765,-10.022 -14.671,-24.234 -22.549,-33.407 -7.451,-8.675 -18.834,-19.023 -27.979,-25.89 -7.731,-5.805 -18.777,-12.663 -27.56,-16.704 -8.746,-4.023 -21.073,-7.994 -30.484,-10.022 -10.589,-2.281 -25.084,-4.078 -35.912,-3.758 -10.787,0.319 -24.944,3.578 -35.495,5.846 -10.012,2.153 -22.961,6.696 -32.989,8.77 -7.336,1.516 -17.279,2.634 -24.684,3.763 0,0 0,0 0,0 -4.028,0 -9.411,0.325 -13.426,0 -3.084,-0.251 -7.141,-1.067 -10.185,-1.621 -7.678,-1.396 -17.827,-3.706 -25.462,-5.324 -9.38,-1.987 -21.756,-5.361 -31.249,-6.713 -6.275,-0.893 -14.738,-2.008 -21.064,-1.62 -5.369,0.33 -12.394,2.089 -17.592,3.472 -6.8,1.81 -15.912,4.416 -22.198,7.577 -9.473,4.764 -21.032,13.249 -28.877,20.384 -7.217,6.564 -15.019,17.109 -21.233,24.63 -1.039,1.258 -2.526,2.868 -3.397,4.247 -8.904,14.082 -17.142,35.047 -22.082,50.959 -4.045,13.028 -7.707,31.001 -8.918,44.589 -1.615,18.104 -0.719,42.534 1.568,60.565 2.101,16.572 7.118,38.436 12.407,54.281 5.648,16.923 15.589,38.709 24.297,54.281 8.334,14.905 20.918,34.094 32.051,47.043 13.739,15.979 33.735,36.537 51.696,47.56 5.867,3.6 14.57,6.919 21.195,8.788 5.595,1.578 13.333,2.641 19.128,3.102 5.102,0.406 11.945,0.175 17.06,0 12.434,-0.427 28.914,-3.057 41.356,-3.102 13.525,-0.049 31.464,2.517 44.976,3.102 19.835,0.858 46.633,4.564 66.17,1.034 10.236,-1.85 23.454,-6.88 32.569,-11.89 9.786,-5.38 21.317,-15.111 29.466,-22.747 9.865,-9.242 21.267,-23.324 29.673,-33.91 8.91,-11.22 20.847,-26.294 27.861,-38.786 8.091,-14.411 16.295,-35.055 21.305,-50.805 5.037,-15.838 9.788,-37.612 12.018,-54.082 2.157,-15.936 4.107,-37.513 2.731,-53.535 -1.359,-15.836 -6.607,-36.613 -11.664,-51.681 -2.963,-8.827 -12.527,-28.393 -12.528,-28.396"
       id="path14" />
    <path
       fill="#d40001"
       fill-rule="evenodd"
       stroke="#d40001"
       stroke-width="1"
       stroke-linecap="round"
       stroke-linejoin="round"
       d="m 659.534,206.497 c 0,0 0,0 0,0 -5.733,-0.045 -13.375,-0.106 -19.108,-0.151 0,0 0,0 0,0 -3.449,-0.28 -8.088,-0.343 -11.498,-0.933 -4.859,-0.839 -11.067,-3.15 -15.85,-4.35 -9.082,-2.279 -21.142,-5.868 -30.455,-6.838 -5.008,-0.521 -11.784,-0.606 -16.782,0 -5.724,0.695 -13.242,2.651 -18.646,4.662 -7.269,2.705 -16.744,7.222 -22.998,11.809 -6.644,4.875 -14.19,13.088 -19.267,19.579 -5.054,6.461 -10.565,16.003 -14.296,23.308 -4.677,9.159 -9.779,21.949 -13.052,31.699 -2.756,8.208 -5.983,19.355 -7.405,27.896 -2.423,14.546 -3.466,34.327 -2.956,49.063 0.643,18.599 3.734,43.43 8.276,61.477 4.204,16.706 12.365,38.397 20.098,53.791 8.058,16.044 21.69,35.919 32.511,50.246 8.788,11.634 19.933,28.349 31.921,36.649 6.606,4.574 17.222,7.455 24.826,10.049 13.396,4.569 31.595,9.864 45.517,12.414 16.993,3.111 40.068,5.743 57.338,5.32 16.472,-0.404 38.596,-2.969 54.383,-7.685 12.544,-3.747 29.083,-10.536 39.605,-18.325 14.549,-10.768 29.231,-30.683 39.605,-45.516 9.644,-13.79 20.324,-33.7 27.192,-49.062 5.905,-13.211 12.381,-31.496 15.96,-45.517 4.781,-18.727 9.433,-44.313 10.101,-63.629 0.433,-12.502 -0.774,-29.31 -3.253,-41.571 -2.834,-14.017 -8.86,-32.359 -15.183,-45.186 -4.946,-10.036 -13.401,-22.526 -20.604,-31.088 -7.878,-9.363 -19.802,-20.762 -29.701,-27.956 -7.722,-5.612 -19.06,-11.646 -27.805,-15.474 -6.934,-3.035 -16.503,-6.553 -23.937,-7.979 -7.492,-1.437 -17.762,-1.699 -25.387,-1.45 -6.133,0.2 -14.272,1.322 -20.31,2.417 -7.131,1.294 -16.421,4.045 -23.453,5.803 -6.605,1.652 -15.432,3.777 -22.002,5.561 -1.02,0.277 -3.385,0.967 -3.385,0.967 0,0 0,0 0,0 z"
       id="path16" />
    <path
       fill="#fefefe"
       fill-rule="evenodd"
       stroke="none"
       d="m 855.011,397.548 c -0.677,7.279 -3.446,24.122 -3.446,24.124 3.102,-5.996 8.013,-13.65 10.339,-19.989 3.5,-9.538 6.099,-22.988 7.237,-33.085 1.032,-9.144 1.394,-21.53 0.345,-30.672 -1.397,-12.183 -5.405,-28.263 -9.994,-39.634 -4.593,-11.38 -12.964,-25.684 -20.334,-35.497 -6.631,-8.829 -16.966,-19.534 -25.503,-26.537 -5.254,-4.311 -13.269,-8.685 -18.955,-12.407 3.924,4.448 9.356,10.211 13.081,14.828 2.181,2.704 4.943,6.431 6.908,9.297 5.435,7.927 12.407,18.723 16.887,27.226 4.424,8.396 9.582,20.004 12.752,28.949 3.149,8.89 6.419,21.081 8.271,30.328 1.721,8.589 3.386,20.2 3.791,28.95 0.474,10.233 -0.429,23.919 -1.379,34.119 M 794.7,223.851 c 0,0 0,0 0,0 z"
       id="path18" />
    <path
       fill="none"
       stroke="#fefefe"
       stroke-width="1"
       stroke-linecap="round"
       stroke-linejoin="round"
       d="m 855.011,397.548 c -0.677,7.279 -3.446,24.122 -3.446,24.124 3.102,-5.996 8.013,-13.65 10.339,-19.989 3.5,-9.538 6.099,-22.988 7.237,-33.085 1.032,-9.144 1.394,-21.53 0.345,-30.672 -1.397,-12.183 -5.405,-28.263 -9.994,-39.634 -4.593,-11.38 -12.964,-25.684 -20.334,-35.497 -6.631,-8.829 -16.966,-19.534 -25.503,-26.537 -5.254,-4.311 -13.269,-8.685 -18.955,-12.407 3.924,4.448 9.356,10.211 13.081,14.828 2.181,2.704 4.943,6.431 6.908,9.297 5.435,7.927 12.407,18.723 16.887,27.226 4.424,8.396 9.582,20.004 12.752,28.949 3.149,8.89 6.419,21.081 8.271,30.328 1.721,8.589 3.386,20.2 3.791,28.95 0.474,10.233 -0.429,23.919 -1.379,34.119 M 794.7,223.851 c 0,0 0,0 0,0 m 56.865,197.821 c 0,0 0,0 0,0"
       id="path20" />
  </g>
</svg>
