<?xml version="1.0" encoding="UTF-8"?>
<svg width="744.09" height="1052.4" fill-rule="evenodd" image-rendering="optimizeQuality" shape-rendering="geometricPrecision" text-rendering="geometricPrecision" viewBox="0 0 21000 29700" xmlns="http://www.w3.org/2000/svg">
 <path d="m8413 25201-196-17-210-9-222-21-210-30-200-64-163-94-120-137-51-188h-17l-17 4-21 4-22 13-38 13-43 26-60 25-77 34-402 120-414 120-432 94-428 56-419-13-389-90-355-197-303-316-64-376 72-347 176-316 265-269 316-214 355-145 372-65 368 35 21-184 13-171-5-167-12-158-26-163-30-154-43-158-38-158-235-231-141-218-65-226v-223l39-235 73-248 85-261 94-282 30-222 30-218 17-218 17-214 4-218 9-209 4-214 9-210-389-89-261-180-162-252-82-300-30-333 9-338 13-333 8-300 47-153 56-159 51-171 43-166 21-171-4-167-38-163-69-145-47-192-17-193v-192l21-192 22-193 30-192 21-193 9-188-99-119-25-90 21-77 56-60 68-64 81-64 60-77 39-90-73-368-9-333 47-304 107-269 158-248 219-222 273-197 334-171 269-43 205-21 133-22 68-34 4-72-47-124-102-193-154-278-34-119-26-112-21-106-13-103-13-103-4-102-5-107 9-103-248-47-209-72-180-107-137-129-94-162-34-184 21-209 90-227 111-137 99-94 89-72 90-52 94-38 107-30 133-34 162-35 4-162v-128l-4-111 9-95 12-98 39-102 55-116 99-137-34-4-26-4-26-5-21-4-39-17-29-8-5-43v-39l-4-34-4-30-39 13-34 13-34 17-30 17-39 13-34 13-38 17-34 17-52-34-47-56-51-73-47-77-47-85-34-68-30-65-13-38 8-180 35-141 55-115 81-86 103-68 128-39 150-25 175-13 342-457 338-402 338-351 367-286 398-227 457-154 518-85h611l641 184 569 307 475 406 376 496 256 560 137 620v655l-145 684-56 111-68 128-77 137-73 149-77 141-60 142-47 136-21 124 64 124 34 137v141l-21 146-56 132-81 124-103 98-119 77-34 26-26 39-13 21-4 21-13 26-4 26-146 192-145 197-145 183-150 184-162 171-167 167-180 154-188 154v43l94 4 94 21 90 34 94 43 90 47 94 60 90 60 102 64 22 26 17 25 8 13 13 17 17 9 17 4 129-188 111-218 98-239 94-248 86-253 98-239 107-222 132-184 9-51 9-39 12-38 13-26 13-34 17-26 21-30 26-26 171-401 180-398 171-398 179-397 180-398 184-389 184-389 196-380 47-167 64-158 73-154 81-146 69-154 64-145 47-149 34-146 4 13 22 17 175-252 150-274 128-299 120-308 111-316 124-300 136-277 167-248 146-94 115-43 81-4 64 38 47 56 47 81 52 98 64 111-141 282-133 291-137 287-132 295-141 290-133 291-137 291-132 295 8 34 9 21 111 218-34 385-141 496-205 556-240 551-226 496-180 377-90 209-205 419-201 423-201 424-192 436-197 427-184 436-183 436-171 445 4 17 8 21 17-34 35-17 21 13 21 13-4 102 22 107 34 103 51 115 51 116 56 119 47 124 38 137 13 359 39 359 47 364 55 368 43 359 26 363-9 363-43 364-132 235-175 205-218 171-244 150-265 124-274 111-269 98-252 94-47-4h-43l-47-4h-47l-47-4-39 4-38 4-26 17v30l4 34v13l5 17v22l4 30-43 34-38 34v77l4 30v25l4 30v30l5 35 25 4 30 8-64 82-47 175-34 239-22 282-21 283-9 273-4 227v162l77 355 103 321 102 291 86 282 43 282-13 303-90 330-175 376-64 120-47 213-30 270-17 307-13 308v530l13 176 47 175 68 231 68 256 60 270 17 252-25 231-99 184-179 124-158 132-167 94-184 64-188 43-201 17-201 13-201 4z"/>
 <path d="m8268 25094-179-9-189-4-183-17-171-26-150-55-116-81-68-129-13-175h34l47 17 56 17 64 26 60 26 60 25 47 17 47 22 197 12 205 13 205 13 205 17 205 9 210 13 205 8 210 4 51-12 64-13 64-13 64-9 64-12h133l68 8-124 116-166 81-210 55-218 35-231 17-213 4h-193z" fill="#ffc"/>
 <path d="m4797 25051-274-51-231-56-188-81-150-103-115-141-69-175-38-222 9-265 21 13 47 47 60 68 77 81 77 81 77 82 64 64 55 47 189 85 205 77 205 64 218 56 218 38 218 30 222 22 223 13 94-22 72-8 52-13 42-4 26-5h17l13 5 17 8-94 51-162 56-210 43-231 38-243 30-218 26-180 13z" fill="#ffc"/>
 <path d="m14121 24919-111-43-77-34-60-30-43-22-47-17-47-8-64 4-85 17-261-30-214-72-158-107-90-133-13-145 81-141 180-133 299-107 56-137-9-218-55-273-86-299-107-304-102-269-94-210-56-120-137-47-94-85-60-120-34-137-21-154-5-145v-132l5-103-94-209-94-159-99-111-107-73-119-42-133-9-158 9-171 21-73-34-72-34-73-30-68-22-73-21-69-4-64 8-60 30-188-17-141-55-102-95-60-119-39-146-4-153 9-163 34-150 111-68 94-43 77-21h73l68 4 86 22 98 25 128 30 9-17 8-26 5-38 8-39 4-47 5-47v-81l-291-38-158-94-56-141 26-167 73-197 98-192 90-193 59-166 90-193 81-154 82-119 81-69 90-25 111 38 128 94 163 175 55 17 51 5 48-9 47-4 47-9 59 9 73 26 90 55 34-21 73-56 94-81 120-86 115-98 115-81 94-73 73-38 372-60 218 85 103 188 30 257-9 274v265l34 213 124 129 9 149-43 112-90 64-119 38-146 4-141-12-137-30-111-30v213l90 60 107 82 111 94 98 111 64 115 30 128-30 137-94 141-17 39-17 43-13 17-4 25-4 26v26l158 77 158 89 158 90 167 81 167 60 184 34 192-4 205-43 124-8 94-4 69-18 51-21 34-43 30-59 30-90 39-116 12-141 13-141 4-137-4-128-21-132-30-124-56-124-81-116-43-8-42-5-39-8-30-9-34-17-21-17-17-30v-26l85 39 124 38 141 39 158 51 146 64 124 94 81 120 34 158-43 26-38 34-39 30-38 43v64l85 51 52 60 17 64v69l-17 68-22 77-17 85-4 103 30 56-4 68-35 68-47 82-51 77-34 89-9 94 30 107h39l38 13-43 150-55 188-73 205-81 214-98 205-103 192-107 163-107 124v56l73 115-9 171-72 214-107 243-133 244-128 240-111 218-60 183 47 60 38 73 22 73 13 77-9 72-21 77-43 73-60 73-77 8-72 13-73 8-64 13-69 5-64 8-64 4z"/>
 <path d="m14322 24825-81-17-64-9-65-4-51-5-60-12-51-13-56-26-55-34-13-26v-13l68-226 35-252-9-278-26-287-47-290-42-278-43-257-17-218h68l4-158 5-192v-227l-13-235-26-235-38-206-56-175-77-120-21-76v-60l13-56 25-43 30-47 43-38 47-34 51-35-21-42-26-35-42-29-39-26-47-26-47-21-43-22-30-12-8-22-5-17 30-38 30-22 22-13h25l22 5 30 17 38 21 56 30 128 103 158 98 171 81 184 69 188 38 192 22 189-13 179-39 51-4 60-4 56-5h124l60 5 64 8 68 26v21l5 22v13l4 17-4 8-5 13-21-9-4-4v26l98 132 21 197-47 231-85 261-120 252-128 244-120 201-90 153h-38l-4 26-5 26-4 25v30l39 9 34 8 25 9 17 9 18 8 12 13-72 184-82 184-94 179-94 184-102 180-94 179-94 184-77 192h-64l21-171 43-171 55-166 69-167 64-167 72-162 60-167 56-163-124-230-43-231 9-223 47-209 55-201 52-180 21-166-30-137-47 85-43 90-42 86-35 89-38 90-34 94-30 103-26 111 13 197 26 188 30 179 25 184-4 176-26 183-72 180-124 197v-847l-9-274-13-235-21-179-26-94-47 260-81 330-94 359-73 376-34 351 43 316 145 248 274 162 17 39 21 38 13 9 21 13 26 4 39 4 4 34 8 56v128l-12 60-22 60-38 38-47 26 8-73 9-59 4-56v-38l-17-43-21-30-35-34-42-26-13 39-5 38-8 43v239l-30 13-21 9-22 4z" fill="#963"/>
 <path d="m14134 24786-30-34-39-21v-43l5-39 4-38 4-34v-39l4-38 5-39 8-34 26 17 30 22 30 21 34 30-4 25v47l-5 52-4 55-13 47-12 35-22 17z"/>
 <path d="m8696 24718-355-30-317-13-282-17-239-43-197-94-141-154-90-252-21-359 286-282 295-188 295-112 304-30 295 43 308 120 308 184 312 252 17 38 25 43 17 9 22 4-39-111-47-90-64-73-68-64-73-68-64-64-56-81-30-90v-415l-72-38-116-22-145-8-154 4-162 8-150 22-124 21-81 39-34 30-26 38-21 21-18 35-29 42-30 65-30 4-26 8h-26l-25 13 8-192 22-171 17-158 13-150-5-150-13-154-38-171-60-179 257 21 269 5 278-13 282-35 278-55 269-68 253-95 239-106-4 12v43l-13 56-9 81-21 98-21 129-26 149-26 180-8 166v171l-5 167 9 171 9 167 21 171 26 171 42 180 47 128 39 137 25 136 18 142v141l-9 145-21 141-30 150-163 13-158 17-154 12-154 18-154 8-154 13-153 8z" fill="#666"/>
 <path d="m13437 24692-73-26-34-38-13-51 9-60 13-69 21-64 17-60 9-47-65-38-47-4-38 21-21 47-18 51-12 64-9 60-4 56h-34l-35-4-38-13h-39v-291l56-43 64-25 64-26 73-13 64-17 73-13 77-13 77-12 34 12 21-34 13-68 9-86-5-98-4-85-4-60v-22l-51-222-56-222-68-218-77-210-90-214-99-196-102-193-111-179v-77l13-17h42l30 77 30 77 34 64 43 64 47 47 69 34 81 21 107 13 102 193 90 248 64 282 51 303 22 304-4 295-30 269-56 231-8 21-5 26v154l-21 4-17 22-9-56-8-51-9-51-4-39-13-43-13-34-21-34-17-26-26 30-21 39-17 47-5 51-4 51 9 52 17 51 34 55-17 5v21h-81z" fill="#963"/>
 <path d="m5438 24654-210-43-269-64-295-86-286-107-253-141-179-162-81-197 59-231 150-141 197-167 222-166 239-141 244-103 248-30 231 56 209 171 120 51 124 85 116 103 119 116 111 111 107 98 99 73 98 47-43-133-68-111-99-98-106-82-112-76-94-65-72-64-34-55 72 4 90 4 94 5 94-5 86-21 72-34 47-60 22-81-39-52-17-47-4-55 4-52-8-55-22-52-38-47-64-38-60-13-47-8-47-9h-56l-81-4-98-5-137-4h-171v-145l85 8 111 18 129 8 141 9 128-5 124-17 94-34 73-56-30-252-90-119-141-30-163 17-183 21-176-13-154-90-106-200 252 72 214 47 179 17 167 5 167-26 188-34 222-52 278-55 94-9 73 5 55 12 51 22 43 21 56 30 68 30 94 34v34l5 18 12 29 39 73 26 145 8 189v218l-13 218-25 205-30 162-35 112-111 47-98 51-90 51-73 56-76 60-69 72-68 81-69 103-8-13h-17l-26 94-21 94-17 82v158l12 90 26 94 39 111-86 60-162 60-219 47-243 51-261 34-239 30-201 17z" fill="#666"/>
 <path d="m8884 23209-99-39-94-26-89-29-86-18-90-25-90-13-89-13-86-8 34-120 65-69 81-42 98-13h103l119 13 120 17 128 13v372l-12 8z" fill="#999"/>
 <path d="m6079 23020-73-12-68-5-64-12-60-5-64-17-56-13-59-21-52-21v-52l4-47 5-47 8-43 9-42 8-43 9-43 9-43 59 5 56 8 47 5 56 4h252l145 4 4 9v12l5 30v184l4 116h9l8 17 9 21 4 39h-167l-25 4z" fill="#999"/>
 <path d="m8148 22554-55-72-30-64-9-69 5-60 4-64 4-51-4-51-22-35 13-34 13-21 77-4 133-9 166-9 193-4 179-4 167 4 128 13 69 26-5 42v206l-12 68-9 68-21 60-22 52h-68l-60-22-103-8-141-5-149 13-158 9-133 13-103 4z"/>
 <path d="m8200 22486-9-68-4-52v-252h402l102-4 111-4 103-9 111-9-4 39v38l-4 43-5 47-8 43-4 47-9 43-4 47h-163l-60 4-85 4-115 13-154 9z" fill="#999"/>
 <path d="m13668 22379-47-51-34-39-39-30-30-21-34-17-34-4-43-5-47 9-64-81-43-77-43-77-34-64-43-60-47-43-60-30-68-8-34 30-22 21-21 13-8 13-9 12v82l-13 8-13 22-42-90-26-103-17-111v-115l-4-120v-111l-5-107-13-86-34-68-34-68-43-73-38-64-43-69-34-55-30-52-13-34 64 5 73 8h77l77 4 77-8 77-9 77-13 81-12 73-39 68-38 60-35 64-21 60-13 64 5 64 21 81 51-17 86-30 64-38 47-30 47-17 43 8 68 47 90 103 132v112l17 115 13 107 17 107 9 102 8 111-4 116-17 124v128l4 43v38l4 47v43l5 47z" fill="#c93"/>
 <path d="m5758 22272-34-13h-102l-9-47-4-42-9-47-4-39-13-43-4-38-9-39v-38l82 13 85 13 90 8 94 9 90 4 94 4h98l103 5-5 25v34l-4 30v35l-4 34v119l-73 5-68 8h-64l-64 5-69-5h-132z" fill="#999"/>
 <path d="m8161 21699-359-85-214-81-111-86-17-94 30-124 60-158 64-201 38-252-17-141-17-129-30-115-34-103-47-106-51-95-64-98-73-94-51-120-47-115-47-120-39-115-43-120-34-111-25-111-22-99 60-17 51-8 39-9 25-4 30-13 22-13-77-4-111-9-137-12-141-9-146-13-119-8-90-5-34 5 166 102 124 52 86 17 68 17 47 34 47 94 47 171 73 287 90 218 98 196 86 180 72 184 35 179 4 201-51 222-107 266v34l4 47 8 43 9 51 4 43 5 47-5 42v39l-320 51-317 51-316 39-304 13-290-43-261-103-235-192-188-282-5-180 22-175 34-175 47-176 51-175 60-167 56-166 55-150 34-308 35-295 21-291 13-282-13-282-34-282-60-282-90-278 158-17 159-39 158-51 158-51 154-47 158-30 154-5 158 39 265 132 240 99 226 60 227 30h226l257-22 282-38 334-47 119-47 124-43 116-39 119-34 116-30 124-12 128-5 141 26 34 21 35 26 38 13 47 17 39 8 51 5h47l60 4-39 368-21 320-17 282 8 270 30 261 60 282 94 312 137 363 51 445-38 380-128 312-201 257-278 197-329 145-381 94-419 51-43 5-42 12-43 13-39 22-38 12-39 13-38 9z" fill="#996"/>
 <path d="m15763 20793-39-30-30-26-30-21-25-13-30-17-26-13-26-8-21-9 39-209 29-180 13-162 9-150-13-150-21-153-47-167-60-188 51 13 56 25 55 30 56 39 47 38 47 56 43 51 42 68-51 52-43 55-34 47-17 52-4 42 25 52 52 47 85 51 9 51-5 60-21 64-21 64-26 64-13 65 4 68 35 73-30 85-22 69-17 47-4 34-13 17-4 13h-4z" fill="#c93"/>
 <path d="m12569 20579-64-13-69-12-72-13-73-9-77-17-64-13-60-17-43-13v-42l167-39 180-13 179-8 176-22 149-55 133-98 90-167 51-240-13-25-13-22-13-17-8-13-17-30-5-25h26l43 8 38 13 47 13 35 9 38 12 26 9 17 4v-55l-69-60-64-30-64-13-64 4-68 13-65 30-64 30-64 38h39l42 5 18 4 25 4 26 5 25 8-38 227-103 162-154 103-183 68-210 43-214 43-205 51-175 81-94-8-77-13-69-26-64-21-68-26-64-21-73-9-81 5-158 29-120-21-90-73-55-94-43-128-21-137-18-137-4-124 51 18 56 30 47 42 51 47 52 43 64 43 72 30 90 17 163-128 154-86 149-47 150-21 150-5 162 9 184 13 209 8 94-60 86-59 68-65 73-59 73-65 85-51 107-43 137-25v21l4 22 4 12 5 17 8 22 17 25 133 13 111 26 85 38 65 56 38 73 17 102-4 133-17 175-124 141-107 120-111 98-107 81-124 60-141 43-163 21z" fill="#c93"/>
 <path d="m11154 19694-60-17-51-4h-107l-51-4-43-5-39-8-21-13v-56l51-12 64-13 73-13 77-4 73-5 68 13 56 30 42 60-38 26-30 17-30 4z" fill="#999"/>
 <path d="m11543 19630-30-111v-150l21-171 43-183 47-184 56-163 55-132 60-82h69l21 39 26 60 12 60 18 77v72l4 77-9 69-8 68 25 26 30 25 13 9 21 13 26 8 34 9 26-81 30-116 26-141 38-141 47-141 73-111 94-73 132-8 35 128 21 175 4 197-4 214-30 205-38 179-60 141-73 94h-115l-116 5-111 4-103 13-107 4-102 9-103 4z" fill="#fff"/>
 <path d="m11851 19523-30-25-26-17-25-22-26-17-4-90v-119l12-39 18-30 38-21 51-13 82-9 21 18 8 34 30-9 26-4 21-4 22-5 34-4h38v39l5 42 4 47 4 52-8 47-5 51-12 47-13 51-34-4-26-9-21-8-13-9-17-12-17-9-26-4h-21l-22 25-17 30h-26z"/>
 <path d="m12826 19267-35-13h-30l-30-9-25-4 13-141 17-132 13-133 8-128-8-129-18-115-42-115-64-107-116-43-90-4-77 21-64 47-60 60-55 77-60 81-56 81-42-51-39-34-34-30-26-21-34-18-34-12-43-9h-38l21-51 26-47 30-43 34-34 34-34 39-26 42-21 52-9v-43h-103l-94 26-94 43-77 64-68 72-43 90-22 90 9 98 4-17 22-13-22 137-21 141-39 129-42 111-69 77-81 34-107-17-128-77-4-158 21-129 43-111 55-94 52-98 51-98 34-116 17-128 26-77 34-86 30-89 43-86 47-85 55-69 69-51 81-22 56 73 55 69 51 59 56 52 56 38 72 34 90 18 111 8 60-26 51 5 35 13 38 29 30 30 43 35 42 21 65 13 89-120 120-128 137-128 150-116 153-94 163-51h162l159 77 17 137 4 136-9 137-4 141-8 137 12 141 30 141 64 150 103 128 9 107-73 77-124 43h-167l-179-39-180-90-150-132-25-77-26-98-34-107-39-107-51-98-60-73-68-47-81 4 64 81 51 90 34 94 39 103 34 102 47 107 64 103 94 111v218l4 34 9 39-43 13-38 17-47 17-47 17-47 8-43 13-39 5z" fill="#963"/>
 <path d="m5263 17758-270-141-196-133-133-145-77-154-38-184v-205l21-248 38-287 13 5 26 8 21 77 17 81 13 77 13 81 9 82 17 89 21 86 39 98 77 77 76 86 73 90 69 98 59 98 52 111 47 120 38 133-13 8z" fill="#fc9"/>
 <path d="m7345 17343-193-56-162-68-150-73-137-64-145-60-150-30-162-4-184 34-184 73-167 60-158 38-141 17-141-25-124-64-120-116-111-167-17-89-17-86-17-85-17-77-22-82-17-72-21-73-21-64 81-180 81-192 68-201 52-201 17-201-17-188-73-167-128-141 175-21 193-9 188-12 192-26 180-51 166-86 146-132 124-184-13-150-13-145-13-146-8-141-13-141-4-141v-141l8-133-13-29v-124l9-82v-85l8-77 5-69 4-38-103-90-115-55-128-39-129-21-136-22-129-17-124-34-111-43 22-149 68-193 98-231 129-230 132-231 141-188 133-146 119-64 26 21 26 26 25 22 30 25 43-4 47-4 51-9 52-8 51-13 51-9 56-4h64l17 21 21 26 13 13 13 25 17 30 26 43h55l-21-115-43-77-68-47-77-17-98-5-94 13-94 13-82 21 22-72 51-90 68-103 82-107 81-107 85-85 73-68 60-35 26 30 29 30 18 26 25 25 22 22 29 30 39 38 51 52-17 89-17 154-17 188 4 206 22 175 59 132 103 60 158-42 116-9 115-17 116-26 115-13 115-8 124 8 120 35 128 72 35 34 38 39 39 34 47 39 42 25 56 30 60 22 72 17 300-253 222-239 171-209 158-150 163-77 209 21 278 133 393 278 30 4 17 9 9 8 13 22-99 166-85 184-77 188-73 193-77 188-77 192-85 180-94 175-175 205-193 222-192 227-176 239-149 244-103 261-47 274 30 295-85 17-73 34-64 47-56 60-51 60-43 72-38 73-30 77-39 398 43 333 111 269 184 210 239 149 300 103 346 51 393 9 13 137 9 128-5 111-25 94-56 60-81 34-124-8-158-47-103-5h-90l-85 5-81 12-82 13-81 13-81 17-77 26-184 64-184 51-192 30-188 17-197 5-192 4h-193z" fill="#996"/>
 <path d="m9405 16488-162-64-133-60-115-64-98-64-95-77-89-86-94-102-99-112 5-119 8-159 9-183 21-188 30-184 60-150 81-103 124-34 17 5 9 21-22 132-12 124-5 116v218l9 115 13 124 17 146 55-133 22-158 4-167 4-167 17-162 60-133 111-98 193-51 55 73 35 102 12 120v132l-17 133-13 137-12 128-5 124h26l38 13 65-107 29-120 9-132 9-129 12-128 47-107 90-90 154-55 51 85 18 116-9 128-9 141-4 133 22 119 59 94 129 65v-120l38-4 39-5 21-4h73l12 21 18 26 8 21 9 22 4 17 4 26 5 25 8 43 17 13 34 13-30 205-68 167-111 124-137 98-158 64-171 47-180 26z" fill="#fc9"/>
 <path d="m10393 16355 17-72 51-86 69-98 68-99 47-102 22-98-30-86-86-68v-35l9-25 12-26 18-17 38-34 47-34 77-163 77-167 68-179 65-180 55-188 51-179 43-180 43-167 68 9 60 26 39 34 42 51 35 51 47 60 51 60 73 56 12-35-4-38-21-56-22-51-34-60-21-47-17-47v-26h51v-42l-43-52-42-21-43-4-39 8-47 9-43 17-38 9-38 8 25-107 30-102 26-103 25-103 18-102 21-103 13-98 17-98 38-193 26-188 21-188 26-188 30-188 47-188 68-189 103-188 98 163 73 154 47 154 30 154 8 153v548l43 226 47 227 39 231 42 231 30 230 26 240 13 235v248l-69 291-89 235-120 175-145 145-180 107-201 99-235 89-257 103-64 39-60 38-68 39-68 38-73 30-64 30-64 21z" fill="#996"/>
 <path d="m4621 16103-55-145-5-150 26-158 47-163 47-171 51-171 30-171 5-166 107 81 47 162-5 214-42 240-69 230-73 197-68 128z" fill="#996"/>
 <path d="m10474 15539-47-47-43-34-38-26-39-13-38-13h-116l-12-149-9-137-17-133-26-111-51-94-77-68-115-43h-150l-43 26-42 25-43 13-30 4-124-107-120-25-115 8-103 30-90 4-68-29-47-107-13-201 77-270 124-256 150-248 179-235 184-235 188-223 175-226 163-218 55-5h99l47 9 43 13 42 25 43 35 47 55 47-43 43-17h30l34 22 26 21 34 39 34 38 43 47 13-26 17-17 13-21 17-17 13-30 25-34 26-47 38-60 137-312 137-312 132-317 137-312 129-320 128-317 124-316 119-308 351-804 278-624 218-487 175-381 137-312 124-274 120-269 132-295 60-90 86-158 98-209 111-231 98-244 99-226 72-193 56-132 4-43 5-30 4-26 4-13 9-21 17-13h107l47 124v163l-39 188-64 205-77 197-73 196-59 171-30 146-270 594-269 599-274 598-273 603-274 598-269 603-261 607-248 607-51 82-34 72-30 64-17 56-22 38-13 35-12 17-9 8-21-12-22-9-25-9-26-8 8 120-4 145-17 158-26 167-42 158-56 145-64 116-77 85v214l13 197-39 338-85 427-120 475-149 470-159 436-166 351-163 222z" fill="#963"/>
 <path d="m4993 14658-145-56-107-51-68-60-43-64-26-81-4-94v-107l8-128 9-116 9-115 8-116 13-115 13-115 13-116 12-115 18-111 17 12 21 13 34 167 39 103 38 47 47 12 51-25 65-34 72-43 94-26-12 116-13 158-13 188 4 201 13 192 38 175 73 137 111 86-4-34-4-26-13-30-9-26-12-30-9-25-13-26-4-17-22-145-4-141-4-141 8-142 5-141v-136l-5-129-17-119 99 8 81 26 68 17 64 17h60l69-17 81-39 107-64 30-4h68l26-13 34-13-17 129-13 132-4 128v265l8 137 5 137 8 141-102 111-112 90-132 68-137 56-150 34-145 26-145 13z" fill="#996"/>
 <path d="m7973 14564-346-68-252-82-167-102-99-133-47-179 5-223 30-278 51-337 13-56 13-55 12-52 18-51 12-51 17-52 18-51 17-47-22-13h-21l141-107 133-77 115-55 120-26 111-4 120 21 128 43 149 73 73-5 77-8 73-13 77-9 77-12 77-9 81-4 81 4 4 51 5 60v60l4 64-4 60-5 64-4 60v64l-107 291-30 282 5 261 4 231-39 192-115 150-231 94z"/>
 <path d="m8016 14470-47-13-47-8-47-9-43-4-47-9h-43l-47-8h-43l5-141 13-150 17-158 21-154 13-154 8-145-4-142-17-119 4-13 9-13 55 30 47 30 39 17 38 13h90l64-13 82-13-9 60-21 128-26 159-21 179-18 167 5 145 30 94 60 30 17-149 21-133 13-124 13-115v-116l4-115-9-120-8-128 55-22 56-17 51-13 52-12 51-13 56-9 59-8h77l-4 38v34l-4 35v42l-9 52-4 77-13 98-8 132v197l4 167-17 128-30 107-69 77-106 56-159 38z" fill="#996"/>
 <path d="m7533 14393-47-17-43-13-43-17-34-13-38-21-35-17-30-22-25-17-17-188-9-175v-171l17-167 17-167 30-162 34-167 52-162 17-13h34l26 25 30 30 25 30 30 30 26 30 34 30 30 30 38 34-12 17-13 22v85l-4 158-18 201-12 218-22 210-17 184-17 124z" fill="#996"/>
 <path d="m4955 13281-34-85-35-73-38-64-34-51-47-52-47-38-56-38-56-39v-43l13-38 13-34 21-26 13-30 26-26 26-30 34-25h90l30 13 21-43 21-47 17-51 26-52 21-51 35-34 42-22 60-8 64 60 99 47 115 34 137 26 132 17 137 21 124 26 111 38 9 39 8 38 9 43 9 47v90l-9 51-13 51h-51l-30 120-68 81-107 47-120 22-137 4-128-9-116-8-85-4-47 17-39 17-38 17-30 17-30 8-26 13-25 9z" fill="#996"/>
 <path d="m7866 13243-64-60-60-56-60-55-55-56-56-55-51-52-56-51-51-43v-25l51-52 60-47 60-47 68-34 69-34 77-26 77-17h85l129 77 106 51 82 26 77 9 72-9 90-17 107-21 141-22-4 47v60l-5 60v60l-17 55-17 60-25 47-39 52-102-13-103 13-103 21-98 38-103 35-98 38-94 26z" fill="#996"/>
 <path d="m10752 12508-51-154 17-180 68-205 111-218 129-227 132-218 124-209 98-180 13-4h13l22 8 34 22-26 111-56 180-89 226-107 252-120 248-115 235-107 193-90 132v-8z" fill="#b3b3b3"/>
 <path d="m10474 12401-8-111 68-214 120-291 158-329 162-342 159-312 128-257 81-162h30l34 13 17 12 22 18 21 21 21 30-51 38-34 39-26 30-13 38-17 34-4 52-9 60-4 85-90 180-89 188-90 192-86 192-94 193-90 192-89 193-82 192-29 4-22 9-17 4-13 4h-30z" fill="#b3b3b3"/>
 <path d="m10367 12294-38-17-34-5-35-8h-111l-25 4 42-141 60-171 69-197 81-192 85-192 94-163 94-128 103-73 17-85 43-107 55-124 73-124 73-116 85-89 82-47 81 12-47 90-99 227-141 312-158 363-162 355-141 317-103 213z" fill="#b3b3b3"/>
 <path d="m4903 12225-47-393 18-346 68-317 132-269 189-235 252-192 316-154 381-107h81l26 13v17l12 21-175 201-184 197-196 196-184 201-171 210-146 226-115 244-60 274-26 8-21 4-21 5-9 13v17l-4 25-13 26-17 30-21 26-22 25-25 17z" fill="#996"/>
 <path d="m8469 11507-60-26-47-25-47-30-34-26-39-34-29-26-35-34-30-25-89-43-90-30-86-26-85-8-86-5-85 5-90 8-85 17v-42l12-9 17-9 26-12 34-13 47-26 69-30 90-43 119-55 188-26 184-21 175-21 180-26 171-39 175-51 176-68 183-86h26l39 17-82 86-107 124-132 141-133 149-141 137-124 120-107 81z" fill="#996"/>
 <path d="m6998 11293-21-102-9-99-8-98v-98l4-99 13-98 17-94 30-90h26l38 9 17 4 17 17 13 22 13 30h64l4 17 9 25 81 26 69 30 55 21 56 26 51 17 60 21 64 26 86 30v21l12 22-72 30-94 59-112 69-119 77-120 68-107 60-85 34z" fill="#fc9"/>
 <path d="m10538 11092-124-64-115-72-116-82-106-77-120-77-116-55-128-39-137-4 26-77 51-51 64-43 77-25 82-22 89-8h159l55 55 77 64 81 56 90 64 81 64 69 69 47 68 21 81-34 56-21 42-22 26-8 26-17 21z" fill="#996"/>
 <path d="m11487 10810-38-21-26-17v-77l5-34 17-30 12-26 30-13 35-8 47 13-5 29v30l-4 30v30l-13 26-8 30-17 25-22 39-8-13z" fill="#808080"/>
 <path d="m8388 10691-107-5-128-4-146-13-145-13-145-25-124-34-112-43-68-52-252-162-231-197-210-222-179-248-150-265-111-278-73-286-21-278 26-22 81-30 111-38 133-43 132-47 124-38 98-39 69-21 102-22 146-8 167-13 171-17 153-38 133-56 81-90 22-120-94-128-99-98-102-77-103-43-115-17-116 17-124 51-128 95 13 21 13 21 102-38 120-39 124-30 128-8 107 17 94 56 60 102 26 167-65 47-85 34-111 17-111 13h-227l-94-4h-68l-257 77-282 81-299 60-283 25-260-38-210-107-141-205-47-321 180-269 201-180 213-115 235-56 248-21 274 13 291 25 312 26v-30l4-17-4-17v-9l-9-12-8-13-17-13-22-9-4-98 13-90 17-90 34-76 30-82 34-77 26-77 26-77 21-17 26-8 21-13 26-13-9-73-21-72-35-77-29-73-39-77-30-73-26-72-12-60 38-9 30-4h145l18 56 34 42 42 18 56 8 60-8 68-9 73-17 77-9 13 39 25 30 35 17 42 13h47l52 4h55l64 4-77 69-85 55-94 43-86 47-85 43-64 64-43 81-13 120-149 218-112 214-59 196v176l55 145 137 115 214 69 312 30 38-22 43-17 43-17 51-13 47-13h103l64 13 73-55 81-22h81l90 17 85 22 90 25 86 13h81l-43-42-43-35-51-25-47-17-51-18-52-4-47-4h-38l85-218 64-192 30-171v-159l-38-158-68-145-107-150-141-145v-39l196 17 248 133 274 218 286 274 287 295 278 286 248 244 213 175-13 13-8 8-17 5-26 12 124 18h133l128-13 128-5 116 5 111 34 94 77 85 128-17 214-42 184-73 141-94 111-124 64-150 26-175-22-193-64h-25l-13 13 47 39 47 38 51 30 56 34 56 22 68 21 68 4h86l-188 334-257 342-320 325-355 307-389 257-398 209-393 137z" fill="#fc9"/>
 <path d="m11581 10464-77-73-59-51-56-43-47-25-56-26-55-13-69-13-77-8 13-111 52-146 68-175 90-184 90-192 98-176 85-162 82-124 192-445 197-440 196-445 201-436 197-440 205-436 201-436 214-423 77-5h107l47 13 38 17 47 34 56 47 81 69-21 167-52 183-81 197-94 205-107 201-98 201-86 193-64 188-205 393-188 410-184 411-179 419-180 414-180 415-183 411-180 414-34 13z" fill="#b3b3b3"/>
 <path d="m7507 9784-73-34-51-38-38-52-22-51-13-64 5-60 8-60 22-55 34 42 34 47 34 43 39 51 34 47 38 47 39 47 43 47-22 5-17 8h-17l-17 9-30 8z"/>
 <path d="m11060 8339-39-34-25-17v-295l-34-13-26-4-22-9-12-4-17-9-18-4-25-8-22-5 107-64 90 17 60 73 43 103 13 111-5 98-25 60z"/>
 <path d="m11406 7617-98-52-86-30-85-17-77-4h-81l-82 17-85 22-86 25-21-43-4-38-471-505-457-453-470-402-488-337-521-283-565-200-620-129-684-42-145 29-115 30-99 26-72 26-64 13-43 17-39 8-25 13 25 9 26 12 26 9 30 8 25 5 34 4h39l51 4-34 39-26 30-21 25-13 30-21 26-22 34-25 43-26 55-128-111-60-115-9-120 39-115 68-116 94-102 107-90 116-60 102-8 107-5h633v-25l-22-13-21-9-26-8h-34l-55-9-77-4-111-9-137-4v-38l192-253 184-226 171-210 184-192 184-184 213-167 240-162 278-158 611-193 603-77 573 43 538 162 488 270 427 393 351 500 269 625 52 333 25 333-4 321-26 325-68 312-103 312-145 308-184 308-13 17-8 26-17 30-17 34-22 30-13 30-21 21z" fill="#996"/>
 <path d="m7815 7446-60-22-51-17-52-21-47-22-51-25-38-22-43-25-34-22 21-213 68-210 107-205 141-188 159-171 188-133 201-102 213-47 56 64 73 85 72 90 69 103 55 107 35 111 8 115-21 116-116 34-111 38-102 39-86 51-77 60-47 81-26 107 5 137-77 17-64 21-65 17-55 22-60 8-60 13-64 4z" fill="#fff"/>
 <path d="m8413 7326 9-90 26-64 42-56 60-42 64-43 73-26 77-25 77-17-17 42-17 43-17 43-13 43-22 38-21 47-26 43-25 47h-69l-34 4-30 4h-34l-34 5h-34z"/>
 <path d="m7041 6950-26-13-25-9-26-4h-17v-43l4-38 9-30 17-21 17-22 26-13 30-12 42-9-4 26v68l-4 21v26l-4 30v43h-22z"/>
 <path d="m6703 6924-51-8-51-5-47-4-43-4-47-9-43-4-47-4-43-5-25-213 21-201 51-193 94-167 120-149 154-124 180-94 205-60 30 120 43 128 38 128 26 133-5 115-34 111-77 94-128 82-60 38-43 34-30 30-21 30-21 26-13 43-22 51-17 68h-25l-22 5-25 4z" fill="#fff"/>
 <path d="m6306 5787v-26l4-21 4-30 5-30-43-43-39-38-38 4-34 13-35 13-25 12-34 13-30 13-30 13-26 13 21-77 47-60 56-56 68-38 69-39 64-38 51-39 39-38 64-4 68-5 69-8h77l77-4 77 4 77 8 77 22-77 60-77 68-86 68-81 73-90 64-90 60-89 43z" fill="#ff9"/>
 <path d="m6746 5667 13-34 17-26 9-17 17-17 21-26 30-25 43-5 42 5h22l21 8 26 9 34 21-34 17-34 17-43 18-39 17-47 8-38 13-39 9z" fill="#fc9"/>
 <path d="m8067 5667-77-21-115-17-141-26-146-21-145-30-120-30-81-30-30-26 4-13 5-12v-56l4-26 107 26 111 26 111 25 111 39 111 34 116 38 115 43 116 51-5 5-4 8h-17z" fill="#ff9"/>
 <path d="m13800 5573-81-68-60-52-51-34-39-21-47-17-55-9-69-8-81-5 34-141 69-171 90-179 111-159 115-124 128-47 124 39 120 167-8 81-26 124-43 141-51 154-60 137-51 111-43 68z" fill="#963"/>
 <path d="m14159 4637-55-60-47-39-52-25-47-13-51-13h-111l-64 4 111-243 111-240 111-239 112-240 102-243 107-240 107-235 107-231 21-8 22-4 64 77 81 29 77-12 85-43 73-69 73-77 60-81 47-77h51l-171 368-137 308-115 252-94 218-90 192-86 193-89 205-99 239-30 35-25 51-26 56-26 59-25 52-26 51-26 34-17 26-8-9z" fill="#b3b3b3"/>
 <path d="m14775 2606-38-43-22-38-13-43 5-43 8-47 17-42 17-43 26-34 4-86 22-60 30-38 47-26 47-17 64-9 68-8 77-9 9 90-9 98-25 90-39 90-60 73-68 64-81 47z" fill="#b3b3b3"/>
</svg>
