<?xml version="1.0" encoding="UTF-8"?>
<svg version="1.1" viewBox="0 0 613.25 241.03" xmlns="http://www.w3.org/2000/svg" xmlns:xlink="http://www.w3.org/1999/xlink">
 <defs>
  <linearGradient id="v">
   <stop stop-color="#b3b3b3" offset="0"/>
   <stop stop-color="#bfbfbf" offset=".5"/>
   <stop stop-color="#777" offset="1"/>
  </linearGradient>
  <linearGradient id="a">
   <stop stop-color="#4e4e50" stop-opacity=".44681" offset="0"/>
   <stop stop-color="#2d2d37" stop-opacity=".29787" offset="1"/>
  </linearGradient>
  <linearGradient id="u">
   <stop stop-color="#f00" offset="0"/>
   <stop stop-color="#c73333" offset="1"/>
  </linearGradient>
  <radialGradient id="ai" cx="595.99" cy="303.08" r="37.118" gradientTransform="matrix(1 0 0 .45571 0 164.96)" gradientUnits="userSpaceOnUse">
   <stop stop-color="#ccc" offset="0"/>
   <stop stop-color="#e6e3e3" offset="1"/>
  </radialGradient>
  <radialGradient id="aj" cx="609.75" cy="304.6" r="10.223" gradientTransform="matrix(1 0 0 .6418 0 109.11)" gradientUnits="userSpaceOnUse">
   <stop stop-color="#e7e7e7" offset="0"/>
   <stop stop-color="#999" stop-opacity="0" offset="1"/>
  </radialGradient>
  <radialGradient id="ak" cx="336.79" cy="292.9" r="9.6429" gradientTransform="matrix(1 0 0 .57407 0 124.75)" gradientUnits="userSpaceOnUse">
   <stop stop-color="#b31616" offset="0"/>
   <stop stop-color="#c00303" offset="1"/>
  </radialGradient>
  <radialGradient id="al" cx="84.929" cy="281.29" r="28.286" gradientTransform="matrix(1 0 0 .5606 0 123.6)" gradientUnits="userSpaceOnUse" xlink:href="#u"/>
  <radialGradient id="am" cx="63.571" cy="364.51" r="7.6435" gradientTransform="matrix(1 0 0 .85983 0 51.092)" gradientUnits="userSpaceOnUse" xlink:href="#u"/>
  <linearGradient id="z" x1="76.643" x2="130.14" y1="240.58" y2="240.58" gradientUnits="userSpaceOnUse" xlink:href="#a"/>
  <linearGradient id="aa" x1="178.07" x2="291.93" y1="238.61" y2="238.61" gradientUnits="userSpaceOnUse" xlink:href="#a"/>
  <linearGradient id="ab" x1="354.36" x2="502.59" y1="235.15" y2="235.15" gradientUnits="userSpaceOnUse" xlink:href="#a"/>
  <linearGradient id="ac" x1="301.64" x2="415.14" y1="243.07" y2="243.07" gradientUnits="userSpaceOnUse" xlink:href="#a"/>
  <linearGradient id="ad" x1="416.98" x2="456.37" y1="259.06" y2="259.06" gradientUnits="userSpaceOnUse" xlink:href="#a"/>
  <radialGradient id="w" cx="235.71" cy="676.29" r="51.753" gradientTransform="translate(0 -6.5339e-5)" gradientUnits="userSpaceOnUse">
   <stop stop-color="#1a1a1a" offset="0"/>
   <stop stop-color="#121212" offset=".5"/>
   <stop stop-color="#181818" offset="1"/>
  </radialGradient>
  <radialGradient id="x" cx="240.42" cy="674.57" r="20.198" gradientUnits="userSpaceOnUse" xlink:href="#v"/>
  <linearGradient id="ae" x1="109.02" x2="150.86" y1="221.8" y2="221.8" gradientUnits="userSpaceOnUse">
   <stop offset="0"/>
   <stop stop-color="#2d2929" offset="1"/>
  </linearGradient>
  <linearGradient id="af" x1="148.44" x2="478.71" y1="245.02" y2="245.02" gradientUnits="userSpaceOnUse" xlink:href="#v"/>
  <linearGradient id="ag" x1="303.61" x2="304.59" y1="198.83" y2="387.73" gradientUnits="userSpaceOnUse">
   <stop stop-color="#d40000" offset="0"/>
   <stop stop-color="#cb0000" offset=".63895"/>
   <stop stop-color="#ba0000" offset="1"/>
  </linearGradient>
  <linearGradient id="ah" x1="93.65" x2="476.79" y1="316.97" y2="316.97" gradientUnits="userSpaceOnUse">
   <stop stop-color="#4d4d4d" offset="0"/>
   <stop stop-color="#4d4d4d" stop-opacity="0" offset="1"/>
  </linearGradient>
  <filter id="y" color-interpolation-filters="sRGB">
   <feGaussianBlur stdDeviation="1.6144466"/>
  </filter>
 </defs>
 <g transform="translate(-37.992 -187.73)">
  <path d="m360.67 202.82-5.8084 4.2932c46.168 11.487 100.39 39.726 134.6 60.357 4.7104-1.012 10.416-1.5264 12.627-3.7881-38.826-23.719-86.07-43.546-141.42-60.862z" fill="url(#ab)" stroke="#000" stroke-width="1px"/>
  <path d="m292.34 208.59c-46.172 0.01-90.569 8.4903-136.28 14.438-26.78 29.61-15.75 31.64-10.09 46.97l324.25 15.656c6.0753-3.7626 9.791-8.9551 2.5312-20.719-66.365-44.043-124.68-56.356-180.41-56.344zm-27.688 8.5c2.8482 0.022 5.709 0.1336 8.5938 0.375 8.0471 1.4928 8.4599 4.2508 8.5938 7.0625-9.886 8.1255-14.191 18.65-14.656 30.812l-50-1-13.656-21.719 3.0312-5.5625c19.037-5.2498 38.156-10.122 58.094-9.9688zm54.062 1.375c28.211 1.695 56.694 4.4668 88.875 20.719l0.5 8.5938-4.0312-0.5-8.5938 16.656-71.219-5.0625-8.5625-31.312c-1.6904-9.3317 0.80596-8.8986 3.0312-9.0938zm100 27.781 10.594 5.5625h-8.0938l-2.5-5.5625zm-12.625 10.125 1.5 7.5625-5.5625 0.5 4.0625-8.0625z" stroke="#000" stroke-linecap="round" stroke-linejoin="round"/>
  <path d="m81.786 375.93 107.86 9.2857 278.57 2.1429 115.36 1.0714 13.571-61.429l-94.29-31.42-418.22 2.14-12.14 76.79z" stroke="#000" stroke-width="1px"/>
  <path d="m417.48 241.08 10.859 34.345s28.032 2.5254 27.527 1.2627c-0.50507-1.2627-4.0406-15.657-4.0406-15.657-14.29-11.209-28.858-19.345-34.345-19.951z" fill="url(#ad)" stroke="#000" stroke-width="1px"/>
  <path d="m283.59 196.88c-37.11 0.24-80.6 4.08-133.59 11.5l-10.59 21.71-22.22-9.59-5.125 4.5625 16.5 9.0938-37.5 21.781h-13.562l5.625-5.2812-5.8438 5.1875c-7.9611 2.4764-15.103 11.511-21.719 24.75l2.0312 2.5312c-2.334 8.85-4.473 17.1-8.096 29.82l-0.5 7.06-5.0625 9.0938c-1.4705 15.692 1.0931 19.316 2.0312 27.781 2.3481 7.337 5.5595 13.348 10.594 16.656 5.2776 2.0203 11.065 4.0422 17.688 6.0625l8.0625 1.0312c-3.5489-107.46 130.61-82.687 114.66 4.5312l271.25 2.5312c-6.6661-107.92 133.78-94.757 111.09 1 20.663-1.7593 42.263-1.9483 59.094-10.094 5.1146-1.804 7.366-5.7808 7.0938-11.625l-3.5625-8.0625c0.74773-13.235 3.2837-26.929-1-38.906l-6.0625-18.688c-10.744-17.832-38.568-29.482-119.19-37.875l-7.5938-2.5312-5.0312 2.5312c-2.3318-1.2732-4.6938-2.545-7.0625-3.8125 2.2964 1.343 4.5721 2.6938 6.8125 4.0625-2.211 2.2616-7.9146 2.7693-12.625 3.7812-34.2-20.61-88.45-48.84-134.62-60.33l5.44-4.03c-0.29423-0.0858-0.58057-0.19596-0.875-0.28125-22.643-4.1473-47.665-6.1282-76.531-5.9375zm-1.0938 15.5 8.6875 51.938l-89.41-2.32c-10.327-2.329-16.564-5.6904-23.219-8.9375l2.5-23.906c29.94-8.89 66.44-16.24 101.44-16.77zm20 1.0625c42.165-0.25108 76.291 7.0289 103.22 21.062 2.7469 12.819 6.2547 25.465 9.2812 38.219l-97.84-6.78-14.66-52.5zm113.44 26.5c5.4875 0.60512 20.054 8.7593 34.344 19.969 0 0 3.5262 14.394 4.0312 15.656 0.50508 1.2627-27.531-1.2812-27.531-1.2812l-10.84-34.34z" fill="url(#ag)" opacity=".98" stroke="#000" stroke-width="1px"/>
  <path d="m77.143 255.93 14.286 0.35714c12.591-7.38 24.751-14.76 38.211-22.14l-13.214-9.2857c-15.29 9.2598-26.19 20.714-39.286 31.071z" fill="url(#z)" stroke="#000" stroke-width="1px"/>
  <path d="m181.07 228.79-2.5 23.929c6.6543 3.2472 12.887 6.5996 23.214 8.9286l89.643 3.5714-8.92-53.21c-34.996 0.53391-71.489 7.8892-101.43 16.786z" fill="url(#aa)" stroke="#000" stroke-width="1px"/>
  <path d="m302.14 213.43 14.643 52.5 97.857 6.7857c-3.0266-12.754-6.5388-25.396-9.2857-38.214-26.928-14.034-61.05-21.323-103.21-21.071z" fill="url(#ac)" stroke="#000" stroke-width="1px"/>
  <path d="m282.5 212.72 9.2857 54.286 25.714 0.71428-15.714-56.429z" fill="#1a1a1a" opacity=".99" stroke="#000" stroke-width="1px"/>
  <path d="m285.62 212.42 11.364 55.306s17.678 1.2627 16.92 0.25254c-0.75761-1.0102-17.425-56.821-17.425-56.821z" stroke="#000" stroke-width="1px"/>
  <g stroke="#000" stroke-width="1px">
   <path d="m181.57 228.58-3.283 25.254-20.961-15.91z" fill="#1a1a1a"/>
   <path d="m175.18 230.93-2.5 18.75" fill="none"/>
  </g>
  <path d="m405.88 235.5 9.5938 39.125 56.062 2.5312c-8.5721-7.0814-15.745-12.667-21.938-17.25 0.0729 0.29673 3.5002 14.251 4 15.5 0.50508 1.2627-27.531-1.2812-27.531-1.2812l-10.84-34.34c0.50976 0.0562 1.1223 0.19239 1.7812 0.375-3.7944-1.6492-7.3135-2.9891-11.125-4.6562z" fill="#1a1a1a" stroke="#000" stroke-width="1px"/>
  <path d="m449.52 362.93-197.73-9.4995c-3.9724-3.1626-11.361-4.6171-18.036-6.4286l-2.3214-2.3214 5.7143-1.4286s208.21 13.036 208.93 13.036c1.3322 0 7.2765 3.0357 6.9643 3.0357-1.0111 1.0406-2.0403 2.0995-3.5178 3.6066z" stroke="#000" stroke-width="1px"/>
  <path d="m237.32 342.9c70.539 2.3148 139.59 7.5958 208.75 12.679" fill="none" stroke="#808080" stroke-linecap="round" stroke-width="2"/>
  <path d="m641.45 321.01c0 1.0102 1.2627 24.749 1.2627 24.749l2.7779-0.25254c0.39489-3.5232 0.27383-10.142 0-17.678-0.95857-2.6611-2.4122-4.8272-4.0406-6.8185z" stroke="#000" stroke-width="1px"/>
  <path d="m497.14 268.43c1.4286 1.7857 16.786 11.071 16.786 11.071l116.43 22.15 4.64-1.43" fill="none" stroke="#000" stroke-width="1px"/>
  <path d="m559.37 286.67 3.283 6.566c-1.0096-1.627 11.825 8.283 26.769 19.951 6.1206 3.6663 18.899 4.4792 29.294 6.3134l4.7982-5.5558 9.0914 0.50508c-0.09-2.2816 0.10794-4.1312-1.2627-8.3338l-8.0812-6.3134-20.203-6.3135z" fill="url(#ai)" opacity=".98" stroke="#000" stroke-width="1px"/>
  <path d="m634.63 344.25c-1.0943 2.4023-2.1887 4.6354-3.283 8.3338l-4.7982 0.50507-6.3135 10.102c-4.8846 1.5965-10.773 1.8548-17.678 0.75761 1.7465-6.4608 2.5096-13.25 8.0812-18.435 7.0874-2.695 15.603-1.8203 23.991-1.2627z" fill="#ccc" stroke="#000" stroke-width="1px"/>
  <path d="m632.19 346.94c-0.95252 2.091-1.905 4.0347-2.8576 7.2538l-4.1764 0.43962-5.4953 8.7925c-4.2516 1.3896-9.3768 1.6145-15.387 0.65943 1.5201-5.6236 2.1844-11.533 7.034-16.046 6.169-2.3458 13.581-1.5844 20.882-1.0991z" stroke="#000" stroke-width=".87041px"/>
  <path d="m57.143 358.43c-1.212 1.775-0.65643 4.4337 0 7.1429 0 0 2.4264 2.9677 4.1071 3.75 2.8849 1.3429 9.4643 1.25 9.4643 1.25l-7.5-10.357z" fill="url(#am)" stroke="#000" stroke-width="1px"/>
  <path d="m112.68 277.01c-1.0499 3.8664-14.583 2.7976-18.929 6.0714-2.0042 4.9207 1.3709 9.0729 2.3214 13.571l-30.714-3.75c-0.97814-2.9424-2.2979-6.2264-3.75-9.6429-1.8388-0.13517-3.5647-0.55245-4.4643-3.0357 3.8593-10.464 9.5974-14.284 16.786-14.286l24.464 0.53571s15.155 7.3347 14.286 10.536z" fill="url(#al)" stroke="#000" stroke-width="1px"/>
  <path d="m62.679 282.72c1.6394 0.15743 3.698-0.73315 4.4643 1.6072l2.1429 3.2143 22.143 1.7857 1.0714 4.8214-26.429-2.5z" fill="#ccc" stroke="#000" stroke-width="1px"/>
  <path d="m468.57 378.08c-64.157-1.2906-127.01 0.0269-192.86-4.6429-67.645-21.496-69.121-45.197-93.214-110" fill="none" stroke="#000" stroke-width="1px"/>
  <path d="m464.29 280.58c2.3578 5.334 3.9424 9.8948 5.3571 14.286v6.4286c-0.0775 12.583-1.1425 23.191-2.1429 33.929-6.5409 9.2573-8.8081 24.09-9.6429 42.857" fill="none" stroke="#000" stroke-width="1px"/>
  <path d="m468.93 269.15 6.07-8.57" fill="none" stroke="#000" stroke-width="1px"/>
  <path d="m572.76 297.02c-1.7507-1.4927 4.1712 0.27456 7.3236 1.2627 4.5057 3.9564 11.368 11.375 13.964 11.512 6.9223 2.4429 15.92 3.3292 24.675 4.3978 1.2286 1.3657 0.0442 1.8264-0.50508 2.5254-13.536-2.1281-20.619-0.93564-32.042-8.2598-4.9617-4.7926-8.9434-7.6255-13.415-11.438z" fill="#333" opacity=".14695"/>
  <path d="m570.36 331.29 20-17.857" fill="none" stroke="#000" stroke-width="1px"/>
  <path transform="matrix(1.0631 0 0 1 -2.3429 4.2857)" d="m136.43 274.86c0 5.5228-4.4772 10-10 10s-10-4.4772-10-10 4.4772-10 10-10 10 4.4772 10 10z" fill="#d40000" stroke="#000" stroke-linecap="round" stroke-linejoin="round" stroke-width=".96988"/>
  <path d="m346.43 292.9c0 3.0573-4.3172 5.5357-9.6428 5.5357s-9.6429-2.4784-9.6429-5.5357 4.3172-5.5357 9.6429-5.5357c5.3256 0 9.6428 2.4784 9.6428 5.5357z" fill="url(#ak)"/>
  <path transform="translate(-1.5152 .25254)" d="m622.25 355.48c0 3.696-1.1872 6.6923-2.6517 6.6923s-2.6516-2.9962-2.6516-6.6923c0-3.696 1.1872-6.6923 2.6516-6.6923 1.4645 0 2.6517 2.9962 2.6517 6.6923z" fill="#ccc" stroke="#000" stroke-linecap="round" stroke-linejoin="round"/>
  <path d="m567.2 292.73 23.739 7.8287c5.3033 5.6205 10.607 8.3057 15.91 10.607l10.607 2.0203" fill="none" opacity=".43011" stroke="#808080" stroke-width="1px"/>
  <path transform="matrix(.85088 .29096 -.25877 .95674 170.73 -163.22)" d="m619.48 304.6c0 3.3474-4.353 6.0609-9.7227 6.0609s-9.7227-2.7136-9.7227-6.0609c0-3.3474 4.353-6.0609 9.7227-6.0609s9.7227 2.7136 9.7227 6.0609z" fill="url(#aj)" opacity=".77419" stroke="#808080" stroke-linecap="round" stroke-linejoin="round" stroke-opacity=".43529"/>
  <path d="m318.7 294.12c1.2919 0.83712 4.3334 1.8327 6.8185 2.7779 3.0761 0.0544 5.9911-0.7198 8.9651-1.389l10.733-0.50508 0.50508 2.3991c2.5675-0.0328 5.1349-0.84059 7.7024-1.5152 0.19692-0.60279 0.56574-1.0337 0.12627-2.2728l-4.5457-2.0203-19.445-1.389-2.3991-0.50508c-3.0528 0.13745-5.5548-5.3e-4 -9.849 0.75761-0.54297 1.3774-0.55006 2.6208 0.25254 3.6618z" fill="#d40000" stroke="#000" stroke-width="1px"/>
  <path d="m113.64 276.06c41.005 0.92693 78.276 7.6227 104.55 31.315" fill="none" opacity=".075269" stroke="#000" stroke-width="1px"/>
  <path d="m95.964 295.76 10.607 23.739" fill="none" stroke="#000" stroke-width="1px"/>
  <path d="m47.477 356.87 16.668 2.5254 7.0711 12.627-16.668-2.5254c-4.1472-2.8663-5.5386-7.7995-7.0711-12.627z" fill="none" stroke="#000" stroke-width="1px"/>
  <path d="m44.699 328.84 12.374 4.5457 1.2627 6.566 7.5761 0.25254 0.50508 8.8388-16.162 3.5355" fill="none" opacity=".075" stroke="#000" stroke-width="1px"/>
  <path d="m51.77 308.38c5.5487-0.0818 8.4411 0.72184 12.122 1.2627 7.8351 9.2871 8.5195 19.369 10.607 29.294" fill="none" opacity=".075" stroke="#000" stroke-width="1px"/>
  <path d="m84.348 296.01-7.8287 52.275" fill="none" opacity=".075" stroke="#000" stroke-width="1px"/>
  <path d="m75.256 379.85c-5.454-94.17 96.874-98.74 128.29-34.09" fill="none" opacity=".075" stroke="#000" stroke-width="1px"/>
  <path d="m203.21 345.93 35.357 2.8571 38.571 17.857l177.86 2.86" fill="none" opacity=".075" stroke="#000" stroke-width="1px"/>
  <path d="m640.36 322.36c-0.39096-1.406-19.094-6.0801-19.643-5.7143-5.119 15.276-10.238 25.354-15.357 37.143" fill="none" opacity=".075" stroke="#000" stroke-width="1px"/>
  <path d="m635.36 371.29c-0.0333 0.32821-34.072 2.6973-36.429 2.1429" fill="none" opacity=".075" stroke="#000" stroke-width="1px"/>
  <path d="m515.36 267.72c36.285 2.798 62.859 9.642 87.857 17.143" fill="none" opacity=".075" stroke="#000" stroke-width="1px"/>
  <path d="m129.29 234.51c-6.3248-6.2807-24.586-10.004-18.571-18.929 13.453-3.0968 27.097-6.9604 39.643-6.4286l-12.143 21.071z" fill="url(#ae)" stroke="#000" stroke-width="1px"/>
  <path d="m291.28 208.75c-1.8455 8.8e-4 -3.6888-1e-3 -5.5625 0.0312-46.778 1.1317-95.127 8.5609-136.78 28.594 8.8688 9.3455 18.994 17.417 30.719 23.906 2.7737 7.5354 89.916 7.2803 126.41 8.2188 52.704 3.7593 106.02 6.324 157.88 11.781 5.5298 0.17261 9.3918-1.3135 13.562-2.5 0.95238-1.0714 0.95238-2.3586 0-3.9062-9.7526-4.5123-69.954-66.18-186.22-66.125zm5.625 4.3438c111.99-0.0384 165.47 58.928 174.41 62.812-40.611-2.417-209.6-12.951-283.72-17.188-10.92-5.6764-20.834-12.263-29.094-20.438 39.805-19.291 83.809-23.979 127.38-24.969 3.7349-0.12781 7.4186-0.21751 11.031-0.21875z" fill="url(#af)" stroke="#000" stroke-width="1px"/>
  <path d="m114.15 279.6c113.51 36.435 233.12 34.237 351.03 41.921l11.112 5.0508c-8.3929 3.9224-12.709 15.999-17.173 27.779l-251.02-15.657-49.497-33.335-57.579 7.0711c-5.263-15.532-17.415-32.645 13.132-32.83z" fill="url(#ah)" filter="url(#y)" opacity=".089606"/>
  <g transform="translate(-1.5152 -301.53)">
   <path d="m445.62 586.83c-0.37972 1.434-0.71229 2.9033-2.9464 2.9464l-17.321-2.0536-1.7857-10-9.4643 0.0893c-1.6338-3.5866-1.8778-7.9314-0.89286-12.946 2.9973-7.6121 7.42-7.3844 11.786-8.2143 11.408 1.9454 13.496 6.75 16.875 11.964 1.1714 2.5603 1.0157 5.0001-0.44643 7.3214l-2.8571 0.35715z" fill="#d40000" stroke="#000" stroke-width="1px"/>
   <path d="m413.66 570.84c0.89286 0.0893 27.321 3.2143 27.321 3.2143-0.94641 1.4583-2.0224 2.9167-2.0536 4.375-3.8122 1.3366-9.5943 0.70332-14.464 0.98214l-0.71429-1.6071-9.8214-0.17857c-0.18619-2.3976-1.1407-5.8707-0.26786-6.7857z" fill="#1a1a1a"/>
   <path d="m426.25 582.01c0.35714 0.0893 11.786 1.0714 11.786 1.0714 2.0559 0.79966 1.9996 1.2976 2.5 1.875 0.29959 1.4603-0.3565 1.9649-0.71429 2.7678l-10.536-0.89285c-1.4777-7e-3 -2.0452-0.62068-2.8572-1.0714l-0.89285-3.125z" fill="#d6d1d1" stroke="#000" stroke-width="1px"/>
  </g>
  <path d="m171.73 205.1 13.132-1.7678s-1.4985-1.7952-2.5254-2.2728c-2.7741-1.2905-9.0914-1.2627-9.0914-1.2627l-6.3135-6.566 5.0508 7.8287z" stroke="#000" stroke-width="1px"/>
  <path d="m80.612 252.78-4.7982-5.0508 2.5254-2.7779 4.0406 3.0305 1.2627 1.7678z" stroke="#000" stroke-width="1px"/>
  <g transform="translate(288.57 -304.29)" stroke="#000">
   <path d="m235.71 625.17c-28.234 0-51.125 22.891-51.125 51.125s22.891 51.125 51.125 51.125 51.125-22.891 51.125-51.125-22.891-51.125-51.125-51.125zm0 13.25c20.92 0 37.875 16.955 37.875 37.875s-16.955 37.875-37.875 37.875-37.875-16.955-37.875-37.875 16.955-37.875 37.875-37.875z" fill="url(#w)" stroke-linecap="round" stroke-linejoin="round" stroke-width="1.2556"/>
   <path transform="matrix(1.053 0 0 1.053 -17.455 -34.058)" d="m260.11 674.57c0 10.879-8.8191 19.698-19.698 19.698s-19.698-8.8191-19.698-19.698 8.8191-19.698 19.698-19.698 19.698 8.8191 19.698 19.698z" fill="url(#x)" stroke-linecap="round" stroke-linejoin="round"/>
   <path d="m235.43 640.57c-19.819 0-35.9 16.052-35.9 35.871s16.081 35.9 35.9 35.9 35.871-16.081 35.871-35.9-16.052-35.871-35.871-35.871zm-2.7682 5.4499c5.6605 3.1247 7.1923 8.395 7.18 13.87-1.1092 3.9453-1.7903 9.0006-3.8639 10.496l-1.7878-2.3645c-1.9055-1.1687-4.0317-2.6398-5.4787-3.143l-8.2181-14.966c2.9853-0.8672 4.3198-2.9076 12.169-3.8928zm16.321 1.0957c3.0186 0.1048 5.1499 2.3591 7.2088 4.3253-7.9127 7.911-8.5796 5.6542-13.783 15.542-0.57998-1.1697 4.615-19.207 5.9689-19.839 0.20939-0.0128 0.40429-0.0358 0.60553-0.0289zm-31.719 2.9989c4.9527 12.133 3.0316 10.665 10.871 18.628-1.2906 0.1972-17.399-10.716-17.59-12.197 0.82359-3.2538 5.3125-5.021 6.7186-6.4303zm40.716 3.5467c1.7054 2.5992 4.0495 3.2823 7.2953 10.496-1.3253 6.3284-5.922 9.362-11.159 10.957-4.0971 0.0978-9.0921 0.9089-11.13-0.63438l1.7013-2.3933c0.55782-2.1646 1.3566-4.611 1.4129-6.1419l11.88-12.284zm-44.118 13.841c1.9791-0.0528 3.9884 0.26647 5.9689 0.8074 3.5184 2.1016 8.2103 4.0955 9.112 6.488l-2.7394 1.0957c-1.626 1.5339-3.6056 3.2043-4.4695 4.4695l-16.58 4.0369c-0.057-3.1082-1.7056-4.9406-0.60555-12.774 2.8095-2.9046 6.0154-4.0355 9.3138-4.1235zm46.54 11.534c3.6092-0.0329 6.5794 0.0967 6.9782 0.4902 0.2041 4.2231-0.75995 5.387-1.2688 8.6218-11.38-6.5-10.307-5.2042-20.069-7.9586 0.55915-0.5943 8.3448-1.0986 14.36-1.1534zm-34.17 1.0669c-0.0663 1.3039-14.716 15.163-16.205 15.052-2.1996-1.2385-3.4286-3.7954-4.21-8.1316 12.881-2.4127 11.04-0.84157 20.415-6.9205zm14.533 2.3357 2.7394 1.0957c2.2353 0.0109 4.788 0.17614 6.2861-0.14417l14.821 8.5064c-2.1025 2.2899-2.1916 4.7466-8.3911 9.6598-6.4602 0.26452-10.522-3.4732-13.351-8.1604-1.098-3.9485-3.1022-8.6033-2.105-10.957zm-9.3426 0.66322 0.14418 2.9412c0.90607 2.0435 1.8044 4.4452 2.7105 5.6806l-1.7013 17.013c-2.9503-0.97959-5.2328-0.0492-12.255-3.6909-2.8885-5.7846-1.1555-11.012 1.9608-15.513 3.1518-2.6196 6.5847-6.3753 9.1408-6.4303zm3.8639 3.9504c1.2349 0.4239 9.9189 17.717 9.4003 19.118-3.3922 1.5121-4.5457 2.2135-8.3622 2.4222 1.2398-13.047 2.2142-10.85-1.0381-21.54z" fill="#4d4d4d" stroke-width=".73248"/>
   <path d="m235.73 637.4c-21.479 0-38.906 17.396-38.906 38.875s17.427 38.906 38.906 38.906 38.875-17.427 38.875-38.906-17.396-38.875-38.875-38.875zm-3 5.9062c6.1345 3.3863 7.7946 9.098 7.7812 15.031-1.2021 4.2757-1.9402 9.7543-4.1875 11.375l-1.9375-2.5625c-2.0651-1.2666-4.3694-2.8609-5.9375-3.4062l-8.9062-16.219c3.2353-0.93982 4.6815-3.1511 13.188-4.2188zm17.688 1.1875c3.2714 0.11357 5.5812 2.5566 7.8125 4.6875-8.5753 8.5735-9.2981 6.1276-14.938 16.844-0.62855-1.2676 5.0015-20.815 6.4688-21.5 0.22693-0.0138 0.43816-0.0388 0.65625-0.0312zm-34.375 3.25c5.3674 13.149 3.2854 11.559 11.781 20.188-1.3987 0.21372-18.856-11.613-19.062-13.219 0.89256-3.5263 5.7573-5.4414 7.2812-6.9688zm44.125 3.8438c1.8482 2.8168 4.3886 3.5572 7.9062 11.375-1.4363 6.8583-6.418 10.146-12.094 11.875-4.4402 0.10603-9.8535 0.98501-12.062-0.6875l1.8438-2.5938c0.60453-2.3459 1.4702-4.9971 1.5312-6.6562l12.875-13.312zm-47.812 15c2.1448-0.0572 4.3224 0.28878 6.4688 0.875 3.813 2.2776 8.8978 4.4385 9.875 7.0312l-2.9688 1.1875c-1.7622 1.6624-3.9076 3.4726-4.8438 4.8438l-17.969 4.375c-0.0618-3.3685-1.8484-5.3543-0.65625-13.844 3.0448-3.1478 6.5191-4.3734 10.094-4.4688zm50.438 12.5c3.9114-0.0357 7.1303 0.1048 7.5625 0.53125 0.2212 4.5768-0.82358 5.8382-1.375 9.3438-12.333-7.0443-11.17-5.64-21.75-8.625 0.60598-0.64407 9.0435-1.1906 15.562-1.25zm-37.031 1.1562c-0.0718 1.4131-15.948 16.433-17.562 16.312-2.3838-1.3422-3.7157-4.1132-4.5625-8.8125 13.96-2.6148 11.964-0.91204 22.125-7.5zm15.75 2.5312 2.9688 1.1875c2.4225 0.0118 5.1889 0.19089 6.8125-0.15625l16.062 9.2188c-2.2786 2.4816-2.3752 5.144-9.0938 10.469-7.0012 0.28666-11.403-3.7641-14.469-8.8438-1.19-4.2791-3.362-9.3237-2.2812-11.875zm-10.125 0.71875 0.15625 3.1875c0.98195 2.2146 1.9556 4.8175 2.9375 6.1562l-1.8438 18.438c-3.1974-1.0616-5.671-0.0533-13.281-4-3.1304-6.269-1.2522-11.934 2.125-16.812 3.4158-2.8389 7.1361-6.9092 9.9062-6.9688zm4.1875 4.2812c1.3383 0.45939 10.75 19.2 10.188 20.719-3.6763 1.6387-4.9264 2.3989-9.0625 2.625 1.3436-14.139 2.3996-11.759-1.125-23.344z" fill="#b3b3b3" stroke-width=".79381"/>
   <path transform="translate(-.71429 -1.4286)" d="m236.79 668.61c0 1.0848-0.87944 1.9643-1.9643 1.9643-1.0848 0-1.9643-0.87944-1.9643-1.9643 0-1.0848 0.87944-1.9643 1.9643-1.9643 1.0848 0 1.9643 0.87944 1.9643 1.9643z" fill="#4d4d4d" stroke-linecap="round" stroke-linejoin="round"/>
   <path transform="translate(3.9286 16.786)" d="m236.79 668.61c0 1.0848-0.87944 1.9643-1.9643 1.9643-1.0848 0-1.9643-0.87944-1.9643-1.9643 0-1.0848 0.87944-1.9643 1.9643-1.9643 1.0848 0 1.9643 0.87944 1.9643 1.9643z" fill="#4d4d4d" stroke-linecap="round" stroke-linejoin="round"/>
   <path transform="translate(-7.1429 9.6429)" d="m236.79 668.61c0 1.0848-0.87944 1.9643-1.9643 1.9643-1.0848 0-1.9643-0.87944-1.9643-1.9643 0-1.0848 0.87944-1.9643 1.9643-1.9643 1.0848 0 1.9643 0.87944 1.9643 1.9643z" fill="#4d4d4d" stroke-linecap="round" stroke-linejoin="round"/>
   <path transform="translate(10 4.2857)" d="m236.79 668.61c0 1.0848-0.87944 1.9643-1.9643 1.9643-1.0848 0-1.9643-0.87944-1.9643-1.9643 0-1.0848 0.87944-1.9643 1.9643-1.9643 1.0848 0 1.9643 0.87944 1.9643 1.9643z" fill="#4d4d4d" stroke-linecap="round" stroke-linejoin="round"/>
   <path d="m239.64 676.29c0 2.1697-1.7589 3.9286-3.9286 3.9286s-3.9286-1.7589-3.9286-3.9286 1.7589-3.9286 3.9286-3.9286 3.9286 1.7589 3.9286 3.9286z" fill="#1a1a1a" stroke-linecap="round" stroke-linejoin="round"/>
  </g>
  <g transform="translate(-97.143 -304.29)" stroke="#000">
   <path d="m235.71 625.17c-28.234 0-51.125 22.891-51.125 51.125s22.891 51.125 51.125 51.125 51.125-22.891 51.125-51.125-22.891-51.125-51.125-51.125zm0 13.25c20.92 0 37.875 16.955 37.875 37.875s-16.955 37.875-37.875 37.875-37.875-16.955-37.875-37.875 16.955-37.875 37.875-37.875z" fill="url(#w)" stroke-linecap="round" stroke-linejoin="round" stroke-width="1.2556"/>
   <path transform="matrix(1.053 0 0 1.053 -17.455 -34.058)" d="m260.11 674.57c0 10.879-8.8191 19.698-19.698 19.698s-19.698-8.8191-19.698-19.698 8.8191-19.698 19.698-19.698 19.698 8.8191 19.698 19.698z" fill="url(#x)" stroke-linecap="round" stroke-linejoin="round"/>
   <path d="m235.43 640.57c-19.819 0-35.9 16.052-35.9 35.871s16.081 35.9 35.9 35.9 35.871-16.081 35.871-35.9-16.052-35.871-35.871-35.871zm-2.7682 5.4499c5.6605 3.1247 7.1923 8.395 7.18 13.87-1.1092 3.9453-1.7903 9.0006-3.8639 10.496l-1.7878-2.3645c-1.9055-1.1687-4.0317-2.6398-5.4787-3.143l-8.2181-14.966c2.9853-0.8672 4.3198-2.9076 12.169-3.8928zm16.321 1.0957c3.0186 0.1048 5.1499 2.3591 7.2088 4.3253-7.9127 7.911-8.5796 5.6542-13.783 15.542-0.57998-1.1697 4.615-19.207 5.9689-19.839 0.20939-0.0128 0.40429-0.0358 0.60553-0.0289zm-31.719 2.9989c4.9527 12.133 3.0316 10.665 10.871 18.628-1.2906 0.1972-17.399-10.716-17.59-12.197 0.82359-3.2538 5.3125-5.021 6.7186-6.4303zm40.716 3.5467c1.7054 2.5992 4.0495 3.2823 7.2953 10.496-1.3253 6.3284-5.922 9.362-11.159 10.957-4.0971 0.0978-9.0921 0.9089-11.13-0.63438l1.7013-2.3933c0.55782-2.1646 1.3566-4.611 1.4129-6.1419l11.88-12.284zm-44.118 13.841c1.9791-0.0528 3.9884 0.26647 5.9689 0.8074 3.5184 2.1016 8.2103 4.0955 9.112 6.488l-2.7394 1.0957c-1.626 1.5339-3.6056 3.2043-4.4695 4.4695l-16.58 4.0369c-0.057-3.1082-1.7056-4.9406-0.60555-12.774 2.8095-2.9046 6.0154-4.0355 9.3138-4.1235zm46.54 11.534c3.6092-0.0329 6.5794 0.0967 6.9782 0.4902 0.2041 4.2231-0.75995 5.387-1.2688 8.6218-11.38-6.5-10.307-5.2042-20.069-7.9586 0.55915-0.5943 8.3448-1.0986 14.36-1.1534zm-34.17 1.0669c-0.0663 1.3039-14.716 15.163-16.205 15.052-2.1996-1.2385-3.4286-3.7954-4.21-8.1316 12.881-2.4127 11.04-0.84157 20.415-6.9205zm14.533 2.3357 2.7394 1.0957c2.2353 0.0109 4.788 0.17614 6.2861-0.14417l14.821 8.5064c-2.1025 2.2899-2.1916 4.7466-8.3911 9.6598-6.4602 0.26452-10.522-3.4732-13.351-8.1604-1.098-3.9485-3.1022-8.6033-2.105-10.957zm-9.3426 0.66322 0.14418 2.9412c0.90607 2.0435 1.8044 4.4452 2.7105 5.6806l-1.7013 17.013c-2.9503-0.97959-5.2328-0.0492-12.255-3.6909-2.8885-5.7846-1.1555-11.012 1.9608-15.513 3.1518-2.6196 6.5847-6.3753 9.1408-6.4303zm3.8639 3.9504c1.2349 0.4239 9.9189 17.717 9.4003 19.118-3.3922 1.5121-4.5457 2.2135-8.3622 2.4222 1.2398-13.047 2.2142-10.85-1.0381-21.54z" fill="#4d4d4d" stroke-width=".73248"/>
   <path d="m235.73 637.4c-21.479 0-38.906 17.396-38.906 38.875s17.427 38.906 38.906 38.906 38.875-17.427 38.875-38.906-17.396-38.875-38.875-38.875zm-3 5.9062c6.1345 3.3863 7.7946 9.098 7.7812 15.031-1.2021 4.2757-1.9402 9.7543-4.1875 11.375l-1.9375-2.5625c-2.0651-1.2666-4.3694-2.8609-5.9375-3.4062l-8.9062-16.219c3.2353-0.93982 4.6815-3.1511 13.188-4.2188zm17.688 1.1875c3.2714 0.11357 5.5812 2.5566 7.8125 4.6875-8.5753 8.5735-9.2981 6.1276-14.938 16.844-0.62855-1.2676 5.0015-20.815 6.4688-21.5 0.22693-0.0138 0.43816-0.0388 0.65625-0.0312zm-34.375 3.25c5.3674 13.149 3.2854 11.559 11.781 20.188-1.3987 0.21372-18.856-11.613-19.062-13.219 0.89256-3.5263 5.7573-5.4414 7.2812-6.9688zm44.125 3.8438c1.8482 2.8168 4.3886 3.5572 7.9062 11.375-1.4363 6.8583-6.418 10.146-12.094 11.875-4.4402 0.10603-9.8535 0.98501-12.062-0.6875l1.8438-2.5938c0.60453-2.3459 1.4702-4.9971 1.5312-6.6562l12.875-13.312zm-47.812 15c2.1448-0.0572 4.3224 0.28878 6.4688 0.875 3.813 2.2776 8.8978 4.4385 9.875 7.0312l-2.9688 1.1875c-1.7622 1.6624-3.9076 3.4726-4.8438 4.8438l-17.969 4.375c-0.0618-3.3685-1.8484-5.3543-0.65625-13.844 3.0448-3.1478 6.5191-4.3734 10.094-4.4688zm50.438 12.5c3.9114-0.0357 7.1303 0.1048 7.5625 0.53125 0.2212 4.5768-0.82358 5.8382-1.375 9.3438-12.333-7.0443-11.17-5.64-21.75-8.625 0.60598-0.64407 9.0435-1.1906 15.562-1.25zm-37.031 1.1562c-0.0718 1.4131-15.948 16.433-17.562 16.312-2.3838-1.3422-3.7157-4.1132-4.5625-8.8125 13.96-2.6148 11.964-0.91204 22.125-7.5zm15.75 2.5312 2.9688 1.1875c2.4225 0.0118 5.1889 0.19089 6.8125-0.15625l16.062 9.2188c-2.2786 2.4816-2.3752 5.144-9.0938 10.469-7.0012 0.28666-11.403-3.7641-14.469-8.8438-1.19-4.2791-3.362-9.3237-2.2812-11.875zm-10.125 0.71875 0.15625 3.1875c0.98195 2.2146 1.9556 4.8175 2.9375 6.1562l-1.8438 18.438c-3.1974-1.0616-5.671-0.0533-13.281-4-3.1304-6.269-1.2522-11.934 2.125-16.812 3.4158-2.8389 7.1361-6.9092 9.9062-6.9688zm4.1875 4.2812c1.3383 0.45939 10.75 19.2 10.188 20.719-3.6763 1.6387-4.9264 2.3989-9.0625 2.625 1.3436-14.139 2.3996-11.759-1.125-23.344z" fill="#b3b3b3" stroke-width=".79381"/>
   <path transform="translate(-.71429 -1.4286)" d="m236.79 668.61c0 1.0848-0.87944 1.9643-1.9643 1.9643-1.0848 0-1.9643-0.87944-1.9643-1.9643 0-1.0848 0.87944-1.9643 1.9643-1.9643 1.0848 0 1.9643 0.87944 1.9643 1.9643z" fill="#4d4d4d" stroke-linecap="round" stroke-linejoin="round"/>
   <path transform="translate(3.9286 16.786)" d="m236.79 668.61c0 1.0848-0.87944 1.9643-1.9643 1.9643-1.0848 0-1.9643-0.87944-1.9643-1.9643 0-1.0848 0.87944-1.9643 1.9643-1.9643 1.0848 0 1.9643 0.87944 1.9643 1.9643z" fill="#4d4d4d" stroke-linecap="round" stroke-linejoin="round"/>
   <path transform="translate(-7.1429 9.6429)" d="m236.79 668.61c0 1.0848-0.87944 1.9643-1.9643 1.9643-1.0848 0-1.9643-0.87944-1.9643-1.9643 0-1.0848 0.87944-1.9643 1.9643-1.9643 1.0848 0 1.9643 0.87944 1.9643 1.9643z" fill="#4d4d4d" stroke-linecap="round" stroke-linejoin="round"/>
   <path transform="translate(10 4.2857)" d="m236.79 668.61c0 1.0848-0.87944 1.9643-1.9643 1.9643-1.0848 0-1.9643-0.87944-1.9643-1.9643 0-1.0848 0.87944-1.9643 1.9643-1.9643 1.0848 0 1.9643 0.87944 1.9643 1.9643z" fill="#4d4d4d" stroke-linecap="round" stroke-linejoin="round"/>
   <path d="m239.64 676.29c0 2.1697-1.7589 3.9286-3.9286 3.9286s-3.9286-1.7589-3.9286-3.9286 1.7589-3.9286 3.9286-3.9286 3.9286 1.7589 3.9286 3.9286z" fill="#1a1a1a" stroke-linecap="round" stroke-linejoin="round"/>
  </g>
  <path d="m467.5 349.51c5.1512-50.353 88.528-65.203 119.29-3.5714" fill="none" opacity=".075" stroke="#000" stroke-width="1px"/>
  <path d="m190.59 272.32 273.57 20.714c9.7718 2.2917 14.694 1.6737 21.429 2.1429 7.7079-2.381 15.714-4.7619 22.143-7.1429 25.329 2.6928 49.006 6.2115 65 13.571" fill="none" opacity=".075" stroke="#000" stroke-width="1px"/>
  <path d="m306.43 268.43 4.6429 15.714c3.5282 20.79 2.1572 36.681 2.1429 53.929l2.8571 7.8571-1.07 20.72-2.8571 8.9286" fill="none" stroke="#000" stroke-width="1px"/>
  <path d="m320.4 294.25c1.5194 0.68588 3.7329 1.4054 5.625 2.125 3.0761 0.0544 5.9947-0.70584 8.9688-1.375l10.719-0.5 0.5 2.4062c2.5675-0.0328 5.1513-0.85661 7.7188-1.5312 0.1176-0.36 0.28106-0.67884 0.3125-1.125h-33.844z" fill="#800000" opacity=".63082"/>
 </g>
</svg>
