<?xml version="1.0" encoding="utf-8"?>
<!-- Generator: Adobe Illustrator 24.1.0, SVG Export Plug-In . SVG Version: 6.00 Build 0)  -->
<svg version="1.1" id="Layer_1" xmlns="http://www.w3.org/2000/svg" xmlns:xlink="http://www.w3.org/1999/xlink" x="0px" y="0px"
	 viewBox="0 0 1000 1000" style="enable-background:new 0 0 1000 1000;" xml:space="preserve">
<style type="text/css">
	.st0{fill:#D49E2F;}
	.st1{fill:#FFFFFF;stroke:#1D1D1B;stroke-miterlimit:10;}
	.st2{fill:url(#SVGID_1_);stroke:#FFFFFF;stroke-miterlimit:10;}
	.st3{fill:url(#SVGID_2_);stroke:#FFFFFF;stroke-miterlimit:10;}
	.st4{fill:none;stroke:#1D1D1B;stroke-miterlimit:10;}
	.st5{fill:none;stroke:#FFFFFF;stroke-miterlimit:10;}
	.st6{fill:url(#SVGID_3_);stroke:#FFFFFF;stroke-miterlimit:10;}
	.st7{fill:url(#SVGID_4_);stroke:#FFFFFF;stroke-miterlimit:10;}
	.st8{fill:url(#SVGID_5_);stroke:#FFFFFF;stroke-miterlimit:10;}
	.st9{fill:url(#SVGID_6_);stroke:#FFFFFF;stroke-miterlimit:10;}
	.st10{fill:url(#SVGID_7_);stroke:#FFFFFF;stroke-miterlimit:10;}
	.st11{fill:url(#SVGID_8_);stroke:#FFFFFF;stroke-miterlimit:10;}
	.st12{fill:url(#SVGID_9_);stroke:#FFFFFF;stroke-miterlimit:10;}
	.st13{fill:url(#SVGID_10_);stroke:#FFFFFF;stroke-miterlimit:10;}
	.st14{fill:url(#SVGID_11_);stroke:#FFFFFF;stroke-miterlimit:10;}
	.st15{fill:url(#SVGID_12_);stroke:#FFFFFF;stroke-miterlimit:10;}
	.st16{fill:url(#SVGID_13_);stroke:#FFFFFF;stroke-miterlimit:10;}
	.st17{fill:url(#SVGID_14_);stroke:#FFFFFF;stroke-miterlimit:10;}
	.st18{fill:#E89D3A;stroke:#1D1D1B;stroke-miterlimit:10;}
	.st19{fill:#95C11F;stroke:#1D1D1B;stroke-miterlimit:10;}
	.st20{fill:none;stroke:#EAFFAD;stroke-miterlimit:10;}
	.st21{fill:none;stroke:#FFDE7C;stroke-miterlimit:10;}
	.st22{fill:none;stroke:#070500;stroke-miterlimit:10;}
	.st23{fill:#EDD62B;stroke:#070500;stroke-miterlimit:10;}
	.st24{fill:#C48F31;stroke:#070500;stroke-miterlimit:10;}
	.st25{fill:#0D754D;stroke:#1D1D1B;stroke-miterlimit:10;}
	.st26{fill:#634E42;stroke:#1D1D1B;stroke-miterlimit:10;}
	.st27{fill:#7B6A58;stroke:#1D1D1B;stroke-miterlimit:10;}
	.st28{fill:#666D4A;stroke:#1D1D1B;stroke-miterlimit:10;}
	.st29{fill:#B2C47C;stroke:#1D1D1B;stroke-miterlimit:10;}
	.st30{fill:#A48A7B;stroke:#1D1D1B;stroke-miterlimit:10;}
	.st31{fill:#75665F;stroke:#1D1D1B;stroke-miterlimit:10;}
	.st32{fill:url(#SVGID_15_);stroke:#FFFFFF;stroke-miterlimit:10;}
	.st33{fill:url(#SVGID_16_);stroke:#FFFFFF;stroke-miterlimit:10;}
	.st34{fill:url(#SVGID_17_);stroke:#FFFFFF;stroke-miterlimit:10;}
	.st35{fill:url(#SVGID_18_);stroke:#FFFFFF;stroke-miterlimit:10;}
	.st36{fill:url(#SVGID_19_);stroke:#FFFFFF;stroke-miterlimit:10;}
	.st37{fill:url(#SVGID_20_);stroke:#FFFFFF;stroke-miterlimit:10;}
	.st38{fill:url(#SVGID_21_);stroke:#FFFFFF;stroke-miterlimit:10;}
	.st39{fill:url(#SVGID_22_);stroke:#FFFFFF;stroke-miterlimit:10;}
	.st40{fill:url(#SVGID_23_);stroke:#FFFFFF;stroke-miterlimit:10;}
	.st41{fill:url(#SVGID_24_);stroke:#FFFFFF;stroke-miterlimit:10;}
	.st42{fill:url(#SVGID_25_);stroke:#FFFFFF;stroke-miterlimit:10;}
	.st43{fill:url(#SVGID_26_);stroke:#FFFFFF;stroke-miterlimit:10;}
	.st44{fill:url(#SVGID_27_);stroke:#FFFFFF;stroke-miterlimit:10;}
	.st45{fill:url(#SVGID_28_);stroke:#FFFFFF;stroke-miterlimit:10;}
	.st46{fill:url(#SVGID_29_);stroke:#FFFFFF;stroke-miterlimit:10;}
	.st47{fill:url(#SVGID_30_);stroke:#FFFFFF;stroke-miterlimit:10;}
	.st48{fill:url(#SVGID_31_);stroke:#FFFFFF;stroke-miterlimit:10;}
	.st49{fill:url(#SVGID_32_);stroke:#FFFFFF;stroke-miterlimit:10;}
	.st50{fill:url(#SVGID_33_);stroke:#FFFFFF;stroke-miterlimit:10;}
	.st51{fill:url(#SVGID_34_);stroke:#FFFFFF;stroke-miterlimit:10;}
	.st52{fill:url(#SVGID_35_);stroke:#FFFFFF;stroke-miterlimit:10;}
	.st53{fill:url(#SVGID_36_);stroke:#FFFFFF;stroke-miterlimit:10;}
	.st54{fill:url(#SVGID_37_);stroke:#FFFFFF;stroke-miterlimit:10;}
	.st55{fill:url(#SVGID_38_);stroke:#FFFFFF;stroke-miterlimit:10;}
	.st56{fill:url(#SVGID_39_);stroke:#FFFFFF;stroke-miterlimit:10;}
	.st57{fill:url(#SVGID_40_);stroke:#FFFFFF;stroke-miterlimit:10;}
	.st58{fill:url(#SVGID_41_);stroke:#FFFFFF;stroke-miterlimit:10;}
	.st59{fill:url(#SVGID_42_);stroke:#FFFFFF;stroke-miterlimit:10;}
	.st60{fill:#0D754D;stroke:#1D1D1B;stroke-width:5;stroke-miterlimit:10;}
	.st61{fill:none;stroke:#1D1D1B;stroke-width:5;stroke-miterlimit:10;}
	.st62{fill:#634E42;stroke:#1D1D1B;stroke-width:5;stroke-miterlimit:10;}
	.st63{fill:#7B6A58;stroke:#1D1D1B;stroke-width:5;stroke-miterlimit:10;}
	.st64{fill:#666D4A;stroke:#1D1D1B;stroke-width:5;stroke-miterlimit:10;}
	.st65{fill:#B2C47C;stroke:#1D1D1B;stroke-width:5;stroke-miterlimit:10;}
	.st66{fill:#A48A7B;stroke:#1D1D1B;stroke-width:5;stroke-miterlimit:10;}
	.st67{fill:#75665F;stroke:#1D1D1B;stroke-width:5;stroke-miterlimit:10;}
	.st68{fill:none;stroke:#1D1D1B;stroke-width:5;stroke-linecap:round;stroke-miterlimit:10;}
	.st69{fill:url(#SVGID_43_);stroke:#FFFFFF;stroke-miterlimit:10;}
	.st70{fill:url(#SVGID_44_);stroke:#FFFFFF;stroke-miterlimit:10;}
	.st71{fill:url(#SVGID_45_);stroke:#FFFFFF;stroke-miterlimit:10;}
	.st72{fill:url(#SVGID_46_);stroke:#FFFFFF;stroke-miterlimit:10;}
	.st73{fill:url(#SVGID_47_);stroke:#FFFFFF;stroke-miterlimit:10;}
	.st74{fill:url(#SVGID_48_);stroke:#FFFFFF;stroke-miterlimit:10;}
	.st75{fill:url(#SVGID_49_);stroke:#FFFFFF;stroke-miterlimit:10;}
	.st76{fill:url(#SVGID_50_);stroke:#FFFFFF;stroke-miterlimit:10;}
	.st77{fill:url(#SVGID_51_);stroke:#FFFFFF;stroke-miterlimit:10;}
	.st78{fill:url(#SVGID_52_);stroke:#FFFFFF;stroke-miterlimit:10;}
	.st79{fill:url(#SVGID_53_);stroke:#FFFFFF;stroke-miterlimit:10;}
	.st80{fill:url(#SVGID_54_);stroke:#FFFFFF;stroke-miterlimit:10;}
	.st81{fill:url(#SVGID_55_);stroke:#FFFFFF;stroke-miterlimit:10;}
	.st82{fill:url(#SVGID_56_);stroke:#FFFFFF;stroke-miterlimit:10;}
</style>
<g>
	<g>
		<path class="st60" d="M553.57,535.62c0-26.35-6.41-52.27-16.74-76.41c-10.66-24.9-27.57-46.99-40.2-71
			c-5.32-10.11-10.65-20.24-15.09-30.77c-9.27-22-14.49-45.39-18.74-68.8c-3.72-20.53-5.58-42.79-12.35-62.57
			c-4.58-13.39-10.65-25.52-20.03-36.26c-16.36-18.75-37.88-28.93-61.91-33.61c-4.17-0.81-8.45-0.85-12.69-0.87
			c-9.7-0.05-19.62,0.01-28.78,3.2c-17.1,5.94-37.29,25.95-46.83,40.83c-8.75,13.65-13.41,29.06-14.58,45.17
			c-1.64,22.42-4.58,49.44-11.52,70.75c-7.09,21.78-21.48,40.26-30.23,61.31c-10.54,25.36-21.82,48.67-33.57,73.37
			c-12.84,26.99-20.16,55.67-20.16,85.67c0,105.87,85.83,191.7,191.7,191.7S553.57,641.49,553.57,535.62z"/>
	</g>
	<path class="st61" d="M210.48,548.77c-1.02,0.77-1.25,2.29-0.8,3.49c0.46,1.2,1.46,2.1,2.54,2.79c1.16,0.74,2.48,1.29,3.85,1.25
		c2.91-0.07,5.31-3.17,4.76-6.03c-0.54-2.86-3.75-4.86-6.59-4.22c-1.69,0.38-3.13,1.53-4.18,2.91"/>
	<path class="st61" d="M254.28,533.32c0.36-0.03,0.74-0.09,1.02-0.33c0.73-0.61,0.29-1.77-0.11-2.64c-1.12-2.46-1.39-5.3-0.75-7.92
		c0.24-0.98,0.6-1.93,0.66-2.93c0.06-1-0.27-2.1-1.11-2.65c-0.59-0.38-1.33-0.43-2.04-0.46c-1.66-0.06-3.46-0.02-4.8,0.98
		c-1.86,1.38-2.13,4.03-2.14,6.35C244.99,528.93,248.57,533.81,254.28,533.32z"/>
	<path class="st61" d="M263.43,555.02c1.16,0.94,2.89,1.35,4.19,0.6c1.3-0.75,1.69-2.87,0.5-3.78c-0.82-0.63-1.98-0.5-2.99-0.28
		c-1.03,0.22-2.16,0.58-2.67,1.5c-0.52,0.92,0.2,2.42,1.22,2.18"/>
	<path class="st61" d="M238.54,626.55c-1.02,0.77-1.25,2.29-0.8,3.49s1.46,2.1,2.54,2.79c1.16,0.74,2.48,1.29,3.85,1.25
		c2.91-0.07,5.31-3.17,4.76-6.03c-0.54-2.86-3.75-4.86-6.59-4.22c-1.69,0.38-3.13,1.53-4.18,2.91"/>
	<path class="st62" d="M290.19,591.88c0.67-0.06,1.37-0.18,1.89-0.61c1.35-1.13,0.53-3.27-0.2-4.87c-2.07-4.54-2.57-9.79-1.38-14.63
		c0.44-1.8,1.11-3.57,1.21-5.42c0.1-1.85-0.5-3.89-2.05-4.9c-1.09-0.71-2.46-0.8-3.76-0.85c-3.07-0.11-6.39-0.03-8.86,1.8
		c-3.44,2.55-3.94,7.44-3.96,11.72C273.03,583.77,279.66,592.8,290.19,591.88z"/>
	<path class="st61" d="M307.09,631.97c2.15,1.74,5.34,2.5,7.73,1.11c2.4-1.39,3.12-5.29,0.92-6.97c-1.52-1.16-3.65-0.92-5.52-0.52
		c-1.9,0.41-3.98,1.07-4.94,2.77c-0.95,1.7,0.36,4.48,2.26,4.03"/>
	<path class="st61" d="M387.84,474.9c-0.77,2.23,0.45,4.8,2.38,6.16c1.93,1.36,4.41,1.71,6.77,1.65c2.53-0.06,5.13-0.59,7.2-2.06
		c4.39-3.11,4.86-10.32,1.08-14.15c-3.78-3.82-10.76-3.58-14.45,0.33c-2.19,2.33-3.22,5.57-3.4,8.76"/>
	<path class="st61" d="M246.7,585.98c0.36-0.03,0.74-0.09,1.02-0.33c0.73-0.61,0.29-1.77-0.11-2.64c-1.12-2.46-1.39-5.3-0.75-7.92
		c0.24-0.98,0.6-1.93,0.66-2.93c0.06-1-0.27-2.1-1.11-2.65c-0.59-0.38-1.33-0.43-2.04-0.46c-1.66-0.06-3.46-0.02-4.8,0.98
		c-1.86,1.38-2.13,4.03-2.14,6.35C237.4,581.59,240.99,586.48,246.7,585.98z"/>
	<path class="st61" d="M255.85,607.69c1.16,0.94,2.89,1.35,4.19,0.6s1.69-2.87,0.5-3.78c-0.82-0.63-1.98-0.5-2.99-0.28
		c-1.03,0.22-2.16,0.58-2.67,1.5c-0.52,0.92,0.2,2.42,1.22,2.18"/>
	<path class="st61" d="M344.36,216.77c-1.02,0.77-1.25,2.29-0.8,3.49c0.46,1.2,1.46,2.1,2.54,2.79c1.16,0.74,2.48,1.29,3.85,1.25
		c2.91-0.07,5.31-3.17,4.76-6.03c-0.54-2.86-3.75-4.86-6.59-4.22c-1.69,0.38-3.13,1.53-4.18,2.91"/>
	<path class="st61" d="M388.16,201.32c0.36-0.03,0.74-0.09,1.02-0.33c0.73-0.61,0.29-1.77-0.11-2.64c-1.12-2.46-1.39-5.3-0.75-7.92
		c0.24-0.98,0.6-1.93,0.66-2.93c0.06-1-0.27-2.1-1.11-2.65c-0.59-0.38-1.33-0.43-2.04-0.46c-1.66-0.06-3.46-0.02-4.8,0.98
		c-1.86,1.38-2.13,4.03-2.14,6.35C378.87,196.92,382.46,201.81,388.16,201.32z"/>
	<path class="st61" d="M397.31,223.02c1.16,0.94,2.89,1.35,4.19,0.6s1.69-2.87,0.5-3.78c-0.82-0.63-1.98-0.5-2.99-0.28
		c-1.03,0.22-2.16,0.58-2.67,1.5c-0.52,0.92,0.2,2.42,1.22,2.18"/>
	<path class="st61" d="M388.75,502.93c-0.32,0.94,0.19,2.01,1,2.58c0.81,0.57,1.85,0.72,2.84,0.69c1.06-0.03,2.15-0.25,3.01-0.86
		c1.84-1.3,2.03-4.32,0.45-5.92c-1.58-1.6-4.51-1.5-6.05,0.14c-0.92,0.97-1.35,2.33-1.42,3.67"/>
	<path class="st61" d="M276.66,630.28c-1.26,0.95-1.54,2.82-0.98,4.29c0.56,1.47,1.8,2.59,3.13,3.43c1.42,0.91,3.06,1.58,4.74,1.54
		c3.58-0.08,6.53-3.89,5.86-7.42c-0.67-3.52-4.61-5.98-8.11-5.2c-2.08,0.47-3.85,1.88-5.14,3.57"/>
	<path class="st61" d="M283.54,643.31c-1.26,0.95-1.54,2.82-0.98,4.29c0.56,1.47,1.8,2.59,3.13,3.43c1.42,0.91,3.06,1.58,4.74,1.54
		c3.58-0.08,6.53-3.89,5.86-7.42c-0.67-3.52-4.61-5.98-8.11-5.2c-2.08,0.47-3.85,1.88-5.14,3.57"/>
	<path class="st63" d="M443.08,435.58c0.37-0.32,0.73-0.71,0.8-1.27c0.19-1.48-1.51-2.93-2.84-3.96c-3.79-2.92-7.02-7.07-9.02-11.57
		c-0.74-1.67-1.32-3.41-2.3-4.99c-0.97-1.58-2.47-3.02-3.98-3.22c-1.06-0.14-1.93,0.34-2.75,0.83c-1.92,1.16-3.89,2.58-4.36,5.11
		c-0.65,3.52,1.77,7.77,4.15,11.33C428.17,435.85,437.22,440.63,443.08,435.58z"/>
	<path class="st61" d="M478.91,459.77c2.76,0.24,5.82-0.91,7.03-3.4c1.21-2.49-0.37-6.13-3.14-6.3c-1.91-0.11-3.54,1.28-4.87,2.65
		c-1.35,1.4-2.71,3.11-2.55,5.05c0.16,1.94,2.8,3.51,4.12,2.08"/>
</g>
<g>
	<g>
		<path class="st64" d="M670.55,801.64c19.47-18.67,34.08-41.77,44.6-66.5c10.85-25.52,15.18-53.66,23.98-80.01
			c3.7-11.1,7.41-22.21,12.05-32.95c9.69-22.44,23.27-42.87,37.56-62.59c12.53-17.3,27.66-34.44,37.48-53.46
			c6.65-12.87,11.31-25.95,12.61-40.49c2.26-25.37-5.47-48.48-19.02-69.56c-2.35-3.66-5.35-6.84-8.35-10
			c-6.84-7.2-13.91-14.48-22.75-19c-16.5-8.43-45.59-9.17-63.35-5.67c-16.29,3.2-30.97,10.68-43.7,21.23
			c-17.73,14.68-39.77,31.64-60.44,41.62c-21.11,10.19-44.97,12.65-66.72,21.11c-26.2,10.18-51.42,18.36-78,27.18
			c-29.04,9.63-55.42,24.55-77.58,45.8c-78.23,75.01-80.84,199.24-5.82,277.47S592.32,876.66,670.55,801.64z"/>
	</g>
	<g>
		<path class="st65" d="M666.04,790.86c18.27-17.52,31.99-39.2,41.86-62.42c10.18-23.95,14.25-50.36,22.5-75.09
			c3.48-10.41,6.96-20.84,11.31-30.92c9.09-21.06,21.84-40.23,35.26-58.74c11.76-16.24,25.96-32.33,35.18-50.17
			c6.24-12.08,10.62-24.36,11.83-38c2.12-23.81-5.13-45.5-17.86-65.28c-2.21-3.43-5.03-6.42-7.84-9.38
			c-6.42-6.76-13.05-13.59-21.35-17.83c-15.49-7.91-42.79-8.6-59.46-5.32c-15.29,3.01-29.07,10.03-41.02,19.92
			c-16.64,13.78-37.33,29.7-56.72,39.06c-19.81,9.57-42.2,11.88-62.62,19.81c-24.59,9.55-48.26,17.24-73.2,25.51
			c-27.25,9.04-52.01,23.04-72.82,42.99c-73.42,70.4-75.87,187-5.47,260.42S592.62,861.26,666.04,790.86z"/>
	</g>
	<path class="st66" d="M598.63,700.35c-32.17,30.85-83.26,29.78-114.1-2.4c-30.85-32.17-29.78-83.26,2.4-114.1
		c14.45-13.85,33.81-21.93,53.82-22.43c19.9-0.5,41.2,2.97,58.29,13.21c3.79,2.27,7.65,4.6,10.52,7.96
		c4.39,5.13,5.96,12.02,7.39,18.61c4,18.45,8.63,35.91,5.32,54.86C619.33,672.89,610.97,688.52,598.63,700.35z"/>
	<path class="st66" d="M599.59,700.37c-32.17,30.85-83.26,29.78-114.1-2.4c-30.85-32.17-29.78-83.26,2.4-114.1
		c14.45-13.85,33.81-21.93,53.82-22.43c19.9-0.5,41.2,2.97,58.29,13.21c3.79,2.27,7.65,4.6,10.52,7.96
		c4.39,5.13,5.96,12.02,7.39,18.61c4,18.45,8.63,35.91,5.32,54.86C620.28,672.91,611.93,688.54,599.59,700.37z"/>
	<path class="st67" d="M546.34,575.32c-15.22,1.07-28.39,8.74-41,16.27c-4.83,2.88-9.73,5.84-13.3,10.15
		c-5.64,6.81-7.35,16.22-8.9,25.26c-1.56,9.11-3.12,18.39-1.87,27.86c1.25,9.48,5.78,19.35,13.87,25.11
		c1.59,1.13,3.36,2.11,5.21,2.26c4.79,0.39,7.53-4.6,8.81-9.07c5.81-20.25,3.35-44.33,15.49-60.94
		c7.87-10.77,20.77-16.59,33.81-20.43c6.49-1.91,20.11-3.72,21.89-10.72C570.76,575.95,556.55,574.59,546.34,575.32z"/>
	<path class="st68" d="M733.09,408.81c-8.61,2.68-17.76,3.2-26.4,5.76c-16.35,4.85-29.62,16.58-42.31,27.97"/>
	<path class="st68" d="M680.12,448.74c-6.61,6.33-13.21,12.67-19.82,19"/>
	<path class="st68" d="M445.8,618.57c0.63,8.84,2.28,17.61,4.9,26.07"/>
	<path class="st68" d="M435.32,648.44c1.74,5.07,3.84,10.01,6.28,14.79"/>
	<path class="st68" d="M397.72,747.72c23.42,39.73,67.95,61.84,111.76,76.25c11.26,3.71,23.54,7.05,34.77,3.24"/>
</g>
</svg>
