<?xml version="1.0" encoding="UTF-8"?>
<svg version="1.1" viewBox="0 0 400 400" xmlns="http://www.w3.org/2000/svg">
 <path d="m200 399.04l30.161-2.1006 2.281-3.0387-32.442 2.2594v2.8799m-30.161-2.1006l30.161 2.1006"/>
 <path d="m200 391.39l34.411-2.3965 1.6371-6.7262-36.048 2.5105v11.381l-32.442-2.2594-1.9685-4.9061 34.411 2.3965"/>
 <path d="m200 376.38l37.338-2.6004 0.93038-10.155-38.268 2.6652v18.482l-36.048-2.5105-1.29-8.4815 37.338 2.6004"/>
 <path d="m200 354.6l38.83-2.7043 0.18788-13.194-39.018 2.7174v24.873l-38.268-2.6652-0.56184-11.731 38.83 2.7043"/>
 <path d="m200 326.88l38.83-2.7043-0.56184-15.725-38.268 2.6652v30.308l-39.018-2.7174 0.18788-14.53 38.83 2.7043"/>
 <path d="m200 294.28l37.338-2.6004-1.29-17.653-36.048 2.5105v34.578l-38.268-2.6652 0.93038-16.77 37.338 2.6004"/>
 <path d="m200 258.06l34.411-2.3965-1.9685-18.902-32.442 2.2594v37.519l-36.048-2.5105 1.6371-18.366 34.411 2.3965"/>
 <path d="m200 219.6l30.161-2.1006-2.5714-19.424-27.59 1.9215v39.018l-32.442-2.2594 2.281-19.256 30.161 2.1006"/>
 <path d="m200 180.4l24.753-1.7239-3.0755-19.2-21.677 1.5097v39.018l-27.59-1.9215 2.8371-19.406 24.753 1.7239"/>
 <path d="m200 141.94l18.393-1.281-3.4614-18.239-14.932 1.0399v37.519l-21.677-1.5097 3.2843-18.81 18.393 1.281"/>
 <path d="m200 105.72l11.326-0.78881-3.7143-16.576-7.612 0.53013v34.578l-14.932-1.0399 3.6052-17.492 11.326 0.78881"/>
 <path d="m200 73.121l3.8244-0.26635-3.8244-14.276v30.308l-7.612-0.53013 3.7876-15.501 3.8244 0.26635"/>
 <path d="m259.16 390.72l26.729-10.102 6.4956-4.2732-28.75 10.866-4.4743 3.5092m-29.002 6.2209l29.002-6.2209"/>
 <path d="m267.5 381.89l30.495-11.526 4.6622-7.6122-31.945 12.074-3.2113 7.0638-3.8614 5.3121-31.196 6.6914 1.9685-4.9061 33.088-7.0974"/>
 <path d="m273.24 366.08l33.088-12.506 2.6495-10.659-33.913 12.818-1.825 10.347-2.5304 8.7476-34.663 7.4351 1.29-8.4815 35.903-7.7012"/>
 <path d="m276.17 343.89l34.411-13.006 0.53504-13.296-34.577 13.069-0.36854 13.233-1.1021 11.847-36.798 7.8931 0.56184-11.731 37.338-8.0089"/>
 <path d="m276.17 316.17l34.411-13.006-1.6-15.421-33.913 12.818 1.1021 15.61 0.36854 14.491-37.519 8.0477-0.18788-14.53 37.338-8.0089"/>
 <path d="m273.24 283.98l33.088-12.506-3.6735-16.955-31.945 12.074 2.5304 17.387 1.825 16.578-36.798 7.8931-0.93038-16.77 35.903-7.7012"/>
 <path d="m267.5 248.56l30.495-11.526-5.6059-17.836-28.75 10.866 3.8614 18.496 3.2113 18.028-34.663 7.4351-1.6371-18.366 33.088-7.0974"/>
 <path d="m259.16 211.28l26.729-10.102-7.3228-18.033-24.45 9.241 5.044 18.894 4.4743 18.785-31.196 6.6914-2.281-19.256 29.002-6.2209"/>
 <path d="m248.55 173.57l21.936-8.2907-8.7583-17.536-19.21 7.2606 6.0329 18.566 5.5652 18.821-26.53 5.6906-2.8371-19.406 23.802-5.1054"/>
 <path d="m236.08 136.87l16.3-6.1606-9.8573-16.365-13.232 5.0012 6.7898 17.525 6.4424 18.133-20.844 4.4711-3.2843-18.81 17.686-3.7937"/>
 <path d="m222.22 102.6l10.037-3.7937-10.577-14.566-6.7457 2.5496 7.2859 15.81 7.0719 16.748-14.358 3.0797-3.6052-17.492 10.891-2.3361"/>
 <path d="m207.5 72.066l3.3892-1.281-10.891-12.207 7.5019 13.488 7.4297 14.72-7.3195 1.57-3.7876-15.501 3.6775-0.78881"/>
 <path d="m317.59 361.72m-31.695 18.897"/>
 <path d="m324.72 354.86l21.936-18.9 6.9774-9.2493-22.979 19.799-5.9338 8.3501-7.1349 6.8588-25.2 14.624 5.6059-5.9714 26.729-15.511"/>
 <path d="m335.33 336.75l23.802-20.508 3.9653-11.589-24.395 21.019-3.3722 11.078-4.6755 9.7611-28 16.249 3.6735-9.1796 29.002-16.83"/>
 <path d="m340.74 313.38l24.753-21.327 0.80075-13.483-24.873 21.431-0.68098 13.38-2.0364 12.288-29.725 17.25 1.6-12.035 30.161-17.503"/>
 <path d="m340.74 285.66l24.753-21.327-2.3945-14.86-24.395 21.019 2.0364 15.168 0.68098 14.343-30.307 17.588-0.53504-14.428 30.161-17.503"/>
 <path d="m335.33 254.64l23.802-20.508-5.4978-15.665-22.979 19.799 4.6755 16.373 3.3722 15.847-29.725 17.25-2.6495-16.266 29.002-16.83"/>
 <path d="m324.72 221.53l21.936-18.9-8.3898-15.868-20.681 17.819 7.1349 16.949 5.9338 16.742-28 16.249-4.6622-17.48 26.729-15.511"/>
 <path d="m309.32 187.58l19.227-16.566-10.959-15.461-17.588 15.154 9.3202 16.874 8.2674 16.993-25.2 14.624-6.4956-18.021 23.428-13.595"/>
 <path d="m289.72 154.12l15.779-13.595-13.108-14.46-13.818 11.906 11.147 16.15 10.283 16.592-21.431 12.436-8.0795-17.87 19.227-11.157"/>
 <path d="m266.67 122.42l11.725-10.102-14.752-12.904-9.5183 8.2011 12.546 14.805 11.904 15.552-16.838 9.7711-9.3529-17.033 14.287-8.2907"/>
 <path d="m241.05 93.697l7.2201-6.2209-15.83-10.852-4.8524 4.1809 13.463 12.892 13.067 13.915-11.598 6.7305-10.267-15.54 8.7977-5.1054"/>
 <path d="m213.86 69.061l2.4379-2.1006-16.3-8.3821 13.862 10.483 13.728 11.744-5.9127 3.4312-10.786-13.451 2.9706-1.7239"/>
 <path d="m346.66 335.96"/>
 <path d="m376.82 292.84m4.406-12.172l-4.406 12.172m-23.184 33.867l5.4978-10.47 17.686-23.397"/>
 <path d="m383.89 267.72l11.326-26.402 0.94455-13.729-11.381 26.53-0.88975 13.601-2.6607 12.949-18.127 23.98 2.3945-12.597 18.393-24.332"/>
 <path d="m383.89 240l11.326-26.402-2.8246-14.126-11.162 26.02 2.6607 14.508 0.88975 14.122-18.482 24.45-0.80075-14.24 18.393-24.332"/>
 <path d="m376.82 210.74l10.891-25.387-6.4851-13.979-10.515 24.51 6.1088 14.856 4.406 14.753-18.127 23.98-3.9653-15.336 17.686-23.397"/>
 <path d="m362.96 181.06l10.037-23.397-9.8964-13.296-9.4631 22.059 9.3222 14.634 7.7529 14.817-17.075 22.589-6.9774-15.843 16.3-21.563"/>
 <path d="m342.83 152.12l8.7977-20.508-12.927-12.102-8.0477 18.759 12.177 13.85 10.802 14.311-15.367 20.329-9.7214-15.74 14.287-18.9"/>
 <path d="m317.22 125.01l7.2201-16.83-15.462-10.442-6.323 14.739 14.565 12.533 13.436 13.255-13.069 17.289-12.092-15.033 11.725-15.511"/>
 <path d="m287.1 100.79l5.365-12.506-17.402-8.3814-4.3554 10.152 16.392 10.735 15.553 11.69-10.268 13.584-13.998-13.748 8.7123-11.526"/>
 <path d="m253.64 80.378l3.3038-7.7012-18.673-5.9986-2.2204 5.1757 17.59 8.5241 17.073 9.6761-7.0727 9.3566-15.365-11.935 5.365-7.0974"/>
 <path d="m218.11 64.564l1.1155-2.6004-19.227-3.3853 18.111 5.9856 17.937 7.29-3.6057 4.7699-16.143-9.6634 1.8116-2.3965"/>
 <path d="m400 200m-4.7875 41.319"/>
 <path d="m399.04 186.14m-6.649-40.788l3.7691 27.06 2.8799 13.728 0.96306 13.862-3.8429 27.59-0.94455-13.995 3.8244-27.457"/>
 <path d="m391.39 158.95l-3.6775-26.402-6.4851-12.155 3.5504 25.49 6.6122 13.067 4.769 13.463-3.7691 27.06-4.6774-14.12 3.6775-26.402"/>
 <path d="m376.38 133.33l-3.3892-24.332-9.8964-10.512 3.1953 22.94 10.09 11.904 8.3917 12.546-3.5504 25.49-8.2304-13.704 3.3892-24.332"/>
 <path d="m354.6 110.28l-2.9706-21.327-12.927-8.465 2.7174 19.509 13.181 10.283 11.692 11.147-3.1953 22.94-11.467-12.76 2.9706-21.327"/>
 <path d="m326.88 90.68l-2.4379-17.503-15.462-6.0926 2.135 15.328 15.765 8.2674 14.543 9.3202-2.7174 19.509-14.263-11.326 2.4379-17.503"/>
 <path d="m294.28 75.277l-1.8116-13.006-17.402-3.4862 1.4706 10.558 17.743 5.9338 16.835 7.1349-2.135 15.328-16.511-9.4573 1.8116-13.006"/>
 <path d="m258.06 64.668l-1.1155-8.0089-18.673-0.74578 0.74972 5.3825 19.039 3.3722 18.48 4.6755-1.4706 10.558-18.125-7.2248 1.1155-8.0089"/>
 <path d="m219.6 59.26l-0.37667-2.7043-19.227 2.0233 19.603 0.68098 19.415 2.0364-0.74972 5.3825-19.042-4.7146 0.37667-2.7043"/>
 <path d="m370.71 95.88m21.677 49.47l-4.6774-12.805"/>
 <path d="m362.96 85.605m-24.689-29.503l15.367 20.329 9.3222 9.1735 7.7529 10.275 10.515 24.51-8.2304-11.388-10.037-23.397"/>
 <path d="m342.83 68.448l-14.287-18.9-10.959-5.1052 13.069 17.289 12.177 6.7166 10.802 7.9835 9.4631 22.059-11.467-9.5344-8.7977-20.508"/>
 <path d="m317.22 56.347l-11.725-15.511-13.108-2.0743 10.268 13.584 14.565 4.0015 13.436 5.385 8.0477 18.759-14.263-7.314-7.2201-16.83"/>
 <path d="m287.1 49.766l-8.7123-11.526-14.752 1.0364 7.0727 9.3566 16.392 1.1327 15.553 2.5795 6.323 14.739-16.511-4.8126-5.365-12.506"/>
 <path d="m253.64 48.958l-5.365-7.0974-15.83 4.1072 3.6057 4.7699 17.59-1.7797 17.073-0.32508 4.3554 10.152-18.125-2.1262-3.3038-7.7012"/>
 <path d="m218.11 53.955l-1.8116-2.3965-16.3 7.0202 18.111-4.6237 17.937-3.2172 2.2204 5.1757-19.042 0.64185-1.1155-2.6004"/>
 <path d="m309.32 32.982m-30.751-16.129l21.431 12.436 9.3202 3.6929m28.948 23.12l-9.7214-6.5542-19.227-16.566"/>
 <path d="m289.72 27.24l-19.227-11.157-8.7583 1.0012 16.838 9.7711 11.147 0.38507 10.283 2.0488 17.588 15.154-12.092-3.6071-15.779-13.595"/>
 <path d="m266.67 28.138l-14.287-8.2907-9.8573 4.4978 11.598 6.7305 12.546-2.9375 11.904-1.2824 13.818 11.906-13.998-0.52147-11.725-10.102"/>
 <path d="m241.05 35.64l-8.7977-5.1054-10.577 7.8215 5.9127 3.4312 13.463-6.1473 13.067-4.5644 9.5183 8.2011-15.365 2.5842-7.2201-6.2209"/>
 <path d="m213.86 49.458l-2.9706-1.7239-10.891 10.845 13.862-9.1207 13.728-7.6709 4.8524 4.1809-16.143 5.5906-2.4379-2.1006"/>
 <path d="m227.59 1.9215l26.53 5.6906"/>
 <path d="m248.55 7.7923l-23.802-5.1054-3.0755 2.6657 20.844 4.4711 6.0329-2.0314 5.5652-0.18029 24.45 9.241-8.0795-0.76998-21.936-8.2907"/>
 <path d="m236.08 13.687l-17.686-3.7937-3.4614 6.3711 14.358 3.0797 6.7898-5.6572 6.4424-3.8629 19.21 7.2606-9.3529 2.7628-16.3-6.1606"/>
 <path d="m222.22 26.741l-10.891-2.3361-3.7143 9.8317 7.3195 1.57 7.2859-9.0656 7.0719-7.397 13.232 5.0012-10.267 6.1894-10.037-3.7937"/>
 <path d="m207.5 46.453l-3.6775-0.78881-3.8244 12.914 7.5019-12.126 7.4297-10.647 6.7457 2.5496-10.786 9.3782-3.3892-1.281"/>
 <path d="m172.41 1.9215"/>
 <path d="m200 0.96306l-24.753 1.7239 3.0755 2.6657 21.677-1.5097v-2.8799m27.59 0.95842l-2.8371 0.76546-24.753-1.7239"/>
 <path d="m200 8.6119l-18.393 1.281 3.4614 6.3711 14.932-1.0399v-11.381l21.677 1.5097-3.2843 4.5403-18.393-1.281"/>
 <path d="m200 23.616l-11.326 0.78881 3.7143 9.8317 7.612-0.53013v-18.482l14.932 1.0399-3.6052 8.1406-11.326-0.78881"/>
 <path d="m200 45.398l-3.8244 0.26635 3.8244 12.914v-24.873l7.612 0.53013-3.7876 11.428-3.8244-0.26635"/>
 <path d="m121.43 16.853l24.45-9.241"/>
 <path d="m151.45 7.7923l-21.936 8.2907 8.7583 1.0012 19.21-7.2606-6.0329-2.0314-5.5652-0.18029 26.53-5.6906 2.8371 0.76546-23.802 5.1054"/>
 <path d="m163.92 13.687l-16.3 6.1606 9.8573 4.4978 13.232-5.0012-6.7898-5.6572-6.4424-3.8629 20.844-4.4711 3.2843 4.5403-17.686 3.7937"/>
 <path d="m177.78 26.741l-10.037 3.7937 10.577 7.8215 6.7457-2.5496-7.2859-9.0656-7.0719-7.397 14.358-3.0797 3.6052 8.1406-10.891 2.3361"/>
 <path d="m192.5 46.453l-3.3892 1.281 10.891 10.845-7.5019-12.126-7.4297-10.647 7.3195-1.57 3.7876 11.428-3.6775 0.78881"/>
 <path d="m61.732 56.102"/>
 <path d="m90.68 32.982l-19.227 16.566 10.959-5.1052 17.588-15.154-9.3202 3.6929"/>
 <path d="m110.28 27.24l-15.779 13.595 13.108-2.0743 13.818-11.906-11.147 0.38507-10.283 2.0488 21.431-12.436 8.0795-0.76998-19.227 11.157"/>
 <path d="m133.33 28.138l-11.725 10.102 14.752 1.0364 9.5183-8.2011-12.546-2.9375-11.904-1.2824 16.838-9.7711 9.3529 2.7628-14.287 8.2907"/>
 <path d="m158.95 35.64l-7.2201 6.2209 15.83 4.1072 4.8524-4.1809-13.463-6.1473-13.067-4.5644 11.598-6.7305 10.267 6.1894-8.7977 5.1054"/>
 <path d="m186.14 49.458l-2.4379 2.1006 16.3 7.0202-13.862-9.1207-13.728-7.6709 5.9127-3.4312 10.786 9.3782-2.9706 1.7239"/>
 <path d="m7.612 145.35"/>
 <path d="m12.289 132.55l6.4851-12.155 10.515-24.51"/>
 <path d="m37.042 85.605l-10.037 23.397 9.8964-10.512 9.4631-22.059-9.3222 9.1735-7.7529 10.275m7.7529-10.275"/>
 <path d="m57.166 68.448l-8.7977 20.508 12.927-8.465 8.0477-18.759-12.177 6.7166-10.802 7.9835 15.367-20.329 9.7214-6.5542-14.287 18.9"/>
 <path d="m82.779 56.347l-7.2201 16.83 15.462-6.0926 6.323-14.739-14.565 4.0015-13.436 5.385 13.069-17.289 12.092-3.6071-11.725 15.511"/>
 <path d="m112.9 49.766l-5.365 12.506 17.402-3.4862 4.3554-10.152-16.392 1.1327-15.553 2.5795 10.268-13.584 13.998-0.52147-8.7123 11.526"/>
 <path d="m146.36 48.958l-3.3038 7.7012 18.673-0.74578 2.2204-5.1757-17.59-1.7797-17.073-0.32508 7.0727-9.3566 15.365 2.5842-5.365 7.0974"/>
 <path d="m181.89 53.955l-1.1155 2.6004 19.227 2.0233-18.111-4.6237-17.937-3.2172 3.6057-4.7699 16.143 5.5906-1.8116 2.3965"/>
 <path d="m4.7875 241.32l-0.94455-13.729"/>
 <path d="m0.96306 186.14l3.8244 27.457 2.8246-14.126-3.7691-27.06-2.8799 13.728"/>
 <path d="m8.6119 158.95l3.6775 26.402 6.4851-13.979-3.5504-25.49-6.6122 13.067-4.769 13.463 3.7691-27.06 4.6774-12.805-3.6775 26.402"/>
 <path d="m23.616 133.33l3.3892 24.332 9.8964-13.296-3.1953-22.94-10.09 11.904-8.3917 12.546 3.5504-25.49 8.2304-11.388-3.3892 24.332"/>
 <path d="m45.398 110.28l2.9706 21.327 12.927-12.102-2.7174-19.509-13.181 10.283-11.692 11.147 3.1953-22.94 11.467-9.5344-2.9706 21.327"/>
 <path d="m73.121 90.68l2.4379 17.503 15.462-10.442-2.135-15.328-15.765 8.2674-14.543 9.3202 2.7174-19.509 14.263-7.314-2.4379 17.503"/>
 <path d="m105.72 75.277l1.8116 13.006 17.402-8.3814-1.4706-10.558-17.743 5.9338-16.835 7.1349 2.135-15.328 16.511-4.8126-1.8116 13.006"/>
 <path d="m141.94 64.668l1.1155 8.0089 18.673-5.9986-0.74972-5.3825-19.039 3.3722-18.48 4.6755 1.4706-10.558 18.125-2.1262-1.1155 8.0089"/>
 <path d="m180.4 59.26l0.37667 2.7043 19.227-3.3853-19.603 0.68098-19.415 2.0364 0.74972-5.3825 19.042 0.64185-0.37667 2.7043"/>
 <path d="m53.342 335.96l-6.9774-9.2493"/>
 <path d="m23.18 292.84l17.686 23.397-3.9653-11.589-18.127-23.98 4.406 12.172"/>
 <path d="m16.114 267.72l18.393 24.332-0.80075-13.483-18.482-24.45 0.88975 13.601 2.6607 12.949m-13.987-39.351l11.326 26.402"/>
 <path d="m16.114 240l18.393 24.332 2.3945-14.86-18.127-23.98-2.6607 14.508-0.88975 14.122-11.381-26.53 0.94455-13.995 11.326 26.402"/>
 <path d="m23.18 210.74l17.686 23.397 5.4978-15.665-17.075-22.589-6.1088 14.856-4.406 14.753-11.162-26.02 4.6774-14.12 10.891 25.387"/>
 <path d="m37.042 181.06l16.3 21.563 8.3898-15.868-15.367-20.329-9.3222 14.634-7.7529 14.817-10.515-24.51 8.2304-13.704 10.037 23.397"/>
 <path d="m57.166 152.12l14.287 18.9 10.959-15.461-13.069-17.289-12.177 13.85-10.802 14.311-9.4631-22.059 11.467-12.76 8.7977 20.508"/>
 <path d="m82.779 125.01l11.725 15.511 13.108-14.46-10.268-13.584-14.565 12.533-13.436 13.255-8.0477-18.759 14.263-11.326 7.2201 16.83"/>
 <path d="m112.9 100.79l8.7123 11.526 14.752-12.904-7.0727-9.3566-16.392 10.735-15.553 11.69-6.323-14.739 16.511-9.4573 5.365 12.506"/>
 <path d="m146.36 80.378l5.365 7.0974 15.83-10.852-3.6057-4.7699-17.59 8.5241-17.073 9.6761-4.3554-10.152 18.125-7.2248 3.3038 7.7012"/>
 <path d="m181.89 64.564l1.8116 2.3965 16.3-8.3821-18.111 5.9856-17.937 7.29-2.2204-5.1757 19.042-4.7146 1.1155 2.6004"/>
 <path d="m114.11 380.61l-6.4956-4.2732-25.2-14.624"/>
 <path d="m75.277 354.86l26.729 15.511-4.6622-7.6122-28-16.249 5.9338 8.3501 7.1349 6.8588m-29.071-25.759l21.936 18.9"/>
 <path d="m64.668 336.75l29.002 16.83-2.6495-10.659-29.725-17.25 3.3722 11.078 4.6755 9.7611-22.979-19.799-5.4978-10.47 23.802 20.508"/>
 <path d="m59.26 313.38l30.161 17.503-0.53504-13.296-30.307-17.588 0.68098 13.38 2.0364 12.288-24.395-21.019-2.3945-12.597 24.753 21.327"/>
 <path d="m59.26 285.66l30.161 17.503 1.6-15.421-29.725-17.25-2.0364 15.168-0.68098 14.343-24.873-21.431 0.80075-14.24 24.753 21.327"/>
 <path d="m64.668 254.64l29.002 16.83 3.6735-16.955-28-16.249-4.6755 16.373-3.3722 15.847-24.395-21.019 3.9653-15.336 23.802 20.508"/>
 <path d="m75.277 221.53l26.729 15.511 5.6059-17.836-25.2-14.624-7.1349 16.949-5.9338 16.742-22.979-19.799 6.9774-15.843 21.936 18.9"/>
 <path d="m90.68 187.58l23.428 13.595 7.3228-18.033-21.431-12.436-9.3202 16.874-8.2674 16.993-20.681-17.819 9.7214-15.74 19.227 16.566"/>
 <path d="m110.28 154.12l19.227 11.157 8.7583-17.536-16.838-9.7711-11.147 16.15-10.283 16.592-17.588-15.154 12.092-15.033 15.779 13.595"/>
 <path d="m133.33 122.42l14.287 8.2907 9.8573-16.365-11.598-6.7305-12.546 14.805-11.904 15.552-13.818-11.906 13.998-13.748 11.725 10.102"/>
 <path d="m158.95 93.697l8.7977 5.1054 10.577-14.566-5.9127-3.4312-13.463 12.892-13.067 13.915-9.5183-8.2011 15.365-11.935 7.2201 6.2209"/>
 <path d="m186.14 69.061l2.9706 1.7239 10.891-12.207-13.862 10.483-13.728 11.744-4.8524-4.1809 16.143-9.6634 2.4379 2.1006"/>
 <path d="m140.84 390.72l29.002 6.2209-2.281-3.0387-31.196-6.6914 4.4743 3.5092m-26.729-10.102l26.729 10.102"/>
 <path d="m132.5 381.89l33.088 7.0974-1.6371-6.7262-34.663-7.4351 3.2113 7.0638 3.8614 5.3121-28.75-10.866-5.6059-5.9714 30.495 11.526"/>
 <path d="m126.76 366.08l35.903 7.7012-0.93038-10.155-36.798-7.8931 1.825 10.347 2.5304 8.7476-31.945-12.074-3.6735-9.1796 33.088 12.506"/>
 <path d="m123.83 343.89l37.338 8.0089-0.18788-13.194-37.519-8.0477 0.36854 13.233 1.1021 11.847-33.913-12.818-1.6-12.035 34.411 13.006"/>
 <path d="m123.83 316.17l37.338 8.0089 0.56184-15.725-36.798-7.8931-1.1021 15.61-0.36854 14.491-34.577-13.069 0.53504-14.428 34.411 13.006"/>
 <path d="m126.76 283.98l35.903 7.7012 1.29-17.653-34.663-7.4351-2.5304 17.387-1.825 16.578-33.913-12.818 2.6495-16.266 33.088 12.506"/>
 <path d="m132.5 248.56l33.088 7.0974 1.9685-18.902-31.196-6.6914-3.8614 18.496-3.2113 18.028-31.945-12.074 4.6622-17.48 30.495 11.526"/>
 <path d="m140.84 211.28l29.002 6.2209 2.5714-19.424-26.53-5.6906-5.044 18.894-4.4743 18.785-28.75-10.866 6.4956-18.021 26.729 10.102"/>
 <path d="m151.45 173.57l23.802 5.1054 3.0755-19.2-20.844-4.4711-6.0329 18.566-5.5652 18.821-24.45-9.241 8.0795-17.87 21.936 8.2907"/>
 <path d="m163.92 136.87l17.686 3.7937 3.4614-18.239-14.358-3.0797-6.7898 17.525-6.4424 18.133-19.21-7.2606 9.3529-17.033 16.3 6.1606"/>
 <path d="m177.78 102.6l10.891 2.3361 3.7143-16.576-7.3195-1.57-7.2859 15.81-7.0719 16.748-13.232-5.0012 10.267-15.54 10.037 3.7937"/>
 <path d="m192.5 72.066l3.6775 0.78881 3.8244-14.276-7.5019 13.488-7.4297 14.72-6.7457-2.5496 10.786-13.451 3.3892 1.281"/>
</svg>
