<?xml version="1.0" encoding="UTF-8"?>
<svg viewBox="0 0 640 480" xmlns="http://www.w3.org/2000/svg">
 <defs>
  <filter id="e" color-interpolation-filters="sRGB">
   <feGaussianBlur stdDeviation="6"/>
   <feGaussianBlur stdDeviation="6"/>
  </filter>
  <linearGradient id="h" y2="1">
   <stop stop-color="#bf0000" offset="0"/>
   <stop stop-color="#cc0606" offset="1"/>
  </linearGradient>
  <linearGradient id="g" y2="1">
   <stop stop-color="#7f0000" offset="0"/>
   <stop stop-color="#cc0606" offset="1"/>
  </linearGradient>
  <linearGradient id="f" y2="1">
   <stop stop-color="#f00" offset="0"/>
   <stop stop-color="#bf0000" offset="1"/>
  </linearGradient>
 </defs>
 <g fill="none" stroke="url(#h)" stroke-linecap="round" stroke-linejoin="round" stroke-width="24">
  <path d="m50.85 280.57s-16.312-241.96 181.08-241.96 179.08 241.96 179.08 241.96"/>
  <path d="m50.85 280.57s-16.312-241.96 181.08-241.96 179.08 241.96 179.08 241.96" filter="url(#e)" opacity=".5"/>
 </g>
 <path d="m35.074 244.73l388.72 0.56-57.131 194.92-269.97 0.561-61.612-196.04z" fill="#bf0000" stroke="url(#f)"/>
 <g fill="#bf0000" stroke="#f70c0c" stroke-linecap="round" stroke-linejoin="round" stroke-width="16">
  <path d="m232.21 231.81l-0.5601 203.66"/>
  <path d="m32.767 232.21l57.2 203.98"/>
  <path d="m134.45 231.57l27.2 205.1"/>
  <path d="m429.41 228.85l-56.079 206.78"/>
  <path d="m331.09 230.45l-28.878 207.16"/>
 </g>
 <g fill="none" stroke="url(#g)" stroke-linecap="round" stroke-linejoin="round">
  <g stroke-width="11.877">
   <path d="m157.5 433.81s26.258 10 39.701 10 39.701-10 39.701-10"/>
   <path d="m228.39 433.81s26.258 10 39.701 10 39.701-10 39.701-10"/>
   <path d="m299.29 433.81s26.258 10 39.701 10 39.701-10 39.701-10"/>
   <path d="m86.602 433.81s26.258 10 39.701 10 39.701-10 39.701-10"/>
  </g>
  <g stroke-width="13.379">
   <path d="m191.91 427.59s27 7.4795 40.824 7.4795c13.823 0 40.824-7.4795 40.824-7.4795"/>
   <path d="m266.59 427.59s27 7.4795 40.824 7.4795c13.823 0 40.824-7.4795 40.824-7.4795"/>
   <path d="m129.17 427.59s27 7.4795 40.824 7.4795c13.823 0 40.824-7.4795 40.824-7.4795"/>
   <path d="m81.694 427.59s17.809 7.4795 27.217 7.4795c9.4076 0 27.217-7.4795 27.217-7.4795"/>
   <path d="m382.6 427.59s-17.809 7.4795-27.217 7.4795c-9.4076 0-27.217-7.4795-27.217-7.4795"/>
  </g>
  <g stroke-width="11.58">
   <path d="m153.59 417.81s27.623 10 41.764 10c14.142 0 41.764-10 41.764-10"/>
   <path d="m228.17 417.81s27.623 10 41.764 10c14.142 0 41.764-10 41.764-10"/>
   <path d="m302.75 417.81s27.623 10 41.764 10c14.142 0 41.764-10 41.764-10"/>
   <path d="m79.013 417.81s27.623 10 41.764 10c14.142 0 41.764-10 41.764-10"/>
  </g>
  <g stroke-width="11.421">
   <path d="m190.84 407.81s27.713 10 41.901 10 41.901-10 41.901-10"/>
   <path d="m267.5 407.81s27.713 10 41.901 10 41.901-10 41.901-10"/>
   <path d="m126.45 407.81s27.713 10 41.901 10 41.901-10 41.901-10"/>
   <path d="m77.723 407.81s18.279 10 27.935 10c9.6559 0 27.935-10 27.935-10"/>
   <path d="m386.57 407.81s-18.279 10-27.935 10c-9.6559 0-27.935-10-27.935-10"/>
  </g>
  <g stroke-width="11.419">
   <path d="m151.36 397.81s28.404 10 42.946 10 42.946-10 42.946-10"/>
   <path d="m228.05 397.81s28.404 10 42.946 10 42.946-10 42.946-10"/>
   <path d="m304.74 397.81s28.404 10 42.946 10 42.946-10 42.946-10"/>
   <path d="m74.665 397.81s28.404 10 42.946 10 42.946-10 42.946-10"/>
  </g>
  <g stroke-width="11.095">
   <path d="m188.38 383.81s29.368 10 44.404 10 44.404-10 44.404-10"/>
   <path d="m269.61 383.81s29.368 10 44.404 10c15.035 0 44.404-10 44.404-10"/>
   <path d="m120.14 383.81s29.368 10 44.404 10c15.035 0 44.404-10 44.404-10"/>
   <path d="m68.5 383.81s19.371 10 29.604 10 29.604-10 29.604-10"/>
   <path d="m395.79 383.81s-19.371 10-29.604 10-29.604-10-29.604-10"/>
  </g>
  <g stroke-width="11.145">
   <path d="m147.31 371.81s29.818 10 45.084 10 45.084-10 45.084-10"/>
   <path d="m227.82 371.81s29.818 10 45.084 10 45.084-10 45.084-10"/>
   <path d="m308.32 371.81s29.818 10 45.084 10 45.084-10 45.084-10"/>
   <path d="m66.8 371.81s29.818 10 45.084 10 45.084-10 45.084-10"/>
  </g>
  <g stroke-width="10.892">
   <path d="m186.73 357.81s30.473 10 46.074 10 46.074-10 46.074-10"/>
   <path d="m271.02 357.81s30.473 10 46.074 10 46.074-10 46.074-10"/>
   <path d="m115.92 357.81s30.473 10 46.074 10 46.074-10 46.074-10"/>
   <path d="m62.345 357.81s20.099 10 30.717 10 30.717-10 30.717-10"/>
   <path d="m401.95 357.81s-20.099 10-30.717 10c-10.617 0-30.717-10-30.717-10"/>
  </g>
  <g stroke-width="10.905">
   <path d="m143.52 345.81s31.143 10 47.087 10 47.087-10 47.087-10"/>
   <path d="m227.6 345.81s31.143 10 47.087 10 47.087-10 47.087-10"/>
   <path d="m311.69 345.81s31.143 10 47.087 10 47.087-10 47.087-10"/>
   <path d="m59.434 345.81s31.143 10 47.087 10 47.087-10 47.087-10"/>
  </g>
  <g stroke-width="10.7">
   <path d="m185.08 331.81s31.579 10 47.746 10 47.746-10 47.746-10"/>
   <path d="m272.43 331.81s31.579 10 47.746 10 47.746-10 47.746-10"/>
   <path d="m111.71 331.81s31.579 10 47.746 10 47.746-10 47.746-10"/>
   <path d="m56.184 331.81s20.829 10 31.832 10 31.831-10 31.831-10"/>
   <path d="m408.11 331.81s-20.829 10-31.832 10-31.832-10-31.832-10"/>
  </g>
  <g stroke-width="10.657">
   <path d="m139.31 319.81s32.614 10 49.311 10 49.311-10 49.311-10"/>
   <path d="m227.36 319.81s32.614 10 49.311 10 49.311-10 49.311-10"/>
   <path d="m315.42 319.81s32.614 10 49.311 10 49.311-10 49.311-10"/>
   <path d="m51.252 319.81s32.614 10 49.311 10 49.311-10 49.311-10"/>
  </g>
  <g stroke-width="10.495">
   <path d="m183.23 303.81s32.824 10 49.629 10 49.629-10 49.629-10"/>
   <path d="m274.02 303.81s32.824 10 49.629 10 49.629-10 49.629-10"/>
   <path d="m106.96 303.81s32.824 10 49.629 10 49.629-10 49.629-10"/>
   <path d="m49.244 303.81s21.65 10 33.087 10 33.087-10 33.087-10"/>
   <path d="m415.05 303.81s-21.65 10-33.087 10-33.087-10-33.087-10"/>
  </g>
  <g stroke-width="10.469">
   <path d="m135.93 291.81s33.794 10 51.094 10c17.301 0 51.094-10 51.094-10"/>
   <path d="m227.17 291.81s33.794 10 51.094 10c17.301 0 51.094-10 51.094-10"/>
   <path d="m318.41 291.81s33.794 10 51.094 10c17.301 0 51.094-10 51.094-10"/>
   <path d="m44.692 291.81s33.794 10 51.094 10c17.301 0 51.094-10 51.094-10"/>
  </g>
  <g stroke-width="10.218">
   <path d="m180.54 275.81s34.625 10 52.352 10 52.352-10 52.352-10"/>
   <path d="m276.32 275.81s34.625 10 52.352 10 52.352-10 52.352-10"/>
   <path d="m100.09 275.81s34.625 10 52.352 10 52.352-10 52.352-10"/>
   <path d="m39.207 275.81s22.838 10 34.903 10c12.064 0 34.902-10 34.902-10"/>
   <path d="m425.08 275.81s-22.838 10-34.902 10-34.902-10-34.902-10"/>
  </g>
  <g stroke-width="10.248">
   <path d="m131.71 263.81s35.268 10 53.324 10 53.324-10 53.324-10"/>
   <path d="m226.93 263.81s35.268 10 53.324 10 53.324-10 53.324-10"/>
   <path d="m322.16 263.81s35.268 10 53.324 10 53.324-10 53.324-10"/>
   <path d="m36.49 263.81s35.268 10 53.324 10 53.324-10 53.324-10"/>
  </g>
  <g stroke-width="10">
   <path d="m178.27 247.81s36.151 10 54.659 10 54.659-10 54.659-10"/>
   <path d="m278.27 247.81s36.151 10 54.659 10 54.659-10 54.659-10"/>
   <path d="m94.267 247.81s36.151 10 54.659 10 54.659-10 54.659-10"/>
   <path d="m30.705 247.81s23.845 10 36.441 10 36.441-10 36.441-10"/>
   <path d="m433.59 247.81s-23.845 10-36.441 10-36.441-10-36.441-10"/>
  </g>
  <g stroke-width="12.422">
   <path d="m131.72 239.18s35.265-6.8063 53.319-6.8063 53.319 6.8063 53.319 6.8063"/>
   <path d="m226.93 239.18s35.265-6.8063 53.319-6.8063 53.319 6.8063 53.319 6.8063"/>
   <path d="m322.15 239.18s35.265-6.8063 53.319-6.8063 53.319 6.8063 53.319 6.8063"/>
   <path d="m36.509 239.18s35.265-6.8063 53.319-6.8063 53.319 6.8063 53.319 6.8063"/>
  </g>
  <g stroke-width="10.122">
   <path d="m129.18 235.81s36.151 10 54.659 10 54.659-10 54.659-10"/>
   <path d="m226.79 235.81s36.151 10 54.659 10 54.659-10 54.659-10"/>
   <path d="m324.4 235.81s36.151 10 54.659 10 54.659-10 54.659-10"/>
   <path d="m31.579 235.81s36.151 10 54.659 10 54.659-10 54.659-10"/>
  </g>
 </g>
</svg>
