<?xml version="1.0" encoding="UTF-8"?>
<svg viewBox="0 0 160 160" xmlns="http://www.w3.org/2000/svg">
 <g fill-rule="evenodd">
  <g stroke="#000">
   <path d="m142.59 108.36c0 12.471-29.23 22.592-65.244 22.592-36.015 0-65.244-10.121-65.244-22.592s29.23-22.592 65.244-22.592c36.015 0 65.244 10.121 65.244 22.592z" fill="#48078e" stroke-width="1.77"/>
   <path d="m77.344 42.674c-31.241 0-56.596 9.0653-56.596 20.235 0 0.51825 0.21519 39.444 0.21519 39.698 0 11.17 25.355 20.235 56.596 20.235s56.596-9.0653 56.596-20.235l-0.2152-38.926v-0.77233c0-11.17-25.355-20.235-56.596-20.235z" fill="#7f00ff" stroke-width="1.453"/>
  </g>
  <path d="m19.026 58.533c-0.46232 4.1538-4.4212 15.395 3.5646 13.638 7.9707 0.62704-0.12403 13.694 8.2458 14.206 6.8012 0.5163 1.0697-10.292 7.2426-7.0147 6.294 1.2625 5.4833 7.4714 6.3386 11.67 4.1582 3.3265 5.5084-2.502 4.2341-5.1926 3.122-4.5287 11.814-2.6015 16.329-0.91244 2.5156 4.586 4.2966 14.048 12.239 11.482 5.2935-1.6067 7.6111-11.266 13-12.126 5.3889-0.86082 5.2043 11.751 10.577 6.451 1.4646-4.3211 9.3014-12.107 14.1-6.9098 4.834 4.445 12.224 1.1062 10.427-6.5267 2.5912-4.5173 10.15 1.8381 10.166-10.59 1.163-5.8649 0.21074-11.3-7.8599-16.026-4.8835-2.3373-12.126-3.4536-19.226-6.3616-7.6986-2.7048-14.924-4.1606-23.042-5.2983-14.164-0.2412-25.948 1.4304-39.863 4.0771-6.5695 0.78437-11.245 4.8827-17.236 6.8992-3.7734 1.7348-7.6543 5.2256-9.2376 8.5341z" fill="#aaf" stroke="#ff56ff" stroke-width="1.644"/>
  <g stroke-width="1.25">
   <path d="m22.469 64.418c0 5.1479 5.1181 4.273 8.1774 7.0616 2.9897 1.3626 5.0061 2.3539 8.6078 2.3539 5.1063 0-0.6503-1.6695-2.1519-2.3539-3.5433 0-9.0381-1.8703-9.0381-5.1001-2.1234-1.9356-2.4755-1.9616-5.595-1.9616z" fill="#fff" fill-opacity=".8"/>
   <g fill="#3f007f">
    <path d="m52.166 75.402c1.3445 2.4511 7.7975 3.5308 13.342 3.5308 2.9369 1.3386 15.494 2.4461 15.494-1.5692 0-3.0179-7.9435-0.78463-9.4685-0.78463-2.7078 0-13.789-3.5153-15.494-1.9616-1.6578 0-2.0475 0.11887-3.8735 0.78463z"/>
    <path d="m90.04 76.58c3.1294 2.8526 13.67 1.0272 18.507-1.177 1.9098-1.1606 9.0381-1.8986 9.0381-4.3154 1.68-1.5314-6.2002-0.62528-7.3166 0.39232-5.4154 0-13.112 1.1769-19.367 1.1769-2.614 0-1.311 2.8973-0.86079 3.9231z"/>
   </g>
  </g>
  <path d="m126.02 71.265c1.4336-1.5658 4.7787-5.211 6.2591-8.4446 0-1.358 2.0832-6.0318-0.36818-6.0318-2.0767 0-4.4182 3.0214-4.4182 5.2276-0.96895 1.0583-0.024208 6.0318-2.2091 6.0318 0 3.1758-2.4403 3.217 0.73636 3.217z" fill="#fff" fill-opacity=".8" stroke-width="1.171"/>
  <g stroke-width="1.25">
   <g fill="#fff" fill-opacity=".8">
    <path d="m117.15 49.51c-3.4734 0-6.8128-1.732-10.76-3.5308-4.7426-1.0808-9.4593-3.1385-14.203-3.1385 0 5.6387 8.8853 9.0929 14.203 6.6693 3.9782 0 6.4006 1.9867 10.76 0z"/>
    <path d="m80.384 42.791c-1.2642-0.37318-8.0997-0.86457-12.237-0.29273-2.6528 0.36663-5.2603 1.1238-8.0204 1.5053-4.19 0.57908-4.5127 3.0045-0.038418 2.3861 4.4288-0.61208 8.7742-0.022247 13.385-0.65946 2.2828 1.5329 5.9902-1.4871 6.9113-2.9392z"/>
    <path d="m44.85 48.333c-1.9112 0-6.7618 2.3539-9.8989 2.3539-2.1572 0-9.4685 1.6416-9.4685 3.5308-2.7689 2.5239 7.7047-1.5693 11.62-1.5693 2.2684 0 6.4558 0.10611 6.4558-1.9616 1.5986 0 1.2912-1.0808 1.2912-2.3539z"/>
   </g>
   <path d="m31.077 61.672c2.5889 0 8.0425 0.78462 12.051 0.78462 2.0386-1.8583 7.3166 0.72683 7.3166-3.1385 0-0.81362-9.1194-1.5693-10.329-1.5693-1.6636 0-6.0939 0.84703-9.0381 3.9231z" fill="#f00"/>
   <g fill="#fff" fill-opacity=".8">
    <path d="m47.432 70.302l9.0381-8.2386c1.6766-1.5283 6.254 0.28812 1.7216 2.3539 0 2.4043-2.2117 4.3154-4.7343 4.3154-2.1124 1.9255-2.8178 1.5693-6.0254 1.5693z"/>
    <path d="m52.166 49.902c0 2.2558 10.329 2.9246 10.329 5.1001 3.1851 0 1.6683-4.3154-1.2912-4.3154-3.7642 0-5.3543-1.4562-9.0381-0.78463z"/>
    <path d="m85.306 45.979c-2.2524 2.0532-2.4097 7.0616-5.595 7.0616 0 4.5793 5.595 2.2311 5.595-0.78463 1.1636-1.0607 2.1519-5.0583 0-6.277z"/>
    <path d="m78.85 64.418c0 0.86378 1.7216 5.9974 1.7216 6.6693 3.483 1.5875 4.7343-1.3188 4.7343-3.9231-3.2432-2.9563 0.1794-7.9304-6.4558-2.7462z"/>
   </g>
   <path d="m119.74 52.648c-1.8393 0-14.329 1.799-15.494 3.9231 0 6.2277 8.7423 0.78463 12.912 0.78463 2.4328 0 2.9756-2.5571 2.5823-4.7078z" fill="#f00"/>
   <path d="m119.74 65.595c-2.7855-2.5391-7.6811-1.9616-11.62-1.9616-2.936 0-5.2835 2.7462-1.2912 2.7462 3.4126 0 6.1017 0.78463 9.8989 0.78463 1.7794 0 0.63673 0.16338 3.0127-1.5692z" fill="#fff" fill-opacity=".8"/>
  </g>
  <g transform="matrix(1.3772 0 0 1.2554 -92.376 -13.951)">
   <g stroke="#000" stroke-width=".888">
    <g fill="#ffaa56" stroke-linejoin="round">
     <path d="m116.37 29.657c1.0514 1.838 2.829 0.8628 4.7581 1.007 1.9575 0.16542 2.8138-1.1094 4.0071-1.5033 3.4758 2.1009 0.39681 4.9572 1.0796 8.575 0.04715 2.639 0.47596 6.8737 0.87924 9.6743 0.16399 2.2951-5.9276 2.4717-7.0865 1.4501-0.95726-0.58401-1.7015-2.4511-1.1022-4.6143 0.16158-2.6647-0.67876-4.053-1.17-6.6778 0.13565-3.224-3.3856-4.1677-1.3654-7.9109z"/>
     <path d="m116.37 29.314c0.77672 0.21407 2.4057 0.41147 3.1885 0.087879 0.87582 0 2.1233 0.26561 2.7633-0.26363 0.5009 0 1.9137-0.17575 2.5508-0.17575 0.80359 0-0.42513-0.27391-0.42513 0.43938-0.58964 0-1.071 0.44616-1.488 0.79088-0.36302 0.60031-1.412 0.61514-2.1257 0.61514-0.8317 0-1.8093-0.087881-2.6571-0.087881-0.78406 0-1.488-0.13622-1.8068-1.406z"/>
    </g>
    <path d="m118.28 13.76c1.488 1.6696 9.6717 12.83 1.488 13.445-11.053 1.3181-0.53141-9.5785-1.488-13.445z" fill="#ff0"/>
   </g>
   <g fill="#ffaa56">
    <path d="m119.33 18.318c0.7773 1.0418 4.521 8.1815 0.24588 8.5653-5.7742 0.82251 0.25381-6.1526-0.24588-8.5653z" stroke-width="1.25"/>
    <path d="m120.94 30.28c-1.6154-0.97216-2.272-2.6669-1.7336-3.5824 0.41654-0.99822 0.59512-3.2524 0.59512-4.6572" fill-opacity=".75" stroke="#000" stroke-width=".888"/>
   </g>
  </g>
  <g transform="matrix(1.3772 0 0 1.2554 -50.281 -.059237)" fill="#ffa">
   <g stroke="#000" stroke-width=".888">
    <g stroke-linejoin="round">
     <path d="m116.37 29.657c1.0514 1.838 2.829 0.8628 4.7581 1.007 1.9575 0.16542 2.8138-1.1094 4.0071-1.5033 3.4758 2.1009 0.39681 4.9572 1.0796 8.575 0.04715 2.639 0.47596 6.8737 0.87924 9.6743 0.16399 2.2951-5.9276 2.4717-7.0865 1.4501-0.95726-0.58401-1.7015-2.4511-1.1022-4.6143 0.16158-2.6647-0.67876-4.053-1.17-6.6778 0.13565-3.224-3.3856-4.1677-1.3654-7.9109z"/>
     <path d="m116.37 29.314c0.77672 0.21407 2.4057 0.41147 3.1885 0.087879 0.87582 0 2.1233 0.26561 2.7633-0.26363 0.5009 0 1.9137-0.17575 2.5508-0.17575 0.80359 0-0.42513-0.27391-0.42513 0.43938-0.58964 0-1.071 0.44616-1.488 0.79088-0.36302 0.60031-1.412 0.61514-2.1257 0.61514-0.8317 0-1.8093-0.087881-2.6571-0.087881-0.78406 0-1.488-0.13622-1.8068-1.406z"/>
    </g>
    <path d="m118.28 13.76c1.488 1.6696 9.6717 12.83 1.488 13.445-11.053 1.3181-0.53141-9.5785-1.488-13.445z"/>
   </g>
   <path d="m119.33 18.318c0.7773 1.0418 4.521 8.1815 0.24588 8.5653-5.7742 0.82251 0.25381-6.1526-0.24588-8.5653z" stroke-width="1.25"/>
   <path d="m120.94 30.28c-1.6154-0.97216-2.272-2.6669-1.7336-3.5824 0.41654-0.99822 0.59512-3.2524 0.59512-4.6572" fill-opacity=".75" stroke="#000" stroke-width=".888"/>
  </g>
  <g transform="matrix(-1.3429 .27842 .30544 1.2241 182.88 -32.728)">
   <g stroke="#000" stroke-width=".888">
    <g fill="#e579e5" stroke-linejoin="round">
     <path d="m116.37 29.657c1.0514 1.838 2.829 0.8628 4.7581 1.007 1.9575 0.16542 2.8138-1.1094 4.0071-1.5033 3.4758 2.1009 0.39681 4.9572 1.0796 8.575 0.04715 2.639 0.47596 6.8737 0.87924 9.6743 0.16399 2.2951-5.9276 2.4717-7.0865 1.4501-0.95726-0.58401-1.7015-2.4511-1.1022-4.6143 0.16158-2.6647-0.67876-4.053-1.17-6.6778 0.13565-3.224-3.3856-4.1677-1.3654-7.9109z"/>
     <path d="m116.37 29.314c0.77672 0.21407 2.4057 0.41147 3.1885 0.087879 0.87582 0 2.1233 0.26561 2.7633-0.26363 0.5009 0 1.9137-0.17575 2.5508-0.17575 0.80359 0-0.42513-0.27391-0.42513 0.43938-0.58964 0-1.071 0.44616-1.488 0.79088-0.36302 0.60031-1.412 0.61514-2.1257 0.61514-0.8317 0-1.8093-0.087881-2.6571-0.087881-0.78406 0-1.488-0.13622-1.8068-1.406z"/>
    </g>
    <path d="m118.28 13.76c1.488 1.6696 9.6717 12.83 1.488 13.445-11.053 1.3181-0.53141-9.5785-1.488-13.445z" fill="#ff0"/>
   </g>
   <path d="m119.33 18.318c0.7773 1.0418 4.521 8.1815 0.24588 8.5653-5.7742 0.82251 0.25381-6.1526-0.24588-8.5653z" fill="#ff0" stroke-width="1.25"/>
   <path d="m120.94 30.28c-1.6154-0.97216-2.272-2.6669-1.7336-3.5824 0.41654-0.99822 0.59512-3.2524 0.59512-4.6572" fill="#e579e5" fill-opacity=".75" stroke="#000" stroke-width=".888"/>
  </g>
  <g transform="matrix(-1.3444 .27245 .29889 1.2255 210.71 -20.697)">
   <g stroke="#000" stroke-width=".888">
    <g fill="#afa" stroke-linejoin="round">
     <path d="m116.37 29.657c1.0514 1.838 2.829 0.8628 4.7581 1.007 1.9575 0.16542 2.8138-1.1094 4.0071-1.5033 3.4758 2.1009 0.39681 4.9572 1.0796 8.575 0.04715 2.639 0.47596 6.8737 0.87924 9.6743 0.16399 2.2951-5.9276 2.4717-7.0865 1.4501-0.95726-0.58401-1.7015-2.4511-1.1022-4.6143 0.16158-2.6647-0.67876-4.053-1.17-6.6778 0.13565-3.224-3.3856-4.1677-1.3654-7.9109z"/>
     <path d="m116.37 29.314c0.77672 0.21407 2.4057 0.41147 3.1885 0.087879 0.87582 0 2.1233 0.26561 2.7633-0.26363 0.5009 0 1.9137-0.17575 2.5508-0.17575 0.80359 0-0.42513-0.27391-0.42513 0.43938-0.58964 0-1.071 0.44616-1.488 0.79088-0.36302 0.60031-1.412 0.61514-2.1257 0.61514-0.8317 0-1.8093-0.087881-2.6571-0.087881-0.78406 0-1.488-0.13622-1.8068-1.406z"/>
    </g>
    <path d="m118.28 13.76c1.488 1.6696 9.6717 12.83 1.488 13.445-11.053 1.3181-0.53141-9.5785-1.488-13.445z" fill="#ff0"/>
   </g>
   <path d="m119.33 18.318c0.7773 1.0418 4.521 8.1815 0.24588 8.5653-5.7742 0.82251 0.25381-6.1526-0.24588-8.5653z" fill="#ff0" stroke-width="1.25"/>
   <path d="m120.94 30.28c-1.6154-0.97216-2.272-2.6669-1.7336-3.5824 0.41654-0.99822 0.59512-3.2524 0.59512-4.6572" fill="#afa" fill-opacity=".75" stroke="#000" stroke-width=".888"/>
  </g>
  <g transform="matrix(-1.3357 .30594 .33563 1.2176 245.4 -25.756)">
   <g stroke="#000" stroke-width=".888">
    <g fill="#007fff" stroke-linejoin="round">
     <path d="m116.37 29.657c1.0514 1.838 2.829 0.8628 4.7581 1.007 1.9575 0.16542 2.8138-1.1094 4.0071-1.5033 3.4758 2.1009 0.39681 4.9572 1.0796 8.575 0.04715 2.639 0.47596 6.8737 0.87924 9.6743 0.16399 2.2951-5.9276 2.4717-7.0865 1.4501-0.95726-0.58401-1.7015-2.4511-1.1022-4.6143 0.16158-2.6647-0.67876-4.053-1.17-6.6778 0.13565-3.224-3.3856-4.1677-1.3654-7.9109z"/>
     <path d="m116.37 29.314c0.77672 0.21407 2.4057 0.41147 3.1885 0.087879 0.87582 0 2.1233 0.26561 2.7633-0.26363 0.5009 0 1.9137-0.17575 2.5508-0.17575 0.80359 0-0.42513-0.27391-0.42513 0.43938-0.58964 0-1.071 0.44616-1.488 0.79088-0.36302 0.60031-1.412 0.61514-2.1257 0.61514-0.8317 0-1.8093-0.087881-2.6571-0.087881-0.78406 0-1.488-0.13622-1.8068-1.406z"/>
    </g>
    <path d="m118.28 13.76c1.488 1.6696 9.6717 12.83 1.488 13.445-11.053 1.3181-0.53141-9.5785-1.488-13.445z" fill="#ff0"/>
   </g>
   <path d="m119.33 18.318c0.7773 1.0418 4.521 8.1815 0.24588 8.5653-5.7742 0.82251 0.25381-6.1526-0.24588-8.5653z" fill="#ff0" stroke-width="1.25"/>
   <path d="m120.94 30.28c-1.6154-0.97216-2.272-2.6669-1.7336-3.5824 0.41654-0.99822 0.59512-3.2524 0.59512-4.6572" fill="#007fff" fill-opacity=".75" stroke="#000" stroke-width=".888"/>
  </g>
  <g fill="#fff" stroke-width="1.25">
   <g fill-opacity=".3">
    <path d="m68.47 25.325c-1.7945 2.5793 1.9603 4.2077 2.4132 6.5527 1.0025 2.9464 1.401 7.1272 1.5879 10.195-0.93684 2.0978 1.5594 7.1134 2.5335 3.4695 0.23442-4.4626-0.96407-10.879-1.7487-15.245-0.68541-2.335-2.1119-4.5805-4.786-4.9728z"/>
    <path d="m110.17 38.748c-1.7945 2.5793 1.9603 4.2077 2.4133 6.5527 1.0025 2.9464 1.401 7.1272 1.5879 10.195-0.93684 2.0978 1.5594 7.1134 2.5335 3.4695 0.23441-4.4627-0.96407-10.879-1.7487-15.245-0.68542-2.335-2.1119-4.5805-4.786-4.9728z"/>
    <path d="m88.031 49.891c-1.7945 2.5793 1.9603 4.2077 2.4132 6.5527 1.0025 2.9464 1.401 7.1272 1.5879 10.195-0.93684 2.0978 1.5594 7.1134 2.5336 3.4695 0.23441-4.4626-0.96407-10.879-1.7487-15.245-0.68541-2.335-2.1119-4.5805-4.786-4.9728z"/>
    <path d="m22.991 39.169c-1.7945 2.5793 1.9603 4.2077 2.4132 6.5527 1.0025 2.9464 1.401 7.1272 1.5879 10.195-0.93683 2.0978 1.5594 7.1134 2.5335 3.4695 0.23442-4.4627-0.96407-10.879-1.7487-15.245-0.68541-2.335-2.1119-4.5805-4.786-4.9728z"/>
    <path d="m50.898 50.942c-1.7945 2.5793 1.9603 4.2077 2.4133 6.5527 1.0025 2.9464 1.401 7.1272 1.5879 10.195-0.93683 2.0978 1.5594 7.1134 2.5336 3.4695 0.23441-4.4626-0.96408-10.879-1.7487-15.245-0.68542-2.335-2.1119-4.5805-4.786-4.9728z"/>
   </g>
   <g fill-opacity=".8">
    <path d="m73.774 95.544c2.0501 1.6702 7.6111-2.6068 7.6111-3.574 0-1.3836 0.92256-1.9761 0.92256-3.3638-1.5234-1.3886-3.3256 2.7331-5.0741 2.7331-1.0706 0.97584-4.0178 1.6607-3.4596 4.2047z"/>
    <path d="m98.453 91.549c2.2533-1.1646 3.493-4.0553 4.6128-6.0968 1.4165-1.2912-0.20968-1.0512-1.6145-1.0512-1.5006 1.3678-2.9873 1.2514-4.3821 2.5228 0 1.735-0.48042 3.9455 1.3838 4.6252z"/>
    <path d="m119.21 85.032c1.3211-0.40141 4.1515-0.64325 4.1515-2.3126 1.0702-0.97552 1.1532-2.4396 1.1532-3.7842-1.1788-2.1491-3.4394-0.4388-4.8434 0.84094-0.85513 1.559-1.3705 4.8415-0.46128 5.2559z"/>
    <path d="m130.74 74.31c1.8596-0.75959 2.4506-1.9611 2.8757-3.9754 0.52418-1.6607 0.78969-2.2453-0.85586-1.1383-1.6465 0.93914-3.5724 2.0325-3.4528 3.9474 0.045837 0.83876 0.36705 1.5274 1.433 1.1662z"/>
    <path d="m45.175 91.339c1.4829 0.3979 3.8822-0.87614 3.2289-3.7842-2.5234 0-3.2289 1.6735-3.2289 3.7842z"/>
    <path d="m29.03 84.611c1.6158 1.5774 3.0825 2.0256 4.6128-0.84094 0-1.5689 0.28315-2.5228-1.6145-2.5228-1.5446 0-2.8822 0.83958-3.4596 1.8921 0 0.65425 0.07394 0.58895 0.46128 1.4716z"/>
    <path d="m18.421 69.474c1.6788 1.8921 2.7677 3.7569 2.7677-0.21024-0.1594-2.0374-2.7677-1.9608-2.7677 0.21024z"/>
   </g>
  </g>
  <path d="m20.497 87.344c7.1695-0.31842 8.955 4.8337 15.559 6.7855 6.9936 0.84506 14.444 3.7241 20.756 5.0026 6.8531 1.3022 15.421 2.1367 22.986 1.7649 9.0099-1.0564 24.544-3.3904 30.64-5.6987 7.0183-2.3207 18.018-7.7874 22.934-11.553 3.9943-0.087074 1.6569 5.9043 0.23511 8.7571 0.16313 3.7494-1.4458 6.9026-6.347 5.6414-5.6414-1.3803-4.1459 8.5181-10.225 5.0514-5.337-3.1598-7.6921 2.2898-7.7698 6.1983-5.2633 2.141-12.299 6.4565-17.734 2.4082-2.8203-4.7487-12.893-7.3571-14.119-0.27561-3.6224 5.0941-11.443 3.6379-13.566-1.5401-4.5527-2.3544-10.087-1.2775-14.876-2.9475-2.6542 2.7556-9.7891 5.1906-9.9083-0.49131-1.7782-5.6716-13.431-11.219-15.819-4.4667-6.9344 0.74067-5.5776-5.2614-4.9366-10.985-0.28199-1.7524 0.07737-3.2119 2.1904-3.6517z" fill="#aaf" stroke="#ff56ff" stroke-width="1.644"/>
  <g fill="#fff" fill-opacity=".8" stroke-width="1.25">
   <path d="m19.037 98.98c1.2691 2.9106 2.7467 2.9417 6.3457 0 0-2.4206-4.4806 1.9736-6.3457 0z"/>
   <path d="m39.851 106.34c1.9915 5.799 6.6124 1.2692 7.8687 0.25383 0.50766-4.1165-5.3626 2.0371-7.8687-0.25383z"/>
   <path d="m66.757 111.42c3.5536 4.4379 9.3917 0.97118 9.3917-0.76149 0-1.8998 0.34251-2.2844-2.0306-2.2844-0.50419 4.8228-6.7499 2.7404-7.361 3.0459z"/>
   <path d="m94.17 111.67c3.0505 1.7768 12.4-0.50764 9.3917-1.523-0.99974-0.50766-9.4666 0.27523-9.3917 1.523z"/>
   <path d="m107.37 107.86c1.7649 1.5349 3.9219-5.5842 2.5383-5.5842-2.9489 0.41058-4.8972 5.1124-2.5383 5.5842z"/>
   <path d="m119.81 102.53c1.946-0.33844 3.8626-4.8228 2.5383-4.8228-1.5305 0-2.8394 4.0699-2.5383 4.8228z"/>
   <path d="m130.98 96.442c2.5164 0.021935 1.1844-3.2998 2.2844-3.2998 0-1.201 0.50768-3.1743 0.50768-5.0766-1.1275-1.1275-3.2998 1.1538-3.2998 2.2844 0 1.7298-1.8816 6.0837 0.50766 6.0919z"/>
  </g>
 </g>
</svg>
