<?xml version="1.0" encoding="UTF-8"?>
<svg viewBox="0 0 255.32652 129.48703" xmlns="http://www.w3.org/2000/svg">
 <g transform="matrix(.30033 0 0 .30033 2.8113 -56.433)">
  <g transform="matrix(.53986 0 0 .57499 143.31 -20.656)" fill-rule="evenodd">
   <path d="m632.39 555.57 10.178 1.7702 7.9657 4.4254-0.44255 7.0807 11.506 7.9657 7.5232 7.0807-1.7702 7.5232-23.455 15.489-10.178 7.5232-12.834 3.9829-24.34 14.161-17.259-1.3276-15.489-3.0978-15.489-0.44255-15.489-1.3276-37.616-11.064-17.702-12.834-0.44254-5.753 4.8679-2.6552-0.44254-5.753 3.5403-5.3105 4.868-2.2127 2.2127-9.7359 7.0807-3.9829 33.633 5.753 35.403 4.868 17.259 3.5403 23.012-7.5232 23.897-18.144z" fill="#baab5a" stroke="#000"/>
   <path d="m552.29 432.1 26.552 1.7702 16.817 3.0978 23.897 6.6381 6.6381 0.44254 2.2127 17.259 1.3276 15.046-2.2127 8.4083 0.88508 17.259 2.2127 11.949-0.44254 25.225 2.2127 14.161-21.242 19.914-27.438 5.3105-41.599-3.5403-23.455-4.4254-12.834-3.9829 3.9829-22.57 3.5403-19.029-2.2127-5.3105 3.5403-22.127 3.0978-7.0806-6.1956-6.6381-2.2127-7.5232-2.2127-10.621 3.0978-7.9657 6.1956-5.753 21.685-11.949 14.161-7.9657z" fill="#d6cd9d" stroke="#000"/>
   <path d="m513.97 496.1s-0.31002-2.8816-1.6736 4.4318c-0.94409 5.0635-4.6505 19.529 0.18292 24.638 0.0221 0.02336 1.6103-8.6142 2.3271-16.329 0.36113-3.8863-2.0621-4.926 0.63383-10.807 0.21283-0.46424 12.768-6.3431 27.933-6.2164 15.759 0.13173 24.31 5.9102 34.17 5.8814 2.313-0.00675 2.5693 21.051 3.4894 31.977 0.68274 8.1079 2.0759 6.9573 3.1285 6.8694 0.49399-0.04122 2.7901-1.3845 2.9142-6.1232 0.29087-11.099-2.1499-31.643-1.6825-31.823 18.462-7.1291 27.347-15.572 39.944-14.736 7.5144 0.49871-1.6258 21.317 2.2713 22.708 10.798 3.8553-33.49 26.375-38.721 28.452-6.1866 2.4566-23.973-3.7802-23.784-2.5759 0.44616 2.8402-47.796-11.401-51.827-10.29-1.2087 0.33297-4.7137 7.1687-4.8497 8.7656-1.2322 14.472-3.7605 37.614-2.1624 36.943 1.9965-0.83726 2.7338-6.4889 4.5757-18.199 1.3615-8.6556 3.982-24.424 4.7585-24.272 5.997 1.1695 33.775 4.8538 47.816 10.505 3.1458 1.2662 13.44 1.4083 16.535 1.3762 3.2426-0.03365 1.3884 39.753 4.5145 40.429 4.5764 0.98945-0.26379-35.173 5.4909-37.898 13.347-6.3194 35.47-24.023 36.46-23.229 4.7064 3.7749 0.14446 32.278 3.357 35.547 0.51909 0.52829-6.797 10.05-16.174 15.608-11.141 6.6045-25.018 9.3491-29.691 9.056-14.445-0.90606-54.034-9.023-58.131-8.1337-10.449 2.2679-32.104-8.2187-34.993-2.5225-6.6518 13.115-2.7157 10.456-3.6704 18.725-0.41141 3.5632 6.6883-3.7392 6.0108-10.839-0.08782-0.92027 2.1417-3.4943 6.3315-5.0684 2.356-0.88509 13.755-0.41027 17.287 4.3861 6.0836 8.2612 29.882 7.819 46.347 7.1516 5.8316-0.2364 17.061 3.7839 20.355 3.8997 2.9289 0.10297 1.1006 19.691 4.8485 20.169 5.7179 0.72796-0.68963-21.789 1.7434-21.997 8.0691-0.69005 19.811-6.0638 27.786-11.607 8.1462-5.6618 10.26-11.5 14.657-12.703 4.994-1.3667 11.333 0.10806 13.626 0.94588 6.0816 2.2221 1.191 8.7085-1.3113 11.534-5.5971 6.3191-0.17843 0.40114-2.7807 1.7777-3.782 2.0006-10.59 5.6172-17.699 10.725-11.93 8.5721-25.068 19.464-35.176 20.23-32.691 2.4784-56.45-21.588-52-13.155 0.92548 1.754-51.424-8.7396-52.007-8.7794-4.0485-0.27653-7.3545 8.1414-3.1496 10.294 2.1454 1.0984 0.29635-7.0147 3.293-6.4808 14.668 2.6137 34.699 7.2862 60.733 11.505 8.7318 1.415 32.573 8.6063 42.286 10.094 0.93958 0.1439 0.29415 17.692 2.495 17.291 1.874-0.34142 1.2823-17.854 1.7752-17.957 16.781-3.5007 22.984-12.663 33.351-20.364 13.318-9.8931 23.565-16.458 28.877-13.593 2.729 1.472-1.3266 4.1254 0.89679 5.3191 0.47419 0.25458-14.616 15.264-22.872 21.279-18.434 13.433-39.771 24.141-39.771 24.141l-10.991 1.0453-33.188-14.787-46.108-9.669-17.025-3.479-4.8683-5.2006c1.3554-2.0335-2.4409 7.4148 0.41695 4.5548 3.4775 1.778 4.3192 5.0672 8.5075 5.0672 9.4267 0 23.532 3.3158 33.109 4.912 8.9171 1.4862 30.633 10.772 39.775 13.82 9.5847 3.1949 19.569 6.6007 29.664 6.6007 8.5564 0 29.177-15.767 35.417-20.447 7.3698-5.5274 12.253-8.6303 19.767-14.265 3.8772-2.9079 7.3657-10.502 11.62-10.502 10.9 0 11.316 3.5924 2.0308 12.877-5.8358 5.8358-9.5362 5.1635-12.72 7.5741-4.7267 3.5788-15.836 13.237-22.044 14.272-7.2239 1.204-28.275 15.599-34.47 15.599-11.029 0-16.616-1.9695-25.889-3.8241-7.7452-1.549-24.519 1.5293-31.839-1.7666-4.4834-2.0188-21.727-7.6128-31.041-9.4756-6.886-1.3772-14.111-6.7843-19.652-10.94-1.0804-0.81031-4.3337-4.5322-4.4212-6.7625-0.0884-2.2542 2.9896-3.0172 1.9901-3.8848-1.481-1.2856-7.3019 1.7064-6.1577 6.0592 1.3015 4.9512 9.2889 13.091 16.299 14.843 8.5423 2.1356 15.757 6.8521 24.398 8.5802 8.4252 1.685 16.413 2.1502 24.938 4.2812 6.1549 1.5387 11.771-0.91978 18.076 0.65655 8.5841 2.146 20.047 6 29.25 6 11.267 0 16.827-4.406 23.888-9.9327 5.0648-3.9644 8.3546-3.3566 12.206-7.2548 0.83046-0.84053 12.43-2.8258 13.487-3.3542 4.2654-2.1327 11.557-12.006 15.853-12.02 3.8302-0.01191 16.963-10.765 17.439-13.328 0.62254-3.3557-0.96437-4.4827-2.3371-8.3144-1.8167-5.0708-0.89004-2.8663-6.8688-7.5109-2.2108-1.7175-5.2977-3.2836-7.479-6.1919-2.3194-3.0925-1.6594-5.8364-4.3774-7.5192-2.704-1.6741-10.786-4.7344-13.872-6.7902-2.8892-1.9247-2.0202-10.052-2.3544-12.179-1.0744-6.8371-3.3356-33.575-3.3356-37.234 0-9.1112 3.0944-8.9352 0.83406-17.345-0.61291-2.2804-3.1738-4.6776-5.0793-6.4801-2.3827-2.2539-38.605 11.849-39.24 11.924-3.7397 0.44093 1.761-6.8728 13.585-11.645 5.3054-2.1414 13.305-10.397 19.048-11.587 1.2511-0.25927 7.2749-5.694 8.4416-2.9041 1.2803 3.0613-2.3121 14.4-1.3098 14.736 1.5574 0.52279 2.5215 5.6175 3.4753 4.105 1.3933-2.2095 2.436-11.456 2.5602-11.301 0.00429 0.00632 0.02751 0.02463 0.03125 0.03125 0.00957 0.02074 0.0267 0.07031 0.03125 0.09375 0.02885 0.2468-0.19626 0.65914-0.75 1.2188 3.3364-1.7474 1.3309-16.725-5.6236-14.843-4.8111 1.3019-13.217 8.6126-19.627 10.966-6.6364 2.4361-11.221 6.6304-18.343 10.539-0.38951 0.21377-1.3652 0.36475-2.5648 0.46013-0.25722 0.02045-0.55269-2.9258-0.85828-11.28-0.03401-0.92979-0.35321-4.3374 1.7811-5.9823 2.0468-1.5774 6.5508-1.393 6.5179-2.2936-0.04577-1.2515 12.895-9.5527 25.961-14.001 1.2837-0.43702 4.1017-4.2506 5.6315-1.8296 2.2677 3.5887 3.2015 13.992 4.2509 13.558 1.4071-0.58236-0.03264-15.516-0.04159-15.745-0.04783-1.2254-1.3206-1.6244-3.3694-1.4587-1.1461 0.09269-68.866-10.287-70.419-9.8867-1.0292 0.26528 27.11-1.0268 41.29 4.3858 3.0149 1.1508 13.675 4.1903 15.97 5.1143 7.7445 3.1168 3.3473 2.9177 2.4706 3.2315-10.499 3.7582-23.064 9.8609-23.205 9.8654-0.1226 0.00395-5.3821 4.0994-12.193 6.2173-6.2506 1.9436-13.769 1.9062-20.67 2.2886-1.8043 0.09998-22.389-7.0367-24.235-6.9084-4.2615 0.29638-7.2076-3.2508-9.9921-3.8096-1.0431-0.20936-5.5588 0.26096 1.7719-4.9299 11.628-8.2337 40.62-15.102 39.605-15.313-2.4566-0.51162-16.57-4.361-30.292 4.226-8.9925 5.6276-22.998 15.98-23.07 17.309-0.03275 0.6079 14.347 5.0812 29.948 9.8616 8.7903 2.6935 16.718 2.4845 23.925 4.7366 3.6408 1.1378 9.2906-2.2327 11.905-0.76998 3.0938 1.7311 2.8374 8.2286 2.8284 8.4011-0.19141 3.6869 0.33991 5.1379 0.14228 5.1348-1.4208-0.0223-2.6084-0.10619-3.0286-0.24103-2.8662-0.9199-8.4315-3.7459-15.388-3.0053-9.5484 1.0166-14.107-6.0842-22.056-5.4618-6.1953 0.48513-9.0996-3.1418-14.634-2.9033-6.7445 0.29073-9.8441-1.8728-14.655-1.6135-2.8107 0.15147-2.6156 2.5987-2.9704-0.82477-0.50395-4.8635 7.5212-16.37 6.9259-15.814l-9.3588 8.7431-1.7408 8.6323 1.0356 5.6071 6.3752 7.4972 29.817 2.3542 37.694 8.3141-0.26352-8.0236-5.4069-1.4812c-11.32-1.9803-8.6122 0.21408-16.773-2.93-3.2137-1.2381-28.408-6.1453-31.161-6.3758-1.7219-0.14415-13.911-3.7984-16.767-1.8158-1.8991 1.3186 5.7432 8.129 3.6298 9.2052-2.8815 1.4674-1.7337 6.6954-0.22678 9.7225 1.2119 2.4345 2.4911 4.6002 1.6633 5.2536zm-33.105 94.869c-0.1873 0.281-0.33739 0.53299-0.40625 0.71875-0.01247 0.0361-0.02408 0.09321-0.03125 0.125-0.00436 0.02301 0.00127 0.07326 0 0.09375-7e-5 0.00655-2.8e-4 0.02499 0 0.03125s-0.0027 0.05174 0 0.0625c0.00624 0.01435 0.02167 0.05089 0.03125 0.0625s0.02259 0.02538 0.03125 0.03125h0.03125c0.01098 0.00396 0.04994 0.02859 0.0625 0.03125h0.0625l0.21875-1.1562z" stroke="#000"/>
   <path d="m557.16 464.85c-2.3691-0.09201-5.0692 3.4601-6.1956 7.9657-1.1332 4.5329-0.20896 9.2687-2.2127 13.276s-3.9856 5.3242-4.868 9.7359c-0.77035 3.8518-2.5721 6.7481-3.5403 10.621-0.75625 3.025 0.2339 7.6813-0.44254 11.064l-0.44254 2.2127c-0.59988 2.9994-0.88508 6.0987-0.88508 9.2934 0 3.6925 0.26338 7.5339-0.44254 11.064-0.67882 3.3941-1.7702 6.8016-1.7702 10.178 0 3.6142-0.29197 7.6646-1.7702 10.621-1.3881 2.7762-2.5545 5.9941-3.9829 8.8508-1.6258 3.2516-2.6552 6.1523-2.6552 9.7359 0 3.6076-4.632 4.514-6.6381 7.5232-1.282 1.923-0.95473 7.2199-2.2127 9.7359-1.8652 3.7304-3.4226 5.7248-4.4254 9.7359-0.90344 3.6138-1.9268 6.645-4.8679 8.8508-1.186 0.88946-1.9185 2.3611-3.0978 3.5403-17.259-7.9657-27.438-14.604-27.438-14.604l-1.3276-7.0807 3.9829-3.5403v-4.4254l3.5403-5.753 2.6552-0.44254 1.3276-8.4083 6.6381-5.753 10.178-2.2127 6.6381-41.599v-11.064l1.7702-14.161 4.4254-7.0806-4.4254-6.6381-3.0978-6.6381-3.0978-8.8508-1.3276-7.5232 4.4254-6.1956 4.4254-3.5403 9.7359 3.0978 16.817 4.4254 11.949 3.5403" fill-opacity=".32143"/>
  </g>
  <path d="m407.59 565.17c-106.19-19.307-118.81-21.534-129.21-25.247s-60.148-14.109-66.831-15.594-36.386-9.6533-41.584-12.624-38.613-11.138-38.613-11.138l-9.6533-43.811 29.703-38.613 55.692-58.662 55.692-56.435 63.86-28.96 77.969 7.4256 27.475 16.336-0.74256 7.4256 23.808 8.3986 8.864 11.168 21.162 3.1348 50.125 4.7734 54.95-6.6831s-19.307 14.851-28.96 23.762-17.079 15.594-27.475 34.9-11.138 21.534-17.079 31.188-9.6533 15.594-14.851 24.505-19.307 41.584-23.762 46.781-16.336 24.505-16.336 24.505-28.96 18.564-32.673 23.019-20.792 30.445-21.534 30.445z" fill="#baab5a" fill-rule="evenodd"/>
  <path d="m141.75 466.41c-5.1979-6.6831-12.624-40.841-12.624-40.841l0.74256-29.703-6.6831-11.881 18.564-14.109 20.049-28.217 27.475-28.217 17.822-20.792 31.188-22.277 25.247-21.534 12.624-9.6533 28.96-8.1682h40.098l25.99 1.4851 24.505 7.4256 51.979 27.475 3.7128 24.505-18.564 12.624-56.435-12.624-39.356-2.9702-36.386 6.6831-24.505 17.079-20.049 18.564-14.851 11.138-19.307 20.049-7.4256 11.138-18.564 16.336-15.594 11.881-4.4554 10.396-11.881 10.396-4.4554 3.7128-6.6831 14.109-8.1682 11.881-2.9702 14.109z" fill="#d6cd9d" fill-rule="evenodd"/>
  <g transform="matrix(.6452 0 0 .68861 376.79 -14.337)" fill-rule="evenodd">
   <path d="m632.39 555.57 10.178 1.7702 7.9657 4.4254-0.44255 7.0807 11.506 7.9657 7.5232 7.0807-1.7702 7.5232-23.455 15.489-10.178 7.5232-12.834 3.9829-24.34 14.161-17.259-1.3276-15.489-3.0978-15.489-0.44255-15.489-1.3276-37.616-11.064-17.702-12.834-0.44254-5.753 4.8679-2.6552-0.44254-5.753 3.5403-5.3105 4.868-2.2127 2.2127-9.7359 7.0807-3.9829 33.633 5.753 35.403 4.868 17.259 3.5403 23.012-7.5232 23.897-18.144z" fill="#baab5a" stroke="#000"/>
   <path d="m552.29 432.1 26.552 1.7702 16.817 3.0978 23.897 6.6381 6.6381 0.44254 2.2127 17.259 1.3276 15.046-2.2127 8.4083 0.88508 17.259 2.2127 11.949-0.44254 25.225 2.2127 14.161-21.242 19.914-27.438 5.3105-41.599-3.5403-23.455-4.4254-12.834-3.9829 3.9829-22.57 3.5403-19.029-2.2127-5.3105 3.5403-22.127 3.0978-7.0806-6.1956-6.6381-2.2127-7.5232-2.2127-10.621 3.0978-7.9657 6.1956-5.753 21.685-11.949 14.161-7.9657z" fill="#d6cd9d" stroke="#000"/>
   <path d="m513.97 496.1s-0.31002-2.8816-1.6736 4.4318c-0.94409 5.0635-4.6505 19.529 0.18292 24.638 0.0221 0.02336 1.6103-8.6142 2.3271-16.329 0.36113-3.8863-2.0621-4.926 0.63383-10.807 0.21283-0.46424 12.768-6.3431 27.933-6.2164 15.759 0.13173 24.31 5.9102 34.17 5.8814 2.313-0.00675 2.5693 21.051 3.4894 31.977 0.68274 8.1079 2.0759 6.9573 3.1285 6.8694 0.49399-0.04122 2.7901-1.3845 2.9142-6.1232 0.29087-11.099-2.1499-31.643-1.6825-31.823 18.462-7.1291 27.347-15.572 39.944-14.736 7.5144 0.49871-1.6258 21.317 2.2713 22.708 10.798 3.8553-33.49 26.375-38.721 28.452-6.1866 2.4566-23.973-3.7802-23.784-2.5759 0.44616 2.8402-47.796-11.401-51.827-10.29-1.2087 0.33297-4.7137 7.1687-4.8497 8.7656-1.2322 14.472-3.7605 37.614-2.1624 36.943 1.9965-0.83726 2.7338-6.4889 4.5757-18.199 1.3615-8.6556 3.982-24.424 4.7585-24.272 5.997 1.1695 33.775 4.8538 47.816 10.505 3.1458 1.2662 13.44 1.4083 16.535 1.3762 3.2426-0.03365 1.3884 39.753 4.5145 40.429 4.5764 0.98945-0.26379-35.173 5.4909-37.898 13.347-6.3194 35.47-24.023 36.46-23.229 4.7064 3.7749 0.14446 32.278 3.357 35.547 0.51909 0.52829-6.797 10.05-16.174 15.608-11.141 6.6045-25.018 9.3491-29.691 9.056-14.445-0.90606-54.034-9.023-58.131-8.1337-10.449 2.2679-32.104-8.2187-34.993-2.5225-6.6518 13.115-2.7157 10.456-3.6704 18.725-0.41141 3.5632 6.6883-3.7392 6.0108-10.839-0.08782-0.92027 2.1417-3.4943 6.3315-5.0684 2.356-0.88509 13.755-0.41027 17.287 4.3861 6.0836 8.2612 29.882 7.819 46.347 7.1516 5.8316-0.2364 17.061 3.7839 20.355 3.8997 2.9289 0.10297 1.1006 19.691 4.8485 20.169 5.7179 0.72796-0.68963-21.789 1.7434-21.997 8.0691-0.69005 19.811-6.0638 27.786-11.607 8.1462-5.6618 10.26-11.5 14.657-12.703 4.994-1.3667 11.333 0.10806 13.626 0.94588 6.0816 2.2221 1.191 8.7085-1.3113 11.534-5.5971 6.3191-0.17843 0.40114-2.7807 1.7777-3.782 2.0006-10.59 5.6172-17.699 10.725-11.93 8.5721-25.068 19.464-35.176 20.23-32.691 2.4784-56.45-21.588-52-13.155 0.92548 1.754-51.424-8.7396-52.007-8.7794-4.0485-0.27653-7.3545 8.1414-3.1496 10.294 2.1454 1.0984 0.29635-7.0147 3.293-6.4808 14.668 2.6137 34.699 7.2862 60.733 11.505 8.7318 1.415 32.573 8.6063 42.286 10.094 0.93958 0.1439 0.29415 17.692 2.495 17.291 1.874-0.34142 1.2823-17.854 1.7752-17.957 16.781-3.5007 22.984-12.663 33.351-20.364 13.318-9.8931 23.565-16.458 28.877-13.593 2.729 1.472-1.3266 4.1254 0.89679 5.3191 0.47419 0.25458-14.616 15.264-22.872 21.279-18.434 13.433-39.771 24.141-39.771 24.141l-10.991 1.0453-33.188-14.787-46.108-9.669-17.025-3.479-4.8683-5.2006c1.3554-2.0335-2.4409 7.4148 0.41695 4.5548 3.4775 1.778 4.3192 5.0672 8.5075 5.0672 9.4267 0 23.532 3.3158 33.109 4.912 8.9171 1.4862 30.633 10.772 39.775 13.82 9.5847 3.1949 19.569 6.6007 29.664 6.6007 8.5564 0 29.177-15.767 35.417-20.447 7.3698-5.5274 12.253-8.6303 19.767-14.265 3.8772-2.9079 7.3657-10.502 11.62-10.502 10.9 0 11.316 3.5924 2.0308 12.877-5.8358 5.8358-9.5362 5.1635-12.72 7.5741-4.7267 3.5788-15.836 13.237-22.044 14.272-7.2239 1.204-28.275 15.599-34.47 15.599-11.029 0-16.616-1.9695-25.889-3.8241-7.7452-1.549-24.519 1.5293-31.839-1.7666-4.4834-2.0188-21.727-7.6128-31.041-9.4756-6.886-1.3772-14.111-6.7843-19.652-10.94-1.0804-0.81031-4.3337-4.5322-4.4212-6.7625-0.0884-2.2542 2.9896-3.0172 1.9901-3.8848-1.481-1.2856-7.3019 1.7064-6.1577 6.0592 1.3015 4.9512 9.2889 13.091 16.299 14.843 8.5423 2.1356 15.757 6.8521 24.398 8.5802 8.4252 1.685 16.413 2.1502 24.938 4.2812 6.1549 1.5387 11.771-0.91978 18.076 0.65655 8.5841 2.146 20.047 6 29.25 6 11.267 0 16.827-4.406 23.888-9.9327 5.0648-3.9644 8.3546-3.3566 12.206-7.2548 0.83046-0.84053 12.43-2.8258 13.487-3.3542 4.2654-2.1327 11.557-12.006 15.853-12.02 3.8302-0.01191 16.963-10.765 17.439-13.328 0.62254-3.3557-0.96437-4.4827-2.3371-8.3144-1.8167-5.0708-0.89004-2.8663-6.8688-7.5109-2.2108-1.7175-5.2977-3.2836-7.479-6.1919-2.3194-3.0925-1.6594-5.8364-4.3774-7.5192-2.704-1.6741-10.786-4.7344-13.872-6.7902-2.8892-1.9247-2.0202-10.052-2.3544-12.179-1.0744-6.8371-3.3356-33.575-3.3356-37.234 0-9.1112 3.0944-8.9352 0.83406-17.345-0.61291-2.2804-3.1738-4.6776-5.0793-6.4801-2.3827-2.2539-38.605 11.849-39.24 11.924-3.7397 0.44093 1.761-6.8728 13.585-11.645 5.3054-2.1414 13.305-10.397 19.048-11.587 1.2511-0.25927 7.2749-5.694 8.4416-2.9041 1.2803 3.0613-2.3121 14.4-1.3098 14.736 1.5574 0.52279 2.5215 5.6175 3.4753 4.105 1.3933-2.2095 2.436-11.456 2.5602-11.301 0.00429 0.00632 0.02751 0.02463 0.03125 0.03125 0.00957 0.02074 0.0267 0.07031 0.03125 0.09375 0.02885 0.2468-0.19626 0.65914-0.75 1.2188 3.3364-1.7474 1.3309-16.725-5.6236-14.843-4.8111 1.3019-13.217 8.6126-19.627 10.966-6.6364 2.4361-11.221 6.6304-18.343 10.539-0.38951 0.21377-1.3652 0.36475-2.5648 0.46013-0.25722 0.02045-0.55269-2.9258-0.85828-11.28-0.03401-0.92979-0.35321-4.3374 1.7811-5.9823 2.0468-1.5774 6.5508-1.393 6.5179-2.2936-0.04577-1.2515 12.895-9.5527 25.961-14.001 1.2837-0.43702 4.1017-4.2506 5.6315-1.8296 2.2677 3.5887 3.2015 13.992 4.2509 13.558 1.4071-0.58236-0.03264-15.516-0.04159-15.745-0.04783-1.2254-1.3206-1.6244-3.3694-1.4587-1.1461 0.09269-68.866-10.287-70.419-9.8867-1.0292 0.26528 27.11-1.0268 41.29 4.3858 3.0149 1.1508 13.675 4.1903 15.97 5.1143 7.7445 3.1168 3.3473 2.9177 2.4706 3.2315-10.499 3.7582-23.064 9.8609-23.205 9.8654-0.1226 0.00395-5.3821 4.0994-12.193 6.2173-6.2506 1.9436-13.769 1.9062-20.67 2.2886-1.8043 0.09998-22.389-7.0367-24.235-6.9084-4.2615 0.29638-7.2076-3.2508-9.9921-3.8096-1.0431-0.20936-5.5588 0.26096 1.7719-4.9299 11.628-8.2337 40.62-15.102 39.605-15.313-2.4566-0.51162-16.57-4.361-30.292 4.226-8.9925 5.6276-22.998 15.98-23.07 17.309-0.03275 0.6079 14.347 5.0812 29.948 9.8616 8.7903 2.6935 16.718 2.4845 23.925 4.7366 3.6408 1.1378 9.2906-2.2327 11.905-0.76998 3.0938 1.7311 2.8374 8.2286 2.8284 8.4011-0.19141 3.6869 0.33991 5.1379 0.14228 5.1348-1.4208-0.0223-2.6084-0.10619-3.0286-0.24103-2.8662-0.9199-8.4315-3.7459-15.388-3.0053-9.5484 1.0166-14.107-6.0842-22.056-5.4618-6.1953 0.48513-9.0996-3.1418-14.634-2.9033-6.7445 0.29073-9.8441-1.8728-14.655-1.6135-2.8107 0.15147-2.6156 2.5987-2.9704-0.82477-0.50395-4.8635 7.5212-16.37 6.9259-15.814l-9.3588 8.7431-1.7408 8.6323 1.0356 5.6071 6.3752 7.4972 29.817 2.3542 37.694 8.3141-0.26352-8.0236-5.4069-1.4812c-11.32-1.9803-8.6122 0.21408-16.773-2.93-3.2137-1.2381-28.408-6.1453-31.161-6.3758-1.7219-0.14415-13.911-3.7984-16.767-1.8158-1.8991 1.3186 5.7432 8.129 3.6298 9.2052-2.8815 1.4674-1.7337 6.6954-0.22678 9.7225 1.2119 2.4345 2.4911 4.6002 1.6633 5.2536zm-33.105 94.869c-0.1873 0.281-0.33739 0.53299-0.40625 0.71875-0.01247 0.0361-0.02408 0.09321-0.03125 0.125-0.00436 0.02301 0.00127 0.07326 0 0.09375-7e-5 0.00655-2.8e-4 0.02499 0 0.03125s-0.0027 0.05174 0 0.0625c0.00624 0.01435 0.02167 0.05089 0.03125 0.0625s0.02259 0.02538 0.03125 0.03125h0.03125c0.01098 0.00396 0.04994 0.02859 0.0625 0.03125h0.0625l0.21875-1.1562z" stroke="#000"/>
   <path d="m557.16 464.85c-2.3691-0.09201-5.0692 3.4601-6.1956 7.9657-1.1332 4.5329-0.20896 9.2687-2.2127 13.276s-3.9856 5.3242-4.868 9.7359c-0.77035 3.8518-2.5721 6.7481-3.5403 10.621-0.75625 3.025 0.2339 7.6813-0.44254 11.064l-0.44254 2.2127c-0.59988 2.9994-0.88508 6.0987-0.88508 9.2934 0 3.6925 0.26338 7.5339-0.44254 11.064-0.67882 3.3941-1.7702 6.8016-1.7702 10.178 0 3.6142-0.29197 7.6646-1.7702 10.621-1.3881 2.7762-2.5545 5.9941-3.9829 8.8508-1.6258 3.2516-2.6552 6.1523-2.6552 9.7359 0 3.6076-4.632 4.514-6.6381 7.5232-1.282 1.923-0.95473 7.2199-2.2127 9.7359-1.8652 3.7304-3.4226 5.7248-4.4254 9.7359-0.90344 3.6138-1.9268 6.645-4.8679 8.8508-1.186 0.88946-1.9185 2.3611-3.0978 3.5403-17.259-7.9657-27.438-14.604-27.438-14.604l-1.3276-7.0807 3.9829-3.5403v-4.4254l3.5403-5.753 2.6552-0.44254 1.3276-8.4083 6.6381-5.753 10.178-2.2127 6.6381-41.599v-11.064l1.7702-14.161 4.4254-7.0806-4.4254-6.6381-3.0978-6.6381-3.0978-8.8508-1.3276-7.5232 4.4254-6.1956 4.4254-3.5403 9.7359 3.0978 16.817 4.4254 11.949 3.5403" fill-opacity=".32143"/>
  </g>
  <path d="m534.97 331.92c-4.1271-1.0414-22.134 0.64944-32.828 2.4317-12.217 2.0362-22.369 4.9602-34.044 7.295-14.968 2.9937-26.219 13.242-41.339 17.022-14.82 3.705-23.422 6.3361-35.259 15.806-8.7336 6.9869-20.354 11.843-27.964 19.453-6.7515 6.7515-22.227 13.326-30.396 19.453-9.2325 6.9244-12.575 15.718-19.453 24.317-5.9919 7.4899-12.078 16.922-17.022 23.101-6.2197 7.7746-19.21 11.915-26.748 19.453-7.3856 7.3856-9.763 19.598-12.158 29.18-2.6385 10.554-14.414 9.9024-6.0792 18.238 4.0336 4.0336 20.412 5.0551 25.533 6.0792 8.6367 1.7273 16.589 4.1474 24.317 6.0792 8.8669 2.2167 17.889 1.4326 26.748 3.6475 8.1202 2.03 15.94 3.7144 23.101 7.295 8.3843 4.1921 28.117 5.8665 35.259 7.295 14.551 2.9101 22.336-6.2747 30.396-17.022 11.819-15.759 23.891-33.192 32.828-51.065 12.044-24.087 25.273-49.59 44.986-69.303 19.016-19.016 47.196-46.316 42.554-74.166-1.1327-6.7961-2.4317-6.8702-2.4317-14.59z" fill-opacity=".41964" fill-rule="evenodd"/>
  <path d="m707.7 414.64c-5.6018 3.8873-17.81 3.0296-27.267 3.0296h-36.356c-8.6823 0-19.801 1.9206-28.277 4.0395-8.6296 2.1574-22.059 1.4206-29.683 5.2326-7.916 3.958-12.275 18.703-20.628 20.792-9.4205 2.3551-16.127 3.6124-24.965 6.6237-9.5445 3.252-4.7144 2.3019-17.633 10.777-5.9108 3.8776-14.138 0-21.208 0-12.609 0 8.6071-33.854 24.237-49.484 14.341-14.341 28.374-27.547 44.435-40.395 14.397-11.518 33.243-17.589 51.504-20.198 12.268-1.7526 22.66-3.0296 35.346-3.0296 10.248 0 19.325 0.45867 28.277 4.0395 10.247 4.0989 17.769 12.501 20.198 22.217 2.0539 8.2154 1.0099 17.719 1.0099 26.257 0 3.6608 0.26993 6.3991 1.0099 10.099z" fill-opacity=".41964" fill-rule="evenodd"/>
  <path d="m501.82 492.03c-1.2647 2.5294-2.608 5.6647-3.1782 7.9454-0.78052 3.1221-2.9221 4.4258-4.7672 6.886-2.5553 3.407-5.6246 7.5413-7.4157 11.124-2.4948 4.9895-8.5815-0.6148-11.124-2.6485-3.9772-3.1817-2.1188-15.555-2.1188-20.128 0-9.3486-0.5297-18.67-0.5297-28.074 0-8.4473-16.856-10.161-22.247-12.183-6.5736-2.4651-13.073-5.9368-19.069-9.5345-6.6714-4.0028 5.2647-8.4428 7.4157-10.594 2.6134-2.6134 6.4212-6.6536 10.064-8.4751 3.6184-1.8092 4.297-4.547 7.4157-6.886 3.4914-2.6185 5.1989-4.6888 7.9454-6.886 0.15468-0.12375 1.0444-7.3558 1.0594-7.4157 0.74672-2.9869 6.9202-7.5738 9.5345-9.5345 2.7899-2.0924 5.6854-5.1086 7.4157-7.4157 2.4187-3.2249 2.2398-4.8883 5.2969-7.9454 2.7331-2.7331 4.0123-4.542 6.886-7.4157 1.9802-1.9802 3.5125-4.5719 5.2969-6.3563 2.0316-2.0315 3.9428-4.3742 5.8266-6.886 1.7187-2.2916 4.3034-4.287 6.3563-5.8266 2.6845-2.0134 4.1376-4.1042 5.8266-6.3563 1.372-1.8294 5.2678-3.5536 6.886-4.7672 2.7654-2.0741 4.3584-4.3584 6.3563-6.3563 2.4949-2.4949 3.8971-4.5119 6.3563-6.3563 2.1667-1.625 3.8334-4.363 5.8266-6.3563l7.9454-7.9454c3.0723-3.0723 7.3197-5.5138 11.124-7.4157 2.9758-1.4879 4.9639-3.5414 7.4157-4.7672 1.4648-0.73242 1.4701-0.29402 2.6485-0.52969 2.2135-1.1068 9.1723 0.75265 12.183 0 3.9378-0.98445 6.763-3.5108 11.124-4.2376 1.7226-0.28709 6.672-6.2476 7.9454-7.9454 1.8564-2.4752 8.3533-4.8001 10.064-5.8266 3.1697-1.9019 6.5572-1.4174 10.064-2.1188 3.7098-0.74195 8.4045 0 12.183 0h12.183c2.9034 0 5.8915-0.1162 8.4751 0.5297 3.3405 0.83514 5.9513 1.9163 8.4751 3.1782 2.4422 1.2211 2.4788 3.7979 6.3563 4.7672 3.828 0.957 5.5752 1.4634 9.0048 3.1782 1.8587 0.92934 5.1954 2.5723 7.4157 4.2375 2.0922 1.5692 4.9755 3.2823 6.886 4.2376 2.0189 1.0094 3.0661 2.8573 5.8266 4.2376 2.9102 1.4551 3.1914 2.9166 6.3563 3.7078 3.4896 0.8724 9.1911 0.52969 12.713 0.52969 4.8182 0 7.0947 2.0439 9.5345 5.297 2.0721 2.7628 1.8314 3.3306 2.6485 7.4157 0.51434 2.5717 0 5.8314 0 8.4751 0 2.9167 1.0594 6.2292 1.0594 9.5345 0 3.8238-0.13371 7.9506-1.0594 11.653-0.83258 3.3303-1.689 7.2855-2.6485 11.124-0.92209 3.6884-2.1188 7.0621-2.1188 10.594v12.183c0 3.2357 1.2514 5.5883 0.52969 8.4751-0.79391 3.1756-2.1188 5.8907-2.1188 9.5345 0 1.7229-1.616 2.258-3.1782 2.6485 0 3.3173-6.3509 2.2471-9.0048 4.2376-2.4255 1.8191-6.4119 1.0594-9.5345 1.0594-5.5818 0-4.673-0.96511-7.9454-4.2375-2.621-2.621-3.4121-4.6778-6.3563-6.886-2.9207-2.1905-3.1695-5.8439-1.5891-9.0048 1.6007-3.2014 4.2376-3.021 4.2376-7.4157 0-2.6002-4.3408-5.4346-5.8266-7.4157-2.4268-3.2358-5.2948-3.9711-8.4751-6.3563-3.5221-2.6416-5.6776-4.3137-10.594-5.2969-3.6696-0.73392-7.1862-1.7966-10.594-2.6485-3.6781-0.91952-9.9394-0.49086-12.713 1.5891-1.8934 1.42-6.0476 3.2887-7.9454 4.2376-3.4478 1.7239-7.1249 3.0328-10.594 4.7672-4.1565 2.0783-6.8712 5.2969-11.653 5.2969-6.4326 0-13.772 0.52969-19.069 3.7078-2.7327 1.6396-5.6268 5.6268-7.9454 7.9454-2.802 2.802-6.0876 5.6923-9.5345 7.4157-2.7385 1.3693-6.0859 3.1078-9.0048 5.2969-1.8284 1.3713-2.417 1.4571-3.7078 3.1782-2.0348 1.5261-3.5922-2.3501-7.9454 6.3563l-1.5718 0.93821c-1.8317 1.0934-3.2834 3.6504-4.7707 5.1377-1.83 1.83-3.5409 3.9079-5.5047 5.8716-1.7953 1.7953-3.1994 3.7765-4.7707 5.8716-1.6039 2.1385-2.3438 4.4155-4.7707 5.8716-1.9113 1.1468-4.6069 4.063-6.2386 6.2386l-1.1009 1.4679c-1.7555 2.3407-2.9298 4.516-4.4037 6.9726-1.4177 2.3628-1.4219 4.3577-3.3028 6.2386-2.9769 2.9768-3.6478 8.6558-6.2386 12.11-2.2112 2.9483-4.6154 6.295-6.2386 9.5414l-0.73396 1.4679c-1.7676 3.5353-3.0862 6.5995-4.9126 10.137z" fill="#d6cd9d" fill-rule="evenodd"/>
  <path d="m284.46 311.69c-2.4978-0.90286-6.3344 1.9188-9.8126 5.3969l-9.3219 9.3219c-3.0885 3.0885-7.2796 4.5612-10.303 8.3407-2.2256 2.782-6.9685 3.6123-9.8126 5.8875-3.58 2.864-6.5112 6.8459-9.8126 9.3219-3.3618 2.5213-5.9189 6.5836-8.3407 9.8126-2.2754 3.0338-5.7413 3.6326-7.3594 6.8688-1.8425 3.6851-4.4335 6.6369-7.3594 8.8313-4.4892 3.3669-7.4147 5.7977-10.794 10.303-2.783 3.7107-5.526 4.3898-8.8313 6.8688-2.886 2.1645-4.3042 4.3042-6.8688 6.8688-2.5189 2.5189-4.8023 3.0184-5.8875 7.3594-1.1836 4.7344-3.0471 7.9534-6.3782 11.284-3.471 3.471-7.0221 3.5494-10.794 6.3782-4.8416 3.6312-5.8875 7.3764-5.8875 12.756 0 4.3081-2.3648 6.9145-4.9063 10.303-0.4163 0.55509-0.98125 0.98126-1.4719 1.4719-3.4466 3.4466-4.1355 6.3082-8.3407 8.8313-3.671 2.2026-5.3969 2.8951-5.3969-1.9625 0-4.7871 6.5784-3.6346 9.3219-6.3782 3.0431-3.0431 5.503-3.9647 6.3782-8.3407 0.78158-3.9079 1.7228-7.6326 2.4532-11.284 0.76461-3.8231 1.7241-6.9949 5.3969-8.8313 3.0641-1.5321 6.7725-2.886 9.3219-4.4156 2.978-1.7868 3.925-4.2588 3.925-8.3407 0-3.1946 3.7519-6.436 4.9063-9.3219 1.0575-2.6438 9.1263-4.5632 11.775-5.8875 2.7622-1.3811 4.6513-6.0382 6.3782-8.3407 2.4622-3.2829 5.9503-5.4283 9.8126-7.3594 3.8542-1.9271 7.3514-5.8795 10.303-8.8313 2.9327-2.9327 4.19-6.6431 6.8688-9.3219 2.8746-2.8746 3.458-5.9111 5.8875-8.3407 3.1611-3.161 10.497-10.988 14.266-12.873 4.1882-2.0941 4.3312 0.20987 6.3405-3.8087 1.6017-3.2034 26.985-24.513 26.985-28.456v-11.775c0-4.2737-3.8186-6.9648-7.3594-7.8501-0.80901-0.20225-1.6354-0.32708-2.4531-0.49063-3.6218-0.72435-31.062 22.873-32.381 25.513-1.6382 3.2765-4.3434 5.3247-6.8688 7.8501-2.9775 2.9775-5.8806 6.0418-8.3407 9.3219-2.5502 3.4002-6.7596 5.9055-9.3219 9.3219-2.423 3.2306-5.2464 6.02-8.3407 8.3407-2.2939 1.7204-5.4233 6.9347-6.3782 9.3219-1.2003 3.0008-3.1127 5.4586-4.9063 7.8501-1.8866 2.5155-2.3064 5.2502-4.4157 7.3594-2.7617 2.7617-5.3795 5.9972-7.85 7.85-2.1519 1.6139-3.8231 4.8044-5.8875 6.8688l-8.3407 8.3407c-2.391 2.391-4.6508 5.874-6.8688 8.8313-2.3411 3.1215-5.8245 5.4764-8.3407 8.8313-2.5695 3.426-3.5424 7.0847-5.3969 10.794-1.2586 2.5172-7.822 3.536-10.303 5.3969-4.4028 3.3021-5.9917-0.47557-4.4157-4.4157 1.2219-3.0547 6.2705-4.7986 8.8313-7.3594 3.2741-3.2741 4.9832-5.0601 6.8688-8.8313 1.7109-3.4219 7.4625-6.0681 10.303-8.3407 3.9926-3.1941 7.4018-6.4346 10.303-10.303 2.3831-3.1775 5.8938-5.4032 8.8313-8.3407 2.7113-2.7113 3.9259-6.2157 5.8876-8.8313 1.7142-2.2856 2.4701-6.9028 3.925-9.8126 1.6743-3.3487 2.7839-7.0397 4.4157-10.303 1.9394-3.8788 6.9619-4.9994 9.8126-7.85 2.8346-2.8346 6.1931-4.3657 9.3219-6.8688 3.2609-2.6087 6.4593-4.4968 8.8313-6.8688 2.6382-2.6382 3.4466-6.3904 6.3782-9.3219l7.3594-7.3594c2.5826-2.5826 4.4714-7.1067 6.8688-10.303 2.3209-3.0946 26.607-20.746 28.226-23.983 1.2491-2.4981-4.8266-5.5725-6.2627-5.5412-3.1119 0.06776-8.1381 5.2956-9.3219 5.8875-3.799 1.8995-23.549 18.48-26.869 20.693-4.2012 2.8008 4.414-1.0382 0.49063 0.92353-2.0392 1.0196-17.504 14.95-18.644 17.23-1.6397 3.2794-4.9166 6.2684-7.3594 9.3219-2.0642 2.5802-3.9575 4.9388-6.3782 7.3594-2.5079 2.5079-5.4112 6.5655-7.3594 9.8126-1.7024 2.8374-4.5813 6.0532-6.8688 8.3407-2.9804 2.9804-5.5067 5.7795-8.3407 9.3219-2.0586 2.5732-2.8163 6.0446-4.9063 8.8313l-7.3594 9.8126c-2.4618 3.2824-5.9326 8.6086-9.3219 10.303-3.586 1.793-5.7434 5.4114-8.3407 7.3594-2.9781 2.2336-5.1431 3.4683-6.3782-1.4719-0.52935-2.1174 6.414-5.1169 8.3407-5.8875 3.7224-1.489 7.0432-5.2877 7.8501-9.3219 0.60809-3.0405 3.8923-5.3315 4.9063-7.3594 2.1776-4.3551 5.7035-5.2129 8.8313-8.3407 2.327-2.3271 4.2949-4.5817 6.3782-7.3594 2.3699-3.1598 3.7246-6.438 5.8875-9.3219 1.5928-2.1237 5.1652-4.6746 7.3594-6.8688 2.4443-2.4443 2.8987-4.8612 5.8875-7.85 1.9042-1.9042 1.7873-4.6727 3.4344-6.8688 1.7797-2.3729 5.328-5.1172 7.85-6.3782 3.3988-1.6994 5.9463-5.1482 8.3407-8.3407 2.0885-2.7846 5.475-6.0193 8.485-8.4273 2.7872-2.2297 4.7018-3.104 6.7245-5.801 2.145-2.8599 4.5937-4.7718 5.8875-7.3594 1.388-2.7759 24.444-19.971 26.869-21.184 2.2987-1.1493-3.9014-5.1398-4.4157-5.3969-3.3767-1.6884-26.079 19.313-27.85 21.674-2.1548 2.873-6.2041 4.9981-9.3219 6.8688-3.3798 2.0279-7.1482 3.5213-10.303 5.8875-3.6434 2.7326-5.7555 5.875-8.3407 9.3219-2.7621 3.6828-5.0921 5.8745-7.85 9.3219-2.7854 3.4817-4.9362 6.0036-8.8313 8.3407-3.1299 1.878-6.2222 4.3193-8.3407 7.85-2.192 3.6534-5.3122 6.9194-7.85 10.303-2.3152 3.087-4.6534 6.8536-6.3782 10.303-1.5399 3.0798-4.2092 5.9393-6.3782 8.8313s-3.1413 5.3332-5.3969 8.3407c-2.6195 3.4927-5.9196 4.1864-9.3219 5.8875-3.46 1.73-6.8688 5.4402-6.8688 0.49063 0-2.8216 6.3299-5.4834 8.8313-7.3594 3.7741-2.8306 7.1509-3.508 9.3219-7.85 1.5887-3.1774 2.3133-6.7289 4.4156-8.8313 2.5124-2.5124 4.0814-6.044 6.8688-8.8313 2.9785-2.9785 4.9056-5.069 7.3594-8.3407 2.3305-3.1073 4.194-5.1753 6.8688-7.85 2.6419-2.6419 5.4523-4.653 7.8501-7.85 2.334-3.112 6.5235-6.469 7.3594-9.8126 0.66204-2.6481 7.1753-7.8377 8.8313-8.8313 3.0927-1.8556 6.0698-5.0885 7.85-6.8688 2.6863-2.6864 5.1924-4.7017 7.8501-7.3594 2.0842-2.0842 4.8166-3.8353 6.8688-5.8875 2.602-2.602 6.4141-4.1344 8.8313-7.3594 5.8537-7.8101 6.4306-6.6194 9.8126-9.3219 3.0309-2.422 6.531-5.2662 9.3219-7.3594 3.559-2.6693 6.3996-5.3117 9.8126-7.3594 3.8625-2.3175 8.4141-5.3293 11.775-7.85 2.9823-2.2368 7.7668-5.1308 10.794-5.8875 4.3932-1.0983 7.0388-3.8449 11.284-4.9063 6.0772-1.5193 12.135-2.4531 18.644-2.4531h48.572c4.4336 0 9.1751 0.49063 13.738 0.49063 4.0436 0 7.516 2.0016 11.284 2.9438 0.31732 0.07933 0.65417 0 0.98126 0 3.6804 0 9.3908 1.7688 12.266 3.925 3.6572 2.7429 8.9817 4.7362 13.247 6.8688 4.0909 2.0454 7.7565 4.7707 11.775 6.3782 4.1194 1.6477 9.5964 4.1309 13.247 6.8688 2.9385 2.2039 7.6541 1.2759 10.794 4.4157 2.297 2.297 2.8221 3.3169 3.4344 6.3782 0.56812 2.8406-7.0007-3.3173-8.8313-4.4156-3.4455-2.0673-6.6454-4.6742-10.303-6.8688-4.2041-2.5224-8.3392-3.1394-12.756-4.9063-4.0178-1.6071-8.8323-3.8031-12.266-6.3782-4.4756-3.3567-9.1321-4.3207-14.228-6.8688-5.7496-2.8748-10.919-3.3736-17.172-4.4157-4.8344-0.80574-16.681-1.3083-17.663-1.4719-4.444-0.74066-8.6681-1.4719-13.247-1.4719h-26.003c-4.6544 0-9.1713-0.56596-13.247 1.4719-3.1902 1.5951-7.4369 1.6139-10.794 2.4531-3.758 0.93949-7.0698 2.6896-10.794 3.4344-3.8596 0.77191-5.2434 3.2508-3.925 5.8875 0.97996 1.9599 8.4433 0.98126 10.303 0.98126 4.8614 0 9.4258-6.0896 14.228-6.0896 3.1238 0 7.8438 1.0876 11.284-0.2886 5.9938-2.3975 12.31-2.039 18.644-2.9438 5.9082-0.84403 12.662 0 18.644 0 1.7511 0 30.366 0.65097 35.508 1.3481 11.116 1.5071 1.1626 3.654-2.6357 2.8944-5.3536-1.0707-9.9388-1.3853-15.787-1.3853-4.4156 0-22.684-0.57721-27.1-0.57721-5.724 0 4.7139-0.34632-1.0101-0.34632-3.7636 0-18.045 0.09358-20.664 2.7129-1.3308 1.3308-13.613 1.8842-18.275 2.3128-5.5103 0.5066-3.5149 6.3104-3.5149 8.2502 0 3.032-0.07711 7.051 0.49062 9.3219 0.36263 1.4505 11.892-5.8361 13.247-6.3782 5.8788-2.3515 12.127-0.75725 18.153-1.9625 6.54-1.308 14.887 0 21.588 0 7.0446 0 13.831 0.34269 20.606 1.4719 6.8598 1.1433 14.108 1.3255 20.606 3.925 4.8533 1.9413 7.3478 4.6552 11.775 6.8688 4.5966 2.2983 8.5342 5.8074 12.756 8.3407 4.3548 2.6129 9.8528 2.9518 14.719 3.925 5.412 1.0824 9.0606 5.6995 13.738 6.8688 3.3443 0.83607 6.9303 2.5762 8.3407 5.3969 2.751 5.5019-4.743 3.7941-6.8688 2.9438-4.5556-1.8222-7.9224-6.2253-12.266-8.8313-3.8587-2.3152-8.2176-4.8447-12.266-6.8688-4.887-2.4435-11.987-5.1182-15.7-8.8313-2.6815-2.6815-11.264-4.5054-14.719-5.8875-5.2259-2.0904-10.493-2.9438-16.191-2.9438-5.557 0-11.064-1.1714-16.191-2.4531-4.448-1.112-10.586 0-15.209 0h-18.644c-3.8438 0-10.13 0.65222-14.228 1.4719-3.4243 0.68487-4.2377 4.8173-7.3594 6.3782-2.8655 1.4327-4.4157 4.0267-4.4157 7.3594 0 3.5472 1.3913 6.8758 1.9625 10.303 0.63455 3.8073-0.08861 7.0473 3.925 7.85 5.1237 1.0248 9.0269-2.7474 13.738-3.925 5.851-1.4628 10.914-1.9625 17.172-1.9625h37.288c6.5341 0 13.755 3.634 20.116 4.9063 4.9373 0.98747 9.3332 2.7013 14.228 3.925 4.8446 1.2111 8.6272 3.9823 13.247 4.9063 6.5379 1.3076 12.935 3.896 16.191 9.3219 2.8517 4.7529-17.8-1.8486-19.625-2.9438-6.2513-3.7508-15.626-4.499-22.569-5.8875-10.736-2.1472-21.996-4.5281-32.872-5.8875-7.4005-0.92506-14.472 0.49063-21.588 0.49063-5.4758 0-11.128 0.49063-16.681 0.49063-5.3481 0-8.6454 1.3027-13.247 2.4531-3.7276 0.9319-4.7736 3.8919-8.8313 4.9063-3.5377 0.88444-8.6836 3.7773-11.284 6.3782-1.6271 1.627-2.1002 2.5908-4.4157 4.9063z" fill-rule="evenodd" stroke="#000" stroke-width=".8306"/>
  <g transform="matrix(.77161 0 0 .76975 -348.91 30.266)" fill-rule="evenodd">
   <path d="m632.39 555.57 10.178 1.7702 7.9657 4.4254-0.44255 7.0807 11.506 7.9657 7.5232 7.0807-1.7702 7.5232-23.455 15.489-10.178 7.5232-12.834 3.9829-24.34 14.161-17.259-1.3276-15.489-3.0978-15.489-0.44255-15.489-1.3276-37.616-11.064-17.702-12.834-0.44254-5.753 4.8679-2.6552-0.44254-5.753 3.5403-5.3105 4.868-2.2127 2.2127-9.7359 7.0807-3.9829 33.633 5.753 35.403 4.868 17.259 3.5403 23.012-7.5232 23.897-18.144z" fill="#baab5a" stroke="#000"/>
   <path d="m552.29 432.1 26.552 1.7702 16.817 3.0978 23.897 6.6381 6.6381 0.44254 2.2127 17.259 1.3276 15.046-2.2127 8.4083 0.88508 17.259 2.2127 11.949-0.44254 25.225 2.2127 14.161-21.242 19.914-27.438 5.3105-41.599-3.5403-23.455-4.4254-12.834-3.9829 3.9829-22.57 3.5403-19.029-2.2127-5.3105 3.5403-22.127 3.0978-7.0806-6.1956-6.6381-2.2127-7.5232-2.2127-10.621 3.0978-7.9657 6.1956-5.753 21.685-11.949 14.161-7.9657z" fill="#d6cd9d" stroke="#000"/>
   <path d="m513.97 496.1s-0.31002-2.8816-1.6736 4.4318c-0.94409 5.0635-4.6505 19.529 0.18292 24.638 0.0221 0.02336 1.6103-8.6142 2.3271-16.329 0.36113-3.8863-2.0621-4.926 0.63383-10.807 0.21283-0.46424 12.768-6.3431 27.933-6.2164 15.759 0.13173 24.31 5.9102 34.17 5.8814 2.313-0.00675 2.5693 21.051 3.4894 31.977 0.68274 8.1079 2.0759 6.9573 3.1285 6.8694 0.49399-0.04122 2.7901-1.3845 2.9142-6.1232 0.29087-11.099-2.1499-31.643-1.6825-31.823 18.462-7.1291 27.347-15.572 39.944-14.736 7.5144 0.49871-1.6258 21.317 2.2713 22.708 10.798 3.8553-33.49 26.375-38.721 28.452-6.1866 2.4566-23.973-3.7802-23.784-2.5759 0.44616 2.8402-47.796-11.401-51.827-10.29-1.2087 0.33297-4.7137 7.1687-4.8497 8.7656-1.2322 14.472-3.7605 37.614-2.1624 36.943 1.9965-0.83726 2.7338-6.4889 4.5757-18.199 1.3615-8.6556 3.982-24.424 4.7585-24.272 5.997 1.1695 33.775 4.8538 47.816 10.505 3.1458 1.2662 13.44 1.4083 16.535 1.3762 3.2426-0.03365 1.3884 39.753 4.5145 40.429 4.5764 0.98945-0.26379-35.173 5.4909-37.898 13.347-6.3194 35.47-24.023 36.46-23.229 4.7064 3.7749 0.14446 32.278 3.357 35.547 0.51909 0.52829-6.797 10.05-16.174 15.608-11.141 6.6045-25.018 9.3491-29.691 9.056-14.445-0.90606-54.034-9.023-58.131-8.1337-10.449 2.2679-32.104-8.2187-34.993-2.5225-6.6518 13.115-2.7157 10.456-3.6704 18.725-0.41141 3.5632 6.6883-3.7392 6.0108-10.839-0.08782-0.92027 2.1417-3.4943 6.3315-5.0684 2.356-0.88509 13.755-0.41027 17.287 4.3861 6.0836 8.2612 29.882 7.819 46.347 7.1516 5.8316-0.2364 17.061 3.7839 20.355 3.8997 2.9289 0.10297 1.1006 19.691 4.8485 20.169 5.7179 0.72796-0.68963-21.789 1.7434-21.997 8.0691-0.69005 19.811-6.0638 27.786-11.607 8.1462-5.6618 10.26-11.5 14.657-12.703 4.994-1.3667 11.333 0.10806 13.626 0.94588 6.0816 2.2221 1.191 8.7085-1.3113 11.534-5.5971 6.3191-0.17843 0.40114-2.7807 1.7777-3.782 2.0006-10.59 5.6172-17.699 10.725-11.93 8.5721-25.068 19.464-35.176 20.23-32.691 2.4784-56.45-21.588-52-13.155 0.92548 1.754-51.424-8.7396-52.007-8.7794-4.0485-0.27653-7.3545 8.1414-3.1496 10.294 2.1454 1.0984 0.29635-7.0147 3.293-6.4808 14.668 2.6137 34.699 7.2862 60.733 11.505 8.7318 1.415 32.573 8.6063 42.286 10.094 0.93958 0.1439 0.29415 17.692 2.495 17.291 1.874-0.34142 1.2823-17.854 1.7752-17.957 16.781-3.5007 22.984-12.663 33.351-20.364 13.318-9.8931 23.565-16.458 28.877-13.593 2.729 1.472-1.3266 4.1254 0.89679 5.3191 0.47419 0.25458-14.616 15.264-22.872 21.279-18.434 13.433-39.771 24.141-39.771 24.141l-10.991 1.0453-33.188-14.787-46.108-9.669-17.025-3.479-4.8683-5.2006c1.3554-2.0335-2.4409 7.4148 0.41695 4.5548 3.4775 1.778 4.3192 5.0672 8.5075 5.0672 9.4267 0 23.532 3.3158 33.109 4.912 8.9171 1.4862 30.633 10.772 39.775 13.82 9.5847 3.1949 19.569 6.6007 29.664 6.6007 8.5564 0 29.177-15.767 35.417-20.447 7.3698-5.5274 12.253-8.6303 19.767-14.265 3.8772-2.9079 7.3657-10.502 11.62-10.502 10.9 0 11.316 3.5924 2.0308 12.877-5.8358 5.8358-9.5362 5.1635-12.72 7.5741-4.7267 3.5788-15.836 13.237-22.044 14.272-7.2239 1.204-28.275 15.599-34.47 15.599-11.029 0-16.616-1.9695-25.889-3.8241-7.7452-1.549-24.519 1.5293-31.839-1.7666-4.4834-2.0188-21.727-7.6128-31.041-9.4756-6.886-1.3772-14.111-6.7843-19.652-10.94-1.0804-0.81031-4.3337-4.5322-4.4212-6.7625-0.0884-2.2542 2.9896-3.0172 1.9901-3.8848-1.481-1.2856-7.3019 1.7064-6.1577 6.0592 1.3015 4.9512 9.2889 13.091 16.299 14.843 8.5423 2.1356 15.757 6.8521 24.398 8.5802 8.4252 1.685 16.413 2.1502 24.938 4.2812 6.1549 1.5387 11.771-0.91978 18.076 0.65655 8.5841 2.146 20.047 6 29.25 6 11.267 0 16.827-4.406 23.888-9.9327 5.0648-3.9644 8.3546-3.3566 12.206-7.2548 0.83046-0.84053 12.43-2.8258 13.487-3.3542 4.2654-2.1327 11.557-12.006 15.853-12.02 3.8302-0.01191 16.963-10.765 17.439-13.328 0.62254-3.3557-0.96437-4.4827-2.3371-8.3144-1.8167-5.0708-0.89004-2.8663-6.8688-7.5109-2.2108-1.7175-5.2977-3.2836-7.479-6.1919-2.3194-3.0925-1.6594-5.8364-4.3774-7.5192-2.704-1.6741-10.786-4.7344-13.872-6.7902-2.8892-1.9247-2.0202-10.052-2.3544-12.179-1.0744-6.8371-3.3356-33.575-3.3356-37.234 0-9.1112 3.0944-8.9352 0.83406-17.345-0.61291-2.2804-3.1738-4.6776-5.0793-6.4801-2.3827-2.2539-38.605 11.849-39.24 11.924-3.7397 0.44093 1.761-6.8728 13.585-11.645 5.3054-2.1414 13.305-10.397 19.048-11.587 1.2511-0.25927 7.2749-5.694 8.4416-2.9041 1.2803 3.0613-2.3121 14.4-1.3098 14.736 1.5574 0.52279 2.5215 5.6175 3.4753 4.105 1.3933-2.2095 2.436-11.456 2.5602-11.301 0.00429 0.00632 0.02751 0.02463 0.03125 0.03125 0.00957 0.02074 0.0267 0.07031 0.03125 0.09375 0.02885 0.2468-0.19626 0.65914-0.75 1.2188 3.3364-1.7474 1.3309-16.725-5.6236-14.843-4.8111 1.3019-13.217 8.6126-19.627 10.966-6.6364 2.4361-11.221 6.6304-18.343 10.539-0.38951 0.21377-1.3652 0.36475-2.5648 0.46013-0.25722 0.02045-0.55269-2.9258-0.85828-11.28-0.03401-0.92979-0.35321-4.3374 1.7811-5.9823 2.0468-1.5774 6.5508-1.393 6.5179-2.2936-0.04577-1.2515 12.895-9.5527 25.961-14.001 1.2837-0.43702 4.1017-4.2506 5.6315-1.8296 2.2677 3.5887 3.2015 13.992 4.2509 13.558 1.4071-0.58236-0.03264-15.516-0.04159-15.745-0.04783-1.2254-1.3206-1.6244-3.3694-1.4587-1.1461 0.09269-68.866-10.287-70.419-9.8867-1.0292 0.26528 27.11-1.0268 41.29 4.3858 3.0149 1.1508 13.675 4.1903 15.97 5.1143 7.7445 3.1168 3.3473 2.9177 2.4706 3.2315-10.499 3.7582-23.064 9.8609-23.205 9.8654-0.1226 0.00395-5.3821 4.0994-12.193 6.2173-6.2506 1.9436-13.769 1.9062-20.67 2.2886-1.8043 0.09998-22.389-7.0367-24.235-6.9084-4.2615 0.29638-7.2076-3.2508-9.9921-3.8096-1.0431-0.20936-5.5588 0.26096 1.7719-4.9299 11.628-8.2337 40.62-15.102 39.605-15.313-2.4566-0.51162-16.57-4.361-30.292 4.226-8.9925 5.6276-22.998 15.98-23.07 17.309-0.03275 0.6079 14.347 5.0812 29.948 9.8616 8.7903 2.6935 16.718 2.4845 23.925 4.7366 3.6408 1.1378 9.2906-2.2327 11.905-0.76998 3.0938 1.7311 2.8374 8.2286 2.8284 8.4011-0.19141 3.6869 0.33991 5.1379 0.14228 5.1348-1.4208-0.0223-2.6084-0.10619-3.0286-0.24103-2.8662-0.9199-8.4315-3.7459-15.388-3.0053-9.5484 1.0166-14.107-6.0842-22.056-5.4618-6.1953 0.48513-9.0996-3.1418-14.634-2.9033-6.7445 0.29073-9.8441-1.8728-14.655-1.6135-2.8107 0.15147-2.6156 2.5987-2.9704-0.82477-0.50395-4.8635 7.5212-16.37 6.9259-15.814l-9.3588 8.7431-1.7408 8.6323 1.0356 5.6071 6.3752 7.4972 29.817 2.3542 37.694 8.3141-0.26352-8.0236-5.4069-1.4812c-11.32-1.9803-8.6122 0.21408-16.773-2.93-3.2137-1.2381-28.408-6.1453-31.161-6.3758-1.7219-0.14415-13.911-3.7984-16.767-1.8158-1.8991 1.3186 5.7432 8.129 3.6298 9.2052-2.8815 1.4674-1.7337 6.6954-0.22678 9.7225 1.2119 2.4345 2.4911 4.6002 1.6633 5.2536zm-33.105 94.869c-0.1873 0.281-0.33739 0.53299-0.40625 0.71875-0.01247 0.0361-0.02408 0.09321-0.03125 0.125-0.00436 0.02301 0.00127 0.07326 0 0.09375-7e-5 0.00655-2.8e-4 0.02499 0 0.03125s-0.0027 0.05174 0 0.0625c0.00624 0.01435 0.02167 0.05089 0.03125 0.0625s0.02259 0.02538 0.03125 0.03125h0.03125c0.01098 0.00396 0.04994 0.02859 0.0625 0.03125h0.0625l0.21875-1.1562z" stroke="#000"/>
   <path d="m557.16 464.85c-2.3691-0.09201-5.0692 3.4601-6.1956 7.9657-1.1332 4.5329-0.20896 9.2687-2.2127 13.276s-3.9856 5.3242-4.868 9.7359c-0.77035 3.8518-2.5721 6.7481-3.5403 10.621-0.75625 3.025 0.2339 7.6813-0.44254 11.064l-0.44254 2.2127c-0.59988 2.9994-0.88508 6.0987-0.88508 9.2934 0 3.6925 0.26338 7.5339-0.44254 11.064-0.67882 3.3941-1.7702 6.8016-1.7702 10.178 0 3.6142-0.29197 7.6646-1.7702 10.621-1.3881 2.7762-2.5545 5.9941-3.9829 8.8508-1.6258 3.2516-2.6552 6.1523-2.6552 9.7359 0 3.6076-4.632 4.514-6.6381 7.5232-1.282 1.923-0.95473 7.2199-2.2127 9.7359-1.8652 3.7304-3.4226 5.7248-4.4254 9.7359-0.90344 3.6138-1.9268 6.645-4.8679 8.8508-1.186 0.88946-1.9185 2.3611-3.0978 3.5403-17.259-7.9657-27.438-14.604-27.438-14.604l-1.3276-7.0807 3.9829-3.5403v-4.4254l3.5403-5.753 2.6552-0.44254 1.3276-8.4083 6.6381-5.753 10.178-2.2127 6.6381-41.599v-11.064l1.7702-14.161 4.4254-7.0806-4.4254-6.6381-3.0978-6.6381-3.0978-8.8508-1.3276-7.5232 4.4254-6.1956 4.4254-3.5403 9.7359 3.0978 16.817 4.4254 11.949 3.5403" fill-opacity=".32143"/>
  </g>
  <path d="m142.64 498.86c8.2876-0.12498 16.435 0.39383 24.402 2.7682 7.4337 2.1304 15.267 2.1646 22.717 4.2394 7.6507 2.7284 15.239 5.5184 23.061 7.7512 8.1974 2.6825 16.586 4.7425 24.827 7.2748 6.9685 0.76668 13.566 3.2069 20.424 4.4709 7.1847 1.2527 14.393 2.2688 21.575 3.6028 8.5071 1.7869 17.225 1.6955 25.758 3.2379 6.5943 1.8031 13.216 2.9737 20.009 3.5345 7.7743 2.0208 15.807 2.7409 23.562 4.8235 6.623 2.4382 12.715 6.1198 19.125 9.054 3.9187 2.1233 8.1934 3.0995 12.419 4.3375l-13.197 9.0556c-4.2521-1.2637-8.4641-2.5764-12.447-4.5792-6.3342-2.9757-12.293-6.827-19.021-8.9055-7.6834-1.9684-15.601-2.8787-23.333-4.6059-6.8445-0.42972-13.406-2.0636-20.066-3.6524-8.519-1.5737-17.285-1.2668-25.747-3.2828-7.1966-1.2629-14.439-2.1345-21.601-3.543-6.8823-1.5331-13.648-3.4216-20.599-4.6168-8.2004-2.4664-16.452-4.7636-24.619-7.3367-7.8459-2.2502-15.483-5.001-23.19-7.654-7.4731-1.9285-15.328-1.8907-22.694-4.3063-8.0035-2.1606-16.161-2.7406-24.438-2.1682l13.075-9.4994z"/>
  <path d="m467.25 323.98c3.3364 0.64953 6.7952 0.65773 10.191 0.69039 4.7098-0.29812 9.2768 0.66952 13.818 1.777 4.9876 0.64954 9.7398 2.4276 14.666 3.3156 5.5889 0.46492 11.197 0.95656 16.808 1.1122 3.6325 0.34719 7.3614-0.38911 10.975 0.11586 0.63362 0.14709 1.2778 0.23111 1.9189 0.33439l-3.0286 2.1191c-0.63728-0.0956-1.2747-0.1903-1.9016-0.34279-3.5557-0.39345-7.1815 0.04866-10.747-0.21492-5.6545-0.11978-11.31-0.6697-16.944-1.0881-4.8923-1.0261-9.6557-2.656-14.626-3.3598-4.5462-1.0261-9.079-2.0302-13.779-1.7088-3.4704-0.01648-6.9384-0.15381-10.386-0.54601l3.0337-2.2041z"/>
  <path d="m437.02 305.87c2.0823 0.97187 4.3388 1.7299 6.5991 2.2378 2.9855 0.48147 5.8438 1.3981 8.4564 2.9156 3.85 2.1787 7.7907 4.1452 9.5049 8.4559 0.70443 2.7921 1.6756 5.2009 4.0567 6.8428 0.33419 0.20638 0.72522 0.22731 1.0956 0.31396l-3.028 2.1118c-0.39838-0.12441-0.82249-0.17859-1.1737-0.42875-2.3995-1.7436-3.2346-4.3111-4.0342-7.118-1.6928-4.2196-5.6173-6.1968-9.4685-8.1998-2.5848-1.5073-5.42-2.3589-8.3661-2.8462-2.3346-0.55537-4.6822-1.3013-6.8424-2.3241l3.2003-1.9611z"/>
  <path d="m600.49 386.27c-4.2733 0.06132-7.8498 4.7933-10.127 9.3484-1.3469 2.6937-10.112 4.1498-12.854 5.0637-4.2175 1.4058-5.9924 4.0448-8.9589 7.0113-2.9876 2.9876-5.2398 6.4084-8.1798 9.3484l-1.5581 1.5581c-2.9631 2.9631-5.5359 5.9254-8.1798 8.5694-2.8797 2.8797-5.9469 6.3712-8.1798 9.3484-2.5317 3.3756-5.5637 7.1217-8.5693 10.127-2.7211 2.7211-4.4327 5.9538-7.4008 8.1798-2.9788 2.2341-3.9022 8.1869-6.6218 10.906-2.1211 2.1211-4.0739 6.2002-5.4532 8.9589-1.4215 2.8431-3.3669 5.704-5.4532 7.7903-1.651 1.651-2.6095 5.3744-3.1161 7.4008l-0.38951 1.5581c-0.72595 2.9038-2.937 4.7055-4.2847 7.4008-1.2223 2.4445-2.9661 4.7636-3.8952 6.6218-1.2367 2.4734-3.0735 5.0317-4.6742 6.2322-0.4407 0.33052-0.77904 0.77904-1.1686 1.1686-1.0449 1.0449-0.3588-3.1468 1.1686-4.6742 1.9467-1.9467 2.783-4.0079 3.8952-6.2322 1.029-2.0581 1.7752-3.5952 2.3371-5.8427 0.6625-2.65 2.0659-5.1474 2.7266-7.7903 1.0191-4.0763 2.6011-5.4911 5.0637-8.5694 1.2939-1.6174 1.792-5.142 2.7266-7.0113 1.3552-2.7104 4.5057-4.3197 6.2323-6.6218 2.027-2.7027 2.7121-5.0056 3.5056-8.1798 0.72749-2.9099 3.3108-5.4045 5.4532-7.0113 2.3401-1.7551 4.3994-4.9036 5.4532-7.0113 1.2062-2.4124 2.6381-4.1077 3.8952-6.6218 1.3536-2.7072 5.2346-4.8451 7.4008-7.0113 2.3602-2.3602 3.5945-4.0728 5.0637-7.0113 1.2838-2.5675 3.5351-5.2806 5.8428-7.0113 2.8186-2.1139 5.5287-3.1916 7.7903-5.4532 2.0295-2.0295 4.6963-3.5278 6.6218-5.4532 1.9695-1.9695 3.6387-3.4107 5.8427-5.0637 2.1065-1.5799 4.1679-2.9994 6.2322-5.0637 2.029-2.029 4.7193-3.7342 7.0113-5.4532 2.268-1.701 4.4253-3.2568 6.2322-5.0637 1.9225-1.9225 4.133-2.5749 5.8427-4.2847 2.2009-2.2009 1.9476-5.4454 1.9476-8.5694v-8.5694c0-4.2476-3.5267-3.6572-6.2322-3.1161-2.357 0.4714-7.1642 3.4256-9.3484 5.0637-2.7316 2.0487-4.8785 4.8274-7.7903 7.0113-2.7603 2.0702-3.7582 3.4529-5.8427 6.2322-2.6349 3.5132-6.0463 5.9843-8.5694 9.3484-1.933 2.5773-4.7926 5.1821-6.6218 7.0113-2.0591 2.0591-4.3621 5.2186-5.8427 8.1798-1.0527 2.1053-4.786 4.897-7.0113 6.2322-2.7118 1.6271-4.0476 4.6178-5.8427 7.0113-2.0425 2.7233-3.2019 5.1494-5.8428 7.7903-1.7319 1.7319-4.2045 4.5138-5.4532 7.0113-0.80259 1.6052-3.0695 3.459-4.2847 4.6742-2.1648 2.1648-4.0046 4.3634-5.0637 7.0113-1.3654 3.4134-3.0647 5.2474-3.8952 8.5693-0.79927 3.1971-2.0711 4.9213-3.5056 7.7903-1.4559 2.9117-2.8587 6.1068-4.2847 8.9589-1.4335 2.867-2.0203 5.6801-3.8952 8.1798-1.9635 2.618-3.2047 5.6304-4.6742 8.5694-1.508 3.0161-3.5973 5.6364-5.0637 8.5693-1.6442 3.2883-5.0548 3.5415-6.2322-1.1685-0.10987-0.43946 6.0841-6.0841 6.6218-6.6218 2.3484-2.3483 3.638-5.2038 4.2847-7.7903 0.61654-2.4662 3.9005-4.3062 4.6742-7.4008 0.5632-2.2528 1.7568-4.6902 2.3371-7.0113 0.65017-2.6007 1.3853-4.6318 2.3371-7.0113 0.94929-2.3732 2.2063-4.3471 3.1161-6.6218 1.0374-2.5936 1.8314-5.1685 3.5056-7.4008 0.17419-0.23226 0.25968-0.51935 0.38951-0.77903 1.2248-2.4495 2.9018-4.778 4.2847-6.6218 1.7077-2.2769 3.7322-4.1217 5.8427-6.2322 1.9775-1.9775 3.9239-3.5344 6.2322-5.8427 2.4648-2.4648 3.2025-3.9374 3.8952-7.4008 0.47442-2.3721 2.3635-4.1097 4.6742-5.8427 2.7975-2.0982 4.2427-4.6322 6.6218-7.0113l5.0637-5.0637c1.9804-1.9804 2.5681-4.7225 4.2847-7.0113 1.8491-2.4654 2.9708-5.1626 4.2847-7.7903 1.4031-2.8062 4.7394-4.3499 7.0113-6.6218 2.1423-2.1423 5.6104-4.0524 7.4008-5.8427 2.3528-2.3528 4.7088-3.5748 6.2322-6.6218 0.95567-1.9113 6.4293-4.1885 8.1798-5.0637 3.3472-1.6736 4.666-3.1141 7.7903-3.8952 2.3461-0.58652 3.7458-1.6488 4.6742-3.5056 1.1583-2.3166 0-6.3738 0-8.9589v-23.76c0-3.3872 0.11394-5.4311-1.9476-8.1798s-4.103-2.685-7.7903-1.9476c-2.0656 0.41313-5.6216 4.0636-7.0113 5.4532-1.6015 1.6015-7.5827 5.304-9.7379 5.8428-2.3436 0.58589-4.0655 5.2889-5.8427 6.6218-2.8796 2.1597-3.9811 6.2967-7.0113 8.5694-2.4959 1.8719-4.063 6.7896-5.8427 8.5693-2.1606 2.1606-4.1004 4.4899-6.2322 6.6218-2.489 2.489-5.263 7.0204-7.0113 10.517l-0.77903 1.5581c-1.6551 3.3103-4.2946 6.5085-6.2323 9.7379-1.4312 2.3852-4.0431 5.5076-5.0637 8.5694-0.7815 2.3445-4.7055 5.095-6.6218 7.0113-2.165 2.165-4.471 6.4807-6.6218 9.3484-2.2862 3.0483-4.7447 5.9367-7.0113 8.9589-2.5223 3.363-4.1069 7.1638-6.6218 10.517-2.2487 2.9982-4.668 5.8366-7.4008 8.5693-2.1914 2.1914-4.5406 5.405-6.6218 8.1798-2.2162 2.9549-5.9629 4.4048-8.1798 6.6218-2.363 2.363-4.7692 2.9014-7.7903 3.5056-3.2094 0.64188-1.8703-0.49256 0.38952-3.5056 2.3508-3.1344 3.6391-4.9357 7.0113-6.6218 2.1026-1.0513 4.6159-4.6159 6.2323-6.2322 2.7393-2.7393 4.4526-6.4002 7.0113-8.9589 1.6782-1.6781 3.2625-4.35 4.6742-6.2322 2.1334-2.8446 4.0258-5.1944 6.6218-7.7903 2.2695-2.2695 5.2227-3.4342 6.6218-6.2322 1.5241-3.0482 4.0497-5.7623 5.4532-8.5694 1.4329-2.8658 3.3558-5.618 5.0637-8.1798 1.919-2.8784 2.7977-5.8314 4.6742-8.9589 1.7936-2.9893 3.7274-5.693 5.4532-8.5694 1.5902-2.6503 2.6725-4.62 4.6742-6.6218 3.2253-3.2253 3.7142-6.1418 7.7903-8.1798 2.0313-1.0157 4.8219-4.7413 6.2322-6.6218 2.1219-2.8292 4.0916-4.8707 6.2323-7.0113 2.1274-2.1274 4.0491-4.1741 6.6218-6.2323 2.7102-2.1681 5.6437-3.0905 6.2323-6.6218 0.54366-3.262 2.9403-5.6669 5.0637-7.7903 2.5726-2.5726 4.8817-2.9341 7.4008-5.4532 1.8862-1.8862 5.7421-2.6763 8.1798-3.8952 2.0936-1.0468-4.6706-0.38951-7.0113-0.38951-3.6393 0-7.0213 0.0799-10.517 0.77903-3.4056 0.68113-5.2478 2.5255-8.1798 4.2847-2.6645 1.5987-4.0607 4.0607-6.2323 6.2322-2.2326 2.2326-4.1586 3.6374-7.0113 5.0637-2.912 1.456-5.3253 1.5174-7.4008 4.2847-1.6473 2.1964-4.479 3.3105-6.6218 5.4532-2.0959 2.0959-2.7911 3.9596-4.6742 5.8427-2.0654 2.0654-3.5932 4.171-5.0637 6.6218-1.4554 2.4256-3.6276 4.0171-5.4532 5.8427l-6.6218 6.6218c-2.5496 2.5496-4.1225 5.291-6.6218 7.7903-2.2612 2.2612-4.2485 4.638-6.6218 7.0113-2.5308 2.5308-4.5062 5.3591-6.6218 8.1798-2.0212 2.6949-4.1251 5.5283-6.6218 7.4008-2.7924 2.0943-5.558 5.8874-7.4008 8.9589-0.33401 0.55668-0.77903 1.0387-1.1686 1.5581-2.2664 3.0219-3.5286 6.2552-6.2322 8.9589-2.4929 2.4929-4.1046 4.9535-6.2322 7.7903-2.1742 2.8989-4.2261 5.6152-6.2323 8.9589-1.8485 3.0809-5.2146 5.2649-7.4008 8.1798-2.1129 2.8172-4.7782 5.7217-6.6218 8.1798-2.0464 2.7285-6.2823 2.3371-9.3484 2.3371-4.3848 0-6.6857-0.21511-8.5693-2.7266-1.1321-1.5094 6.5695-5.5672 7.4008-6.2322 2.9122-2.3297 5.9833-3.8518 8.9589-6.2323 2.7296-2.1837 5.9582-3.9818 8.9589-6.2322 3.0742-2.3056 5.587-7.2119 7.7903-10.517 1.8264-2.7396 2.6318-4.9689 5.0637-7.4008 2.3813-2.3813 4.1136-5.355 6.2322-8.1798 1.5738-2.0984 3.7551-4.1446 5.4532-5.8427 2.3438-2.3438 3.904-4.8158 5.8427-7.4008 2.1863-2.9151 2.5808-5.636 5.4532-7.7903 2.6425-1.9819 4.6882-4.6882 7.0113-7.0113 2.3794-2.3794 3.6251-4.7638 6.6218-7.0113 2.6152-1.9614 5.2762-3.5412 6.6218-6.2322 1.1022-2.2043 6.816-4.5766 8.5694-5.4532 3.2343-1.6172 6.4874-4.6249 8.5694-7.4008 2.0045-2.6727 4.3526-5.1317 7.0113-7.7903 2.2898-2.2898 0.82386-5.0861 3.8952-6.6218 2.5176-1.2588 5.3709-4.5919 7.0113-6.2323 2.3248-2.3248 5.8288-4.469 8.1798-6.2322 2.5142-1.8857 5.8553-3.5182 7.7903-5.4532 2.1752-2.1752 6.2425-3.7055 8.9589-5.0637 2.1251-1.0626 6.0777 0.31222 7.7903 1.1685 2.8512 1.4256 6.1392 1.033 7.7903-1.1685 1.6571-2.2094 6.4201-4.1664 8.9589-4.6742 2.3218-0.46436 5.0311-3.4975 8.1798-4.2847 3.6801-0.92002 4.1495-0.72862 6.2322-3.5056 1.9203-2.5604 3.7771-4.4204 6.6218-5.8427 2.6034-1.3017 5.9506-1.1686 8.9589-1.1686 2.8281 0 5.8869 0.2811 8.5693-0.38952l1.5581-0.38951c3.8847-0.97117 6.7445-1.2219 10.906-0.38952 2.8856 0.57711 5.9477 0.77903 8.9589 0.77903 3.4208 0 4.3411 2.3371 7.7903 2.3371 2.9108 0 6.5543 1.1011 8.5693 3.1161 1.5586 1.5586 3.787 2.9917 5.8427 3.5056 2.7477 0.68693 5.3262 1.105 7.7903 2.3371 2.0824 1.0412 3.4423 3.8635 5.8427 5.0637 2.8523 1.4262 5.3524 2.2363 7.7903 4.6742 1.5633 1.5633 3.4197 1.0088 5.0637 3.8952 0.92419 1.6226 7.4697-0.00999 6.505 0.2789-1.2191 0.36505-9.9052 2.1109-10.79 1.6687-2.2907-1.1453-4.2617-2.7036-5.8427-4.2847-1.8242-1.8242-4.2371-3.4581-6.2322-5.4532-2.1866-2.1866-4.2704-2.5247-7.0113-3.8952-3.4464-1.7232-5.3469-1.8678-8.5693-4.2847-2.5685-1.9264-3.9454-2.8146-7.4008-3.5056-2.9878-0.59756-5.7874-0.77903-8.9589-0.77903h-7.7903c-4.403 0-9.3044-0.77902-14.023-0.77902-4.4126 0-8.6396 0.77902-12.854 0.77902-1.9874 0-5.2611 2.6892-6.6218 3.5056-2.3136 1.3882-3.2885 2.5095-5.0637 4.2847-1.6355 1.6355-5.0331 2.3187-7.0113 3.5056-3.0001 1.8001-6.146 3.2547-9.3484 3.8952-3.9325 0.78651-4.3418 0.50374-5.0637 1.9476-1.1274 2.2549 5.6182-0.22457 7.4008 1.5581 1.6077 1.6077 5.4943 2.25 7.4008 2.7266 2.6491 0.66228 6.7994-3.768 8.9589-5.0637 4.1768-2.5061 6.8928-4.1662 10.127-7.4008 2.4585-2.4584 6.0714-4.0095 8.9589-5.4532 3.9638-1.9819 8.0617-1.558 12.464-1.558h8.9589c3.6748 0 6.7604 0.10561 10.127 0.77902 3.1442 0.62884 5.2252-0.11402 7.7903 1.1686 2.0505 1.0253 3.1005 1.9476 5.4532 1.9476 2.2515 0 1.1579 3.8909-2.7266 2.3371-3.3843-1.3537-5.931-2.5166-10.127-3.1161-3.4947-0.49924-6.9725-0.38951-10.517-0.38951h-9.7379c-3.2204 0-7.0413-0.56927-9.7379 0.77902-2.1206 1.0603-0.37441 5.6032 0.38951 6.6218 1.4846 1.9794 1.1686 3.7241 1.1686 6.6218v8.9589c0 3.9494 6.2569-1.3818 7.0113-1.9476 1.9116-1.4337 5.3241-3.376 7.4008-3.8952 3.5237-0.88091 7.6447-0.38951 11.296-0.38951h9.3484c2.8193 0 5.7533 0.77903 8.5693 0.77903 2.8867 0 4.3215 1.6647 7.0113 2.3371 1.8613 0.46533 3.4798 3.5966 6.2322 4.2847 2.9232 0.73079 5.8424 3.116 8.1798 4.2847 2.6337 1.3168 4.5645 2.6169 6.6218 4.6742 1.8226 1.8226 3.0738 3.4634 4.2847 4.6742 0.87522 0.87522 13.551 11.085 20.309 17.442 0.77291 0.72696 1.4014-7.138 1.982-15.135 0.26264-3.6176 0.51551-7.2621 0.76754-10.151 0.05744-0.65833-22.714-14.167-22.656-14.738 0.26082-2.5898 23.352 8.7104 23.625 8.9884 0.77555 0.78888-0.42303 32.246 0.09433 32.843 0.81925 0.94623 0.02597 3.634-0.04224 3.9068-0.73236 2.9294-26.364-17.262-27.584-18.483-1.6984-1.6984-3.8461-3.4566-5.4532-5.0637-2.2099-2.2099-5.1249-3.3276-7.0113-5.8427-1.3665-1.822-4.9488-3.0012-6.6218-4.6742-2.3259-2.3259-7.8368-3.9068-10.906-4.6742-5.0509-1.2627-9.2426-3.5056-14.802-3.5056h-10.127c-3.1022 0-3.8319 0.71577-5.8427 2.7266-1.6781 1.6781-3.9008 3.5085-6.2322 4.6742-2.6494 1.3247-2.8281 3.8787-2.3371 5.8427 0.69245 2.7698 0.83409 5.6735 1.5581 8.5694l0.38952 1.5581c0.597 2.388 1.3891 4.9978 1.9476 7.7903 0.7629 3.8145-0.06095 4.2847 4.2847 4.2847 2.4674 0 6.1062-2.3371 9.7379-2.3371 3.6515 0 7.3787 0.18369 10.127 1.5581 2.8452 1.4226 6.4672 1.1846 9.3484 2.3371 2.2159 0.88637 4.7867 1.781 7.0113 2.3371 3.1878 0.79695 5.5836 1.4722 7.4008 3.8952 2.2589 3.0119 3.9833 3.5718 7.0113 5.8427 1.7166 1.2874 3.8975 2.533 5.8427 3.5056 0.8834 0.44171 17.271 10.352 25.17 16.112 0.73334 0.53482 4.0336-33.597 4.6013-33.145 3.578 2.8507 1.0684 38.597 0.24716 39.127-0.76259 0.49248-2.3458 0.48102-2.7519 0.88717-0.4405 0.44049-33.439-21.364-34.277-22.202-2.7722-2.7722-5.8071-5.037-8.9589-7.4008-2.3872-1.7904-7.3412-2.502-10.127-3.8952-0.62539-0.3127-1.2984-0.51935-1.9476-0.77903-3.8058-1.5223-5.012-3.1161-9.3484-3.1161-3.005 0-5.6755-0.05558-8.5694-0.77904-2.3804-0.59509-4.8702-1.1686-7.4008-1.1686-2.7254 0-4.0473 1.7102-5.8427 3.5056-1.5053 1.5053-0.45315 8.3148 0 10.127 0.9589 3.8356 1.6802 3.5056 5.8427 3.5056 2.966 0 6.4639 0.77904 9.7379 0.77904 4.1668 0 8.9993-0.26992 12.93 0.71284 2.7746 0.69365 5.0712 3.2938 7.7139 4.3509 2.8195 1.1278 2.9648 3.7616 5.7715 5.4456 1.7564 1.0538 5.31 1.9158 6.3035 3.9028 0.4039 0.8078 5.9478 11.716 9.1598 19.237 1.4239 3.334-0.06111 8.4843 0.81445 10.968 0.30363 0.86131 8.353 0.25184 15.086-0.04275 1.0679-0.04672 5.0642 1.9992 8.3839-3.582 3.3591-5.6476 6.0403-18.923 6.8379-18.909 0.8352 0.01482 0.15736 20.358-4.9866 24.921-4.3553 3.8636-1.1245-1.3389-3.6448-0.33913-1.0682 0.42375-12.63 2.0056-14.22 2.5822-1.6288 0.59043-6.8684 0.76415-7.1082 0.93124-0.30936 0.21557-1.359 0.0636-3.5058-4.802-1.1724-2.6573 1.194-9.2896-0.26139-11.886-4.8108-8.5821-10.486-14.973-11.229-15.963-2.0358-2.7144-4.3273-4.3273-6.6218-6.6218-2.3342-2.3342-6.4762-4.4066-9.3484-5.8427-0.73448-0.36725 15.369 13.147 14.59 12.887-2.6077-0.86925-23.271-14.312-25.886-14.835-3.6922-0.73844-6.6379-2.3371-10.517-2.3371-3.5846 0-5.2184-0.2348-7.7903 2.3371-1.9472 1.9472-2.9296 3.95-5.4532 5.8427-1.2701 0.95256-5.3301 1.9168-7.0113 2.3371-2.0302 0.50756-4.0332 3.248-6.6218 3.8952-0.90589 0.22648-3.7533 4.6652-4.2847 5.0637-1.8132 1.3599-4.7968 0.77903-7.0113 0.77903-3.1869 0-4.3702 2.8482-8.5694 1.1685z" fill-rule="evenodd" stroke="#000" stroke-width=".8306"/>
  <g transform="matrix(.83061 0 0 .83061 -30.527 76.327)" fill-rule="evenodd">
   <path d="m632.39 555.57 10.178 1.7702 7.9657 4.4254-0.44255 7.0807 11.506 7.9657 7.5232 7.0807-1.7702 7.5232-23.455 15.489-10.178 7.5232-12.834 3.9829-24.34 14.161-17.259-1.3276-15.489-3.0978-15.489-0.44255-15.489-1.3276-37.616-11.064-17.702-12.834-0.44254-5.753 4.8679-2.6552-0.44254-5.753 3.5403-5.3105 4.868-2.2127 2.2127-9.7359 7.0807-3.9829 33.633 5.753 35.403 4.868 17.259 3.5403 23.012-7.5232 23.897-18.144z" fill="#baab5a" stroke="#000"/>
   <path d="m552.29 432.1 26.552 1.7702 16.817 3.0978 23.897 6.6381 6.6381 0.44254 2.2127 17.259 1.3276 15.046-2.2127 8.4083 0.88508 17.259 2.2127 11.949-0.44254 25.225 2.2127 14.161-21.242 19.914-27.438 5.3105-41.599-3.5403-23.455-4.4254-12.834-3.9829 3.9829-22.57 3.5403-19.029-2.2127-5.3105 3.5403-22.127 3.0978-7.0806-6.1956-6.6381-2.2127-7.5232-2.2127-10.621 3.0978-7.9657 6.1956-5.753 21.685-11.949 14.161-7.9657z" fill="#d6cd9d" stroke="#000"/>
   <path d="m513.97 496.1s-0.31002-2.8816-1.6736 4.4318c-0.94409 5.0635-4.6505 19.529 0.18292 24.638 0.0221 0.02336 1.6103-8.6142 2.3271-16.329 0.36113-3.8863-2.0621-4.926 0.63383-10.807 0.21283-0.46424 12.768-6.3431 27.933-6.2164 15.759 0.13173 24.31 5.9102 34.17 5.8814 2.313-0.00675 2.5693 21.051 3.4894 31.977 0.68274 8.1079 2.0759 6.9573 3.1285 6.8694 0.49399-0.04122 2.7901-1.3845 2.9142-6.1232 0.29087-11.099-2.1499-31.643-1.6825-31.823 18.462-7.1291 27.347-15.572 39.944-14.736 7.5144 0.49871-1.6258 21.317 2.2713 22.708 10.798 3.8553-33.49 26.375-38.721 28.452-6.1866 2.4566-23.973-3.7802-23.784-2.5759 0.44616 2.8402-47.796-11.401-51.827-10.29-1.2087 0.33297-4.7137 7.1687-4.8497 8.7656-1.2322 14.472-3.7605 37.614-2.1624 36.943 1.9965-0.83726 2.7338-6.4889 4.5757-18.199 1.3615-8.6556 3.982-24.424 4.7585-24.272 5.997 1.1695 33.775 4.8538 47.816 10.505 3.1458 1.2662 13.44 1.4083 16.535 1.3762 3.2426-0.03365 1.3884 39.753 4.5145 40.429 4.5764 0.98945-0.26379-35.173 5.4909-37.898 13.347-6.3194 35.47-24.023 36.46-23.229 4.7064 3.7749 0.14446 32.278 3.357 35.547 0.51909 0.52829-6.797 10.05-16.174 15.608-11.141 6.6045-25.018 9.3491-29.691 9.056-14.445-0.90606-54.034-9.023-58.131-8.1337-10.449 2.2679-32.104-8.2187-34.993-2.5225-6.6518 13.115-2.7157 10.456-3.6704 18.725-0.41141 3.5632 6.6883-3.7392 6.0108-10.839-0.08782-0.92027 2.1417-3.4943 6.3315-5.0684 2.356-0.88509 13.755-0.41027 17.287 4.3861 6.0836 8.2612 29.882 7.819 46.347 7.1516 5.8316-0.2364 17.061 3.7839 20.355 3.8997 2.9289 0.10297 1.1006 19.691 4.8485 20.169 5.7179 0.72796-0.68963-21.789 1.7434-21.997 8.0691-0.69005 19.811-6.0638 27.786-11.607 8.1462-5.6618 10.26-11.5 14.657-12.703 4.994-1.3667 11.333 0.10806 13.626 0.94588 6.0816 2.2221 1.191 8.7085-1.3113 11.534-5.5971 6.3191-0.17843 0.40114-2.7807 1.7777-3.782 2.0006-10.59 5.6172-17.699 10.725-11.93 8.5721-25.068 19.464-35.176 20.23-32.691 2.4784-56.45-21.588-52-13.155 0.92548 1.754-51.424-8.7396-52.007-8.7794-4.0485-0.27653-7.3545 8.1414-3.1496 10.294 2.1454 1.0984 0.29635-7.0147 3.293-6.4808 14.668 2.6137 34.699 7.2862 60.733 11.505 8.7318 1.415 32.573 8.6063 42.286 10.094 0.93958 0.1439 0.29415 17.692 2.495 17.291 1.874-0.34142 1.2823-17.854 1.7752-17.957 16.781-3.5007 22.984-12.663 33.351-20.364 13.318-9.8931 23.565-16.458 28.877-13.593 2.729 1.472-1.3266 4.1254 0.89679 5.3191 0.47419 0.25458-14.616 15.264-22.872 21.279-18.434 13.433-39.771 24.141-39.771 24.141l-10.991 1.0453-33.188-14.787-46.108-9.669-17.025-3.479-4.8683-5.2006c1.3554-2.0335-2.4409 7.4148 0.41695 4.5548 3.4775 1.778 4.3192 5.0672 8.5075 5.0672 9.4267 0 23.532 3.3158 33.109 4.912 8.9171 1.4862 30.633 10.772 39.775 13.82 9.5847 3.1949 19.569 6.6007 29.664 6.6007 8.5564 0 29.177-15.767 35.417-20.447 7.3698-5.5274 12.253-8.6303 19.767-14.265 3.8772-2.9079 7.3657-10.502 11.62-10.502 10.9 0 11.316 3.5924 2.0308 12.877-5.8358 5.8358-9.5362 5.1635-12.72 7.5741-4.7267 3.5788-15.836 13.237-22.044 14.272-7.2239 1.204-28.275 15.599-34.47 15.599-11.029 0-16.616-1.9695-25.889-3.8241-7.7452-1.549-24.519 1.5293-31.839-1.7666-4.4834-2.0188-21.727-7.6128-31.041-9.4756-6.886-1.3772-14.111-6.7843-19.652-10.94-1.0804-0.81031-4.3337-4.5322-4.4212-6.7625-0.0884-2.2542 2.9896-3.0172 1.9901-3.8848-1.481-1.2856-7.3019 1.7064-6.1577 6.0592 1.3015 4.9512 9.2889 13.091 16.299 14.843 8.5423 2.1356 15.757 6.8521 24.398 8.5802 8.4252 1.685 16.413 2.1502 24.938 4.2812 6.1549 1.5387 11.771-0.91978 18.076 0.65655 8.5841 2.146 20.047 6 29.25 6 11.267 0 16.827-4.406 23.888-9.9327 5.0648-3.9644 8.3546-3.3566 12.206-7.2548 0.83046-0.84053 12.43-2.8258 13.487-3.3542 4.2654-2.1327 11.557-12.006 15.853-12.02 3.8302-0.01191 16.963-10.765 17.439-13.328 0.62254-3.3557-0.96437-4.4827-2.3371-8.3144-1.8167-5.0708-0.89004-2.8663-6.8688-7.5109-2.2108-1.7175-5.2977-3.2836-7.479-6.1919-2.3194-3.0925-1.6594-5.8364-4.3774-7.5192-2.704-1.6741-10.786-4.7344-13.872-6.7902-2.8892-1.9247-2.0202-10.052-2.3544-12.179-1.0744-6.8371-3.3356-33.575-3.3356-37.234 0-9.1112 3.0944-8.9352 0.83406-17.345-0.61291-2.2804-3.1738-4.6776-5.0793-6.4801-2.3827-2.2539-38.605 11.849-39.24 11.924-3.7397 0.44093 1.761-6.8728 13.585-11.645 5.3054-2.1414 13.305-10.397 19.048-11.587 1.2511-0.25927 7.2749-5.694 8.4416-2.9041 1.2803 3.0613-2.3121 14.4-1.3098 14.736 1.5574 0.52279 2.5215 5.6175 3.4753 4.105 1.3933-2.2095 2.436-11.456 2.5602-11.301 0.00429 0.00632 0.02751 0.02463 0.03125 0.03125 0.00957 0.02074 0.0267 0.07031 0.03125 0.09375 0.02885 0.2468-0.19626 0.65914-0.75 1.2188 3.3364-1.7474 1.3309-16.725-5.6236-14.843-4.8111 1.3019-13.217 8.6126-19.627 10.966-6.6364 2.4361-11.221 6.6304-18.343 10.539-0.38951 0.21377-1.3652 0.36475-2.5648 0.46013-0.25722 0.02045-0.55269-2.9258-0.85828-11.28-0.03401-0.92979-0.35321-4.3374 1.7811-5.9823 2.0468-1.5774 6.5508-1.393 6.5179-2.2936-0.04577-1.2515 12.895-9.5527 25.961-14.001 1.2837-0.43702 4.1017-4.2506 5.6315-1.8296 2.2677 3.5887 3.2015 13.992 4.2509 13.558 1.4071-0.58236-0.03264-15.516-0.04159-15.745-0.04783-1.2254-1.3206-1.6244-3.3694-1.4587-1.1461 0.09269-68.866-10.287-70.419-9.8867-1.0292 0.26528 27.11-1.0268 41.29 4.3858 3.0149 1.1508 13.675 4.1903 15.97 5.1143 7.7445 3.1168 3.3473 2.9177 2.4706 3.2315-10.499 3.7582-23.064 9.8609-23.205 9.8654-0.1226 0.00395-5.3821 4.0994-12.193 6.2173-6.2506 1.9436-13.769 1.9062-20.67 2.2886-1.8043 0.09998-22.389-7.0367-24.235-6.9084-4.2615 0.29638-7.2076-3.2508-9.9921-3.8096-1.0431-0.20936-5.5588 0.26096 1.7719-4.9299 11.628-8.2337 40.62-15.102 39.605-15.313-2.4566-0.51162-16.57-4.361-30.292 4.226-8.9925 5.6276-22.998 15.98-23.07 17.309-0.03275 0.6079 14.347 5.0812 29.948 9.8616 8.7903 2.6935 16.718 2.4845 23.925 4.7366 3.6408 1.1378 9.2906-2.2327 11.905-0.76998 3.0938 1.7311 2.8374 8.2286 2.8284 8.4011-0.19141 3.6869 0.33991 5.1379 0.14228 5.1348-1.4208-0.0223-2.6084-0.10619-3.0286-0.24103-2.8662-0.9199-8.4315-3.7459-15.388-3.0053-9.5484 1.0166-14.107-6.0842-22.056-5.4618-6.1953 0.48513-9.0996-3.1418-14.634-2.9033-6.7445 0.29073-9.8441-1.8728-14.655-1.6135-2.8107 0.15147-2.6156 2.5987-2.9704-0.82477-0.50395-4.8635 7.5212-16.37 6.9259-15.814l-9.3588 8.7431-1.7408 8.6323 1.0356 5.6071 6.3752 7.4972 29.817 2.3542 37.694 8.3141-0.26352-8.0236-5.4069-1.4812c-11.32-1.9803-8.6122 0.21408-16.773-2.93-3.2137-1.2381-28.408-6.1453-31.161-6.3758-1.7219-0.14415-13.911-3.7984-16.767-1.8158-1.8991 1.3186 5.7432 8.129 3.6298 9.2052-2.8815 1.4674-1.7337 6.6954-0.22678 9.7225 1.2119 2.4345 2.4911 4.6002 1.6633 5.2536zm-33.105 94.869c-0.1873 0.281-0.33739 0.53299-0.40625 0.71875-0.01247 0.0361-0.02408 0.09321-0.03125 0.125-0.00436 0.02301 0.00127 0.07326 0 0.09375-7e-5 0.00655-2.8e-4 0.02499 0 0.03125s-0.0027 0.05174 0 0.0625c0.00624 0.01435 0.02167 0.05089 0.03125 0.0625s0.02259 0.02538 0.03125 0.03125h0.03125c0.01098 0.00396 0.04994 0.02859 0.0625 0.03125h0.0625l0.21875-1.1562z" stroke="#000"/>
   <path d="m557.16 464.85c-2.3691-0.09201-5.0692 3.4601-6.1956 7.9657-1.1332 4.5329-0.20896 9.2687-2.2127 13.276s-3.9856 5.3242-4.868 9.7359c-0.77035 3.8518-2.5721 6.7481-3.5403 10.621-0.75625 3.025 0.2339 7.6813-0.44254 11.064l-0.44254 2.2127c-0.59988 2.9994-0.88508 6.0987-0.88508 9.2934 0 3.6925 0.26338 7.5339-0.44254 11.064-0.67882 3.3941-1.7702 6.8016-1.7702 10.178 0 3.6142-0.29197 7.6646-1.7702 10.621-1.3881 2.7762-2.5545 5.9941-3.9829 8.8508-1.6258 3.2516-2.6552 6.1523-2.6552 9.7359 0 3.6076-4.632 4.514-6.6381 7.5232-1.282 1.923-0.95473 7.2199-2.2127 9.7359-1.8652 3.7304-3.4226 5.7248-4.4254 9.7359-0.90344 3.6138-1.9268 6.645-4.8679 8.8508-1.186 0.88946-1.9185 2.3611-3.0978 3.5403-17.259-7.9657-27.438-14.604-27.438-14.604l-1.3276-7.0807 3.9829-3.5403v-4.4254l3.5403-5.753 2.6552-0.44254 1.3276-8.4083 6.6381-5.753 10.178-2.2127 6.6381-41.599v-11.064l1.7702-14.161 4.4254-7.0806-4.4254-6.6381-3.0978-6.6381-3.0978-8.8508-1.3276-7.5232 4.4254-6.1956 4.4254-3.5403 9.7359 3.0978 16.817 4.4254 11.949 3.5403" fill-opacity=".32143"/>
  </g>
 </g>
</svg>
