<?xml version="1.0" encoding="UTF-8"?>
<svg viewBox="0 0 378.57144 378.57144" xmlns="http://www.w3.org/2000/svg" xmlns:xlink="http://www.w3.org/1999/xlink">
 <defs>
  <filter id="f">
   <feGaussianBlur stdDeviation="10.84"/>
  </filter>
  <linearGradient id="b">
   <stop stop-color="#fff" offset="0"/>
   <stop stop-color="#a00" offset="1"/>
  </linearGradient>
  <radialGradient id="a" cx="326.78" cy="348.79" r="17.678" gradientTransform="matrix(6.9869 .13453 -.09804 5.0918 -1922.2 -1471.1)" gradientUnits="userSpaceOnUse">
   <stop offset="0"/>
   <stop stop-color="#f2f2f2" offset="1"/>
  </radialGradient>
  <radialGradient id="c" cx="294.5" cy="423.23" r="189.29" gradientTransform="matrix(1.9901 .00021103 -.00018758 1.7691 -333.04 -271.62)" gradientUnits="userSpaceOnUse" xlink:href="#b"/>
  <radialGradient id="d" cx="310.42" cy="406.01" r="189.29" gradientTransform="matrix(1.9901 .00021103 -.00018758 1.7691 -333.04 -271.62)" gradientUnits="userSpaceOnUse" xlink:href="#b"/>
  <radialGradient id="e" cx="298.86" cy="306.83" r="189.29" gradientTransform="matrix(1.9901 .00021103 -.00018758 1.7691 -333.04 -271.62)" gradientUnits="userSpaceOnUse" xlink:href="#b"/>
 </defs>
 <path transform="translate(-190 -209.5)" d="m568.57 398.79c0 104.54-84.746 189.29-189.29 189.29s-189.29-84.746-189.29-189.29 84.746-189.29 189.29-189.29 189.29 84.746 189.29 189.29z" fill="url(#e)"/>
 <path transform="matrix(-.91698 0 0 .91698 538.51 -174.97)" d="m568.57 398.79c0 104.54-84.746 189.29-189.29 189.29s-189.29-84.746-189.29-189.29 84.746-189.29 189.29-189.29 189.29 84.746 189.29 189.29z" fill="url(#d)"/>
 <path transform="matrix(.82893 0 0 .82893 -116.11 -143.39)" d="m568.57 398.79c0 104.54-84.746 189.29-189.29 189.29s-189.29-84.746-189.29-189.29 84.746-189.29 189.29-189.29 189.29 84.746 189.29 189.29z" fill="url(#c)" filter="url(#f)"/>
 <path transform="translate(-173.84 -194.35)" d="m344.46 348.79c0 9.7631-7.9146 17.678-17.678 17.678s-17.678-7.9146-17.678-17.678 7.9146-17.678 17.678-17.678 17.678 7.9146 17.678 17.678z" fill-opacity=".941"/>
 <path transform="matrix(.9 0 0 .9 -141.16 -159.22)" d="m344.46 348.79c0 9.7631-7.9146 17.678-17.678 17.678s-17.678-7.9146-17.678-17.678 7.9146-17.678 17.678-17.678 17.678 7.9146 17.678 17.678z" fill="url(#a)"/>
 <path transform="translate(-102.12 -194.35)" d="m344.46 348.79c0 9.7631-7.9146 17.678-17.678 17.678s-17.678-7.9146-17.678-17.678 7.9146-17.678 17.678-17.678 17.678 7.9146 17.678 17.678z" fill-opacity=".941"/>
 <path transform="matrix(.9 0 0 .9 -69.438 -159.22)" d="m344.46 348.79c0 9.7631-7.9146 17.678-17.678 17.678s-17.678-7.9146-17.678-17.678 7.9146-17.678 17.678-17.678 17.678 7.9146 17.678 17.678z" fill="url(#a)"/>
 <path transform="translate(-102.12 -116.57)" d="m344.46 348.79c0 9.7631-7.9146 17.678-17.678 17.678s-17.678-7.9146-17.678-17.678 7.9146-17.678 17.678-17.678 17.678 7.9146 17.678 17.678z" fill-opacity=".941"/>
 <path transform="matrix(.9 0 0 .9 -69.438 -81.439)" d="m344.46 348.79c0 9.7631-7.9146 17.678-17.678 17.678s-17.678-7.9146-17.678-17.678 7.9146-17.678 17.678-17.678 17.678 7.9146 17.678 17.678z" fill="url(#a)"/>
 <path transform="translate(-173.33 -116.57)" d="m344.46 348.79c0 9.7631-7.9146 17.678-17.678 17.678s-17.678-7.9146-17.678-17.678 7.9146-17.678 17.678-17.678 17.678 7.9146 17.678 17.678z" fill-opacity=".941"/>
 <path transform="matrix(.9 0 0 .9 -140.65 -81.439)" d="m344.46 348.79c0 9.7631-7.9146 17.678-17.678 17.678s-17.678-7.9146-17.678-17.678 7.9146-17.678 17.678-17.678 17.678 7.9146 17.678 17.678z" fill="url(#a)"/>
</svg>
