<?xml version='1.0' encoding='utf-8'?>
<svg xmlns="http://www.w3.org/2000/svg" xmlns:xlink="http://www.w3.org/1999/xlink" enable-background="new 0 0 135 208.3" version="1.1" viewBox="0 0 135 208.3">
<symbol id="i" viewBox="0 -206.62 137 206.619">
				<use transform="translate(9.5498 -191.85)" x="-0.012" y="-13.457" width="121.004" height="13.457" enable-background="new" opacity=".1797" xlink:href="#k"/>
				<use transform="translate(6.6001 -181.15)" x="0.01" y="-25.469" width="125.37" height="25.469" enable-background="new" opacity=".1797" xlink:href="#j"/>
			<path d="m10.85-26.75c1.4 1.434 21.083 2.1 59.05 2 37.9-0.066 57.45-0.733 58.65-2s1.8-30.733 1.8-88.4-0.6-86.883-1.8-87.65c-1.566-1-21.05-1.75-58.45-2.25-38-0.467-57.75 0.283-59.25 2.25-1.633 2.2-2.4 31.733-2.3 88.6 0.067 56.766 0.833 85.916 2.3 87.45z" clip-rule="evenodd" fill="#72A1B5" fill-rule="evenodd"/>
			<path d="m129.4-193.05l-0.3-6.35c-2.233-0.133-5.1-0.417-8.6-0.85-4.567-0.566-7.4-0.9-8.5-1-3.667-0.367-8.083-0.566-13.25-0.6-5.967 0.034-10.433 0.05-13.4 0.05-9.3 0-21.833 0.066-37.6 0.2-18.4 0.167-30.833 0.267-37.3 0.3-0.367 2.4-0.684 6.65-0.95 12.75 3.933 0 6.75 0.05 8.45 0.15 9.633 0.667 20.2 0.883 31.7 0.65 8.233-0.167 18.8-0.633 31.7-1.4 12.867-0.767 23.8-1.15 32.8-1.15 1.2 0 3.283 0.117 6.25 0.35 2.667 0.066 4.7-0.217 6.1-0.85 0.93-0.4 1.9-1.15 2.9-2.25z" clip-rule="evenodd" fill="#608899" fill-rule="evenodd"/>
			<path d="m128.75-194.75v-3.95c-12-0.733-31-1.1-57-1.1-28.467 0-48.95 0.083-61.45 0.25-0.233 1.767-0.4 3.433-0.5 5l118.95-0.2z" clip-rule="evenodd" fill="#577A8A" fill-rule="evenodd"/>
			<path d="m7.5-19.3c1.467 1.467 22.117 2.15 61.95 2.05 39.73-0.067 60.25-0.75 61.55-2.05 1.267-1.267 1.9-30.817 1.9-88.65s-0.633-87.117-1.9-87.85c-1.7-1-22.15-1.75-61.35-2.25-39.867-0.5-60.583 0.25-62.15 2.25-1.7 2.2-2.517 31.8-2.45 88.8 0.1 56.933 0.917 86.167 2.45 87.7z" clip-rule="evenodd" fill="#94CFEB" fill-rule="evenodd"/>
			<path d="m5.7-170.55c0.566-0.067 1.833-0.35 3.8-0.85 4.867-1.233 11.233-2.167 19.1-2.8 11.3-0.934 17.75-1.5 19.35-1.7 8.633-1.1 18.033-1.533 28.2-1.3 7.934 0.2 17.333 0.85 28.2 1.95 3.533 0.367 7.8 0.55 12.8 0.55 2.867 0 7.15-0.034 12.85-0.1l2.25 0.1c-0.333-13.7-0.75-20.733-1.25-21.1-1.7-1-22.15-1.75-61.35-2.25-39.867-0.5-60.583 0.25-62.15 2.25-0.767 0.93-1.367 9.35-1.8 25.25z" clip-rule="evenodd" fill="#8FC8E3" fill-rule="evenodd"/>
			<path d="m127.4-190.15c0.733 0.167 2.184 0.583 4.35 1.25-0.267-4.4-0.517-6.7-0.75-6.9-1.7-1-22.15-1.75-61.35-2.25-39.867-0.5-60.583 0.25-62.15 2.25-0.433 0.5-0.8 3.05-1.1 7.65 3 0 5.367-0.3 7.1-0.9 6.367-2 11.817-3.233 16.35-3.7 8.4-0.9 17.867-1.083 28.4-0.55 6.167 0.333 15.567 1.017 28.2 2.05 2.533 0.167 9.367 0.017 20.5-0.45 8.3-0.33 15.12 0.18 20.45 1.55z" clip-rule="evenodd" fill="#87BDD6" fill-rule="evenodd"/>
			<path d="m26.45-31.101c-4.567 0-8.083-0.083-10.55-0.25-3.5-0.233-6.733-0.683-9.7-1.35 0.367 8.501 0.8 12.967 1.3 13.401 1.467 1.467 22.117 2.15 61.95 2.05 39.73-0.067 60.25-0.75 61.55-2.05 0.4-0.4 0.767-5.833 1.1-16.3-1.5 0-3.217 0.083-5.15 0.25-4.733 0.3-11.617 0.617-20.65 0.95-9.5 0.333-16.433 0.633-20.8 0.9-12.733 0.733-22.567 1.267-29.5 1.6-10.967 0.5-20.817 0.766-29.55 0.799z" clip-rule="evenodd" fill="#87BDD6" fill-rule="evenodd"/>
			<path d="m6.4-28.351c1.6 0.133 3.684 0.1 6.25-0.1 3.333-0.233 5.15-0.35 5.45-0.35 3.033 0 8.4 0.333 16.1 1 6.833 0.566 12.25 0.75 16.25 0.55 14.3-0.7 24.383-1.167 30.25-1.4 11.267-0.433 21.367-0.65 30.3-0.65 2.633 0 6.467 0.133 11.5 0.4 4.133-0.067 7.283-1.017 9.45-2.85 0.1-1.967 0.25-7.316 0.45-16.05-1.8 0.066-4.05 0.267-6.75 0.6-2.7 0.3-4.167 0.45-4.4 0.45-6.7 0.267-18.283 0.25-34.75-0.05-14.8-0.267-26.35-0.1-34.65 0.5-9.533 0.7-17.2 1.183-23 1.45-8.5 0.434-16.184 0.633-23.05 0.6l0.6 15.9z" clip-rule="evenodd" fill="#8FC8E3" fill-rule="evenodd"/>
			<path d="m7.5-19.3l-4 4h133.5l-6-4c-25 0-44.667 0.167-59 0.5-8.967 0.2-22.4 0.183-40.3-0.05l-24.2-0.45z" clip-rule="evenodd" fill="#72A1B5" fill-rule="evenodd"/>
			<polygon points="0.5 -10.3 137 -10.3 137 -15.8 0.5 -15.8" clip-rule="evenodd" fill="#A0E0FF" fill-rule="evenodd"/>
			<polygon points="13.55 0 124 0 136.3 -10.3 0.45 -10.25" clip-rule="evenodd" fill="#97D3F0" fill-rule="evenodd"/>
			<polygon points="0 -9.25 136 -9.25 136 -11.3 0 -11.3" clip-rule="evenodd" fill="#ABE4FF" fill-rule="evenodd"/>
			<g clip-rule="evenodd" fill-rule="evenodd">
				<path d="m10.8-167.15c-1.633 1.767-2.4 25.7-2.3 71.8 0.067 46.034 0.833 69.684 2.3 70.95 1.4 1.167 21.05 1.717 58.95 1.65 37.867-0.066 57.417-0.617 58.65-1.65 1.167-1.033 1.75-24.933 1.75-71.7s-0.583-70.45-1.75-71.05c-0.5-0.233-6.65-0.4-18.45-0.5-16.4-0.1-29.317-0.2-38.75-0.3-23.833-0.3-37.317-0.45-40.45-0.45-12.567 0.03-19.217 0.45-19.95 1.25z" fill="#78AABF"/>
				<path d="m35.05-168.5c-11.9-0.066-19.367 0.167-22.4 0.7l-1.85 0.65 2.35 3.35 110.15 1.55 5.35-4.3-0.25-0.6c-0.5-0.233-6.65-0.4-18.45-0.5-16.367-0.1-29.267-0.2-38.7-0.3-17.067-0.3-29.133-0.48-36.2-0.55z" fill="#72A1B5"/>
				<path d="m13.15-25.95l-2.35 1.55 10.45 1c14.467 0.633 35.65 0.833 63.55 0.6 28.1-0.267 42.633-0.8 43.6-1.6l0.1-0.25-2.5-1.3h-112.85z" fill="#9CD9F7"/>
				<path d="m10.9-94.95c0.1 44.8 0.85 67.8 2.25 69 1.333 1.133 20.217 1.667 56.65 1.6 36.367-0.066 55.15-0.6 56.35-1.6 1.167-1 1.75-24.25 1.75-69.75s-0.583-68.534-1.75-69.1c-0.533-0.3-19.25-0.55-56.15-0.75-37.233-0.233-56.183 0.017-56.85 0.75-1.567 1.7-2.317 24.98-2.25 69.85z" fill="#94CFEB"/>
				<path d="m11.05-123.65c1.767 1.033 4.633-0.2 8.6-3.7 4.934-4.367 7.75-6.683 8.45-6.95 2.5-0.967 4.917-1.667 7.25-2.1 2.933-0.5 5.4-0.5 7.4 0 1.667 0.4 3.4 1.483 5.2 3.25 2.233 2.133 3.783 3.45 4.65 3.95 3.833 2.167 9.683 2.433 17.55 0.8 2.1-0.433 5.25-1.117 9.45-2.05 3.566-0.7 6.483-0.983 8.75-0.85 1.566 0.1 4.083 0.133 7.55 0.1 3.133 0.1 5.617 0.45 7.45 1.05 1.2 0.367 2.816 1.367 4.85 3 2 1.567 3.6 2.533 4.8 2.9 1.933 0.567 4.367 0.467 7.3-0.3 1.667-0.434 4.133-1.184 7.4-2.25-0.3-24.967-0.817-37.633-1.55-38-0.533-0.3-19.25-0.55-56.15-0.75-37.233-0.233-56.183 0.017-56.85 0.75-1.033 1.07-1.733 14.78-2.1 41.15z" fill="#91CBE6"/>
				<path d="m10.9-103.45c2.5 2.4 5.233 3.966 8.2 4.7 3.1 0.733 6.733 0.65 10.9-0.25 16.967-3.733 32.333-5.833 46.1-6.3 17.2-0.567 32.5 1.35 45.9 5.75 2 0.633 3.95 1.133 5.85 1.5 0-15.934-0.117-29.267-0.35-40-2.767-1.2-5.683-2.067-8.75-2.6-3.033-0.533-6.567-0.8-10.6-0.8-2.4 0-11.15 0.667-26.25 2-10.133 0.933-18.783 0.55-25.95-1.15-3.967-0.933-8.684-0.833-14.15 0.3-8.233 1.7-13 2.6-14.3 2.7-4.567 0.333-7.367 0.583-8.4 0.75-3.3 0.467-5.917 1.267-7.85 2.4-0.167 8.17-0.283 18.5-0.35 31z" fill="#93CEE8"/>
				<path d="m30.85-63.5c-3.167-1.367-5.483-2.35-6.95-2.95-5.267-2.167-9.517-2.3-12.75-0.4 0.367 26.434 1.033 40.067 2 40.9 1.333 1.133 20.217 1.667 56.65 1.6 36.367-0.066 55.15-0.6 56.35-1.6 0.833-0.733 1.367-15.25 1.6-43.55-1.633-0.1-3.617-0.05-5.95 0.15-2.633 0.3-4.617 0.517-5.95 0.65-4.2 0.633-7.4 1.1-9.6 1.4-3.833 0.5-7.033 0.55-9.6 0.15-1.867-0.267-4.733-1.433-8.6-3.5-3.6-1.867-6.466-2.833-8.6-2.9-2.067-0.033-4.967 0.85-8.7 2.65-5.033 2.433-7.817 3.733-8.35 3.9-6.233 2.133-10.066 3.4-11.5 3.8-4.767 1.333-8.783 1.867-12.05 1.6-2.433-0.2-5.1-0.834-8-1.9z" fill="#98D5F2"/>
				<path d="m31.55-69.05c-2.667 0.133-6.183-0.817-10.55-2.85-4.933-2.267-8.25-3.517-9.95-3.75 0.1 12.3 0.3 22.633 0.6 31l2.35-0.5c7.567-1.967 19.167-2.583 34.8-1.85 15.7 0.733 27.383 0.133 35.05-1.8 10.4-2.633 19.566-2.167 27.5 1.4 3 1.333 5.566 2.25 7.7 2.75 2.767 0.633 5.534 0.767 8.3 0.4 0.2-7.867 0.35-17.617 0.45-29.25-2-0.3-4.433-0.1-7.3 0.6-3.867 0.933-6.167 1.433-6.9 1.5-2.533 0.233-5.967-0.15-10.3-1.15-4.733-1.3-8.1-2.133-10.1-2.5-4.233-0.833-7.383-1.283-9.45-1.35-2.767-0.1-5.767 0.283-9 1.15-3.6 1.1-6.333 1.9-8.2 2.4-3.3 0.867-6.133 1.25-8.5 1.15-0.8-0.034-2.617-0.217-5.45-0.55-2.1-0.267-3.817-0.35-5.15-0.25-1.8 0.133-4.483 0.733-8.05 1.8-3.467 1-6.083 1.55-7.85 1.65z" fill="#96D2ED"/>
					<path d="m67.75-22.75h2.25l1.1-63.1c0.267-10.233 0.517-37.117 0.75-80.65l-2.2-0.3c-0.533 1.633-0.8 6.383-0.8 14.25-0.233 32.667-0.35 54.017-0.35 64.05 0 6.267-0.117 19.1-0.35 38.5l-0.4 27.25z" fill="#7EB2C9"/>
					<path d="m69.45-22.75h1.1l0.6-63.1c0.1-10.233 0.217-37.316 0.35-81.25h-1.1c-0.267 1.833-0.4 6.684-0.4 14.55l-0.55 129.8z" fill="#5C8291"/>
					<path d="m71-23.05l0.65-0.3 1-81.4c0.233-25.566 0.567-46.15 1-61.75l-1.65-0.3c-0.467 18.167-0.8 37.867-1 59.1-0.133 13.3-0.183 31.4-0.15 54.3l0.15 30.35z" fill="#A1E1FF"/>
				<path d="m12.65-27.45l0.5 1.5 27.85 1.2c9.1 0.367 17.983 0.367 26.65 0l-0.35-0.45c-6.667 0.2-15.333 0.017-26-0.55l-28.65-1.7z" fill="#A0E0FF"/>
				<path d="m126.65-27.45c-8.433 1.133-17.55 1.883-27.35 2.25-6.233 0.233-12.65 0.3-19.25 0.2l-8.05-0.2 0.65 0.45 8.4 0.2c6.7 0.1 12.9 0.033 18.6-0.2l26.5-1.2 0.5-1.5z" fill="#A0E0FF"/>
			</g>
			<path d="m24.65-1.45c2.133-0.2 4.833-0.267 8.1-0.2 5.467 0.133 8.217 0.2 8.25 0.2 3.333 0 8.333-0.05 15-0.15 6-0.066 10.983-0.017 14.95 0.15 3.533 0.167 8.883 0.466 16.05 0.9 6.233 0.267 11.567 0.183 16-0.25 2.367-0.233 5.883-0.367 10.55-0.4 4.1-0.2 7.467-0.917 10.1-2.15 1.8-0.867 2.684-1.6 2.65-2.2-0.033-0.6-1.033-1.017-3-1.25-1.033-0.1-2.417-0.133-4.15-0.1-2.233 0.067-3.617 0.1-4.15 0.1-26.8-0.2-46.917-0.3-60.35-0.3-10 0-20.9 0.217-32.7 0.65-2.067-0.234-3.883-0.417-5.45-0.55-3.1-0.233-4.817-0.05-5.15 0.55-0.567 0.966 0.117 1.933 2.05 2.9 0.855 0.44 1.83 0.832 2.925 1.175 0.372 0.883 1.613 1.325 3.725 1.325 0.467 0 2-0.134 4.6-0.4z" clip-rule="evenodd" fill="#9CDAF7" fill-rule="evenodd"/>
			<g clip-rule="evenodd" fill-rule="evenodd">
				<polygon points="127.65 -171.95 127.65 -192.9 12.35 -192.9 12.35 -171.95" fill="#94CFEB"/>
				<path d="m12.35-171.95h115.3v-6.6c-0.933 0.066-2.283 0.233-4.05 0.5-1.833 0.267-3.167 0.433-4 0.5-1.9 0.133-5.05-0.05-9.45-0.55-3-0.466-5.2-0.767-6.6-0.9-2.367-0.2-4.55 0.033-6.55 0.7-2.333 0.733-4.833 0.85-7.5 0.35-3.133-0.833-5.583-1.467-7.35-1.9-1.566-0.367-3.683-0.167-6.35 0.6-2.966 0.867-5.083 1.267-6.35 1.2-1.9-0.1-4.25-0.133-7.05-0.1-4.7 0.067-7.066 0.1-7.1 0.1-5.7 0-9.983 0.1-12.85 0.3-2.967 0.367-5.184 0.583-6.65 0.65-2.5 0.1-4.667-0.25-6.5-1.05-3.2-1.4-6.466-1.717-9.8-0.95-1.567 0.4-2.783 0.6-3.65 0.6-1.533 0-2.7-0.483-3.5-1.45v8z" fill="#97D3F0"/>
				<path d="m127.65-182.75v-10.15h-115.3v7.4c0.533-0.133 1.383-0.517 2.55-1.15 1.1-0.6 1.8-0.917 2.1-0.95 1.133-0.1 2.683 0.2 4.65 0.9 2.3 0.833 3.85 1.3 4.65 1.4 2.034 0.233 5.617 0.2 10.75-0.1 4.5-0.267 8.083-0.1 10.75 0.5 1.467 0.333 3.317 0.1 5.55-0.7 2.667-1 4.5-1.533 5.5-1.6 1.3-0.1 3.133 0.066 5.5 0.5 2.6 0.433 4.45 0.65 5.55 0.65 1.4 0 3.633-0.133 6.7-0.4 2.867-0.267 5.083-0.383 6.65-0.35 1.667 0 4.233 0.467 7.7 1.4 3.367 0.9 5.933 1.317 7.7 1.25 1.533-0.033 4.1-0.167 7.7-0.4 3.267-0.233 5.816-0.35 7.65-0.35 2.1 0 4.4 0.233 6.9 0.7 0.03 0 2.28 0.48 6.75 1.45z" fill="#8FCAE3"/>
				<path d="m69.8-170.65c37.667 0.1 56.883-0.067 57.65-0.5 0.867-0.467 1.3-4.233 1.3-11.3s-0.433-10.85-1.3-11.35c-1.133-0.633-39.517-0.633-115.15 0-0.5 0.133-0.8 3.883-0.9 11.25-0.066 7.367 0.233 11.167 0.9 11.4 0.9 0.27 20.067 0.43 57.5 0.5zm56.3-3.1c-0.733 0.267-19.533 0.383-56.4 0.35-36.667-0.067-55.417-0.183-56.25-0.35-0.667-0.167-0.95-3.083-0.85-8.75 0.066-5.633 0.35-8.483 0.85-8.55 0.633-0.133 19.316-0.233 56.05-0.3 37.033-0.1 55.9 0 56.6 0.3 0.833 0.3 1.25 3.183 1.25 8.65 0 5.43-0.42 8.32-1.25 8.65z" fill="#78AABF"/>
				<path d="m13.7-173.75l-1.4 2.6c0.8 0.267 18.267 0.433 52.4 0.5 34.7 0.1 55.133-0.017 61.3-0.35l1.45-0.15-1.05-2.9-0.3 0.3c-0.733 0.267-18.934 0.383-54.6 0.35-35.067-0.07-54.333-0.18-57.8-0.35z" fill="#A0E0FF"/>
				<path d="m127.9-192.95c-0.1-0.467-0.25-0.75-0.45-0.85h-115.15l1.5 2.7c73.8-0.4 111.23-0.383 112.3 0.05 0.133 0.033 0.25 0.15 0.35 0.35l1.45-2.25z" fill="#72A1B5"/>
			</g>
					<use transform="translate(21.55 -178.1)" y="-8.1" width="8.25" height="8.1" enable-background="new" opacity=".1484" xlink:href="#l"/>
				<path d="m28.85-181.4c0-1-0.35-1.85-1.05-2.55-0.733-0.7-1.6-1.05-2.6-1.05-1.034 0-1.9 0.35-2.6 1.05s-1.05 1.55-1.05 2.55 0.35 1.85 1.05 2.55 1.566 1.05 2.6 1.05c1 0 1.867-0.35 2.6-1.05 0.7-0.7 1.05-1.55 1.05-2.55z" clip-rule="evenodd" fill="#8AA1A1" fill-rule="evenodd"/>
				<path d="m28.45-181.05c0-0.9-0.333-1.667-1-2.3s-1.483-0.95-2.45-0.95-1.783 0.316-2.45 0.95c-0.667 0.633-1 1.4-1 2.3s0.333 1.667 1 2.3 1.483 0.95 2.45 0.95 1.783-0.317 2.45-0.95c0.667-0.63 1-1.4 1-2.3z" clip-rule="evenodd" fill="#738585" fill-rule="evenodd"/>
				<path d="m26.7-177.6c0.667-0.7 1-1.55 1-2.55 0-0.967-0.333-1.8-1-2.5-0.7-0.7-1.534-1.05-2.5-1.05-0.967 0-1.8 0.35-2.5 1.05-0.667 0.7-1 1.533-1 2.5 0 1 0.333 1.85 1 2.55 0.7 0.7 1.533 1.05 2.5 1.05s1.8-0.35 2.5-1.05z" clip-rule="evenodd" fill="#92AAAA" fill-rule="evenodd"/>
				<path d="m25.65-177.45c0.567-0.6 0.85-1.317 0.85-2.15s-0.283-1.533-0.85-2.1c-0.566-0.6-1.25-0.9-2.05-0.9s-1.483 0.3-2.05 0.9c-0.566 0.566-0.85 1.267-0.85 2.1s0.283 1.55 0.85 2.15 1.25 0.9 2.05 0.9 1.483-0.3 2.05-0.9z" clip-rule="evenodd" fill="#B3D2D2" fill-rule="evenodd"/>
				<path d="m24.75-177.75c0.4-0.433 0.6-0.933 0.6-1.5 0-0.566-0.2-1.05-0.6-1.45-0.433-0.4-0.933-0.6-1.5-0.6s-1.05 0.2-1.45 0.6-0.6 0.883-0.6 1.45 0.2 1.067 0.6 1.5c0.4 0.4 0.883 0.6 1.45 0.6s1.067-0.2 1.5-0.6z" clip-rule="evenodd" fill="#C2E5E5" fill-rule="evenodd"/>
				<path d="m23.85-177.5c0.2-0.2 0.3-0.45 0.3-0.75s-0.1-0.566-0.3-0.8c-0.2-0.2-0.45-0.3-0.75-0.3s-0.55 0.1-0.75 0.3c-0.2 0.233-0.3 0.5-0.3 0.8s0.1 0.55 0.3 0.75 0.45 0.3 0.75 0.3 0.55-0.1 0.75-0.3z" clip-rule="evenodd" fill="#D5FCFC" fill-rule="evenodd"/>
					<use transform="translate(109.55 -177.6)" y="-8.1" width="8.25" height="8.1" enable-background="new" opacity=".1484" xlink:href="#m"/>
				<path d="m116.85-180.9c0-1-0.35-1.85-1.05-2.55-0.733-0.7-1.6-1.05-2.6-1.05-1.034 0-1.9 0.35-2.6 1.05s-1.05 1.55-1.05 2.55 0.35 1.85 1.05 2.55 1.566 1.05 2.6 1.05c1 0 1.867-0.35 2.6-1.05 0.7-0.7 1.05-1.55 1.05-2.55z" clip-rule="evenodd" fill="#8AA1A1" fill-rule="evenodd"/>
				<path d="m116.45-180.55c0-0.9-0.333-1.667-1-2.3s-1.483-0.95-2.45-0.95-1.783 0.316-2.45 0.95c-0.667 0.633-1 1.4-1 2.3s0.333 1.667 1 2.3 1.483 0.95 2.45 0.95 1.783-0.317 2.45-0.95c0.67-0.63 1-1.4 1-2.3z" clip-rule="evenodd" fill="#738585" fill-rule="evenodd"/>
				<path d="m114.7-177.1c0.667-0.7 1-1.55 1-2.55 0-0.967-0.333-1.8-1-2.5-0.7-0.7-1.534-1.05-2.5-1.05-0.967 0-1.8 0.35-2.5 1.05-0.667 0.7-1 1.533-1 2.5 0 1 0.333 1.85 1 2.55 0.7 0.7 1.533 1.05 2.5 1.05 0.97 0 1.8-0.35 2.5-1.05z" clip-rule="evenodd" fill="#92AAAA" fill-rule="evenodd"/>
				<path d="m113.65-176.95c0.567-0.6 0.85-1.317 0.85-2.15s-0.283-1.533-0.85-2.1c-0.566-0.6-1.25-0.9-2.05-0.9s-1.483 0.3-2.05 0.9c-0.566 0.566-0.85 1.267-0.85 2.1s0.283 1.55 0.85 2.15 1.25 0.9 2.05 0.9 1.48-0.3 2.05-0.9z" clip-rule="evenodd" fill="#B3D2D2" fill-rule="evenodd"/>
				<path d="m112.75-177.25c0.4-0.433 0.6-0.933 0.6-1.5 0-0.566-0.2-1.05-0.6-1.45-0.433-0.4-0.933-0.6-1.5-0.6s-1.05 0.2-1.45 0.6-0.6 0.883-0.6 1.45 0.2 1.067 0.6 1.5c0.4 0.4 0.883 0.6 1.45 0.6s1.07-0.2 1.5-0.6z" clip-rule="evenodd" fill="#C2E5E5" fill-rule="evenodd"/>
				<path d="m112.15-177.75c0-0.3-0.1-0.566-0.3-0.8-0.2-0.2-0.45-0.3-0.75-0.3s-0.55 0.1-0.75 0.3c-0.2 0.233-0.3 0.5-0.3 0.8s0.1 0.55 0.3 0.75 0.45 0.3 0.75 0.3 0.55-0.1 0.75-0.3 0.3-0.45 0.3-0.75z" clip-rule="evenodd" fill="#D5FCFC" fill-rule="evenodd"/>
					<use transform="translate(57.7 -106.4)" y="-8.1" width="8.25" height="8.1" enable-background="new" opacity=".1484" xlink:href="#n"/>
				<path d="m65.05-109.7c0-1-0.35-1.867-1.05-2.6-0.733-0.7-1.6-1.05-2.6-1.05-1.033 0-1.9 0.35-2.6 1.05-0.733 0.733-1.1 1.6-1.1 2.6s0.367 1.85 1.1 2.55c0.7 0.7 1.567 1.05 2.6 1.05 1 0 1.867-0.35 2.6-1.05 0.7-0.7 1.05-1.55 1.05-2.55z" clip-rule="evenodd" fill="#8AA1A1" fill-rule="evenodd"/>
				<path d="m64.65-109.35c0-0.9-0.333-1.667-1-2.3s-1.483-0.95-2.45-0.95-1.8 0.317-2.5 0.95c-0.667 0.633-1 1.4-1 2.3s0.333 1.667 1 2.3c0.7 0.633 1.533 0.95 2.5 0.95 0.966 0 1.783-0.316 2.45-0.95 0.667-0.63 1-1.4 1-2.3z" clip-rule="evenodd" fill="#738585" fill-rule="evenodd"/>
				<path d="m63.9-108.45c0-0.967-0.333-1.8-1-2.5-0.7-0.7-1.533-1.05-2.5-1.05s-1.8 0.35-2.5 1.05c-0.667 0.7-1 1.533-1 2.5 0 1 0.333 1.85 1 2.55 0.7 0.7 1.533 1.05 2.5 1.05s1.8-0.35 2.5-1.05c0.667-0.7 1-1.55 1-2.55z" clip-rule="evenodd" fill="#92AAAA" fill-rule="evenodd"/>
				<path d="m62.65-107.9c0-0.833-0.267-1.533-0.8-2.1-0.567-0.6-1.25-0.9-2.05-0.9s-1.483 0.3-2.05 0.9c-0.567 0.567-0.85 1.267-0.85 2.1s0.283 1.55 0.85 2.15 1.25 0.9 2.05 0.9 1.483-0.3 2.05-0.9c0.533-0.57 0.8-1.28 0.8-2.15z" clip-rule="evenodd" fill="#B3D2D2" fill-rule="evenodd"/>
				<path d="m61.55-107.55c0-0.567-0.2-1.05-0.6-1.45-0.434-0.4-0.934-0.6-1.5-0.6-0.567 0-1.05 0.2-1.45 0.6s-0.6 0.883-0.6 1.45c0 0.566 0.2 1.05 0.6 1.45s0.883 0.6 1.45 0.6c0.566 0 1.066-0.2 1.5-0.6 0.4-0.4 0.6-0.88 0.6-1.45z" clip-rule="evenodd" fill="#C2E5E5" fill-rule="evenodd"/>
				<path d="m60.35-106.6c0-0.3-0.1-0.55-0.3-0.75s-0.45-0.3-0.75-0.3-0.55 0.1-0.75 0.3-0.3 0.45-0.3 0.75 0.1 0.55 0.3 0.75c0.2 0.233 0.45 0.35 0.75 0.35s0.55-0.117 0.75-0.35c0.2-0.2 0.3-0.45 0.3-0.75z" clip-rule="evenodd" fill="#D5FCFC" fill-rule="evenodd"/>
					<use transform="translate(74.6 -106.55)" y="-8.1" width="8.25" height="8.1" enable-background="new" opacity=".1484" xlink:href="#o"/>
				<path d="m81.9-109.9c0-1-0.35-1.85-1.05-2.55-0.733-0.7-1.6-1.05-2.6-1.05-1.033 0-1.9 0.35-2.6 1.05s-1.05 1.55-1.05 2.55 0.35 1.85 1.05 2.55c0.7 0.733 1.567 1.1 2.6 1.1 1 0 1.867-0.367 2.6-1.1 0.7-0.7 1.05-1.55 1.05-2.55z" clip-rule="evenodd" fill="#8AA1A1" fill-rule="evenodd"/>
				<path d="m82.05-109.65c0-0.9-0.333-1.667-1-2.3s-1.483-0.95-2.45-0.95-1.783 0.317-2.45 0.95-1 1.4-1 2.3 0.333 1.667 1 2.3 1.483 0.95 2.45 0.95 1.783-0.317 2.45-0.95c0.667-0.63 1-1.4 1-2.3z" clip-rule="evenodd" fill="#738585" fill-rule="evenodd"/>
				<path d="m82.4-108.6c0-1-0.333-1.85-1-2.55-0.7-0.7-1.533-1.05-2.5-1.05s-1.783 0.35-2.45 1.05c-0.7 0.7-1.05 1.55-1.05 2.55 0 0.967 0.35 1.8 1.05 2.5 0.667 0.7 1.483 1.05 2.45 1.05s1.8-0.35 2.5-1.05c0.667-0.7 1-1.53 1-2.5z" clip-rule="evenodd" fill="#92AAAA" fill-rule="evenodd"/>
				<path d="m81.45-108.05c0-0.833-0.3-1.55-0.9-2.15-0.566-0.6-1.267-0.9-2.1-0.9s-1.55 0.3-2.15 0.9c-0.6 0.566-0.9 1.283-0.9 2.15 0 0.833 0.3 1.533 0.9 2.1 0.6 0.6 1.317 0.9 2.15 0.9s1.533-0.3 2.1-0.9c0.6-0.57 0.9-1.27 0.9-2.1z" clip-rule="evenodd" fill="#B3D2D2" fill-rule="evenodd"/>
				<path d="m80.05-107.7c0-0.567-0.2-1.067-0.6-1.5-0.4-0.4-0.883-0.6-1.45-0.6-0.6 0-1.1 0.2-1.5 0.6-0.4 0.433-0.6 0.933-0.6 1.5 0 0.566 0.2 1.05 0.6 1.45s0.9 0.6 1.5 0.6c0.567 0 1.05-0.2 1.45-0.6s0.6-0.88 0.6-1.45z" clip-rule="evenodd" fill="#C2E5E5" fill-rule="evenodd"/>
				<path d="m78.85-106.75c0-0.3-0.1-0.566-0.3-0.8-0.2-0.2-0.45-0.3-0.75-0.3-0.267 0-0.517 0.1-0.75 0.3-0.2 0.233-0.3 0.5-0.3 0.8s0.1 0.55 0.3 0.75c0.233 0.233 0.483 0.35 0.75 0.35 0.3 0 0.55-0.117 0.75-0.35 0.2-0.2 0.3-0.45 0.3-0.75z" clip-rule="evenodd" fill="#D5FCFC" fill-rule="evenodd"/>
</symbol>
<symbol id="j" viewBox="0.01 -25.469 125.37 25.469">
		<path d="m124.15-0.9c0.467-3.167 0.817-6.483 1.05-9.95 0.433-6.967 0.083-11.3-1.05-13-0.633-0.933-7.967-1.4-22-1.4-18.267 0.167-31.767 0.25-40.5 0.25-2.967 0-16.1-0.133-39.4-0.4-13.4-0.167-20.6-0.033-21.6 0.4-1.066 0.467-0.8 4.783 0.8 12.95 0.8 4.067 1.7 8.083 2.7 12.05l120-0.9z" clip-rule="evenodd" fill-rule="evenodd"/>
</symbol>
<symbol id="k" viewBox="-0.012 -13.457 121.004 13.457">
		<path d="m117.7-0.95c0.867-1.333 1.617-2.8 2.25-4.4 1.3-3.2 1.383-5.483 0.25-6.85-0.6-0.733-7.7-1.1-21.3-1.1-17.667 0.133-30.733 0.2-39.2 0.2-2.833 0-15.534-0.1-38.1-0.3-13-0.133-19.983-0.033-20.95 0.3-1 0.367-0.867 2.667 0.4 6.9 0.6 2.1 1.317 4.167 2.15 6.2l114.5-0.95z" clip-rule="evenodd" fill-rule="evenodd"/>
</symbol>
<symbol id="l" viewBox="0 -8.1 8.25 8.1">
		<path d="m8.25-4.05c0-1.1-0.4-2.05-1.2-2.85-0.833-0.8-1.817-1.2-2.95-1.2s-2.1 0.4-2.9 1.2-1.2 1.75-1.2 2.85c0 1.133 0.4 2.083 1.2 2.85 0.8 0.8 1.767 1.2 2.9 1.2 1.167 0 2.15-0.4 2.95-1.2 0.8-0.767 1.2-1.717 1.2-2.85z" clip-rule="evenodd" fill-rule="evenodd"/>
</symbol>
<symbol id="m" viewBox="0 -8.1 8.25 8.1">
		<path d="m8.25-4.05c0-1.1-0.4-2.05-1.2-2.85-0.833-0.8-1.817-1.2-2.95-1.2s-2.1 0.4-2.9 1.2-1.2 1.75-1.2 2.85c0 1.133 0.4 2.083 1.2 2.85 0.8 0.8 1.767 1.2 2.9 1.2 1.167 0 2.15-0.4 2.95-1.2 0.8-0.767 1.2-1.717 1.2-2.85z" clip-rule="evenodd" fill-rule="evenodd"/>
</symbol>
<symbol id="n" viewBox="0 -8.1 8.25 8.1">
		<path d="m8.25-4.05c0-1.1-0.4-2.05-1.2-2.85s-1.767-1.2-2.9-1.2-2.117 0.4-2.95 1.2c-0.8 0.8-1.2 1.75-1.2 2.85 0 1.133 0.4 2.083 1.2 2.85 0.833 0.8 1.817 1.2 2.95 1.2s2.1-0.4 2.9-1.2c0.8-0.767 1.2-1.717 1.2-2.85z" clip-rule="evenodd" fill-rule="evenodd"/>
</symbol>
<symbol id="o" viewBox="0 -8.1 8.25 8.1">
		<path d="m8.25-4.05c0-1.133-0.4-2.083-1.2-2.85-0.8-0.8-1.783-1.2-2.95-1.2-1.133 0-2.1 0.4-2.9 1.2-0.8 0.767-1.2 1.717-1.2 2.85s0.4 2.083 1.2 2.85c0.8 0.8 1.767 1.2 2.9 1.2 1.167 0 2.15-0.4 2.95-1.2 0.8-0.767 1.2-1.717 1.2-2.85z" clip-rule="evenodd" fill-rule="evenodd"/>
</symbol>
<symbol id="p">
</symbol>
<use transform="matrix(1 0 0 -1 0 27.65)" y="-206.62" width="137" height="206.619" xlink:href="#i"/>
<use transform="matrix(1 0 0 -1 68 233.1)" x="16383" y="16383" width="-32766" height="-32766" xlink:href="#p"/>
</svg>