<?xml version='1.0' encoding='utf-8'?>
<svg xmlns="http://www.w3.org/2000/svg" xmlns:xlink="http://www.w3.org/1999/xlink" enable-background="new 0 0 83.85 70.8" version="1.1" viewBox="0 0 83.85 70.8">
<symbol id="f" viewBox="0 -26.8 31.813 26.794">
		<g clip-rule="evenodd" fill-rule="evenodd">
			<path d="m1.95-25.9l-1.25-0.9c0.1 0.566-0.133 0.95-0.7 1.15 0.333 0.433 0.7 0.833 1.1 1.2 0.5-0.2 0.783-0.683 0.85-1.45z"/>
			<path d="m10.7-21.15l-1.9-0.95c0.4 1.067 0.333 1.917-0.2 2.55-0.467 0.566-1.067 0.816-1.8 0.75l1.8 1.85c1.4 0 2.233-0.483 2.5-1.45 0.233-0.733 0.1-1.65-0.4-2.75z"/>
			<path d="m6-23.5l-1.8-0.95c0.033 0.434-0.083 0.817-0.35 1.15s-0.6 0.55-1 0.65l1.9 1.8c0.7-0.033 1.15-0.367 1.35-1 0.167-0.5 0.133-1.05-0.1-1.65z"/>
			<path d="m16.3-18.1l-2.6-1.45c0.533 1.167 0.383 2.3-0.45 3.4-0.7 0.9-1.517 1.45-2.45 1.65l1.3 1.55c0.367 0 0.85-0.083 1.45-0.25 0.9-0.233 1.633-0.883 2.2-1.95 0.533-1 0.717-1.983 0.55-2.95z"/>
			<path d="m29.8-9.4l-0.6-0.55c0.367 1.1 0.566 1.983 0.6 2.65 0.034 1.133-0.5 2.65-1.6 4.55-1.034 1.667-2.833 2.283-5.4 1.85 2.934 1.3 5.25 1.183 6.95-0.35 2.733-2.5 2.75-5.217 0.05-8.15z"/>
			<path d="m21.4-15.1l-3.1-1.8c0.5 1.633 0.4 3.217-0.3 4.75-0.267 0.6-0.833 1.05-1.7 1.35-0.833 0.333-1.667 0.433-2.5 0.3l1.4 2.05c1.667 0.5 3.2 0.15 4.6-1.05 1.633-1.367 2.167-3.233 1.6-5.6z"/>
			<path d="m24.05-13.5c0.3 1.167 0.284 2.417-0.05 3.75-0.333 1.4-1.283 2.45-2.85 3.15-1.333 0.567-2.733 0.767-4.2 0.6l1.3 1.65c2.633 1.1 4.767 1 6.4-0.3 0.934-0.8 1.583-1.967 1.95-3.5 0.267-1.2 0.316-2.417 0.15-3.65l-2.7-1.7z"/>
		</g>
</symbol>
<symbol id="g" viewBox="-0.014 -15.2 15.715 15.217">
		<path d="m15.25 0c0.867-0.2 0.483-0.95-1.15-2.25-0.533-0.433-1.867-1.367-4-2.8-0.667-0.467-1.883-1.733-3.65-3.8-2.167-2.566-3.367-3.967-3.6-4.2-0.733-0.8-1.45-1.417-2.15-1.85-0.667-0.4-0.867-0.4-0.6 0 2.033 1.933 3.383 3.517 4.05 4.75 1.267 2.233 3.15 4.65 5.65 7.25 1.167 1.2 2.35 2.033 3.55 2.5 0.8 0.333 1.433 0.467 1.9 0.4z" clip-rule="evenodd" fill="#fff" fill-rule="evenodd"/>
</symbol>
<symbol id="h" viewBox="0 -25.441 32.784 25.441">
		<path d="m29.2-6.15c1.133 1.267 1.9 2.333 2.3 3.2 0.4 1.034 0.4 2.017 0 2.95 1.933-2.267 1.683-4.7-0.75-7.3-0.9-0.934-2.9-2.35-6-4.25-1.167-0.733-3.833-2.3-8-4.7-1.8-1.067-4.183-2.35-7.15-3.85-3-1.5-4.7-2.367-5.1-2.6-0.6-0.367-1.567-1.05-2.9-2.05-1.033-0.733-1.567-0.883-1.6-0.45 0.2-0.2 1.2 0.534 3 2.2 1.167 1.067 2.967 2.267 5.4 3.6 1.4 0.767 3.684 1.983 6.85 3.65 6.9 3.767 11.55 6.967 13.95 9.6z" clip-rule="evenodd" fill-rule="evenodd"/>
</symbol>
<path d="m76.532 20.522c-0.989 0.495-1.452-0.123-1.39-1.853l0.463-2.779c-3.025 4.385-4.539 5.558-4.539 3.521l0.092-4.354c-0.432-0.124-0.987-0.186-1.667-0.186-1.358 0.124-2.563 0.679-3.612 1.667-0.186 0.186-1.729 2.285-4.632 6.299-2.285 3.15-4.23 4.878-5.837 5.188-1.667 0.309-2.347-0.062-2.037-1.112l1.019-1.76c1.174-0.062 2.688-1.204 4.54-3.427 1.543-1.853 2.963-3.984 4.261-6.393 1.111-2.1 3.057-4.076 5.836-5.929 2.902-1.976 5.435-2.933 7.596-2.872 4.693 0 6.639 0.525 5.837 1.575-0.371 0.432-0.741 0.648-1.112 0.648l-0.556-0.093 1.574 0.649c0.989 0.741 1.483 1.822 1.483 3.242-0.063 1.42-0.619 1.977-1.668 1.667l-1.668-0.926c-0.989 4.079-2.317 6.487-3.983 7.228z" clip-rule="evenodd" fill="#5F6E06" fill-rule="evenodd"/>
<path d="m78.293 12.092c-0.804 1.42-2.07 1.945-3.799 1.575-1.483-0.31-2.872-0.896-4.169-1.761l-1.39-1.296 0.464 2.038c0.123 1.482-0.402 2.501-1.575 3.058-1.174 0.556-2.192 0.401-3.057-0.463l-1.02-1.389c-1.235 4.075-3.521 8.09-6.854 12.042-2.1 2.47-4.479 4.385-7.134 5.743l-3.242 1.205 1.019-4.725 3.984-1.482c3.026-1.605 5.373-4.045 7.04-7.318 1.791-3.396 2.594-5.497 2.408-6.299-0.741-0.432-1.39-0.865-1.945-1.297-0.74-0.556-1.081-1.482-1.019-2.779 0-1.235 0.37-1.821 1.111-1.759l1.39 0.092c-0.123-0.741-0.154-1.543-0.093-2.408 0.124-1.792 0.68-3.088 1.667-3.891 1.545-1.235 2.038-0.432 1.483 2.408l2.408-1.945c1.914-1.235 3.52-1.667 4.816-1.297 1.297 0.371 1.328 1.112 0.093 2.224l-2.221 1.572 3.242-0.648c2.284-0.309 3.798-0.092 4.539 0.648 1.173 1.296-0.309 2.47-4.447 3.52l5.374 1.945c1.359 0.371 1.666 1.267 0.927 2.687z" clip-rule="evenodd" fill="#8FA309" fill-rule="evenodd"/>
<g clip-rule="evenodd" fill="#6F8007" fill-rule="evenodd">
	<path d="m76.069 3.755l0.37 0.185c1.173 1.296-0.309 2.47-4.447 3.52 2.471-0.926 3.83-2.161 4.077-3.705z"/>
	<path d="m60.876 18.669c0.988-1.914 2.008-4.6 3.058-8.059l1.482 1.853c1.11 1.235 1.883 1.821 2.315 1.759 0.741-0.123 1.143-1.328 1.204-3.612l0.464 2.038c0.123 1.482-0.402 2.501-1.575 3.058-1.174 0.556-2.192 0.401-3.057-0.463l-1.02-1.389c-1.235 4.075-3.521 8.09-6.854 12.042l-0.278 0.278-0.371-0.834c2.162-2.533 3.706-4.756 4.632-6.671z"/>
	<path d="m77.366 9.406c1.358 0.371 1.666 1.266 0.927 2.687-0.804 1.42-2.07 1.945-3.799 1.575-1.483-0.31-2.872-0.896-4.169-1.761l-1.39-1.296 2.594 0.648c1.977 0.31 3.397 0.31 4.261 0 1.359-0.556 0.094-1.821-3.798-3.798l5.374 1.945z"/>
</g>
<path d="m67.083 1.995l-1.204 2.038c-0.495 0.865-0.864 1.761-1.111 2.687-0.124 0.494-0.186 0.865-0.186 1.112l0.926-0.648c0.803-0.557 1.545-0.958 2.224-1.204 1.174-0.495 2.501-0.742 3.983-0.742l-1.761 0.649c-0.74 0.309-1.697 0.865-2.871 1.667l-1.482 1.02 2.131-0.371c1.05-0.186 2.037 0.124 2.964 0.926-0.927-0.186-2.007-0.154-3.242 0.093-0.864 0.185-1.605 0.617-2.223 1.296-0.494 0.679-0.804 1.389-0.927 2.13-0.124 0.618-0.37 0.71-0.74 0.278-0.371-0.432-0.649-0.989-0.834-1.668-0.124-0.556-0.494-1.049-1.112-1.482l-0.928-0.463 1.483 0.648c1.11 0.494 1.79 1.08 2.037 1.76-0.37-1.358-0.494-2.594-0.37-3.706 0.062-1.172 1.143-3.179 3.243-6.02z" clip-rule="evenodd" fill="#6F8007" fill-rule="evenodd"/>
<path d="m61.895 14.038c-0.308 1.297-0.802 2.563-1.481 3.798-1.358 2.408-2.224 3.612-2.594 3.612-0.124 0 0.217-0.648 1.019-1.945 0.927-1.482 1.483-2.501 1.668-3.057 1.049-2.717 1.512-3.52 1.388-2.408z" clip-rule="evenodd" fill="#D0DB88" fill-rule="evenodd"/>
<path d="m62.544 1.347c0.309 0.679 0.277 1.358-0.093 2.037-0.371 0.679-0.68 0.772-0.926 0.279-0.186-0.433-0.094-0.989 0.277-1.668 0.372-0.741 0.619-0.957 0.742-0.648z" clip-rule="evenodd" fill="#D0DB88" fill-rule="evenodd"/>
<path d="m59.579 7.646c0.804 0.37 0.896 0.896 0.278 1.575-0.556 0.741-1.02 0.802-1.39 0.185-0.246-0.556-0.216-1.019 0.093-1.39 0.248-0.37 0.587-0.494 1.019-0.37z" clip-rule="evenodd" fill="#D0DB88" fill-rule="evenodd"/>
<path d="m69.954 0.421c0.988 0.123 1.051 0.586 0.186 1.389-0.926 0.741-1.605 0.895-2.038 0.463-0.37-0.433-0.277-0.865 0.278-1.297 0.494-0.494 1.019-0.679 1.574-0.555z" clip-rule="evenodd" fill="#D0DB88" fill-rule="evenodd"/>
<linearGradient id="e" x1="26.922" x2="34.57" y1="4.3066" y2="4.3066" gradientTransform="matrix(1.1932 1.4173 -1.4173 1.1932 .2004 .0499)" gradientUnits="userSpaceOnUse">
	<stop stop-color="#FA9600" offset="0"/>
	<stop stop-color="#D47200" offset="1"/>
</linearGradient>
<path d="m57.079 22.097c5.063 4.632 5.095 9.666 0.092 15.1-1.667 1.729-5.373 4.354-11.116 7.874-2.161 1.358-7.103 4.262-14.822 8.708-3.334 1.977-7.75 4.354-13.247 7.133-5.558 2.779-8.708 4.385-9.449 4.817-1.173 0.741-3.088 2.068-5.744 3.982-1.976 1.358-2.841 1.42-2.594 0.187 0.186-0.865 1.606-2.656 4.261-5.374 3.274-3.21 5.59-5.495 6.948-6.854 6.794-6.67 11.673-12.073 14.637-16.211 4.199-6.114 6.638-9.604 7.317-10.468 2.965-4.015 5.281-6.484 6.948-7.411 7.473-4.385 13.063-4.879 16.769-1.483z" clip-rule="evenodd" fill="url(#e)" fill-rule="evenodd"/>
<use transform="matrix(1.8527 0 0 -1.8527 1.9502 19.8)" y="-26.8" width="31.813" height="26.794" enable-background="new" opacity=".1094" xlink:href="#f"/>
<use transform="matrix(1.8527 0 0 -1.8527 .2002 23.65)" y="-25.441" width="32.784" height="25.441" enable-background="new" opacity=".2305" xlink:href="#h"/>
<use transform="matrix(1.8527 0 0 -1.8527 20.2 22.4)" x="-0.014" y="-15.2" width="15.715" height="15.217" enable-background="new" opacity=".2695" xlink:href="#g"/>
</svg>