<?xml version="1.0" encoding="UTF-8"?>
<svg width="326.37" height="448.06" enable-background="new 0 0 841.9 595.3" version="1.1" viewBox="0 0 326.36788 448.06126" xmlns="http://www.w3.org/2000/svg">
 <path d="m301.11 144.73-105.56-4.4444-173.33 22.222-13.889 9.4444-1.6667 26.111 19.444 38.333 21.111 48.889 10.556 136.67 2.7778 12.778 15 3.3333 71.111 5.5556 105-1.1111 22.222-18.333 19.444-37.222 8.3333-100.56 17.778-89.444 3.3333-20-6.6667-21.111z" fill="#d40000" fill-rule="evenodd"/>
 <path d="m10 104.73 16.111 45 9.4444 26.667 12.778 25 10.556-12.778 22.222-13.333 30-6.1111 50.556-2.7778 40.556 0.55556 24.444 5.5556 25.556 15 19.444 15.556 9.4444-3.8889 3.8889-22.778 4.4444-25 20-67.222-3.8889-9.4444-17.222-3.8889v-16.111l5.5556-20.556-15-13.889-7.2222 4.4444-7.7778 16.667-2.2222-8.3333-5.5556-17.222-14.444-6.6667-12.222-6.6667-8.3333 2.7778-3.3333 16.667-9.4444 0.55556-3.8889-0.55556-1.1111-15-10 0.55556-5.5556 17.778-11.667-7.7778-14.444 1.6667 3.3333-8.3333-10-8.8889-10.556 5.5556-5 8.8889-17.778 2.7778-15-7.2222-6.1111 3.3333-0.55556 17.778-5 16.111-6.6667-5-10-11.111-10.556 1.1111-6.1111 7.2222v10l7.7778 20.556 5.5556 28.333 2.7778 20.556-8.8889-13.333-10-21.111-5.5556-28.333-6.6667-9.4444-10.556 0.55556-5.5556 12.778 7.7778 22.222 5.5556 17.222 0.55556 5.5556-6.6667 5.5556-4.4444-11.111-5-11.667-12.222 1.1111-5.5556 8.3333z" fill="#e1c451" fill-rule="evenodd"/>
 <g transform="translate(-248.77 -73.779)">
  <path d="m392.8 418.4c-2.8-5.9-5.1-12.5-3.6-18.9 0.2-1 0.6-2.1 1.3-2.9 2.3-2.5 6.9-0.7 8.6 2.3s1.6 6.7 2.3 10.1c0.6 2.6 1.6 5 3.2 7.2 0.9 1.3 2.1 2.6 3.7 3 3.4 0.8 6.2-2.8 7.4-6.2 1.3-3.8 1.9-7.8 1.8-11.7-0.1-2.6 0.9-5.4 3-7s5.5-1.5 7.2 0.5c1.6 1.8 1.5 4.5 1.2 6.9-0.5 3.9-1.3 7.8-2.3 11.6-1.2 4.2-2.9 8.5-6 11.7-3.3 3.4-8.1 5.3-12.8 5s-9.3-2.7-12.1-6.4c-1.1-1.6-2.1-3.4-2.9-5.2z"/>
  <path d="m546.7 211.9c4.2-14.6 8.4-29.3 12.6-43.9 1.5-5.1 2.9-10.4 1.6-15.5s-6.3-9.7-11.5-8.4c-5.7 1.4-10.1-5.9-9.3-11.7s4.4-11 5.4-16.8c2.1-12-9.6-24.3-21.7-22.8-2.7 0.3-5.5 1.4-6.7 3.9-1.7 3.5-0.4 9.5-4.3 9.9 3.6-8-1.1-18.6-9.5-21.2-7.2-2.2-13-7.7-20-10.4-7.1-2.6-17.2-0.5-18.6 6.9-0.5 2.7 0.2 5.5-0.4 8.1-0.7 2.6-4 4.9-6 3.1 2.9-7.5-3.7-16.9-11.8-16.7s-14.2 10-10.9 17.3c-3.6-5.9-11.7-8.7-18.2-6.2-0.8-6.8-6.6-12.7-13.4-13.6s-13.9 3.3-16.5 9.6c-2.5 6.3-11.6 6-18 3.6s-14-5.5-19.5-1.6c-8.7 6.3-1.4 21.5-7.8 30.2-4.9-6.9-13-12.3-21.4-11.4-8.4 0.8-15.9 9.7-13.3 17.7 5.9 18.7 10.4 37.9 13.4 57.3-6.1-10.9-10.6-22.8-13.1-35.1-1.1-5.5-1.9-11.1-4.5-16.1s-7.5-9.2-13.1-9.2c-7.1 0-12.6 7-13.5 14s1.5 14 3.9 20.7c3.2 9 6.4 18 9.7 27-5.5-2.3-5.1-10.2-8.2-15.2-5.1-8.2-19.1-6-24.2 2.2s-3.2 19.1 1.1 27.8c3.3 6.7 7.9 12.9 9.8 20.2 1.8 7.3-0.2 16.4-7 19.5-9 4.1-13.4 14.7-13 24.6 0.4 9.8 4.7 19 9.1 27.8 12.9 25.4 27.9 50.4 33.9 78.2 3.5 16.2 3.8 32.9 4.5 49.5 1.4 32.5 4.4 64.8 7.5 97.2 0.2 2 0.6 4.3 2.3 5.2 0.8 0.4 1.8 0.4 2.7 0.5 58.3 1.2 116.6 2.5 175 3.7 6.7 0.1 13.5 0.2 19.7-2.2 6.3-2.5 11.3-7.5 16.1-12.3 12-12.1 24.7-25.7 25.9-42.7 4.8-68.6 14.5-136.8 28.8-204 4.3-20.2-8.3-42.2-27.6-48.7zm-5.8-63.3c4.5-2 9.7 1.9 11.1 6.5 1.4 4.7 0 9.7-1.4 14.3-10 33.7-21.5 67.3-25.9 102.2-4-3.5-3.8-9.7-3.3-15 3.3-32.7 7.9-65.3 13.7-97.6 0.8-4 2-8.7 5.8-10.4zm-2.2 95.5c0-1.3-0.1-2.5-0.1-3.8h-0.1c0.2-1.7 0.8-3.4 1.9-4.7 2.1 2.5 1.2 6.8-1.7 8.5zm-15.7-140.1c0.4-1.3 0.9-2.9 2.2-3.3 1.1-0.4 2.3 0.1 3.3 0.6 4.7 2.3 10.2 6.3 8.9 11.4-10.1 38.2-15.5 77.5-20.9 116.7-1.5 10.7-3 21.5-2.9 32.3-6.9-6.1-14.9-11-23.5-14.2-1.3-0.5-1.3-2.4-1-3.8 9.8-47 21.1-93.6 33.9-139.7zm-30.7 9.6c1.1-5.1 2.2-10.3 3.3-15.4 0.4-2 0.9-4 2.1-5.6s3.5-2.6 5.3-1.8c2.2 1 2.7 4 2.9 6.4 0.6 6.5 1.9 12.9 4 19.2 0.8 2.4 0.2 5.1-0.5 7.5-3.2 12.4-6.4 24.7-9.6 37.1-1-0.6-1.2-1.9-1.3-3-1.1-12.8-3.3-25.5-6.5-38-0.6-2.1-0.1-4.3 0.3-6.4zm-18-31c2.1-2.3 6-2.7 8.4-0.8 2.1 1.7 2.8 4.6 3.3 7.3 0.4 2.3 0.9 4.6 1.3 6.8 0.2 1.2-0.1 2.9-1.3 2.6-0.8-4.4-6-7.5-10.3-5.9-0.9 0.3-1.8-0.5-2.3-1.3-1.5-2.7-1.2-6.4 0.9-8.7zm4.1 18.6c1.6 1.9 2.2 4.5 2.8 7l3.8 17.2c2.9 13.2 5.9 26.4 7 39.9 2.2 26.6-2.8 53.8-14.5 77.9 3.1-47.6-0.6-95.6-10.9-142.2 3.1-3.2 8.9-3.1 11.8 0.2zm-9.8 134.6c-0.1 0.8-0.2 1.6-0.7 2.2-1.4 2-4.9 0.7-5.8-1.6-0.8-2.3 0-4.9 0.8-7.2 2.7-7.8 4.4-16 5.1-24.3 0.1-1.7 1.1-4 2.7-3.4 0.2 11.5-0.5 23-2.1 34.3zm-3.7-104.8c1.4 14.3 2.8 28.7 4.2 43 0.4 3.9 0.7 8.1-1 11.6-6.4 13-10.9 26.8-13.2 41.1-0.4 2.5-0.8 5.2-2.4 7.2-1.5 2-4.6 3.2-6.7 1.8-2.4-1.7-2.1-5.3-1.5-8.2l20.6-96.5zm-27.3-15.1c0.4-4 1.5-8 2.5-11.9 1.7-6.2 3.4-12.5 5.1-18.7 0.3-1.2 2.2-1.3 3.1-0.5 0.9 0.9 1.1 2.2 1.3 3.4 1.3 9.3 2.6 18.5 3.9 27.8 0.7 5.1 1.4 10.3 1.3 15.5-0.1 5.6-1.2 11.1-2.3 16.5-1.9 10-3.9 20-5.8 30-0.3 1.5-0.6 3-1.7 4.1-3.4-18.1-5.9-36.4-7.4-54.7-0.1-3.8-0.3-7.7 0-11.5zm-24.7-20.4c2.8-3.9 9.4-2.6 12.3 1.2s3.2 8.9 3.4 13.7c0.8 18 2.2 36 5.1 53.8 3.5 21 9.1 42.8 2.9 63.2-1.4 4.7-5.7 10.1-10.1 8-3.2-1.6-3.5-5.9-3.4-9.5 1.2-40.6-2.5-81.3-10.8-121-0.7-3.2-1.3-6.7 0.6-9.4zm-17.3-8.2c1.3-4.4 6.5-8.1 10.3-5.7 2.8 1.8 3 6.4 0.4 8.4-4.1 3.2-3.3 9.5-2.2 14.6 9.4 42.2 12.2 85.8 8.4 128.8-3.2-0.6-3.3-5-3-8.2 0.5-5.8-0.5-11.6-1.5-17.4-4.7-26.7-9.8-53.4-15.2-80.1-1.8-8.9 2.7-17.9 2.7-26.9-0.1-4.5-1.2-9.2 0.1-13.5zm-22.9 30.2c0.1-5 0.4-10.1 2.6-14.6s7-8 11.9-7.3c-7.7 45.7-2.9 93.4 13.6 136.7 0.4 1-0.9 1.9-2 2.3-3.1 1.1-6.3 2.2-9.6 1.9s-6.6-2.3-7.4-5.5c-8.4-37.2-10.2-75.5-9.1-113.5zm-19.4-21.9c0.7-3 2.6-6.6 5.7-6.4s4.4 4 4.9 7.1c1.3 9.1 1.1 18.3-0.3 27.4-2.3-2.1-2-5.7-1.9-8.9 0-3.1-1-7-4.1-7.5-2.3-0.4-4-2.5-4.6-4.8-0.7-2.2-0.3-4.6 0.3-6.9zm-1.8 21.3c0.4-0.5 0.9-1.1 1.6-1 0.6 0.1 0.8 0.7 1 1.3 7.5 20 11.6 41.3 12.1 62.7 0.4 18.8 3.4 37.5 8.8 55.6 0.4 1.4-1.5 2.2-3 2.3l-12.2 1c-0.9 0.1-1.9 0.1-2.7-0.3-1.1-0.6-1.4-2-1.6-3.3-5.5-32-8.3-64.5-8.3-97 0-7.4 0.3-15.2 4.3-21.3zm-34.4 14.4c-1.3-4.4-2.7-9-1.6-13.5s5.8-8.4 10.1-6.8c2.7 1 4.4 3.7 5.6 6.4 6.7 14.3 7.2 30.5 8 46.2 1.2 22.5 3.3 45 7.7 67 0.5 2.4 1 4.8 0.5 7.2s-2.3 4.7-4.7 4.9c-4.4 0.5-6.5-5.2-7.1-9.6-4.8-34.2-8.8-68.7-18.5-101.8zm-31 8.1c-1.2-4.7-1.5-11.2 3.1-12.7 2.7-0.9 5.7 0.9 7.2 3.3s1.9 5.3 2.4 8.1c3 17.9 10 34.9 18.4 51 7.3 13.9 10.8 29.8 9.9 45.5-7.4-15.4-13.3-31.5-17.6-48-1.4-5.5-4.6-12.4-10.2-11.6-2.5 0.4-4.1-2.6-4.8-5.1-2.9-10.1-5.7-20.3-8.4-30.5zm7.6 45.7c2.6-1.4 6.6-1 7.4 1.9 5.5 20.4 13.3 40.1 23.1 58.8 0.3 0.5-0.3 1.1-0.8 1.4-4.1 2.5-8.2 5.1-12.3 7.6-0.5 0.3-1.2 0.7-1.8 0.6-1-0.1-1.5-1.2-1.9-2.2-6.6-17.5-12.6-35.2-18-53.1-0.6-2-1.2-4-1.1-6.1-0.1-3.7 2.1-7.2 5.4-8.9zm-27.8 4c-1.9-5-3.9-10.5-2.1-15.5s9.3-7.9 12.6-3.6c4 5.3 5.6 12.3 4.2 18.8-1.1 5 0.6 10.1 2.2 15 5.5 16.4 11 32.8 16.5 49.3 1.6 4.7 2.8 10.6-0.8 13.9-4.1-4.5-6.3-10.3-8.5-15.9-8-20.8-16-41.4-24.1-62zm296.9 81.2c-12.5 61.4-24 123.2-28 185.7-1.1 16.8-12.4 31.1-23.8 43.5-4.8 5.3-10.6 10.8-17.8 11-56.7 1.6-113.6 0.9-170.2-2.3-4.4-0.2-10.1-1.7-10.4-6.1l-7.1-103.5c-0.6-9.4-1.3-18.9-3-28.2-5.7-31.3-22.7-59-36.6-87.6-3.2-6.6-6.3-13.5-7.2-20.8-0.8-7.3 1-15.3 6.3-20.3 4.1-3.9 12.3-4.7 14.5 0.6-6.2 0.4-11.7 5.8-12 12-0.4 6.8 4.5 12.6 8.3 18.3 15.3 22.8 15.5 52.8 29.3 76.5 1.4 2.4 3.2 4.9 5.9 5.4 0.3 0.1 0.7 0.1 1 0.1-4.6-9.3-6.8-20-6.8-30.6-3.3-14-3.4-28.7 0-42.6 1.6-6.8 4.2-13.7 9.2-18.7s12.8-7.7 19.3-5c2.1 0.9 2.9-2.6 4-4.5 1.2-2.2 4-2.9 6.5-3.4 29.6-5.7 59.9-8 90.1-6.8 14 0.5 28.1 1.8 41.3 6.3s25.7 12.4 33.5 24c1.9 2.8 3.5 5.8 4.8 8.9 4.7 8.1 8.3 16.9 10.2 26.3 0.8 4.1 1.4 8.2 1.8 12.3 0.8 3.9 1.4 7.8 2 11.7 0.8-0.2 1.4-0.7 1.7-1.5 0.3-0.7 0.3-1.4 0.3-2.2 0.4-16-1-32.1-4.1-47.8 9.3-0.2 14.4-10.7 17.3-19.6 1.9-5.8 3.8-11.6 5.8-17.4 1-3.1 2-6.5 0.7-9.5-1.1-2.5-3.7-4.1-5.2-6.3-1.6-2.2-1.6-6.2 1-7 0.8-0.2 1.7-0.1 2.6 0.1 9.2 2.3 15.3 11.5 17 20.8s-0.3 18.9-2.2 28.2z"/>
  <circle cx="476.4" cy="386.4" r="21.2"/>
  <circle cx="483.1" cy="381.4" r="6.8" fill="#fff"/>
  <circle cx="337.9" cy="388.1" r="21.2"/>
  <circle cx="344.7" cy="383" r="6.8" fill="#fff"/>
 </g>
</svg>
