<?xml version="1.0" encoding="UTF-8"?>
<svg version="1.0" viewBox="0 0 313 455" xmlns="http://www.w3.org/2000/svg">
 <rect x="-4.7688e-6" width="313" height="455" rx="1.1883e-5" fill="#fff"/>
 <g transform="translate(-300.07 -111.06)">
  <rect x="448.45" y="226.59" width="23.16" height="93.104" rx="1.1883e-5" ry="0" fill="#fbf4da" stroke="#000" stroke-linecap="round" stroke-linejoin="round"/>
  <path d="m460.44 153.72c5.59 26.218 8.94 57.053 18.16 78.973-5.65 1.99-17.37 3.91-17.84 3.93-6.08 0.21-13.25-0.95-19.32-3.9 8.96-18.6 12.77-52.625 19-79.003z" fill="#ff5e30" fill-rule="evenodd" stroke="#000" stroke-linecap="round" stroke-linejoin="round"/>
  <rect x="501.5" y="317.31" width="25" height="85" rx="12.5" ry="5.6132" fill="#fbf4da" stroke="#000" stroke-linecap="round" stroke-linejoin="round"/>
  <path d="m514.28 256.76c4.79 21.65 11.97 44.06 21.58 61.86-3.11 0.92-16.5 3.5-19.75 3.87-7.6 0.86-21.15-2.68-23.96-3.89 9.21-15.67 14.99-41.35 22.13-61.84z" fill="#ff5e30" fill-rule="evenodd" stroke="#000" stroke-linecap="round" stroke-linejoin="round"/>
  <path d="m501 399.32c8.09 2.86 16.38 3.42 24.95 0.47-6.16 9.86-15.6 18.28-25.16 24.07l0.21-24.54z" fill="#fbf4da" fill-rule="evenodd" stroke="#000" stroke-linecap="round" stroke-linejoin="round"/>
  <g transform="matrix(.67364 0 0 .87639 -138.76 16.289)" fill-rule="evenodd" stroke="#000" stroke-width="1.3015">
   <path d="m978.31 365.46c0.18606 0.0381 9.3366 2.7671 10.436 6.0799l-0.18604 13.531-4.4146-0.25385h-8.4571l-6.6304-0.74889 0.18605-12.274v-0.0762c0.57509-3.6048 8.8461-6.2068 9.066-6.2576z" fill="#b57942"/>
   <path d="m978.38 369.31c0.25709 0.0419 5.8359 1.8708 5.8359 2.4711l1.4397 12.719-13.034-0.27922-0.0771-12.174c0-0.29319 5.5531-2.6945 5.8359-2.7364z" fill="#6fbfe6"/>
   <path d="m966.45 384.14 24.103 1.0028-0.0171 4.7599-23.748 0.25386-0.33828-6.0165z" fill="#b6b7b7"/>
  </g>
  <rect transform="scale(-1,1)" x="-410.5" y="320.31" width="25" height="85" rx="12.5" ry="5.6132" fill="#fbf4da" stroke="#000" stroke-linecap="round" stroke-linejoin="round"/>
  <path d="m397.72 259.76c-4.79 21.65-11.97 44.06-21.58 61.86 3.11 0.92 16.5 3.5 19.75 3.87 7.6 0.86 21.15-2.68 23.96-3.89-9.21-15.67-14.99-41.35-22.13-61.84z" fill="#ff5e30" fill-rule="evenodd" stroke="#000" stroke-linecap="round" stroke-linejoin="round"/>
  <path d="m411 402.32c-8.09 2.86-16.38 3.42-24.95 0.47 6.16 9.86 15.6 18.28 25.16 24.07l-0.21-24.54z" fill="#fbf4da" fill-rule="evenodd" stroke="#000" stroke-linecap="round" stroke-linejoin="round"/>
  <g transform="matrix(-.59253 0 0 .87639 970.43 19.289)" fill-rule="evenodd" stroke="#000" stroke-width="1.3877">
   <path d="m978.31 365.46c0.18606 0.0381 9.3366 2.7671 10.436 6.0799l-0.18604 13.531-4.4146-0.25385h-8.4571l-6.6304-0.74889 0.18605-12.274v-0.0762c0.57509-3.6048 8.8461-6.2068 9.066-6.2576z" fill="#b57942"/>
   <path d="m978.38 369.31c0.25709 0.0419 5.8359 1.8708 5.8359 2.4711l1.4397 12.719-13.034-0.27922-0.0771-12.174c0-0.29319 5.5531-2.6945 5.8359-2.7364z" fill="#6fbfe6"/>
   <path d="m966.45 384.14 24.103 1.0028-0.0171 4.7599-23.748 0.25386-0.33828-6.0165z" fill="#b6b7b7"/>
  </g>
  <path d="m502.3 340.28-0.28 55.44 0.28 54.61h-92.59l1.43-109.45 91.16-0.6z" fill="#fbf4da" fill-rule="evenodd" stroke="#000"/>
  <path d="m432.78 318.02 51.69 0.9 27.32 26.52-109.03-0.1 30.02-27.32z" fill="#ff5e30" fill-rule="evenodd" stroke="#000" stroke-linecap="round" stroke-linejoin="round"/>
  <rect x="458.33" y="123.81" width="3" height="35" rx="8.9793e-6" ry="13.843"/>
  <g transform="translate(0,124)" fill="#e892bd" fill-rule="evenodd" stroke="#000">
   <path d="m456.96 4.4566s16.299-3.6193 18.041-1.191c1.7322 2.4278-3.1234 4.1619-3.1234 4.1619s3.8056 8.147 1.0411 11.1c0.34107-5.8968-13.526-2.4278-15.267-1.3876-1.7322 1.0402-1.3822-12.336-0.69111-12.683z"/>
   <path d="m515.57 18.527c-21.963 0.57802-27.285-6.4749-40.928-9.7123-2.8991-0.68931-2.4323-1.734-2.4323-1.734-4.1556 3.3523-3.4645 8.0931 0 12.14 0 0 35.04 7.2835 43.36-0.6938z"/>
  </g>
  <rect x="352.85" y="445.41" width="35" height="106" rx="17.5" ry="7" fill="#fbf4da" stroke="#000" stroke-linecap="round" stroke-linejoin="round"/>
  <g transform="matrix(.50181 0 0 .50181 34.356 263.64)" fill-rule="evenodd" stroke="#000" stroke-width="1.9928">
   <path d="m786.52 188.46c0.45623 0.0828 22.894 6.0158 25.59 13.218l-0.45623 29.417-10.825-0.5519h-20.738l-16.258-1.6281 0.45623-26.685v-0.1656c1.4102-7.8371 21.692-13.494 22.231-13.604z" fill="#b57942"/>
   <path d="m786.7 196.83c0.6304 0.0911 14.31 4.0672 14.31 5.3724l3.5303 27.651-31.962-0.60704-0.18911-26.468c0-0.6374 13.617-5.8581 14.31-5.9491z" fill="#6fbfe6"/>
   <path d="m757.45 229.08 59.102 2.18-0.0415 10.348-58.231 0.55191-0.8295-13.08z" fill="#b6b7b7"/>
  </g>
  <g transform="matrix(.50181 0 0 .50181 87.078 263.27)" fill-rule="evenodd" stroke="#000" stroke-width="1.9928">
   <path d="m786.52 188.46c0.45623 0.0828 22.894 6.0158 25.59 13.218l-0.45623 29.417-10.825-0.5519h-20.738l-16.258-1.6281 0.45623-26.685v-0.1656c1.4102-7.8371 21.692-13.494 22.231-13.604z" fill="#b57942"/>
   <path d="m786.7 196.83c0.6304 0.0911 14.31 4.0672 14.31 5.3724l3.5303 27.651-31.962-0.60704-0.18911-26.468c0-0.6374 13.617-5.8581 14.31-5.9491z" fill="#6fbfe6"/>
   <path d="m757.45 229.08 59.102 2.18-0.0415 10.348-58.231 0.55191-0.8295-13.08z" fill="#b6b7b7"/>
  </g>
  <g transform="matrix(.50181 0 0 .50181 60.078 317.27)" fill-rule="evenodd" stroke="#000" stroke-width="1.9928">
   <path d="m786.52 188.46c0.45623 0.0828 22.894 6.0158 25.59 13.218l-0.45623 29.417-10.825-0.5519h-20.738l-16.258-1.6281 0.45623-26.685v-0.1656c1.4102-7.8371 21.692-13.494 22.231-13.604z" fill="#b57942"/>
   <path d="m786.7 196.83c0.6304 0.0911 14.31 4.0672 14.31 5.3724l3.5303 27.651-31.962-0.60704-0.18911-26.468c0-0.6374 13.617-5.8581 14.31-5.9491z" fill="#6fbfe6"/>
   <path d="m757.45 229.08 59.102 2.18-0.0415 10.348-58.231 0.55191-0.8295-13.08z" fill="#b6b7b7"/>
  </g>
  <rect x="529" y="445.51" width="35" height="106" rx="17.5" ry="7" fill="#fbf4da" stroke="#000" stroke-linecap="round" stroke-linejoin="round"/>
  <path d="m547.37 377.17c8.33 23.95 13.41 50.59 25.47 73-4.03 2.18-19.13 5.78-42.77 1.98-3.03-0.49-6.4-1.28-9.36-2.12 11.68-22.07 18.02-48.91 26.66-72.86z" fill="#ff5e30" fill-rule="evenodd" stroke="#000" stroke-linecap="round" stroke-linejoin="round"/>
  <path d="m369.22 377.07c8.33 23.95 13.41 50.59 25.47 73-4.03 2.18-19.13 5.78-42.77 1.98-3.03-0.49-6.4-1.28-9.36-2.12 11.68-22.07 18.02-48.91 26.66-72.86z" fill="#ff5e30" fill-rule="evenodd" stroke="#000" stroke-linecap="round" stroke-linejoin="round"/>
  <path d="m402.35 450.14h106.56l27.15 17.69-160.12 0.64 26.41-18.33z" fill="#ff5e30" fill-rule="evenodd" stroke="#000" stroke-linecap="round" stroke-linejoin="round"/>
  <g transform="translate(-90.133 222.9)">
   <rect x="458.33" y="123.81" width="3" height="35" rx="8.9793e-6" ry="13.843"/>
   <g transform="translate(0,124)" fill="#e892bd" fill-rule="evenodd" stroke="#000">
    <path d="m456.96 4.4566s16.299-3.6193 18.041-1.191c1.7322 2.4278-3.1234 4.1619-3.1234 4.1619s3.8056 8.147 1.0411 11.1c0.34107-5.8968-13.526-2.4278-15.267-1.3876-1.7322 1.0402-1.3822-12.336-0.69111-12.683z"/>
    <path d="m515.57 18.527c-21.963 0.57802-27.285-6.4749-40.928-9.7123-2.8991-0.68931-2.4323-1.734-2.4323-1.734-4.1556 3.3523-3.4645 8.0931 0 12.14 0 0 35.04 7.2835 43.36-0.6938z"/>
   </g>
  </g>
  <path d="m529.71 468.34-0.43547 39.798 0.43547 39.202h-144l2.224-78.569 141.78-0.43071z" fill="#fbf4da" fill-rule="evenodd" stroke="#000"/>
  <path d="m454.93 479.49c-11 4.4-24.14 9.73-28.42 21.79-1.04 15.23-0.66 30.56-1.2 45.83 19.77 0.1 39.84-0.09 59.38-0.03-0.3-15.47 0.42-31.02-0.48-46.44-4.53-11.78-18.34-17.37-29.28-21.15z" fill="#b57942" fill-rule="evenodd"/>
  <g transform="translate(-380,34)" fill="#b6b7b7" fill-rule="evenodd" stroke="#000" stroke-linecap="round" stroke-linejoin="round">
   <path d="m826.01 437.38-9.62 4.49 6.95 10.52c3.13-1.64 5.66-2.81 7.8-3.65l-5.13-11.36z"/>
   <path d="m843.76 437.66-4.74 10.49 7.69 4.15 6.45-10.12-9.4-4.52z"/>
   <path d="m829.07 442.32 2.91 6.11c1.35-0.5 3.14-1.15 3.14-1.15l2.53 0.9 3.36-5.75-11.94-0.11z"/>
   <path d="m818.97 446.3-8.08 5.84 5.44 4.51v0.03c1.42-1.03 2.87-2.03 4.35-2.89 0.63-0.37 1.23-0.64 1.85-0.98l-3.56-6.51z"/>
   <path d="m850.41 446.48-3.22 6.09c1.05 0.53 1.5 0.59 2.58 1.2 1.75 1 3.5 2.13 5.16 3.34l4.54-4.77-9.06-5.86z"/>
   <path d="m864.18 448.18-9.31 9.17c1.49 1.14 5.17 4.26 5.3 4.41l11.02-4.55-7.01-9.03z"/>
   <path d="m805.67 448.02-6.62 9.71 11.03 4.65c0.23-0.28 3.74-3.86 5.49-5.19l-9.9-9.17z"/>
   <path d="m867.24 459.26-7.01 2.92c1.91 2.32 3.78 5.23 4.09 8.02l5.25 0.06-2.33-11z"/>
   <path d="m803.15 459.76-1.71 11.03 4.74 0.03c0.31-2.81 1.53-5.38 3.31-7.72l-6.34-3.34z"/>
   <path d="m875.35 470.88-11.48-0.28c0.01 0.09 0.65 26.54 0.65 26.54h10.38l0.45-9.04-10.77 0.17v-0.11h4.93l0.34-8.64-5.84 0.23 0.57-0.57h10.32l0.45-8.3z"/>
   <path d="m795.02 471.04 0.44 8.75 10.44-0.53 0.39-8-11.27-0.22z"/>
   <path d="m806.23 480-5.72 0.03 0.62 8.66 4.6 0.09 0.5-8.78z"/>
   <path d="m794.9 489.22 0.56 8.52h10.07l0.62-8.52h-11.25z"/>
   <path d="m864.18 497.7 0.4 16.4 11.33 0.06-0.26-7.71-11.41-0.11 0.34-0.23h4.93l0.45-8.64-5.78 0.23z"/>
   <path d="m800.68 498.22 0.17 8.5h4.52l0.61-8.53-5.3 0.03z"/>
   <path d="m795.04 507.06-0.78 7.13 10.97-0.03 0.36-7.21-10.55 0.11z"/>
  </g>
  <path d="m456 482.31v67" fill="#fbf4da" stroke="#000" stroke-linecap="round" stroke-linejoin="round"/>
  <path d="m499.99 546.68-0.15 7.89-93.08-0.42-0.12-7 93.35-0.47z" fill="#b6b7b7" fill-rule="evenodd" stroke="#000" stroke-linecap="round" stroke-linejoin="round"/>
  <g transform="translate(88.018 223)">
   <rect x="458.33" y="123.81" width="3" height="35" rx="8.9793e-6" ry="13.843"/>
   <g transform="translate(0,124)" fill="#e892bd" fill-rule="evenodd" stroke="#000">
    <path d="m456.96 4.4566s16.299-3.6193 18.041-1.191c1.7322 2.4278-3.1234 4.1619-3.1234 4.1619s3.8056 8.147 1.0411 11.1c0.34107-5.8968-13.526-2.4278-15.267-1.3876-1.7322 1.0402-1.3822-12.336-0.69111-12.683z"/>
    <path d="m515.57 18.527c-21.963 0.57802-27.285-6.4749-40.928-9.7123-2.8991-0.68931-2.4323-1.734-2.4323-1.734-4.1556 3.3523-3.4645 8.0931 0 12.14 0 0 35.04 7.2835 43.36-0.6938z"/>
   </g>
  </g>
  <g transform="translate(53.018 103)">
   <rect x="458.33" y="123.81" width="3" height="35" rx="8.9793e-6" ry="13.843"/>
   <g transform="translate(0,124)" fill="#e892bd" fill-rule="evenodd" stroke="#000">
    <path d="m456.96 4.4566s16.299-3.6193 18.041-1.191c1.7322 2.4278-3.1234 4.1619-3.1234 4.1619s3.8056 8.147 1.0411 11.1c0.34107-5.8968-13.526-2.4278-15.267-1.3876-1.7322 1.0402-1.3822-12.336-0.69111-12.683z"/>
    <path d="m515.57 18.527c-21.963 0.57802-27.285-6.4749-40.928-9.7123-2.8991-0.68931-2.4323-1.734-2.4323-1.734-4.1556 3.3523-3.4645 8.0931 0 12.14 0 0 35.04 7.2835 43.36-0.6938z"/>
   </g>
  </g>
  <g transform="translate(-61.982 104)">
   <rect x="458.33" y="123.81" width="3" height="35" rx="8.9793e-6" ry="13.843"/>
   <g transform="translate(0,124)" fill="#e892bd" fill-rule="evenodd" stroke="#000">
    <path d="m456.96 4.4566s16.299-3.6193 18.041-1.191c1.7322 2.4278-3.1234 4.1619-3.1234 4.1619s3.8056 8.147 1.0411 11.1c0.34107-5.8968-13.526-2.4278-15.267-1.3876-1.7322 1.0402-1.3822-12.336-0.69111-12.683z"/>
    <path d="m515.57 18.527c-21.963 0.57802-27.285-6.4749-40.928-9.7123-2.8991-0.68931-2.4323-1.734-2.4323-1.734-4.1556 3.3523-3.4645 8.0931 0 12.14 0 0 35.04 7.2835 43.36-0.6938z"/>
   </g>
  </g>
  <g transform="matrix(.87639 0 0 .87639 -398.55 -50.8)" fill-rule="evenodd" stroke="#000" stroke-width="1.141">
   <path d="m978.31 365.46c0.18606 0.0381 9.3366 2.7671 10.436 6.0799l-0.18604 13.531-4.4146-0.25385h-8.4571l-6.6304-0.74889 0.18605-12.274v-0.0762c0.57509-3.6048 8.8461-6.2068 9.066-6.2576z" fill="#b57942"/>
   <path d="m978.38 369.31c0.25709 0.0419 5.8359 1.8708 5.8359 2.4711l1.4397 12.719-13.034-0.27922-0.0771-12.174c0-0.29319 5.5531-2.6945 5.8359-2.7364z" fill="#6fbfe6"/>
   <path d="m966.45 384.14 24.103 1.0028-0.0171 4.7599-23.748 0.25386-0.33828-6.0165z" fill="#b6b7b7"/>
  </g>
  <g transform="matrix(.41859 0 0 .50181 223.03 382.27)" fill-rule="evenodd" stroke="#000" stroke-width="2.1819">
   <path d="m786.52 188.46c0.45623 0.0828 22.894 6.0158 25.59 13.218l-0.45623 29.417-10.825-0.5519h-20.738l-16.258-1.6281 0.45623-26.685v-0.1656c1.4102-7.8371 21.692-13.494 22.231-13.604z" fill="#b57942"/>
   <path d="m786.7 196.83c0.6304 0.0911 14.31 4.0672 14.31 5.3724l3.5303 27.651-31.962-0.60704-0.18911-26.468c0-0.6374 13.617-5.8581 14.31-5.9491z" fill="#6fbfe6"/>
   <path d="m757.45 229.08 59.102 2.18-0.0415 10.348-58.231 0.55191-0.8295-13.08z" fill="#b6b7b7"/>
  </g>
  <g transform="matrix(.41859 0 0 .50181 33.571 386.27)" fill-rule="evenodd" stroke="#000" stroke-width="2.1819">
   <path d="m786.52 188.46c0.45623 0.0828 22.894 6.0158 25.59 13.218l-0.45623 29.417-10.825-0.5519h-20.738l-16.258-1.6281 0.45623-26.685v-0.1656c1.4102-7.8371 21.692-13.494 22.231-13.604z" fill="#b57942"/>
   <path d="m786.7 196.83c0.6304 0.0911 14.31 4.0672 14.31 5.3724l3.5303 27.651-31.962-0.60704-0.18911-26.468c0-0.6374 13.617-5.8581 14.31-5.9491z" fill="#6fbfe6"/>
   <path d="m757.45 229.08 59.102 2.18-0.0415 10.348-58.231 0.55191-0.8295-13.08z" fill="#b6b7b7"/>
  </g>
  <path d="m503.58 520.74 0.05 5.19 10.86 0.22-0.12-5.13-10.79-0.28zm11.24 0.51-0.22 4.79 5.69-0.33 0.25-4.69-5.72 0.23zm-17.08 4.85-0.28 5.27 11.25-0.45 0.34-4.93-11.31 0.11zm11.33 0.11-0.22 4.6 11.3 0.11 0.23-4.71h-11.31zm-5.33 4.82-0.28 4.86 11.36-0.17-0.33-4.91-10.75 0.22z" fill="#e5ca67" fill-rule="evenodd" stroke="#000" stroke-linecap="round" stroke-linejoin="round"/>
  <path d="m421.58 408.74 0.05 5.19 10.86 0.22-0.12-5.13-10.79-0.28zm11.24 0.51-0.22 4.79 5.69-0.33 0.25-4.69-5.72 0.23zm-17.08 4.85-0.28 5.27 11.25-0.45 0.34-4.93-11.31 0.11zm11.33 0.11-0.22 4.6 11.3 0.11 0.23-4.71h-11.31zm-5.33 4.82-0.28 4.86 11.36-0.17-0.33-4.91-10.75 0.22z" fill="#e5ca67" fill-rule="evenodd" stroke="#000" stroke-linecap="round" stroke-linejoin="round"/>
 </g>
</svg>
