<?xml version="1.0" encoding="UTF-8"?>
<svg viewBox="0 0 744.09447 1052.362179" xmlns="http://www.w3.org/2000/svg" xmlns:xlink="http://www.w3.org/1999/xlink">
 <defs>
  <filter id="f" x="-.03159" y="-.18991" width="1.0632" height="1.3798">
   <feGaussianBlur stdDeviation="2.94821"/>
  </filter>
  <filter id="e" x="-.38195" y="-.03373" width="1.7639" height="1.0675">
   <feGaussianBlur stdDeviation="4.28009"/>
  </filter>
  <linearGradient id="a">
   <stop stop-color="#888a85" offset="0"/>
   <stop stop-color="#888a85" stop-opacity="0" offset="1"/>
  </linearGradient>
  <linearGradient id="c" x1="27.219" x2="229.41" gradientUnits="userSpaceOnUse">
   <stop stop-color="#5a3801" offset="0"/>
   <stop stop-color="#5a3801" stop-opacity="0" offset="1"/>
  </linearGradient>
  <linearGradient id="d" x1="210.24" x2="102.21" y1="587.2" y2="603.9" gradientUnits="userSpaceOnUse" xlink:href="#a"/>
  <linearGradient id="b" x1="-49.375" x2="239.6" gradientUnits="userSpaceOnUse" xlink:href="#a"/>
 </defs>
 <g transform="matrix(2.0356 0 0 2.0356 147.13 -957.62)">
  <path d="m15.603 593.15v37.844c-13.835 0.72311-27.185 3.475-38.656 10.219-13.728 8.0702-23.791 22.643-25.938 42-2.3697 21.367 6.4798 43.912 19.781 62.156 11.57 15.87 26.905 29.253 44.812 32.469v65.938h0.03125c0.71684 17.197 50.591 31.094 111.97 31.094s111.28-13.897 112-31.094c0.00518-0.12472 0-0.24993 0-0.375v-250.25h-0.0625c-1.9933 16.879-51.377 30.406-111.94 30.406s-109.91-13.527-111.91-30.406h-0.09375zm0 59.969v101.66c-8.646-3.3587-18.726-11.35-26.719-22.312-10.72-14.704-17.175-33.709-15.719-46.844 1.5298-13.794 6.7698-20.52 15.188-25.469 6.7807-3.9861 16.262-6.2804 27.25-7.0312z" fill="#d3d7cf"/>
  <path d="m240.31 592.1c0 17.369-50.176 31.466-112 31.466s-112-14.097-112-31.466 50.176-31.466 112-31.466 112 14.097 112 31.466z" fill="#babdb6"/>
  <path transform="matrix(.76598 -.64287 0 1 2.9475 -.98251)" d="m284.59 801.41h4.0849c6.2841 0 11.343 5.059 11.343 11.343v203.94c0 6.2841 1.3544 14.975-4.9297 14.975-8.8725-3.8851-19.76-2.0038-21.841-14.975v-203.94c0-6.2841 5.059-11.343 11.343-11.343z" fill="#eeeeec" filter="url(#e)" opacity=".7858"/>
  <path d="m240.31 593.1c0 17.369-50.176 31.466-112 31.466s-112-14.097-112-31.466 50.176-31.466 112-31.466 112 14.097 112 31.466z" fill="url(#d)"/>
  <path d="m127.31 585.62c-43.776 0-81.675 7.0822-100.09 17.375 17.561 10.93 56.66 18.563 102.09 18.562 43.776 0 81.675-7.0822 100.09-17.375-17.561-10.93-56.66-18.562-102.09-18.562z" fill="#8f5902"/>
  <path d="m127.31 585.62c-43.776 0-81.675 7.0822-100.09 17.375 17.561 10.93 56.66 18.563 102.09 18.562 43.776 0 81.675-7.0822 100.09-17.375-17.561-10.93-56.66-18.562-102.09-18.562z" fill="url(#c)"/>
  <path d="m15.603 593.15v37.844c-13.835 0.72311-27.185 3.475-38.656 10.219-13.728 8.0702-23.791 22.643-25.938 42-2.3697 21.367 6.4798 43.912 19.781 62.156 11.57 15.87 26.905 29.253 44.812 32.469v65.938h0.03125c0.71684 17.197 50.591 31.094 111.97 31.094s111.28-13.897 112-31.094c0.00518-0.12472 0-0.24993 0-0.375v-250.25h-0.0625c-1.9933 16.879-51.377 30.406-111.94 30.406s-109.91-13.527-111.91-30.406h-0.09375zm0 59.969v101.66c-8.646-3.3587-18.726-11.35-26.719-22.312-10.72-14.704-17.175-33.709-15.719-46.844 1.5298-13.794 6.7698-20.52 15.188-25.469 6.7807-3.9861 16.262-6.2804 27.25-7.0312z" fill="url(#b)"/>
  <path d="m237.43 836.87c-7.0595 15.465-54.129 27.434-111.09 27.434-54.787 0-96.478-11.076-106.16-25.684-0.60338 1.3218-0.92111 2.6698-0.92111 4.0375 0 17.369 46.237 31.471 108.06 31.471s112.01-14.102 112.01-31.471c0-1.977-0.66038-3.9114-1.9036-5.7876z" fill="#888a85" filter="url(#f)" opacity=".2993"/>
  <path transform="matrix(.49126 0 0 .49126 -72.28 470.44)" d="m178.9 327.58v45.255h-15.556l9.1924-45.255 6.364-1e-5z" fill="#848780" fill-rule="evenodd"/>
  <path d="m15.258 754.68 0.24563 23.214-7.8878-2.2106 5.0071-21.495 2.6351 0.49125z" fill="#848780" fill-rule="evenodd"/>
 </g>
</svg>
