<?xml version='1.0' encoding='utf-8'?>
<svg xmlns="http://www.w3.org/2000/svg" enable-background="new 0 0 951.84 1600" version="1.1" viewBox="0 0 951.84 1600">
<g clip-rule="evenodd" fill-rule="evenodd">
	<path d="m846.8 468.31c-5.097-2.924-10.19-5.846-15.281-8.767 5.08 2.92 10.18 5.84 15.28 8.77z" fill="#F7A7AF"/>
	<path d="m609.64 169.98c-4.261 1.315-8.531 2.634-12.797 3.95 4.27-1.32 8.54-2.64 12.8-3.95z" fill="#F7A7AF"/>
	<path d="m229.98 254.26c0.976 2.381 1.948 4.773 2.922 7.154l0.106-0.097c-4.413 0.94-8.816 1.879-13.235 2.828 3.39-3.3 6.8-6.6 10.2-9.88z" fill="#F7A7AF"/>
	<path d="m188.26 353.29c-1.1 2.677-2.183 5.352-3.271 8.031 1.09-2.69 2.17-5.36 3.27-8.03z" fill="#F7A7AF"/>
	<path d="m165.94 455.08c-1.776 2.264-3.554 4.525-5.329 6.79 1.77-2.26 3.55-4.52 5.33-6.79z" fill="#F7A7AF"/>
	<path d="m247.32 226.38c-1.518 2.204-3.021 4.412-4.539 6.616 1.51-2.21 3.02-4.41 4.54-6.62z" fill="#F498A2"/>
	<path d="m186.88 371.81c-1.048 2.918-2.105 5.83-3.168 8.742 1.06-2.91 2.12-5.83 3.17-8.74z" fill="#F7A7AF"/>
	<path d="m233.02 242.92c-1.108 1.92-2.224 3.838-3.325 5.753 1.1-1.92 2.21-3.83 3.32-5.75z" fill="#F498A2"/>
	<path d="m728.35 244.42c-2.357-1.549-4.719-3.101-7.086-4.652 2.37 1.55 4.73 3.11 7.09 4.65z" fill="#F7A7AF"/>
	<path d="m737.23 254.47c-2.355-1.864-4.709-3.723-7.052-5.594 2.34 1.85 4.69 3.72 7.05 5.59z" fill="#F7A7AF"/>
	<path d="m746.56 264.57c-2.465-1.757-4.915-3.525-7.381-5.292 2.46 1.76 4.92 3.54 7.38 5.29z" fill="#F7A7AF"/>
	<path d="m190.92 340.06c-1.141 2.703-2.277 5.399-3.412 8.098 1.13-2.71 2.27-5.4 3.41-8.1z" fill="#F7A7AF"/>
	<path d="m193.55 326.78c-1.084 2.684-2.177 5.36-3.264 8.033 1.08-2.67 2.16-5.35 3.26-8.03z" fill="#F7A7AF"/>
	<path d="m887.77 596.86c1.097-2.788 2.198-5.565 3.291-8.35-1.09 2.79-2.19 5.57-3.29 8.35z" fill="#F7A7AF"/>
	<path d="m196.42 314.14c-1.205 2.517-2.425 5.03-3.64 7.544 1.22-2.51 2.44-5.02 3.64-7.54z" fill="#F7A7AF"/>
	<path d="m386.19 229.81c-4.903 15.51-9.814 31.029-14.693 46.552 0.017 7e-3 -0.845 0.283-0.845 0.283-29.359-4.351-31.744-10.364-12.419-40.963 5.223-8.273 15.607-13.289 23.626-19.821 1.43 4.63 2.87 9.29 4.32 13.95z" fill="#93C967"/>
	<path d="m615.54 325.7c-13.766-11.173-27.875-21.976-40.955-33.908-2.05-1.873-0.556-9.486 1.504-13.253 1.134-2.086 8.55-3.587 10.189-2.103 13.561 12.312 26.437 25.391 39.524 38.237-3.42 3.67-6.84 7.34-10.25 11.02z" fill="#93C967"/>
	<path d="m610.7 244.59c-14.355-4.023-28.699-8.052-43.062-12.081-0.265-2.763-0.537-5.519-0.802-8.281 7.14-3.259 14.285-6.511 21.424-9.759l0.266 0.038c14.13 4.75 28.265 9.497 42.396 14.247-6.75 5.27-13.49 10.55-20.23 15.83z" fill="#F8994C"/>
	<path d="m311.37 218.32c22.607-17.024 38.971-29.345 61.324-46.173-4.76 35.55-25.25 51.05-61.32 46.17z" fill="#725544"/>
	<path d="m311.9 323.66c-19.769-3.664-39.533-7.334-59.293-11.003 0.896-5.5 1.786-10.993 2.671-16.498 19.928 2.726 39.86 5.449 59.786 8.169-1.06 6.44-2.11 12.89-3.17 19.33z" fill="#F16143"/>
	<path d="m610.7 244.59c6.739-5.28 13.478-10.556 20.222-15.836 7.133-1.944 14.267-3.894 25.904-7.069-4.06 29.073-24.756 40.412-41.844 43.599-19.01 3.55-10.99-11.55-4.28-20.69z" fill="#725544"/>
	<path d="m386.19 229.81c-1.451-4.662-2.891-9.32-4.331-13.949 3.138-7.779 6.263-15.577 9.395-23.378 3.021-0.202 6.055-0.418 9.079-0.624 4.107 18.728 8.201 37.453 12.303 56.178-4.042 1.46-8.077 2.927-12.111 4.38-4.78-7.54-9.56-15.08-14.34-22.61z" fill="#FCFDFC"/>
	<path d="m428.18 287.93c16.1-11.238 32.189-22.47 48.296-33.709 2.519 3.509 5.028 7.012 7.557 10.52-9.087 20.542-25.915 30.933-48.727 33.491-2.37-3.43-4.75-6.87-7.13-10.3z" fill="#F16143"/>
	<path d="m232.9 261.41c17.579-2.572 35.156-5.14 52.739-7.72 3.946 4.834 7.884 9.688 11.817 14.539-23.418 15.672-45.024 14.492-64.457-6.918l-0.1 0.1z" fill="#F8994C"/>
	<path d="m512.57 299.12c-4.097-3.481-8.213-6.955-12.315-10.427 11.862-13.208 23.73-26.417 35.598-39.625 2.951 2.21 5.908 4.42 8.857 6.635-4.503 10.76-9.012 21.511-13.488 32.282-6.21 3.73-12.43 7.43-18.66 11.14z" fill="#EB158A"/>
	<path d="m695.47 279.1c-0.42 18.924-0.844 37.849-1.26 56.774-5.048 0.129-10.096 0.269-15.142 0.402-0.397-14.145-0.784-28.285-1.203-42.393 5.85-4.9 11.73-9.84 17.6-14.78z" fill="#EB158A"/>
	<path d="m297.45 268.23c-3.934-4.851-7.871-9.704-11.817-14.539 22.052-13.005 44.508 1.456 50.915 38.58-15.44-9.5-27.26-16.77-39.09-24.04z" fill="#F9E49D"/>
	<path d="m370.66 276.64s0.861-0.275 0.845-0.283c19.809 20.236 7.335 39.604 0.144 59.135-14-19.83-15.03-39.44-0.98-58.86z" fill="#EB158A"/>
	<path d="m512.57 299.12c6.226-3.708 12.443-7.415 18.651-11.135 13.146 4.397 26.312 8.8 39.471 13.203-1.137 3.41-2.271 6.818-3.395 10.226-19.02 0.37-39.62 9.76-54.73-12.29z" fill="#FCFDFC"/>
	<path d="m695.47 279.1c-5.87 4.941-11.745 9.88-17.604 14.784-6.079-2.205-12.156-4.361-18.247-6.527 3.109-5.611 4.892-13.043 9.588-16.47 10.444-7.621 22.345-13.245 33.656-19.686 2.275 2.457 4.551 4.907 6.826 7.355-4.75 6.86-9.49 13.71-14.23 20.56z" fill="#F16143"/>
	<path d="m274.36 1264.1c-1.381-12.248-2.75-24.504-4.13-36.753 76.287-70.647 152.78-141.07 228.71-212.09 18.013-16.854 34.151-35.706 51.159-53.643 12.665 7.127 25.333 14.249 38.021 21.364-52.019 46.698-104.48 92.928-155.94 140.25-45.517 41.837-89.775 85.068-135.02 127.22-6.33 6-15.14 9.2-22.8 13.7z" fill="#E9C48A"/>
	<path d="m550.1 961.63c-17.008 17.937-33.146 36.788-51.159 53.643-75.928 71.022-152.42 141.45-228.71 212.09-2.101-15.953-4.208-31.917-6.313-47.882 6.077-3.245 13.217-5.342 18.053-9.896 59.274-55.839 118.2-112.04 177.22-168.15 22.995-13.406 45.651-27.451 69.23-39.759 5.7-2.93 14.38-0.15 21.68-0.01z" fill="#F4D68D"/>
	<path d="m459.2 1001.4c-59.022 56.106-117.95 112.31-177.22 168.15-4.836 4.554-11.976 6.65-18.053 9.896-1.435-12.292-2.861-24.594-4.297-36.891 42.326-38.962 84.81-77.759 126.77-117.1 5.215-4.885 7.66-12.727 11.395-19.189 20.45-1.6 40.93-3.2 61.4-4.9z" fill="#E9C48A"/>
	<path d="m397.79 1006.3c-3.734 6.463-6.18 14.305-11.395 19.189-41.964 39.345-84.447 78.142-126.77 117.1-2.145-15.975-4.275-31.945-6.419-47.93 36.861-33.133 73.728-66.271 110.59-99.396 11.32 3.65 22.65 7.3 33.99 11z" fill="#F4D68D"/>
	<path d="m363.79 995.27c-36.859 33.126-73.726 66.264-110.59 99.396-1.843-14.238-3.688-28.476-5.529-42.717 30.569-24.963 61.134-49.932 91.695-74.899 8.16 6.02 16.29 12.09 24.43 18.17z" fill="#E9C48A"/>
	<path d="m339.37 977.05c-30.562 24.968-61.126 49.937-91.695 74.899-1.777-14.102-3.559-28.202-5.333-42.294 23.57-21.094 47.138-42.171 70.705-63.26 8.77 10.27 17.54 20.49 26.31 30.71z" fill="#F4D68D"/>
	<path d="m313.05 946.39c-23.567 21.089-47.135 42.166-70.705 63.26-3.555-13.722-7.099-27.444-10.641-41.163 1.045-4.141 2.077-8.271 3.128-12.402 20.121-12.344 40.231-24.687 63.268-38.837 4.64 9.09 9.79 19.14 14.95 29.19z" fill="#E8C58A"/>
	<path d="m291.6 1397c-1.748-14.118-3.492-28.244-5.245-42.369 46.797-41.908 94.056-83.307 140.27-125.84 50.778-46.739 100.54-94.585 150.85-141.82 31.365-29.448 62.946-58.664 94.427-87.976-2.99 19.592-6.001 39.19-9.01 58.786-64.501 59.564-128.77 119.38-193.56 178.62-58.95 53.9-118.47 107.1-177.74 160.6z" fill="#F4D68D"/>
	<path d="m291.6 1397c59.271-53.506 118.78-106.73 177.73-160.6 64.795-59.232 129.06-119.05 193.56-178.62-3.056 19.626-6.108 39.237-9.165 58.864-59.412 53.718-118.86 107.41-178.23 161.19-59.486 53.868-118.89 107.84-178.32 161.78-1.85-14.3-3.71-28.5-5.57-42.7z" fill="#E9C48A"/>
	<path d="m297.18 1439.6c59.431-53.935 118.83-107.91 178.32-161.78 59.365-53.772 118.82-107.47 178.23-161.19-4.289 22.072-8.575 44.141-12.863 66.215-6.231 3.056-13.61 4.856-18.507 9.357-59.222 54.367-117.9 109.32-177.07 163.74-42.042 38.672-84.614 76.768-126.95 115.11-7.05-10.4-14.1-20.9-21.16-31.4z" fill="#F4D68D"/>
	<path d="m318.34 1471.1c42.332-38.347 84.904-76.442 126.95-115.11 59.17-54.419 117.85-109.37 177.07-163.74 4.896-4.501 12.275-6.302 18.507-9.357-2.198 15.212-4.399 30.424-6.604 45.636-53.959 49.438-108.46 98.313-161.69 148.52-39.94 37.681-78.266 77.079-117.3 115.71-11.781-5.259-23.565-10.521-35.349-15.777-0.53-1.9-1.06-3.9-1.59-5.8z" fill="#E9C48A"/>
	<path d="m594.4 1476.3c-49.541 34.05-105.54 41.061-163.69 39.028 63.094-58.851 126.21-117.71 189.3-176.56-8.53 45.9-17.07 91.8-25.61 137.6z" fill="#F0D08D"/>
	<path d="m355.27 1492.7c39.038-38.631 77.363-78.029 117.3-115.71 53.234-50.202 107.73-99.077 161.69-148.52-2.966 19.573-5.941 39.148-8.907 58.727-24.28 20.899-48.939 41.38-72.748 62.795-56.675 50.997-112.95 102.43-169.39 153.68-6.263-0.465-12.524-0.92-18.776-1.386-3.05-3.2-6.11-6.4-9.16-9.6z" fill="#F4D68D"/>
	<path d="m383.22 1503.7c56.438-51.249 112.72-102.68 169.39-153.68 23.809-21.415 48.468-41.896 72.748-62.795-1.778 17.188-3.562 34.378-5.34 51.572-63.102 58.855-126.22 117.72-189.31 176.56-15.84-3.9-31.67-7.8-47.49-11.7z" fill="#E9C48A"/>
	<path d="m746.56 264.57c0.926 1.278 1.505 2.698 1.747 4.27 14.987 55.485 30.168 110.91 44.828 166.47 3.515 13.313 8.083 22.987 24.337 16.296 4.677 2.637 9.354 5.281 14.039 7.929 5.091 2.921 10.185 5.842 15.281 8.767 0 0-0.036-0.033-0.04-0.028 4.937 2.959 9.88 5.915 14.822 8.862 0 0-0.237-0.09-0.237-0.083 5.312 4.947 10.62 9.901 15.937 14.849 0.869 1.458 1.518 3.009 1.947 4.659 3.721 28.924 7.431 57.843 11.142 86.769 0.448 1.698 0.677 3.423 0.695 5.181-1.093 2.784-2.194 5.562-3.291 8.35-4.374 7.01-8.752 14.023-13.132 21.038-19.635 7.293-39.607 21.271-58.82 20.296-27.945-1.424-46.703 10.808-68.147 23.723-49.133 29.583-103.25 48.938-156.34 17.238-36.275-21.665-58.201-10.963-88.042 9.224-63.512 42.963-131.92 27.443-176.19-35.34-6.764-9.585-13.354-19.292-20.964-30.311-7.36 4.913-12.181 8.038-16.9 11.318-5.771 4.004-11.371 8.257-17.184 12.194-55.264 37.51-94.072 37.157-149.24-0.491-5.293-3.61-12.845-3.897-19.349-5.727-1.627-5.428-3.268-10.854-4.903-16.285-3.364-12.092-6.731-24.173-10.108-36.26-0.558-3.767-1.109-7.527-1.675-11.296 1.558-8.901 3.121-17.811 4.672-26.72 0 0-0.17 0.189-0.165 0.189 2.236-7.216 4.475-14.427 6.71-21.648 2.626-4.595 5.246-9.191 7.883-13.782 5.081-5.593 10.149-11.19 15.217-16.79 0 0-0.092 0.245-0.087 0.245 11.657-11.32 23.311-22.637 34.972-33.957 1.443-0.857 2.986-1.469 4.631-1.85 1.775-2.264 3.552-4.525 5.329-6.79 3.659-1.507 7.306-3.015 10.968-4.516 3.441-2.942 6.88-5.886 10.32-8.818 0 0-0.153 0.291-0.147 0.291 16.445-17.163 6.962-33.558-1.468-49.987-0.633-3.834-1.264-7.669-1.9-11.501 1.063-2.913 2.121-5.824 3.168-8.742-0.621-3.499-1.263-6.995-1.889-10.491 1.088-2.679 2.171-5.354 3.271-8.031-0.486-1.682-0.733-3.387-0.752-5.125 1.135-2.699 2.271-5.395 3.412-8.098-0.456-1.723-0.662-3.473-0.639-5.249 1.086-2.672 2.179-5.349 3.264-8.033-0.478-1.668-0.737-3.364-0.761-5.099 1.215-2.514 2.436-5.027 3.64-7.544 0 0-0.265 0.24-0.259 0.245 2.235-7.215 4.475-14.427 6.71-21.637 5.633-9.535 11.256-19.078 16.892-28.607 4.419-0.949 8.822-1.887 13.229-2.83 19.433 21.41 41.039 22.591 64.457 6.918 11.826 7.267 23.65 14.543 39.098 24.041-6.407-37.124-28.863-51.584-50.922-38.568-17.576 2.569-35.153 5.136-52.732 7.708-0.974-2.381-1.946-4.773-2.922-7.154-0.376-1.848-0.471-3.712-0.28-5.587 1.102-1.915 2.217-3.833 3.325-5.753 3.252-3.302 6.504-6.606 9.76-9.916 1.518-2.205 3.021-4.412 4.539-6.616 1.67-1.106 3.48-1.913 5.416-2.446 10.268-8.667 20.527-17.334 30.802-26.003 3.711-1.541 7.409-3.075 11.134-4.614 4.454-0.071 9.203 0.846 13.316-0.361 32.649-9.591 65.174-19.589 97.726-29.457 7.05 17.263 10.681 37.287 21.894 51.207 20.538 25.52 49.727 29.354 81.266 21.489 35.003-8.728 50.29-32.975 55.947-65.967 3.041-2.955 6.077-5.907 9.108-8.852 4.778 17.696 9.551 35.389 14.336 53.084-7.139 3.248-14.284 6.5-21.424 9.759 0.265 2.763 0.537 5.519 0.802 8.281 14.362 4.029 28.706 8.058 43.062 12.081-6.713 9.146-14.733 24.24 4.282 20.694 17.088-3.188 37.784-14.526 41.844-43.599-11.638 3.175-18.771 5.125-25.904 7.069-14.131-4.75-28.266-9.497-42.396-14.247 2.767-13.524 5.54-27.044 8.314-40.575 4.266-1.316 8.536-2.635 12.797-3.95 2.054 1.197 4.114 2.401 6.173 3.604 7.11 2.641 14.238 5.263 21.365 7.887 4.709 2.665 9.411 5.322 14.114 7.989 7.685 4.396 15.372 8.777 23.05 13.171 4.694 2.701 9.367 5.406 14.053 8.109 5.599 4.934 11.199 9.86 16.806 14.784l-0.243-0.09c5.551 4.799 11.104 9.604 16.665 14.402 0 0-0.356-0.067-0.356-0.061 2.367 1.551 4.729 3.103 7.086 4.652 0.91 1.356 1.514 2.835 1.825 4.449 2.343 1.871 4.696 3.73 7.052 5.594 0.867 1.513 1.516 3.117 1.953 4.814 2.47 1.81 4.92 3.58 7.38 5.33zm-68.68 29.27c0.406 14.143 0.793 28.283 1.19 42.428 5.046-0.133 10.094-0.272 15.142-0.402 0.416-18.925 0.84-37.851 1.26-56.774 4.737-6.845 9.478-13.696 14.219-20.543-2.275-2.449-4.551-4.898-6.826-7.355-11.312 6.441-23.212 12.064-33.656 19.686-4.696 3.427-6.479 10.859-9.588 16.47 6.1 2.16 12.17 4.32 18.27 6.48zm-146.68-5.86c4.498-10.763 9.007-21.514 13.51-32.273-2.949-2.215-5.906-4.425-8.857-6.635-11.867 13.208-23.735 26.417-35.598 39.625 4.103 3.472 8.219 6.946 12.315 10.427 15.111 22.053 35.71 12.664 54.728 12.294 1.124-3.408 2.258-6.816 3.395-10.226-13.15-4.41-26.31-8.81-39.48-13.21zm-159.73-11.63c4.907-15.512 9.818-31.031 14.722-46.541 4.78 7.533 9.559 15.073 14.334 22.607 4.034-1.453 8.069-2.92 12.111-4.38-4.102-18.726-8.195-37.451-12.303-56.178-3.024 0.205-6.058 0.421-9.079 0.624-3.132 7.802-6.257 15.6-9.389 23.402-8.024 6.509-18.409 11.524-23.632 19.797-19.325 30.599-16.94 36.612 12.419 40.963-14.042 19.412-13.02 39.025 0.988 58.853 7.2-19.53 19.67-38.89-0.17-59.14zm244.07 49.35c3.415-3.674 6.832-7.35 10.263-11.026-13.088-12.847-25.964-25.926-39.524-38.237-1.64-1.484-9.056 0.017-10.189 2.103-2.06 3.767-3.554 11.38-1.504 13.253 13.07 11.94 27.18 22.74 40.95 33.92zm-304.17-107.38c36.072 4.879 56.563-10.622 61.324-46.173-22.35 16.83-38.72 29.15-61.32 46.17zm0.53 105.34c1.057-6.439 2.108-12.888 3.164-19.333-19.926-2.72-39.858-5.443-59.786-8.169-0.885 5.505-1.774 10.998-2.671 16.498 19.77 3.66 39.54 7.33 59.3 11zm116.28-35.73c2.374 3.43 4.753 6.871 7.126 10.302 22.812-2.558 39.64-12.949 48.727-33.491-2.528-3.508-5.038-7.011-7.557-10.52-16.11 11.24-32.2 22.47-48.3 33.71z" fill="#F9B5B0"/>
	<path d="m882.4 816.59c0.996 3.631 1.982 7.252 2.98 10.889-6.396 38.365-17.708 74.622-44.74 104.13-11.38 3.108-22.774 6.219-34.162 9.321-10.857-2.413-24.186-10.065-32.117-6.325-30.536 14.422-59.343 32.477-88.791 49.188-32.481-0.276-64.96-0.541-97.454-0.804-12.688-7.115-25.355-14.237-38.021-21.364-7.302-0.143-15.985-2.918-21.67 0.053-23.579 12.308-46.235 26.353-69.23 39.759-20.468 1.623-40.949 3.238-61.406 4.859-11.34-3.674-22.671-7.35-34-11.033-8.143-6.077-16.278-12.147-24.421-18.22-8.768-10.22-17.547-20.438-26.323-30.654-5.163-10.055-10.313-20.103-14.95-29.143-23.036 14.15-43.146 26.493-63.262 38.844-9.754 2.473-19.519 4.866-29.247 7.421-44.309 11.631-86.893-6.011-110.74-45.918-18.779-31.418-11.284-81.195 14.303-112.47 11.399-13.944 20.451-15.06 35.549-6.699 27.803 15.421 57.367 16.724 85.968 1.966 24.407-12.585 47.862-27.02 72.281-40.942 5.433 8.791 10.761 18.405 17.015 27.371 44.922 64.483 107 78.986 175.41 40.661 13.969-7.832 26.477-18.31 40.614-25.756 5.933-3.128 16.705-4.826 21.284-1.563 68.547 48.827 133.42 33.492 197.3-9.429 45.646-30.662 87.391-22.368 119.56 23.206 1.35 1.88 5.46 1.81 8.28 2.64z" fill="#F0566B"/>
	<path d="m882.4 816.59c-2.82-0.838-6.938-0.762-8.273-2.649-32.164-45.574-73.908-53.868-119.56-23.206-63.88 42.921-128.76 58.256-197.3 9.429-4.579-3.263-15.352-1.564-21.284 1.563-14.138 7.446-26.646 17.924-40.614 25.756-68.409 38.325-130.49 23.822-175.41-40.661-6.254-8.966-11.582-18.58-17.015-27.371-24.419 13.923-47.874 28.357-72.281 40.942-28.601 14.758-58.165 13.455-85.968-1.966-15.098-8.36-24.149-7.245-35.549 6.699-25.587 31.272-33.082 81.05-14.303 112.47 23.85 39.907 66.434 57.549 110.74 45.918 9.729-2.555 19.493-4.948 29.241-7.428-1.051 4.132-2.083 8.262-3.121 12.392-2.135 0.732-4.268 1.451-6.396 2.183-46.101 15.604-87.493 12.252-123.77-25.071-37.424-38.488-40.158-109.62 4.97-158.42-37.336-47.535-39.077-97.161-3.052-147.14 6.503 1.825 14.056 2.112 19.349 5.722 55.165 37.648 93.973 38 149.24 0.491 5.813-3.937 11.413-8.19 17.184-12.194 4.72-3.28 9.54-6.405 16.9-11.318 7.61 11.019 14.2 20.725 20.964 30.311 44.273 62.783 112.68 78.304 176.19 35.34 29.841-20.188 51.767-30.889 88.042-9.224 53.087 31.7 107.21 12.345 156.34-17.238 21.444-12.915 40.202-25.147 68.147-23.723 19.213 0.975 39.186-13.003 58.82-20.296 27.557 52.556 36.739 95.55-12.006 149.65 6.9 17.11 13.34 33.09 19.77 49.05z" fill="#F37780"/>
	<path d="m588.14 982.99c32.477 0.268 64.955 0.532 97.437 0.79 0.618 1.652 1.16 3.336 1.659 5.032-1.27 2.214-2.527 4.42-3.783 6.628-3.854 1.186-7.695 2.366-11.548 3.548-31.48 29.312-63.062 58.527-94.427 87.976-50.313 47.234-100.07 95.08-150.85 141.82-46.215 42.536-93.474 83.935-140.27 125.84-4-30.171-8-60.333-11.99-90.506 7.659-4.483 16.467-7.752 22.801-13.647 45.24-42.156 89.499-85.388 135.02-127.22 51.46-47.4 103.91-93.6 155.95-140.31z" fill="#EECD8C"/>
	<path d="m564.82 170.23c-5.657 32.992-20.944 57.239-55.947 65.967-31.539 7.865-60.728 4.03-81.266-21.489-11.213-13.92-14.844-33.944-21.88-51.21-0.026-8.276-0.051-16.555-0.066-24.825l0.021-0.023c13.22-13.508 26.431-27.021 39.653-40.53 11.117-3.036 22.257-6.075 33.384-9.12 2.061 2.042 4.03 5.769 6.2 5.875 48.08 2.529 73.45 28.845 79.92 75.345z" fill="#F0576C"/>
	<path d="m671.91 998.98c3.843-1.174 7.685-2.354 11.538-3.54-8.285 55.217-16.192 110.49-24.938 165.62-14.833 93.647-29.773 187.28-45.853 280.73-2.13 12.367-11.2 23.551-17.049 35.28l-1.213-0.747c8.538-45.852 17.076-91.696 25.615-137.54 1.778-17.194 3.562-34.385 5.344-51.578 2.962-19.572 5.938-39.147 8.912-58.721 2.195-15.212 4.396-30.424 6.601-45.636 4.282-22.074 8.568-44.143 12.857-66.215 3.057-19.627 6.109-39.238 9.171-58.858 3-19.7 6.01-39.3 9.01-58.92z" fill="#F6AEB2"/>
	<path d="m274.36 1264.1c3.99 30.173 7.99 60.335 11.99 90.506 1.753 14.125 3.497 28.251 5.245 42.369 1.858 14.209 3.724 28.404 5.582 42.607 7.053 10.486 14.108 20.978 21.158 31.463 0.527 1.959 1.057 3.912 1.577 5.872-0.597 0.895-1.226 1.766-1.895 2.615-42.655-17.155-32.847-57.646-37.708-89.866-11.985-79.451-20.446-159.42-30.749-239.13-7.747-60.011-16.146-119.93-24.252-179.89 2.129-0.731 4.262-1.45 6.39-2.172 3.542 13.719 7.086 27.441 10.641 41.163 1.774 14.092 3.556 28.192 5.333 42.294 1.841 14.241 3.687 28.479 5.529 42.721 2.144 15.98 4.274 31.951 6.413 47.926 1.441 12.297 2.868 24.599 4.307 36.896 2.101 15.96 4.208 31.924 6.309 47.877 1.39 12.2 2.75 24.5 4.13 36.7z" fill="#F6AEB2"/>
	<path d="m595.61 1477.1c-22.207 32.175-58.625 37.465-91.9 42.43-47.133 7.04-96.23 14.45-140.55-14.292 0.383-0.983 0.809-1.958 1.276-2.908 6.252 0.466 12.514 0.921 18.776 1.386 15.83 3.883 31.656 7.779 47.498 11.662 58.145 2.036 114.15-4.975 163.69-39.024l1.2 0.7z" fill="#F6AEB2"/>
	<path d="m817.48 451.61c-16.254 6.691-20.822-2.983-24.337-16.296-14.66-55.564-29.841-110.98-44.828-166.47 17.431 50.426 34.553 100.98 52.54 151.21 3.96 11.09 11 21.07 16.63 31.56z" fill="#F7A7AF"/>
	<path d="m687.23 988.81c-0.499-1.696-1.041-3.38-1.659-5.032 29.448-16.693 58.255-34.748 88.791-49.17 7.932-3.74 21.26 3.912 32.117 6.325-39.76 15.96-79.5 31.92-119.25 47.87z" fill="#F37780"/>
	<path d="m840.65 931.61c27.032-29.509 38.344-65.766 44.74-104.13 15.75 42.61-5.14 91.25-44.74 104.13z" fill="#F37780"/>
	<path d="m564.82 170.23c-6.473-46.5-31.837-72.819-79.9-75.356-2.17-0.106-4.14-3.833-6.2-5.875 48.167-15.107 90.509 26.629 95.209 72.379-3.03 2.95-6.07 5.9-9.11 8.85z" fill="#F498A2"/>
	<path d="m405.66 138.67c0.016 8.271 0.04 16.549 0.066 24.825-32.565 9.871-65.09 19.869-97.739 29.46-4.113 1.207-8.862 0.29-13.316 0.361 23.975-10.438 48.237-20.275 71.821-31.539 13.62-6.5 26.15-15.32 39.17-23.11z" fill="#F498A2"/>
	<path d="m890.36 583.33c-3.711-28.925-7.421-57.844-11.142-86.769 16.02 27.34 30.49 54.88 11.14 86.77z" fill="#F7A7AF"/>
	<path d="m445.33 98.121c-13.223 13.509-26.434 27.021-39.653 40.53-0.31-26.75 18.68-34.6 39.65-40.529z" fill="#F498A2"/>
	<path d="m363.16 1505.2c-15.041-8.567-30.067-17.128-45.128-25.672 0.658-0.835 1.287-1.706 1.884-2.601 11.783 5.256 23.567 10.519 35.349 15.777 3.058 3.196 6.115 6.389 9.172 9.587-0.46 1-0.89 1.9-1.27 2.9z" fill="#F6AEB2"/>
	<path d="m155.98 463.72c-11.661 11.32-23.315 22.636-34.972 33.957 11.65-11.32 23.31-22.64 34.97-33.96z" fill="#F7A7AF"/>
	<path d="m185.61 392.05c8.43 16.429 17.913 32.824 1.468 49.987-0.49-16.66-0.98-33.33-1.47-49.99z" fill="#F7A7AF"/>
	<path d="m88.451 587.48c3.376 12.087 6.744 24.168 10.108 36.26-3.369-12.08-6.739-24.17-10.108-36.26z" fill="#F7A7AF"/>
	<path d="m283.54 197.93c-10.274 8.668-20.534 17.335-30.802 26.003 10.25-8.66 20.52-17.33 30.8-26z" fill="#F498A2"/>
	<path d="m674.34 202.63c-7.678-4.394-15.365-8.774-23.05-13.171 7.69 4.38 15.37 8.78 23.05 13.17z" fill="#F7A7AF"/>
	<path d="m91.448 549.46c-1.551 8.91-3.115 17.819-4.672 26.72 1.564-8.9 3.121-17.81 4.672-26.72z" fill="#F7A7AF"/>
	<path d="m97.993 528c-2.235 7.221-4.474 14.432-6.71 21.648 2.237-7.21 4.475-14.42 6.71-21.65z" fill="#F7A7AF"/>
	<path d="m202.88 292.75c-2.235 7.21-4.475 14.422-6.71 21.637 2.23-7.22 4.47-14.43 6.71-21.64z" fill="#F7A7AF"/>
	<path d="m721.62 239.83c-5.561-4.798-11.114-9.603-16.665-14.402 5.56 4.8 11.1 9.61 16.66 14.4z" fill="#F7A7AF"/>
	<path d="m121.09 497.43c-5.068 5.6-10.136 11.197-15.217 16.79 5.07-5.59 10.15-11.19 15.22-16.79z" fill="#F7A7AF"/>
	<path d="m637.18 181.47c-7.127-2.624-14.255-5.246-21.365-7.887l21.36 7.89z" fill="#F7A7AF"/>
	<path d="m705.2 225.52c-5.606-4.923-11.207-9.85-16.806-14.784 5.6 4.92 11.2 9.85 16.81 14.78z" fill="#F7A7AF"/>
	<path d="m877.28 491.9c-5.316-4.948-10.625-9.901-15.937-14.849 5.32 4.95 10.63 9.91 15.94 14.85z" fill="#F7A7AF"/>
	<path d="m861.58 477.14c-4.942-2.947-9.886-5.903-14.822-8.862 4.94 2.95 9.88 5.9 14.82 8.86z" fill="#F7A7AF"/>
	<path d="m187.23 441.75c-3.439 2.932-6.879 5.876-10.32 8.818 3.44-2.95 6.87-5.89 10.32-8.82z" fill="#F7A7AF"/>
</g>
</svg>