<?xml version="1.0" encoding="UTF-8"?>
<svg viewBox="0 0 438.33661 319.77777" xmlns="http://www.w3.org/2000/svg">
 <defs>
  <filter id="a" x="-.19366" y="-.13133" width="1.3873" height="1.2627">
   <feGaussianBlur stdDeviation=".38248"/>
  </filter>
 </defs>
 <g transform="matrix(1.8296 0 0 1.7097 -554.81 -100.5)">
  <g transform="matrix(0 -1 -1 0 445.83 447.85)">
   <path d="m348.2329,99.14958c-.93709.05236-2.37323.50779-4.15625,1.34374s-3.91297,2.05425-6.28125,3.5625-4.96339,3.30575-7.65625,5.375-5.49323,4.41855-8.25,6.9375c-1.74498,1.59445-3.35176,3.25825-5.1875,4.71875-.91787.73025-1.89176,1.40779-2.96875,2s-2.2667,1.08428-3.59375,1.46875c-.54656.1235-1.01694.12861-1.53125-.0625s-1.0755-.56741-1.78125-1.15625c-1.33258-1.11183-3.59322-2.55311-5.90625-3.84375s-4.68651-2.45079-6.21875-2.9375c-1.80698-.57397-3.61729-.87407-5.125-.90625-.75386-.0161-1.40737.0344-1.96875.15625s-1.02204.33225-1.3125.59375c-.34267.30848-.74722.50268-1.3125.59375s-1.28535.0666-2.25-.0312c-2.06297-.20934-3.48142-.1899-4.375.125-.44679.15745-.76259.41201-.96875.71875s-.3125.68808-.3125,1.15625c0,.74064-.006,1.13516-.3125,1.34375s-.91235.21875-2,.21875c-1.21613,0-1.98577.11922-2.46875.46875s-.66712.92626-.71875,1.84375c-.027.4796-.11482.7717-.4375.90625s-.86558.10476-1.8125.0312c-.79418-.0617-1.37257-.0433-1.78125.0625s-.65317.32452-.78125.625-.30322.49618-.5.625-.42281.16581-.6875.125c-.52938-.0816-1.17704-.49129-1.96875-1.25-.75842-.7268-1.62642-1.17359-2.34375-1.28125-.35866-.0538-.66986-.0193-.9375.0937s-.47097.30569-.59375.59375c-.21229.49804.0828,1.96308.625,3.5625s1.30962,3.34078 2.0625,4.4375c.92962,1.35416 2.75465,3.0624 4.8125,4.65625s4.35908,3.08995 6.3125,3.96875c1.27561.57387 2.59856,1.05273 3.9375,1.4375s2.70262.64963 4.09375.84375 2.78657.31059 4.21875.3125 2.88166-.0894 4.34375-.28125c1.65132-.21668 3.13918-.48982 4.5-.84375s2.60351-.78893 3.8125-1.34375 2.36666-1.24314 3.5625-2.0625 2.42864-1.78997 3.75-2.9375c1.83602-1.59447 3.11148-2.59668 4.28125-3.3125s2.24795-1.1404 3.65625-1.53125c2.14321-.59481 4.5055-1.64937 6.90625-3.03125s4.8374-3.09365 7.09375-5.03125c5.05337-4.19502 9.08526-7.75252 12.25-10.71875s5.46321-5.33877 7-7.1875 2.29924-3.15747 2.46875-3.99999c.0848-.42127.0207-.71566-.1875-.90625s-.53145-.27618-1-.25z" fill="#fff" fill-rule="evenodd"/>
   <path d="m348.22 99.163c-3.7484 0.20945-15.285 7.1117-26.312 17.188-3.49 3.1889-6.4418 6.6809-11.75 8.2188-1.0931 0.247-1.901-0.0411-3.3125-1.2188-2.6652-2.2237-9.0605-5.8078-12.125-6.7812-3.614-1.1479-7.2444-1.2335-8.4062-0.1875-0.30994 0.27902-0.67243 0.45823-1.1562 0.5625 0.35132 0.23832 0.71808 0.4452 1.0625 0.65625 1.8495 0.74905 4.5672 1.454 6.9688 1.4062 1.3111-0.0261 0.91401-2.4572 2.0938-1.6562 2.2245 3.4779-2.7658 4.1084-9.0625 0.25-0.50645-0.20511-0.96835-0.42665-1.3125-0.625-0.55109 0.0819-1.2381 0.0932-2.1562 0-4.1259-0.41868-5.6562 0.0961-5.6562 1.9688 0 0.38884-9e-3 0.68333-0.0625 0.90625 1.705 0.84991 3.5157 1.5939 5.375 2.1875 4.5536 1.28 10.685 2.3375 14.312 1.125 1.8508-0.61866 1.3762-2.4412 3.125-1.625 3.0332 3.2423-7.5947 3.6426-17.438 0.5-2.613-0.73451-4.7008-1.5191-5.4375-2-0.21081 0.44796-0.7645 0.5-2.1875 0.5-2.4323 0-3.0842 0.47752-3.1875 2.3125-0.0221 0.3929-0.0773 0.62958-0.28125 0.78125 0.76035 0.52613 1.5141 1.016 2.3125 1.4688 3.6059 1.6028 10.531 3.7287 15.125 2.8438 1.9163-0.36918 1.6866-2.2585 3.3125-1.2188 2.8573 4.0039-8.831 3.8229-18.438-1.625-1.3692-0.60861-2.332-1.1451-2.4062-1.4062-0.31624 0.16288-0.89377 0.17235-1.9062 0.0937-1.5884-0.1233-2.2751 0.0553-2.5312 0.65625-0.13281 0.31157-0.32291 0.52951-0.53125 0.65625 1.3961 1.1648 2.9223 2.2461 4.5 3.2188 4.0879 2.3304 9.6447 4.8128 13.406 4.5312 1.9461-0.14567 1.9424-2.0328 3.4375-0.8125 2.1313 3.8626-8.1086 1.6667-16.844-3.7188-2.161-1.2319-3.93-2.4097-4.7188-3.125-0.58291 0.16018-1.4069-0.23113-2.4375-1.2188-1.5168-1.4536-3.3839-1.746-3.875-0.59375-0.42457 0.99608 1.213 5.8066 2.7188 8 1.8592 2.7083 7.2182 6.8361 11.125 8.5938 5.1024 2.2955 10.745 3.0799 16.594 2.3125 6.6053-0.86673 10.34-2.5661 15.625-7.1562 3.672-3.189 5.0896-4.0621 7.9062-4.8438 4.2864-1.1896 9.4873-4.1873 14-8.0625 20.213-16.78 24.28-23.272 20.531-23.062v5e-5zm-2.125 2.6875c0.10196-9e-3 0.15625 0.0202 0.15625 0.0937 0 1.5368-16.648 15.149-21.969 19.656-4.3589 3.6924-6.5587 4.8942-11.594 6.2812-3.8257 1.0539-16.394 3.6346-16.371 2.5971 0.0158-0.72242 12.074-2.9184 14.527-3.8784 5.4973-2.1515 6.4482-2.8033 15.406-10.531 5.9006-5.0903 18.314-14.088 19.844-14.219v5e-5z"/>
  </g>
  <g transform="translate(187.89 -110.22)">
   <path d="m188.88 181.79c-9.3725 1.6544-17.082 6.8515-24.219 12.844-20.333 17.906-13.23 45.231-13.094 69.344-0.0714 8.4561-0.62012 16.61-1.6562 24.438-0.63198 4.7744-3.7589 18.184-6.2188 26.719-1.5968 5.5401-2.9062 10.705-2.9062 11.5 0 4.5066 13.838 17.46 14.969 7.0625 0.7667-7.0479 1.5077-3.2336 2.7075 0.0493 2.7196 7.4413 14.152-1.6634 14.011-3.8931-0.0917-1.4501-3.2476-8.0739 2.356-1.2812 2.6841 3.2537 7.96-1.4697 11.019-3.5312 1.7627-1.1879 1.9092-1.5297 1.9062-4.3125-3e-3 -2.8743-0.67046-6.7977-3.5312-20.969-0.91748-4.5448-1.3708-9.3619-1.5938-17.031-0.34616-11.909-0.48436-11.515 3.625-9.9688 1.0888 0.40958 3.4224 1.0392 5.2188 1.375 3.0672 0.57326 3.3109 0.73406 3.875 2.5625 1.5134 4.9056 0.0168 21.416-3.2188 35.469-1.8994 8.2498-3.5889 13.744-7.6875 25.031l-3.2188 8.875 1.25 2.3438c2.8118 4.0707 12.434 10.071 13.593 5.4221 2.5183-10.102 1.9279-9.6216 3.4788-0.54797 0.88826 5.1971 11.339-0.82056 15.147-3.2804l1.4375-1.375-0.6875-7.2812c-0.38147-3.992-0.96483-9.144-1.2812-11.469-0.59704-4.3864-2.6678-26.45-3.2812-35-0.19312-2.6915-0.13655-7.8912 0.0937-11.531 0.3651-5.7696 0.54574-6.6814 1.5312-7.1562 1.7243-0.83083 11.561-3.251 11.938 0.0312 0.50505 4.4055 0.74818 3.303 2.0938 8.7812l1.25 13.938 0.625 4.9062c0.74892 6.0302-0.13905 16.292-2.1875 25.5-0.77578 3.4871-1.8518 8.6521-2.4062 11.5l-1 5.1875 1.3438 1.3125c1.9822 1.8996 12.197 7.9082 12.848 2.8184 1.5478-12.093 1.3728-6.5348 2.5791-0.17221 0.91393 4.8204 9.9648-1.6616 11.979-3.6149 0.67118-0.65087 1.3862-2.2548 1.5938-3.5625 0.61216-3.8575-0.7347-19.274-2.3438-26.688-0.81998-3.7777-1.6598-7.7288-1.8438-8.7812l-0.34375-1.9062-8.25-36.125c11.566-6.2937 34.175-18.457 32.594-36-6.986-39.574-47.945-54.267-84.094-51.531zm37.906 6.75c24.678 10.21 40.473 26.734 41.688 43.687-3e-3 15.403-15.58 28.657-30.406 34.344-7.8293 1.8346-12.166 1.6575-25.688 6.375-2.4987 0.32374-3.3307 0.67334-3.875 1.6562-1.8728 3.3819-1.5423 21.669 0.75 40.375 0.58148 8.1272 1.8291 15.402 0.37901 22-5.5407 1.3837-18.084 1.0695-20.035-0.6875-0.85518-0.76991-0.80028-1.2176 0.4375-4.9688 0.74418-2.2552 1.9752-6.4691 2.75-9.375 4.2892-12.531 5.0198-25.062 6.4062-37.594-0.0372-4.4884-0.31909-7.0152-1.0625-8.9688-1.1328-2.9769-1.1813-3.008-8.3438-4.9062-8.0184-2.125-18.428-8.4997-24.156-14.812-1.8491-2.0378-3.5901-3.7188-3.8438-3.7188-0.81812 0-0.48162 1.0822 1.0312 3.4062l1.4688 2.2812-0.5 12.344c-0.68025 16.456 0.15538 34.086 1.9688 41.312l0.78125 3.0625-1.875 1.0312c-2.7105 1.484-7.2665 2.2392-11.969 2-6.1768-0.31422-6.1441-0.27419-4.1562-8.0938 0.92321-3.6315 2.2798-9.7505 3-13.594l1.2812-7 1.8438-30.031c-0.22072-6.4616-0.6363-17.087-0.9375-23.625-1.989-44.661 36.317-59.823 73.062-46.5zm-58.656 74.5c0.43112 0 1.0612 0.44082 1.375 0.96875 0.61158 1.0288-0.41618 3.5268-0.5625 21.188-0.3259 39.336-1.94 25.763-2.375-2.875-0.21425-14.105 0.34524-19.281 1.5625-19.281zm69.729 7.297 0.99016 3.6405 6.8438 35.281c3.3801 16.686 5.6532 17.29 3.5625 22.406-0.14883 1.1548-0.70769 1.5436-3.4062 2.375-4.5556 1.4036-15.292 1.8306-16.375 0.65625-0.65075-0.70592-0.52836-2.4502 0.75-10.781 0.84058-5.4781 1.5312-11.092 1.5312-12.469 0.80102-8.5132-2.2352-29.564-4.3209-38.124 2.911-1.217 7.0692-3.1226 10.424-2.9857zm-57.854 41.609s-7.472 0.80181-8.8438 0.4375c-1.2531-0.3328-1.225 0.78242-0.0937-12.875 1.5-9.269-0.99287-25.887 2.5624-33.438 0.0276-0.0279 0.066-0.026 0.125-0.0312v-5e-5c0.88496-0.078 5.057 2.26 5.3438 3.0625 0.1085 0.30364 0.0551 2.2158-0.125 4.25 1.0917 12.859 4.6738 37.707 1.0312 38.594z" stroke="#000"/>
   <path d="m237.53142,270.7829 1,3.625 6.84375,35.2812c.84502,4.1716 1.59424,7.3295 2.25,9.8125s1.19778,4.2807 1.5625,5.7188 .55933,2.5257.53125,3.5625-.25858,2.0333-.78125,3.3125c-.0744.5774-.25436.967-.75,1.3125s-1.30697.6467-2.65625,1.0625c-1.13891.3508-2.67962.6559-4.34375.875s-3.46176.3385-5.15625.4062-3.27001.072-4.5-.031-2.10436-.3002-2.375-.5938c-.32538-.353-.48405-.9656-.375-2.5312s.48582-4.0845 1.125-8.25c.84058-5.4781 1.53125-11.092 1.53125-12.4688 .20025-2.1283.1421-5.0394-.0625-8.3437s-.57143-6.9892-1.03125-10.6875c-.91965-7.3968-2.20717-14.8138-3.25-19.0938 1.45552-.6085 3.23967-1.3886 5.0625-2 .91142-.3057 1.84285-.5716 2.75-.75s1.78618-.253 2.625-.2187z" fill="#fff" fill-rule="evenodd"/>
   <path d="m246.31 320.49c-0.0382-0.26425-0.0966-0.54298-0.17036-0.82321-2.36-8.9675-1.3434-2.601-1.9327-8.702-16.694-8.8836-10.921 8.467-10.81 13.4-1.2003 4.8573 14.101 4.3173 12.913-3.8743z" stroke="#000" stroke-width=".41852"/>
   <path d="m173.49001,266.20204c-.059.01-.0974,0-.125.031-.44442.9439-.81873,2.0236-1.09375,3.2188s-.48015,2.4927-.625,3.875c-.2897,2.7645-.3394,5.8403-.34375,8.9687s.064,6.3332.0312,9.3125-.15625,5.7453-.53125,8.0625c-.56566,6.8287-.8832,9.9675-.875,11.4375 .004.735.0941,1.0631.25,1.2188s.40547.1355.71875.2187c.68587.1822 2.86678.061 4.90625-.094 2.03947-.1549 3.9375-.3437 3.9375-.3437 .45532-.1109.78273-.5856 1.03125-1.375s.38907-1.8912.46875-3.2188c.15935-2.6551.0383-6.2536-.25-10.2187-.57666-7.9303-1.73539-17.3519-2.28125-23.7813 .1801-2.0342.2335-3.9464.125-4.25-.14336-.4012-1.27927-1.1999-2.46875-1.875s-2.43252-1.2265-2.875-1.1875z" fill="#fff" fill-rule="evenodd"/>
   <path d="m199.64 183.92c-2.1819 0.0614-4.3354 0.21379-6.4375 0.5s-4.1544 0.70728-6.1562 1.2188-3.9313 1.1378-5.8125 1.875-3.6974 1.5678-5.4375 2.5312-3.4214 2.0598-5 3.25-3.0721 2.4888-4.4688 3.9062-2.6808 2.9486-3.875 4.5938-2.2786 3.4078-3.25 5.2812-1.8344 3.8354-2.5625 5.9375-1.3481 4.3249-1.8125 6.6562-0.78848 4.7827-0.96875 7.3438-0.18681 5.24-0.0625 8.0312c0.3012 6.5384 0.71678 17.163 0.9375 23.625l-1.8438 30.031-1.2812 7c-0.72023 3.8433-2.0768 9.9622-3 13.594-0.49697 1.9549-0.87641 3.4305-1.0625 4.5312s-0.19523 1.8404 0.0625 2.3438 0.75926 0.74364 1.5938 0.90625 2.0183 0.23394 3.5625 0.3125c2.3511 0.1196 4.6532 6.5e-4 6.7188-0.34375s3.8948-0.91425 5.25-1.6562l1.875-1.0312-0.78125-3.0625c-0.45334-1.8067-0.86478-4.2613-1.1875-7.1875s-0.57473-6.3161-0.75-10-0.27024-7.6702-0.28125-11.75 0.0799-8.261 0.25-12.375l0.5-12.344-1.4688-2.2812c-0.75644-1.162-1.2353-2.0014-1.4062-2.5625-0.0855-0.28053-0.0911-0.48723-0.0312-0.625s0.20172-0.21875 0.40625-0.21875c0.25366 0 1.9946 1.681 3.8438 3.7188 1.4321 1.5782 3.1558 3.1689 5.0625 4.6875s3.9959 2.957 6.1562 4.2812 4.3695 2.5362 6.5625 3.5312 4.3704 1.7812 6.375 2.3125c3.5812 0.9491 5.3572 1.4453 6.4062 2.0625 0.52451 0.30859 0.88049 0.64254 1.1562 1.0938s0.49804 1.0058 0.78125 1.75c0.37171 0.97677 0.6132 2.0943 0.78125 3.5312s0.26265 3.1933 0.28125 5.4375c-0.69324 6.2656-1.2329 12.516-2.125 18.781-0.44605 3.1328-0.99418 6.2734-1.6875 9.4062s-1.5215 6.2734-2.5938 9.4062c-0.77475 2.9059-2.0058 7.1198-2.75 9.375-0.61889 1.8756-0.9697 2.9167-1.0312 3.5938s0.16616 0.99005 0.59375 1.375c0.48791 0.43926 1.6193 0.77633 3.1562 1.0312s3.4639 0.43739 5.5 0.5 4.1707 0.0127 6.1562-0.125 3.8336-0.37282 5.2188-0.71875c0.36252-1.6496 0.54713-3.3569 0.625-5.0938s0.0392-3.5141-0.0625-5.3438c-0.20333-3.6593-0.64676-7.4989-0.9375-11.562-0.57308-4.6765-1.0509-9.321-1.375-13.719s-0.49497-8.5524-0.5625-12.219-9e-3 -6.8615 0.1875-9.3438 0.5318-4.2483 1-5.0938c0.27215-0.49145 0.59913-0.81177 1.1875-1.0625s1.4382-0.43188 2.6875-0.59375c3.3804-1.1794 6.1634-2.0433 8.5938-2.7188s4.4985-1.1751 6.375-1.5625c3.753-0.77474 6.8041-1.1764 10.719-2.0938 1.8533-0.71082 3.7176-1.532 5.5625-2.4688s3.6648-1.9835 5.4375-3.125 3.4883-2.3937 5.125-3.7188 3.188-2.7313 4.625-4.2188 2.764-3.0588 3.9375-4.6875 2.185-3.3138 3.0312-5.0625 1.5136-3.5586 1.9688-5.4062 0.71837-3.7309 0.71875-5.6562c-0.15181-2.1192-0.55992-4.2182-1.1562-6.3125s-1.3877-4.1724-2.4062-6.2188-2.2377-4.087-3.6562-6.0625-3.0474-3.8996-4.8438-5.7812-3.7857-3.704-5.9375-5.4688-4.4524-3.4689-6.9375-5.0938-5.1415-3.163-7.9375-4.625-5.7278-2.8488-8.8125-4.125c-2.2966-0.83268-4.6077-1.5464-6.9062-2.1562s-4.5949-1.1134-6.875-1.5-4.54-0.64967-6.7812-0.8125-4.4744-0.21769-6.6562-0.15625z" fill="#fff" fill-rule="evenodd"/>
   <path d="m159.3 208.93c-1.2701 3.3934-1.4367 4.6229-1.1875 8.4688 0.37745 5.8248 2.1762 9.5229 6.7188 13.812 6.795 6.4166 11.45 6.8756 16.719 1.625 2.9915-2.9811 3.6865-5.2666 3.6875-12-0.19988-7.7652-1.8198-16.06-9.1875-20.125-12.229-3.9069-14.236 0.47677-16.75 8.2188zm71.938-13.969c-0.71486 0.0353-1.477 0.11067-2.25 0.21875-24.737 3.4584-7.472 2.4083-23.844 2.5938s-1.5457 32.735 5 34.031 12.822-12.148 25.5-8.625c12.282 3.4128 17.754-29.314-4.4062-28.219zm-1.0312 35c-4.9974-0.15478-10.739 2.1592-16.875 8.2812-1.8439 1.8396-3.4921 3.4787-4.9688 4.9688-11.999 10.655 7.7529 31.871 23.25 19.594 1.8597-0.3992 3.9718-0.6369 6.4062-0.625 18.259 0.0895 10.035-31.666-7.8125-32.219zm-44.312 11.531c-2.1026 0.0504-4.2597 0.9011-6.1562 2.4688-1.6283 1.3459-4.1875 6.197-4.1875 7.9375 0 2.0703 2.3548 4.5679 5.5938 5.9375 0.96833 0.40945 3.0093 0.7386 4.5312 0.75 5.3741 0.0402 8.6772-4.5193 7.8125-10.75-0.48276-3.4786-2.0968-5.3-5.5-6.125-0.67786-0.16433-1.3929-0.23555-2.0938-0.21875z" stroke="#000"/>
   <path d="m159.73 274.77c-1.3645 0.0366-2.7644 0.65441-3.9952 1.7929-1.0567 0.97746-2.7175 4.5006-2.7175 5.7646 0 1.5036 1.5282 3.3174 3.6301 4.3121 0.62842 0.29736 1.9529 0.5364 2.9406 0.54468 3.4876 0.0292 5.6312-3.2821 5.07-7.8071-0.31329-2.5264-1.3608-3.8491-3.5693-4.4482-0.4399-0.11934-0.90393-0.17107-1.3588-0.15886z" stroke="#000" stroke-width=".68652"/>
  </g>
  <g transform="matrix(.4559 -.23864 .27227 .45152 217.61 205.33)" fill="#e6e6e6" fill-rule="evenodd" stroke="#000">
   <path d="m429.92 190.92h2.1502a1.3 1.3 0 0 1 1.3 1.3v3.4292a1.3 1.3 0 0 1 -1.3 1.3h-2.1502a1.3 1.3 0 0 1 -1.3 -1.3v-3.4292a1.3 1.3 0 0 1 1.3 -1.3"/>
   <path d="m429.92 196.95h2.1502a1.3 1.3 0 0 1 1.3 1.3v3.4292a1.3 1.3 0 0 1 -1.3 1.3h-2.1502a1.3 1.3 0 0 1 -1.3 -1.3v-3.4292a1.3 1.3 0 0 1 1.3 -1.3"/>
  </g>
  <g transform="matrix(.51391 -.02623 .05862 .52399 232.11 101.07)" fill="#e6e6e6" fill-rule="evenodd" stroke="#000">
   <path d="m429.92 190.92h2.1502a1.3 1.3 0 0 1 1.3 1.3v3.4292a1.3 1.3 0 0 1 -1.3 1.3h-2.1502a1.3 1.3 0 0 1 -1.3 -1.3v-3.4292a1.3 1.3 0 0 1 1.3 -1.3"/>
   <path d="m429.92 196.95h2.1502a1.3 1.3 0 0 1 1.3 1.3v3.4292a1.3 1.3 0 0 1 -1.3 1.3h-2.1502a1.3 1.3 0 0 1 -1.3 -1.3v-3.4292a1.3 1.3 0 0 1 1.3 -1.3"/>
  </g>
  <g transform="matrix(.5138 .02835 .00278 .52725 240.01 77.672)" fill="#e6e6e6" fill-rule="evenodd" stroke="#000">
   <path d="m429.92 190.92h2.1502a1.3 1.3 0 0 1 1.3 1.3v3.4292a1.3 1.3 0 0 1 -1.3 1.3h-2.1502a1.3 1.3 0 0 1 -1.3 -1.3v-3.4292a1.3 1.3 0 0 1 1.3 -1.3"/>
   <path d="m429.92 196.95h2.1502a1.3 1.3 0 0 1 1.3 1.3v3.4292a1.3 1.3 0 0 1 -1.3 1.3h-2.1502a1.3 1.3 0 0 1 -1.3 -1.3v-3.4292a1.3 1.3 0 0 1 1.3 -1.3"/>
  </g>
  <g transform="matrix(.50865 .07791 -.04822 .52505 246.34 57.148)" fill="#e6e6e6" fill-rule="evenodd" stroke="#000">
   <path d="m429.92 190.92h2.1502a1.3 1.3 0 0 1 1.3 1.3v3.4292a1.3 1.3 0 0 1 -1.3 1.3h-2.1502a1.3 1.3 0 0 1 -1.3 -1.3v-3.4292a1.3 1.3 0 0 1 1.3 -1.3"/>
   <path d="m429.92 196.95h2.1502a1.3 1.3 0 0 1 1.3 1.3v3.4292a1.3 1.3 0 0 1 -1.3 1.3h-2.1502a1.3 1.3 0 0 1 -1.3 -1.3v-3.4292a1.3 1.3 0 0 1 1.3 -1.3"/>
  </g>
  <g transform="matrix(.50156 .11502 -.08661 .5201 253.97 41.883)" fill="#e6e6e6" fill-rule="evenodd" stroke="#000">
   <path d="m429.92 190.92h2.1502a1.3 1.3 0 0 1 1.3 1.3v3.4292a1.3 1.3 0 0 1 -1.3 1.3h-2.1502a1.3 1.3 0 0 1 -1.3 -1.3v-3.4292a1.3 1.3 0 0 1 1.3 -1.3"/>
   <path d="m429.92 196.95h2.1502a1.3 1.3 0 0 1 1.3 1.3v3.4292a1.3 1.3 0 0 1 -1.3 1.3h-2.1502a1.3 1.3 0 0 1 -1.3 -1.3v-3.4292a1.3 1.3 0 0 1 1.3 -1.3"/>
  </g>
  <g transform="matrix(.51385 .02737 .00379 .52725 236.89 78.506)" fill="#e6e6e6" fill-rule="evenodd" stroke="#000">
   <path d="m429.92 190.92h2.1502a1.3 1.3 0 0 1 1.3 1.3v3.4292a1.3 1.3 0 0 1 -1.3 1.3h-2.1502a1.3 1.3 0 0 1 -1.3 -1.3v-3.4292a1.3 1.3 0 0 1 1.3 -1.3"/>
   <path d="m429.92 196.95h2.1502a1.3 1.3 0 0 1 1.3 1.3v3.4292a1.3 1.3 0 0 1 -1.3 1.3h-2.1502a1.3 1.3 0 0 1 -1.3 -1.3v-3.4292a1.3 1.3 0 0 1 1.3 -1.3"/>
  </g>
  <g transform="matrix(.49337 .14622 -.11904 .51365 260.89 29.49)" fill="#e6e6e6" fill-rule="evenodd" stroke="#000">
   <path d="m429.92 190.92h2.1502a1.3 1.3 0 0 1 1.3 1.3v3.4292a1.3 1.3 0 0 1 -1.3 1.3h-2.1502a1.3 1.3 0 0 1 -1.3 -1.3v-3.4292a1.3 1.3 0 0 1 1.3 -1.3"/>
   <path d="m429.92 196.95h2.1502a1.3 1.3 0 0 1 1.3 1.3v3.4292a1.3 1.3 0 0 1 -1.3 1.3h-2.1502a1.3 1.3 0 0 1 -1.3 -1.3v-3.4292a1.3 1.3 0 0 1 1.3 -1.3"/>
  </g>
  <g transform="matrix(.46913 .21144 -.18724 .49289 282.02 4.8727)" fill="#e6e6e6" fill-rule="evenodd" stroke="#000">
   <path d="m429.92 190.92h2.1502a1.3 1.3 0 0 1 1.3 1.3v3.4292a1.3 1.3 0 0 1 -1.3 1.3h-2.1502a1.3 1.3 0 0 1 -1.3 -1.3v-3.4292a1.3 1.3 0 0 1 1.3 -1.3"/>
   <path d="m429.92 196.95h2.1502a1.3 1.3 0 0 1 1.3 1.3v3.4292a1.3 1.3 0 0 1 -1.3 1.3h-2.1502a1.3 1.3 0 0 1 -1.3 -1.3v-3.4292a1.3 1.3 0 0 1 1.3 -1.3"/>
  </g>
  <g transform="matrix(.43645 .27258 -.25179 .46325 305.98 -16.566)" fill="#e6e6e6" fill-rule="evenodd" stroke="#000">
   <path d="m429.92 190.92h2.1502a1.3 1.3 0 0 1 1.3 1.3v3.4292a1.3 1.3 0 0 1 -1.3 1.3h-2.1502a1.3 1.3 0 0 1 -1.3 -1.3v-3.4292a1.3 1.3 0 0 1 1.3 -1.3"/>
   <path d="m429.92 196.95h2.1502a1.3 1.3 0 0 1 1.3 1.3v3.4292a1.3 1.3 0 0 1 -1.3 1.3h-2.1502a1.3 1.3 0 0 1 -1.3 -1.3v-3.4292a1.3 1.3 0 0 1 1.3 -1.3"/>
  </g>
  <g transform="matrix(.33797 .38803 -.37596 .36967 367.62 -50.338)" fill="#e6e6e6" fill-rule="evenodd" stroke="#000">
   <path d="m429.92 190.92h2.1502a1.3 1.3 0 0 1 1.3 1.3v3.4292a1.3 1.3 0 0 1 -1.3 1.3h-2.1502a1.3 1.3 0 0 1 -1.3 -1.3v-3.4292a1.3 1.3 0 0 1 1.3 -1.3"/>
   <path d="m429.92 196.95h2.1502a1.3 1.3 0 0 1 1.3 1.3v3.4292a1.3 1.3 0 0 1 -1.3 1.3h-2.1502a1.3 1.3 0 0 1 -1.3 -1.3v-3.4292a1.3 1.3 0 0 1 1.3 -1.3"/>
  </g>
  <g transform="matrix(.32375 .39998 -.38906 .35586 374.14 -54.477)" fill="#e6e6e6" fill-rule="evenodd" stroke="#000">
   <path d="m429.92 190.92h2.1502a1.3 1.3 0 0 1 1.3 1.3v3.4292a1.3 1.3 0 0 1 -1.3 1.3h-2.1502a1.3 1.3 0 0 1 -1.3 -1.3v-3.4292a1.3 1.3 0 0 1 1.3 -1.3"/>
   <path d="m429.92 196.95h2.1502a1.3 1.3 0 0 1 1.3 1.3v3.4292a1.3 1.3 0 0 1 -1.3 1.3h-2.1502a1.3 1.3 0 0 1 -1.3 -1.3v-3.4292a1.3 1.3 0 0 1 1.3 -1.3"/>
  </g>
  <g transform="matrix(.38353 .34307 -.32716 .41349 340.95 -38.183)" fill="#e6e6e6" fill-rule="evenodd" stroke="#000">
   <path d="m429.92 190.92h2.1502a1.3 1.3 0 0 1 1.3 1.3v3.4292a1.3 1.3 0 0 1 -1.3 1.3h-2.1502a1.3 1.3 0 0 1 -1.3 -1.3v-3.4292a1.3 1.3 0 0 1 1.3 -1.3"/>
   <path d="m429.92 196.95h2.1502a1.3 1.3 0 0 1 1.3 1.3v3.4292a1.3 1.3 0 0 1 -1.3 1.3h-2.1502a1.3 1.3 0 0 1 -1.3 -1.3v-3.4292a1.3 1.3 0 0 1 1.3 -1.3"/>
  </g>
  <g transform="matrix(.29405 .42229 -.41372 .32687 390.12 -60.749)" fill="#e6e6e6" fill-rule="evenodd" stroke="#000">
   <path d="m429.92 190.92h2.1502a1.3 1.3 0 0 1 1.3 1.3v3.4292a1.3 1.3 0 0 1 -1.3 1.3h-2.1502a1.3 1.3 0 0 1 -1.3 -1.3v-3.4292a1.3 1.3 0 0 1 1.3 -1.3"/>
   <path d="m429.92 196.95h2.1502a1.3 1.3 0 0 1 1.3 1.3v3.4292a1.3 1.3 0 0 1 -1.3 1.3h-2.1502a1.3 1.3 0 0 1 -1.3 -1.3v-3.4292a1.3 1.3 0 0 1 1.3 -1.3"/>
  </g>
  <g transform="matrix(.99943 -.03384 .03384 .99943 24.327 39.972)" fill-rule="evenodd">
   <path d="m402.52 162.82c0.12438 0.64252 0.32531 1.2576 0.625 1.8438s0.66892 1.1285 1.125 1.6562c0.91216 1.0555 2.1382 2.0029 3.5625 2.8125s3.0587 1.4838 4.8438 2.0312 3.7241 0.98102 5.7188 1.25 4.0409 0.36954 6.0938 0.34375 4.1027-0.19439 6.0625-0.53125 3.847-0.83577 5.5625-1.5 3.2739-1.4921 4.5938-2.5c-0.82641 0.94619-1.7595 1.8396-2.75 2.6875s-2.0614 1.6429-3.1875 2.375-2.298 1.4012-3.5312 2-2.5317 1.1457-3.8438 1.5938-2.6376 0.81389-4 1.0938-2.7406 0.46834-4.125 0.5625-2.7784 0.0778-4.1562-0.0312-2.7508-0.32657-4.0938-0.65625c-2.045-0.50202-3.8996-1.24-5.4688-2.1875-0.78458-0.47373-1.5025-0.99305-2.125-1.5625s-1.1622-1.189-1.5938-1.8438-0.7568-1.3328-0.96875-2.0625-0.31771-1.5184-0.28125-2.3125 0.21763-1.5893 0.53125-2.4375 0.7867-1.7332 1.4062-2.625z" fill="#fff"/>
   <path d="m403.86 157.48c-2.7162-0.8086-6.6973 8.0705-5.8546 12.433 1.5332 7.9365 12.991 12.409 25.587 9.9753 11.092-2.1428 25.934-12.032 19.215-14.655-1.5631-0.72512-7.583 3.9627-13.254 5.0582-8.3411 1.6011-17.558-1.6147-22.744-5.6648-3.177-2.481-1.7555-7.3424-2.9492-7.1466zm-1.3546 5.3403c1.9901 10.28 27.63 13.476 38.188 5.4123-6.6113 7.5695-18.927 12.273-29.671 9.6353-8.1802-2.0081-13.474-7.913-8.5173-15.048h-4e-5z"/>
  </g>
  <g transform="translate(356.15 82.666)">
   <path d="m143.05364,5.42675c-.28931,0-2.01981-.81226-3.84375-1.8125-2.25985-1.2393-4.6023-2.21109-7.3125-2.96875s-5.80742-1.31651-9.53125-1.75c-1.91519-.22295-3.51298-.46939-4.6875-.71875s-1.9149-.50375-2.0625-.71875c-.27803-.40501-.15295-1.4346.3125-2.4375 .34703-.74775.53412-1.18819.53125-1.4375s-.17561-.3125-.53125-.3125c-.45646,0-1.7351.71085-2.8125,1.5625-1.0626.83995-1.81803,1.22892-2.375,1.15625-.27848-.0363-.51489-.20158-.6875-.46875s-.29458-.65645-.375-1.15625c-.078-.48501-.23477-.84202-.40625-1.09375s-.37288-.39304-.5625-.40625-.36754.11319-.5.34375-.21875.58293-.21875,1.0625c0,.59563-.0587,1.03363-.1875,1.34375s-.30738.47265-.59375.5c-.57273.0547-1.49958-.44008-2.875-1.5-1.42422-1.09752-2.25914-1.54986-2.53125-1.34375s.0121,1.07104.875,2.59375c.51817.91441.87206,1.62697 1.03125,2.21875s.14278,1.04552-.125,1.40625-.76851.65373-1.53125.875-1.79931.3891-3.125.5625c-1.65968.21707-3.30961.57349-4.96875,1.09375-12.22745,3.57566-21.33893,11.40819-23.78125,21.9375 .27457.50858.42826,1.25844.5,2.40625s.084,2.70217.0937,4.75c.0165,3.46308.0498,5.36729.3125,7s.73555,2.98225 1.65625,5.34375c.59359,1.5225 1.1556,3.30054 1.625,5.125-.48492,4.81365.20255,11.70851 3.32239,10.69027 1.86113-.60743 5.92288-8.30289 7.42761-9.12777 1.61912-.86419 3.46412-1.7216 5.34375-2.46875s3.77868-1.37469 5.5-1.78125c3.30611-.78087 7.15348-1.31224 11.21875-1.5625s8.35659-.24259 12.53125,0 8.24074.73982 11.875,1.4375c1.81713.34884 3.53355.73197 5.09375,1.1875s2.96546.97374 4.1875,1.53125c1.67693.76504 3.1435,1.31463 3.25,1.21875 5.2729-6.921 5.04858-13.67618 7.06458-21.12362 .48407-2.34149-.21131-5.12304-.0333-6.84513-.048-9.52624-3.18151-11.22317-8.0937-16.3125z" fill="#fff" fill-rule="evenodd"/>
   <path d="m89.489 49.869c2.104-0.89069 4.2664-1.586 6.5938-2.1155s4.8151-0.8778 7.625-1.1051 5.9172-0.33166 9.4688-0.31574c3.9975 0.0179 7.5448 0.16118 10.688 0.41047s5.8869 0.62052 8.3438 1.1367 4.6223 1.1706 6.5625 1.9892 3.6573 1.78 5.25 2.9365c1.4822 1.0763 2.4827 1.9081 3.4062 3.0312s1.7639 2.5384 3 4.7678c1.3989 2.523 2.1534 3.9139 2.5625 5.273s0.48382 2.6886 0.59375 5.1783c0.0908 2.0564 0.0909 3.5821-0.0625 4.9888s-0.4752 2.6893-0.96875 4.3258c-0.75753 2.5117-1.6401 4.7878-2.75 6.8517s-2.4472 3.9356-4 5.6519-3.3199 3.2674-5.4062 4.7362-4.477 2.8465-7.1875 4.1679c-1.6572 0.8079-3.1958 1.479-4.6875 2.0524s-2.947 1.0636-4.4688 1.4524c-3.0436 0.77775-6.319 1.2393-10.656 1.5787-3.9361 0.19101-8.1365 0.30922-12.312 0.15787-2.088-0.0757-4.1578-0.22415-6.2188-0.47362s-4.0866-0.5915-6.0625-1.0735-3.9172-1.0895-5.75-1.8629-3.5559-1.7181-5.1875-2.8417-3.1588-2.4458-4.5312-3.9784-2.601-3.2726-3.6562-5.273c-0.90127-1.7593-1.5315-3.236-1.875-4.5468-2.7685-9.1712-1.2369-2.5679-1.25-7.9568-0.23356-0.21247 0.1072-1.9028 0.6875-3.8521s1.3981-4.1431 2.0312-5.273c0.69409-1.2386 2.4991-4.0985 4.0312-6.3465l2.7812-4.0731c3.2211-3.8341 4.1465-4.8558 13.406-9.5988z" fill="#faa" fill-rule="evenodd"/>
   <path d="m66.336 69.564c3.5539-4.7671 6.7663-7.6092 7.2762-11.527-11.706-36.125-8.3985-47.536 23.836-59.816 1.1297-0.17534 2.2676-0.49414 2.5287-0.70843s-0.47029-1.9373-1.6252-3.8288c-3.0813-5.0468-1.5978-6.6823 3.498-3.8566 1.2911 0.71592 2.6462 1.3091 3.0114 1.3182s0.96316-1.0534 1.3289-2.3611c0.50536-1.8069 0.94146-2.3776 1.8168-2.3776 1.2791 0 2.6514 1.6141 3.2567 3.8306 0.38595 1.4132 1.626 1.9408 2.2896 0.97408 0.49651-0.72327 5.5416-2.1531 6.4679-1.833 1.345 0.46465 1.5457 1.7801 0.55776 3.6545-0.51441 0.97596-0.78295 1.9964-0.59675 2.2676s1.8606 0.66346 3.7208 0.87161c4.0958 0.45828 11.759 2.5776 15.54 4.2976 5.9358 3.0642 13.702 8.6761 14.944 21.865-0.19872 2.5751-1.3798 8.0974-2.7686 12.945-1.4737 5.1437-2.4538 9.7983-2.5031 11.888-0.0762 3.2265 0.11906 3.77 3.2264 8.982 5.9017 9.8991 7.0852 16.349 4.6053 25.097-3.1689 11.178-10.07 18.503-22.379 23.753-7.7471 3.3045-12.253 4.0724-25.691 4.3778-12.216-0.36954-24.437-0.65874-36.13-9.3802-9.3049-9.6613-9.9328-19.793-6.2123-30.433zm47.151 36.754c8.6745-0.67193 13.197-1.8158 19.826-5.0141 10.842-5.2312 16.328-11.233 19.358-21.176 0.9871-3.2393 1.198-5.1534 1.0164-9.2239-0.21986-4.9282-0.34738-5.3474-3.1452-10.341-2.4723-4.413-3.4481-5.5874-6.4124-7.7178-6.3706-4.5784-14.845-6.3406-30.836-6.4116-14.206-0.063-21.442 1.5664-30.001 6.7558-2.0393 1.2364-3.2373 1.6866-3.3901 1.2739-0.63338-1.7107 9.1936-6.9558 16.079-8.582 13.224-3.1235 35.121-1.851 44.898 2.609 1.6769 0.76504 3.1361 1.3125 3.2426 1.2166s-0.0697-1.2861-0.39166-2.6449-0.48792-3.2579-0.36893-4.2201l0.21636-1.7495 0.95338 1.8492c0.62423 1.2108 1.0438 1.5756 1.2154 1.0567 5.5705-17.175 10.354-29.053-6.5414-40.388-4.5197-2.4786-9.3768-3.8364-16.824-4.7034-3.8304-0.4459-6.4657-1.0054-6.7609-1.4354-0.27803-0.40501-0.13935-1.4468 0.3261-2.4497 0.69406-1.4955 0.69119-1.745-0.0201-1.745-0.45646 0-1.7114 0.6968-2.7888 1.5484-2.1252 1.6799-3.1296 1.5488-3.4513-0.45036-0.31218-1.94-1.6731-2.0349-1.6731-0.11659 0 2.3825-0.91551 2.47-3.6664 0.35012-2.8484-2.195-3.3755-1.7958-1.6498 1.2496 2.0727 3.6576 1.5454 4.3678-3.7573 5.0614-13.475 2.9034-24.829 10.274-27.904 21.491-0.80592 2.9393-0.07823 5.1352-0.2687 8.6941 0.0329 6.9262 0.14654 7.6324 1.9879 12.355 1.1872 3.045 2.2449 7.1563 2.6974 10.484l0.7444 5.475-2.7857 4.0453c-1.5322 2.2249-3.3536 5.0483-4.0477 6.2742-1.2663 2.2365-3.1879 8.6252-2.7208 9.0457-0.13463 6.073 1.4069 8.2745 3.1382 12.36 8.4423 15.839 27.963 15.931 43.707 15.175zm-14.977-37.236c-0.9482-1.8736 0.0217-4.9134 1.9866-6.2261 1.4969-1.0001 1.6595-1.0091 3.0811-0.17053 1.8694 1.1028 2.0048 3.5444 0.33346 6.0124-1.5156 2.2379-4.3606 2.4403-5.4011 0.3843zm35.469-0.3843c-1.3529-1.5224-1.3922-3.0936-0.13595-5.43 0.97482-1.8129 1.5948-2.3632 2.6627-2.3632 2.2052 0 3.9387 2.0301 3.5611 4.1705-0.57087 3.236-4.4043 5.5171-6.0878 3.6227zm-36.53-36.853c-1.4789-1.3314-1.6357-6.0396-0.26016-7.8077 2.849-3.6619 6.3868 1.7072 4.3315 6.5738-1.0392 2.4608-2.2882 2.8393-4.0714 1.2339zm23.751-2.4748c-2.1942-3.0149-1.6269-8.0923 0.90419-8.0923 1.5322 0 2.8413 1.9298 3.2847 4.8424 0.64213 4.2177-1.9953 6.2639-4.1889 3.2499z"/>
  </g>
  <g transform="translate(-3.6502 2.1901)" stroke="#000" stroke-width="3">
   <path d="m424.88 59.658c5.1892-0.93352 2.6547 10.834 11.462 17.348 8.3405 6.169 18.801 6.2075 13.836 11.327-6.6204 6.8259-20.001-1.8992-23.647-9.3961-2.7647-6.195-4.0094-18.597-1.6506-19.279z" fill="#ffdcac"/>
   <path d="m441.17 89.032c3.5407-1.6394 3.9447-2.9901 4.479-5.5256" fill="none" filter="url(#a)" opacity=".81761" stroke-linecap="round"/>
   <path d="m435.49 86.88c3.5407-1.6394 3.9447-2.9901 4.479-5.5256" fill="none" filter="url(#a)" opacity=".81761" stroke-linecap="round"/>
   <path transform="matrix(.9835 .1809 -.1809 .9835 33.261 -54.942)" d="m415.72 63.51c3.5407-1.6394 3.9447-2.9901 4.479-5.5256" fill="none" filter="url(#a)" opacity=".81761" stroke-linecap="round"/>
   <path transform="matrix(.9835 .1809 -.1809 .9835 29.042 -60.109)" d="m415.72 63.51c3.5407-1.6394 3.9447-2.9901 4.479-5.5256" fill="none" filter="url(#a)" opacity=".81761" stroke-linecap="round"/>
   <path transform="matrix(.9835 .1809 -.1809 .9835 26.459 -66.653)" d="m416.75 62.445c0.9309-1.0718 2.7211-2.5024 2.6578-3.527" fill="none" filter="url(#a)" opacity=".81761" stroke-linecap="round"/>
  </g>
  <g transform="matrix(-1 0 0 1 932.77 .73005)" stroke="#000" stroke-width="3">
   <path d="m424.88 59.658c5.1892-0.93352 2.6547 10.834 11.462 17.348 8.3405 6.169 18.801 6.2075 13.836 11.327-6.6204 6.8259-20.001-1.8992-23.647-9.3961-2.7647-6.195-4.0094-18.597-1.6506-19.279z" fill="#ffdcac"/>
   <path d="m441.17 89.032c3.5407-1.6394 3.9447-2.9901 4.479-5.5256" fill="none" filter="url(#a)" opacity=".81761" stroke-linecap="round"/>
   <path d="m435.49 86.88c3.5407-1.6394 3.9447-2.9901 4.479-5.5256" fill="none" filter="url(#a)" opacity=".81761" stroke-linecap="round"/>
   <path transform="matrix(.9835 .1809 -.1809 .9835 33.261 -54.942)" d="m415.72 63.51c3.5407-1.6394 3.9447-2.9901 4.479-5.5256" fill="none" filter="url(#a)" opacity=".81761" stroke-linecap="round"/>
   <path transform="matrix(.9835 .1809 -.1809 .9835 29.042 -60.109)" d="m415.72 63.51c3.5407-1.6394 3.9447-2.9901 4.479-5.5256" fill="none" filter="url(#a)" opacity=".81761" stroke-linecap="round"/>
   <path transform="matrix(.9835 .1809 -.1809 .9835 26.459 -66.653)" d="m416.75 62.445c0.9309-1.0718 2.7211-2.5024 2.6578-3.527" fill="none" filter="url(#a)" opacity=".81761" stroke-linecap="round"/>
  </g>
  <g transform="translate(279.08 122.63)">
   <path d="m248.8-40.029c-2.5975-0.0013-5.2682 0.34358-7.9644 1.0577s-5.4071 0.56676-8.0653 1.9269-5.2797 3.027-7.7628 4.9631-5.3353 3.8039-7.5066 6.2459c-1.3721 1.5432-3.0914 3.1514-3.4025 3.1514-5.1968 3.6055-7.5115 13.338 9.8337 12.611 0.26801-0.34917 0.68723-0.60781 1.2434-0.81363s1.2514-0.35405 2.1507-0.48817c2.2697-0.33851 5.9991-1.5084 9.88-3.0104s7.9257-3.3287 10.754-4.9631c3.2199-1.8609 5.7947-3.5957 7.8636-5.2886s3.611-3.3484 4.7383-5.0445c0.59714-0.89838 1.066-1.7552 1.3778-2.5629s0.47142-1.5673 0.50408-2.2782-0.0622-1.3448-0.30244-1.9527-0.60207 0.03637-1.109-0.46238-1.1481-0.95894-1.9155-1.3425-1.6668-0.71415-2.6884-0.97635c-2.0432-0.52439-4.6057-0.77069-7.6284-0.77294h5e-5z" fill="#fff" fill-rule="evenodd"/>
   <path d="m245.14-31.072c1.7801-0.0458 3.2498 0.18024 3.375 0.5 0.12151 0.31045-0.38315 1.3778-1.125 2.375-0.39148 0.52625-1.0832 1.1045-2 1.7188s-2.0701 1.2547-3.3438 1.875c-2.5473 1.2406-5.6295 2.415-8.5938 3.1875-2.8825 0.75116-5.0824 1.2262-6.5625 1.375-0.74007 0.0744-1.3126 0.0464-1.6875-0.0312s-0.5625-0.20681-0.5625-0.4375c0-0.33386 0.33635-0.83249 0.9375-1.4062s1.4769-1.224 2.5312-1.9375c2.1087-1.4271 4.9662-3.0521 8-4.4375 2.3532-1.0746 3.9868-1.7399 5.3438-2.1562s2.4328-0.5927 3.6875-0.625z" fill="#faa" fill-rule="evenodd"/>
   <path d="m226.6-13.607c4.2213-0.52006 15.5-4.7157 20.759-7.2267 5.9884-2.859 9.6418-5.3283 11.738-7.934 4.4423-5.5209 0.3006-8.8871-10.943-8.894-9.6619-6e-3 -20.568 4.6038-28.644 12.107-1.2759 1.1854-2.5566 2.1553-2.8459 2.1553-3.4338-0.87898 0.29047-3.7102 2.5564-5.5876 10.329-9.648 26.043-13.992 37.841-10.461 3.313 0.99165 4.7328 1.953 5.9093 4.0012 2.0254 3.5262-0.0256 8.3036-5.1724 12.048-5.5055 4.005-22.615 10.967-29.821 12.179-2.3312 1.3569-3.9948-1.4478-1.378-2.3868zm-3.4492-4.5509c-3.4086-1.7874 2.9468-7.8419 12.763-12.158 7.3578-3.2354 12.174-3.9788 13.995-2.1601 1.4421 1.4401 0.8574 3.8006-1.5538 6.273-3.2556 3.3382-9.564 6.1631-17.428 7.8042-4.4458 0.92779-6.3536 0.98693-7.776 0.24102zm10.124-3.1729c5.9285-1.545 12.371-4.6824 13.937-6.7874 0.74185-0.99722 1.2494-2.0671 1.1279-2.3776-0.12515-0.31976-1.5832-0.52938-3.3633-0.48355-2.5094 0.0646-4.3293 0.62296-9.0356 2.7721-6.0676 2.7708-11.469 6.4259-11.469 7.7614 0 0.92275 3.0381 0.61731 8.803-0.88501z"/>
  </g>
  <g transform="translate(352.25 91.38)">
   <path d="m81.045 7.1934c-0.33394 0-3.2412-1.8269-6.4619-4.0527-3.4827-2.4069-7.0672-4.5402-10.509-6.2817s-6.746-3.1048-9.6928-3.9514c-1.7293-0.49679-3.4891-0.83879-5.1564-1.047s-3.2361-0.27434-4.6669-0.20264-2.7009 0.26508-3.7205 0.60791-1.7855 0.84703-2.2192 1.4522c-0.40433 0.56415-0.53193 1.5556-0.39163 2.7356s0.5186 2.5357 1.1422 3.8163c0.41361 0.84932 1.1669 1.8756 2.1213 2.972s2.1359 2.2762 3.3615 3.3772 2.4935 2.1423 3.7205 3.0058 2.4028 1.5414 3.3615 1.925c2.3892 0.95598 6.7843 2.3038 10.868 3.411s7.8523 1.9787 9.0401 1.9926c1.1515 0.01351 2.0305-0.0055 2.6761 0.13509-1.5689 0.30814 16.494 3.8315 6.5272-9.8954z" fill="#fff" fill-rule="evenodd"/>
   <path d="m54.48157.80787c1.26798-.0242 3.02312.25616 4.9375.8125 1.65971.48233 3.59669,1.23617 5.53125,2.125s3.86898,1.91338 5.5625,2.90625 3.12592,1.95554 4.0625,2.75c.46829.39723.81767.74034 1,1.03125s.19937.54071.0312.6875c-.47108.41132-1.1867.66619-1.9375.78125s-1.52242.0858-2.15625-.15625c-.64556-.24647-3.68425-1.12149-6.75-1.9375-2.55367-.67971-4.0376-1.10989-5.25-1.71875s-2.17224-1.40186-3.71875-2.78125c-1.85662-1.656-3.375-3.25779-3.375-3.5625s.20666-.53252.5625-.6875 .86601-.23792 1.5-.25z" fill="#e9afaf" fill-rule="evenodd"/>
   <path d="m73.721 18.762-4.387-0.65901c-10.681-1.6045-20.844-5.6205-25.745-10.173-4.0417-3.7547-5.9194-6.6831-6.3345-9.8792-0.27141-2.0899-0.10785-2.82 0.88487-3.9498 1.7726-2.0173 4.7708-3.105 8.5585-3.105 8.0843 0 16.759 3.212 26.915 9.9661 0.42626 0.42186 11.147 5.5295 6.855 6.4129-0.31976 0-3.1046-1.6851-6.1886-3.7447-6.6696-4.4542-13.695-7.8893-19.338-9.456-6.6235-1.8387-13.442-1.5085-15.103 0.73142-0.77432 1.044-0.44697 3.7046 0.74738 6.0745 1.5842 3.1435 8.3442 9.0124 12.016 10.432 4.5756 1.7692 16.791 4.9698 19.065 4.9956 4.6691 0.30665 5.503 1.0735 2.054 2.3544zm-9.4015-7.0559c-7.2002-2.4915-11.65-5.1915-13.859-8.4092-1.3632-1.9857-1.0457-3.6227 0.8051-4.1515 2.2331-0.6381 6.7214-0.27086 9.9308 0.81255 7.2299 2.4406 16.339 8.3404 16.339 10.582 0 2.9171-6.4986 3.4903-13.216 1.1659zm11.162-0.73582c1.345-1.1744-9.5562-7.5655-16.195-9.4948-3.8288-1.1127-6.9863-1.0525-6.9863 0.13308 0 0.30471 1.5191 1.9089 3.3757 3.5649 3.093 2.7588 3.8424 3.1351 8.9498 4.4946 3.0658 0.81601 6.1023 1.6853 6.7478 1.9318 1.2677 0.48399 3.1659 0.19309 4.1081-0.62955z"/>
  </g>
 </g>
</svg>
