<?xml version="1.0" encoding="UTF-8"?>
<svg width="601.88" height="171.73" fill-rule="evenodd" image-rendering="optimizeQuality" shape-rendering="geometricPrecision" text-rendering="geometricPrecision" viewBox="0 0 16172 4614" xmlns="http://www.w3.org/2000/svg">
 <path d="m10064 2601-981 19-905 57-823 83-715 126-602 140-443 164-284 177-95 203 95 190 284 183 443 165 602 145 715 108 823 95 905 57 981 25 968-25 918-57 817-95 728-108 588-145 456-165 285-183 101-190-101-203-285-177-456-164-588-140-728-126-817-83-918-57z" fill="#d4d4d4"/>
 <path d="m9684 2696-886 13-823 51-753 82-652 114-544 127-405 151-260 159-82 183 82 171 260 165 405 152 544 133 652 107 753 82 823 57 886 19 886-19 830-57 753-82 658-107 538-133 405-152 260-165 95-171-95-183-260-159-405-151-538-127-658-114-753-82-830-51z" fill="#ccc"/>
 <path d="m9317 2798-804 12-747 45-683 76-583 101-487 114-367 139-234 146-76 164 76 152 234 152 367 133 487 120 583 95 683 76 747 44 804 19 791-19 747-44 671-76 589-95 481-120 373-133 235-152 82-152-82-164-235-146-373-139-481-114-589-101-671-76-747-45z" fill="#c4c4c4"/>
 <path d="m8937 2893-715 12-664 38-602 64-519 94-437 102-322 120-203 133-70 152 70 133 203 133 322 120 437 108 519 82 602 69 664 38 715 19 703-19 665-38 601-69 525-82 424-108 329-120 209-133 76-133-76-152-209-133-329-120-424-102-525-94-601-64-665-38z" fill="#bfbfbf"/>
 <path d="m15413 1975 208-70 152-82 83-95 38-108-32-120-70-126-126-140-159-133-19-57 7-50 19-57 31-51 32-44 38-19h38l44 38 51 88 70 133 69 140 76 164 51 152 44 152 19 127v101l-50 69-76 95-108 89-101 95-114 70-89 50-70 19-18-12-102-19-101-32-95-51-63-50-26-70 32-70 108-69z" fill="#a6ed63"/>
 <path d="m15526 2032 197-70 145-88 89-102 38-114-19-133-63-126-114-139-152-140-45-69-19-70-6-70 13-50 25-44 44-7 64 19 88 82 64 76 69 102 64 107 69 133 51 133 38 139 6 140-13 145-44 76-82 108-114 114-120 114-127 88-101 76-70 26-25-13-95-19-89-32-76-57-44-57-13-76 51-76 114-69z" fill="#704a29"/>
 <path d="m15210 1652 133 266 95 278 38 273-7 272-63 259-107 260-171 240-209 241-114 82-133 95-184 89-215 95-291 76-348 82-443 63-526 63-696 38-886 38-1019 32-1082 32-1102 12-1057 19h-1753l-646-12-531-7-462-6-405-19-380-38-374-57-398-95-431-126-683-298-437-335-234-361-51-367 76-374 190-348 253-316 297-273 152-120 165-95 165-88 170-70 152-76 146-57 127-63 113-57 482-139 1069-197 1500-215 1785-183 1905-140 1893-25 1715 108 1405 291 298 114 253 152 215 164 184 184 146 171 126 177 101 152z" fill="#1fab00"/>
 <path d="m15242 1652 120 272 82 279 32 266-7 265-63 254-114 259-164 247-209 247-114 88-133 89-177 89-222 95-291 76-348 82-443 63-526 63-481 32-291 19-164 13-70 6h-76l-88 6-178 19-291 13-367 13-430 12-469 13-506 6-513 13-519 19-494 25-683 19-494-12-323-45-152-57-12-88 133-102 247-113 367-114 582-165 728-184 848-234 943-285 994-367 1038-455 1032-570 1019-684 253-158 221-51 190 26 165 95 133 133 114 158 88 164z" fill="#1fab00"/>
 <path d="m15261 1696 114 272 76 273 25 259-13 260-69 247-108 246-165 241-202 247-108 88-133 89-177 89-221 95-292 76-354 82-437 63-532 63-481 32-291 19-164 13-70 6-38-6-32 6h-82l-171 25-278 7-336 12-386 7-424 12h-462l-475 13-487 19-481 25-684 19-493-6-317-38-152-57-12-89 132-95 247-113 367-114 570-159 709-171 804-208 899-266 955-348 994-437 1013-551 1013-683 253-159 215-57 184 19 158 83 126 114 108 145 89 152z" fill="#0fa600"/>
 <path d="m15280 1734 107 272 70 273 19 253-19 253-70 241-107 240-159 234-202 241-108 88-133 89-177 89-221 95-292 76-354 82-437 63-532 63-481 32-291 19-164 13-64 6-31-6h-114l-171 19-266 12-304 13-348 6-373 13h-418l-430 13-456 12-475 26-684 19h-487l-323-38-145-57-13-83 133-95 253-113 367-114 564-152 677-159 772-189 855-241 905-323 955-411 982-538 1e3 -677 253-171 215-70 184 6 158 64 120 101 108 133 76 139z" fill="#03a300"/>
 <path d="m15299 1785 101 266 63 266 13 246-19 247-76 228-108 234-158 235-196 234-108 88-133 95-177 89-221 95-292 76-354 76-437 63-532 63-481 32-291 19-164 13-64 6-31-6h-114l-165 19-253 12-272 7-304 6-323 6-361 7-392 12-430 13-456 25-684 19h-493l-317-38-152-57-6-82 126-89 254-113 360-114 557-146 652-146 735-170 816-216 861-304 924-392 956-525 987-665 253-171 216-76 177-12 152 50 114 83 101 126 76 127z" fill="#009e00"/>
 <path d="m15318 1823 95 272 56 260 7 240-25 234-76 228-108 228-158 222-190 234-108 88-133 95-177 89-221 95-292 76-354 76-437 63-532 63-481 32-291 19-164 13-64 6-31-6h-102l-164 19-241 6-240 6h-260l-278 7h-317l-348 12-399 19-443 26-683 19h-488l-322-38-146-51-6-76 126-95 254-107 360-114 545-140 626-126 697-152 772-190 823-279 879-373 931-513 975-658 246-177 216-89 177-25 145 32 114 69 95 108 76 120z" fill="#009c00"/>
 <path d="m15337 1867 82 272 50 254 7 234-32 234-76 215-114 222-152 215-183 228-108 88-133 95-177 89-221 95-292 76-354 76-437 63-532 63-481 32-291 19-158 6-63 7-32-7h-25l-76 7-165 12-221 7-209 6h-215l-228 6h-272l-311 13-367 6-436 26-684 25h-487l-317-32-145-44-7-76 133-95 247-107 367-114 532-133 601-114 665-133 721-171 779-253 842-355 905-493 968-659 247-177 215-95 171-44 139 19 108 50 89 95 69 114z" fill="#009600"/>
 <path d="m15343 1905 82 272 44 254v227l-31 228-76 209-114 209-152 209-177 228-108 88-133 95-177 89-221 95-292 76-354 76-437 63-532 63-481 32-291 19-158 6-63 7-26-7h-95l-158 19-209 7-177 6h-582l-266 6-342 13-424 25-683 19-488 7-316-32-146-44-6-76 139-89 247-107 367-114 525-133 576-95 621-114 677-146 734-228 810-335 874-481 956-652 246-184 209-107 165-51h139l101 38 83 76 63 108z" fill="#009400"/>
 <path d="m15362 1956 76 266 38 247v227l-38 216-76 202-114 203-152 202-177 222-108 95-133 95-177 88-221 89-292 76-354 76-437 63-532 63-481 32-291 19-158 6-63 7-26-7h-88l-152 19h-196l-152 7h-266l-171-7-228 7-316 12-412 26-683 25-481 6-317-31-145-45-7-76 139-88 254-101 367-114 512-127 551-82 582-89 640-120 690-209 766-317 848-462 949-645 247-190 203-120 164-70 133-13 95 26 82 63 57 95z" fill="#009100"/>
 <path d="m15381 1994 63 266 38 247-13 221-37 209-83 196-114 196-145 197-171 215-108 95-133 95-177 88-215 89-291 76-361 76-437 63-532 63-481 32-291 19h-158l-57 6-25-6h-89l-152 13-183 6-114 6-89-6h-215l-184 6-278 13-399 25-683 26h-482l-316-26-146-44-6-70 139-88 254-101 367-114 500-121 525-69 544-70 595-101 646-184 728-291 823-449 936-646 247-190 203-126 158-83 133-25h89l76 57 57 82z" fill="#008c00"/>
 <path d="m15400 2038 63 266 25 240-19 216-37 202-89 190-114 190-146 190-164 209-108 95-133 95-177 88-215 89-291 76-361 76-437 63-532 63-481 32-291 19h-158l-57 6-19-6h-82l-146 13h-171l-88 6-45-6h-38l-82-7-139 7-253 6-386 32-684 25-481 6-317-25-139-38-6-70 139-88 253-101 367-114 488-114 494-57 506-45 551-76 601-158 696-272 798-437 930-639 247-196 196-139 158-95 121-45 88-12 70 38 51 82z" fill="#008a00"/>
 <path d="m15419 2076 50 266 19 240-19 209-44 197-88 177-108 183-146 184-164 209-108 95-133 95-177 88-215 89-291 76-361 76-437 63-532 63-481 32-284 19h-159l-57 6-19-12h-76l-145 12h-158l-51 7-13-7 13-6-32-6h-101l-228 12-373 26-684 31-481 7-310-26-139-38v-69l139-76 253-101 367-114 481-108 462-44 469-26 512-50 557-140 659-253 766-424 917-626 247-197 196-152 152-107 121-63 82-26 63 26 45 63z" fill="#008500"/>
 <path d="m15438 2127 44 266 13 234-26 202-50 190-95 171-108 171-139 177-158 203-108 95-133 95-177 88-215 89-291 76-361 76-437 63-532 63-481 32-284 19h-159l-57 6-19-12h-76l-139 12h-164l38-6 57-6 19-13-64 6-190 7-367 31-683 32-481 6-311-19-139-38v-69l139-76 254-101 373-114 469-108 443-25 430-7 462-25 519-114 614-228 741-411 911-621 241-202 196-158 152-127 114-76 76-44 57 13 44 56z" fill="#008200"/>
 <path d="m15457 2165 38 266 6 227-32 197-50 183-95 165-108 164-139 178-158 196-108 95-133 95-177 88-215 89-291 76-361 76-437 63-532 63-474 32-291 19h-152l-57 6-19-12h-70l-139 12h-127 7l82-12 101-7 63-12h-12l-165 6-348 32-683 31-488 7-310-19-139-32v-63l145-83 253-94 374-114 462-95 405-13 393 13 424-7 474-88 583-209 709-399 898-620 241-203 196-164 139-140 114-95 76-57 57-6 38 51z" fill="#008000"/>
 <path d="m791 1728 44-44 83-19 101-19h133l152-7 171 7h190l215 12h361l164-6h165l133-13 133-6 107-13 95-6 158-32 159-31 145-32 152-32 146-31 152-32 158-31 164-19 152-26h159l158 7 183 12 203 7 247 6h297l367-6 209-19 228-32 234-38 254-38 265-38 304-19 323-6 367 19 323 6 367 6 386-12 386-13 361-25 329-19 266-19 196-7 272-25 241-19 196-32 184-25 177-44 196-38 215-51 266-44 310-13 374 63 399 121 411 171 380 196 335 215 260 215 171 203 31 88-25 7-82-64-108-101-145-120-146-108-139-76h-108l-133 7-126-32-152-63-146-70-164-88-171-64-178-44-183 6-336 26-278 25-228 13-190 19-177 6-177 13-197 12-215 25-177 13-158 13-158 6-152 6h-165l-177 7h-203l-221 12h-83l-95 13-107 13-108 25-120 19-114 19-101 19-82 25-254 32-234 19h-424l-215-13-215-12-235-7-253 13-285 13-284 25-285 25-285 26-285 12-285 7-285-7-278-19-260-25-221 6-196 19-171 32-171 25-158 26-178 6-189-13-235-19-234 7-240 31-228 57-222 76-202 101-184 121-145 152-216 202-177 133-158 63-114 19-101-19-70-25-51-25-25-7-437 146-291 76-171-13-44-88 51-165 152-234 234-304z" fill="#a6ed63"/>
 <path d="m304 1981 38-57 101-88 133-108 177-127 177-133 184-132 177-121 152-88 184-108 202-95 209-88 222-70 202-63 203-32 177-19 152 19 95 6 101-6 95-19 114-13 108-19 133-12h139l164 19h159l170-19 184-38 209-51 234-63 272-51 317-44 380-19 208-13 222-6 234-13 253-6 266-19 304-13 323-25 367-19 329-32 354-19 368-19h373l348-12 323 6h278l235 19 1107 89 893 88 652 76 399 70 107 31-190 19-519-25-854-57-272-25-292-32-316-32-323-25-329-38-310-19-298-19h-335l-101 6-121 13-126 19-133 13-120 12-108 13-89 19-253 19-221 19h-209l-190 6-203-6h-436l-247 13-285 6-285 32-285 31-278 45-285 25-285 25-285 13-278-6-266-7-222 38-196 57-171 76-171 70-158 57-177 38h-190l-190-19-202 12-216 26-215 50-234 64-222 82-227 89-203 114-139 57-133 56-120 38-108 45-95 31-76 32-51 25-25 38-240 519-209 424-184 304-133 171-88 7-13-165 63-367z" fill="#a6ed63"/>
 <path d="m304 1981 31-57 95-88 133-121 165-126 177-140 190-126 184-114 164-82 184-76 272-95 335-101 380-102 380-95 373-69 329-45 266-6h171l171-19 184-25 202-32 222-38 272-32 310-38 374-12 208-13 222-6 234-13 253-6 266-19 304-13 323-25 367-19 329-32 354-19 368-19h373l348-12 323 6h278l235 19 1107 89 893 88 652 76 399 70 107 31-190 19-519-25-854-57-272-25-292-32-316-32-323-25-329-38-310-19-298-19h-335l-101 6-121 13-126 19-133 13-120 12-108 13-89 19-253 19-221 19h-209l-190 6-203-6h-436l-247 13-285 6-285 32-285 31-278 45-285 25-285 25-285 13-278-6-266-7-222 38-196 57-171 76-171 70-158 57-177 38h-190l-190-19-202 12-216 26-215 50-234 64-222 82-227 89-203 114-139 57-114 56-108 45-88 44-76 32-51 38-38 31-13 38-152 773-189 544-197 316-177 114-139-95-70-278 19-456z" fill="#a6ed63"/>
 <path d="m760 2601 44 19h82l114-31 152-38 165-51 189-44 197-32 215-6 183 13 171 38 165 50 152 63 133 51 120 51 101 25 95 6 152-19 152 13 133 25 139 38 133 32 139 32 146 12h165l151-25h317l183 13 203 6 247 6h664l216-25 234-19 253-32 272-25 285-25 317-13h341l374 25 316 7 355-13 360-38 368-32 335-50 304-38 247-32 190-12 246-19 165-19 95-26 57-19 44-25 70-19 114-19 190-6 297-13 424-6 500-13 545-6 538-19 506-13 430-25 317-19h82l32 57-19 82-57 114-89 114-95 120-101 108-82 88-108 26-139-13-177-44-190-51-222-70-215-57-215-38-196 7-348 31-311 32-278 25-247 32-234 19-228 25-228 19-228 26-177 12-158 13-158 6-152 7h-165l-177 6h-203l-221 6h-83l-94 19-108 19-108 26-120 19-114 25-101 19-82 25-254 32-227 6-216-13-202-19-209-31-215-25-235-19h-246l-292 19-284 37-292 38-284 45-292 31-284 32h-285l-285-13-260-38-221-12-196-13-171 6h-171l-158 13-178 13-189 12-298 57-310 140-329 177-323 202-316 178-292 139-259 63-209-31-291-184-241-177-196-184-146-171-107-171-70-158-31-152 6-126 38-184 70-126 88-76 108-26h101l101 45 89 63z" fill="#a6ed63"/>
 <path d="m411 1937-101 50-95 127-82 171-63 209-45 221-12 222 25 202 76 184 44 63 64 57 69 38 89 26 76-19 88-45 76-95 83-133 69-227 32-228-6-228-32-203-63-183-83-127-101-76z" fill="#a6ed63"/>
 <path d="m14919 3614-38 38-63 25-95 19-114 13-152-6h-557l-190-7h-355l-151 13h-146l-127 13-107 12-83 13-164 25-158 32-152 25-146 38-152 26-145 31-159 32-158 32-164 12-159 7-158-13-177-6-209-13-240-6h-304l-355 19-221 12-222 32-234 38-247 44-278 32-298 25-323 7-360-13-336-19-354 6-374 7-367 19-348 12-304 7-253-7-171-25-335-70-235 26-196 88-196 114-266 101-380 64-550-7-766-107-304-70-266-63-247-70-209-63-190-76-151-70-133-69-95-70-152-127-114-101-76-88-51-76-38-76-12-76-19-83-13-101 6-82 76 25 114 95 152 158 165 165 171 171 151 126 133 70 184 25 190 7 202-13 216-13 221-19 234-6 241 6 253 32 260 44 215 45 183 38 165 31 152 13h171l183-32 234-50 159-45 158-19 152-12 164 6h165l184 13h202l234 6 70-13 88-12 108-19 114-19 114-26 114-19 101-19 95-12 247-45 228-19 215-6 215 13 209 6 228 13 234 6h260l278-25 279-19 278-25 285-19 285-26h285l285 7 291 25 253 13 221-7 197-25 177-25 164-38 165-19h177l196 25 323 38 393 19h417l431-19 399-51 348-63 259-89 146-101 335-570 171-297 38-70-50 102-121 221-145 304-140 329z" fill="#61bd00"/>
 <path d="m380 2013-95 44-89 114-76 158-57 190-38 203-6 202 25 184 70 164 44 51 57 57 64 32 75 19 76-13 76-38 76-82 76-121 64-208 31-209-6-209-32-184-63-164-76-121-95-69z" fill="#b3f073"/>
 <path d="m342 2089-89 44-82 101-70 146-50 171-38 177v184l25 164 76 139 44 45 57 50 57 32 70 19 63-13 70-31 63-70 63-108 64-189 31-190-6-190-32-165-57-145-76-108-88-63z" fill="#bff282"/>
 <path d="m304 2165-82 38-70 95-63 133-45 158-31 158v165l31 139 70 120 38 38 51 38 57 25 56 19 57-12 57-26 57-57 57-82 57-171 32-171-6-171-26-145-50-133-70-101-89-57z" fill="#ccf591"/>
 <path d="m279 2241-76 38-70 82-57 120-38 139-25 140 6 139 25 120 70 101 38 32 51 32 44 19 57 19 44-7 51-25 44-44 51-70 57-152 25-152v-145l-19-133-51-114-63-89-82-50z" fill="#d9f7a1"/>
 <path d="m241 2317-76 31-57 76-51 102-32 126-19 120 7 121 31 101 70 82 38 25 44 26 38 12 45 13 37-6 38-13 38-38 45-57 57-133 25-126v-133l-19-114-51-101-57-76-76-38z" fill="#e6fab0"/>
 <path d="m209 2393-70 25-50 70-45 82-25 107-19 102 13 107 31 83 70 57 38 12 44 19 32 13 38 13 25-7 32-6 25-25 32-38 50-114 26-108v-114l-13-89-44-88-57-63-63-38z" fill="#f2fcbf"/>
 <path d="m184 2469-64 25-50 57-38 69-19 89-13 82 13 83 38 63 63 44 38 7 38 6 25 6 32 13 44-13 44-31 45-95 25-89v-95l-13-76-38-70-50-50-57-32z" fill="#ffffcf"/>
 <path d="m7665 3570h-70l-50 13-32 12-12 19 12 19 32 19 50 13 70 6 51-6 57-13 31-19 19-19-19-19-31-12-57-13z" fill="#a6ed63"/>
 <path d="m7209 1804h-69l-32 6-19 7-38 19-6 25 6 13 38 19h19l32 6h31l38 6 51-6 57-6 32-19 19-13-19-25-32-19-57-13z" fill="#a6ed63"/>
 <path d="m4304 1962h-70l-31 6-19 7-38 19-6 19 6 19 38 19h19l31 6 32 6 38 7 51-13 50-6 32-19 19-19-19-19-32-19-50-13z" fill="#a6ed63"/>
 <path d="m2956 1962h-70l-50 13-32 19-13 19 13 19 32 19 50 6 70 13 51-13 57-6 31-19 19-19-19-19-31-19-57-13z" fill="#a6ed63"/>
 <path d="m2918 2513h-70l-31 6-19 13-38 12-7 26 7 12 38 19 19 7 31 6h32l38 6 51-6 50-13 32-19 19-12-19-26-32-12-50-19z" fill="#a6ed63"/>
 <path d="m3323 2222h-63l-45 12-38 19-6 26 6 12 38 13 45 13 63 6 63-6 51-13 32-13 19-12-19-26-32-19-51-12z" fill="#a6ed63"/>
 <path d="m4234 1234h-63l-50 13-32 13-13 19 13 19 32 19 50 12 63 7 57-7 57-12 32-19 19-19-19-19-32-13-57-13z" fill="#a6ed63"/>
 <path d="m3981 2658h-69l-51 13-32 13-12 19 12 19 32 19 51 12 69 7 51-7 57-12 32-19 19-19-19-19-32-13-57-13z" fill="#a6ed63"/>
 <path d="m5842 2127h-69l-51 12-32 13-12 19 12 19 32 19 51 13 69 6 51-6 57-13 31-19 19-19-19-19-31-13-57-12z" fill="#a6ed63"/>
 <path d="m9172 2431h-64l-50 12-32 13-13 19 13 13 32 19 50 12 64 7 63-7 50-12 32-19 19-13-19-19-32-13-50-12z" fill="#61bd00"/>
 <path d="m8716 3291h-63l-51 19-32 13-12 25 12 13 32 19 51 13 63 6 57-6 57-13 31-19 19-13-19-25-31-13-57-19z" fill="#61bd00"/>
 <path d="m10406 3158h-70l-31 7-19 12-32 26-6 31 6 32 32 32 19 6 31 6 32 7 38 6 57-13 57-12 31-32 19-32-19-31-31-26-57-19z" fill="#61bd00"/>
 <path d="m6241 3608h-57l-38 13-25 19-7 31 7 19 25 25 38 13 57 13 38-13 44-13 26-25 12-19-12-31-26-19-44-13z" fill="#61bd00"/>
 <path d="m3779 3177h-45l-31 19-26 13v38l26 19 31 13 45 6 31-6 32-13 19-19 13-13-13-25-19-13-32-19z" fill="#61bd00"/>
 <path d="m3570 3405h-44l-26 13-25 13v38l25 19 26 6 44 6 32-6 31-6 19-19 13-13-13-25-19-13-31-13z" fill="#61bd00"/>
 <path d="m3038 3513h-44l-25 13-26 12v32l26 19 25 13 44 6 32-6 31-13 19-19 13-13-13-19-19-12-31-13z" fill="#61bd00"/>
 <path d="m3355 3589h-38l-32 13-25 12v32l25 19 32 12 38 7 31-7 38-12 19-19 13-13-13-19-19-12-38-13z" fill="#61bd00"/>
 <path d="m3475 3646h-44l-26 13-25 12v38l25 19 26 13 44 6 32-6 31-13 19-19 13-19-13-19-19-12-31-13z" fill="#61bd00"/>
 <path d="m3855 3285h-38l-32 13-19 12-6 19 6 13 19 19 32 13 38 6 31-6 38-13 26-19 12-13-12-19-26-12-38-13z" fill="#61bd00"/>
 <path d="m4329 3177h-38l-31 13-19 13-7 25 7 13 19 19 31 6 38 6 32-6 32-6 19-19 12-13-12-25-19-13-32-13z" fill="#61bd00"/>
 <path d="m4076 2582h-44l-25 13-26 13v31l26 19 25 13 44 6 32-6 32-13 19-19 12-12-12-19-19-13-32-13z" fill="#61bd00"/>
 <path d="m3741 1962h-45l-25 13-25 19v38l25 19 25 6 45 13 31-13 32-6 19-19 13-19-13-19-19-19-32-13z" fill="#61bd00"/>
 <path d="m3076 2146h-38l-31 6-19 13-7 19 7 12 19 13 31 6 38 7 32-7 31-6 19-13 13-12-13-19-19-13-31-6z" fill="#61bd00"/>
 <path d="m4121 3646h-38l-32 6-19 13-6 19 6 12 19 13 32 6 38 7 31-7 38-6 26-13 12-12-12-19-26-13-38-6z" fill="#61bd00"/>
 <path d="m3665 2412h-44l-26 12-25 13v32l25 19 26 12 44 7 31-7 32-12 19-19 13-13-13-19-19-13-32-12z" fill="#61bd00"/>
 <path d="m3279 2456h-38l-32 13-25 12v38l25 19 32 6 38 7 31-7 32-6 19-19 13-12-13-26-19-12-32-13z" fill="#61bd00"/>
 <path d="m3943 2209h-44l-25 13-26 19v38l26 19 25 6 44 13 32-13 32-6 19-19 12-19-12-19-19-19-32-13z" fill="#61bd00"/>
 <path d="m4462 2620h-38l-31 13-19 13-7 19 7 12 19 19 31 13 38 6 32-6 32-13 19-19 12-12-12-19-19-13-32-13z" fill="#61bd00"/>
 <path d="m4798 2089h-38l-32 12-25 13v32l25 19 32 12 38 7 31-7 38-12 19-19 13-13-13-19-19-13-38-12z" fill="#61bd00"/>
 <path d="m4342 2317h-57l-38 12-25 19-6 26 6 12 25 13 38 13 57 6 38-6 38-13 25-13 13-12-13-26-25-19-38-12z" fill="#61bd00"/>
 <path d="m3412 1886h-45l-38 13-25 19-6 19 6 19 25 19 38 6 45 13 38-13 38-6 25-19 13-19-13-19-25-19-38-13z" fill="#61bd00"/>
 <path d="m5595 2779h-50l-38 12-26 13v38l26 19 38 6 50 7 38-7 38-6 26-19 12-13-12-25-26-13-38-12z" fill="#61bd00"/>
 <path d="m5557 3665h-44l-38 12-25 13-7 19 7 13 25 19 38 12 44 7 38-7 38-12 26-19 12-13-12-19-26-13-38-12z" fill="#61bd00"/>
 <path d="m3810 3614h-50l-38 13-26 13v37l26 19 38 7 50 6 38-6 38-7 26-19 12-12-12-25-26-13-38-13z" fill="#61bd00"/>
 <path d="m4399 3304h-44l-38 13-26 19-6 25 6 13 26 12 38 7 44 6 38-6 38-7 25-12 13-13-13-25-25-19-38-13z" fill="#61bd00"/>
 <path d="m4861 3823h-44l-38 13-25 12-7 26 7 12 25 19 38 7 44 6 44-6 45-7 25-19 13-12-13-26-25-12-45-13z" fill="#61bd00"/>
 <path d="m4171 3855h-38l-31 12-26 13v38l26 19 31 13 38 6 32-6 31-13 19-19 13-19-13-19-19-13-31-12z" fill="#61bd00"/>
 <path d="m5045 3443h-45l-25 13-25 13v38l25 19 25 6 45 6 31-6 32-6 19-19 13-13-13-25-19-13-32-13z" fill="#61bd00"/>
 <path d="m6209 1899h-44l-25 13-26 12v32l26 19 25 12 44 7 32-7 32-12 19-19 12-13-12-19-19-12-32-13z" fill="#61bd00"/>
 <path d="m7380 2608h-44l-25 12-26 13v38l26 19 25 6 44 7 32-7 32-6 19-19 12-13-12-25-19-13-32-12z" fill="#61bd00"/>
 <path d="m8032 1956h-44l-32 12-25 19v38l25 13 32 13 44 6 32-6 32-13 19-13 12-12-12-26-19-19-32-12z" fill="#61bd00"/>
 <path d="m9475 1810h-50l-45 13-31 13-7 25 7 19 31 19 45 6 50 13 45-13 44-6 32-19 12-19-12-25-32-13-44-13z" fill="#a6ed63"/>
 <path d="m11064 1658h-57l-38 13-25 13-6 25 6 13 25 19 38 6 57 6 51-6 44-6 25-19 13-13-13-25-25-13-44-13z" fill="#a6ed63"/>
 <path d="m10551 2475h-57l-38 13-25 12-6 26 6 18 25 19 38 7 57 12 51-12 44-7 26-19 12-18-12-26-26-12-44-13z" fill="#a6ed63"/>
 <path d="m12963 1405h-57l-38 13-25 12-7 19 7 13 25 19 38 13 57 6 38-6 44-13 26-19 12-13-12-19-26-12-44-13z" fill="#a6ed63"/>
 <path d="m12115 532h-57l-38 12-32 13-6 19 6 19 32 19 38 13 57 6 44-6 44-13 26-19 12-19-12-19-26-13-44-12z" fill="#a6ed63"/>
 <path d="m4766 728h-57l-38 19-31 13-7 25 7 13 31 19 38 12 57 7 44-7 45-12 25-19 13-13-13-25-25-13-45-19z" fill="#a6ed63"/>
 <path d="m6380 1253h-57l-38 13-31 13-7 19 7 12 31 19 38 13 57 6 45-6 44-13 25-19 13-12-13-19-25-13-44-13z" fill="#a6ed63"/>
 <path d="m7342 456h-38l-25 12-25 13v38l25 19 25 13 38 6 57-19 26-38-26-32z" fill="#a6ed63"/>
 <path d="m8672 1070h-38l-26 12-25 13v38l25 19 26 6 38 7 31-7 32-6 19-19 12-13-12-25-19-13-32-12z" fill="#a6ed63"/>
 <path d="m3570 1089h-44l-26 12-25 13v38l25 19 26 6 44 7 32-7 31-6 13-19 13-13-13-25-13-13-31-12z" fill="#a6ed63"/>
 <path d="m5165 2646-63 19-19 38 19 31 63 19 32-6 31-13 19-19 13-12-13-26-19-12-31-19z" fill="#a6ed63"/>
 <path d="m2886 2266-63 13-19 38 19 31 63 13 32-6 32-7 19-19 12-12-12-26-19-12-32-13z" fill="#a6ed63"/>
 <path d="m2595 1886h-44l-25 19-26 13v38l26 19 25 12 44 7 57-19 25-32-25-38z" fill="#a6ed63"/>
 <path d="m2222 2241-64 12-19 45 19 25 64 19 31-6 32-13 19-13 13-12-13-32-19-13-32-12z" fill="#a6ed63"/>
 <path d="m1798 1424h-38l-26 13-25 19v38l25 19 26 6 38 6 31-6 32-6 19-19 13-13-13-25-19-19-32-13z" fill="#a6ed63"/>
 <path d="m3038 2374-63 12-19 45 19 31 63 13 32-6 31-7 19-19 13-12-13-26-19-19-31-12z" fill="#a6ed63"/>
 <path d="m3133 1804h-44l-25 13-26 19v38l26 19 25 6 44 6 32-6 31-6 13-19 13-13-13-25-13-19-31-13z" fill="#a6ed63"/>
 <path d="m3475 3215-63 13-19 38 19 38 63 19 32-6 31-13 19-19 13-19-13-25-19-13-31-13z" fill="#a6ed63"/>
 <path d="m3e3 3386h-38l-31 13-19 13-7 25 7 19 19 19 31 6 38 13 32-13 32-6 12-19 13-19-13-25-12-13-32-13z" fill="#a6ed63"/>
 <path d="m2317 1962-64 13-19 38 19 38 64 19 31-13 32-6 19-19 13-19-13-26-19-12-32-13z" fill="#a6ed63"/>
 <path d="m2260 2152-64 19-19 38 19 32 64 19 31-7 32-12 13-19 12-13-12-25-13-13-32-19z" fill="#a6ed63"/>
 <path d="m2652 2336h-38l-32 12-25 19v38l25 19 32 7 38 6 57-13 25-31-25-45z" fill="#a6ed63"/>
 <path d="m1899 2323h-38l-32 19-19 19-6 32 6 19 19 25 32 13 38 6 32-6 31-13 13-25 12-19-12-32-13-19-31-19z" fill="#a6ed63"/>
 <path d="m2842 2051h-38l-25 12-26 13v38l26 19 25 13 38 6 32-6 31-13 19-19 13-19-13-19-19-13-31-12z" fill="#a6ed63"/>
 <path d="m2222 1336-64 12-19 38 19 38 64 19 31-13 32-6 19-19 13-19-13-25-19-13-32-12z" fill="#a6ed63"/>
 <path d="m2222 1336-64 12-19 38 19 38 64 19 31-13 32-6 19-19 13-19-13-25-19-13-32-12z" fill="#a6ed63"/>
 <path d="m4760 2760h-38l-25 12-26 13v44l26 19 25 7 38 12 31-12 32-7 19-19 13-19-13-25-19-13-32-12z" fill="#a6ed63"/>
 <path d="m2829 3576h-44l-25 13-26 13v44l26 19 25 6 44 13 32-13 32-6 12-19 13-19-13-25-12-13-32-13z" fill="#a6ed63"/>
 <path d="m5127 1785-63 13-19 31 19 32 63 19 32-6 31-13 19-19 13-13-13-19-19-12-31-13z" fill="#a6ed63"/>
 <path d="m2677 1310h-69l-19 7-7 19 7 6 19 13 31 6 38 6 32-6 32-6 12-13 13-6-13-19-12-7h-32z" fill="#a6ed63"/>
 <path d="m2519 1557h-38l-25 6-25 13v19l25 13 25 6 38 6 32-6 31-6 19-13h13l-13-19-19-13-31-6z" fill="#a6ed63"/>
 <path d="m1842 1519-63 6-19 32 19 19 63 6 32-6h31l19-13 13-6-13-19-19-13-31-6z" fill="#a6ed63"/>
 <path d="m1728 1614-63 6-19 32 19 19 63 6 32-6h31l19-13 13-6-13-19-19-13-31-6z" fill="#a6ed63"/>
 <path d="m1690 1348-63 7-19 31 19 13 63 13 32-7 31-6 13-13h13l-13-19-13-12-31-7z" fill="#a6ed63"/>
 <path d="m1386 1487-63 7-19 25 19 25 63 13 32-6 31-7 19-12 13-13-13-19-19-6-31-7z" fill="#a6ed63"/>
 <path d="m2089 1462h-45l-25 6-25 7v25l25 13 25 6 45 6 31-6 32-6 13-13 12-13-12-12-13-7-32-6z" fill="#a6ed63"/>
 <path d="m1994 1215-63 7-19 19 19 19 63 12 31-6 32-6 19-13 13-6-13-13-19-6-32-7z" fill="#a6ed63"/>
 <path d="m2526 1184-64 6-19 32 19 19 64 12 31-6 32-6 19-13 12-6-12-19-19-13-32-6z" fill="#a6ed63"/>
 <path d="m1215 1576h-69l-19 6-7 19 7 7 19 12 31 7 38 6 32-6 32-7 12-12 13-7-13-19-12-6h-32z" fill="#a6ed63"/>
 <path d="m1570 1412h-38l-32 6-25 12v19l25 13h32l38 6 57-6 25-19-25-25z" fill="#a6ed63"/>
 <path d="m2861 1582h-38l-25 7-26 6v25l26 13h25l38 6 57-6 25-19-25-25z" fill="#a6ed63"/>
 <path d="m2519 2285h-63l-51 6-31 7-7 19 7 6 31 13h51l63 6 51-6h50l32-13 19-6-19-19-32-7-50-6z" fill="#a6ed63"/>
 <path d="m2469 1032h-38l-32 6-19 13-6 12 6 7 19 12h32l38 7 31-7h32l12-12 13-7-13-12-12-13-32-6z" fill="#a6ed63"/>
 <path d="m3051 987h-70l-25 7v25l25 13 32 6 38 6 57-12 25-19-25-26z" fill="#a6ed63"/>
 <path d="m2253 1601h-38l-25 7-25 12v26l25 12 25 7 38 6 32-6 32-7 19-12 12-7-12-19-19-12-32-7z" fill="#a6ed63"/>
 <path d="m1646 1506h-45l-25 7-25 12v26l25 12 25 7 45 6 57-13 25-19-25-31z" fill="#a6ed63"/>
 <path d="m1494 1557h-64l-25 6v26l25 12 26 7 38 6 31-6 32-7 19-12 13-7-13-19-19-6h-32z" fill="#a6ed63"/>
 <path d="m2089 1601h-45l-25 7-25 6v25l25 13h25l45 6 31-6h32l13-13 12-6-12-19-13-6-32-7z" fill="#a6ed63"/>
 <path d="m1899 1317h-57l-32 12-25 13-6 25 6 13 25 13 32 6 57 6 44-6 44-6 26-13 12-13-12-25-26-13-44-12z" fill="#a6ed63"/>
 <path d="m3298 1525h-38l-32 7-25 6v32l25 12 32 7 38 6 57-13 25-25-25-25z" fill="#a6ed63"/>
 <path d="m2519 2076h-38l-25 6-25 13v25l25 13 25 6 38 7 57-13 25-19-25-32z" fill="#a6ed63"/>
 <path d="m2595 2507h-63l-25 6v25l25 13 25 6 38 6 57-12 25-19-25-25z" fill="#a6ed63"/>
 <path d="m2032 2260h-63l-19 25 19 19 63 13 31-7 32-6 19-13 13-6-13-19-19-6h-32z" fill="#a6ed63"/>
 <path d="m2272 2380h-38l-31 6-26 7v31l26 13 31 6 38 7 57-13 26-25-26-26z" fill="#a6ed63"/>
 <path d="m2728 2133h-38l-25 6-26 7v25l26 13h25l38 6 32-6h31l19-13 13-6-13-19-19-7-31-6z" fill="#a6ed63"/>
 <path d="m2772 1867-63 7-19 25 19 25 63 13 32-6 32-7 12-12 13-13-13-19-12-6-32-7z" fill="#a6ed63"/>
 <path d="m2861 2171h-38l-25 6-26 13v25l26 13 25 6 38 7 57-13 25-19-25-32z" fill="#a6ed63"/>
 <path d="m2842 2412h-63l-26 6v25l26 13 25 6 38 7 32-7 31-6 19-13 13-6-13-19-19-6h-31z" fill="#a6ed63"/>
 <path d="m2576 3595h-38l-25 7-25 12v26l25 12 25 7 38 6 32-6 31-7 19-12 13-13-13-13-19-12-31-7z" fill="#a6ed63"/>
 <path d="m3209 3304h-63l-19 25 19 19 63 13 32-6 31-7 13-12 13-7-13-19-13-6h-31z" fill="#a6ed63"/>
 <path d="m3076 2658h-63l-19 26 19 19 63 12 32-6 31-6 19-13 13-6-13-19-19-7h-31z" fill="#a6ed63"/>
 <path d="m2412 2146h-64l-19 25 19 19 64 13 31-7 32-6 13-13 12-6-12-19-13-6h-32z" fill="#a6ed63"/>
 <path d="m2070 2152-64 6-19 32 19 19 64 13 31-7 32-6 19-13 13-6-13-19-19-13-32-6z" fill="#a6ed63"/>
 <path d="m2006 2380h-37l-26 6-25 7v25l25 13h26l37 6 32-6h32l19-13 12-6-12-19-19-7-32-6z" fill="#a6ed63"/>
 <path d="m2412 2437h-45l-31 6-26 13v32l26 12 31 7 45 6 31-6 38-7 26-12 12-13-12-19-26-13-38-6z" fill="#a6ed63"/>
 <path d="m3912 1867h-45l-31 7-26 12v32l26 13 31 6 45 6 31-6 38-6 26-13 12-13-12-19-26-12-38-7z" fill="#a6ed63"/>
 <path d="m3412 2665h-45l-31 6-26 6-6 19 6 13 26 13 31 6 45 6 31-6 38-6 19-13 13-13-13-19-19-6-38-6z" fill="#a6ed63"/>
 <path d="m3260 3380h-45l-31 6-26 13-6 19 6 13 26 12 31 7 45 6 31-6 38-7 19-12 13-13-13-19-19-13-38-6z" fill="#a6ed63"/>
 <path d="m3013 1367h-38l-25 13-26 13v37l26 19 25 13 38 6 32-6 31-13 19-19 13-18-13-19-19-13-31-13z" fill="#a6ed63"/>
 <path d="m9798 424h-38l-31 13-19 12-7 32 7 13 19 19 31 6 38 13 32-13 31-6 13-19 13-13-13-32-13-12-31-13z" fill="#a6ed63"/>
 <path d="m8842 684h-69l-51 12-31 13-13 19 13 19 31 19 51 13 69 6 51-6 51-13 31-19 19-19-19-19-31-13-51-12z" fill="#a6ed63"/>
</svg>
