<?xml version="1.0" encoding="UTF-8"?>
<svg version="1.1" viewBox="0 0 2800 2800" xmlns="http://www.w3.org/2000/svg">
 <g transform="translate(-13.104 -88.956)">
  <path d="m1805 521c-84.711 2.3739-164.75 40.609-229.59 93.442-106.58 85.288-198.42 188.54-312.13 264.59-56.926-26.128-118.77-43.248-181.62-45.102-53.302-1.6688-107.4 9.851-153.59 36.754-63.659 36.038-111.84 95.33-141.33 161.76-1.7663 3.4927-4.153 12.13-4.4212 3.6069-5.7895-32.505-14.387-64.523-22.882-96.329 4.8615-18.756-3.5304-37.46-2.1278-56.402-2.1232-37.463-8.3374-77.836-34.216-106.69-21.477-22.59-56.123-29.204-85.649-20.69-20.265 2.5262-40.952 2.9894-61.164 0.25297-29.055-22.61-72.723-28.493-104.48-7.8579-33.159 20.195-51.194 58.249-56.217 95.863-11.561 69.556 1.7296 139.9 12.79 208.62 12.514 72.236 31.134 145.14 69.626 208.12 24.558 37.05 63.314 60.937 100.09 84.469 25.604 20.109 37.61 51.707 46.573 81.988 26.174 77.591 45.195 157.41 65.427 236.67-38.927 4.0148-79.149 24.232-96.375 60.906-18.002 38.524-7.3155 87.438 22.906 116.66-0.32257 19.96 12.447 36.726 18.688 54.875 0.71678 24.208 11.707 47.5 28.375 64.625-9.5287 27.944-8.2665 62.655 12.531 85.25 11.735 11.71 28.538 17.459 45.031 17.562-2.0409 82.752-9.1014 165.37-9.3834 248.15 5.2469 59.89 37.505 119.18 90.758 148.88 28.993 15.476 67.831 17.463 94.909-3.1108 31.354-22.67 45.437-62.251 48.301-99.761 4.4994-56.041-10.613-111.02-16.23-166.31-8.4204-63.971-17.426-127.96-25.511-191.91 51.974-10.354 90.911-58.115 97.936-109.7 3.592-27.15 1.1833-54.864-2.9868-81.785-6.2826-35.446-20.393-71.265-47.667-95.734-10.41-8.8246-23.581-14.252-36.531-17.531-10.888-27.663-35.899-47.823-63.688-56.938-4.6565-2.0904-12.856-3.2112-12.469-9.9687-25.713-105.38-51.102-212.72-103.81-308.38-2.7524-5.1258-5.7869-10.049-8.5658-15.155 8.2622-2.3854 16.514-4.7332 24.781-7.2813 33.292 112.02 102.19 210.6 185.07 291.79 68.44 71.105 129.86 152.51 163.16 246.55 39.393 105.05 55.409 218.59 48.359 330.57-6.9034 74.43-33.152 145.2-60.815 214.03-4.8428 14.312-2.1849 32.681 11.225 41.355 13.556 10.284 32.348 8.8304 47.594 3.5 48.36-11.271 88.139-45.005 117.79-83.398 63.219-76.594 122.09-158.02 198.58-222.07 102.39-17.911 213.64 10.835 290.24 82.03 51.993 50.642 95.511 111.72 158.7 149.5 41.145 25.52 90.118 39.302 138.78 33.75 23.055-1.613 46.025-4.3674 69.125-5.3438-51.794-38.154-84.289-96.408-104.25-156.34-49.928-153.21-76.536-315.93-61.936-477.21 12.151-128.31 54.805-251.02 101.14-370.51 36.085-93.364 81.134-184.97 94.574-285.19 16.064-117.18 12.13-239.76-29.952-351.36-28.31-74.247-80.998-140.95-152.53-177.22-55.528-28.664-118.56-41.472-180.96-40.823zm414.94 645.69c-38.013-0.6532-70.727 31.342-77.168 67.754-8.2067 35.976 3.087 75.075-13.384 109.32-14.411 35.544-29.433 71.032-36.962 108.78-4.4731 19.166-7.677 38.778-10.08 58.302-31.795 23.56-45.021 64.718-45.062 103.16-0.787 44.569 18.554 91.144 56.438 116.22 9.5503 5.671 20.734 8.5913 31.906 8.2187 36.173 36.241 93.916 51.234 142.77 33.926 21.068-8.5814 36.094-26.432 51.922-41.988 13.898-10.383 32.366-15.869 41.406-31.719 5.761-7.898 7.329-17.955 11.438-26.531 7.935-8.7556 19.942-13.323 27.344-22.844 20.916-20.711 34.697-52.328 25.75-81.75-5.6653-18.581-16.243-37.36-12.219-57.312 1.3255-33.644-14.015-65.911-37.781-88.844-18.416-19.061-38.48-36.857-60.609-51.606-6.0449-3.7836-13.263-6.4914-19.36-9.2067 22.952-48.941 23.074-110.12-5.6704-156.66-16.075-22.388-42.655-38.079-70.673-37.214z" fill="#00222b"/>
  <path d="m1791 505c-84.711 2.3739-164.75 40.609-229.59 93.442-106.58 85.288-198.42 188.54-312.13 264.59-56.926-26.128-118.77-43.248-181.62-45.102-53.302-1.6688-107.4 9.851-153.59 36.754-63.659 36.038-111.84 95.33-141.33 161.76-1.7663 3.4927-4.153 12.13-4.4212 3.6069-5.7895-32.505-14.387-64.523-22.882-96.329 4.8615-18.756-3.5304-37.46-2.1278-56.402-2.1232-37.463-8.3374-77.836-34.216-106.69-21.477-22.59-56.123-29.204-85.649-20.69-20.265 2.5262-40.952 2.9894-61.164 0.25297-29.055-22.61-72.723-28.493-104.48-7.8579-33.159 20.195-51.194 58.249-56.217 95.863-11.561 69.556 1.7296 139.9 12.79 208.62 12.514 72.236 31.134 145.14 69.626 208.12 24.558 37.05 63.314 60.937 100.09 84.469 25.604 20.109 37.61 51.707 46.573 81.988 26.174 77.591 45.195 157.41 65.427 236.67-38.927 4.0148-79.149 24.232-96.375 60.906-18.002 38.524-7.3155 87.438 22.906 116.66-0.32257 19.96 12.447 36.726 18.688 54.875 0.71678 24.208 11.707 47.5 28.375 64.625-9.5287 27.944-8.2665 62.655 12.531 85.25 11.735 11.71 28.538 17.459 45.031 17.562-2.0409 82.752-9.1014 165.37-9.3834 248.15 5.2469 59.89 37.505 119.18 90.758 148.88 28.993 15.476 67.831 17.463 94.909-3.1108 31.354-22.67 45.437-62.251 48.301-99.761 4.4994-56.041-10.613-111.02-16.23-166.31-8.4204-63.971-17.426-127.96-25.511-191.91 51.974-10.354 90.911-58.115 97.936-109.7 3.592-27.15 1.1833-54.864-2.9868-81.785-6.2826-35.446-20.393-71.265-47.667-95.734-10.41-8.8246-23.581-14.252-36.531-17.531-10.888-27.663-35.899-47.823-63.688-56.938-4.6565-2.0904-12.856-3.2112-12.469-9.9687-25.713-105.38-51.102-212.72-103.81-308.38-2.7524-5.1258-5.7869-10.049-8.5658-15.155 8.2622-2.3854 16.514-4.7332 24.781-7.2813 33.292 112.02 102.19 210.6 185.07 291.79 68.44 71.105 129.86 152.51 163.16 246.55 39.393 105.05 55.409 218.59 48.359 330.57-6.9034 74.43-33.152 145.2-60.815 214.03-4.8428 14.312-2.1849 32.681 11.225 41.355 13.556 10.284 32.348 8.8304 47.594 3.5 48.36-11.271 88.139-45.005 117.79-83.398 63.219-76.594 122.09-158.02 198.58-222.07 102.39-17.911 213.64 10.835 290.24 82.03 51.993 50.642 95.511 111.72 158.7 149.5 41.145 25.52 90.118 39.302 138.78 33.75 23.055-1.613 46.025-4.3674 69.125-5.3438-51.794-38.154-84.289-96.408-104.25-156.34-49.928-153.21-76.536-315.93-61.936-477.21 12.151-128.31 54.805-251.02 101.14-370.51 36.085-93.364 81.134-184.97 94.574-285.19 16.064-117.18 12.13-239.76-29.952-351.36-28.31-74.247-80.998-140.95-152.53-177.22-55.528-28.664-118.56-41.472-180.96-40.823zm414.94 645.69c-38.013-0.6532-70.727 31.342-77.168 67.754-8.2067 35.976 3.087 75.075-13.384 109.32-14.411 35.544-29.433 71.032-36.962 108.78-4.4731 19.166-7.677 38.778-10.08 58.302-31.795 23.56-45.021 64.718-45.062 103.16-0.787 44.569 18.554 91.144 56.438 116.22 9.5503 5.671 20.734 8.5913 31.906 8.2187 36.173 36.241 93.916 51.234 142.77 33.926 21.068-8.5814 36.094-26.432 51.922-41.988 13.898-10.383 32.366-15.869 41.406-31.719 5.761-7.898 7.329-17.955 11.438-26.531 7.935-8.7556 19.942-13.323 27.344-22.844 20.916-20.711 34.697-52.328 25.75-81.75-5.6653-18.581-16.243-37.36-12.219-57.312 1.3255-33.644-14.015-65.911-37.781-88.844-18.416-19.061-38.48-36.857-60.609-51.606-6.0449-3.7836-13.263-6.4914-19.36-9.2067 22.952-48.941 23.074-110.12-5.6704-156.66-16.075-22.388-42.655-38.079-70.673-37.214z" fill="#fff"/>
  <path d="m502.2 743.53c-36.278 0.5345-63.715 32.912-71.569 66.213-17.802 60.799-6.8655 125.19 1.0775 186.69 11.459 73.619 27.264 147.84 60.012 215 18.599 35.062 47.846 63.212 82.621 82.033 27.382 17.042 53.409 39.227 64.315 70.699 24.549 57.604 38.314 119.22 55.767 179.22 9.6926 36.29 19.318 72.777 27.773 109.28-4.442 5.0138-4.849 14.007-9.4192 17.704-34.406 2.0746-72.985 14.006-90.247 46.16-16.672 33.164-4.8097 77.071 25.003 98.336-3.068 19.238 5.2863 39.094 18.641 52.571-4.5225 27.105 9.5307 55.45 32.4 69.93-10.42 23.032-16.944 52.931-0.78905 74.763 13.672 14.888 37.065 13.644 54.395 6.3617-3.0878 84.524-5.5793 169.11-11.54 253.48-0.26765 57.754 24.429 119.24 75.502 149.38 23.767 14.816 58.45 17.563 79.376-3.7809 28.803-26.977 34.596-69.721 33.064-107.52-2.6064-46.972-12.931-93.017-17.574-139.63-9.1471-67.3-18.128-134.77-27.599-201.93 8.1546-10.101 21.776-5.4451 32.203-10.8 43.647-15.376 72.321-61.417 69.387-107.26 1.2443-45.59-6.805-94.436-36.839-130.05-11.865-11.729-28.276-19.176-45.173-18.346-5.6423-22.495-20.205-45.414-43.843-52.002-11.107-5.2782-22.09-10.874-33.484-15.511-29.349-117.05-55.086-238.3-119.14-342.06-2.4527-6.2637-8.2626-11.651-10.706-17.154 19.145-7.3259 39.091-11.878 58.636-18.099 11.163-110.29-0.91135-222.88-32.893-328.49-1.343-2.5224-7.7953-4.0008-2.7124-6.0658 8.958-7.6458 1.4746-19.671 2.1699-29.244-3.273-37.594-1.9314-79.39-25.003-111.11-13.482-17.461-37.845-26.801-59.08-19.282-27.413 3.6188-55.418 3.431-83.047 1.4795-14.541-11.884-32.336-21.719-51.683-20.959z"/>
  <path d="m524.73 771.15c18.429 22.309 27.547 37.412 33.201 153.35-12.61-98.937-18.439-159.06-67.907-154.21-49.468 4.8498-56.237 96.026-45.567 181.38 10.67 85.358 37.803 241.48 95.031 292.89 57.228 51.409 89.225 40.776 122.2 125.16 25.172 64.412 62.611 211.19 79.003 277.4 7.5701-6.9971 14.641-15.188 25.2-16.866 14.277-0.3748 27.849 2.5846 41.03 7.1015-17.894-71.951-38.718-153.33-49.167-185.18-20.369-62.078-59.207-150.39-107.7-207.62-48.498-57.229-72.756-157.11-82.455-235.68 9.6998 47.529 29.107 158.12 88.275 228.92-41.709-143.56-44.581-239.59-47.491-275.48-2.91-35.889-15.753-162.07-83.65-191.17zm292.99 962.23c-1.6939 17.376-7.9911 35.167-20.762 47.59 11.135 7.2912 18.449 19.913 19.43 33.19-0.21131 16.888-6.399 33.92-16.126 47.59 8.9893 8.3798 12.715 21.236 11.786 33.338-0.13098 20.272-18.158 35.558-36.543 41.278l-3.6986 60.905-0.0489 1.3315-8.1863 226.61s-24.254 113.5 49.463 170.73c73.717 57.229 100.83-31.047 96.954-85.366-2.1814-30.54-26.161-199.53-45.37-341.22v-0.098c-0.0489 0.016-0.0978-0.016-0.14834 0-10.448-65.884-19.198-132.06-32.4-197.46-4.3675-12.713-2.724-29.392-14.351-38.417z" fill="#f00"/>
  <path d="m1787.4 529.01c-86.076 3.6057-164.7 47.546-228.8 102.5-101.12 84.268-190.82 183.26-301.83 254.79-2.9817 3.2124-7.582 4.9161-10.853 1.0671-79.648-36.194-171.16-58.778-258.16-37.026-83.717 21.457-150.39 86.795-186.88 163.56-36.756 70.53-48.944 154.85-28.135 232.1 26.243 113.94 92.463 214.76 173.85 297.16 51.586 53.712 101.39 109.87 137.72 175.09 62.122 108.37 89.494 232.84 95.233 356.85 2.9777 68.902-6.7826 137.91-29.251 203.07-10.542 33.26-24.676 65.561-36.295 98.445-0.81 9.3917 10.106 15.374 18.148 11.589 50.131-5.1988 90.554-41.155 120.33-79.546 65.147-78.881 125.64-162.48 205.2-227.44 130.92-23.862 239.76 19.928 312.61 81.963 43.017 41.385 78.376 90.28 125.74 127.06 38.738 32.477 86.941 57.284 138.79 55.412 11.284-0.027 22.541-0.9505 33.781-1.874-53.124-58.875-74.844-137.4-95.21-212.25-29.527-111.65-45.416-227.4-42.38-343.1 3.0462-150.45 51.189-294.96 105.2-433.87 24.223-64.955 54.342-127.81 74.503-194.17 24.62-80.54 30.916-165.73 27.508-249.63-4.2791-75.283-19.341-151.72-54.089-218.82-31.755-59.95-82.789-110.84-146.74-135.44-47.234-19.736-98.782-28.762-149.99-27.503z"/>
  <path d="m1132.1 961.35s60.138 15.52 244.43-137.74c184.29-153.26 300.69-337.55 543.18-250.25 242.49 87.298 209.51 461.71 168.77 585.86-40.738 124.16-178.47 389.93-180.41 636.3-1.9399 246.37 73.717 469.47 116.4 527.67-65.958-1.9399-120.28-42.679-228.91-166.84-67.898-69.838-207.57-124.16-323.97-95.058 87.782-70.808 190.11-89.238 190.11-89.238s-106.7-15.52-250.25 120.28-188.17 256.07-269.65 271.59c42.678-110.58 85.357-209.51 42.678-432.61-42.678-223.09-155.19-333.67-242.49-424.85-87.297-91.178-195.93-275.47-143.55-428.73 52.378-153.26 182.35-283.23 432.6-172.66-29.099 25.219-98.936 56.258-98.936 56.258z" fill="#afe"/>
  <path d="m1666.1 667.71c-35.782-0.11363-71.032 12.117-101.34 37.579-52.174 43.827-135.62 93.121-201.75 129.45-173.65 141.29-230.85 126.59-230.85 126.59s33.274-14.786 63.469-32.253c-18.979-7.44-171.53-60.5-281.99 106.47-117.97 178.33 87.808 452.65 233.21 628.24 145.4 175.58 145.42 414.25 98.779 488.33-46.639 74.074 115.19-93.283 246.87-186.56 131.69-93.279 233.2-20.576 231.83 0-1.3719 20.576-87.789 27.478-74.072 28.85 13.717 1.3717 162.78 84.336 147.26 26.137-15.519-58.199-31.025-135.77 27.173-469.44s93.129-554.82 38.811-713.9c-37.344-109.36-118.69-169.25-197.41-169.5z" fill="#fff"/>
  <path transform="matrix(1.5833 -.20978 .20407 1.5402 -6418.1 940.07)" d="m4806.4 940.34c0 16.136-8.4162 29.216-18.798 29.216s-18.798-13.081-18.798-29.216 8.4163-29.216 18.798-29.216 18.798 13.081 18.798 29.216z"/>
  <path d="m1319.8 1446.6s-22.16-34.312-35.741-27.164c-5.258 2.7676-1.3847 8.0018 3.5454 10.203 7.8043 3.4838 21.682 4.6945 32.196 16.961z"/>
  <path d="m1292.3 1445.2s-33.715-23.057-43.47-11.208c-3.7765 4.5872 1.8211 7.9137 7.2188 8.0343 8.5445 0.1906 21.808-4.0659 36.251 3.1734z"/>
  <path d="m1610.5 1398.5s4.3052-40.618 19.651-40.363c5.941 0.099 4.8444 6.5173 1.4366 10.705-5.3945 6.629-17.235 13.968-21.087 29.658z"/>
  <path d="m1634.4 1384.9s19.695-35.783 33.745-29.607c5.4393 2.3913 1.9398 7.8855-2.8199 10.426-7.5402 4.0235-21.298 6.206-30.925 19.181z"/>
  <path transform="matrix(.51556 .098442 -.095762 .50153 -1035.8 418.92)" d="m4806.4 940.34c0 16.136-8.4162 29.216-18.798 29.216s-18.798-13.081-18.798-29.216 8.4163-29.216 18.798-29.216 18.798 13.081 18.798 29.216z" fill="#fff"/>
  <path transform="matrix(1.95 -.001453 -.056566 2.1007 -7724.9 -633.83)" d="m4806.4 940.34c0 16.136-8.4162 29.216-18.798 29.216s-18.798-13.081-18.798-29.216 8.4163-29.216 18.798-29.216 18.798 13.081 18.798 29.216z"/>
  <path transform="matrix(.60222 .22306 -.21398 .65538 -1133.6 -381.38)" d="m4806.4 940.34c0 16.136-8.4162 29.216-18.798 29.216s-18.798-13.081-18.798-29.216 8.4163-29.216 18.798-29.216 18.798 13.081 18.798 29.216z" fill="#fff"/>
  <path d="m2210 1175c33.937 0.7051 58.485 33.45 61.546 65.245 8.1522 40.601 0.2624 85.016-25.545 117.77-0.8682 2.4596-3.8652 10.1 1.4301 7.496 24.787-4.3482 47.942 9.58 64.998 26.236 20.201 18.147 42.245 35.952 54.937 60.412 9.0022 18.76 9.8813 40.385 7.2 60.708 3.3492 24.215 23.122 46.813 14.055 72.001-6.1928 25.074-28.858 40.099-48.28 54.642-8.6312 12.184-7.1817 30.892-21.6 39.009-11.324 8.4046-26.096 11.642-34.74 23.711-15.64 16.934-34.14 36.276-58.762 36.75-34.257 3.2547-70.165-8.2447-95.241-31.805-3.777-3.1513-6.7274-10.7-11.576-10.755-17.923 7.4856-35.615-7.5847-46.011-20.811-28.145-35.478-31.394-86.791-15.337-128.22 6.8307-16.123 18.369-30.832 34.324-38.713 4.6642-60.684 22.61-119.69 47.786-174.78 10.485-28.189 11.619-58.57 9.841-88.32 1.6889-26.536 11.97-57.876 39.179-67.814 7.0026-2.3186 14.424-3.0259 21.797-2.7617z"/>
  <path d="m2207.3 1190.8c26.27-0.088 45.43 21.074 49.808 59.228 5.0038 43.605-3.5796 67.175-15.732 85.76-21.444-15.012-30.063-15.681-45.074-11.392 12.867 0.7149 28.607 2.1022 40.044 19.973-3.574 5.0038-5.7206 10.751-5.7206 10.751s-17.143-12.868-35.014-2.8603c21.445 3.5741 32.894 10.702 32.894 10.702s8.5495 13.589-8.6063 20.022-70.384 43.589-65.38 94.342c-15.607 8.331-15.726 17.784-17.428 37.856-2.7277 32.154-5.0942 48.668 2.7456 51.504-11.437 17.156-24.307 40.771-7.1508 72.938-8.5777 15.012-11.44 26.461-10.011 34.324-17.87-24.304-29.262-77.95-11.392-97.251l17.852-19.282s-15.733 4.9834-21.452 12.132c-6.4334-42.175 3.5617-133.67 35.014-202.29 31.452-68.624 21.452-108.64 21.452-108.64s-0.7039-59.329 31.463-66.478c4.021-0.8935 7.935-1.319 11.688-1.3314zm50.844 189.77c21.3 0.1635 37.989 17.577 68.302 45.321 42.175 38.601 32.868 64.338 32.154 79.349-0.7149 15.012 7.1508 35.754 7.1508 35.754 26.448 44.32-10.758 68.578-30.773 82.16s-11.066 35.783-30.724 46.505c-17.513 11.437-17.146 4.2511-42.165 32.844-25.019 28.593-60.031 26.476-101.49 7.8906-41.46-18.586-25.051-57.186-20.762-67.908 12.867 7.1483 31.492 12.132 43.644 12.132s18.573 4.3213 35.014 22.192c-12.867-42.175-50.753-24.343-73.628-39.354-22.874-15.011-11.436-44.318 2.8603-66.478 14.296 6.4337 32.852 4.3139 55.726 0.7397 22.874-3.574 38.975 9.6329 48.625 20.713-5.0036-12.152-19.287-24.314-33.584-28.603-14.297-4.2888-42.911 9.2935-62.926 1.4303-20.015-7.8631-11.441-25.728-11.441-52.176 1e-4 -26.449 15.041-30.033 15.041-30.033s44.318-15.708 69.694-18.568c27.048-3.0479 43.96 17.883 63.26 33.609-42.175-57.901-67.189-42.922-130.09-22.192-5.7185-43.605 29.307-67.175 67.907-87.19 10.856-5.6293 19.874-8.2011 28.208-8.1371zm-162.59 145.41s-2.168 37.855 2.1211 53.582c-7.1484 27.878-2.8529 74.352 18.592 97.941-6.4334 11.437-17.858 4.2836-35.014-15.732-17.156-20.015-27.19-82.197-5.0302-117.22 10.186-13.582 15.936-16.601 19.331-18.567z" fill="#fff"/>
  <path d="m2251.8 1397.6c3.5382 0.5055 5.0177 3.5388-0.5424 14.154-5.5599 10.615-4.0439 23.277-4.0439 23.277-9.6036-10.615 1.048-37.936 4.5863-37.431zm-19.825 2.4658c2.4053 0.2443 4.0598 4.1058 1.6273 9.6659-3.5381 8.0874-0.5426 20.713-0.5426 20.713-4.0435-3.0326-8.0752-23.253-4.537-28.307 1.1058-1.5795 2.3588-2.1824 3.4523-2.0713zm-9.8139 87.98c0.8421 0.1247 1.5382 0.6028 2.0713 1.2328 1.6614 1.9636 1.8582 5.741-4.2904 10.455-15.164 11.626-5.5727 41.425-5.5727 41.425-11.12-19.713-8.5929-37.419 0-48.034 3.3192-4.1002 5.9393-5.3555 7.7918-5.0796zm-21.403 9.7151c1.4686-0.054 2.5659 1.7517 0.9863 6.0167-2.5273 6.8238-0.2466 22.981-0.2466 22.981-6.3181-8.5928-5.0731-23.74-3.3041-27.025 0.6635-1.2321 1.6834-1.94 2.5644-1.9727zm-6.7563 94.44c2.2181-0.052 3.1739 3.8984 1.1836 7.5946-3.5382 6.5709-7.3542 9.8703-7.1014 29.836 0 0-6.2996-12.392-0.7397-28.061 2.4325-6.8553 4.9325-9.3295 6.6575-9.37zm-11.638 3.6493c1.9015-0.2533 3.1073 1.949 0.6906 6.2138-4.2964 7.5821-3.0577 19.973-3.0577 19.973s-4.2964-13.377-2.0219-20.959c0.9952-3.317 2.9102-5.0305 4.389-5.2275zm-6.9534 76.44c0.096-0.016 0.1932 0.017 0.2959 0.049 3.2854 1.0111 2.0465 4.5129 1.0357 11.589-1.0109 7.0766 2.0219 14.943 2.0219 14.943-6.3657-6.8555-6.349-26.293-3.3535-26.581z"/>
  <path d="m1263.4 1507.4s56.241 266.12 222.22 260.63c165.98-5.4871 211.25-267.49 204.39-362.14-40.367 57.545-72.102 140.02-203.67 150.98-93.019 7.7519-172.97 1.9911-222.94-49.475z" stroke="#000" stroke-width="1px"/>
  <path d="m1602.6 1528c-12.135 8.714-25.311 16.011-39.699 21.304-55.44 21.598-116.48 20.816-175.17 18.444-13.636-1.1483-27.369-3.1288-40.833-6.1644 3.2567 25.372 12.464 66.5 38.663 83.048 39.094 24.692 206.44-13.743 214.67-33.634 4.9399-11.938 3.9484-52.444 2.3672-82.998z" fill="#fff"/>
  <path d="m1556.5 1677.3c-18.274-0.1436-39.652 4.6999-63.272 18.444 13.717 7.2015 21.291 12.996 26.778 24.313 0 0-75.192-47.571-153.03-17.408 6.4203 7.1017 13.207 13.877 20.416 20.318 35.596 30.511 86.485 44.63 131.87 30.477 35.034-10.39 63.308-34.153 84.872-63.075-11.463-6.8266-27.709-12.912-47.639-13.069z" fill="#f00"/>
  <path d="m1245.6 1109.8 17.459 49.469s-57.228-12.61-71.777 55.289c-28.129-29.099-36.858-39.769-36.858-39.769s20.369-83.418 91.177-64.988z"/>
  <path d="m1564.3 1045.4-5.0995 52.211s52.54-25.953 82.933 36.482c20.338-34.991 26.258-47.441 26.258-47.441s-39.761-76.108-104.09-41.252z"/>
  <path d="m770.63 1639.5c-4.9017 0.1484-8.8647 1.2737-11.441 3.6988 11.639 1.455 20.242 1.2156 31.71 13.71 0 0-31.196-18.16-50.4 2.4166-5.1441 8.2305-8.5924 13.7-10.307 27.074-1.7148 13.375 4.101 30.846-31.907 71.656 0.34292 7.8876 16.821 33.306 39.798 36.05 22.976 2.7433 58.298-13.034 66.872-44.927 8.5733-31.893 1.0355-50.45 1.0355-50.45s7.1847 3.7791 12.329 23.326c10.288 7.2017 15.065 4.5975 25.249 57.946 10.185 53.349 28.159 174.09 28.159 174.09s53.823-37.341 22.784-119.79c14.064 25.219 31.976 60.161-4.8823 109.63 25.704-2.4248 69.394-21.34 75.699-79.053 6.3048-57.714-14.066-155.23-67.414-142.62 6.7897 35.889 6.782 69.378-3.4027 86.352 3.8797-54.318-9.2367-123.21-27.666-133.4-15.55-8.5934-69.746-36.509-96.214-35.705zm-49.266 48.823c-101.36 7.7599-89.738 61.092-82.948 86.796 32.009 54.319 73.232 32.015 87.781 23.77-37.344-22.794-38.318-42.658-38.318-42.658s8.7272-8.743 26.187-32.992c-10.185-16.975-50.4-2.9096-50.4-2.9096 18.429-14.065 46.051-11.138 54.296-7.7426-0.17658-5.8786 3.427-12.673 3.4027-24.264zm66.428 98.435c-10.185 8.7298-28.609 19.423-52.373 16.028-11.155 9.6997-42.688 21.305-67.907 9.6659-1.455 3.3949-7.252 28.659 18.937 46.604 25.219 14.065 95.054 19.359 108.15-5.3754 13.095-24.734 21.809-50.917-6.8054-66.922zm-101.84 78.56s-11.133 38.308 27.666 58.193c38.798 19.884 78.082 0.9876 84.872-13.562 6.7897-14.55 5.3272-34.414-6.3124-42.658-16.004 4.8499-48.027 20.337-106.23-1.9726zm33.929 70.324c-0.97006 2.4252-19.859 39.804-10.159 60.659 9.6996 20.854 53.359-3.4029 53.359-3.4029l2.9094-54.346s-18.951 8.2452-46.11-2.9097z" fill="#fff"/>
  <path d="m654 779.41c-2.3046 0.0205-4.7073 0.34324-7.1508 0.98632-20.862 5.4899-67.806 4.4062-86.351 3.748 9.7064 11.14 17.554 24.125 23.918 37.283 30.734 63.782 32.199 136.56 38.959 205.94 6.4957 76.099 25.976 149.78 44.828 223.6 2.4194 3.5506 4.8422 7.1296 7.2493 10.702 13.718-4.5101 34.515-11.124 61.25-18.986 15.089-159.12-31.562-303.84-31.562-303.84l-64.455-5.5234 63.074-24.658c-1.6e-4 0-5.4476-64.489-8.8768-84.379-3.1079-18.026-18.605-45.071-40.883-44.877z" fill="#fff"/>
  <path d="m470.19 798.79s13.452-15.374 30.108-10.89c16.655 4.4842 27.545 25.624 33.951 68.543 6.4059 42.92 12.812 145.41 12.812 145.41s-19.218-72.387-28.827-112.1-24.343-96.729-48.044-90.964z" fill="#f55"/>
 </g>
</svg>
