<?xml version="1.0" encoding="utf-8"?>
<!-- Generator: Adobe Illustrator 24.0.2, SVG Export Plug-In . SVG Version: 6.00 Build 0)  -->
<svg version="1.1" id="Warstwa_2" xmlns="http://www.w3.org/2000/svg" xmlns:xlink="http://www.w3.org/1999/xlink" x="0px" y="0px"
	 viewBox="0 0 1943.1497803 2160" style="enable-background:new 0 0 1943.1497803 2160;" xml:space="preserve">
<style type="text/css">
	.st0{fill:#84CEEE;stroke:#000000;stroke-width:4.381;stroke-miterlimit:10;}
	.st1{fill:#ADDDF0;stroke:#000000;stroke-width:4.381;stroke-miterlimit:10;}
	.st2{fill:none;stroke:#000000;stroke-width:6.2470474;stroke-miterlimit:10;}
	.st3{fill:#A1CBED;stroke:#000000;stroke-width:4.3813334;stroke-miterlimit:10;}
	.st4{fill:#A1CBED;stroke:#000000;stroke-width:4.381;stroke-miterlimit:10;}
	.st5{fill:#A3D9F1;stroke:#000000;stroke-width:4.381;stroke-miterlimit:10;}
	.st6{fill:#FFFFFF;stroke:#000000;stroke-width:6.2470474;stroke-miterlimit:10;}
	.st7{fill:#FFFFFF;}
	.st8{fill:#E0EEF8;}
	.st9{fill:#D46093;stroke:#000000;stroke-width:4.3813334;stroke-miterlimit:10;}
	.st10{fill:#DEACB8;stroke:#000000;stroke-width:4.3813334;stroke-miterlimit:10;}
	.st11{fill:none;stroke:#000000;stroke-width:4.3813334;stroke-miterlimit:10;}
</style>
<g>
	<rect y="1080" class="st0" width="1943.1497803" height="1080"/>
	<rect y="0" class="st1" width="1943.1497803" height="1080"/>
	<path class="st2" d="M1486.4143066,1885.1789551c0,0-0.8920898,96.3426514,156.1108398,45.4951172l151.6503906-63.3363037
		c0,0,52.6317139-31.222168,43.7110596,16.0571289c-8.9206543,47.2791748,105.2631836,17.9631348,105.2631836,17.9631348"/>
	<path class="st2" d="M1639.263916,1410.0543213c0,0,55.541626-5.428833,77.6748047-24.6386719
		c0,0-1.2528076,70.1578369,218.8256836,19.2098389"/>
	<path class="st2" d="M191.5283203,1182.9711914c0,0,62.8818512-9.5275879,85.7479858-23.5012207
		c0,0-7.6220398,46.3673096,92.7348328,38.1101074s125.12854-18.5625,125.12854-18.5625"/>
	<path class="st2" d="M47.0264435,1464.7635498l96.5439606-26.7352295
		c12.5419006-3.4731445,25.3864899-5.7950439,38.3689423-6.6994629c17.543869-1.22229,38.0670319-0.2457275,42.6446991,10.130249
		c8.322998,18.8656006,37.1761169,20.5301514,37.1761169,20.5301514s19.9752197,2.2194824,61.0354309-5.5487061
		c33.5539856-6.3480225,88.5993652-19.3660889,107.6036377-23.9135742c3.3918457-0.8116455,6.7564087-1.6972656,10.1188354-2.623291
		c13.1809387-3.6300049,61.4204407-14.3647461,90.9077148,13.2200928
		c34.4017334,32.182251,133.1681519,21.6397705,133.1681519,21.6397705l141.4912109-19.1612549"/>
	<path class="st2" d="M0,1882.9329834l74.7576904-34.6437988c7.9631577-3.6901855,16.4242172-6.2539063,25.1344986-7.3312988
		c8.1800766-1.0117188,16.8752213-0.71875,20.6257858,3.9694824c5.2507782,6.5634766,2.5330887,19.1571045,0.0442276,27.0396729
		c-2.8389359,8.991333-2.968399,18.6779785,0.1507492,27.5759277c5.9801178,17.0594482,24.0439758,37.3116455,77.3165741,29.3968506
		c87.5130463-13.0018311,210.5313873-80.0118408,210.5313873-80.0118408s17.8876648-9.0664063,32.0507813-9.3604736
		c7.564209-0.1569824,14.0143127,5.604248,14.9733887,13.1091309c2.4653931,19.2919922,16.5805054,69.8840332,96.9973145,61.7611084
		c99.0147705-10.0015869,166.0247803-24.5036621,166.0247803-24.5036621"/>
	<path class="st3" d="M1422.6260986,519.4436646c52.7019043-62.6161499,121.105957-89.9024048,164.8106689-101.546875
		c19.6713867-5.2411499,39.9766846-7.5467834,60.3339844-7.4372559
		c45.8946533,0.2469177,45.5544434-20.1958008,37.939209-36.5894775
		c-5.2070313-11.2094116-13.7878418-20.489624-24.1707764-27.1947632
		c-244.9825439-158.2062073-422.8564453-7.0133972-422.8564453-7.0133972L1422.6260986,519.4436646z"/>
	<path class="st3" d="M796.0882568,772.8161011c0,0-94.8476563,67.4837646-100.1168213,169.1030884
		c-3.4145508,65.8525391,11.821228,87.1339111,22.9692383,93.956665c5.0863037,3.112915,11.7359009,1.2644043,14.6300659-3.949585
		c12.8526611-23.1544189,59.2119141-96.5,143.057251-122.3596802
		c100.1138306-30.8771973,119.6849365-71.0653687,119.6849365-71.0653687L796.0882568,772.8161011z"/>
	<path class="st4" d="M603.3355713,253.9886017c0,0,210.357666-109.862915,486.2923584,0
		s389.2042236,353.4349365,389.2042236,353.4349365s110.7145996,160.9619141,71.5386963,476.0725708
		c0,0-18.7363281,184.8081055-68.9836426,290.4127197c0,0,169.0098877,51.916748,132.5839844,237.2141113
		c0,0-29.2991943,102.151001-98.9836426,112.4453125c0,0-26.9234619,9.5024414-10.2941895-34.050293
		c4.1573486-10.8884277,5.2460938-21.9251709,4.5407715-32.3557129
		c-1.9425049-28.7265625-17.9445801-54.6119385-42.182251-70.1530762
		c-32.1376953-20.6066895-89.6514893-63.3382568-100.9356689-111.2957764c0,0-2.4250488,1.4847412-6.6937256,3.7861328
		c-29.1054688,15.6916504-61.4847412,24.3415527-94.5311279,25.4810791l-13.1337891,0.4528809
		c-5.4975586,0.1895752-10.9991455,0.1004639-16.4931641-0.1719971
		c-12.8842773-0.6390381-45.2304688,0.9785156-73.8238525,28.7565918
		c-9.8095703,9.5297852-17.0853271,21.3145752-21.8198242,34.1453857
		c-5.2896729,14.3353271-17.4660645,34.0838623-38.7805176,0.9903564
		c-30.0909424-46.7202148,2.3756104-141.7445068,2.3756104-141.7445068s52.2633057-135.4095459,240.7281494-93.4404297
		c0,0,0.6931152-198.9205322-123.9698486-325.564209c-10.2844238-10.447876-20.1567383-21.2928467-29.7888184-32.3450928
		c-42.8436279-49.1608276-196.763855-192.1096191-548.4744873-207.8411255c0,0-127.8157349,120.1742554-195.4978027,112.885437
		c-35.9560852-3.8721924-44.288208-31.8418579-44.1990662-57.2126465c0.0733337-20.8743896,5.8935852-41.3269043,16.3237-59.4089355
		l16.1318359-27.9667358c0,0-116.0401306,30.0559692-185.4729004-3.8563232
		c-13.7821808-6.7314453-24.9133148-18.0536499-30.7903748-32.2212524
		c-7.4726563-18.0140381-8.0245361-43.2630005,31.4572601-61.6331177
		c7.2272491-3.3627319,14.3699799-6.8901367,21.3363495-10.7644653
		c36.7942505-20.4630127,139.934845-78.7277222,177.2957153-109.2957153
		C448.2955322,518.7446899,439.7494507,344.302887,603.3355713,253.9886017z"/>
	<path class="st5" d="M1399.8666992,1894.5200195c59.2523193-19.1507568,100.6191406-49.9891357,115.7734375-62.4630127
		c6.8839111-5.6662598,11.5614014-13.6760254,12.6230469-22.5285645
		c2.0378418-16.993042-8.4897461-40.4572754-82.8564453-39.4656982
		c-116.0847168,1.5477295-178.7703857,80.4853516-178.7703857,80.4853516
		c51.8510742-61.9118652,20.1213379-66.5552979,20.1213379-66.5552979
		c-86.6766357,0.7739258-105.7751465,108.8051758-105.7751465,108.8051758s-19.7619629-238.9388428-173.3654785-317.9863281
		c-153.6035156-79.0473633-201.5319214-4.491333-201.5319214-4.491333s-44.7008667,63.8988037,222.9292603,229.2819824
		c0,0-142.678772-68.2233887-220.4035034,24.2583008c-14.9951782,17.8421631-12.6768188,44.7481689,5.3586426,59.510376
		c14.7293091,12.0560303,41.1140747,23.0430908,87.6802979,27.7653809
		c64.9766846,6.5891113,111.6100464,10.9436035,141.7473755,13.6317139
		c29.2602539,2.6099854,58.2593994,7.5308838,86.7440186,14.7144775h0.0001221
		c4.1286621,1.0412598,3.7438965,7.0404053-0.4863281,7.5258789c-22.729248,2.6086426-55.2557373,9.6860352-69.5948486,28.8657227
		c-5.7310791,7.6657715-1.5407715,18.6844482,7.8088379,20.7321777
		c21.4664307,4.7015381,63.5310059,8.8912354,106.3562012-15.0618896l11.5731201,8.7617188
		c14.0842285,10.6627197,30.2214355,18.4031982,47.4698486,22.2172852
		c53.0506592,11.7307129,75.8239746-20.0147705,75.8239746-20.0147705
		c73.4525146,6.9194336,100.0657959-14.9033203,100.0657959-14.9033203
		c25.6203613-26.020752-18.0079346-36.3852539-41.2128906-39.9248047c-6.130249-0.9350586-9.3569336-7.7788086-6.1607666-13.0928955
		l0,0C1370.3979492,1910.2663574,1383.9645996,1899.659668,1399.8666992,1894.5200195z"/>
	<path d="M730.7212524,359.1096191c-4.4137573-9.4293518-12.7772827-15.8744202-20.7897339-20.1416016
		c-12.3164063-6.5593872-26.4136353-9.1827393-40.2835693-7.6517944
		c-35.4072266,3.9082336-27.8893433,33.2962341-27.8893433,33.2962341s22.0113525-14.2156982,50.442749-11.4642639
		C720.6326904,355.8996277,730.7212524,359.1096191,730.7212524,359.1096191z"/>
	<g>
		<path class="st2" d="M608.0800171,575.3955078c0,0,17.5255737-33.7722168,122.6412354-6.5896606"/>
		<path class="st6" d="M724.9363403,567.3536377c10.2272339-16.1818848,16.4466553-37.4438477,16.4466553-60.7498779
			c0-50.6637878-29.3369751-91.7349243-65.526123-91.7349243c-36.1890869,0-65.5259399,41.0711365-65.5259399,91.7349243
			c0,21.5969849,5.3442993,41.4354248,14.2646484,57.1077881
			C640.3822021,557.6334229,670.2086182,553.9550171,724.9363403,567.3536377z"/>
		<path d="M741.3280029,503.0550232c-1.3710938-31.7256775-24.2713623-56.7533569-51.3917236-56.7533569
			c-28.4182739,0-51.4557495,27.4660339-51.4557495,61.3471069c0,20.9999084,8.8553467,39.5274353,22.3515015,50.5860291
			c16.1826782,0.0595093,37.1125488,2.5084229,64.1133423,9.1188354
			c9.4553833-14.9608154,15.4733276-34.2684326,16.329895-55.5145569c0.0261841-0.8148804,0.0487671-1.6504517,0.0710449-2.4873047
			c0.0192261-0.9146423,0.0457764-1.8268433,0.0457764-2.7480164
			C741.3920898,505.4136047,741.3600464,504.2341919,741.3280029,503.0550232z"/>
		
			<ellipse transform="matrix(0.5400541 -0.8416303 0.8416303 0.5400541 -94.0081253 772.6156006)" class="st7" cx="659.8798218" cy="472.3180237" rx="21.2994347" ry="13.1749086"/>
	</g>
	<path class="st8" d="M1410.3862305,1339.2928467c23.3833008-189.8483887-53.8259277-340.1132202-116.654541-427.5975952
		c-45.467041-63.3093262-108.395752-112.1538696-181.4196777-139.4081421
		c-4.282959-1.5985718-8.3251953-3.0211792-12.1308594-4.2871704
		c-35.9353027-11.9535522-71.5378418-24.9049683-106.4523315-39.574585
		c-86.9301758-36.524353-195.3806152-57.1499023-195.3806152-57.1499023
		c3.8532715-7.2901001,6.4298096-13.6829834,8.046875-19.2758789c5.1606445-17.8497314-5.5853271-36.2546387-23.6156006-40.7444458
		c-75.5858154-18.8220215-134.038208,24.1901245-134.038208,24.1901245
		c-24.1934814,14.6665649-44.9610596,34.3348999-60.9432373,57.6801147
		c-46.0021973,67.1954956-149.3171387,201.8188477-184.1900635,112.1491089l-1.5899658,17.9777222
		c-0.2313232,25.5380249,7.9367676,53.9469604,44.1950684,57.8516846
		c67.6820068,7.2888184,195.4978027-112.885437,195.4978027-112.885437
		c351.7105713,15.7315063,505.6306763,158.6802979,548.4744263,207.8411255
		c9.6320801,11.0523071,19.5043945,21.8972778,29.7890625,32.3452148
		c124.6625977,126.6436768,123.9694824,325.5640869,123.9694824,325.5640869
		c2.5649414,2.8583984,12.9321289,13.7408447,30.2666016,15.8137207
		C1393.9228516,1352.1397705,1407.8500977,1341.3354492,1410.3862305,1339.2928467z"/>
	<path d="M1412.5598145,1339.5605469l-4.3476563-0.5351563c22.9550781-186.3730469-50.5527344-334.5585938-116.2597656-426.0522461
		c-45.7666016-63.7270508-108.1503906-111.6660156-180.40625-138.6337891
		c-4.0888672-1.5258789-8.1445313-2.9594727-12.0566406-4.2607422
		c-39.6660156-13.1943359-74.5380859-26.1586914-106.609314-39.6337891
		c-85.7128906-36.0131836-193.859375-56.8115234-194.9414063-57.0175781
		c-0.6831055-0.1298828-1.2636719-0.5761719-1.5649414-1.2021484c-0.3012695-0.6264648-0.2875977-1.3588867,0.0375977-1.9736328
		c3.5537109-6.7236328,6.2045898-13.0693359,7.8789063-18.8603516c2.3139648-8.0024414,1.3037109-16.3754883-2.8447266-23.5766602
		c-4.1865234-7.2675781-11.0039063-12.3935547-19.1953125-14.4331055
		c-38.4570313-9.5761719-72.3237305-2.6069336-93.9638672,4.9267578
		c-23.5170898,8.1875-38.1035156,18.7958984-38.2480469,18.9023438c-0.0517578,0.0380859-0.1064453,0.074707-0.1616211,0.1083984
		c-24.0683594,14.590332-44.3466797,33.7832031-60.2709961,57.0439453
		c-37.0024414,54.0493164-104.9570313,142.9384766-151.5585938,142.9423828
		c-1.3432617,0.0004883-2.6650391-0.0732422-3.9716797-0.2241211c-12.1162109-1.3959961-21.8554688-9.1914063-29.0288086-23.2089844
		l-0.8388672,9.4868164c-0.28125,33.8227539,13.9296875,52.5180664,42.2402344,55.5668945
		c65.8994141,7.1103516,192.4912109-111.1083984,193.762207-112.3037109
		c0.4316406-0.4047852,1.0073242-0.6196289,1.5981445-0.5922852
		c151.234375,6.7646484,282.7670898,37.5874023,390.9437866,91.6132813
		c88.03125,43.9648438,137.4570313,92.1611328,159.0839844,116.9770508
		c10.6308594,12.1967773,20.3447266,22.7451172,29.6992188,32.2480469
		c28.6054688,29.0595703,52.9560547,64.3491211,72.3769531,104.8876953
		c15.5205078,32.3974609,27.9443359,68.203125,36.9277344,106.4208984
		c15.2919922,65.0595703,15.2958984,115.2998047,15.2939453,115.7998047l-4.3808594-0.015625
		c0.0009766-0.4951172-0.0126953-50.3144531-15.2050781-114.8945313c-14-59.5087891-44.1240234-144.0966797-108.1357422-209.125
		c-9.4160156-9.5664063-19.1894531-20.1782227-29.8789063-32.4423828
		c-21.4140625-24.5722656-70.3818359-72.3085938-157.7392578-115.9360352
		c-107.4071655-53.6416016-238.0287476-84.2954102-388.2640991-91.1147461
		c-4.8588867,4.5029297-35.0561523,32.159668-71.9067383,58.7231445
		c-50.1635742,36.1606445-89.8808594,54.4438477-118.2133789,54.4458008c-2.2148438,0-4.355957-0.1118164-6.4311523-0.3349609
		c-30.5180664-3.2866211-46.4770508-24.0512695-46.1513672-60.0498047c0.0004883-0.0576172,0.0029297-0.1152344,0.0083008-0.1728516
		l1.5898438-17.9780273c0.0898438-1.0141602,0.8657227-1.8325195,1.8735352-1.9760742
		c1.0107422-0.1420898,1.9819336,0.4262695,2.3500977,1.375c6.7314453,17.3081055,16.4638672,26.8125,28.9277344,28.2480469
		c19.3833008,2.2382813,45.8154297-14.0712891,78.5732422-48.4575195
		c28.1835938-29.5844727,55.1669922-66.5673828,72.840332-92.3828125
		c16.2612305-23.753418,36.9638672-43.3569336,61.5341797-58.2670898
		c1.3354492-0.9702148,15.7382813-11.2172852,39.1689453-19.3974609c22.2338867-7.762207,57.0444336-14.9487305,96.6152344-5.09375
		c9.3574219,2.3295898,17.1469727,8.1889648,21.9331055,16.4975586c4.7480469,8.2421875,5.9047852,17.8237305,3.2573242,26.9804688
		c-1.5371094,5.3168945-3.8442383,11.0517578-6.8701172,17.0820313
		c17.8046875,3.5698242,114.6474609,23.8168945,192.9482422,56.7158203
		c31.9667358,13.4311523,66.7362671,26.3569336,106.2948608,39.515625c3.9619141,1.3178711,8.0683594,2.769043,12.2050781,4.3134766
		c73.0732422,27.2724609,136.1582031,75.7470703,182.4335938,140.1826172
		c39.7382813,55.3325195,70.3388672,114.5454102,90.9541016,175.9936523
		C1414.263916,1169.2734375,1423.0441895,1254.4453125,1412.5598145,1339.5605469z"/>
	<path class="st9" d="M434.4695435,736.515564l20.4519043-9.8479004l40.895874,74.6517944
		c-49.7838135,64.2600098-85.4372559,18.100769-85.4372559,18.100769c-1.21875-1.0969849-3.6853027-3.6190796-4.9976807-7.6886597
		c-1.05896-3.2836914-0.8981934-6.1226196-0.6911621-7.6948242c1.585083-8.5585327,4.1740723-18.6682739,8.4924316-29.6177368
		C419.5835571,758.1917725,427.6343384,745.5651245,434.4695435,736.515564"/>
	<path class="st3" d="M1058.6102295,741.2223511c0,0-55.4459839,102.3616943-6.7022705,249.8113403
		c37.2991943,112.8303223,96.1835938,149.6678467,121.7780762,160.7460938
		c5.9206543,2.5626221,12.5446777-1.6956787,12.7613525-8.1435547c1.008667-30.008667,6.8991699-110.2269287,40.0253906-199.5238647
		c42.0424805-113.3319702-47.5263672-192.847168-47.5263672-192.847168"/>
	<g>
		<path class="st10" d="M454.9214478,726.6676636c0,0-34.4855957,60.9000854-8.0710754,86.5808716
			c26.4144897,25.6807861,94.6751404-58.8861084,94.6751404-58.8861084l94.9202271-111.0487671L454.9214478,726.6676636z"/>
		<path class="st11" d="M525.1011963,694.4418945c0,0-28.356781,27.8233643-31.2917175,46.9005127"/>
	</g>
</g>
</svg>
