<?xml version="1.0" encoding="UTF-8" standalone="no"?>
<!-- Generator: Adobe Illustrator 24.0.2, SVG Export Plug-In . SVG Version: 6.00 Build 0)  -->

<svg
   version="1.1"
   x="0px"
   y="0px"
   viewBox="0 0 1943.1497803 2160"
   style="enable-background:new 0 0 1943.1497803 2160;"

   xmlns="http://www.w3.org/2000/svg">
<defs
   id="defs21"></defs>
	 
	 
	 <style
   type="text/css"
   id="style1">&#10;	.st0{fill:#84CEEE;stroke:#000000;stroke-width:4.381;stroke-miterlimit:10;}&#10;	.st1{fill:#ADDDF0;stroke:#000000;stroke-width:4.381;stroke-miterlimit:10;}&#10;	.st2{fill:none;stroke:#000000;stroke-width:6.2470474;stroke-miterlimit:10;}&#10;	.st3{fill:#A1CBED;stroke:#000000;stroke-width:4.3813334;stroke-miterlimit:10;}&#10;	.st4{fill:#A1CBED;stroke:#000000;stroke-width:4.381;stroke-miterlimit:10;}&#10;	.st5{fill:#A3D9F1;stroke:#000000;stroke-width:4.381;stroke-miterlimit:10;}&#10;	.st6{fill:#FFFFFF;stroke:#000000;stroke-width:6.2470474;stroke-miterlimit:10;}&#10;	.st7{fill:#FFFFFF;}&#10;	.st8{fill:#E0EEF8;}&#10;	.st9{fill:#D46093;stroke:#000000;stroke-width:4.3813334;stroke-miterlimit:10;}&#10;	.st10{fill:#DEACB8;stroke:#000000;stroke-width:4.3813334;stroke-miterlimit:10;}&#10;	.st11{fill:none;stroke:#000000;stroke-width:4.3813334;stroke-miterlimit:10;}&#10;</style>&#10;<path
   class="st3"
   d="m 1422.6261,519.44366 c 52.7019,-62.61615 121.106,-89.9024 164.8107,-101.54687 19.6714,-5.24115 39.9767,-7.54678 60.334,-7.43726 45.8946,0.24692 45.5544,-20.1958 37.9392,-36.58947 -5.2071,-11.20942 -13.7879,-20.48963 -24.1708,-27.19477 -244.9826,-158.2062 -422.8565,-7.01339 -422.8565,-7.01339 z"
   id="path7" /><path
   class="st3"
   d="m 796.08826,772.8161 c 0,0 -94.84766,67.48377 -100.11682,169.10309 -3.41456,65.85251 11.82122,87.13391 22.96923,93.95671 5.08631,3.1129 11.7359,1.2644 14.63007,-3.9496 12.85266,-23.1544 59.21191,-96.50003 143.05725,-122.35971 100.11383,-30.8772 119.68494,-71.06537 119.68494,-71.06537 z"
   id="path8" /><path
   class="st4"
   d="m 603.33557,253.9886 c 0,0 210.35767,-109.86291 486.29233,0 275.9347,109.86292 389.2043,353.43494 389.2043,353.43494 0,0 110.7146,160.96191 71.5386,476.07256 0,0 -18.7363,184.8081 -68.9836,290.4127 0,0 169.0099,51.9168 132.584,237.2141 0,0 -29.2992,102.151 -98.9837,112.4454 0,0 -26.9234,9.5024 -10.2941,-34.0503 4.1573,-10.8885 5.2461,-21.9252 4.5407,-32.3558 -1.9425,-28.7265 -17.9445,-54.6119 -42.1822,-70.153 -32.1377,-20.6067 -89.6515,-63.3383 -100.9357,-111.2958 0,0 -2.425,1.4847 -6.6937,3.7861 -29.1055,15.6917 -61.4848,24.3416 -94.5311,25.4811 l -13.1338,0.4529 c -5.4976,0.1896 -10.9992,0.1005 -16.4932,-0.172 -12.8843,-0.639 -45.2305,0.9785 -73.8238,28.7566 -9.8096,9.5298 -17.0854,21.3146 -21.8199,34.1454 -5.2896,14.3353 -17.466,34.0838 -38.7805,0.9903 -30.0909,-46.7202 2.3756,-141.7445 2.3756,-141.7445 0,0 52.2633,-135.4095 240.7282,-93.4404 0,0 0.6931,-198.9205 -123.9699,-325.5642 -10.2844,-10.4479 -20.1567,-21.29287 -29.7888,-32.34511 -42.8436,-49.16083 -196.76385,-192.10962 -548.47448,-207.84113 0,0 -127.81574,120.17426 -195.49781,112.88544 -35.95608,-3.8722 -44.28821,-31.84186 -44.19906,-57.21265 0.0733,-20.87439 5.89358,-41.3269 16.3237,-59.40894 l 16.13183,-27.96673 c 0,0 -116.04013,30.05597 -185.4729,-3.85632 -13.78218,-6.73145 -24.91331,-18.05365 -30.79037,-32.22126 -7.47266,-18.01403 -8.02454,-43.263 31.45726,-61.63311 7.22725,-3.36274 14.36998,-6.89014 21.33635,-10.76447 36.79425,-20.46301 139.93484,-78.72772 177.29571,-109.29571 0,-2e-5 -8.54608,-174.44182 155.04004,-264.75611 z"
   id="path9" /><path
   class="st5"
   d="m 1399.8667,1894.52 c 59.2523,-19.1507 100.6191,-49.9891 115.7734,-62.463 6.8839,-5.6663 11.5614,-13.676 12.6231,-22.5286 2.0378,-16.993 -8.4898,-40.4572 -82.8565,-39.4657 -116.0847,1.5478 -178.7703,80.4854 -178.7703,80.4854 51.851,-61.9119 20.1213,-66.5553 20.1213,-66.5553 -86.6766,0.7739 -105.7752,108.8052 -105.7752,108.8052 0,0 -19.7619,-238.9389 -173.3654,-317.9864 -153.60355,-79.0473 -201.53196,-4.4913 -201.53196,-4.4913 0,0 -44.70086,63.8988 222.92926,229.282 0,0 -142.67877,-68.2234 -220.4035,24.2583 -14.99518,17.8422 -12.67682,44.7482 5.35864,59.5104 14.72931,12.056 41.11408,23.0431 87.6803,27.7654 64.97669,6.5891 111.61006,10.9436 141.74736,13.6317 29.2603,2.61 58.2594,7.5309 86.744,14.7144 h 2e-4 c 4.1286,1.0413 3.7439,7.0404 -0.4864,7.5259 -22.7292,2.6087 -55.2557,9.6861 -69.5948,28.8657 -5.7311,7.6658 -1.5408,18.6845 7.8088,20.7322 21.4664,4.7016 63.531,8.8913 106.3562,-15.0619 l 11.5731,8.7618 c 14.0843,10.6627 30.2215,18.4032 47.4699,22.2172 53.0506,11.7308 75.824,-20.0147 75.824,-20.0147 73.4525,6.9194 100.0658,-14.9034 100.0658,-14.9034 25.6203,-26.0207 -18.008,-36.3852 -41.2129,-39.9248 -6.1303,-0.935 -9.357,-7.7788 -6.1608,-13.0929 v 0 c 8.6136,-14.3212 22.1803,-24.9279 38.0824,-30.0676 z"
   id="path10" /><path
   d="m 730.72125,359.10962 c -4.41375,-9.42935 -12.77728,-15.87442 -20.78973,-20.1416 -12.31641,-6.55939 -26.41364,-9.18274 -40.28357,-7.6518 -35.40723,3.90824 -27.88934,33.29624 -27.88934,33.29624 0,0 22.01135,-14.2157 50.44274,-11.46427 28.43134,2.75144 38.5199,5.96143 38.5199,5.96143 z"
   id="path11" /><g
   id="g14">&#10;		<path
   class="st2"
   d="m 608.08002,575.39551 c 0,0 17.52557,-33.77222 122.64123,-6.58966"
   id="path12" />&#10;		<path
   class="st6"
   d="m 724.93634,567.35364 c 10.22723,-16.18189 16.44666,-37.44385 16.44666,-60.74988 0,-50.66379 -29.33698,-91.73492 -65.52613,-91.73492 -36.18908,0 -65.52594,41.07113 -65.52594,91.73492 0,21.59698 5.3443,41.43542 14.26465,57.10779 15.78662,-6.07813 45.61304,-9.75653 100.34076,3.64209 z"
   id="path13" />&#10;		<path
   d="m 741.328,503.05502 c -1.37109,-31.72567 -24.27136,-56.75335 -51.39172,-56.75335 -28.41827,0 -51.45575,27.46603 -51.45575,61.3471 0,20.99991 8.85535,39.52744 22.3515,50.58603 16.18268,0.0595 37.11255,2.50843 64.11334,9.11884 9.45539,-14.96082 15.47333,-34.26843 16.3299,-55.51456 0.0262,-0.81488 0.0488,-1.65045 0.071,-2.4873 0.0192,-0.91465 0.0458,-1.82685 0.0458,-2.74802 0,-1.19016 -0.032,-2.36957 -0.0641,-3.54874 z"
   id="path14" />&#10;		&#10;			<ellipse
   transform="rotate(-57.312678,659.87984,472.31801)"
   class="st7"
   cx="659.87982"
   cy="472.31802"
   rx="21.299435"
   ry="13.174909"
   id="ellipse14" />&#10;	</g><path
   class="st8"
   d="m 1410.3862,1339.2928 c 23.3833,-189.8483 -53.8259,-340.11317 -116.6545,-427.59755 -45.4671,-63.30932 -108.3958,-112.15387 -181.4197,-139.40814 -4.2829,-1.59857 -8.3252,-3.02118 -12.1308,-4.28717 -35.9354,-11.95355 -71.5379,-24.90497 -106.45238,-39.57459 -86.93017,-36.52435 -195.38061,-57.1499 -195.38061,-57.1499 3.85327,-7.2901 6.42981,-13.68298 8.04687,-19.27588 5.16065,-17.84973 -5.58533,-36.25464 -23.6156,-40.74444 -75.58582,-18.82202 -134.03821,24.19012 -134.03821,24.19012 -24.19348,14.66657 -44.96106,34.3349 -60.94324,57.68012 -46.00219,67.19549 -149.31713,201.81884 -184.19006,112.14911 l -1.58996,17.97772 c -0.23133,25.53802 7.93676,53.94696 44.19506,57.85168 67.68201,7.28882 195.49781,-112.88544 195.49781,-112.88544 351.71057,15.73151 505.63072,158.6803 548.47442,207.84113 9.6321,11.05231 19.5044,21.89728 29.7891,32.34523 124.6626,126.6437 123.9694,325.5641 123.9694,325.5641 2.565,2.8584 12.9322,13.7408 30.2666,15.8137 19.7125,2.3572 33.6397,-8.4472 36.1758,-10.4898 z"
   id="path15" /><path
   d="m 1412.5598,1339.5605 -4.3476,-0.5351 c 22.955,-186.3731 -50.5528,-334.5586 -116.2598,-426.05226 -45.7666,-63.72705 -108.1504,-111.66601 -180.4063,-138.63378 -4.0888,-1.52588 -8.1445,-2.95948 -12.0566,-4.26075 -39.666,-13.19433 -74.5381,-26.15869 -106.60931,-39.63379 -85.71289,-36.01318 -193.85938,-56.81152 -194.94141,-57.01757 -0.6831,-0.12989 -1.26367,-0.57618 -1.56494,-1.20215 -0.30127,-0.62647 -0.2876,-1.35889 0.0376,-1.97364 3.55371,-6.72363 6.20459,-13.06933 7.8789,-18.86035 2.31397,-8.00244 1.30372,-16.37549 -2.84472,-23.57666 -4.18653,-7.26758 -11.00391,-12.39355 -19.19531,-14.4331 -38.45704,-9.57617 -72.32374,-2.60694 -93.96387,4.92676 -23.51709,8.1875 -38.10352,18.79589 -38.24805,18.90234 -0.0518,0.0381 -0.10644,0.0747 -0.16162,0.1084 -24.06836,14.59033 -44.34668,33.7832 -60.271,57.04394 -37.00244,54.04932 -104.95703,142.93848 -151.55859,142.94239 -1.34326,4.8e-4 -2.66504,-0.0732 -3.97168,-0.22413 -12.11621,-1.39599 -21.85547,-9.1914 -29.02881,-23.20898 l -0.83887,9.48682 c -0.28125,33.82275 13.92969,52.51806 42.24024,55.56689 65.89941,7.11035 192.49121,-111.1084 193.76221,-112.30371 0.43164,-0.40479 1.00732,-0.61963 1.59814,-0.59229 151.23438,6.76465 282.76709,37.58741 390.94379,91.61329 88.0312,43.96484 137.457,92.16113 159.084,116.97705 10.6308,12.19677 20.3447,22.74511 29.6992,32.24808 28.6055,29.0595 52.9561,64.3491 72.377,104.8877 15.5205,32.3974 27.9443,68.2031 36.9277,106.4209 15.292,65.0595 15.2959,115.2998 15.2939,115.7998 l -4.3808,-0.016 c 10e-4,-0.4951 -0.013,-50.3144 -15.2051,-114.8945 -14,-59.5088 -44.124,-144.0967 -108.1357,-209.125 -9.4161,-9.5664 -19.1895,-20.17822 -29.879,-32.44238 -21.414,-24.57226 -70.3818,-72.30859 -157.7392,-115.93603 -107.40718,-53.6416 -238.02876,-84.29541 -388.26411,-91.11475 -4.85889,4.50293 -35.05615,32.15967 -71.90674,58.72315 -50.16357,36.16064 -89.88086,54.44384 -118.21338,54.4458 -2.21484,0 -4.35595,-0.11182 -6.43115,-0.33496 -30.51807,-3.28662 -46.47705,-24.05127 -46.15137,-60.04981 4.9e-4,-0.0576 0.003,-0.11523 0.008,-0.17285 l 1.58985,-17.97803 c 0.0898,-1.01416 0.86572,-1.83252 1.87353,-1.97607 1.01075,-0.14209 1.98194,0.42627 2.3501,1.375 6.73145,17.3081 16.46387,26.8125 28.92774,28.24805 19.3833,2.23828 45.81543,-14.07129 78.57324,-48.45752 28.18359,-29.58448 55.16699,-66.56739 72.84033,-92.38282 16.26123,-23.75341 36.96387,-43.35693 61.53418,-58.26709 1.33545,-0.97021 15.73828,-11.21728 39.16894,-19.39746 22.23389,-7.7622 57.04444,-14.94873 96.61524,-5.09375 9.35742,2.32959 17.14697,8.18897 21.9331,16.49756 4.74805,8.24219 5.90479,17.82373 3.25733,26.98047 -1.53711,5.31689 -3.84424,11.05176 -6.87012,17.08203 17.80469,3.56983 114.64746,23.8169 192.94824,56.71582 31.96675,13.43115 66.73625,26.35694 106.29485,39.51563 3.9619,1.31787 8.0684,2.76904 12.2051,4.31347 73.0732,27.27246 136.1582,75.74707 182.4336,140.18262 39.7383,55.33252 70.3389,114.54542 90.9541,175.99362 27.7988,82.8623 36.5791,168.0342 26.0947,253.1494 z"
   id="path16" /><path
   class="st9"
   d="m 434.46954,736.51556 20.45191,-9.8479 40.89587,74.6518 c -49.78381,64.26001 -85.43725,18.10077 -85.43725,18.10077 -1.21875,-1.09699 -3.68531,-3.61908 -4.99768,-7.68866 -1.05896,-3.28369 -0.8982,-6.12262 -0.69117,-7.69483 1.58509,-8.55853 4.17408,-18.66827 8.49243,-29.61773 6.39991,-16.22724 14.45069,-28.85389 21.28589,-37.90345"
   id="path17" /><path
   class="st3"
   d="m 1058.6102,741.22235 c 0,0 -55.446,102.3617 -6.7022,249.81134 37.2992,112.83031 96.1836,149.66781 121.778,160.74611 5.9207,2.5626 12.5447,-1.6957 12.7614,-8.1436 1.0087,-30.0086 6.8992,-110.2269 40.0254,-199.52383 42.0425,-113.33197 -47.5264,-192.84717 -47.5264,-192.84717"
   id="path18" /><g
   id="g20">&#10;		<path
   class="st10"
   d="m 454.92145,726.66766 c 0,0 -34.4856,60.90009 -8.07108,86.58088 26.41449,25.68078 94.67514,-58.88611 94.67514,-58.88611 l 94.92023,-111.04877 z"
   id="path19" />&#10;		<path
   class="st11"
   d="m 525.1012,694.44189 c 0,0 -28.35678,27.82337 -31.29172,46.90052"
   id="path20" />&#10;	</g>&#10;</svg>
