<?xml version="1.0" encoding="UTF-8" standalone="no"?>
<svg
   viewBox="0 0 439.99278 416.0342"
   version="1.1"
   id="svg56"
   width="439.9928"
   height="416.03421"
   xmlns="http://www.w3.org/2000/svg">
  <defs
     id="defs60" />
  <g
     id="g247"
     transform="matrix(0.88209493,0,0,0.88209493,-42.03477,-148.10605)">
    <path
       d="m 188.24,460.65 c -9.1726,-1.7599 -21.464,-4.5814 -36.305,-3.5713 -118.63,8.0745 51.889,47.588 61.5,19.376 4.0233,-11.81 -17.082,-17.003 -25.195,-15.805 z"
       fill="#b3b3b3"
       id="path2" />
    <path
       d="m 351.81,551.38 c 12.622,27.292 -22.009,18.347 -27.315,21.531 -8.9056,5.3441 24.579,2.483 30.047,4.1405 20.131,6.103 49.465,15.706 46.891,8.281 -0.89572,-2.5834 -30.911,-6.2939 -31.412,-9.9372 -1.0279,-7.4719 48.88,2.3762 45.07,-4.5546 -5.9275,-10.782 -38.26,4.9518 -46.436,-2.4843 -1.8536,-1.6858 18.645,-2.9168 16.389,-4.9686 -6.6287,-6.0288 -17.874,4.4465 -21.852,-0.41406 -1.2131,-1.4821 -5.9308,-26.454 -11.381,-11.593 z"
       fill="#ff7f00"
       id="path4" />
    <path
       d="m 295.79,532.43 c 34.345,28.284 46.467,33.335 52.528,28.284 6.0609,-5.0508 25.254,-8.0812 25.254,-8.0812 0,0 6.061,-17.173 -2.0203,-22.223 -8.0812,-5.0508 -72.731,0 -75.761,2.0203 z"
       fill="#999999"
       id="path6" />
    <path
       d="m 454.72,487.26 c 9.9386,-11.774 17.987,-51.926 14.647,-59.094 -6.9275,9.6499 -48.486,75.293 -70.206,88.388 13.604,2.011 46.764,-20.936 55.558,-29.294 z"
       fill="#007fff"
       id="path8" />
    <path
       d="m 503.33,266.23 c -6.7857,11.071 -21.772,76.931 -20.936,96.87 0.7594,18.123 2.5451,28.481 0.22183,44.558 -5.4568,37.762 -12.168,50.664 -50.74,89.235 -16.288,16.288 -32.806,24.821 -48.816,32.23 -13.492,6.2434 -51.046,22.23 -95.332,17.944 -44.286,-4.2857 -105.12,-11.174 -118.57,-12.857 -85.726,-10.729 -91.376,-32.534 -91.167,-32.733 8.7351,-8.3174 52.061,-16.848 79.32,-26.358 16.409,-5.7247 39.312,-10.568 29.163,-16.133 -9.7833,-5.3645 -49.403,-13.188 -35.888,-16.204 28.679,-6.4011 31.216,-7.9237 36.786,-10 21.868,-8.1522 19.736,-9.7694 38.44,-19.552 20.216,-10.573 15.132,-11.973 25.489,-16.52 32.763,-14.385 67.798,-57.024 107.86,-79.643 29.133,-16.45 50.897,-39.893 58.225,-50.837 3.8558,-5.7582 14.148,-18.603 16.061,-32.02 2.2654,-15.888 12.104,-31.756 31.429,-34.286 18.662,-2.4427 33.571,-1.1835 42.857,8.5714 8.473,8.9011 6.2189,17.156 5.7143,27.143 -1.1327,22.418 -2.2654,18.092 -10.112,30.592 z"
       fill="#b3b3b3"
       id="path10" />
    <path
       d="m 506.49,261.93 c 1.773,29.908 -22.515,83.412 -22.856,85.7 -3.9328,26.343 -70.321,-59.837 -119.44,-32.843 25.562,-16.45 37.851,-30.444 52.434,-47.092 4.5663,-5.2128 9.898,-13.665 15.347,-32.735 4.4089,-15.431 12.72,-31.135 31.786,-35.179 17.412,-3.6927 36.245,-0.7957 45.53,8.9592 8.473,8.9011 4.9742,18.018 4.4695,28.005 -1.1327,22.418 0.58124,12.684 -7.2654,25.184 z"
       fill="#007fff"
       id="path12" />
    <g
       transform="matrix(1.1779,0,0,1.178,1125.4,-434.73)"
       fill-rule="evenodd"
       id="g20">
      <path
         d="m -545.25,568.08 c 0,4.9311 -4.637,8.9286 -10.357,8.9286 -5.7201,0 -10.357,-3.9975 -10.357,-8.9286 0,-4.9311 4.637,-8.9286 10.357,-8.9286 5.7201,0 10.357,3.9975 10.357,8.9286 z"
         fill="#ffffff"
         id="path14" />
      <path
         d="m -546.39,569.06 c 0,3.1702 -2.6099,5.7402 -5.8295,5.7402 -3.2195,0 -5.8295,-2.57 -5.8295,-5.7402 0,-3.1702 2.6099,-5.7402 5.8295,-5.7402 3.2195,0 5.8295,2.57 5.8295,5.7402 z"
         id="path16" />
      <path
         d="m -550.79,566.38 c 0,2.4163 -2.2786,4.375 -5.0893,4.375 -2.8107,0 -5.0893,-1.9587 -5.0893,-4.375 0,-2.4163 2.2786,-4.375 5.0893,-4.375 2.8107,0 5.0893,1.9587 5.0893,4.375 z"
         fill="#ffffff"
         id="path18" />
    </g>
    <g
       transform="matrix(1.4742,0,0,1.1813,1268.7,-439.12)"
       fill-rule="evenodd"
       id="g28">
      <path
         d="m -509.24,569.86 c 0,4.3394 -1.679,7.8572 -3.75,7.8572 -2.071,0 -3.75,-3.5178 -3.75,-7.8572 0,-4.3394 1.679,-7.8571 3.75,-7.8571 2.071,0 3.75,3.5178 3.75,7.8571 z"
         fill="#ffffff"
         id="path22" />
      <path
         d="m -511.59,571.56 c 0,2.4004 -0.98654,4.3464 -2.2035,4.3464 -1.21696,0 -2.2036,-1.946 -2.2036,-4.3464 0,-2.4004 0.98657,-4.3464 2.2036,-4.3464 1.21703,0 2.2035,1.946 2.2035,4.3464 z"
         id="path24" />
      <path
         d="m -510.49,570.13 c 0,1.8245 -0.7995,3.3036 -1.7857,3.3036 -0.98621,0 -1.7857,-1.4791 -1.7857,-3.3036 0,-1.8245 0.7995,-3.3036 1.7857,-3.3036 0.98618,0 1.7857,1.4791 1.7857,3.3036 z"
         fill="#ffffff"
         id="path26" />
    </g>
    <path
       d="m 505.6,259.97 c -4.6501,3.8213 -22.981,0.17368 -22.981,-5.177 0,-0.4209 -0.50272,-0.3145 -0.12625,-0.12627 1.3196,0.6598 3.2711,0.68919 4.7982,1.1364 3.8805,1.1364 9.6765,0.35568 12.627,1.0102 1.8951,0.42035 4.493,1.8372 5.6821,3.1567 z"
       fill="#aa4400"
       id="path30" />
    <path
       d="m 508.13,241.03 c -1.3205,-7.3706 -16.24,-7.7751 -19.824,-4.4194 -0.64108,0.60025 -3.4978,2.5574 -2.2729,3.1567 2.1732,1.0633 9.0846,-1.325 12.248,-1.389 3.9286,-0.0794 7.6274,1.9656 9.9752,2.7779"
       fill="#ffffff"
       id="path32" />
    <path
       d="m 405.47,470.59 c -41.416,15.152 -85.863,37.376 -96.975,35.355 -11.112,-2.0203 -31.315,-10.102 -31.315,-10.102 28.435,24.424 117.82,21.531 128.29,-25.254 z"
       fill="#999999"
       id="path34" />
    <path
       d="m 255.46,540.29 c 26.264,24.749 36.367,29.63 44.952,28.284 8.9955,-1.4103 25.254,-8.0812 25.254,-8.0812 0,0 6.0609,-17.173 -2.0203,-22.223 -8.0812,-5.0508 -61.619,-2.5254 -68.185,2.0203 z"
       fill="#ececec"
       id="path36" />
    <path
       d="m 299.38,569.56 c 14.003,33.291 -24.418,22.38 -30.305,26.264 -9.8803,6.519 27.269,3.0289 33.335,5.0508 22.334,7.4447 54.879,19.159 52.023,10.102 -0.99374,-3.1514 -34.294,-7.6775 -34.85,-12.122 -1.1404,-9.1145 54.23,2.8986 50.003,-5.5558 -6.5762,-13.152 -42.447,6.0405 -51.518,-3.0305 -2.0565,-2.0565 20.686,-3.558 18.183,-6.0609 -7.3541,-7.3541 -19.83,5.424 -24.244,-0.50507 -1.3459,-1.8079 -6.5799,-32.269 -12.627,-14.142 z"
       fill="#ff7f00"
       id="path38" />
    <path
       d="m 506.36,260.4 c -6.1861,1.0497 -11.414,2.1504 -15.714,0 -2.0424,-0.36758 -6.1406,-1.9308 -7.3214,-3.5714 0,3.8055 6.8785,9.0213 9.2857,11.429 5.1456,3.4852 8.0805,7.6324 8.75,13.036 2.2423,0.0209 2.5755,-1.3153 3.9286,-5.1786 0.96304,-9.7027 1.7468,-9.8267 1.0714,-15.714 z"
       fill="#483737"
       id="path40" />
    <path
       d="m 367.25,313.08 c 41.475,-12.457 70.8,15.726 102.68,36.786 1.4825,0.74127 6.1656,4.013 9.8214,2.3214 0.18774,-0.0869 1.6659,1.0664 3.2143,-2.1428 -0.5224,3.7474 -0.099,9.0031 -0.53574,12.857 -1.4636,3.5399 -9.3979,0.6174 -17.857,-1.4286 -17.869,-5.1262 -31.87,-21.37 -46.964,-31.071 -15.047,-6.7011 -33.751,-16.554 -50.357,-17.321 z"
       fill="#c8b7b7"
       id="path42" />
    <path
       d="m 289.3,497.86 c -38.454,13.73 -79.249,19.383 -122.23,12.122 -5.2585,-0.88843 -37.744,-6.9717 -34.345,-13.132 10.788,-19.555 135.69,-8.3086 156.57,1.0102 z"
       fill="#00ffff"
       id="path44" />
    <path
       d="m 280.25,497.19 c -96.429,-1.4286 -105.68,2.3162 -132.82,-7.6838 -27.143,-10 -18.571,-11.429 -0.71429,-15.714 17.857,-4.2857 35,-5.7143 35,-5.7143 0,0 -19.734,-1.5966 -18.571,-8.5714 0.71429,-4.2857 15.844,-11.252 24.582,-12.561 7.5613,-1.1327 -16.33,-8.6867 -14.293,-10.931 2.4028,-2.648 46.472,-18.319 46.472,-18.319 0,0 -5.5769,1.1401 -8.1889,16.811 -2.7112,16.266 2.8552,24.685 12.684,35.296 9.6175,10.382 52.995,25.959 55.852,27.388 z"
       fill="#007fff"
       id="path46" />
    <path
       d="m 400.29,477.36 c -34.304,33.095 -101.72,34.888 -142.26,15.469 -35.296,-13.987 -62.275,-32.979 -48.63,-71.862 47.594,-38.497 85.329,-65.49 143.04,-60.036 48.343,1.6834 76.774,79.5 47.857,116.43 z"
       fill="#cccccc"
       id="path48" />
    <path
       d="m 491.71,237.5 c 10.466,-1.661 13.116,0.51762 20.077,6.8185 1.9205,3.3736 2.398,6.3637 2.9042,10.102 0.50507,5.0508 0.37878,8.3338 -2.9042,8.8388 -5.1396,0.79074 -3.5356,-3.5355 -9.5965,-5.8084 -4.8228,-1.8086 -7.0711,-0.25253 -12.879,-1.0101 -5.8084,-0.75763 -7.5762,-1.2627 -8.8388,-4.5457 -4.0652,-8.252 4.0739,-12.001 11.238,-14.395 z"
       fill="#ff7f2a"
       id="path50" />
    <path
       d="m 492.09,243.68 c -1.3646,-0.0627 -1.6244,0.67535 -1.8941,1.2627 -1.2856,2.8008 6.4397,5.0105 6.4397,4.0406 0,-0.75424 -3.2259,-2.342 -3.6618,-2.7779 -0.16382,-0.1638 3.3072,-1.6872 -0.88388,-2.5254 z"
       fill="#aa4400"
       id="path52" />
    <path
       d="m 503.68,239.33 c 3.75,1.9643 6.0714,5 7.3214,9.1071 1.1509,3.7816 1.6072,10.179 1.6072,10.179 -2.6555,-5.2192 -5.2016,-10.928 -10.536,-13.75 -5.076,-2.538 -7.1428,-5 -7.1428,-5 0,0 3.0357,-1.9643 8.75,-0.53571 z"
       fill="#ffccaa"
       id="path54" />
  </g>
</svg>
