<?xml version="1.0" encoding="UTF-8"?>
<svg width="30mm" height="32mm" version="1.1" viewBox="0 0 106.29921 113.38583" xmlns="http://www.w3.org/2000/svg" xmlns:xlink="http://www.w3.org/1999/xlink">
 <defs>
  <pattern id="p" xlink:href="#j" patternTransform="matrix(.13975 .27951 -3.2423 1.6211 3.6446 -1.6817)"/>
  <pattern id="j" width="2" height="1" patternTransform="translate(0) scale(10)" patternUnits="userSpaceOnUse">
   <rect y="-.5" width="1" height="2"/>
  </pattern>
  <pattern id="o" patternTransform="matrix(.7625 0 0 .95 3.5196 -1.5567)" xlink:href="#a"/>
  <pattern id="n" patternTransform="matrix(1.1 0 0 1.175 3.6446 -1.6817)" xlink:href="#a"/>
  <pattern id="m" patternTransform="matrix(.96671 0 0 .82529 3.8768 -1.5679)" xlink:href="#a"/>
  <pattern id="a" width="10" height="10" patternTransform="translate(0) scale(10)" patternUnits="userSpaceOnUse">
   <circle cx="2.567" cy=".81" r=".45"/>
   <circle cx="3.048" cy="2.33" r=".45"/>
   <circle cx="4.418" cy="2.415" r=".45"/>
   <circle cx="1.844" cy="3.029" r=".45"/>
   <circle cx="6.08" cy="1.363" r=".45"/>
   <circle cx="5.819" cy="4.413" r=".45"/>
   <circle cx="4.305" cy="4.048" r=".45"/>
   <circle cx="5.541" cy="3.045" r=".45"/>
   <circle cx="4.785" cy="5.527" r=".45"/>
   <circle cx="2.667" cy="5.184" r=".45"/>
   <circle cx="7.965" cy="1.448" r=".45"/>
   <circle cx="7.047" cy="5.049" r=".45"/>
   <circle cx="4.34" cy=".895" r=".45"/>
   <circle cx="7.125" cy=".34" r=".45"/>
   <circle cx="9.553" cy="1.049" r=".45"/>
   <circle cx="7.006" cy="2.689" r=".45"/>
   <circle cx="8.909" cy="2.689" r=".45"/>
   <circle cx="9.315" cy="4.407" r=".45"/>
   <circle cx="7.82" cy="3.87" r=".45"/>
   <circle cx="8.27" cy="5.948" r=".45"/>
   <circle cx="7.973" cy="7.428" r=".45"/>
   <circle cx="9.342" cy="8.072" r=".45"/>
   <circle cx="8.206" cy="9.315" r=".45"/>
   <circle cx="9.682" cy="9.475" r=".45"/>
   <circle cx="9.688" cy="6.186" r=".45"/>
   <circle cx="3.379" cy="6.296" r=".45"/>
   <circle cx="2.871" cy="8.204" r=".45"/>
   <circle cx="4.59" cy="8.719" r=".45"/>
   <circle cx="3.181" cy="9.671" r=".45"/>
   <circle cx="5.734" cy="7.315" r=".45"/>
   <circle cx="6.707" cy="6.513" r=".45"/>
   <circle cx="5.73" cy="9.67" r=".45"/>
   <circle cx="6.535" cy="8.373" r=".45"/>
   <circle cx="4.37" cy="7.154" r=".45"/>
   <circle cx=".622" cy="7.25" r=".45"/>
   <circle cx=".831" cy="5.679" r=".45"/>
   <circle cx="1.257" cy="8.519" r=".45"/>
   <circle cx="1.989" cy="6.877" r=".45"/>
   <circle cx=".374" cy="3.181" r=".45"/>
   <circle cx="1.166" cy="1.664" r=".45"/>
   <circle cx="1.151" cy=".093" r=".45"/>
   <circle cx="1.151" cy="10.093" r=".45"/>
   <circle cx="1.302" cy="4.451" r=".45"/>
   <circle cx="3.047" cy="3.763" r=".45"/>
  </pattern>
  <linearGradient id="k" x1="14.006" x2="81.922" y1="65.976" y2="2.1595" gradientUnits="userSpaceOnUse">
   <stop stop-color="#010a3e" offset="0"/>
   <stop stop-color="#202130" offset=".096739"/>
   <stop stop-color="#3e1301" offset=".43023"/>
   <stop stop-color="#3e1301" offset=".63035"/>
   <stop stop-color="#013e0c" offset=".69362"/>
   <stop stop-color="#013e20" offset="1"/>
  </linearGradient>
  <radialGradient id="q" cx="131.98" cy="48.984" r="10.032" gradientTransform="matrix(.57709 -1.1278 1.3575 .69468 -65.838 128.53)" gradientUnits="userSpaceOnUse">
   <stop stop-color="#367b4f" offset="0"/>
   <stop stop-color="#367b4f" offset=".25388"/>
   <stop stop-color="#205e3f" offset=".59912"/>
   <stop stop-color="#185139" offset="1"/>
  </radialGradient>
  <linearGradient id="l" x1="140.14" x2="171.06" y1="84.966" y2="78.841" gradientTransform="translate(-118.44 -28.284)" gradientUnits="userSpaceOnUse">
   <stop stop-color="#443620" offset="0"/>
   <stop stop-color="#443620" stop-opacity=".6549" offset=".60909"/>
   <stop stop-color="#443620" stop-opacity="0" offset="1"/>
  </linearGradient>
 </defs>
 <g transform="translate(-1.1613 5.4421)">
  <path d="m61.582 82.618c0.25889 1.8759 0.30338 3.3945 0.0625 4.4375l-1.25 2.5625 0.125 1.0625 1.6875-0.75c1.783 2.1508 2.7737 5.7281 6.375 5l2.75 0.25 3.5-1 1.9375-1.375 1.25-4.5-6.125 1.0625-4.3125 0.0625-1.125-1.25c-0.13043-2.0208-0.04415-4.0417-1.125-6.0625z" fill="#ffba68" fill-rule="evenodd" stroke="#8a0" stroke-width=".29055"/>
  <path d="m11.77 61.993 11 5.625 6.375 6.125c5.5464 2.9453 11.514 7.0493 15.812 6.5625 0.95799-0.68612 1.7687-0.78296 2.5625-0.8125 0.93898 0.03123 1.8967 0.19373 3 1.375 1.4614 1.1992 3.2097 1.5376 5 1.75 5.4808-0.37232 10.98-0.94585 16.625-3.125l9.375-2.5 9.5-6.5c3.6777-2.9571 3.3314-6.3613 4.25-9.625 0.45047-5.5164-0.61754-8.8395-1.625-12.25l-8.125-13.25-3.625-9.5-0.25-5.875-1.25-2.25 2.125-1.625 1-3 0.4375-2.1875 3.3125 2.1875 1.125-1.375-0.5-5.875c-1.9521-2.0389-3.8063-4.166-7.375-4.75-3.981-0.89762-5.7474 0.41925-7.625 1.625-1.085 1.7632-2.3418 2.7537-3.125 5.875-1.5233 4.2408-1.0685 8.2738-0.9375 11.688l1.4375 14.562-1 5.25c-2.7306-1.5435-5.4801-2.8424-8.375-2.25-6.3668-0.32364-8.5731 1.5234-11.25 3.125l-13.75 4.25-11.625 5.9375-5.875-1.5625-0.9375 2.3125c-1.8151-0.81176-3.6166-1.8351-4.3125-1.6875l1.625 3.5-1.75 1.625 0.625 1.375-3.9375 1.6875 2.9375 1.75z" fill="#fff" fill-rule="evenodd" stroke="#fc0" stroke-width=".29055"/>
  <path d="m13.661 56.756c1.5635 1.7491 1.7451 3.9536 3.375 5l-3.5 0.875 6.375 3c2.7865-2.4804 2.233-5.6702 4.125-7.125-0.67631-1.313-1.1827-2.7393-2.875-3.375-0.7949-0.25825-1.417-0.96578-1.625-2.75 1.4004-0.35652 1.6217-1.1847 1.875-2l-2.375-0.625-1.5 2.75c-1.3095-1.4286-2.8374-1.9837-4.5-2l1.875 3.75c-1.4392 0.06005-1.7098 0.60701-1.75 1.25z" fill="#000437" fill-rule="evenodd"/>
  <path d="m57.122 50.08c-6.793-0.06602-15.801 1.1508-19.28 2.5052l-5.1265 6.1872-5.4801 1.9445-2.6516-1.4142c-0.6927-1.0849-1.0516-1.8777-3.0052-4.0659 1.1885-0.93612 1.5051-2.9744 3.4124-3.9105 1.6337-1.3447 3.3145-2.5954 5.6032-2.6302 2.8763-0.32046 5.8223-0.47829 9.1924 0.35355 1.6252-0.5646 9.2543-2.7361 11.001-2.7074 3.209 0.05264 4.8933 1.6558 6.3342 3.7378z" fill="url(#l)" fill-rule="evenodd"/>
  <path d="m50.719 49.588c-6.793-0.06602-9.426 1.6508-12.905 3.0052l-5.1265 6.1872-5.4801 1.9445-2.6516-1.4142c-0.6927-1.0849-1.0516-1.8777-3.0052-4.0659 1.1885-0.93612 1.5051-2.9744 3.4124-3.9105 1.6337-1.3447 3.3145-2.5954 5.6032-2.6302 2.8763-0.32046 5.8223-0.47829 9.1924 0.35355 4.6111-1.6019 7.3837 0.21067 10.96 0.53033z" fill="url(#o)" fill-rule="evenodd" opacity=".317"/>
  <path d="m82.876 30.155s-1.8749 1.0695-2.9168 1.149c-2.2592 0.17245-4.3774-1.2506-6.6291-1.5026-1.2298-0.13763-3.7123 0-3.7123 0l-1.591-15.026c0.598-2.8688 1.3011-5.869 2.8284-9.8995 3.6953-4.4901 6.2013-3.6283 9.0156-4.1543 3.2832 1.2778 6.4357 2.6699 7.8666 5.5685l0.35355 5.1265-1.0607 1.2374-3.3588-1.9445c-0.28191 2.2035-0.48552 4.5049-1.6794 5.5685l-1.8562 1.591 1.5026 3.5355z" fill="url(#q)" fill-rule="evenodd"/>
  <path d="m51.775 39.524c4.773 1.5026 8.3151 1.7115 9.5015 3.784 3.6464 6.3696 3.385 14.671 4.7411 21.884 1.007 5.3563 5.9835 13.361 10.862 13.013 4.4167-1.0868 8.4798-2.2226 12.896-6.2714 2.38-2.9067 4.9292-5.475 5.375-12.25-0.464-4.3689 0.5226-8.1576-3-13.75l-7.625-12.75c-1.2604 1.3124-2.4427 1.6744-4.375 1.375-2.2844-0.35395-4.4478-2.8127-7.375-2.125-1.6992 0.39921-2.4377-0.0176-2.125 1.75l-1.25 5.75c-4.1667-1.4477-13.46-0.94217-17.627-0.40901z" fill="#7b5836" fill-rule="evenodd"/>
  <path d="m51.768 39.459c4.773 1.5026 8.3151 1.7115 9.5015 3.784 3.6464 6.3696 3.385 14.671 4.7411 21.884 1.007 5.3563 5.9835 13.361 10.862 13.012 4.4167-1.0868 8.4798-2.2226 12.896-6.2714 2.38-2.9067 4.9292-5.475 5.375-12.25-0.464-4.3689 0.5226-8.1576-3-13.75l-7.625-12.75c-1.2604 1.3124-2.4427 1.6744-4.375 1.375-2.2844-0.35395-4.4478-2.8127-7.375-2.125-1.6992 0.39921-2.4377-0.0176-2.125 1.75l-1.25 5.75c-4.1667-1.4477-13.46-0.94217-17.627-0.40901z" fill="url(#m)" fill-rule="evenodd" opacity=".312"/>
  <path d="m13.645 56.743c1.5635 1.7491 1.7451 3.9536 3.375 5l-3.5 0.875 6.375 3c2.7865-2.4804 2.233-5.6702 4.125-7.125-0.67631-1.313-1.1827-2.7393-2.875-3.375-0.7949-0.25825-1.417-0.96578-1.625-2.75 1.4004-0.35652 1.6217-1.1847 1.875-2l-2.375-0.625-1.5 2.75c-1.3095-1.4286-2.8374-1.9837-4.5-2l1.875 3.75c-1.4392 0.06005-1.7098 0.60701-1.75 1.25z" fill="url(#p)" fill-rule="evenodd" opacity=".312"/>
  <path d="m78.379-0.19926c-2.3207 0.14692-4.4611 1.1744-5.9297 2.375-1.8211 1.4888-3.0875 3.2582-3.0449 5.2402-0.93866 1.6158-1.1332 2.8592-1.502 5.0332-0.56903 3.3548-0.53687 5.6757-0.08008 10.723 0.24007 2.6525 0.3584 5.3851 0.91602 7.8652 0.71657 3.1871 0.59392 5.4289-0.48832 7.0394-2.0138-0.77985-4.2525-1.2119-6.2656-1.4492-2.993-0.3528-4.804-0.31446-7.252 0.08445-2.577 0.41994-5.1619 2.4677-7.0952 3.2027-4.1512 1.5781-5.9608 1.7377-10.032 3.0733-1.4469 0.4747-4.1607 2.7455-5.9785 3.44-2.2035 0.84189-3.4268 1.8847-5.0938 2.7012-0.87678 0.42943-1.9507 1.3588-2.3398 1.3887-1.3508-0.32121-2.7377-1.4525-5.6094-1.7734-0.63996 0.04925-1.057 1.8136-1.4219 2.1895-0.72935-0.37048-3.3111-1.6189-4.6641-1.4766-0.478 1.8298 1.0165 2.4115 1.1797 3.877-0.28136 0.76718-1.7576 1.497-1.6191 2.1621 0.04172 0.20042 0.75371 0.90196 0.81055 1.0879-0.6138 0.24079-1.3821 0.75058-1.9199 0.83984-0.57459 0.13265-2.1878-1.0107-2.5195-0.63867-0.33177 0.37201 0.44045 1.9834 0.875 2.1836 0.79629 0.36677 2.0793 1.2442 2.2676 1.4102l-1.8809 1.1504 0.66406 0.70117c1.8155 1.9168 3.9186 2.2272 5.502 2.6699 0.086 0.04079 1.324 0.62765 2.8008 1.3887 1.5271 0.78696 3.3261 1.8457 3.6504 2.127 1.3255 1.1495 2.4244 3.0383 4.3301 4.5449 2.0533 1.6233 4.3468 2.657 6.4102 3.7461 1.7448 0.92098 3.3852 1.4438 5.2773 2.6797s3.0647 2.022 5.6738 1.8496c1.1504-0.07601 3.2055-1.0736 3.2539-2.4141-1.1916 0.48347-2.6281 0.78456-2.3711 0.76758-1.7466 0.1154-3.2642-0.57389-4.9512-1.6758-1.6869-1.1019-3.7262-1.979-5.8418-3.0957-2.1611-1.1408-4.562-2.1784-6.2559-3.5176-1.3434-1.0621-2.5968-2.8988-4.4004-4.4629-0.9976-0.86511-2.4622-1.3808-4.0391-2.1934s-3.5312-1.7363-3.5312-1.7363c-0.86038-0.25732-1.6851-1.4314-2.6895-2.1367l0.99023-0.89648-2.9141-1.3574 3.6172-1.7051c-0.25106-0.57592-0.83092-1.0213-0.9082-1.3926-0.07729-0.37127 1.4443-0.48068 1.4824-1.3027 0.03812-0.82206-1.2631-2.2367-0.99805-2.8438 0.75497 0.29846 2.6925 1.6177 3.5527 2.2227 0.33444-0.6453 0.93361-2.042 1.2812-2.6758 1.3662-0.08765 3.6993 0.7464 5.0625 1.2363 0.55724-0.43379 1.6348-0.72598 2.8828-1.3633 2.0843-1.0644 3.6369-1.5238 5.3535-2.1797 1.3805-0.52743 4.8969-2.423 6.7031-3.0156 4.2612-1.398 6.3528-1.7765 10.398-3.3145 2.2634-0.86044 4.4895-2.1138 6.3438-2.416 2.7006-0.44008 3.6954-0.39251 6.2461-0.26758 2.1777 0.10667 3.4628 0.5429 5.3198 1.1216 0.24235 0.72359-0.37558 1.4037-1.392 2.8999 0 0-2.4723 1.9161-2.8295 2.9466 1.0728 0.04332 2.6617-0.72221 3.6049-1.6654 1.7764-1.7764 2.3037-2.6182 3.1953-4.3223 0.34375-0.65702 1.0346-2.3946 1.1621-4.1855 0.2329-3.2723-0.03388-3.8404-0.33398-6.6094-0.27708-2.5566-0.56781-4.0718-0.84961-6.5059-0.66381-5.7336-0.81274-7.4687-0.34961-10.199 0.30731-1.8118 0.6718-2.9748 1.3594-4.7832 0.65538-1.7238 1.5935-3.2683 3.0332-4.4453 0.97703-0.79878 2.6957-1.4293 4.3262-1.5137 0.54349-0.028123 1.0772 0.00421 1.5703 0.11133 2.1102 0.45836 4.9388 2.0629 5.873 3.4824 0.37674 0.57242 1.4347 2.5256 1.6113 3.6172 0.14821 0.91592 0.18993 2.3856-0.65234 2.4668l-1.8516-1.2188c-0.26106-0.10751-0.67701-0.62405-1.3301-0.38476-0.65307 0.23928-0.74513 0.85538-1.0059 2.1562-0.26073 1.3009 0.18306 2.1714-0.74219 3.3965-0.35111 0.07104-1.0454 0.08341-1.4668 0.32812-0.34486 0.20028-0.58047 0.38852-0.79492 0.88672-0.22306 0.94439 0.29574 1.5709 0.70117 2.2656-0.61368-0.02713-3.2342-0.21391-4.0664-0.97852-1.7582-0.29419-2.2434-1.193-3.8145-2.834-0.78284 0.27326 0.27123 2.4199 1.4102 3.4238 0.97456 0.82639 2.5208 1.5983 3.791 1.7559 1.1529 0.1786 2.0394 0.35997 3.4316 0.73242-0.13181 1.1379-0.07865 3.0871-0.01172 4.3672 0.14943 2.858 1.2655 5.2247 1.9297 7.1914 1.2306 3.6435 3.6707 6.5361 5.5781 9.3828s3.28 5.6339 4.0117 8.834c1.0288 4.4994 1.3468 10.447-0.26953 14.406-1.5527 3.8036-6.0551 7.223-10.01 9.6289-2.4512 1.4913-5.8726 1.8262-9.291 2.75-3.9156 1.0582-7.3588 2.495-10.965 2.9082-4.1959 0.48078-7.4851 1.3348-10.76-0.06055 0.1351 0.05756-1.5261-1.1581-2.502-1.8828-0.22913 1.1508 1.473 2.8169 2.4609 3.1387 4.4851 1.4609 6.843 1.4537 10.785 1.002 4.1222-0.47233 7.8175-1.8809 11.496-2.875 3.0712-0.83001 6.909-1.2141 10.137-3.1777 4.1222-2.5078 9.2531-5.4101 11.273-10.359 2.0163-4.9393 1.5199-11.239 0.40625-16.109-0.86605-3.7876-2.8223-6.8388-4.7559-9.7246s-2.577-3.9989-4.1777-6.9102c-1.2188-2.2166-2.6098-5.4159-3.1934-7.1094-0.53791-1.5608-0.96889-3.7352-0.91211-5.1387 0.02816-0.69608 0.28291-1.4262 0.49023-1.9043-1.9337-0.89318-1.8296-3.5271-0.30469-2.834 1.5914-1.4353 1.4426-4.7998 1.5625-5.3809 0.1017-0.49281 2.237 1.7264 2.6875 1.8652 0.45054 0.13878 0.82742 0.0016 1.1875-0.51367 0.55132-0.78902 0.73126-0.28238 0.89844-1.123 0.13968-1.2614 0.18391-2.2214 0.06836-3.0117-0.19965-1.2711-9.64e-4 -2.5779-0.8418-3.8555-1.5009-2.2804-4.3693-4.3133-7.4141-4.9746-0.79559-0.17281-1.5897-0.2228-2.3633-0.17383z" color="#000000" color-rendering="auto" fill="url(#k)" fill-rule="evenodd" image-rendering="auto" shape-rendering="auto" solid-color="#000000" style="block-progression:tb;isolation:auto;mix-blend-mode:normal;text-decoration-color:#000000;text-decoration-line:none;text-decoration-style:solid;text-indent:0;text-transform:none;white-space:normal"/>
  <path d="m80.27 17.618c0.38491 1.5037 1.0199 2.6502 2.5625 2.5l4.6875 3.5c1.5383 0.69424 2.9634 1.6149 4.8125 1.6875l4 0.9375c0.60417 0.55518 1.2083 0.44211 1.8125 0l1.3125-1.125c-0.144-0.85443 0.31825-2.0544-0.9375-2.75l-4.375-2.4375-4.4375-5.1875-1-3-1.3125 1.3125c-1.3303 0.12746-2.3807-1.4239-3.5625-2.1875l-0.5 3.9375-1.1875 1.8125c-1.0792-0.30259-1.6276 0.13799-1.875 1z" fill="#f6db35" fill-rule="evenodd" stroke="#aad400" stroke-width=".29055"/>
  <path d="m83.106 30.283s-1.8749 1.0695-2.9168 1.149c-2.2592 0.17245-4.3774-1.2506-6.6291-1.5026-1.2298-0.13763-3.7123 0-3.7123 0l-1.591-15.026c0.598-2.8688 1.3011-5.869 2.8284-9.8995 3.6953-4.4901 6.2013-3.6283 9.0156-4.1543 3.2832 1.2778 6.4357 2.6699 7.8666 5.5685l0.35355 5.1265-1.0607 1.2374-3.3588-1.9445c-0.28191 2.2035-0.48552 4.5049-1.6794 5.5685l-1.8562 1.591 1.5026 3.5355z" fill="url(#n)" fill-rule="evenodd" opacity=".31"/>
  <path d="m75.195 7.1252c1.7121-0.35355 2.1776-0.57452 3.182-0.83969 0.49675 0.12263 0.9806 0.16785 1.591 0.97227l0.17678 2.2981-2.2539 0.57453-0.92808-0.53033-0.7513-1.2374c-0.36828-0.0032-0.64818-0.40945-1.0165-1.2374z" fill="#fff" fill-rule="evenodd" stroke="#fc0" stroke-width=".29055"/>
  <path d="m41.926 75.643s1.8981 0.86646 2.8086 1.5234c0.91051 0.65698 1.4609 1.3882 2.5527 1.668 1.1795 0.30223 2.241 0.04679 3.4688-0.10547s2.0322-0.98144 2.0322-0.98144-1.1079-0.35562-2.251-0.21387-1.9411 0.3132-3.0293 0.11523c-0.57181-0.10403-2.0845-0.87539-2.9258-1.4824s-2.6562-0.52344-2.6562-0.52344z" color="#000000" color-rendering="auto" fill="#0e0e4d" fill-rule="evenodd" image-rendering="auto" shape-rendering="auto" solid-color="#000000" style="block-progression:tb;isolation:auto;mix-blend-mode:normal;text-decoration-color:#000000;text-decoration-line:none;text-decoration-style:solid;text-indent:0;text-transform:none;white-space:normal"/>
  <path d="m83.674 10.631c-0.08221-4.58e-4 -0.15836 0.01383-0.22461 0.04492-0.6058 0.28434-0.64076 1.1819-0.70703 1.9707-0.14953 1.7798-0.21629 1.9122-0.71484 3.2402 0 0-1.8458 0.13527-2.1211 0.76367-0.48684 1.1112-0.14943 2.1439 0.48633 2.9707 0.3923 0.51017 1.1253 1.0197 1.6543 1.082l1.168 0.13867c1.4062 1.412 4.7919 4.0047 6.6428 4.6063 1.8509 0.60165 1.648 0.11764 4.1465 0.70508 1.2954 0.30457 1.664 0.24235 2.3398 0.70898s1.1982 0.28714 1.6074 0.20117c0.40923-0.08597 0.9566-0.25212 1.1992-0.50781 0.48523-0.51138 1.1494-1.1814 1.1211-2.0205-0.0272-0.80894-0.31858-1.5237-0.80668-2.0928-0.48809-0.56905-1.0813-0.89972-1.3145-1.0566-0.46612-0.31368-1.1895-0.35069-2.1387-1.0391-0.94917-0.68837-2.1468-1.65-2.6348-2.2441-0.45296-0.55154-2.787-2.6881-3.2482-3.6903-0.44275-0.96209-0.45379-1.4457-0.78711-2.2402-0.12773-0.21727 0.04776-0.86489-0.27539-0.98633-0.86483-0.12336-0.8076 0.22459-1.2422 0.6875-0.38784 0.41003-0.20848 0.92577-0.73047 0.91992-1.0122-0.60076-1.2544-0.82064-1.9629-1.4785 0 0-0.88155-0.68039-1.457-0.68359zm0.5957 1.0625c0.55622 0.28504 1.7949 1.5157 2.6738 1.8379s1.3228-0.84092 1.625-1.1016c0.13128 0.32621 0.32529 1.4221 0.45117 2.2227 0.20534 1.306 2.5491 3.0146 3.2404 3.8563 0.72627 0.88434 1.7407 1.7755 2.7441 2.4902 0.9913 0.70612 2.2134 1.2612 3.1465 2.002 0.20262 0.23623 0.9718 0.90368 0.79688 1.2871-0.22588 0.49512-0.68214 1.0781-0.79688 1.1582-0.11473 0.08006-0.91928 0.53489-1.1719 0.49023-1.0267-0.18152-2.1573-0.80966-3.2969-0.98633-0.70675-0.33527-3.3629-1.6016-4.1523-2.1562-1.8786-1.3199-6.0605-4.2423-7.092-5.8446 0.82497-0.3318 1.1866-1.3632 1.3834-2.0676 0.30896-1.1311 0.44942-2.4352 0.44858-3.1883zm-2.5195 5.6113c0.64202 1.0497 5.4003 4.6715 7.3889 5.952 0.68616 0.44184 1.9929 1.017 3.0996 1.4824-0.45767-0.07925-0.89248-0.18134-1.4473-0.37305-2.1378-0.73873-4.0677-1.8284-5.506-3.1727-0.57118-0.53384-1.3829-0.92255-1.875-1.5566-0.24278-0.03585-1.1682-0.22534-1.4746-0.5332-0.6569-0.86483-0.55375-1.3835-0.18555-1.7988z" color="#000000" color-rendering="auto" fill="#e8ba15" fill-rule="evenodd" image-rendering="auto" shape-rendering="auto" solid-color="#000000" style="block-progression:tb;isolation:auto;mix-blend-mode:normal;text-decoration-color:#000000;text-decoration-line:none;text-decoration-style:solid;text-indent:0;text-transform:none;white-space:normal"/>
  <path d="m85.551 15.336c0.37248 0.83674 0.85966 1.7296 2.625 2-0.07575-0.45174-0.44394-1.0824-0.90625-1.6875-0.36093-0.47237-1.125-0.3125-1.7188-0.3125z" fill="#8c7f13" fill-rule="evenodd" stroke="#5f5210" stroke-width=".29055"/>
  <path d="m45.457 80.555 1.625 6.9375c1.008 3.1048 0.41937 5.2516 0.625 7.875l4.4375 5.8125 4.75 1.125 3.25-1.1875 5.125-0.625-1.25-2.5625-1.1875-1.375 0.375-1.1875-1.6875-0.25-5.5625 0.5625-4.5625-2.3125c-0.26995-2.2328-0.39516-4.4897-1.625-6.5625 0.03293-1.7601 0.49749-2.7648-0.0625-5.5625-0.1671-0.7975-0.55202-1.5328-1.875-2-0.8529 0.28441-1.8311 0.2557-2.375 1.3125z" fill="#ffba68" fill-rule="evenodd" stroke="#f0f" stroke-width=".29055"/>
  <path d="m47.512 78.941c-0.49877 0.03345-0.99477 0.19682-1.4473 0.41211-0.48418 0.24878-0.89338 0.73627-0.99609 1.2129 0 0 1.5685 5.9743 1.875 8.5977 0.1967 1.6832 0.0122 4.7937 0.0122 4.7937 0.05808 1.2702 0.60027 2.772 1.7825 4.468 1.2463 2.0479 2.7224 3.3332 4.2195 3.7032 0.80603 0.19918 1.8642 0.071 2.527 0.0759 0.56828 4e-3 1.0408 0.50662 1.3436 0.51401l3.5078-1.2344c0.92621 8e-3 1.634-0.11391 2.3887-0.15821 0.79732-0.0468 1.3972-0.49542 2.3293-0.30254 0.9321 0.19287 1.3273 0.70071 1.5081 0.62604 0.73901-0.54191 0.46308-0.88492 0.01222-1.4661-0.46049-0.37724-1.13-0.40641-1.3008-0.58467-0.58039-1.1094-1.1782-2.5817-1.9902-3.2278 0.45466-0.42787 0.63077-0.46426 0.57617-0.95508-0.10298-0.16537-0.55228-0.49533-0.69531-0.57617-0.57212-0.32338-1.3168-0.35551-3.0469-0.11133s-3.201 0.31438-4.127 0.10646c-1.1442-0.28245-2.2883-0.62017-3.4325-1.5977 0.02082-0.87705-0.01162-1.7931-0.69945-2.5723-0.20922-2.2821-1.4539-3.1676-1.3013-4.9099 0.15249-1.7412-0.12741-3.4695-0.30109-4.5286-0.17368-1.059-0.72598-1.6759-1.2812-1.9199-0.46256-0.30221-0.96412-0.39868-1.4629-0.36523zm0.1543 0.89258c0.39305 0.03579 0.68796 0.21158 0.90625 0.38867 0.24834 0.10915 0.49372 0.34377 0.7168 1.1309 0.14823 1.1056 0.22758 2.1137 0.07031 3.916s0.29845 3.4444 0.83594 5.082 0.57036 2.4106 0.52344 3.1055c1.7689 2.0158 3.2761 2.4217 4.9316 2.623 0.9577 0.21697 2.7453 0.18422 5.2598-0.33203 0.78856 0.04302 1.5073-0.14244 1.709-0.04492-0.16367 0.27364-0.10815 0.71312-0.37083 0.97855 1.0601 0.76676 1.5933 1.2733 2.1842 2.8611-2.2664-0.91872-9.1749-3.6168-13.825-4.4139-1.1445 0.39209-0.2408 1.5523 0.42969 2.625 3.7913 0.71321 7.0514 1.5413 10.843 2.5996-0.7395 0.0601-1.4749 0.47177-1.9236 0.45975l-3.0148 1.132c-0.68724-1.0383-0.90107-1.1869-2.1523-1.4961-1.2844-0.31742-2.157-0.61694-3.0312-1.3496-1.3845-1.1603-0.92901-1.4039-1.6977-2.5029-0.32261-0.46125-1.0936-1.6028-1.4067-2.3961-0.48201-0.938-0.4475-1.6431-0.4901-2.6382-6.2e-5 -0.02043-0.10034-1.5722-0.31372-3.3983-0.31624-2.7063-1.5053-5.589-1.4746-5.832 0.05565-0.43996-0.43386-1.9264-0.20703-2.043 0.61384-0.38582 1.105-0.49086 1.498-0.45508z" color="#000000" color-rendering="auto" fill="#f60" fill-rule="evenodd" image-rendering="auto" shape-rendering="auto" solid-color="#000000" style="block-progression:tb;isolation:auto;mix-blend-mode:normal;text-decoration-color:#000000;text-decoration-line:none;text-decoration-style:solid;text-indent:0;text-transform:none;white-space:normal"/>
  <path d="m65.848 82.383-0.80859 0.23242 0.44727 2.75c0.65234 1.178 0.38315 2.1804 0.18945 3.1973l0.76367 0.38868c0.12404 0.23514 0.45598 0.46123 0.61328 0.86719l3.9414 0.29688c1.6478 0.12412 2.913-0.74153 5.166-0.94336 0.43995-0.03941 0.94879-0.15794 1.248-0.13672-0.07024 0.19794-0.02023 0.34331-0.28125 0.50781-0.32779 0.66667-0.22808 1.1014-0.39453 1.7207 0.09916 0.80109-0.27689 0.78466-0.41211 1.4551-2.2931-1.0725-3.7264-1.7949-6.7083-2.2327l-3.8152-0.56024c-1.1622-0.22315-0.46703 0.88039-0.19602 1.6517 3.0195 0.76488 5.737 1.3371 8.8308 2.3991-1.5426 0.46884-3.0183 1.0333-5.123 0.69922-0.20443-0.11735-0.843 0.0032-1.7832-0.36328-1.3808-0.53816-2.2694-1.1944-2.6261-1.5447-0.92773-0.91098-1.0872-1.6136-1.2566-2.552-0.3977-0.53523-0.97672-0.9385-0.97672-0.9385-0.37551-0.90237-0.37287-0.69795-0.80469 0.06055-0.22957 0.26957-0.71732 0.83845-0.98242 0.82422-0.19854-0.01066-0.19363-0.68292 0.03907-1.0312l1.0559-1.5806c0.4309-1.0299 0.29303-3.3709 0.15308-4.4819l-1.0855 0.10156c0.07045 1.4207 0.22929 2.3233-0.2178 3.7629l-0.5271 2.0451c-0.10635 0.41261-0.31618 0.90886-0.23603 1.3014 0.04008 0.19625 0.13559 0.54579 0.30859 0.71484s0.45373 0.03893 0.6543-0.0059c0.47879-0.10692 0.70573-0.22394 1.0059-0.50391 0.1407 0.3129 0.24646 0.51656 0.31445 0.73242 0.05044 0.16014-0.02903 0.22492-0.08398 0.64062-0.05495 0.41571 0.07936 0.99114 0.62109 1.6562 1.1816 1.4507 2.5709 2.3323 4.0898 2.7773 0.73883 0.21649 1.4274 0.23612 2.4844 0.4375-0.07711-0.56564-0.11248-1.148-0.5918-1.5527 2.0399 0.56369 3.9661 0.18975 5.8398-0.61719l1.9922-0.13476c0.95528-0.06462 1.3573 0.22786 2.2422 0.39648 0.20999-0.81496-0.21203-1.0971-0.85352-1.4023l-1.0098-0.48047c0.06914-0.43545 0.50559-1.1281 0.44336-1.7148 0.15537-0.43427 0.3911-1.6041 0.54714-1.9671 0.58484 0.3438 1.2471 0.47962 1.59 0.25565s-0.31822-0.90151-0.73786-1.2419c-0.29822-0.28546-0.85837-0.49396-1.3543-0.52912-0.49596-0.03516-0.92261 0.05984-1.2793 0.0918-2.4349 0.21813-4.1925 0.93296-5.4766 0.9707l-3.0068 0.08839c-0.0733-0.37922-0.48637-0.77062-0.71461-1.0218 0.2046-0.99958 0.25126-1.8083-0.08372-2.7248 0.08235-1.2414-0.42558-1.9874-1.1539-2.7617z" color="#000000" color-rendering="auto" fill="#f60" fill-rule="evenodd" image-rendering="auto" shape-rendering="auto" solid-color="#000000" style="block-progression:tb;isolation:auto;mix-blend-mode:normal;text-decoration-color:#000000;text-decoration-line:none;text-decoration-style:solid;text-indent:0;text-transform:none;white-space:normal"/>
  <path d="m46.803 48.578c-4.4344 0.17317-7.0782 1.4563-10.482 3.8867-2.0557 1.4677-2.5604 3.4259-3.6426 4.5977s-2.6689 1.9261-3.1641 2.1387c-1.4593 0.62661-2.729 0.53798-3.5664 0.22656-0.83742-0.31142-1.4117-1.8005-2.0739-2.575-0.83607-0.97787-1.3013-2.1006-3.0414-1.7981 1.1505 0.93432 2.0041 1.687 2.4062 2.7734 0.62753 1.6952 0.64796 1.7076 1.8457 2.5059 1.6183 1.0786 3.2868 1.1417 4.6914 0.63672 1.7528-0.63017 2.5199-0.98494 3.6738-2.2344 1.1539-1.2494 2.106-3.1701 3.832-4.4023 3.8697-2.7627 6.0211-3.4254 11.566-3.9355 3.9091-0.35961 12.589 1.4226 14.315 1.3155-2.4004-2.0324-6.051-2.4136-10.346-2.9405-1.5265-0.18727-4.5356-0.25304-6.0137-0.19531z" color="#000000" color-rendering="auto" fill="#370000" fill-rule="evenodd" image-rendering="auto" shape-rendering="auto" solid-color="#000000" style="block-progression:tb;isolation:auto;mix-blend-mode:normal;text-decoration-color:#000000;text-decoration-line:none;text-decoration-style:solid;text-indent:0;text-transform:none;white-space:normal"/>
  <path d="m25.145 66.18c0.43639 0.28236 3.0437 1.0206 3.5977 1.9388 0.34367 0.56966 0.29384 0.91961 0.52145 1.2345 0.33896 0.46893 0.50545 1.0948 1.1191 1.2112 0.49581 0.09405 1.122-0.11814 1.8397-0.22526 0.71764-0.10712 1.8685-0.3708 2.2868-0.27639 0.9687 0.21868 2.0666 0.67151 3.359 1.3573 1.2924 0.68576 4.0263 2.6973 4.0263 2.6973 0.24307-0.37565-2.5514-3.0534-3.368-3.6134-1.2574-0.86237-1.958-1.4522-3.3073-1.7568-0.90267-0.20377-2.0619-0.1435-2.7339-0.0432s-1.3896 0.76008-1.6479 0.47775c-0.32762-0.35811-0.34648-0.95427-0.53868-1.2186-0.1922-0.26436-0.61157-0.65822-1.0625-0.99414-0.9676-0.72081-3.9813-1.0984-4.0918-0.78906z" color="#000000" color-rendering="auto" fill="#142d4e" fill-rule="evenodd" image-rendering="auto" shape-rendering="auto" solid-color="#000000" style="block-progression:tb;isolation:auto;mix-blend-mode:normal;text-decoration-color:#000000;text-decoration-line:none;text-decoration-style:solid;text-indent:0;text-transform:none;white-space:normal"/>
  <path d="m77.861 5.8808c-0.44781 0.035311-1.5458 0.45367-1.7365 0.67823-0.169 0.19901-1.3749 0.32372-1.3749 0.32372 0.29149 0.78983 0.69212 1.4473 1.1309 1.7227 0.43666 0.27406 0.37425 1.0971 0.84774 1.3514 0.81191 0.4361 1.2934 0.5948 2.185 0.52494 0.22456-0.01759 1.2296-0.44992 1.8598-0.53653-0.25619-0.66518-0.11353-1.124-0.21634-2.0237-0.10582-0.92598-0.43796-1.2369-1.2319-1.6882-0.52655-0.29932-1.1034-0.38102-1.4639-0.35259zm1.1133 1.127c0.4959 0.24767 0.58014 0.7451 0.63888 1.3299 0.03011 0.29974-0.04466 0.78103-0.32052 0.88491-0.67832 0.25544-1.4128 0.13229-2.0772-0.2315-0.30404-0.16649-0.67709-0.61508-0.67832-0.95205-0.3772-0.34891-0.78986-0.36756-0.848-0.60375 0.31167-0.12807 0.81264-0.049795 0.95219-0.087985 0.2991-0.081857 0.69379-0.44508 0.98364-0.53916 0.30985-0.10058 1.0534 0.051836 1.3493 0.19962z" color="#000000" color-rendering="auto" fill="#214420" fill-rule="evenodd" image-rendering="auto" shape-rendering="auto" solid-color="#000000" style="block-progression:tb;isolation:auto;mix-blend-mode:normal;text-decoration-color:#000000;text-decoration-line:none;text-decoration-style:solid;text-indent:0;text-transform:none;white-space:normal"/>
  <path d="m77.029 7.3486c-0.36454 0.59842-0.25283 1.3714 0.26623 1.8421 0.51909 0.47067 1.2992 0.5066 1.8593 0.0855 0.56007-0.42112 0.74224-1.1806 0.43416-1.81-0.30809-0.62935-1.0197-0.9513-1.6958-0.76726 0.38254 0.53937 0.98154 0.94302 0.72713 1.8817-0.43901-0.47918-0.67508-1.1104-1.5911-1.2322z"/>
 </g>
</svg>
