<?xml version="1.0" encoding="UTF-8"?>
<svg viewBox="0 0 536.0567 803.18219" xmlns="http://www.w3.org/2000/svg">
 <defs>
  <linearGradient id="d" x1="706.45" x2="718.45" y1="371.24" y2="392.97" gradientUnits="userSpaceOnUse">
   <stop stop-color="#b1b1b1" offset="0"/>
   <stop stop-color="#dedae1" stop-opacity="0" offset="1"/>
  </linearGradient>
  <marker id="a" orient="auto">
   <path transform="matrix(.4,0,0,.4,2.96,.4)" d="m-2.5-1c0 2.76-2.24 5-5 5s-5-2.24-5-5 2.24-5 5-5 5 2.24 5 5z" fill-rule="evenodd" stroke="#000" stroke-width="1pt"/>
  </marker>
  <radialGradient id="c" cx="304.08" cy="563.86" r="38.124" gradientTransform="matrix(1 0 0 1.3398 -17.446 -127.02)" gradientUnits="userSpaceOnUse">
   <stop stop-color="#a4b2c1" offset="0"/>
   <stop stop-color="#d4dbdf" offset="1"/>
  </radialGradient>
  <radialGradient id="b" cx="433.81" cy="269.99" r="9.714" fx="436.12" fy="267.97" gradientTransform="matrix(1 0 0 1.3717 0 -100.35)" gradientUnits="userSpaceOnUse">
   <stop stop-color="#b6ad79" offset="0"/>
   <stop stop-color="#cabf7d" stop-opacity="0" offset="1"/>
  </radialGradient>
 </defs>
 <g transform="translate(-200.1 -123.73)">
  <path d="m555.32 454.62 17.148 29.641 29.616 15.901 14.548-6.5144s-1.9239 7.9513 0.58679 10.724c3.1532 3.4824 9.8184 4.6533 10.271-0.48139l0.87087-9.8734c4.3654 4.4203 9.5476 8.4341 12.845 13.923 1.4284 7.3846-0.15265 26.148-4.7679 29.458-19.649 0.94385-25.983-3.9-29.615-6.8307-3.5036-3.9383-9.7159-5.6381-9.7159-5.6381s-29.884-6.6986-44.269-14.323c-7.9187-5.7972-17.481-23.691-17.481-23.691l19.962-32.295z" fill="#daaf84" stroke="#d0a67a"/>
  <path d="m390.25 394.21c-8.8985-10.532-16.405-25.833-24.072-49.067-1.871-5.67-3.2931-10.416-3.1603-10.546s19.467-0.16144 42.965-0.0696l42.723 0.16694-3.336 5.1893c-8.857 13.778-21.447 31.821-26.494 37.969-6.9641 8.4842-15.657 16.619-20.26 18.959-1.9213 0.97678-3.7571 1.776-4.0796 1.776s-2.2511-1.9703-4.2859-4.3785z" fill="#daaf84" stroke="#d0a57a" stroke-linecap="round" stroke-linejoin="round"/>
  <path d="m225.95 630.47c1.2679-9.655 1.3497-12.02 0.84956-24.563-0.46718-11.717-2.5898-7.9464-5.3801 9.5566-2.4072 15.1-5.5826 23.678-6.8841 18.596-0.3287-1.2833 0.15776-7.551 1.081-13.928 3.2365-22.355 1.1944-29.561-3.4201-12.068-2.6904 10.199-5.8414 15.237-9.5291 15.237-2.8058 0-2.7738-0.63259 0.22005-4.3547 1.3361-1.6611 3.3861-9.0758 4.5557-16.477s3.4716-17.588 5.1157-22.637l6.1009-11.715s-0.49531-19.911-3.6659-39.57c-3.6892-18.815-9.074-54.458-8.8961-55.337 1.2384-6.1193 32.614-40.675 34.193-38.609 0.50168 0.6566 8.0061 5.8774 16.381 14.339l15.227 15.385-9.2463 8.15c-3.1539 1.9303-12.127 6.0658-16.507 8.995 0 0 0.0698 24.375 0.57289 42.508 0.50317 19.401 2.2215 48.914 2.9689 50.546s2.5746 4.438 4.0607 6.2344 4.3228 6.5569 6.3038 10.579l3.602 7.3131-3.2608 5.4674c-4.6023 7.7168-6.9723 7.1476-5.6673-1.361 0.97818-6.3776 0.76246-7.0568-3.2676-10.287l-4.3149-3.4583-0.88127 17.456c-0.81673 16.178-2.6867 24.316-5.5861 24.312-0.65223-8.5e-4 -1.2452-6.4737-1.3178-14.384-0.0782-8.5266-0.80781-14.933-1.7918-15.735-1.8689-1.5224-2.7822 2.9101-4.0732 19.768-0.79972 10.443-3.9811 19.08-7.0281 19.08-1.2009 0-1.3522-2.6596-0.51432-9.0398z" fill="#daaf84" stroke="#d0a57a"/>
  <path d="m430.15 834.65-4.405 50.685 30.835 14.324 3.3037-9.9166 57.265 15.426c27.309 7.3565 64.78-14.295 28.666-43.132 0 0-36.46 6.29-50.257-8.6171-5.2909-5.7166-4.8388-15.464-4.8388-15.464l-60.569-3.3056z" fill="#604000" stroke="#000"/>
  <path d="m265 836.87-4.6051 25.312-39.911 17.854c-34.205 15.301 21.081 73.238 52.191 31.566l26.096-34.955 3.0701 4.8214 24.561-15.67v-31.339l-61.401 2.4107z" fill="#604000" stroke="#000"/>
  <g transform="translate(-17.446 64.549)" fill="none" stroke="#000">
   <path d="m291.53 775.05c-7.4768 6.0372-23.958 14.778-20.48 20.062 3.7522 5.7009 18.276-4.7073 20.48-20.062z"/>
   <path d="m292.92 775.64c1.5686 11.912 1.0525 35.341 7.3641 34.811 6.8096-0.57225 4.9105-22.894-7.3641-34.811z"/>
  </g>
  <g transform="matrix(.81391 -.58099 .58099 .81391 -207.45 378.67)" fill="none" stroke="#000">
   <path d="m291.53 775.05c-7.4768 6.0372-23.958 14.778-20.48 20.062 3.7522 5.7009 18.276-4.7073 20.48-20.062z"/>
   <path d="m292.92 775.64c1.5686 11.912 1.0525 35.341 7.3641 34.811 6.8096-0.57225 4.9105-22.894-7.3641-34.811z"/>
  </g>
  <path d="m300.12 879c-0.64869-1.1811-1.3209-2.8069-1.2495-2.88s4.343-2.0752 7.294-3.9604 8.0952-4.9955 12.409-7.8887 7.9378-5.2605 8.0534-5.2605 0.21016 1.0294 0.21016 2.2876l-0.59963 4.4862-11.769 7.2819-13.168 8.0814-1.1794-2.1474z" fill="#122a00"/>
  <path d="m441.04 891.69-14.481-6.7544 0.2568-4.0388c0.14123-2.2214 0.337-4.3203 0.43503-4.6643 0.14629-0.51332 3.0047 0.63179 15.946 6.3882 8.6723 3.8575 15.768 7.1662 15.768 7.3525 0 0.97175-2.6959 8.496-3.04 8.4845-0.22159-0.01-6.9195-3.0529-14.884-6.7678z" fill="#122a00"/>
  <path d="m470.67 846.46c7.612 0.44232 17.482 4.8364 21.422-1.1476" fill="none" marker-start="url(#a)" stroke="#000"/>
  <path d="m478.7 853.34c5.8082 0.41877 13.051 4.1837 16.067-1.9127" fill="none" marker-start="url(#a)" stroke="#000"/>
  <path d="m489.8 861.76c3.5703 1.8597 7.1407 1.0623 10.711-4.2079" fill="none" marker-start="url(#a)" stroke="#000"/>
  <path d="m435.48 849.52c19.259 6.1226 36.068 13.911 30.22 37.106" fill="none" stroke="#000" stroke-dasharray="2, 2"/>
  <path d="m536.09 863.29c-18.195 4.6563-25.924 16.638-23.717 35.576" fill="none" stroke="#000" stroke-dasharray="3, 3"/>
  <path d="m263.84 844.19c2.969 5.782 12.023 4.0751 22.152 1.0449" fill="none" marker-end="url(#a)" stroke="#000"/>
  <path d="m262.17 851.92c2.8795 5.8905 11.908 5.1587 21.943 3.3437" fill="none" marker-end="url(#a)" stroke="#000"/>
  <path d="m261.12 860.08c1.3323 7.9477 11.768 4.5159 19.226 4.8065" fill="none" marker-end="url(#a)" stroke="#000"/>
  <path d="m223.32 879.66c21.706-10.732 50.96 22.79 44.782 32.203" fill="none" stroke="#000" stroke-dasharray="3, 3"/>
  <path d="m313.39 841.42c-7.6286-3.2681-17.719 25.785-14.34 28.681" fill="none" stroke="#000" stroke-dasharray="3, 3"/>
  <path d="m245.07 460.36c-10.579-13.221-19.233-24.401-19.232-24.655 7e-3 -1.4521 17.36-28.763 25.756-40.503 9.9096-13.856 21.317-26.306 29.246-32.244 2.7546-2.0629 10.607-6.2108 12.206-6.8075 0.56849-0.21217 0.759 6.6682 5.0246 41.243 3.3292 26.984 5.5679 39.504 5.282 39.869-4.6438 5.9183-38.36 47.621-38.583 47.874-0.17095 0.19429-9.122-11.556-19.701-24.777z" fill="#34b716"/>
  <path d="m259.89 384.19 41.719 36.889" fill="none" stroke="#008d00" stroke-width="4"/>
  <path d="m249.58 397.8 49.608 43.023" fill="none" stroke="#009100" stroke-width="4"/>
  <path d="m228.06 436.43 69.819-58.844" fill="none" stroke="#008f00" stroke-width="4"/>
  <path d="m235.53 449.6 66.314-54.013" fill="none" stroke="#008f00" stroke-width="4"/>
  <path d="m234.65 421.07 46.096 42.584" fill="none" stroke="#008e00" stroke-width="4"/>
  <path d="m225.87 434.9 46.096 42.584" fill="none" stroke="#008f00" stroke-width="4"/>
  <path d="m231.58 443.11 66.958-54.096" fill="none" opacity=".81013" stroke="#886116" stroke-width="2"/>
  <path d="m254.41 390.78 48.741 42.601" fill="none" opacity=".81013" stroke="#886116" stroke-width="2"/>
  <path d="m229.16 428.75 46.974 40.828" fill="none" opacity=".81013" stroke="#886116" stroke-width="2"/>
  <path d="m251.78 467.17 50.047-43.901" fill="none" opacity=".81013" stroke="#886116" stroke-width="2"/>
  <path d="m277.01 366.41 21.089 18.012" fill="none" opacity=".81013" stroke="#886116" stroke-width="2"/>
  <path d="m392.22 420.74c-18.643-0.64547-31.676-0.77609-31.798-0.89821-0.20287-0.20287-16.2-74.394-17.221-80.165-0.20581-1.1634-0.40086-0.5479 12.153-3.2474l5.6735-1.1719 2.8051 0.93228c1.614 0.91501 1.2014 1.4306 4.078 10.264 7.9927 24.542 15.182 40.314 23.98 49.493 1.1122 1.1603 2.5613 3.0782 3.059 3.0758 1.2589-6e-3 5.3443-2.4849 8.3422-4.5379 9.239-6.3268 19.994-20.951 36.624-47.184 4.5623-7.1971 8.3444-12.816 8.4048-12.892s2.5076 0.0713 4.2225 0.9349c2.1111 1.0631 3.607 1.9823 3.5893 2.4988-0.0144 0.41951-2.9275 19.499-7.0815 42.195l-8.8792 42.593-6.8617-0.27551c-3.1356 0.0308-16.975-0.63784-35.619-1.2833l-5.4714-0.33164z" fill="#34b716"/>
  <path d="m527.8 397.71-42.16 36.889" fill="none" stroke="#008d00" stroke-width="4"/>
  <path d="m552.16 464.67-65.66-55.173" fill="none" stroke="#008f00" stroke-width="4"/>
  <path d="m533.29 404.29-48.299 42.16" fill="none" opacity=".81013" stroke="#886116" stroke-width="2"/>
  <path d="m508.26 474.45-21.034-26.492-0.68748-1.5364c0.4876-9.7581 5.1242-85.73 5.2084-86.399 0.0879-0.69815 2.4562 0.74825 4.7712 2.8884 13.498 12.479 42.952 48.493 64.044 78.416l3.6413 5.7693-1.6312 2.3151c-2.6753 4.4555-33.303 52.008-33.496 52.016-0.12073 5e-3 -9.7092-12.633-20.816-26.977z" fill="#34b716"/>
  <path d="m538.11 411.32-47.125 41.16" fill="none" stroke="#009100" stroke-width="4"/>
  <path d="m560.56 451.5-72.744-63.321" fill="none" stroke="#008f00" stroke-width="4"/>
  <path d="m554.28 433.65-45.165 41.342" fill="none" stroke="#008e00" stroke-width="4"/>
  <path d="m554.14 455.22-66.9-55.173" fill="none" opacity=".81013" stroke="#886116" stroke-width="2"/>
  <path d="m559.77 440.71-45.422 41.138" fill="none" opacity=".81013" stroke="#886116" stroke-width="2"/>
  <path d="m541.4 482.16-53.772-46.695" fill="none" opacity=".81013" stroke="#886116" stroke-width="2"/>
  <path d="m510.68 379.93-22.87 21.296" fill="none" opacity=".81013" stroke="#886116" stroke-width="2"/>
  <path d="m559.15 453.06-38.335 37.927" fill="none" stroke="#008e00" stroke-width="4"/>
  <path d="m299.07 511.25c4e-3 -8.6014-2.7702-14.073-1.1535-34.753-0.70439-39.767 4.2906-35.934 4.0606-40.388-0.20574-3.984-2.1776-8.2265-3.3773-17.764s-1.5501-21.361-1.2995-18.691c0.35484 3.7797-1.2601-11.454-2.75-23.239-1.8419-14.569-1.7986-20.349-1.4941-20.653 1.2358-1.2358 29.87-11.459 30.343-10.864 0.0565 0.0711 2.9975 20.716 6.0933 44.378l4.9353 42.128 0.3054 17.014c-0.0548 34.832-3.3279 58.61-10.127 73.569-1.6155 3.5544-4.242 5.5931-8.4183 7.0747-2.8901 1.0253-10.794 2.6722-12.334 2.6722-0.59447 0-3.4222 3.2214-3.4168-7.8611l-1.3675-12.621z" fill="#34b716"/>
  <path d="m300.57 427.06 34.773 5.5369" fill="none" stroke="#008d00" stroke-width="4"/>
  <path d="m299.58 450.99 34.3 4.0064" fill="none" stroke="#008d00" stroke-width="4"/>
  <path d="m298.64 501.38 31.21 4.372" fill="none" stroke="#008d00" stroke-width="4"/>
  <path d="m299.09 479.8 34.142 4.8505" fill="none" stroke="#008d00" stroke-width="4"/>
  <path d="m302.02 438.35 32.702 5.4595" fill="none" opacity=".81013" stroke="#886116" stroke-width="2"/>
  <path d="m298.45 490.82 33.321 5.1781" fill="none" opacity=".81013" stroke="#886116" stroke-width="2"/>
  <path d="m326.22 347.75-12.036 182.44" fill="none" opacity=".81013" stroke="#886116" stroke-width="2"/>
  <path d="m293.81 370.08 84.295 15.385" fill="none" stroke="#008d00" stroke-width="4"/>
  <path d="m296.34 389.07 98.363 18.48" fill="none" stroke="#008d00" stroke-width="4"/>
  <path d="m394.49 398.17 1.4069 22.791" fill="none" stroke="#000"/>
  <path d="m295.55 379.68 98.262 19.81" fill="none" opacity=".81013" stroke="#886116" stroke-width="2"/>
  <path d="m470.41 540.87c-7.5079-2.4131-9.5103-4.3684-10.969-9.969-4.0677-15.613-3.7166-45.854 1.1941-78.752 0.68346-4.5787 16.621-98.187 17.101-100.45l0.91407-2.1796 2.938 1.897c1.2512 0.7698 3.5378 2.5015 5.892 4.2535 3.9039 2.9053 5.6053 3.6427 5.5904 4.9458-9e-3 0.78585-1.7164 20.297-3.019 43.236 0 0-1.9742 27.31-2.2678 40.991 2.5696 9.2689 2.1802 28.844 0.57697 46.687-3.5126 25.956-10.665 51.01-10.542 51.272 3.7885 8.1004-4.7643-1.9007-6.9108-2.5906l-0.4974 0.6632z" fill="#34b716"/>
  <path d="m491.35 379.84-94.243 18.966" fill="none" stroke="#008d00" stroke-width="4"/>
  <path d="m489.61 400.82-93.19 17.286" fill="none" stroke="#008d00" stroke-width="4"/>
  <path d="m491.99 390.24-96.671 20.207" fill="none" opacity=".81013" stroke="#886116" stroke-width="2"/>
  <path d="m488.92 431.96-27.61 5.139" fill="none" stroke="#008d00" stroke-width="4"/>
  <path d="m487 454.92-28.213 4.1784" fill="none" stroke="#008d00" stroke-width="4"/>
  <path d="m487.47 443.25-29.519 5.0616" fill="none" opacity=".81013" stroke="#886116" stroke-width="2"/>
  <path d="m487.26 489.4-31.514 4.9991" fill="none" stroke="#008d00" stroke-width="4"/>
  <path d="m484.37 512.85-27.169 3.9524" fill="none" stroke="#008d00" stroke-width="4"/>
  <path d="m486.77 501.18-31.207 4.4378" fill="none" opacity=".81013" stroke="#886116" stroke-width="2"/>
  <path d="m444.03 341.58 18.801 196.93" fill="none" opacity=".81013" stroke="#886116" stroke-width="2"/>
  <path d="m362.22 338.24-5.5332 80.461" fill="none" stroke="#008d00" stroke-width="4"/>
  <path d="m420 376.77 4.7964 47.985" fill="none" opacity=".81013" stroke="#886116" stroke-width="2"/>
  <path d="m448.88 333.52 7.8591 3.9295-6.2873 34.842-6.2873 0.26197 5.5014 5.1084-1.9648 10.217-52.787 15.325v-4.5845c17.281-5.1828 35.673-36.299 53.966-65.099z" fill="#349e16" stroke="#005c00"/>
  <path d="m380.64 382.46-3.6945 40.744" fill="none" stroke="#008d00" stroke-width="4"/>
  <path d="m303.45 543.87c-4.4588-5.0022-9.6024-104.98-1.1003-105.76l-37.43 47.369-39.636-49.564s31.016-55.814 56.147-73.802c23.596-16.889 82.569-27.538 82.569-27.538 10.275 35.117 20.551 55.196 30.826 63.889 16.088-4.613 34.986-34.52 53.945-64.99 0 0 29.534 13.82 41.835 24.234 29.449 24.931 73.762 89.224 73.762 89.224l-35.232 55.071-41.834-53.978c6.1343 41.071-2.566 74.725-14.311 106.86l-169.54-11.015z" fill="none" stroke="#000"/>
  <path d="m370.8 356.36-4.3985 65.891" fill="none" opacity=".81013" stroke="#886116" stroke-width="2"/>
  <path d="m313.28 347.75 56.9 7.9919" fill="none" opacity=".81013" stroke="#886116" stroke-width="2"/>
  <path d="m363.8 334.11-20.86 4.6726 6.1745 29.037 12.182 1.6688-10.347 5.507 1.5019 8.1771 42.221 17.355-0.33376-2.5032c-12.089-11.519-22.006-34.171-30.539-63.915z" fill="#349e16" stroke="#005c00"/>
  <path d="m322.7 342.35 19.53-5.9139 17.579 83.882 81.132 2.7059 16.226-89.294 21.635 9.4706-17.579 102.82s-10.44 60.577-1.3522 87.941c2.4822 7.4742 21.635 9.4706 21.635 9.4706-4.4077 49.239-4.0115 109.1 13.004 168 8.5646 29.642 10.697 128.45 3.6266 129l-78.832 6.0675c-4.3376 0.33385 7.043-49.928 0.67456-96.429s-30.436-88.839-43.849-102.3c-21.654 56.48-35.592 192.79-42.711 192.91l-83.14 1.4504c-13.475 0.23509 39.71-195.77 43.677-246.08l5.0021-63.433s20.465-0.48926 24.34-8.1176c14.595-28.737 10.818-94.706 10.818-94.706l-11.417-87.439z" fill="#2528ab" stroke="#000064" stroke-width="1.5"/>
  <path d="m299.28 603.96c27.398 5.2037 35.288-20.82 33.995-61.548" fill="none" stroke="#000064" stroke-width="3"/>
  <path d="m462.77 560.22c4.4546 19.811-1.5613 52.193 15.648 56.689" fill="none" stroke="#000063" stroke-width="3"/>
  <path d="m361.33 448.47c18.735 10.742 43.695 12.991 78.242 2.1596l-5.9356 69.646c-36.973 24.675-58.702 18.848-71.227-5.3989l-1.0792-66.407z" fill="none" stroke="#000064" stroke-width="2.1"/>
  <path d="m403.96 485.18c8.1154 2.2108 16.369 3.5939 25.901-2.6995l-2.698 27.535c-9.1469 6.9399-14.569 2.6996-21.044 1.6197l-2.1584-26.455z" fill="none" stroke="#000064" stroke-dasharray="2.99999999, 1"/>
  <path d="m407.74 488.76c5.7484 1.6031 11.595 2.606 18.346-1.9574l-1.9111 19.966c-6.4791 5.0322-10.32 1.9575-14.906 1.1744l-1.5289-19.183z" fill="none" stroke="#000064"/>
  <path d="m364.71 452.25c17.117 9.8161 39.921 11.871 71.483 1.9734l-5.4228 63.643c-33.779 22.548-53.631 17.223-65.074-4.9336l-0.98598-60.683z" fill="none" stroke="#000064" stroke-dasharray="6.2999997, 6.2999997" stroke-width="2.1"/>
  <path d="m302.4 605.52c27.398 5.2037 35.288-20.82 33.995-61.548" fill="none" stroke="#000064" stroke-dasharray="6, 6" stroke-width="1.5"/>
  <path d="m459.65 563.35c4.4546 19.811-1.5613 52.193 15.648 56.689" fill="none" stroke="#000063" stroke-dasharray="5.19999981, 5.19999981" stroke-width="1.3"/>
  <path d="m400.18 583.98-1.6188 47.511c-0.30243 8.876-13.315 8.6119-20.505 10.258l3.2376-59.928 18.886 2.1596z" fill="none" stroke="#000063"/>
  <path d="m381.3 635.27 3.2376-48.59" fill="none" stroke="#000063" stroke-dasharray="3.99999999, 3.99999999"/>
  <path d="m267.12 817.05 37.431-201.58" fill="none" stroke="#000063" stroke-dasharray="7.99999999, 7.99999999"/>
  <path d="m324.26 593.87-17.27-16.037c-8.437-7.8344-24.92-6.3249-34.54 0-16.467 10.826-11.081 33.941-23.438 54.278 0 0 1.3519 30.57 8.6351 46.876 18.887-14.498 15.481-56.067 15.481-56.067s-1.7603 8.7158-5.3685 16.465c0.74377 7.1544-2.4439 33.66 4.7315 33.157-2.7543-16.103 9.263-21.823 12.295-33.029 3.3574-12.406 4.9344-38.241 4.9344-38.241l12.336 2.4672 22.205-9.8687z" fill="url(#c)" stroke="#9e9ea0"/>
  <path d="m299.59 593.87-13.569-13.569" fill="none" stroke="#878f90"/>
  <path d="m303.29 600.04-22.205-6.1679" fill="none" stroke="#878f90"/>
  <path d="m284.78 607.44-19.737 14.803-6.1679 24.672" fill="none" stroke="#878f90"/>
  <path d="m276.15 597.57-11.102 13.569" fill="none" stroke="#878f90"/>
  <path d="m628.42 283.04-31.172 586.03h11.222l29.925-586.03c-4.4304-4.0533-7.2544-2.2161-9.975 0z" fill="#969063" stroke="#000" stroke-width=".5"/>
  <path d="m627.64 292.96c-2.6499-0.75234-11.512 14.086-6.0548 16.269 0 0 17.185 0.82459 18.065 7.4812 1.3624 10.301-23.374 9.1313-24.937 18.703 21.055 15.441 42.742 48.707 57.356 64.837 23.597 4.2897 58.615-10.203 63.591-33.666-9.9311-27.936-34.578-52.899-54.862-69.825-6.717-3.8722-23.171 14.023-34.176 10.039-4.2272-1.5304-6.0534-13.634-8.5407-13.57" fill="none" stroke="#000"/>
  <path d="m641.45 507.69s-8.9316 0.43487-15.222-0.86955-10.183-3.6061-14.108-0.73406c-1.6836 1.2321-3.5212 6.8374-1.7783 7.984 3.4389 2.2624 17.741 3.2838 17.741 3.2838l14.599 1.161c0.73889-3.4861 1.5528-9.9822-1.2326-10.825v2e-5z" fill="#daaf84" stroke="#c29b6f"/>
  <path d="m641.76 525.44-18.146 1.5496s-9.0555-4.2758-13.502-3.0944c-2.0163 0.5357-2.6127 4.3957-1.4073 6.0985 2.7755 3.9209 13.76 3.1179 13.76 3.1179l17.253 0.66343c2.0708-1.7793 3.486-4.7986 2.0423-8.3351z" fill="#daaf84" stroke="#c29b6f"/>
  <path d="m642.62 518.47s-12.523 0.87766-19.028-0.55853-10.251-2.8123-13.452-1.8414c-2.075 0.62934-2.9446 5.0524-1.4554 6.7146 3.2133 3.5866 18.004 3.6155 18.004 3.6155h15.956c1.764-2.9129 1.4052-5.503-0.0244-7.9302h1e-5z" fill="#daaf84" stroke="#c29b6f"/>
  <path d="m600.9 500.39s-2.0602 6.7123-0.49757 9.4538c3.1549 3.6668 10.995 7.3681 13.932 6.6343 3.5437-0.88533 8.6917-3.3697 7.2977-7.6294-2.3293-1.5346-8.0339-4.1403-8.2329-7.4906s2.6286-7.79 2.6286-7.79c-9.196 0.60939-11.421 4.2521-15.128 6.8219z" fill="#daaf84" stroke="#c29b6f"/>
  <path d="m638.09 533.76-14.777-0.31897s-8.2115-1.3313-11.97-0.61614c-1.704 0.32428-2.208 2.6609-1.1894 3.6917 2.3456 2.3735 11.629 1.8874 11.629 1.8874l14.581 0.4016c1.7501-1.0771 2.946-2.9048 1.726-5.0456z" fill="#daaf84" stroke="#c29b6f"/>
  <path d="m617.26 507.1c-5.505-1.6082-8.0976 1.6927-7.5072 7.3108" fill="none" stroke="#d0a67a"/>
  <path transform="matrix(.72056 0 0 .80501 120.43 107.56)" d="m491.11 190.95c-6.7665 77.292-39.502 108.49-97.335 108.49-28.917 0-65.553-20.464-78.352-45.153-12.236-23.604-26.365-33.78-26.365-63.892 0-60.223 46.883-109.04 104.72-109.04s102.87 34.505 97.335 109.59z" fill="#daaf84" stroke="#bea57b" stroke-width="1.9695"/>
  <path d="m424.59 257.71c21.845-5.1068 27.01 27.483 0.38409 24.966" fill="url(#b)" stroke="#000" stroke-linecap="round"/>
  <path d="m377.12 299.15c10.673 0.73274 16.447-3.057 13.827-14.595" fill="none" stroke="#000" stroke-linecap="round"/>
  <path d="m389.48 296.47c18.9 3.7211 32.909 19.58 56.077 3.0727" fill="none" stroke="#000" stroke-linecap="round"/>
  <path d="m412.06 314.29c-1.462-1.3078-2.5641-3.9074-3.1706-7.4792-0.27373-1.6118-1.3294-3.8428-0.33287-3.5997 5.4711 1.3346 16.768 3.9935 21.942 3.1657 1.3268-0.21226 2.4756-0.33246 2.5531-0.2671 0.20697 0.1746-6.4295 4.8286-9.3675 6.5693-3.4915 2.0686-5.8242 2.8995-8.1679 2.9094-1.6859 7e-3 -2.2214-0.19405-3.456-1.2984z" fill="#001800"/>
  <path d="m401.36 319.88c3.8569 10.246 7.0731 11.09 20.276 5.0177" fill="none" stroke="#000" stroke-linecap="round" stroke-width=".7"/>
  <path d="m392.48 245.08c-7.2779-18.539 18.753-34.015 18.352 2.4355" fill="#fffffe" stroke="#000" stroke-width=".5"/>
  <path d="m434.82 247.12c-4.9242-21.78 19.702-36.099 18.569 0.58325" fill="#fffffe" stroke="#000" stroke-width=".5"/>
  <path transform="translate(10,-.27159)" d="m394.89 240.57c0 3.1499-1.7023 5.7034-3.8023 5.7034s-3.8023-2.5535-3.8023-5.7034 1.7023-5.7034 3.8023-5.7034 3.8023 2.5535 3.8023 5.7034z" fill="#33370e"/>
  <path transform="translate(10)" d="m390.00629,237.85742c0,.44999-.24319.81478-.54319.81478s-.54318-.36479-.54318-.81478 .24319-.81477.54318-.81477 .54319.36478.54319.81477z" fill="#fff"/>
  <path transform="translate(53.998 .81478)" d="m394.89 240.57c0 3.1499-1.7023 5.7034-3.8023 5.7034s-3.8023-2.5535-3.8023-5.7034 1.7023-5.7034 3.8023-5.7034 3.8023 2.5535 3.8023 5.7034z" fill="#33370e"/>
  <path transform="translate(53.998 1.0864)" d="m390.00629,237.85742c0,.44999-.24319.81478-.54319.81478s-.54318-.36479-.54318-.81478 .24319-.81477.54318-.81477 .54319.36478.54319.81477z" fill="#fff"/>
  <path d="m353.27 241.93c-22.452-15.028-21.908 35.216 0 29.332" fill="none" stroke="#000" stroke-width=".6"/>
  <path d="m350.63 256.05c-2.3219 1.2274-8.7676-2.0022-0.27159 8.691" fill="none" stroke="#000" stroke-width=".4"/>
  <path d="m349.81 246.82c-6.7553-12.075-14.337 3.9292-7.333 16.024" fill="none" stroke="#000" stroke-width=".3"/>
  <path d="m437.02 221.38c7.286-7.151 13.62-5.7342 19.68-1.8523" fill="none" stroke="#826118" stroke-linecap="round" stroke-width="2.3"/>
  <path d="m472.16 200.63c7.1639 9.3427 18.338 31.335 8.1192 27.376-9.6618-3.7431-13.968-26.885-23.378-22.549-7.3079 3.367 11.809 23.309-1.3164 11.85-12.217-10.666-8.529-16.122-21.162-18.871-15.056-3.277-27.124 26.957-24.457 16.723 1.6084-6.1704-4.8792-11.38-8.893-15.846-7.0863-7.8836-29.647 27.207-31.204 21.233-1.6806-6.448 4.0268-20.108-0.82913-20.355-11.936-0.60802-9.6312 20.99-8.7763 32.911 0.50613 7.0575 9.9557 14.502 4.3881 18.869-6.3501 4.9803-7.7728-13.184-15.797-14.042-3.9162-0.4186-7.849 0.27361-10.093 3.5105-3.5627 5.1398-3.3649 10.903-2.6329 17.114 1.1264 9.5578 17.828 20.893 10.97 27.645-3.6835 3.6269-8.967-7.5655-14.042-6.5822-5.6899 1.1024-11.235 18.489-11.848 12.726-2.1624-20.323-14.938-48.061-5.7046-69.332 1.7828-4.1072 4.8949-12.423 7.6225-15.974 2.9134-3.7926 7.223-6.7122 10.795-9.8918 8.3303-7.4146 9.8755-16.143 28.786-23.05 21.312-8.904 52.394-10.288 80.993-1.7552 18.092 5.3976 23.632 21.997 28.459 28.291z" fill="#876110" stroke="#000"/>
  <g transform="matrix(.79715 -.21847 .21445 .82698 138.94 152.51)">
   <path d="m196.42 104.83c-6.7777-3.7629-14.114-9.6291-18.431-14.737-2.6103-3.089-5.7039-7.1224-3.3726-5.1608 2.9756 2.5038 7.8058 6.298 11.737 6.3061 4.2159 0.0087 7.2824-1.1602 11.604-4.4233l2.922-2.5336-0.77354 1.982c-0.73009 2.8909-1.6178 8.7194-1.9026 12.491-0.24226 3.2091 1.3819 6.124 1.983 7.2865 1.2428 2.4034-0.50869 0.59841-3.7672-1.2107z" fill="#e6cdb3" stroke="#e4cba6" stroke-linecap="round" stroke-linejoin="round" stroke-width=".71404"/>
   <path d="m347.8 103.75c1.8463-1.9942 3.2346-4.5189 3.2334-5.8799-1e-3 -1.5884-0.80187-8.2513-1.2726-10.593-0.0757-0.37657-0.0688-0.37493 2.262 0.54036 2.6169 1.0276 3.5533 1.2512 5.5209 1.3184 2.8325 0.09665 5.6964-0.40361 10.026-1.7513 2.7516-0.85648 7.2337-2.5368 10.322-3.8696 0.7822-0.33758 1.4381-0.61378 1.4576-0.61378 0.065 0-2.1306 3.2321-2.6496 3.9005-0.28156 0.36258-1.0171 1.1213-1.6346 1.686-5.9501 5.442-14.591 10.506-25.832 15.138-1.0812 0.44559-1.9889 0.81016-2.017 0.81016s0.23472-0.30876 0.58411-0.68614z" fill="#e6cdb3" stroke="#e4cba6" stroke-linecap="round" stroke-linejoin="round" stroke-width=".71404"/>
   <path d="m350.79 98.296c-10.398 32.099-161.55 29.128-152.12 0 0 0 2.0067-29.036 16.56-37.956 36.217-22.199 86.304-24.469 121.6-1.2e-5 12.575 8.7165 13.953 37.956 13.953 37.956z" fill="#ede1c0" stroke="#d2c398" stroke-width=".59503"/>
   <path d="m222.7 91.187c26.595 0.70421 37.69-8.1646 45.59-24.987" fill="none" stroke="#d2c398" stroke-width=".95205"/>
   <path d="m201.48 83.067c-13.799 13.462-22.305 7.5576-29.308-1.0654 0 0-1.8923 23.6 6.1472 29.766 48.105 36.889 178.9 37.355 191.53 0.97061l10.677-30.736c-24.565 10.779-25.233 5.972-31.06 4.5295" fill="none" stroke="#d3c498" stroke-width=".71404"/>
   <path d="m278.7 139.12c-11.551-0.63297-18.833-1.2611-26.207-2.2604-30.61-4.1486-54.996-12.289-71.699-23.934-3.663-2.5539-4.9192-4.2433-6.2627-8.4226-1.2838-3.9935-1.9546-9.5111-1.9422-15.975 9e-3 -4.7221-0.27816-5.9659 0.13178-5.4243 0.25556 0.33762 0.72559 1.4332 0.62509 1.5958-0.32972 0.53349 4.2738 6.1694 8.0185 9.8167 20.347 19.818 58.616 28.646 105.1 24.244 38.274-3.6241 74.907-16.24 89.858-30.947 1.2926-1.2714 3.968-5.7853 3.968-5.6809 0 0.63278-11.187 31.188-12.022 32.912-1.2851 2.6519-6.1665 7.6465-9.6548 9.8788-11.28 7.2185-28.785 11.807-52.413 13.741-4.1399 0.3387-23.717 0.66334-27.501 0.45602z" fill="#d1c2a3" stroke="#b29e7e" stroke-linecap="round" stroke-linejoin="round" stroke-width=".71404"/>
  </g>
  <path d="m627.53 301.8c-2.8485 0.45239 1.3667 3.5054 4.9717 3.3404s7.1739-3.4206 5.1374-3.3404" fill="none" stroke="#000"/>
  <path d="m676.73 400.17c-4.5857-0.44248-3.9847-0.10439-7.418-4.1726-4.4644-5.2901-5.0053-5.9917-4.6978-6.0942 0.15336-0.0511 0.39229-1.2897 0.53378-2.7671 0.29218-3.0508 0.78449-5.0364 1.4536-5.8628l0.46183-0.57034 3.1981 1.0404c9.1552 2.9785 17.29 3.2752 19.21 0.70047 0.32325-0.43368 0.7899-1.4199 1.037-2.1916 1.0389-3.2445 1.3925-3.4245 5.6098-2.8567 2.6635 0.35863 2.8574 0.3533 3.8155-0.1047 1.5335-0.73309 2.5647-2.3006 3.4726-5.2789 1.6146-5.2967 2.1545-6.3168 3.6804-6.9544 1.1559-0.48297 2.114-0.16058 4.9755 1.6742 3.2661 2.0942 4.5848 2.4313 6.3097 1.6128 1.7476-0.8293 2.333-2.2621 3.2646-7.9904 0.89259-5.4884 2.4861-6.3595 7.2475-3.9617 0.95699 0.48193 1.8026 0.81358 1.8792 0.737 0.18329-0.1833 1.7288 3.1411 3.13 6.7327l1.1198 2.8702-0.66265 2.1043c-2.4797 7.8746-8.7387 15.256-17.824 21.02-8.1159 5.149-18.517 8.812-28.444 10.017-3.084 0.37439-8.955 0.52767-11.352 0.29637z" fill="url(#d)"/>
  <path d="m662.62 387.88c-1.0128-1.2656-3.6861-4.6571-5.9408-7.5365-8.6852-11.092-15.21-19.141-19.793-24.415-1.3155-1.5139-1.6814-2.0716-1.6838-2.5663-2e-3 -0.34765 0.3329-7.2378 0.74352-15.312l0.74657-14.679 1.2166-1.1039c3.007-2.7284 3.2123-6.05 0.53905-8.7232l-1.2083-1.2083 0.23265-4.2262c0.21783-3.9569 0.2633-4.2626 0.71371-4.7979 0.26458-0.31443 0.54126-0.76141 0.61485-0.99327 0.15007-0.47284-0.20443-1.0178-0.6621-1.0178-0.25833 0-0.28061-0.48836-0.15696-3.4389 0.0793-1.8914 0.21793-3.5185 0.30812-3.6158 0.2789-0.30091 1.1441 1.276 2.4628 4.4884 2.9952 7.2967 4.2134 8.684 8.0028 9.1134 1.4207 0.16099 4.039-0.0699 5.6459-0.49779 3.0404-0.80968 6.776-2.5494 14.238-6.6308 5.8706-3.2111 9.0595-4.3094 10.906-3.7561 2.1428 0.642 18.934 16.27 26.72 24.868 6.8486 7.5635 12.765 15.166 17.417 22.378 3.3635 5.2152 7.4609 12.729 6.9413 12.729-0.14189 0-1.1358-0.3923-2.2088-0.87178-1.6107-0.71979-2.1716-0.87191-3.2174-0.87255-1.0661-6.2e-4 -1.3549 0.0805-1.8243 0.51249-0.85583 0.78765-1.3017 2.0116-1.9468 5.3439-1.0275 5.3076-1.4623 6.3184-3.0657 7.1285-1.6562 0.83668-2.7919 0.55086-6.3484-1.5976-3.3268-2.0097-4.7537-2.216-6.0138-0.86933-0.74662 0.79789-1.05 1.465-2.198 4.8328-1.5155 4.4461-2.2462 5.7007-3.8004 6.5252-0.8931 0.47379-0.89988 0.47414-4.0622 0.20578-4.3277-0.36725-4.1413-0.47563-5.7055 3.3172-0.72476 1.7574-1.5656 2.6632-2.8223 3.0403-0.42653 0.12799-1.8842 0.28159-3.2392 0.34133-3.9602 0.17461-8.6754-0.65341-14.632-2.5693l-2.5184-0.81011-0.41131 0.52289c-0.59004 0.75012-1.1669 2.8674-1.5228 5.5898-0.5142 3.9324-0.32849 3.8442-2.4669 1.172z" fill="#545458" stroke="#545458" stroke-width=".6"/>
  <path d="m621.96 340.57c-1.5809-1.4004-3.6794-3.1639-4.6635-3.919s-1.7925-1.492-1.7964-1.6376c-0.0161-0.59005 0.85461-1.8868 1.9216-2.8619 0.636-0.58128 2.0119-1.4816 3.1428-2.0566 1.9609-0.99691 4.9561-2.224 5.0678-2.0762 0.0476 0.063-0.55929 11.802-0.73709 14.258l-0.0608 0.83935-2.8743-2.5461z" fill="#545458" stroke="#545458" stroke-linecap="round" stroke-linejoin="round" stroke-width=".6"/>
  <path d="m623.56658,308.81593c-2.26144-.27338-2.84329-.67808-3.06085-2.12892-.41234-2.74966 2.68255-9.45589 5.64088-12.22306 .568-.53129 1.10597-.96616 1.1955-.96638s.0814,1.73732-.0181,3.8612l-.1809,3.8616-.589.33804c-.72775.41767-.76063,1.01725-.10306,1.87936 .46538.61014.48156.74343.38243,3.15031l-.10351,2.51321-.63906-.0287c-.35149-.0158-1.48742-.13129-2.5243-.25663z" fill="#545459" stroke="#545459" stroke-linecap="round" stroke-linejoin="round" stroke-width=".6"/>
  <path d="m633.24 351.86c-0.55839-0.64775-2.5223-2.7207-4.3643-4.6065l-3.8054-3.8851 0.28869-7.6666c0.24244-4.4397 0.30397-7.7784 0.32266-7.7911s2.2265-0.81008 3.9768-1.4621 3.9062-1.5372 4.791-1.967l2.5214-1.2885-0.51959 1.5213c-0.0627 0.52995-0.10478 7.1626-0.46537 14.615s-0.30936 14.786-0.38192 14.871-1.8056-1.6932-2.364-2.341z" fill="#545458" stroke="#545458" stroke-linecap="round" stroke-linejoin="round" stroke-width=".6"/>
  <path d="m636.26 311.77c-0.90891-0.53085-4.1926-1.5025-6.9069-2.0438-1.22-0.24329-2.2569-0.47792-2.3041-0.5214s-0.0146-1.1292 0.0726-2.4127l-0.8096-3.2658 1.6419 1.2235c2.0827 1.3865 6.2578 1.531 8.6352-0.12236l1.5541-1.0698-0.0787 2.0776c-0.0432 0.84689-0.89857 2.8013-0.98052 4.124l-0.14902 2.4049-0.6749-0.39417 2e-5 2e-5z" fill="#545458" stroke="#545458" stroke-linecap="round" stroke-linejoin="round" stroke-width=".6"/>
  <path d="m389.44 221.39c7.286-7.151 13.62-5.7342 19.68-1.8523" fill="none" stroke="#826118" stroke-linecap="round" stroke-width="2.3"/>
 </g>
</svg>
