<?xml version="1.0" encoding="UTF-8"?>
<svg width="31.026mm" height="28.251mm" version="1.1" viewBox="0 0 109.93615 100.10264" xmlns="http://www.w3.org/2000/svg" xmlns:xlink="http://www.w3.org/1999/xlink">
 <defs>
  <linearGradient id="o">
   <stop stop-color="#199800" offset="0"/>
   <stop stop-color="#126f00" offset=".11006"/>
   <stop stop-color="#178c00" offset=".21301"/>
   <stop stop-color="#157e00" offset=".39246"/>
   <stop stop-color="#168900" offset=".59852"/>
   <stop stop-color="#106600" offset=".88893"/>
   <stop stop-color="#0d4f00" offset="1"/>
  </linearGradient>
  <pattern id="t" xlink:href="#p" patternTransform="matrix(-.11126 .7417 -2.3487 -.35231 5.6569 939.04)"/>
  <pattern id="p" width="1.5" height="1" patternTransform="translate(0) scale(10)" patternUnits="userSpaceOnUse">
   <rect y="-.5" width="1" height="2"/>
  </pattern>
  <pattern id="s" xlink:href="#n" patternTransform="matrix(.48941 0 0 .48941 -2 938)"/>
  <pattern id="r" xlink:href="#n" patternTransform="matrix(.7625 0 0 .7125 2 934)"/>
  <pattern id="q" xlink:href="#n" patternTransform="matrix(.55 0 0 .4875 2 946)"/>
  <pattern id="n" width="10" height="10" patternTransform="translate(0) scale(10)" patternUnits="userSpaceOnUse">
   <circle cx="2.567" cy=".81" r=".45"/>
   <circle cx="3.048" cy="2.33" r=".45"/>
   <circle cx="4.418" cy="2.415" r=".45"/>
   <circle cx="1.844" cy="3.029" r=".45"/>
   <circle cx="6.08" cy="1.363" r=".45"/>
   <circle cx="5.819" cy="4.413" r=".45"/>
   <circle cx="4.305" cy="4.048" r=".45"/>
   <circle cx="5.541" cy="3.045" r=".45"/>
   <circle cx="4.785" cy="5.527" r=".45"/>
   <circle cx="2.667" cy="5.184" r=".45"/>
   <circle cx="7.965" cy="1.448" r=".45"/>
   <circle cx="7.047" cy="5.049" r=".45"/>
   <circle cx="4.34" cy=".895" r=".45"/>
   <circle cx="7.125" cy=".34" r=".45"/>
   <circle cx="9.553" cy="1.049" r=".45"/>
   <circle cx="7.006" cy="2.689" r=".45"/>
   <circle cx="8.909" cy="2.689" r=".45"/>
   <circle cx="9.315" cy="4.407" r=".45"/>
   <circle cx="7.82" cy="3.87" r=".45"/>
   <circle cx="8.27" cy="5.948" r=".45"/>
   <circle cx="7.973" cy="7.428" r=".45"/>
   <circle cx="9.342" cy="8.072" r=".45"/>
   <circle cx="8.206" cy="9.315" r=".45"/>
   <circle cx="9.682" cy="9.475" r=".45"/>
   <circle cx="9.688" cy="6.186" r=".45"/>
   <circle cx="3.379" cy="6.296" r=".45"/>
   <circle cx="2.871" cy="8.204" r=".45"/>
   <circle cx="4.59" cy="8.719" r=".45"/>
   <circle cx="3.181" cy="9.671" r=".45"/>
   <circle cx="5.734" cy="7.315" r=".45"/>
   <circle cx="6.707" cy="6.513" r=".45"/>
   <circle cx="5.73" cy="9.67" r=".45"/>
   <circle cx="6.535" cy="8.373" r=".45"/>
   <circle cx="4.37" cy="7.154" r=".45"/>
   <circle cx=".622" cy="7.25" r=".45"/>
   <circle cx=".831" cy="5.679" r=".45"/>
   <circle cx="1.257" cy="8.519" r=".45"/>
   <circle cx="1.989" cy="6.877" r=".45"/>
   <circle cx=".374" cy="3.181" r=".45"/>
   <circle cx="1.166" cy="1.664" r=".45"/>
   <circle cx="1.151" cy=".093" r=".45"/>
   <circle cx="1.151" cy="10.093" r=".45"/>
   <circle cx="1.302" cy="4.451" r=".45"/>
   <circle cx="3.047" cy="3.763" r=".45"/>
  </pattern>
  <radialGradient id="u" cx="112.83" cy="1035.4" r="45.431" gradientTransform="matrix(1.8693 .85245 -.20151 .44189 13.685 426.15)" gradientUnits="userSpaceOnUse" xlink:href="#o"/>
  <radialGradient id="v" cx=".24573" cy="1107.7" r="43.999" gradientTransform="matrix(-2.0191 .62944 -.16675 -.53488 274.91 1577.9)" gradientUnits="userSpaceOnUse">
   <stop stop-color="#1b5a00" offset="0"/>
   <stop stop-color="#1b5a00" offset=".24432"/>
   <stop stop-color="#1b5a00" offset=".9149"/>
   <stop stop-color="#87e618" offset=".9656"/>
   <stop stop-color="#fee913" offset="1"/>
  </radialGradient>
  <radialGradient id="w" cx="45.238" cy="1016.7" r="20.04" gradientTransform="matrix(1 0 0 .9305 0 70.661)" gradientUnits="userSpaceOnUse" xlink:href="#o"/>
  <radialGradient id="x" cx="69.586" cy="1025.7" r="25.301" gradientTransform="matrix(.44664 .94166 -1.1627 .55147 1229.5 390.46)" gradientUnits="userSpaceOnUse" xlink:href="#o"/>
  <radialGradient id="y" cx="38.114" cy="981.5" r="4.2153" gradientTransform="matrix(1 0 0 1.1346 -1.2455e-5 -132.15)" gradientUnits="userSpaceOnUse">
   <stop stop-color="#5c0000" offset="0"/>
   <stop stop-color="#d18c00" offset=".35199"/>
   <stop stop-color="#632100" offset="1"/>
  </radialGradient>
  <radialGradient id="z" cx="29.146" cy="971.28" r="4.622" gradientTransform="matrix(-.83769 .014188 -.012959 -.76511 66.148 1714.2)" gradientUnits="userSpaceOnUse">
   <stop stop-color="#fff" offset="0"/>
   <stop stop-color="#fff" offset=".31072"/>
   <stop offset=".67406"/>
   <stop offset="1"/>
  </radialGradient>
 </defs>
 <g transform="translate(.20346 -952.66)">
  <path d="m25.734 956.86c-0.58527 0.01-2.6597 0.2605-3.1992 0.371-1.5693 0.3202-1.991 1.1054-3.0547 2.3028-0.82259 0.926-1.4375 3.6074-1.4375 3.6074s-4.7385 0.2965-6.6953 0.8926c-2.7761 0.8455-4.8553 1.6974-6.334 3.7832-0.72617 1.0244-1.2387 1.9512-0.98829 3.1816 0.39883 1.9595 1.756 3.7995 3.9512 4.7598 0.5901 1.2066 1.185 3.6303 3.5215 4.4004 1.6283 1.6224 3.4136 2.1454 5.2051 2.625 2.2724 4.7939 5.5734 10.851 10.994 13.789 0.01837 0.02 0.04937 0.046 0.06836 0.067-0.62963 2.1258-1.005 4.1464-0.70508 5.9648-2.7578 0.5851-3.3129 1.6369-2.3926 3.7246-4.1643-0.053-3.9451 0.2644-4.5703 1.9902-3.5972 1.0269-6.9205 2.1506-8.3848 2.4551 0 0-1.6339-1.0359-3.0625-0.8574-1.4286 0.1786-2.7563 1.1739-2.7226 2.4473 0.0362 1.3699 2.2122 2.841 3.5801 2.7597 1.2633-0.075 2.5449-2.5 2.5449-2.5 3.3565 0.01 7.4349-0.8532 11.098-1.75-1.8504 1.5936-3.6092 2.821-5.293 3.7481-1.0529 0.5137-1.8963 0.7137-3.5801 2.1738 0 0-3.0944 0.8522-3.8242 1.8809-0.44776 0.6311-0.5949 1.8274 0 2.3222 1.2566 1.0452 3.9538 1.1675 5.2012 0.1114 0.5317-0.4502 1.0918-2.0899 1.0918-2.0899l3.9824-1.8398c2.1017-1.4509 4.8319-4.1788 7.1426-6.3828 0.20078 1.2597 0.08913 3.5195 0.94726 4.6269 0.20699 0.9326 1.9261 1.0285 2.8047 2.2969l-0.4707 2.4219c0.81271 1.9095 3.2369 2.593 3.9141 1.6992 0 0 2.1527-1.8737 2.0781-2.8106-0.0893-1.1217-2.8145-2.6465-2.8145-2.6465l-1.5859-2.457c-0.10241-0.8333-0.72268-1.7311 0.45898-2.5644 1.4167 1.6546 2.8335 2.6882 4.5625 3.0937l3.8027 0.3399 2.3613 1.8808c1.1043 0.3326 2.6293-0.5378 2.9902-2.7012 0.26512-1.589 0.29012-3.1161-1.084-3-0.8433 0.071-2.1821 0.5206-2.7031 0.9141-1.4498-0.7155-2.7035-2.0199-4.4551-1.8301-1.7555-2.2596-1.7003-3.4897-0.91797-5.9551 0.06131 0.089 1.7299 2.4905 3.0508 3.4981 1.8645 1.4222 4.4562 1.5908 6.4297 2.8574 1.1357 0.7289 3.0352 2.6797 3.0352 2.6797-1.3925 2.8263-2.794 7.0608-3.623 11.074-1.262 0.6799-1.9998-0.666-4.1641-1.4844 0.45555-1.1303-1.5165-2.2368-2.2305-2.1074-1.3058 0.2367-3.7724 2.2476-1.7949 3.4004l1.8477 1.8047s-3.6064-0.3059-6.2852-0.2949c-1.667 0.01-5.3789-0.8399-5.3789-0.8399-0.76047-1.4997-1.3174-1.0434-1.9121-1.1738-1.5317-0.3359-2.2316 0.9581-2.5312 1.9414 0.01126 1.2053 0.14117 2.029 0.99219 2.5625 1.3744 0.2661 2.6412 0.422 3.1777 0.018 2.7116 0.3149 4.4156 0.7082 6.9551 1.4297l3.6543 0.416c-3.2488 0.9222-4.896 1.0092-7.8262 2.0625-0.34687-0.7838-1.4979-1.0704-2.5059-1.1934-2.5639 0.2061-3.0117 1.5344-3.1973 2.7403 0.02651 2.2631 2.9326 3.3464 3.9297 2.6621 1.1042-0.7115 1.9963-1.0237 2.5957-1.2305 0 0 3.7612-0.2645 5.4629-0.3555 1.4265-0.076 2.7378-0.5446 4.1582-0.6972 1.393-0.1496 2.5198 0.083 3.918-0.01 1.3714-0.087 3.8747 0.6183 5.2422 0.4824 2.5304-0.2513 4.5899-1.3533 6.375-2.707 1.5485-1.1743 3.5339-3.5665 4.4414-5.2851 1.4432-2.733 1.998-8.545 1.998-8.545 2.5373 0.4532 4.5369 0.4385 7.7363-2.0761 0 0-0.5642 3.3146-0.25 4.83 0.56785 2.7387 1.1781 4.8287 3.4023 6.92 0.59691 0.1162 1.6608 0.4799 2.1934 0.8554-0.64518 0.5879-0.84804 0.6943-1.6406 1.1524-1.0895 0.49-2.0557 1.0402-3.0781 1.3554-1.0119-1.4181-2.5168-0.2623-3.291 0.3985-1.2258 1.0463-0.43427 2.2792-0.07227 2.6035 0.7646 0.6855 2.5147 0.4208 3.0586-0.031l1.6777-1.3964c0.45337 0.6853 0.4905 1.4801 0.06641 2.3847-1.5624 1.2667-3.2173 1.3589-5.0566 2.3477-1.131 0.3579-1.6991 0.8938-2.8301 1.5625-0.70046-0.014-2.8425-0.8891-3.543-0.2949-0.83069 0.5027-1.2209 1.5562-0.71094 2.2265 1.0586 0.9817 1.55 1.0085 2.4492 1.1934-2.0459 0.5591-2.7142 0.6191-3.4453 2-0.61284-0.3991-1.667-1.1688-2.9375-0.9102-1.9907 0.8487-3.2702 2.7176-3 3.418 1.25 1.4543 2.8125 2.0625 4.0625 2.0625 2.1971-0.4177 3.0024-1.0998 3.5976-1.8379 3.3913-0.6579 4.6225-1.6076 7.5332-3.2266 1.0745-0.3072 2.8012-2.1431 3.3301-2.9316 0.67477 0.7041 1.0126 0.9899 2.1367 1.0449-0.64981 0.368-1.4384 0.677-1.9258 1.0449-1.0926 1.2718-0.75018 2.3237-0.47656 2.9883 1.0792 1.057 3.6355 1.3903 4.5723 0.4278l1.125-2.3223c0.98334-0.8834 2.127-1.1152 3.4102-3.3477 0 0 3.5087-1.2387 5.1602-2.5898 3.2635-2.6699 6.2986-5.6232 8.959-8.8945 2.2008-2.7062 4.8549-6.3869 6.377-9.5254 1.3987-2.8842 2.4878-6.2653 2.752-9.4082 0.10741-1.2781 1.1525-3.2354-0.26367-5.2578-2.412-3.4445-4.5842-3.1902-5.584-3.0782-2.02 0.2262-3.9421 0.9361-5.6016 1.9102l0.51758-2.0274c0.6161-1.4116 1.0845-2.2454-0.17969-3.9511-0.30598-0.4129-1.452-1.7536-2.4258-3.0274 0.3509-0.5043 0.92206-1.9825 1.2754-2.6699 1.021-1.9864 1.4855-5.0999-0.20117-6.6601-1.6803-2.3221-7.505-3.121-8.3398-2.7305-0.39069-0.4058-2.0996 0.6103-2.4727 0.25-3.1957-3.0858-6.5875-6.5882-10.65-8.3848-3.0114-1.3316-7.472-2.6262-10.705-3.25-3.6128-0.697-7.6299-0.5225-11.26-1.9277-3.6374-1.408-7.131-3.0373-10.74-4.5449-2.6376-1.1014-3.3387-0.6484-5.2422-0.9454 0 0-2.013-3.721-3.4023-4.8125-1.5794-0.92575-2.3514-1.8808-3.9062-1.8718z" fill="#e0ec24" fill-rule="evenodd" stroke="#8a0" stroke-width=".35433"/>
  <path d="m27.772 996.68c0.01837 0.02 0.04937 0.046 0.06836 0.067-0.62963 2.1258-1.005 4.1464-0.70508 5.9648-2.7578 0.5851-3.3129 1.6369-2.3926 3.7246-4.1643-0.053-3.9451 0.2644-4.5703 1.9902-3.5972 1.0269-6.9205 2.1506-8.3848 2.4551 0 0-1.6339-1.0359-3.0625-0.8574-1.4286 0.1786-2.7563 1.1739-2.7227 2.4473 0.0362 1.3699 2.2122 2.841 3.5801 2.7597 1.2633-0.075 2.5449-2.5 2.5449-2.5 3.3565 0.01 7.4349-0.8532 11.098-1.75-1.8504 1.5936-3.6092 2.821-5.293 3.7481-1.0529 0.5137-1.8963 0.7137-3.5801 2.1738 0 0-3.0944 0.8522-3.8242 1.8809-0.44776 0.6311-0.5949 1.8274 0 2.3222 1.2566 1.0452 3.9538 1.1675 5.2012 0.1114 0.5317-0.4502 1.0918-2.0899 1.0918-2.0899l3.9824-1.8398c2.1017-1.4509 4.8319-4.1788 7.1426-6.3828 0.20078 1.2597 0.08913 3.5195 0.94726 4.6269 0.20699 0.9326 1.9261 1.0285 2.8047 2.2969l-0.4707 2.4219c0.81271 1.9095 3.2369 2.593 3.9141 1.6992 0 0 2.1527-1.8737 2.0781-2.8106-0.0893-1.1217-2.8145-2.6465-2.8145-2.6465l-1.5859-2.457c-0.10241-0.8333-0.72268-1.7311 0.45898-2.5644 1.4167 1.6546 2.8335 2.6882 4.5625 3.0937l3.8027 0.3399 2.3613 1.8808c1.1043 0.3326 2.6293-0.5378 2.9902-2.7012 0.26512-1.589 0.29012-3.1161-1.084-3-0.8433 0.071-2.1821 0.5206-2.7031 0.9141-1.4498-0.7155-2.7035-2.0199-4.4551-1.8301-1.7555-2.2596-1.7003-3.4897-0.91797-5.9551-4.9099-1.6815-7.6152-4.5388-10.062-7.5337zm63.682-2.1689c0.3509-0.5043 0.92206-1.9825 1.2754-2.6699 1.021-1.9864 1.4855-5.0999-0.20117-6.6601-1.6803-2.322-7.505-3.1209-8.3398-2.7305-0.39069-0.4058-2.0996 0.6103-2.4727 0.25z" fill="url(#v)" fill-rule="evenodd" stroke="#0000d4" stroke-width=".35433"/>
  <path d="m93.504 1003.4 0.51758-2.0274c0.6161-1.4116 1.0845-2.2454-0.17969-3.9511-0.30598-0.4129-1.452-1.7536-2.4258-3.0274 0.3509-0.5043 0.92206-1.9825 1.2754-2.6699 1.021-1.9864 1.4855-5.0999-0.20117-6.6601-1.6803-2.322-7.2398-2.679-8.3398-2.7305-1.0094 0.213-2.0996 0.6103-2.4727 0.25-3.1957-3.0858-6.5875-6.5882-10.65-8.3848-3.0114-1.3316-7.472-2.6262-10.705-3.25-3.6128-0.697-7.6299-0.5225-11.26-1.9277-3.6374-1.408-7.131-3.0373-10.74-4.5449-2.6376-1.1014-3.3387-0.6484-5.2422-0.9454 0 0-2.013-3.721-3.4023-4.8125-1.5794-0.9257-2.3514-1.8807-3.9062-1.8718-0.58527 0.01-2.6597 0.2605-3.1992 0.371-1.5693 0.3202-1.991 1.1054-3.0547 2.3028-0.82259 0.926-1.4375 3.6074-1.4375 3.6074s-7.4951 0.4747-10.567 2.3704c-1.7818 1.0995-3.5945 2.8344-3.7275 4.9239-0.10594 1.6643 1.1809 3.0439 2.4016 4.1801 0.82969 0.7722 1.9288 1.2359 3.0052 1.591 0.93387 0.308 1.9951 0.3491 2.9168 0.6919 1.7621 0.6556 2.9788 2.1932 4.773 2.7552 2.1519 0.6741 5.3662 1.5097 5.6872 1.658 1.3536 0.625 4.5471 2.3022 6.5988 3.2034 1.548 0.6799 4.6846 1.9445 4.6846 1.9445 3.7403 2.6296 17.451 4.6441 21.458 5.8891 5.5413 1.7216 8.2114 3.4432 12.317 5.1647 2.8303 1.209 4.846 3.0782 6.0068 4.752 0.9512 1.3715 1.0204 2.8403 3.0921 3.1729-0.23543 0.02 3.903-4.0332 8.4105-4.2071 0.82016-0.032 2.2707 0.2933 2.9856 0.6964 1.1827 0.6669 3.2186 2.4963 3.2186 2.4963 0.56528-0.5194 1.4186-0.7 2.1622-1.0144z" fill="url(#u)" fill-rule="evenodd"/>
  <path d="m27.772 996.68c0.01837 0.02 0.04937 0.046 0.06836 0.067-0.62963 2.1258-1.005 4.1464-0.70508 5.9648-2.7578 0.5851-3.3129 1.6369-2.3926 3.7246-4.1643-0.053-3.9451 0.2644-4.5703 1.9902-3.5972 1.0269-6.9205 2.1506-8.3848 2.4551 0 0-1.6339-1.0359-3.0625-0.8574-1.4286 0.1786-2.7563 1.1739-2.7226 2.4473 0.0362 1.3699 2.2122 2.841 3.5801 2.7597 1.2633-0.075 2.5449-2.5 2.5449-2.5 3.3565 0.01 7.4349-0.8532 11.098-1.75-1.8504 1.5936-3.6092 2.821-5.293 3.7481-1.0529 0.5137-1.8963 0.7137-3.5801 2.1738 0 0-3.0944 0.8522-3.8242 1.8809-0.44776 0.6311-0.5949 1.8274 0 2.3222 1.2566 1.0452 3.9538 1.1675 5.2012 0.1114 0.5317-0.4502 1.0918-2.0899 1.0918-2.0899l3.9824-1.8398c2.1017-1.4509 4.8319-4.1788 7.1426-6.3828 0.20078 1.2597 0.08913 3.5195 0.94726 4.6269 0.20699 0.9326 1.9261 1.0285 2.8047 2.2969l-0.4707 2.4219c0.81271 1.9095 3.2369 2.593 3.9141 1.6992 0 0 2.1527-1.8737 2.0781-2.8106-0.0893-1.1217-2.8145-2.6465-2.8145-2.6465l-1.5859-2.457c-0.10241-0.8333-0.72268-1.7311 0.45898-2.5644 1.4167 1.6546 2.8335 2.6882 4.5625 3.0937l3.8027 0.3399 2.3613 1.8808c1.1043 0.3326 2.6293-0.5378 2.9902-2.7012 0.26512-1.589 0.29012-3.1161-1.084-3-0.8433 0.071-2.1821 0.5206-2.7031 0.9141-1.4498-0.7155-2.7035-2.0199-4.4551-1.8301-1.7555-2.2596-1.7003-3.4897-0.91797-5.9551-4.9099-1.6815-7.6152-4.5388-10.062-7.5337zm63.682-2.1689c0.3509-0.5043 0.92206-1.9825 1.2754-2.6699 1.021-1.9864 1.4855-5.0999-0.20117-6.6601-1.6803-2.3221-7.505-3.121-8.3398-2.7305-0.39069-0.4058-2.0996 0.6103-2.4727 0.25z" fill="url(#q)" fill-rule="evenodd" opacity=".263" stroke="#0000d4" stroke-width=".35433"/>
  <path d="m93.504 1003.4 0.51758-2.0274c0.6161-1.4116 1.0845-2.2454-0.17969-3.9511-0.30598-0.4129-1.452-1.7536-2.4258-3.0274 0.3509-0.5043 0.92206-1.9825 1.2754-2.6699 1.021-1.9864 1.4855-5.0999-0.20117-6.6601-1.6803-2.3221-7.2398-2.679-8.3398-2.7305-1.0094 0.21292-2.0996 0.6103-2.4727 0.25-3.1957-3.0858-6.5875-6.5882-10.65-8.3848-3.0114-1.3316-7.472-2.6262-10.705-3.25-3.6128-0.697-7.6299-0.5225-11.26-1.9277-3.6374-1.408-7.131-3.0373-10.74-4.5449-2.6376-1.1014-3.3387-0.6484-5.2422-0.9454 0 0-2.013-3.721-3.4023-4.8125-1.5794-0.92575-2.3514-1.8808-3.9062-1.8718v4e-3c-0.58527 0.01-2.6597 0.2605-3.1992 0.371-1.5693 0.3202-1.991 1.1054-3.0547 2.3028-0.82259 0.926-1.4375 3.6074-1.4375 3.6074s-7.4951 0.47468-10.567 2.3704c-1.7818 1.0995-3.5945 2.8344-3.7275 4.9239-0.10594 1.6643 1.1809 3.0439 2.4017 4.1801 0.82969 0.77223 1.9288 1.2359 3.0052 1.591 0.93387 0.30806 1.9952 0.34908 2.9168 0.69195 1.7621 0.65552 2.9788 2.1932 4.773 2.7552 2.1519 0.67405 5.3662 1.5097 5.6872 1.6579 1.3536 0.625 4.5471 2.3023 6.5988 3.2034 1.548 0.67989 4.6846 1.9445 4.6846 1.9445 3.7403 2.6296 17.451 4.6441 21.458 5.8891 5.5413 1.7216 8.2114 3.4431 12.317 5.1647 2.8303 1.209 4.846 3.0782 6.0068 4.752 0.9512 1.3715 1.0204 2.8403 3.0921 3.1729-0.23544 0.02 3.903-4.0332 8.4105-4.2071 0.82016-0.032 2.2707 0.2933 2.9856 0.6964 1.1827 0.6669 3.2186 2.4963 3.2186 2.4963 0.56529-0.5194 1.4187-0.7 2.1623-1.0144z" fill="url(#r)" fill-rule="evenodd" opacity=".229"/>
  <path d="m8.6641 975.09-0.3125 0.95117c0.11968 0.0395 0.67212 0.62353 1.248 0.95312 0.54467-0.20165 1.4014-0.12261 2.2422 0.31836 1.6816 0.88194 3.6724 2.6196 5.9004 3.041 1.9623 0.37112 3.8411 1.2744 5.3008 1.9199 1.5164 0.67056 3.6355 1.3323 5.4902 2.3242s4.858 2.1364 6.1992 2.0977c-0.0827-0.17928-1.2265-0.42759-2.4799-0.9659-1.2854-0.55203-2.6872-1.3972-3.3111-1.7314-1.8255-0.97769-3.8183-2.394-5.4316-3.1074-1.4445-0.63873-3.5077-1.3674-5.6445-1.7715-2.0691-0.39133-3.5458-1.8012-5.1836-2.6602-0.81891-0.42949-1.9753-0.53173-2.6797-0.67578-0.57934-0.33156-0.98008-0.57526-1.3379-0.69336z" color="#000000" color-rendering="auto" fill-rule="evenodd" image-rendering="auto" shape-rendering="auto" solid-color="#000000" style="block-progression:tb;isolation:auto;mix-blend-mode:normal;text-decoration-color:#000000;text-decoration-line:none;text-decoration-style:solid;text-indent:0;text-transform:none;white-space:normal"/>
  <path d="m88.062 1001.8c-1.7058-0.8022-2.6123-0.5387-3.875-0.75-3.1909 1.3554-6.3506 2.7629-8.5625 5.75-2.9954 2.8711-4.5559 7.428-4.625 12.25l1.25 6.25 3.8125 3.125c0.70949 0.01-0.16561 0.7347-1.625 1.375l-2.3125 1.4375c-1.1574-2.1466-2.4946-1.0564-3.8125-0.3125-1.1127 1.0343-1.4255 2.0071-0.375 2.875l1.375 0.9375c1.6644-0.2013 2.5628-1.1233 4.0625-2.3125 0.91129-0.4085 1.2001-0.9059 4.3125-1l1.8125 0.4375-6.3125 2.9375-8.25 4.1875-1.625-0.875c-1.0215 0.087-1.8677 0.3141-2.0625 1.0625 0.94088 0.8457-0.41913 2.7141 3.1875 2.375l-3.75 1.3125-0.125 1.125c-3.7709-2.0587-4.0774 0-5.375 0.875 0.88827 1.0164 1.2307 2.0085 5.75 1.9375l0.8125-0.5c4.7545-0.226 8.1299-2.5834 11.062-5.625l1.875-1.6875c2.0722-0.8281 4.3349-1.7734 4.3125-1.3125l-1 1.875c-1.2083 1.4168-2.4167 1.5818-3.625 2.0625-2.456 1.4102-1.2384 2.0332-1.625 3 1.705-0.9167 3.1176-1.2083 5.25-1.25 1.2631-0.7756 2.6351-0.025 3.75-2.875 5.765-2.842 11.318-7.9142 16.75-14.25 3.7897-4.9079 5.2906-10.884 6.625-16.938 0.41525-2.3215 0.87184-4.641-2.125-7.125l-3.125-0.625c-2.5921-0.4977-5.9629 1.8126-8.25 2.6875z" fill="url(#x)" fill-rule="evenodd"/>
  <path d="m25.375 1024.6c0.79234 1.7482 2.0827 2.7726 3.375 3.1875 3.2006 0.8531 6.0315 1.6666 10.062 2.1875-2.8732 0.8206-7.0828 1.1056-7.5625 2.375-0.36522-0.6686-0.41902-1.3995-2.375-1.75-1.6343 0.3414-2.186 0.9535-2.5 1.625-0.01502 1.7679 1.3711 2.8353 4.6875 2.9375l2.5625-0.6875 4 0.125 4.375-1.125 9.75 1.125c2.714-1.1988 5.4466-2.2303 8-4.875 1.1783-2.5962 2.6451-4.1345 3.375-8.375l0.75-4.125 1.25-4.5-1.125-2.75-3.4375-3.125-2.9375-4.5c-1.5636-1.4039-3.2124-3.4032-4.625-3.75-3.3059-1.7552-6.8966 2.2625-6.75 2.6875-1.4926 4.6069 3.243 9.0482 5.993 11.882-4.0607 5.5024-2.6657 7.4397-4.8055 12.056l-3.9375-2.375-1 0.125-0.5-1.875h-2.25l-2 1.75 2.875 2.875h-7.25l-4.625-0.875-2.25-1.25z" fill="url(#w)" fill-rule="evenodd"/>
  <g fill="#2c5300" fill-rule="evenodd">
   <path d="m89.891 1003.3s-5.4289 2.8903-7.2478 6.1872c-1.1855 2.1487-2.3865 7.9549-2.3865 7.9549s1.7382-4.6994 3.2704-6.6291c2.1089-2.656 9.6791-7.6087 9.6791-7.6087 0.85625-0.9001 2.7221-5.1542-1.0241-7.6557 1.3638 2.5389 1.3295 4.4205 0.42339 5.3555-0.72044 0.7434-1.574 2.3455-2.1519 2.7562-0.25055-0.2233-0.4635-0.4008-0.56248-0.3603z"/>
   <path d="m76.014 1028.9s4.7343 1.4197 7.0711 0.9723c4.2892-0.8212 8.4181-3.2639 11.402-6.4524 1.8099-1.9339 3.4471-7.1594 3.4471-7.1594 0 0.7376-5.7306 6.5637-8.0433 7.8666-6.3437 3.5737-12.198 3.9774-12.198 3.9774z"/>
   <path d="m63.109 1017.6c-4.6824 13.785-12.755 15.027-17.766 15.556 2.8284 0.6568 5.6569 1.463 8.4853 0.7071 4.5923-2.3289 6.6781-5.4932 8.4853-8.7504 0.64874-2.5043 1.504-5.0087 0.7955-7.513z"/>
   <path d="m64.523 1014.7c2.1907 0.8299 4.4683 0.9647 6.8943-0.088v1.0607c-3.626 2.0232-5.8716 2.6048-7.8666 2.298z"/>
  </g>
  <g fill="url(#s)" fill-rule="evenodd" opacity=".226">
   <path d="m89.891 1003.3s-5.4289 2.8903-7.2478 6.1872c-1.1855 2.1487-2.3865 7.9549-2.3865 7.9549s1.7382-4.6994 3.2704-6.6291c2.1089-2.656 9.6791-7.6087 9.6791-7.6087 0.85625-0.9001 2.7221-5.1542-1.0241-7.6557 1.3638 2.5389 1.3295 4.4205 0.42339 5.3555-0.72044 0.7434-1.574 2.3455-2.1519 2.7562-0.25055-0.2233-0.4635-0.4008-0.56248-0.3603z"/>
   <path d="m76.014 1028.9s4.7343 1.4197 7.0711 0.9723c4.2892-0.8212 8.4181-3.2639 11.402-6.4524 1.8099-1.9339 3.4471-7.1594 3.4471-7.1594 0 0.7376-5.7306 6.5637-8.0433 7.8666-6.3437 3.5737-12.198 3.9774-12.198 3.9774z"/>
   <path d="m63.109 1017.6c-4.6824 13.785-12.755 15.027-17.766 15.556 2.8284 0.6568 5.6569 1.463 8.4853 0.7071 4.5923-2.3289 6.6781-5.4932 8.4853-8.7504 0.64874-2.5043 1.504-5.0087 0.7955-7.513z"/>
   <path d="m64.523 1014.7c2.1907 0.8299 4.4683 0.9647 6.8943-0.088v1.0607c-3.626 2.0232-5.8716 2.6048-7.8666 2.298z"/>
  </g>
  <g fill-rule="evenodd" stroke="#a40" stroke-width=".35433">
   <path d="m21.995 967.24c0.5898-0.96698 6.2797-3.4821 9.0867-2.2608 2.8949 1.2595 6.2333 4.5744 5.59 8.8169-0.23149 1.5265-1.8382 3.8369-3.0827 4.648-5.5521 3.6187-12.46-0.81735-11.204-5.0578" fill="#e8c01a"/>
   <path d="m29.226 967.42c-2.3728-0.7027-5.1344 1e-3 -6.4286 2.4044-1.0469 1.944-0.70545 5.325 2.3431 7.1645 3.301 1.9918 6.6283 0.13524 8.0574-2.6569 1.2006-2.3458-0.52095-5.89-3.9719-6.912z"/>
  </g>
  <path d="m27.607 966.68c-2.0002 0.0216-3.9714 0.95216-5.0332 2.9238-1.1831 2.197-0.74106 5.8591 2.5254 7.8301 1.773 1.0698 3.6188 1.1177 5.1719 0.50196 1.5531-0.61573 3.0431-1.7306 3.8089-3.2268 0.29612-0.57856 0.43935-1.4737 0.44513-2.1173 0.0212-2.3602-2.027-4.7712-4.9415-5.6344-0.6403-0.18963-1.3098-0.28453-1.9766-0.27734zm0.02344 0.99414c0.55887-2e-3 1.1238 0.0805 1.6699 0.24219 2.3452 0.69452 3.3764 2.6865 3.5658 4.4609 0.03422 0.32059 0.03901 0.69077 0.0014 1.0469-0.0094 0.089-0.02143 0.17717-0.03633 0.26344-0.01873 0.2636-0.14629 0.4724-0.21646 0.699-0.66329 1.296-1.4178 2.1069-2.7109 2.6196s-2.761 0.49234-4.2891-0.42969c-1.8844-1.1371-3.0293-3.7904-2.9837-5.3514 0.01249-0.42716 0.1604-0.57544 0.46996-1.1908 0.83366-1.6572 2.8527-2.3534 4.5293-2.3601z" color="#000000" color-rendering="auto" fill-rule="evenodd" image-rendering="auto" shape-rendering="auto" solid-color="#000000" style="block-progression:tb;isolation:auto;mix-blend-mode:normal;text-decoration-color:#000000;text-decoration-line:none;text-decoration-style:solid;text-indent:0;text-transform:none;white-space:normal"/>
  <path d="m23.406 970.96s1.6143-1.8334 2.7188-2.2188c0.74755-0.2608 2.1319-0.11703 2.875 0.1562 1.1804 0.43403 1.6833 1.2521 2.4062 2.2812 0.4773 0.67944 0.84375 2.4062 0.84375 2.4062-0.56021 0.6027-2.1612 1.4813-3.9688 1.5625-1.1721 0.0527-2.0151-0.16636-2.8438-0.90625-0.95953-0.85673-2.0312-3.2812-2.0312-3.2812z" fill="url(#z)" fill-rule="evenodd" stroke="#6f0" stroke-width=".35433"/>
  <path d="m37.07 977.06c-1.8636 1.1959-1.9001 1.6433-2.6075 2.5633-0.74351 0.9671-0.31257 3.379 0.48614 4.552 0.69341 1.0183 2.3096 2.1994 3.5355 2.0772 1.296-0.1293 3.6584-1.9293 3.6681-2.961 0.0135-1.4251-0.50328-1.8342-1.0165-3.0494-1.0078 0.8576-2.3631 1.5554-2.8726 0.66295-0.47429-0.8308 0.23567-1.5132 0.97227-2.254-0.60954-0.64262-1.109-1.3953-2.1655-1.591z" fill="url(#y)" fill-rule="evenodd" stroke="#fc0" stroke-width=".35433"/>
  <path d="m25.734 956.86c-0.58527 0.01-2.6597 0.2605-3.1992 0.371-1.5693 0.3202-1.991 1.1054-3.0547 2.3028-0.82259 0.926-1.4375 3.6074-1.4375 3.6074s-4.7385 0.2965-6.6953 0.8926c-2.7761 0.8455-4.8554 1.6974-6.334 3.7832-0.72617 1.0244-1.2387 1.9512-0.98829 3.1816 0.39883 1.9595 1.756 3.7995 3.9512 4.7598 0.5901 1.2066 1.185 3.6303 3.5215 4.4004 1.6283 1.6224 3.4136 2.1454 5.2051 2.625 2.2724 4.7939 5.5734 10.851 10.994 13.789 0.01837 0.02 0.04937 0.046 0.06836 0.067 3.3551 4.2631 4.3061 5.0626 9.9941 7.4667 0.06131 0.089 1.7299 2.4905 3.0508 3.4981 1.8645 1.4222 4.4562 1.5908 6.4297 2.8574 1.1357 0.7289 3.0352 2.6797 3.0352 2.6797-1.3925 2.8263-2.794 7.0608-3.623 11.074-1.262 0.6799-1.9998-0.666-4.1641-1.4844 0.45555-1.1303-1.5165-2.2368-2.2305-2.1074-1.3058 0.2367-3.7724 2.2476-1.7949 3.4004l1.8477 1.8047s-3.6064-0.3059-6.2852-0.2949c-1.667 0.01-5.3789-0.8399-5.3789-0.8399-0.76047-1.4997-1.3174-1.0434-1.9121-1.1738-1.5317-0.3359-2.2316 0.9581-2.5312 1.9414 0.01126 1.2053 0.14117 2.029 0.99219 2.5625 1.3744 0.2661 2.6412 0.422 3.1777 0.018 2.7116 0.3149 4.4156 0.7082 6.9551 1.4297l3.6543 0.416c-3.2488 0.9222-4.896 1.0092-7.8262 2.0625-0.34687-0.7838-1.4979-1.0704-2.5059-1.1934-2.5639 0.2061-3.0117 1.5344-3.1973 2.7403 0.02651 2.2631 2.9326 3.3464 3.9297 2.6621 1.1042-0.7115 1.9963-1.0237 2.5957-1.2305 0 0 3.7612-0.2645 5.4629-0.3555 1.4265-0.076 2.7378-0.5446 4.1582-0.6972 1.393-0.1496 2.5198 0.083 3.918-0.01 1.3714-0.087 3.8747 0.6183 5.2422 0.4824 2.5304-0.2513 4.5899-1.3533 6.375-2.707 1.5485-1.1743 3.5339-3.5665 4.4414-5.2851 1.4432-2.733 1.998-8.545 1.998-8.545 2.5373 0.4532 4.5369 0.4385 7.7363-2.0761 0 0-0.5642 3.3146-0.25 4.83 0.56785 2.7387 1.1781 4.8287 3.4023 6.92 0.59691 0.1162 1.6608 0.4799 2.1934 0.8554-0.64518 0.5879-0.84804 0.6943-1.6406 1.1524-1.0895 0.49-2.0557 1.0402-3.0781 1.3554-1.0119-1.4181-2.5168-0.2623-3.291 0.3985-1.2258 1.0463-0.43427 2.2792-0.0723 2.6035 0.7646 0.6855 2.5147 0.4208 3.0586-0.031l1.6777-1.3964c0.45337 0.6853 0.4905 1.4801 0.0664 2.3847-1.5624 1.2667-3.2173 1.3589-5.0566 2.3477-1.131 0.3579-1.6991 0.8938-2.8301 1.5625-0.70046-0.014-2.8425-0.8891-3.543-0.2949-0.83069 0.5027-1.2209 1.5562-0.71094 2.2265 1.0586 0.9817 1.55 1.0085 2.4492 1.1934-2.0459 0.5591-2.7142 0.6191-3.4453 2-0.61284-0.3991-1.667-1.1688-2.9375-0.9102-1.9907 0.8487-3.2702 2.7176-3 3.418 1.25 1.4543 2.8125 2.0625 4.0625 2.0625 2.1971-0.4177 3.0024-1.0998 3.5976-1.8379 3.3913-0.6579 4.6225-1.6076 7.5332-3.2266 1.0745-0.3072 2.8012-2.1431 3.3301-2.9316 0.67477 0.7041 1.0126 0.9899 2.1367 1.0449-0.64981 0.368-1.4384 0.677-1.9258 1.0449-1.0926 1.2718-0.75018 2.3237-0.47656 2.9883 1.0792 1.057 3.6355 1.3903 4.5723 0.4278l1.125-2.3223c0.98334-0.8834 2.127-1.1152 3.4102-3.3477 0 0 3.5087-1.2387 5.1602-2.5898 3.2635-2.6699 6.2986-5.6232 8.959-8.8945 2.2008-2.7062 4.8549-6.3869 6.3769-9.5254 1.3987-2.8842 2.4878-6.2653 2.752-9.4082 0.10741-1.2781 1.1525-3.2354-0.26367-5.2578-2.412-3.4445-4.5842-3.1902-5.584-3.0782-2.02 0.2262-3.9421 0.9361-5.6016 1.9102l0.51758-2.0274c0.6161-1.4116 1.0845-2.2454-0.17969-3.9511-0.30598-0.4129-1.452-1.7536-2.4258-3.0274-3.6367-4.749-6.9042-8.8801-9.7383-11.81-3.1957-3.0858-6.5875-6.5882-10.65-8.3848-3.0114-1.3316-7.472-2.6262-10.705-3.25-3.6128-0.697-7.6299-0.5225-11.26-1.9277-3.6374-1.408-7.131-3.0373-10.74-4.5449-2.6376-1.1014-3.3387-0.6484-5.2422-0.9454 0 0-2.013-3.721-3.4023-4.8125-1.5794-0.92575-2.3514-1.8808-3.9062-1.8718z" fill="none" stroke="#2a7fff" stroke-width=".35433"/>
  <path d="m37.254 972.78s2.6456 1.8042 3.5227 2.0777c1.3729 0.428 2.9865-0.44429 4.3567-8e-3 4.7236 1.5052 7.908 5.8806 12.287 8.2058 2.1868 1.1612 4.6743 1.0656 6.8308 2.2822 1.5823 0.8926 2.351 2.6612 3.9773 3.471 1.1272 0.5613 3.1135 0.86714 4.1995 1.5044 1.3849 0.8127 1.4621 2.4499 2.7822 3.3643 0.81218 0.5626 2.0172 0.8514 2.8125 1.4375 1.1992 0.8838 1.7208 2.549 3 3.3125 1.1975 0.7147 3.2822 2.4603 3.2353 2.5697-0.85441-0.1375-1.5768 0.4531-1.5768 0.4531s-3.6816-2.8736-5.471-4.0228c-4.0405-2.5948-8.0094-5.375-12.375-7.375-1.6172-0.7409-3.4369-0.9653-5.0625-1.6875-2.012-0.8939-3.898-2.0596-5.75-3.25-1.8194-1.1694-3.1355-2.9885-5.029-4.0335-2.161-1.1927-4.9013-1.2376-7.1844-2.1755-1.7359-0.7131-5.4924-3.1964-5.4924-3.1964 0.4003-0.5818 0.70376-1.5153 0.9375-2.9299z" fill="#034800" fill-rule="evenodd" stroke="#ca00ff" stroke-width=".35433"/>
  <path d="m37.21 972.92s2.4688 1.5833 3.346 1.8567c1.3729 0.4281 2.9423-0.44418 4.3125-8e-3 4.7236 1.5053 9.3664 6.411 12.242 8.1174 2.1294 1.2634 4.9836 1.6402 7.1402 2.8567 1.5823 0.8926 2.572 2.396 4.1982 3.2058 1.1272 0.5613 2.8926 0.73456 3.9786 1.3719 1.3849 0.8127 1.7273 2.6708 3.0473 3.5852 0.81218 0.5626 2.0172 0.63043 2.8125 1.2165 1.1992 0.8838 1.7106 2.5949 2.8674 3.5335 1.1533 0.93567 3.1161 2.2943 3.1161 2.2943-0.85441-0.1375-1.5902 0.4634-1.5902 0.4634s-3.6374-2.8294-5.4268-3.9786c-4.0405-2.5948-7.7884-5.1982-12.154-7.1982-1.6172-0.7409-3.4369-1.1421-5.0625-1.8643-2.012-0.8939-3.898-2.0596-5.75-3.25-1.8194-1.1694-3.2681-2.9884-5.1616-4.0335-2.161-1.1926-5.0339-1.1492-7.3169-2.0871-1.7359-0.713-5.2714-3.2848-5.2714-3.2848 0.4003-0.5818 0.4386-1.3826 0.67234-2.7973z" fill="url(#t)" fill-rule="evenodd" opacity=".461"/>
  <g fill-rule="evenodd" shape-rendering="auto">
   <path d="m26.424 1002.2c-1.112 0.1548-2.2268 0.708-2.5957 1.4981-0.2984 0.6391 0.09054 1.5279 0.15625 2.2422-0.62258-0.012-0.87505-0.1581-1.5-0.2289-0.91738-0.1038-3.0038-0.323-3.5449 1.7559-3.3895 0.9579-3.6392 1.9152-7.0961 2.6016-0.76635-0.5635-2.1162-0.9138-2.8676-0.8778-0.85408 0.041-1.6988 0.1269-2.7196 0.8263-0.73254 0.5019-1.2921 1.3921-1.2651 2.4142 0.029248 1.1072 1.0436 2.3473 1.8693 2.8619 0.82573 0.5147 1.9446 0.4551 2.8757 0.3997 1.1735-0.07 1.9783-1.0052 2.3612-1.4193 0.4478-0.4844 0.36836-1.0982 0.37695-1.4492 1.267-0.04 2.2928 0.2218 4.3079-0.055 1.8557-0.2546 3.7307-1.0416 4.9561-1.2364l-4.1348 2.43c-0.89343 0.4221-2.1845 1.1306-3.7482 2.4409-0.13124 0.037-0.78501-0.065-1.6157 0.2629-0.9156 0.3619-1.3638 0.5504-2.0037 1.4523-0.35014 0.4935-0.66161 1.1254-0.68727 1.7386-0.025659 0.6133 0.4508 1.5172 1.0455 2.0119 0.90799 0.7552 1.9312 0.92 3.0733 0.8094s1.8975-0.8453 2.7083-1.5587c0.66118-0.5817 0.9822-1.1715 1.2257-1.8761l4.5716-2.2953c1.0151-0.5096 3.2771-2.5852 5.3854-4.4722 0.20114 0.8611-0.12088 1.9913 0.23678 2.7612 0.35762 0.7698 1.6046 1.9327 3.3291 2.6001-0.26465 0.8368-0.56368 1.3139-0.71875 1.9279-0.34342 1.3599 1.0482 2.6976 2.2135 2.973 0.55481 0.1312 2.0468 0.062 2.4978-0.2062 1.0546-0.6273 1.1935-0.9032 1.8112-1.5753 0.47788-0.5199 0.847-1.1523 0.76291-2.2082-0.09145-1.1483-0.72236-1.7573-1.3884-2.2506-0.54568-0.4042-1.2289-0.2435-1.3355-0.4087-0.69879-0.5335-0.93817-1.4309-1.3023-2.2291-0.18871-0.4137-0.70151-1.5664-0.4106-2.0297 1.1891 1.662 3.1809 2.8963 3.9373 3.0278 0.95671 0.1663 3.0193 0.072 4.488 0.4364 0.60612 0.7511 0.85704 1.6466 1.6934 1.8985 0.60902 0.1834 1.8918 0.3662 2.6824-0.017 0.78899-0.3828 1.7336-2.2047 1.9368-3.4222 0.14715-0.8819-0.24835-1.9188-0.6582-2.6328-0.40952-0.7134-1.3141-1.0297-2.1855-0.959-0.7017 0.057-1.2824 0.4325-1.8028 0.7422-0.50957-0.2967-1.019-0.6335-1.6406-0.9746-0.62686-0.3439-1.3914-0.5761-2.2266-0.625-0.69844-0.9399-1.1199-1.6108-1.1875-2.1308 0.14537-1.446 0.24124-1.7574 0.56641-3.0176-4.7936-2.6953-8.6217-5.5925-12.133-9.3947-0.77093 2.3161-0.52384 5.3409-0.30076 7.4373zm1.9746-3.7011c0.91778 1.5061 2.2059 3.0338 3.636 4.1021 1.4028 1.0479 3.3876 1.467 4.9285 2.0209-0.32223 1.0386-0.54036 1.9221-0.42774 2.7891 0.14163 1.0901 0.72863 2.0172 1.7031 3.2715l0.30274 0.3906 0.49219-0.053c0.63739-0.069 1.1794 0.1201 1.8184 0.4707 0.63901 0.3507 1.323 0.8642 2.1484 1.2715l0.49023 0.2422 0.43555-0.3281c0.57817-0.4366 1.0964-1.2175 1.6523-1.1465 1.4538 0.1859 1.125 2.3113 0.6325 3.1841-0.28205 0.4997-0.84477 1.0094-1.5759 0.983-1.272-0.046-1.7639-1.3194-2.5572-1.5126-1.2628-0.3077-3.9902-0.3678-3.9902-0.3678-1.7328-0.3259-3.4159-0.8938-4.2006-2.6081l-0.52344-1.1435-0.56072 0.6858c-0.63716 0.7792-1.0063 1.2757-0.86993 1.9406 0.10668 0.52 0.44339 1.2789 0.62655 1.7691 0.36019 0.9641 1.2679 2.428 1.4265 2.6495 0.69612 0.078 1.2038 0.1302 1.5627 0.3815 0.54121 0.3791 0.90931 1.0808 0.83019 1.4204-0.08761 0.376-0.31596 0.8397-0.65156 1.2603-0.36157 0.4532-0.95343 0.7518-1.3293 0.8924-0.43933 0.1643-1.151-0.018-1.4964-0.1957-0.58397-0.3002-1.0693-0.7582-1.0165-1.3823l0.1582-1.8691c-0.70526-1.1148-2.0296-1.8263-2.4488-3.047-0.55536-1.6172-0.66977-3.4433-0.54458-5.0138-0.62239 0.2637-1.1981 0.6439-1.7621 1.0537-2.487 1.8067-4.4276 4.6196-6.6715 5.7228l-4.0145 1.9738c-0.57672 0.577-0.70965 0.982-0.72852 1.6112-0.42318 0.3583-1.6422 1.0656-2.4752 1.1353-1.0809 0.09-1.6486 0.01-1.9161-0.667-0.09798-0.2476-0.30908-0.8907 0.01134-1.4316 0.34036-0.5745 1.062-1.0545 2.6378-1.0151 0.43993 0.011-0.4132 0.1075 0.64836-0.7509 0.97454-0.7881 2.5894-1.1389 3.2244-1.4478 2.3941-1.8791 4.9232-3.6845 6.4377-6.0433-0.91667 0.304-2.0358 0.743-2.75 0.9121-3.6046 0.8533-5.9282 1.5855-9.2055 1.666l-0.73242 0.018c-0.08185 0.7113-0.80175 1.2637-1.2544 1.6005-0.60246 0.4482-1.1309 0.4155-1.5964 0.443-0.43683 0.026-1.0061-0.2935-1.5259-0.6175-0.51967-0.3239-0.59704-0.7886-0.59689-1.3619 6.6e-5 -0.2613 0.28225-0.9362 0.9349-1.2872 0.46451-0.2498 1.0677-0.4209 1.6512-0.4566 1.1079-0.068 1.7941 0.1665 2.3734 0.7506 0.45039-0.1613 7.9507-2.4516 8.5789-2.6318l0.26953-0.076 0.17578-0.2168c0.47866-0.5885 1.0614-1.3778 1.7402-1.4903 0.52037-0.086 1.4149-0.2783 2.0587-0.1874 0.44615 0.063 0.70515 0.7621 1.1104 1.0189 0.4826 0.306 1.451 0.3369 1.9403 0.4795-0.7526-0.4076-1.8004-0.889-2.1465-1.7579-0.82777-2.078-0.336-2.2922 0.13867-2.4921 0.48942-0.2062 1.1225-0.1204 2.0566-0.5098l0.64648-0.2695c-0.16269-0.7589-0.19839-1.6022-0.22663-2.2808 0.02451-0.8772 0.18794-1.7354 0.31649-2.4519z" color="#000000" color-rendering="auto" fill="#072500" image-rendering="auto" solid-color="#000000" style="block-progression:tb;isolation:auto;mix-blend-mode:normal;text-decoration-color:#000000;text-decoration-line:none;text-decoration-style:solid;text-indent:0;text-transform:none;white-space:normal"/>
   <path d="m26.523 956.29c-1.2799-0.22194-2.8739 6e-3 -4.0667 0.24887-1.8867 0.38492-3.0407 1.5674-3.7891 2.8697-0.5077 0.88357-1.1844 2.1632-0.90848 3.2422-0.84715 0.0617-4.4947 0.0667-6.4093 0.64984-2.8168 0.85794-5.1595 1.8046-6.7988 4.1172-0.75821 1.0696-1.4477 2.3239-1.1328 3.8711 0.42594 2.0927 1.8919 3.9788 4.0762 5.1016 0.20427 0.4649 0.52092 1.6787 0.93164 2.3633 0.44113 0.73528 1.9075 1.8689 2.4639 2.0382 0.73459 0.15229 1.5886 0.89463 2.5722 1.4703 0.97225 0.56908 2.4275 1.4985 3.1768 2.2255 2.2719 4.7665 4.6844 9.6206 10.261 12.702 1.2326 1.3228 3.9041 3.2382 5.9737 4.7477 1.3576 0.9943 2.6606 1.8739 4.0234 2.6914 0.1863 0.1049 0.33955 0.1589 0.49609 0.2305 0.09745 0.1394 0.39447 0.5692 0.9375 1.2519 0.62346 0.7838 1.3988 1.6989 2.2031 2.3125h2e-3c2.1523 1.6418 4.7794 1.8029 6.4863 2.8985 0.77787 0.4992 2.0297 1.7548 2.4629 2.1816-1.7039 3.568-2.4809 6.1109-3.1918 9.2532-0.1291 0.5707-0.41864 0.9119-0.5653 0.934-0.19487 0.029-0.50994-0.3978-0.77773-0.513-0.4515-0.197-0.91572-0.7592-1.9808-0.9476 0.05072-0.7826-0.18577-1.5472-0.77268-1.8736-0.70899-0.3944-1.9379-0.4776-2.6586-0.347-0.95525 0.1731-2.1012 1.1092-2.4865 2.0605-0.19263 0.4757-0.02683 1.2971 0.40947 1.7921 0.35894 0.4072 0.68504 0.6437 1.1157 0.9559-1.8194-0.2859-2.8766-0.1373-4.2949-0.057-0.67973 0.038-2.0537 0.1144-3.1705-0.093-1.0286-0.191-1.7184-0.6632-1.847-0.6922-0.35253-0.4842-0.70196-0.9955-1.9031-1.2148-1.2011-0.2194-2.3948 0.02-2.963 0.5898-0.56823 0.5696-1.1144 1.3728-1.2141 2.5311-0.09973 1.1582 0.81819 2.6338 2.1008 3.1339 1.2825 0.5 2.5834-0.02 3.2998-0.3745 1.0226 0.3105 3.4256 0.9199 5.5331 1.209 1.2253 0.168 2.3653 0.067 3.0378 0.1565-0.86364 0.202-4.9192 0.6778-5.6604 1.0908-0.69688-0.8-1.9996-1.2231-2.8831-1.1354-0.97244 0.097-2.1469 0.6203-2.8389 1.2325-0.72753 0.6437-1.1505 1.5534-1.1526 2.7823s1.1671 2.3549 2.4464 2.8377c1.0732 0.4049 2.1701 0.281 3.1147-0.3447s1.9372-0.852 2.4046-0.9712c0.23234-0.059 3.6042 0.1727 5.2728 0.083 1.6442-0.088 3.0647-0.7949 4.2954-0.9271 3.1942-0.1485 5.9016 1.1321 9.0697 0.9589 2.6451-0.1446 4.7707-1.6186 6.706-3.0862 1.7746-1.3457 3.801-3.8377 4.752-5.6386 1.3973-2.6462 1.3429-7.4433 1.5273-8.4766 0.73882 0.4376 1.9319 0.4982 2.9551 0.4373 0.85996-0.051 3.0408-1.5563 3.5461-1.996-0.3072 0.6852-0.57275 3.3083-0.507 4.2597 0.10021 1.4501 0.55694 3.0202 1.3945 4.3496 1.1551 1.8334 2.5672 2.7577 4.1362 3.2313-1.1483 0.032-2.4138 0.7249-3.2944 1.4174-0.65878-0.4307-1.6104-1.0884-2.2639-1.0486-1.4134 0.086-2.4061 0.9131-2.882 1.3193-0.81534 0.6959-0.93228 2.1629-0.79515 2.8944 0.13715 0.7316 1.2051 1.48 1.6353 1.684 1.2695 0.6017 3.9888-0.594 4.9058-1.6198 0.32262-0.056 0.0016 0.9676 0.07176 0.9788-0.71537 0.469-4.9317 1.8494-5.585 2.2316-0.83479 0.4885-1.5098 1.134-2.5926 1.6912-0.16337-0.3515-0.14718-0.5999-0.93628-0.8811-0.65295-0.2326-2.0685-0.066-2.7232 0.3963-0.55077 0.3886-1.4017 1.2424-1.3693 1.9635 0.02864 0.6381 1.0214 1.7272 1.7137 1.9458-0.81077 0.074-1.4618 0.5493-1.8353 1.4046-0.24239-0.6279-1.5577-1.1443-2.7367-0.7719s-2.2775 1.0943-2.8035 1.7624c-0.52604 0.6681-1.1031 2.1576-0.50684 3.1081 0.59628 0.9506 1.5303 1.7012 2.3164 1.8656 0.78608 0.1644 2.0544 0.2768 3.5232 0.06 1.4688-0.2166 2.4926-1.3458 2.9681-1.9717 3.2751-0.7143 2.5154-0.3089 5.291-1.7345 0.51281-0.2633 3.5835-2.538 4.1567-2.9347 0.43736-0.3026 0.7719-0.8115 1.1337-1.1124 0.07764 0.043 0.12589 0.1501 0.20484 0.1842-0.17622 0.1301-0.64229 0.6068-1.1017 1.0766-0.45937 0.4697-0.86877 1.1882-0.7298 1.9661 0.11707 0.6554 0.29849 1.5815 1.1033 2.173 0.90813 0.6675 2.7386 1.1065 5.0342 0.046 1.4363-0.6636 1.0131-1.8836 1.3746-2.7439 0.36958-0.3098 1.3644-0.7676 1.8858-1.1726 0.49284-0.3829 0.84522-1.16 1.4297-2.0941 0.26682-0.1256 4.1066-1.5052 5.9067-2.9779 3.3289-2.7234 6.4085-5.5109 9.0864-8.8037 2.1985-2.7033 4.7981-6.7853 6.3941-10.076 1.4208-2.9297 1.7988-6.1247 2.077-9.435 0.038-0.4521 0.27609-0.8215 0.35531-1.6985 0.0832-0.9213 0.13096-3.1265-0.67628-4.2793-1.3021-1.8594-3.1468-2.6166-4.4356-3.0262s-2.5723 0.076-3.0648 0.2439c-1.1326 0.3865-2.5315 1.2478-3.4537 1.5873 0.33662-0.9337 1.219-2.6213 0.9277-3.6149-0.31256-1.0662-1.0034-2.255-1.6925-3.1847-1.0955-1.4782-7.4075-10.056-12.197-14.681-3.1744-3.0653-5.5863-5.7595-9.8119-7.6281-3.2381-1.4318-8.0884-2.527-11.261-3.139-3.6379-0.70182-7.3649-0.65091-10.875-2.0098-3.63-1.4052-6.5513-2.3259-10.156-3.8318-2.6267-1.0972-4.5677-0.91892-6.2109-1.0977-0.14899-0.3103-0.36731-0.78413-0.875-1.6816-0.64899-1.1473-1.2785-2.6017-2.2623-3.3038-1.1064-0.78961-2.4437-1.6535-3.5778-1.8502zm47.158 75.502-2.355 1.4637c-0.62345 0.3875-1.337 0.6363-2.0109 0.3845-0.35752-0.1337-0.46711-0.5907-0.45607-0.8225 0.04138-0.8693 0.88986-1.6086 1.7011-1.9157 0.42234-0.16 0.85633 0.3317 1.1663 0.7661l2.3351-1.1389c1.2327-0.6013 2.4824-1.5615 3.9875-1.8656-0.33031-0.4327-0.36854-0.2111-0.71216-0.9267-0.38578-0.086-1.4712-0.4377-2.3396-0.8881-0.78542-0.4073-1.4408-1.3922-2.0266-2.4799s-0.7511-2.2661-1.0312-3.6172c-0.12059-0.5816-0.13969-1.731-0.10156-2.6738 0.03812-0.9428 0.11523-1.7012 0.11523-1.7012l0.20703-2.0723-1.6367 1.2872c-1.707 0.8572-2.6551 1.1936-3.5898 1.4863-1.0256 0.3211-1.995 0.4561-3.1895-0.031l-0.66602 0.068-0.11523 0.6601s-0.9899 5.3303-2.2852 7.7832c-0.86404 1.6363-2.4958 3.9913-3.8184 4.9942-1.635 1.2398-3.5533 2.5646-5.9883 2.6543-3.0261 0.1115-6.4119-0.7933-9.1055-0.5371-1.6101 0.173-2.9025 0.8785-4.1113 0.9433-1.6782 0.09-5.381 0.4507-5.8893 0.6082-0.50836 0.1574-1.2759 0.6122-2.503 1.0699s-2.8342-0.3981-3.0569-1.5204c-0.08341-0.4204 0.3533-1.1553 0.7068-1.4728 0.37004-0.3323 1.1202-0.7668 2.2374-0.7285 1.4243 0.049 1.1328 0.3442 1.232 0.4145 0.16491 0.038 0.53076 1.0445 0.53076 1.0445l0.87891-0.6016c0.89264-0.611 2.2867-0.8429 3.8424-1.1429 2.5829-0.4981 3.5421-0.6755 5.8856-2.0504-2.5942 0.371-4.6297-0.2957-6.8455-0.6273-1.1355-0.17-4.5559-0.7498-5.765-1.1729-1.6894-0.1578-1.6677 0.1294-2.6624-0.2076-0.61517-0.2084-0.96412-0.7768-0.86328-1.5157 0.13476-0.9874 0.78775-1.167 1.4219-1.2051 0.93288-0.056 0.973 0.2376 1.4386 0.7061 0 0 1.4094 0.6835 2.5653 0.8981 1.1558 0.2145 2.4954 0.4801 3.4805 0.4316 2.5657-0.1263 7.8125-0.1743 8.0137 0.1074l-0.24433-0.6047-1.9763-1.4407c-0.3734-0.2193-1.2394-1.3593-1.2154-1.6386 0.02395-0.2793 0.24938-1.1143 1.0736-1.3371 0.95088-0.2571 1.5633 0.038 1.7125 0.3421 0.07871 0.1604 0.45354 1.3477 0.45354 1.3477 1.2481 0.3438 1.3607 1.2546 2.3351 1.6907 0.4543 0.1982 1.0051 0.3329 1.5938 0.2441 0.58868-0.089 1.1631-0.379 1.8678-2.4326s1.4456-4.6977 2.9427-7.9697c0.61127-1.1545 0.25384-2.0238-0.33869-2.8238 0 0-0.96757-1.5569-2.3296-2.431-2.24-1.4377-4.9914-1.3687-6.568-2.5714-0.5409-0.4126-1.9492-2.0688-2.445-3.4441-1.1198-0.4869-1.2313-0.4975-2.4144-1.1069-0.79902-0.4116-2.7272-1.6239-3.7621-2.3787-2.1651-1.7011-3.5361-3.1701-5.5028-4.9026-4.4419-3.4647-7.646-8.3426-9.8289-12.896-2.0438-0.938-3.9115-1.3201-6.0713-2.9543-0.56393-0.1864-1.3946-1.0808-1.6396-1.4891-0.24497-0.40833-0.55601-1.6292-0.91406-2.3613l-0.14258-0.29101-0.29688-0.13086c-1.9372-0.84744-3.0953-2.444-3.4375-4.125-0.18596-0.91367 0.14766-1.513 0.8418-2.4922 1.3179-1.8591 3.1336-2.6141 5.8691-3.4473 1.7041-0.51906 5.9216-1.2146 5.9216-1.2146 0.95331-0.23398 1.0647-0.47524 1.0452-1.3148-0.12092-0.63617 0.367-1.4123 0.62584-1.7037 1.0153-1.143 2.363-2.0455 3.5773-2.4431 1.1774-0.38547 2.2491-0.36831 3.127-0.35105 1.0177 0.02 2.486 0.6806 3.0684 1.4665 0.33228 0.44842 1.3788 1.5709 1.9936 2.6484 0.45617 0.79949 0.9035 1.2716 1.2968 2.103 2.618-0.33445 4.5708 0.59712 6.3341 1.306 3.6135 1.5094 6.6009 2.7509 10.246 4.1618 3.7494 1.4514 7.4117 1.4928 10.999 2.185 3.294 0.63548 8.0077 2.0582 10.792 3.2896 3.9002 1.7246 5.9901 4.0421 9.207 7.1484 4.5621 4.4053 10.91 12.94 12.004 14.416 0.57506 0.7759 1.354 1.6318 1.5938 2.4495 0.23972 0.81766 0.0091 1.9728-0.17634 2.3976l-1.786 3.2823 1.8158-0.979c1.5927-0.935 2.7364-1.3058 4.6805-1.5232 0.48512-0.054 1.602 0.095 2.5329 0.3912 0.93094 0.2959 2.1685 0.9521 3.2785 2.5371 0.60894 0.8696 0.61782 1.6593 0.56669 2.2112-0.0511 0.5518-0.3095 0.8867-0.37892 1.7127-0.25005 2.9755-1.3965 6.241-2.7732 9.0797-1.448 2.9859-4.1269 6.6693-6.3301 9.3784-2.6429 3.2497-5.0942 5.8316-8.3211 8.4124-1.756 1.4043-3.8976 2.8038-5.8306 3.7564-0.38502 0.7729-0.82436 1.205-1.4071 1.736-0.3653 0.3329-1.1359 0.9718-1.8569 1.0081-0.04332 1.1183-0.34891 1.4217-0.88949 2.1443-0.47977 0.6414-1.9908 0.5511-2.6017 0.3026-0.64652-0.2631-0.86933-0.9916-0.83701-1.2666 0.04855-0.413 0.38359-1.0149 0.54638-1.1548 0.48095-0.4133 1.4744-0.7288 1.9877-1.0195l1.6421-1.1349-2.2813 0.3092c-1.0682 0.4051-1.2686 0.259-1.5394 0.033-0.27497-0.2299-0.21324-0.2045-0.4299-0.4308l-0.35924-0.6686c-0.48824 0.2458-0.36586 0.303-0.57382 0.5688-0.09653 0.1234-1.9016 1.2365-2.4533 1.5037-0.55162 0.2671-2.2052 1.8903-3.1451 2.3037-1.8757 0.8251-1.691 0.6817-4.9173 1.3076l-0.31836 0.062-0.20312 0.2519c-0.70824 0.8783-0.80298 1.5-2.7222 1.7856-0.60806 0.091-1.4138 0.012-1.8472-0.079-0.3907-0.082-1.0885-0.3416-1.1881-0.9852-0.08539-0.5518 0.13589-0.9387 0.4059-1.3148 0.2655-0.3699 0.4633-0.8149 1.3242-1.0776 0.89625-0.2736 1.757-0.265 2.3148 0.1469l0.83655 0.6177c0.25564 0.088 0.4479-0.077 0.58571-0.4597 0.22896-0.4324 0.44091-0.9552 1.2069-1.2966 0.76597-0.3413 1.622-0.5728 2.6448-0.8523l-0.25356-0.949c-0.68138-0.1401-1.0726 0.022-1.3661 0.022-0.26551 0-0.62187-0.01-0.85719-0.3365-0.27162-0.3818-0.39811-0.7111-0.39468-0.9852 0.0049-0.3938 0.43271-1.0514 1.2145-1.0617 0.5897-0.01 1.22 0.9638 1.8499 0.9767l0.25195 0.01 0.2168-0.1289c0.98265-0.5811 1.6415-1.2107 2.8314-1.7096s1.9713-0.911 2.5573-1.2168c1.3376-0.4928 1.7459-1.0651 2.7536-1.6124 0.44018-0.9389 0.51499-1.5784 0.4177-2.5843z" color="#000000" color-rendering="auto" fill="#072500" image-rendering="auto" solid-color="#000000" style="block-progression:tb;isolation:auto;mix-blend-mode:normal;text-decoration-color:#000000;text-decoration-line:none;text-decoration-style:solid;text-indent:0;text-transform:none;white-space:normal"/>
   <path d="m80.373 981.74c2.8077 3.1363 5.5398 6.3416 8.1149 9.6726 0.75863 0.97092 2.5693 3.2744 3.3208 4.2508 1.0959-1.0788 2.2671-3.2103 2.7645-4.7075 0.624-1.8785-0.22231-5.0284-1.6243-6.4751-1.2567-1.2969-3.6066-2.1155-5.3011-2.5276-2.3628-0.57462-4.8617 0.0533-7.2747-0.21329zm3.224 1.4821c1.6341-0.2313 4.8811 0.52499 6.5952 1.2841 1.3641 0.60408 2.9672 3.7272 2.646 5.1746-0.18408 0.82957-0.83468 1.822-1.4493 2.4236-1.9541-2.5298-5.7137-6.4537-7.7919-8.8822z" color="#000000" color-rendering="auto" fill="#072500" image-rendering="auto" solid-color="#000000" style="block-progression:tb;isolation:auto;mix-blend-mode:normal;text-decoration-color:#000000;text-decoration-line:none;text-decoration-style:solid;text-indent:0;text-transform:none;white-space:normal"/>
   <path d="m37.049 972.2-0.13477 0.82227c-0.22868 1.384-0.55202 2.4123-0.85156 2.8477 1.0494 0.91192 3.891 2.7498 5.7988 3.543 2.3256 0.96686 4.9339 0.87317 7.0154 2.0219 1.7994 0.99307 3.1961 2.8433 5.0862 4.0581 1.8574 1.1938 3.7662 2.3756 5.8223 3.2891 1.7227 0.7654 3.9376 1.4768 5.4544 2.1717 4.307 1.9732 7.8582 4.2492 11.911 6.8518 1.8451 1.2068 3.6443 2.4822 5.4395 3.7617 0.41608-0.1306 0.83272-0.2196 1.166-0.3025 0.50929-0.1059 1.1401-0.1743 1.4102-0.1309-1.4386-0.9167-2.478-1.4824-3.7539-2.8086-0.42054-0.43714-0.97838-1.2064-1.4141-1.8223s-0.95402-1.2764-1.6523-1.791c-0.93461-0.68877-2.2068-0.95874-2.8867-1.4297-1.165-0.80697-1.4514-2.7587-3.0176-3.6777-1.2879-0.75576-2.7046-0.61302-3.6426-1.0801-1.4751-0.73455-2.5576-2.4433-4.2715-3.4102-2.2644-1.2774-4.7858-1.461-6.8711-2.5684-2.0073-1.066-3.7292-2.8188-5.6278-4.2721-2.1014-1.6085-4.3947-3.0938-6.9913-3.9212-0.82376-0.2625-1.6373 0.0227-2.373 0.0996-0.73573 0.0769-1.3949 0.13388-1.9434-0.0371-0.29126-0.0908-1.107-0.54106-1.7676-0.95313-0.66058-0.41206-1.2148-0.79101-1.2148-0.79101l-0.68945-0.47071zm0.41648 1.204c0.23018 0.15272 0.78693 0.60327 1.1463 0.82744 0.68263 0.42582 1.3394 0.79341 1.9253 0.97606 0.82445 0.25702 1.2386 0.20107 1.9733 0.12429 0.73474-0.0768 1.75-0.29615 2.2964-0.12207 2.3117 0.73666 4.5007 2.3407 6.5592 3.8855 1.9526 1.4653 3.6799 3.2038 5.8841 4.3743 2.2884 1.2152 4.7052 1.5709 6.7539 2.7266 1.4507 0.81834 2.5606 2.5661 4.3379 3.4512 1.3164 0.6555 2.7702 0.30737 3.6543 0.82617 1.2037 0.70638 1.6636 2.5505 3.1387 3.5723 0.94447 0.6542 2.1447 0.94618 2.8008 1.4297 0.5009 0.36914 0.90488 0.95147 1.3496 1.5801 0.44472 0.62861 0.93506 1.3072 1.6934 1.7598 0.76868 0.4588 2.2554 1.5942 3.1814 2.1065-0.38706 0.083-0.89868 0.1133-1.4063 0.2012-0.42553-0.4431-3.3683-2.7352-5.1175-3.8585-4.0284-2.5871-7.9287-5.7368-12.353-7.7637-1.7175-0.78683-3.4958-1.0988-5.0242-1.7778-1.9679-0.87435-3.8752-1.9355-5.7219-3.1225-1.7486-1.1239-3.2936-2.735-5.2812-3.832-2.2404-1.2365-4.7557-1.3254-6.9922-2.2441-1.6036-0.65874-4.6185-2.5448-5.1328-2.7564 0.24946-0.50925 0.17734-1.6076 0.33444-2.3638z" color="#000000" color-rendering="auto" fill="#021700" image-rendering="auto" solid-color="#000000" style="block-progression:tb;isolation:auto;mix-blend-mode:normal;text-decoration-color:#000000;text-decoration-line:none;text-decoration-style:solid;text-indent:0;text-transform:none;white-space:normal"/>
   <path d="m28.043 964.07c-1.9621 0.24981-2.918 0.48796-4.569 1.3908-0.67885 0.37123-2.0199 1.5393-1.8924 2.3358 1.9465-1.1578 3.1309-1.75 3.9204-2.0548 1.4533-0.56108 3.6642-0.75487 4.877-0.44531 1.4498 0.37005 2.9713 1.7038 4.1191 3.1426s1.952 3.198 1.5508 5.1406c-0.3766 1.8235-1.386 3.2273-2.8613 4.3047-2.5149 1.8366-5.7826 1.6479-7.9451 0.44436-0.60313-0.33568-1.3651-0.94902-1.8681-1.689-0.39883-0.58662-0.58983-1.2939-0.7291-1.7155-0.41604-1.2594-0.29239-1.3146-0.40656-4.3792-0.58052 1.3279-0.57271 4.4327-0.0207 5.5933 0.55201 1.1607 1.4041 2.2001 2.6376 2.8866 2.4671 1.373 6.3776 2.4994 9.3208 0.58115 0.7217-0.47039 2.0675-1.5498 2.6812-2.4605 0.61371-0.91065 1.018-2.6082 1.1538-3.504 0.34595-2.2813-1.0183-4.4083-2.2901-6.0024s-2.7562-2.6846-4.721-3.3914c-0.84066-0.3024-1.9884-0.30132-2.9573-0.17796z" color="#000000" color-rendering="auto" fill="#002903" image-rendering="auto" solid-color="#000000" style="block-progression:tb;isolation:auto;mix-blend-mode:normal;text-decoration-color:#000000;text-decoration-line:none;text-decoration-style:solid;text-indent:0;text-transform:none;white-space:normal"/>
   <g fill="#072500">
    <path d="m18.223 984.33c0.70424 0.3333 3.2798 0.95206 4.4546 1.4709 5.1641 2.281 7.4482 3.8669 11.136 4.4532 1.1893 0.18908 3.7604 0.36491 5.7038 0.16247-0.53054-0.59945-3.9012-0.48878-5.7602-0.91755-3.2494-0.74947-6.1679-2.5016-9.1882-3.9921-2.2914-1.1308-4.7319-2.1608-6.9967-3.2348-0.19274 0.67189 0.40068 1.4646 0.65065 2.0579z" color="#000000" color-rendering="auto" image-rendering="auto" solid-color="#000000" style="block-progression:tb;isolation:auto;mix-blend-mode:normal;text-decoration-color:#000000;text-decoration-line:none;text-decoration-style:solid;text-indent:0;text-transform:none;white-space:normal"/>
    <path d="m82.769 1001.1c-3.0199 1.2714-6.0198 3.3985-8.3168 5.7083-1.132 1.1383-1.8934 2.8049-2.4843 4.2955-0.6335 1.5982-0.99176 3.1136-1.2611 4.4758 0.33333 0 0.85417 0.6975 1.1875 0.7015 0.15961-1.9341 0.98394-4.0133 1.7851-5.7607 0.84368-1.8401 2.2496-3.5573 3.7577-4.8547 2.0543-1.7673 4.1775-3.4165 6.8414-4.0684 1.4046-0.3437 3.1959 0.2915 4.5689 0.6818-0.50719-1.5014-4.744-1.7409-6.0785-1.1791z" color="#000000" color-rendering="auto" image-rendering="auto" solid-color="#000000" style="block-progression:tb;isolation:auto;mix-blend-mode:normal;text-decoration-color:#000000;text-decoration-line:none;text-decoration-style:solid;text-indent:0;text-transform:none;white-space:normal"/>
    <path d="m92.878 1002.8s-5.1215 3.2409-7.5064 5.4998c-1.6506 1.5634-2.3609 2.3625-3.5154 4.3178-1.0286 1.742-1.6805 4.4159-1.6575 5.4887 0.69748-1.0144 1.3194-3.4245 2.1166-4.8996 1.06-1.9616 2.1272-2.8721 3.7438-4.4033 2.1558-2.0419 7.6484-5.0036 7.6484-5.0036z" color="#000000" color-rendering="auto" image-rendering="auto" solid-color="#000000" style="block-progression:tb;isolation:auto;mix-blend-mode:normal;text-decoration-color:#000000;text-decoration-line:none;text-decoration-style:solid;text-indent:0;text-transform:none;white-space:normal"/>
    <path d="m100.57 1012.1c-0.6306 0.5748-1.9408 3.1603-3.5797 4.966-2.6484 2.918-4.858 5.1463-8.2871 7.1574-2.4636 1.4448-5.2221 2.7932-8.0991 3.1689-1.286 0.1679-2.7735 0.468-4.0127 0.2168-0.02737 0.4344-0.19038 1.0886-0.25738 1.7148 1.6789-0.7707 4.7458-0.8169 6.6691-1.4112 3.2563-1.0062 5.8388-2.3094 8.551-4.3281 2.4644-1.8343 4.5247-4.2108 5.4487-5.3314 0.90016-1.0917 2.2811-3.8779 3.802-5.8243 0.59894-0.7665 1.2569-1.1974 1.8593-1.6538-0.44754-0.2875-1.8482 1.1008-2.094 1.3249z" color="#000000" color-rendering="auto" image-rendering="auto" solid-color="#000000" style="block-progression:tb;isolation:auto;mix-blend-mode:normal;text-decoration-color:#000000;text-decoration-line:none;text-decoration-style:solid;text-indent:0;text-transform:none;white-space:normal"/>
    <path d="m52.963 998.07c-0.21102 0.82672 2.4023 2.492 3.2257 3.3423 1.3761 1.421 2.3458 2.5221 3.2696 4.3068 1.2732 2.4597 3.8274 3.4307 4.7464 6.2475 0.75845 2.3244-0.95934 3.7432-1.1296 5.2036 0.4755 0.1837 1.1425 0.6125 1.3006 0.2973 0.3216-0.6411 0.28755-1.5664 0.72202-2.3162 0.54174-0.935 0.98679-2.2119 0.72504-3.2487-0.37653-1.4913-1.7903-2.7218-2.894-3.7158-0.59407-0.535-1.4715-1.1927-1.9308-1.8186-0.79331-1.081-1.3956-2.0032-2.1822-3.1139-1.3899-1.9625-3.8898-3.8152-5.8528-5.1843z" color="#000000" color-rendering="auto" image-rendering="auto" solid-color="#000000" style="block-progression:tb;isolation:auto;mix-blend-mode:normal;text-decoration-color:#000000;text-decoration-line:none;text-decoration-style:solid;text-indent:0;text-transform:none;white-space:normal"/>
    <path d="m45.863 1001.7c-0.71919 0.3499 0.41722 3.2592 0.9919 4.1528 1.2899 2.0057 3.3829 3.8491 5.1795 5.3868-0.82246 0.4123-1.9337 0.8882-2.0387 1.646-0.0478 0.3451 0.39653 1.4563 0.9917 1.6356 0.3354-0.748 1.7988-2.1508 2.9049-3.1466-1.5312-1.3759-3.5504-2.914-5.1767-4.7963-1.2878-1.4906-2.2963-3.2629-2.8527-4.8783z" color="#000000" color-rendering="auto" image-rendering="auto" solid-color="#000000" style="block-progression:tb;isolation:auto;mix-blend-mode:normal;text-decoration-color:#000000;text-decoration-line:none;text-decoration-style:solid;text-indent:0;text-transform:none;white-space:normal"/>
    <path transform="translate(0 946.06)" d="m83.506 87.276c-1.1562 1.0246-2.5992 1.6577-3.789 2.6423-1.7639 1.4598-2.0378 1.3307-4.0782 2.3363-0.32254 0.15897-2.5624 1.283-2.7782 1.4083 0.12811 0.1558 0.41899 0.90675 0.58621 0.93095 1.4211-1.23 3.0893-2.1293 4.86-2.5427-0.64806 0.89207-0.95158 1.5518-1.9089 2.1377-0.32614 0.19962-0.63792 0.29038-1.0416 0.45872 0.11452 0.2088 0.16293 0.57938 0.32177 0.9257 1.8226-0.6708 3.1303-2.3502 4.1404-3.9069 0.24659-0.38004 0.56456-0.9689 0.81836-1.2422 0.84536-0.91027 2.1721-1.3619 3.0582-2.2316 1.0442-1.0249 1.9796-2.5113 2.8542-3.7687 0.25433-0.32116-0.26532-0.35322-0.60049 0.14924-0.79024 1.1847-1.6782 2.0252-2.4429 2.7029z" color="#000000" color-rendering="auto" image-rendering="auto" solid-color="#000000" style="block-progression:tb;isolation:auto;mix-blend-mode:normal;text-decoration-color:#000000;text-decoration-line:none;text-decoration-style:solid;text-indent:0;text-transform:none;white-space:normal"/>
    <path d="m80.14 1033.2c-2.2247 0.2482-3.3666 1.5706-5.3389 2.5493-0.44998 0.2233-2.1105 1.2415-2.491 1.5835-1.6887 1.5173-2.9318 2.1461-5.0245 3.0064-0.62943 0.2588-2.3467 0.9021-2.8582 0.8962 0.12063 0.2727 0.19707 0.656 0.31771 0.9287 2.2137-0.5916 4.4668-1.7815 6.4242-3.129 0.71882-0.4948 1.3781-1.1253 2.1395-1.5513 2.0114-1.1254 2.84-1.8957 5.2449-3.1888 0.28194-0.1516 1.8874-0.8067 1.5864-1.095z" color="#000000" color-rendering="auto" image-rendering="auto" solid-color="#000000" style="block-progression:tb;isolation:auto;mix-blend-mode:normal;text-decoration-color:#000000;text-decoration-line:none;text-decoration-style:solid;text-indent:0;text-transform:none;white-space:normal"/>
    <path d="m76.613 1031.1c-1.0336-0.033-2.0789 0.1998-2.976 0.7382 0.16862 0.2878 0.33724 0.7081 0.50586 0.9959 0.13835-0.3563 0.78205-0.6948 1.4224-0.8755 1.0627-0.2999 2.4092-0.2709 3.0081 0.025-2.171 0.6008-3.9646 1.3514-5.265 2.2389 0.18685 0.276 0.17482 0.6405 0.36167 0.9165 1.3413-0.9163 2.6901-1.4764 4.1479-2.1985 0.25902-0.1283 0.88801-0.3532 1.5421-0.6156 0.2405-0.097 0.45214-0.2345 0.62659-0.5438-0.62648-0.1857-0.95468-0.3107-1.369-0.3903-0.90596-0.1741-1.0822-0.2611-2.0046-0.291z" color="#000000" color-rendering="auto" image-rendering="auto" solid-color="#000000" style="block-progression:tb;isolation:auto;mix-blend-mode:normal;text-decoration-color:#000000;text-decoration-line:none;text-decoration-style:solid;text-indent:0;text-transform:none;white-space:normal"/>
   </g>
   <path d="m27.85 968.18c-0.83956-0.10835-1.9774 0.12841-2.6699 0.5957s-1.3093 1.1302-1.8965 1.8867l-0.18164 0.23242 0.10352 0.27735c0.22669 0.60911 0.40372 1.0561 0.72461 1.707 0.19185 0.38917 0.69314 1.0324 1.127 1.4531 0.43382 0.42073 0.93804 0.81758 1.502 1.0156 1.1727 0.41185 2.451 0.2155 3.4453-0.0332 0.73955-0.18498 1.706-0.77382 2.4707-1.5137l0.125-0.21289-0.08203-0.23047c-0.29534-0.83583-0.46708-1.8808-1.0879-2.832-0.6713-1.0286-1.4475-2.0705-3.5801-2.3457zm-0.41797 0.75585c1.8532 0.23917 2.6844 1.0481 3.2637 1.9356 0.40396 0.61893 1.0217 1.6891 1.1582 2.5254-0.36739 0.47932-1.2987 0.95198-1.9043 1.1211-0.90328 0.25225-2.2699 0.34277-3.0234 0.0781-0.30455-0.10696-1.0913-0.45389-1.457-0.80859s-1.0163-1.4873-1.1016-1.6602c-0.27019-0.54807-0.30517-0.63717-0.5-1.1074 0.47944-0.58609 1.2618-1.2149 1.7363-1.5352 0.54502-0.36777 1.2846-0.61897 1.8281-0.54883z" color="#000000" color-rendering="auto" image-rendering="auto" solid-color="#000000" style="block-progression:tb;isolation:auto;mix-blend-mode:normal;text-decoration-color:#000000;text-decoration-line:none;text-decoration-style:solid;text-indent:0;text-transform:none;white-space:normal"/>
   <path d="m36.92 976.58c-1.8906 1.2132-2.1696 1.8889-2.8691 2.7988-0.54048 0.70301-0.853 1.713-0.66797 2.625 0.18503 0.91206 0.52882 1.9422 0.98047 2.6055 0.81276 1.1936 2.511 2.4326 3.9941 2.459 0.82446 0.0147 2.0491-0.83865 2.7598-1.3496 0.71066-0.51097 1.4373-1.4182 1.4453-2.2617 0.0072-0.76075-0.0367-1.3312-0.21484-1.8047-0.17815-0.47346-0.27792-0.79947-0.52344-1.3809 0 0-0.34341-0.54691-0.625-0.57422-0.23939-0.0232-0.61524 0.37696-0.61524 0.37696-0.46683 0.39725-0.77268 0.43841-1.0215 0.48046-0.2488 0.0421-0.52107 0.0747-0.69531-0.23047-0.16708-0.29265-0.1509-0.42221-0.04492-0.61914 0.10598-0.19692 1.1322-0.98342 1.5586-1.2148-1.0175-0.7355-2.7107-1.8769-3.4609-1.9102zm0.14457 1.0938c0.47887 0.12785 1.3653 0.75311 1.3848 1.1524-0.07405 0.3409-0.6644 0.68142-0.92075 1.1053-0.31545 0.52162-0.28584 1.1213-0.11636 1.4181 0.33526 0.58726 1.6159 0.60317 2.2031 0.5039 0.37546-0.0635 0.99534-0.69248 1.3418-0.92383 0.14374 0.30532 0.4225 1.0895 0.51953 1.3164 0.18615 0.43525 0.10713 1.4014-0.22656 1.6074-0.16009 0.0988-0.45916 0.52531-1.0352 0.93945-0.576 0.41415-1.3039 0.72917-1.8066 0.7793-0.97581 0.0973-2.2169-0.90499-2.791-1.748-0.34708-0.50971-0.69489-1.3311-0.84961-2.0937-0.15472-0.76264 0.0794-1.0299 0.21875-1.4531 0.12703-0.38582 0.9755-1.9635 2.0781-2.6035z" color="#000000" color-rendering="auto" fill="#230" image-rendering="auto" solid-color="#000000" style="block-progression:tb;isolation:auto;mix-blend-mode:normal;text-decoration-color:#000000;text-decoration-line:none;text-decoration-style:solid;text-indent:0;text-transform:none;white-space:normal"/>
  </g>
 </g>
</svg>
