<?xml version="1.0" encoding="UTF-8"?>
<svg width="181.82" height="426.83" enable-background="new 0 0 181.823 426.831" viewBox="0 0 181.823 426.831" xmlns="http://www.w3.org/2000/svg">
 <g fill-rule="evenodd">
  <path d="m36.046,407.09c-22.17-1.433-46.059,9.441-14.59,13.59 3.147.427 45.915,7.723 63.796,6.149 19.881-1.86 33.612-2.718 54.356-3.721s35.76-6.438 11.298-10.011c-24.315-3.721-31.04-6.008-47.062-7.151-16.024-1-57.363,1.71-67.804,1.14z" fill="#453b30"/>
  <path d="m16.593,306.68c.286-1.574-.287-1.716.142-3.149 .573-1.571 3.005-7.723 4.72-18.451 1.717-10.727 2.718-12.157 2.718-12.157s2.29,10.441 3.862,14.875 5.865,16.021 6.866,20.025c.859,4.006 2.575,11.013 2.146,19.311-.572,8.298 1.431,11.299 2.861,13.732 1.287,2.432 3.146,6.007 4.148,10.585s3.433,16.162 4.292,20.169c.715,4.147 2.288,9.011 1.717,12.73-.716,3.576-.859,6.294-.286,8.151 .429,2.002 1.715,5.292 3.288,6.722 .43.574.145,1.862 0,3.292 0,1.571-.858,7.727-.715,10.3 0,0-1.43,3.859.715,5.292 1.861,1.573 6.725,2.576 7.439,2.001 .859-.713 1.43-.428 2.146-.428 .857-.144 4.29-1.432 4.147-4.006 0,0 4.293.145 4.863.716 0,0 0,5.292 2.576,6.294 2.716.857 8.01,2.719 10.584,2.002 1.571-.571 3.864-2.859 3.575-4.578-.427-1.859-1.571-4.147-2.004-5.291-.428-1.003-.139-1.43-.855-2.432-.859-1.145-1.574-.431-2.29-2.288-.715-2.002-2.289-4.147-1.144-7.296 1.144-3.146 1.86-5.722-.287-10.3-1.001-2.001-.572-4.72-.715-7.151 0-2.432.858-20.74 1.431-24.889 .429-4.147 2.003-18.022 2.289-20.311s.716-4.148 1.288-5.293c.858-1.288 2.001-3.001 1.715-6.58-.427-3.576.145-3.576.145-5.722 0-2.288.572-14.445 1.43-18.165s1.574-10.299 1.857-12.732c.289-2.429 1.146-6.437 1.717-8.583 .432-2.143 4.15-18.021 6.44-20.167s2.432-2.002 3-2.146c.575,0 6.295-2.288 6.867-2.862 0,0-1.288,8.87-1.288,15.735s.287,18.022 1.718,23.745 1.86,10.441 1.717,16.163c0,5.58.144,8.298-.573,10.155-.715,1.862-1.858,4.864-1.431,6.724 .429,1.716-.143,1.574-.286,2.146-.142.716-.142,3.29 1.002,5.436 .285.572 0,2.86-.143,5.863-.145,2.859-1.288,14.592-1.288,20.885 .143,6.294-.143,21.883-.284,24.028-.145,2.146-.432,4.009-1.146,5.438-.572,1.571-2.146,4.575-1.144,6.865 .857,2.146 2.001,2.288 2.432,3.001 .571.717.571,4.009.571,6.011-.142,1.857 1.146,3.29 2.003,3.576 .859.283.287.857.287,1.571 0,.857.144,4.436 6.863,5.438s10.301.142 10.589-1.574-1.573-6.008-3.437-8.44c-2.001-2.432-3.433-2.146-4.004-2.573-.717-.433-3.432-3.72-3.148-5.438 .289-1.717 1.288-4.575-.713-7.725-1.574-2.432-1.002-6.151-.857-9.869 .285-3.575 1.429-21.884 1.859-24.889s1.86-15.876 2.859-18.308 2.288-5.436 2.146-8.726c-.286-3.29.286-2.859 0-6.438-.143-3.432-1.001-6.005-.713-9.153 .14-3.146 1.572-20.597 3.002-25.033 1.288-4.578 5.008-15.161 6.293-19.739s2.432-11.157 3.006-17.021c.428-5.866 2.432-8.439 3.146-9.87 .572-1.288 6.435-10.871 7.151-18.739 .574-7.866-2.146-15.877-2.002-19.312 0-3.287.717-15.161.286-16.734-.286-1.43.145-5.15.716-7.58 .572-2.435 3.146-13.161 3.717-19.885 .431-6.721 1.86-24.886 2.005-29.323 .286-4.433.856-41.909 1-46.057 0-4.147.144-20.741 1.146-24.03 1.001-3.148.715-5.724 2.574-6.152 2.002-.286 4.575-1.715 6.721-1.285 2.005.713 4.865,1.713 4.865,2.573 .143.858.43,1.86 1.573,2.574 1.003.716 1.003,1.86 1.43,3.003 .572,1.146 1.43,3.291 4.863,2.719 3.576-.428 3.72-1.145 3.72-1.145s1.573-.428 2.575-1.574c1.144-1.144 1.288-4.719 0-7.579-1.146-2.862-1.431-4.15-.715-5.152 .57-1.141.57-2.429-1.86-3.432 0,0-2.861-3.717-4.005-5.005-1.144-1.144-4.434-6.869-4.578-8.154-.285-1.288 0-2.574-.285-4.148-.142-1.574-1.574-2.29-2.288-3.003-.573-.716-1.717-2.288-1.717-2.288s2.717-1.429 3.146-5.58 .858-6.724 1.288-7.582c.428-1 .428-1.716-.43-1.716 0,0-6.866,1.574-8.582,3.146-1.86,1.718-2.001,3.576-2.001,3.576s-1.288-1.857-2.146-2.574c-.716-.858-1.574-3.003-2.004-5.722-.572-2.859-1.002-7.009-3.146-8.151-2.29-1.146-4.437-2.29-5.149.142-.572,2.432-.857,3.434-.142,4.434 .854,1.002 4.719,4.436 3.861,9.726 0,0-.431.86-.86.715-.428-.142-1.144-1.715-2.432-4.575-1.285-3.003-3.29-6.438-3.717-7.868-.572-1.432-2.862-3.434-4.578-3.72-1.861-.286-1.861-.572-2.003,1.146-.285,1.713-1.002,4.861.572,6.577s6.009,2.718 5.292,9.298c0,0-2.432-1-3.861.288 0,0-1.861-3.72-4.579-4.722-2.858-1-14.447-5.006-16.162-5.006-1.719,0-3.289.286-2.862,3.004 .572,2.576 2.005,10.727 10.156,14.161 0,0 1.576.714 2.72.858s4.289.858 4.863,1.144 .142,1.144.286,2.146c.142.857-1.43.857-1.43,2.29 .142,1.43-.86.714-.86,2.43 0,1.574-.857,1.43-.999,3.003s-1.002,6.583-1.146,7.868c-.286,1.433-1.285,7.01-.999,8.584 .141,1.43 0,2.002-.286,2.718-.431.713-.431,4.003-.431,6.149 0,2.291.286,9.869.286,12.016 .286,6.579-1.002,9.583-1.433,14.733-.428,5.005-2.145,12.015-3.004,15.305-.714,3.434-1.572,6.008-1.572,8.581 0,2.288-.287,2.718-.716,4.006s-.999,3.003-.999,5.721c-.145,2.86-.717,3.435-1.145,5.148-.574,1.718-3.003,8.583-3.863,11.446-.858,2.718-1.716,4.575-2.717,5.577-.715,1.002-2.576,2.291-2.719,3.146 0,1.002-.573.715-1.858.574s-1.719.142-3.578,1.716c-1.716,1.718-4.431,4.433-5.863,5.433-1.573,1.146-2.433,2.004-3.432,4.009-1.004,2.001-2.576,5.147-3.864,6.435-1.288,1.144-3.145,3.862-4.289,6.152-1.431,2.288-5.293,9.295-12.16,14.159 0,0-2.003,1.43-3.003,2.432-1.001.861-2.003,1.145-3.577,1.861-1.717.572-5.292,2.576-7.009,3.289-1.716.716-5.721,2.004-7.867,2.004-2.144,0-6.865.427-13.158,3.432-2.861,1.43-6.581,7.868-7.868,10.013-1.145,2.144-4.72,10.583-6.008,18.023-.715,4.863-.429,5.292-.858,7.579s-2.003,9.583-2.575,13.875c-.429,4.292-1.287,14.878-1.572,19.17s-1.574,17.019-2.575,22.457c-1.146,5.436-2.004,10.583-4.148,13.159-.887,1.01 1.974,8.73 3.119,2.87z" fill="#fee692" stroke="#000" stroke-linecap="round" stroke-linejoin="round" stroke-miterlimit="2.4142" stroke-width=".504"/>
  <path d="m134.6,74.238s-2.573-5.577-2.573-6.436c.142-1.001 1.002-.716 1.43-.716 .571,0 .43-.572.145-1.144s-.572-4.292.571-4.864c1.144-.714 1.574-.714 2.573.716 .86,1.43 3.149,3.434 3.149,4.576-.145,2.004 1.43,1.004.999,2.576-.286,1.574-.999,6.008-.857,7.582 .286,1.715-2.145-1.574-2.003-3.72 .143-2.002-1.144-2.433-1.574-1.43-.43.858-1.86,2.86-1.86,2.86z" fill="#a6612a"/>
  <path d="m154.91,57.647s-9.156,1.716-12.301-4.006c0,0-.717,2.433.286,3.862 1.002,1.288.427,2.432-.145,3.576-.428,1.288.86,2.432.145,3.434-.572.858 1.429,1.574 1.715,3.576s.572,11.729 1.144,13.731c.717,2.001 1.86,7.438 2.576,7.438 .572,0 .572-3.001 1.285-5.436 .717-2.288 1.288-4.003 1.288-5.864s0-10.013 1.002-14.161c1.14-4.148 1.29-5.722 3-6.15z" fill="#a58d54"/>
  <path d="m144.33,69.949s1.288,2.432 2.146,2.432c1.002-.145 1.859,0 2.287.428 .286.286 2.004-.858 2.004-.858s.285,4.148-.145,5.294c-.427,1.144-.857.854-.857,2.143 0,1.146-1.715,2.433-1.715,2.433s-.861-.716-1.86-1.286c-1.002-.43-2.287-1.718-2.573-3.147s-.716-2.288-.145-3.148c.58-1.145.01-4.149.87-4.291z" fill="#8d5324"/>
  <path d="m136.03,76.67s.713,1.718 1.144,2.288c.571.43.571,1.86.145,3.15-.288,1.43-1.433,3.287-1.288,5.289 .285,1.86-.717,4.292-1.574,5.866-.717,1.574-1.574,4.006-1.574,5.005s-1.002,1.288-1.715-.571c-.717-1.86-.286-3.001 0-3.718 .427-.574-.286-.858-1.003-1.002-.713,0-2.146.286-2.001-2.146 .286-2.43-.286-6.438.428-6.866 .86-.572 2.29-2.717 2.29-2.717s.286,1.86 1.43.427c1.002-1.43 1.573-2.43 2.287-2.718 .7-.427 1.41-2.287 1.41-2.287z" fill="#a6612a"/>
  <path d="m140.75,81.964s3.004,1.286 3.148,2.574c0,1.286 1.715,4.864 3,2.859 .575-.857.861.145 1.003,1.574 .285,1.433.716,3.146 1.573,3.434 1.003.428 1.288,2.86 1.003,4.434 0,1.429-1.147,2.862-1.003,4.292 .286,1.288-.857,3.004-1.573,2.86-.717,0-1.288-.716-1.003-2.001 .286-1.288-1.715-3.862-2.573-4.006-.713-.142-1.429,1.145-1.287,2.718 .285,1.43 2.29,3.72 1.287,4.436-.857.858-1.429,2.859-4.005.713-2.431-2.001-3.29-4.006-3.146-6.294s.145-5.149 1.286-5.865c1.288-.858 1.002-4.29.287-5.006 0,.001 2.29-4.291 2-6.721z" fill="#a6612a"/>
  <path d="m129.31,98.127s.286,3.717 1.716,4.434c1.288.713 0,1.574.857,2.146 .716.713-.428,1.002-.569,2.287-.144,1.288-.574,2.574.283,3.004 1.002.43 1.86,1.715.86,2.576-1.002,1.002-1.432,1.574-1.432,4.003 0,2.29-1.43,4.863-1.144,6.01 .144,1-1-.145-1.574-1.146s-.572-3.29-1.574-4.006c-.713-.857-.428-2.146-.428-2.146s-2.146,1.004-1.859-.572c.286-1.574.286-4.576 1.43-5.863 1.146-1.431 3.006-5.15 3.006-6.294-.02-1.29-1.31-3.716.41-4.433z" fill="#a6612a"/>
  <path d="m137.46,106.14s.572,1.574 2.003,2.146 .717,2.146.431,3.148c-.145,1-.572,4.147.713,4.29 1.288,0 .717-2.718 1.288-3.576 .717-1.002 4.578-2.432 5.291-3.862 .575-1.432 1.719-1.432 1.433,0-.286,1.575-.716,3.862-.145,5.294 .572,1.286.145,3.432-.286,4.29-.427.716-.713,1.429-.427,1.715 .427.289-.717.43-1.716,2.002-1.002,1.433-1.719,2.862-1.719,2.862s-.427-.428-2.001-.716c-1.433-.284-2.004,1.146-3.004,1.433s-1.431.141-1.861-1.288c-.285-1.431-2.146-2.433-3.575-1.719-1.43.716-1.144-1-.857-1.713 .286-.861 1.144-5.866 1.144-5.866s1.574.286 2.001-.858c.46-1.12.03-7.42 1.32-7.56z" fill="#a6612a"/>
  <path d="m125.44,119.44s-.142,1.86.86,3.576c.858,1.574 1.716,5.149 2.862,5.005 1.144,0 .572,2.001-.145,2.862-.571.713-1.002,3.431-1.002,3.431s-1.144-.857-1.716.289c-.716,1.286-2.146,4.575-3.147,3.146s.571-6.438-.145-8.01c-.572-1.574-1.144,2.144-1.144,2.144s-1.428.145-1.288-2.287c.143-2.576.573-5.722 1.859-7.58 1.288-1.718 1.288-2.721 1.719-3.006 .44-.42 1.15-.42 1.29.44z" fill="#a6612a"/>
  <path d="m133.6,126.31s.857,1.002 1.859.43c1.144-.716.999-.43 1.572,1.142s1.574,3.148 2.862,1.146 3.575-1.575 3.575-1.575-.43,2.863-.43,4.578c0,1.574-1.716,2.146-2.288,1.574-.716-.431-1.288-.572-1.717.713-.286,1.145-.573,5.866 1.001,7.583s3.434,5.294 2.29,6.007c-1.002.716-1.144-.286-2.29-.431-1.144-.141-2.289-1.715-3.577-3.289-1.285-1.716-4.577-3.576-4.577-3.576s1.146-1.857-.286-1.857c-1.43-.145-1.43-1.718-1.43-2.576s.286-1.716 1.288-3.718c1.17-2 1.45-5.71 2.17-6.14z" fill="#a6612a"/>
  <path d="m150.19,121.16s-2.146,1.861-2.718,3.576-1.146,5.15-.575,6.152c.717,1.144 0,2.146-.427,3.003-.428,1-.145,2.146-1.43,2.718-1.288.572-2.146-.144-1.288,2.288 .716,2.288.716,5.577 1.43,6.293 .716.716 3.003-2.288 4.146-2.288 0,0 1.15-20.31.86-21.74z" fill="#a6612a"/>
  <path d="m120.44,137.46s-.431,4.72.713,5.147c1.286.431 2.289,1.288 2.862.572 .571-.713 1.572-.713 1,1.146-.716,1.716-1,5.006-2.576,5.147-1.428.288-1.286.86-.855,2.862 .571,1.86-.145,3.432-1.144,4.006-.861.572-1.86,1-2.291-1.716s2.291-7.437 1.43-8.725c-.716-1.146-.427.427-.999.858s-1.288-.858-.86-3.29c.43-2.29 1-4.58 2.72-6.01z" fill="#a6612a"/>
  <path d="m131.17,144.62c1.144.142 3.719,3.148 4.863,4.147s4.004,2.86 5.292,2.288c0,0 4.291,3.434 1.144,13.592-2.146,7.435-5.007,3.001-5.436,1.713-.573-1.571-1.145-2.859-2.433-3.146-1.144-.286-.428-2.146-1.571-2.576-1.146-.283 1.716-3-1.002-1.857s-2.718.858-3.434-.428c-.714-1.29-.572-6.437.43-8.155 .858-1.858.717,2.001 1.716,1.146 .86-.71.43-6.71.43-6.71z" fill="#a6612a"/>
  <path d="m148.9,146.9s-2.146,3.864-3.004,4.72c-.716.716-1.002,1.288-.571,2.576 .427,1.145.999,10.011.427,11.299-.427,1.146 2.005-.713 2.146-1.86 .14-1.29 1.14-15.88.99-16.74z" fill="#a6612a"/>
  <path d="m113.57,148.33c.428-.43 1.144.427 1.144,1.858s.717,2.576-.571,3.864-2.288,5.147-4.005,5.147-2.432.716-2.861,1.002c-.572.286-1.43,0-.714-1.574 .714-1.43 2.145-2.288 1.86-3.576-.01-1.28 4.14-5.86 5.14-6.72z" fill="#a6612a"/>
  <path d="m115.15,158.2s-.431,2.859 1.285,4.003c1.718,1.146 2.861,1.43 3.72,1.288 .716-.142 2.004.572.86,1.86-1.288,1.288-1.433,3.861-1.859,5.006-.572,1.146-.717,2.287.141,2.576 .858.144.858.144.286,2.001-.716,1.858-.716,5.006-2.001,3.72-1.285-1.146-.717-3.72-2.002-3.72-1.144,0-2.575,2.862-2.29,4.004 .286,1.288 1.86,1.146 1.86,2.004 0,.714-2.718,2.432-2.718,2.432s-2.718-3.289-2.004-5.293-2.717-.714-2-1.858c.713-1.144 3.575-4.577 1.715-4.72-1.715,0-1.715-1.004-1.715-1.717 0-.716-1.288-.859-1.004-2.146 .287-1.43-1.001-2.432.715-3.576 1.575-1.144 2.719-3.004 4.148-3.435 1.41-.56 2.84-2.42 2.84-2.42z" fill="#a6612a"/>
  <path d="m125.59,167.64s2.576,3.435 2.576,1.002c0-2.29-1.716-2.862-1.002-3.861 .857-.858 4.149-1.86 4.719.286s4.006,8.581 8.585,8.012c2.858-.289 2.717-1.432 2.717-1.432s2.432,2.573 4.003-2.433l-3.572,17.021s-1.288-3.148-1.288-4.434c.142-1.288-1.144.573-1.144,1.574 0,1.145-.289,2.574-1.433,2.86s-1.574-2.86-1.574-2.86-.429,1.431-1.431.428c-1.144-1-.713-2.718-.713-2.718s-.858.43-2.291-.142c-1.573-.572-5.721-2.717-5.862-1.288 0,1.574-.286,4.72-1.574,2.146-1.32-2.72-1.32-12.16-.75-14.17z" fill="#a6612a"/>
  <path d="m130.6,184.66s2.146.86 3.145.572c.858-.283-.571,3.148 1.146,4.292 1.857,1.144-1.573.144-2.575,1.288-1,1.146-2.002-1.575-3.146-2.433-1.15-.85 1.43-3.72 1.43-3.72z" fill="#a6612a"/>
  <path d="m104.99,163.07s-.285,2.86-1.146,4.004c-.713,1.146-1.285,2.29-.571,3.29 .716.857.571,1.574.716,3.289 0,1.574.717,3.004-.145,4.15-.713,1.142-1.43,0-3.145,0-1.857,0-4.147.857-4.147.857s-.143-2.146 1.285-4.292c1.288-2.29 2.005-3.72.431-3.72s-2.003-.714-.858-2.146c1.145-1.286 1.716-3.718 3.864-3.86 2.28-.29 3.71-1.57 3.71-1.57z" fill="#a6612a"/>
  <path d="m99.698,159.92s-.283,2.001-3.146,3.003c-2.719,1.144-3.005,3.004-2.863,4.578 .145,1.715-.999,2.717-.999,2.717s-.431-2.576-1.716.143c-1.146,2.576-2.72,4.722-2.72,4.722s-1.144-3.864-.428-5.15c.861-1.288 3.861-5.008 4.433-6.151 .431-1.14 5.723-3.72 7.439-3.86z" fill="#a6612a"/>
  <path d="m83.679,176.37s2.001-1.431 2.001.427 .286,2.29 2.001,1.288c1.86-1.144 2.862-.427 2.004,1.29-.86,1.713-2.287,5.861-4.147,3.574 0,0-1.145,1.574.286,3.003 0,0-.43,2.146-1.86,2.576-1.574.427-4.72,1.715-5.437,3.717-.857,2.002-2.717,5.578-3.432,3.576-.715-2.146 0-4.004 1-4.576 0,0-2.003-2.29-.286-4.436 1.717-2.287 1.144-2.432 1.144-2.432s5.438-5.58 6.726-8.01z" fill="#a6612a"/>
  <path d="m97.125,183.09s-1.858,4.864-.286,4.722c1.716,0 1.716-5.578 3.575-6.294 0,0-.571,3.004.86,2.86 1.285,0 1-2.86 1.857-2.429s1.144,4.861 1.574,5.577c.427.858-1.574,1.715-2.005,3.003s-1.859,1.575-2.287.716c-.428-1.002-1.433-.286-.999,1 .428,1.146 1.571.716 1.715,1.288 .145.714-1.002,1.86-1.859,4.148-1.002,2.432-1.86,7.009-2.718,1.574 0,0-1.861.572-2.003-1.86-.145-2.288-.145-5.005-2.146-5.722-1.86-.714-1.86-2.002-.572-3.576 1.285-1.58 4.147-5.44 5.293-5.01z" fill="#a6612a"/>
  <path d="m106.56,189.67c.142-1.288.142-5.008 2.287-4.003 .43.139.145,2.002 1.001,2.429 1.575,1.002 5.008-.857 5.008,1.288-.145,2.144-.999,5.292-3.004,7.151-.144.287-2.86-.572-1.717,1.145 0,.142.715,0 .715,0 .573,3.29-.57,7.296-3.576,9.011 .285-1 .143-2.144-.428-2.86-1.574-2.432-2.146-4.863-3.007-7.151-1-2.72 2.58-4.15 2.72-7.01z" fill="#a6612a"/>
  <path d="m113.86,200.26c.428-1.002.428-2.862 1.571-3.004 2.717-.286 5.147,2.715 5.435,5.15 .145,2.43-.857,8.868-2.432,7.007-3.85-4.87-7.86-2.01-4.57-9.16z" fill="#a6612a"/>
  <path d="m101.27,203.69c.572-1.285.139-2.859 1.716-3.575 0,2.146.854,4.148 2.57,5.722 .716.572.86,1.716.289,2.146-3.004,2.146-3.148,3.434-3.861,7.151-.286,1.288-2.718.858-3.434-.286-1.862-3.72.859-7.58 2.714-11.16z" fill="#a6612a"/>
  <path d="m79.245,199.26c-.287-4.148 3.861-7.438 7.724-7.727 0-.569.43-1.141.572-1.141 3.575,1.857 4.005,7.007 3.575,11.013 2.862-1.144 3.434.142 4.15,2.715 0,.145 1.144.145 1.286.716 .572,2.146-1.146,3.72-1.575,5.722-.572,1.86.716,4.006-.715,5.294-.573.572-2.289,1.572-3.005.142-.713-1.288.289-2.862-1-4.003-.286,1.43-.716,3.862-3.003,2.288-3.003-1.859-.86-5.005-.999-7.44-.145-.855-1.433,1.863-2.291.861-2.719-3.434 2.001-6.008 3.29-9.012-3.146,0-4.435,4.004-6.868,4.719-1.572.42-1-2.58-1.141-4.15z" fill="#a6612a"/>
  <path d="m67.944,207.84c1.288-2.715 5.721-6.149 8.01-4.861 2.718,1.574 1.86,5.005-.143,8.151-.143.144-.858,0-1.002.43-.284,1.43-1.144,2.432-2.001,3.575s-2.432,1.43-2.575,3.148c-2.289-2.87-3.863-7.02-2.289-10.45z" fill="#a6612a"/>
  <path d="m67.084,200.4c2.291-2.004 2.576-6.151 6.294-6.008-.143,1.288-1,2.718 0,3.864 .286.284.859,0 .859.428 0,3.431-5.58,4.004-7.583,7.009-1.572-1.71-1.142-4 .43-5.29z" fill="#a6612a"/>
  <path d="m71.662,220.28c.288-1.574 1.145-2.718 2.719-2.718-.143.573.427.716.715,1.002 .857-1.43-1.144-3.292.715-4.578 .572-.145 1.144,0 1.574.572 1.715-1.144 1.144-3.718 2.86-5.006 1.144-.857 2.718,1.144 2.718,1.86 0,3.004 0,4.003 3.003,5.147-1.572,3.292-4.005,5.15-5.006,9.012-.143.716-.859-1-1.574-1.572-1.001,4.861-6.007,5.578-9.011,2.288-1-1.28 1.001-3.85 1.287-6z" fill="#a6612a"/>
  <path d="m84.537,224.72c0-.858-.858-1.716-.286-2.288 1.86-3.146 4.292-3.29 6.865-1.002 1.718,1.43-.858,2.432-.43,4.148 .144.286.86-.858 1.288.141 .86,2.579-1.43,3.148-3.003,4.581 1.288.572 2.717.284 1.859,2.001-.427,1.002-1.429,1.857-2.004,2.718-.428.713.575,1.574 0,2.288-1.571,2.003-.713,4.005-1.716,5.863-.427.715-1.571-.714-2.716-.428-.143-1.285-.572-2.718-1.288-3.432-2.289-2.718-6.293-5.294-4.578-9.299 .858-2.288 2.432.144 3.29-.428 1.431-.72 3.005-2.86 2.719-4.86z" fill="#a6612a"/>
  <path d="m94.549,226.58c0-4.148 4.576-6.438 7.865-8.868 1.147-.86 2.291-.572 3.29.572 .716-1.432 1.717-2.862 2.004-4.436 .145-.283-1.715,0-1.859-.142-.289-3.434 3.147-6.152 6.008-5.15 1.86.716 2.433,3.721 2.433,6.008 .144,2.146 2.572-.716 2.858-2.146 .145-.428.717-.716 1.288-.572 1.43.144 2.432,2.001 3.861,1.43 1.002-.572 2.003-1.857 3.005-.716 .717.861-1.144,2.435.431,2.862 .999.286 1.574-.858 2.287-1.43-.572-.145-.857-.716-.572-1.144 1.003-1.146 3.004-2.002 3.148-1.288 .716,4.147-1.716,7.725.999,12.157 .431.716.286,2.718-.571,2.576-3.004-.142-7.725,2.146-9.013-1.288-.857.713-1.431,2.718-2.432,1.719-2.146-2.146-5.29-.145-7.437-1.288-.43-.287 1.144-2.002.714-2.146-3.433-1.86-8.01-1.288-11.155,1.716-.428.431.286.858.572,1.288 1.57-1.86 5.29-2.86 5.435-.575s.285,6.582-1.288,7.298c-4.146,2.002-9.727-2.718-13.159,2.715-2.707-2.73 1.298-5.87 1.298-9.16z" fill="#a6612a"/>
  <path d="m141.47,217.28c1.144-3.434 2.287-6.436.999-10.155-.999.713-1.144,2.001-2.146,2.432-1.144.714-2.289,1.288-3.433,1.86-2.146,1-4.006,1.286-3.004,3.859 1.144,3.006 1.144,7.44 3.435,8.44 1.86.72 3.29-3.71 4.15-6.43z" fill="#a6612a"/>
  <path d="m136.46,197.54c.431-1.574 1.002-2.862 2.29-4.006-3.003-1-4.863,1.43-7.725,1.715-4.863.716-6.437-5.721-9.298-8.867-1.574,1.571-.714,3.718-.714,5.58-.716-.145-.432.855-1.002,1 4.862,3.72 7.011,10.155 6.722,16.163 1.002-1.144 2.576-2.29 3.578-1.715 1.285.572 2.432,1.288 3.717.286s1.433-2.718 1.146-3.579c-.58-1.99.71-4.57 1.28-6.57z" fill="#a6612a"/>
  <path d="m103.56,260.05s7.151-3.432 9.153-6.294 10.157-12.587 12.729-15.305c2.435-2.574 5.58-8.296 6.582-11.585 0,0 .716,2.862-2.287,8.154 0,0 2.717-1.144 3.145-2.718 0,0-1.002,2.718-3.003,4.148-2.002,1.574-3.148,2.862-4.864,5.008-1.573,2.287-10.441,13.728-15.447,16.163 0-.01-4.58,2.27-6.01,2.42z" fill="#987b45"/>
  <path d="m112,236.16c1.286,1.43 1.145,2.86 1.717,4.578 .716-.716 2.001-1.288 2.576-1.144 1.998.713.428,2.143-.86,2.718 1.573.855 2.858,3.861 4.291,2.717 3.433-2.435 7.297-5.865 5.007-10.729 .857-.427 1.859-1 2.146-1.715 .145-.287-.428-.431-.857.142-.286-2.002 1.859-5.864-1.003-4.004-5.15,3.288-9.728-2.001-13.73-.716-2.88.99-1.45,5.71.7,8.14z" fill="#a6612a"/>
  <path d="m106.14,242.02c.285.716.141,1.86 1.144,2.29 1.146.428 2.003-.572 2.146-1.285 .429-2.29-.143-5.152-1.86-5.58-2.573-.574-6.578-1.288-8.583,1.288 2.713.86 5.723.01 7.153,3.29z" fill="#a6612a"/>
  <path d="m78.1,250.04c1.715-2.576 2.717-7.44 5.435-6.438 4.006,1.432 7.723,7.726 4.863,11.729-1.86,2.432-6.723,2.29-9.87,1.718-1.574-.289-3.575-4.722-.143-6.01-.43-.15-.43-.58-.285-1z" fill="#a6612a"/>
  <path d="m79.959,262.48c-.715-1.005-1.145-2.146-.145-2.576 3.291-1.716 7.439-4.29 9.585-.858 1.144,1.574 1.715,5.722.286,6.438-2.576,1.286-5.435,2.144-8.297,3.29-.714-2.14.001-4.29-1.429-6.29z" fill="#a6612a"/>
  <path d="m98.698,263.05s1.86-2.001.428-5.721c-1.288-3.576-4.004-7.008-6.151-7.724-2.145-.858 9.014,1.86 8.872,7.295 0,0 3.286-2.717 4.003-10.871 0,0 .427,4.147 0,6.008 0,0 3.147-3.576 3.289-6.008 0,0 0,2.718-.429,3.861 0,0 3.004-3.003 5.152-1.574 0,0-4.009-.57-9.587,8.439 .01,0-2.86,4-5.572,6.29z" fill="#987b45"/>
  <path d="m89.972,245.74c.43.999.572,2.862 1.002,2.862 5.005.572 8.007,5.006 9.295,9.153 1.433-1.144.289-2.718.86-4.006s.717-3.576 2.288-3.862c1.144-.142-.145,2.433.427,2.146 3.293-1.574 1.146-5.15-1.285-6.724-3.003-2.002-5.865-3.146-8.439-5.719-.431-.43-2.146-1.43-2.574-.145-1.003,2.16-2.433,3.87-1.575,6.3z" fill="#a6612a"/>
  <path d="m91.257,253.75v-.999c2.721-.858 6.152,1.43 6.009,4.575-2-.71-6.009-1.14-6.009-3.57z" fill="#a6612a"/>
  <path d="m57.788,222.28c.143-1.86.858-2.717 2.288-2.717 2.29,0 4.292,1.429 7.009.572 .143-.142.716.43.859.857 .858,4.006-.573,7.868.858,11.73 .716,2.004-.286,4.722-1.144,6.438-.716,1.429-4.149.43-4.006,3.575-3.003-1.43-7.438-4.575-5.721-8.726-2.289-.572-3.577-2.432-3.148-4.289 .288-1.43 3.148.427 4.006-.575 1.431-1.99-1.287-4.28-1.001-6.86z" fill="#a6612a"/>
  <path d="m50.207,212.56c-.429-4.575 2.718-7.865 6.867-9.153 1.715-.427 2.574-.144 3.146,1.575 .715-1.289 2.288-.573 3.433-1.002-.858,4.863 3.432,9.727 1.43,13.588-.57,1.002-3.002-1.574-4.433-.857-1.716.714-4.004.142-4.721-1.144-.572-1.002.859-2.29.286-2.717-2.003-1.574-3.863,2.146-5.721,2.573-1.146.43-.145-1.72-.287-2.86z" fill="#a6612a"/>
  <path d="m39.193,216.99c0-5.005 5.006-10.729 8.725-7.438 1.43,1.144-1.86,6.008-1.572,9.728 .286,3.001-4.149,4.72-5.152,8.007-2.716-2.86-2.001-6.87-2.001-10.3z" fill="#a6612a"/>
  <path d="m46.487,223.29c0-.858.574-2.432 1.288-2.718 2.432-.714 3.861-4.434 5.149-3.72 2.861,1.718 4.004,6.865 3.72,10.013-.143,1.574-3.434.572-5.723,0-.429-.141-1.429.145-2.002.716-1.286-1.15-2.432-2.72-2.432-4.29z" fill="#a6612a"/>
  <path d="m46.918,231.73c-.145-.858.57-1.574.429-2.432 4.576-1 5.864,3.003 5.72,6.007 0,1.572-2.432,2.002-3.433,4.006-2.432-1.73-2.432-5.02-2.716-7.59z" fill="#a6612a"/>
  <path d="m73.093,269.49s.143-4.003-2.861-11.729c-1.86-4.722-1.145-19.882-1.145-19.882s-1.717,7.868-1.144,11.873c.429,4.003 1.144,7.007 1.431,8.295l-2.147-1.716s2.147,3.146 3.148,5.436 1.287,7.73 2.718,7.73z" fill="#987b45"/>
  <path d="m52.352,242.74c.573,5.436 4.722,11.158 10.014,12.732 .286,0 .142-2.002.858-2.576 .714-.858 1.715.142 2.002,1.43 .286.857 2.432,2.29 2.718,1.574 2.146-4.433-4.006-7.01-7.868-8.009-1.143-.286-2.288-1.146-2.573-2.288-.858-2.717-.715-5.58-3.148-7.582-.858,1.44-2.289,2.73-2.003,4.73z" fill="#a6612a"/>
  <path d="m40.48,235.73c.429,4.006 2.002,7.726 5.293,9.156 .573.286 4.147-2.432 2.002-3.004-2.432-.572-3.29-3.434-3.147-5.15 .287-3.003-.715-6.435-.715-9.725-.859,1.857-1.145,4.433-3.575,4.719 .142,1.27 0,2.56.142,3.99z" fill="#a6612a"/>
  <path d="m30.181,231.73c-.858,3.432-.286,11.441 4.005,9.012 2.146-1.288 2.719-6.008 2.575-8.728-.143-3.001-.572-6.294-1.145-9.726-.856.858-2.716,2.146-3.431.43-1.861,2.58-1.289,5.87-2.004,9.02z" fill="#a6612a"/>
  <path d="m30.467,252.04c1.287,4.863 6.579,12.015 10.441,8.009 3.291-3.576-1.573-9.87-4.003-14.733-1.574,1.288-2.432,2.291-2.004,4.436-2.432-.86-1.287-5.008-2.859-4.578-2.004.71-2.29,4.42-1.575,6.86z" fill="#a6612a"/>
  <path d="m24.173,242.02c-.429,3.435-.286,6.724 2.433,9.3 .715-2.146 1-4.292 2.146-6.438 .429-1.002.571-2.573.286-3.861-.286-2.146-1.574.142-2.003-.858-1.574-3.435 1.287-7.582.572-11.444-2.432,4.01-2.861,8.58-3.434,13.3z" fill="#a6612a"/>
  <path d="m67.801,193.68c-.143.43.143,1.146.572,1.718 1.288-1.86 2.575-3.72 4.006-5.436-2.289,0-3.863,2.14-4.578,3.72z" fill="#a6612a"/>
  <path d="m57.931,198.4c-.429.575-1.002,1.146-1.572,1.718 2.001.145 4.004.145 6.007,0 1.572,0-.145-2.146.858-3.29 .143-.287.429-.572.714-.858-2.289-.15-4.719.28-6.007,2.43z" fill="#a6612a"/>
  <path d="m43.627,203.69c-.287.428-.573.861-.715,1.289 5.007-.145 7.295-4.864 10.728-7.582-2.718-1.144-6.007.286-6.866,3.29-.142.716-1.144.572-1.858,0-.431,1-.574,2.14-1.289,3z" fill="#a6612a"/>
  <path d="m32.328,210.41c-1.431,3.004-3.862,6.149-2.718,9.584 1.573-2.004.715-5.436 3.719-6.58 .143,1.144-.143,2.432 1.287,3.145 .716-1.86 1.146-3.861 2.719-5.577-1.288-.143-3.147.286-2.288-1.575 1.429-3.003 3.146-5.722 5.293-8.439-4.437.87-6.297,5.87-8.012,9.45z" fill="#a6612a"/>
  <path d="m45.344,250.18c5.149.858 7.867,7.724 13.302,9.298-1.717-4.72-7.009-6.58-8.582-11.158-1.717,1.432-3.433-.286-5.006,0-1.144.14.143,1.72.286,1.86z" fill="#7c491f"/>
  <path d="m71.521,242.17c-.859,1.715 1.287,0 2.861.145-.573,2.717-2.719,5.577-1.002,8.439 2.289-1.863 4.864-4.578 5.006-6.438 .143-4.005-3.146-7.723-3.718-12.303-1.002.575-2.146.575-3.005-.284-1.144,3.85 1.573,6.42-.142,10.43z" fill="#a6612a"/>
  <path d="m71.95,259.76c1,2.288 3.003,4.148 3.432,6.577 1.001-1 1.431-2.717.715-3.432-1.715-2.146-1.572-4.578-2.718-6.865-.858,1.15-2.287,2.15-1.429,3.72z" fill="#a6612a"/>
  <path d="m64.653,246.03c1.288,1.43 3.291,1.146 3.72,3.292 .572-2.004 1.002-4.292-.859-5.439-.43-.14-4.433.43-2.861,2.15z" fill="#a6612a"/>
  <path d="m65.368,261.76c2.291,1.715 4.579,7.293 6.294,4.863 1.288-1.86-2.86-6.582-6.294-6.293-.715,0-.429,1 0,1.43z" fill="#7c491f"/>
  <path d="m75.525,271.06c.429-1.574 1.574-3.292 3.575-3.576-.143,1.857 1.717,3.576.429,5.147-.858,1.146-3.146,2.576-4.004.716-.143-.57-.286-1.43 0-2.29z" fill="#a6612a"/>
  <path d="m81.103,275.07c-.143-.429-.143-1.146 0-1.146 2.862-.858 3.72-2.433 4.863-5.006 .716-2.288 4.292-1.002 4.292.858 0,3.576.572,8.298-2.287,10.586-1.715,1.285-4.292,1.144-6.439-.573-1.717-1.43 0-3.01-.429-4.72z" fill="#a6612a"/>
  <path d="m93.406,263.77c0,1.002-.716,2.29-.289,2.862 .572,1 2.289.284 3.005-.144 2.72-1.43 2.858-5.292-.144-7.01-3.004-1.58-2.716,2.28-2.572,4.29z" fill="#a6612a"/>
  <path d="m91.974,275.5c.144,1.86-1.571,3.432-.716,5.294 2.721-1.718 3.434-5.294 2.862-7.868-.431-1.86-2.288,1-2.146,2.58z" fill="#a6612a"/>
  <path d="m132.31,237.73c-2.146,2.859-1.144,8.725.857,9.009 4.722.716 8.44-6.149 8.87-11.727-.571.713-1.433.857-2.29,1.002 0-1.146.431-2.718 1.002-3.148 2.432-2.29 4.578-5.15 4.003-8.583-3.717,2.576-5.146,6.582-10.297,5.438 1.44,3.29-.14,5.3-2.14,8.01z" fill="#a6612a"/>
  <path d="m118.72,248.03c-1.288,1.574-3.004,2.721-3.717,4.723 5.005,1.715 9.439-5.722 12.587-9.586 0-.14 0-2.144-.716-1.572-2.71,2.29-5.86,3.44-8.15,6.44z" fill="#7c491f"/>
  <path d="m127.02,253.32c.142.716-.431,1.857.427,1.857 2.433.433 4.434-.713 6.579.861 1.146-1.574 1.002-3.576 1.433-5.292-2.718-.288-5.579,1.715-6.724-1.719-1.01,1.29-1.86,2.72-1.72,4.29z" fill="#a6612a"/>
  <path d="m115.43,260.76c.144-1 0-2.288.716-2.862 2.715-2.285 5.291-5.005 8.867-5.863-1.859,3.434 1.433,8.439-1.859,10.014-2.003.999-4.576,1.288-5.723,3.434-1.44-1.29-2.44-2.72-2.01-4.72z" fill="#7c491f"/>
  <path d="m109.57,261.05c.143,1.144-.572,3.29.284,3.003 2.721-.857 3.004-4.72 2.862-7.723-2.43.57-3.43,2.57-3.14,4.72z" fill="#7c491f"/>
  <path d="m127.73,261.48c.431,1.288-2.432,1.574-1.285,3.292 2.432-1.429 5.146,2.144 6.579,0 .999-1.146 1.571-3.575.857-5.293-1.002-2.146-4.433-.286-6.438.43-.13.14.01,1 .29,1.57z" fill="#a6612a"/>
  <path d="m118.72,267.77c.142-1.571 1.858-1.713 2.432-1.142 .572.714-.573,2.288-1.574,2.715-.72.29-.86-.71-.86-1.57z" fill="#a6612a"/>
  <path d="m109.14,272.78c.286,2.002-1.145,5.294.573,5.15 2.573-.144 5.436-2.86 5.149-6.151-.145-1-1.144.43-1.43,0-1.002-2.002 1.574-2.86 1.285-4.575-.142-1.433-2.143-.43-3.003.286-1.44,1.43-3.01,3.29-2.58,5.29z" fill="#7c491f"/>
  <path d="m121.73,271.35c-2.288.858-2.146,3.148-2.718,4.72 3.864-2.288 7.152-.286 10.73-.286 1.856,0 2.717-5.006 2.001-6.294-2.29-3.87-6.15.57-10.01,1.86z" fill="#a6612a"/>
  <path d="m110.14,284.22c.715,3.576 2.861,7.437 5.437,5.008 2.432-2.291-.716-7.154-.144-11.016-1.144,1.574-3.29,1.574-2.432,4.006-1.43.142-2.576-1.43-3.29.283-.15.57.28,1.15.42,1.72z" fill="#7c491f"/>
  <path d="m117.86,282.5c-.145-2.573 2.576-3.717 4.004-2.715 2.147,1.575 2.003,7.438-.429,9.009-.145-.283 0-1-.286-.858-.573.288-.857,1.146-1.43,1.574-.99-2.13-1.56-4.56-1.85-7z" fill="#a6612a"/>
  <path d="m125.3,281.36c-.715,1.43-.857,2.715-.286,4.147 1.716-1.002 3.864-2.291 3.29-4.292-.286-1.002-1.574-1.144-2.287-1.716-.28.57-.42,1.29-.71,1.86z" fill="#a6612a"/>
  <path d="m121.3,293.52c.573,2.143 2.29,1.144 3.292.713s1.287-2.718.856-3.573c-1.572-2.004-3.859.142-5.003,2.001-.01,0 .7.43.85.86z" fill="#a6612a"/>
  <path d="m113.29,295.52c-.713-1.146-1.43-2.862-.43-3.434 1.576-.716 4.149,0 5.579.857 1.716.858 2.859,3.149 3.861,4.862 1.146,2.004-3.434,6.727-4.863,5.294-1.86-1.86-2.58-4.86-4.15-7.58z" fill="#a6612a"/>
  <path d="m111.71,302.82c.716,2.432.144,4.864 1.002,7.007 1.146-2.001 3.861-4.29 2.001-7.007-.427.572-1.144,1.286-1.571.286-.716-1.144 1.43-3.29-.144-3.576-1-.15-1.57,1.85-1.29,3.29z" fill="#a6612a"/>
  <path d="m121.01,307.82c-.571,1.002-1.859,3.434-.289,3.434 3.148-.144 2.434-4.863 2.289-7.726-2,.15-1.14,3.02-2,4.3z" fill="#a6612a"/>
  <path d="m114.14,311.97c1.288-2.146 2.004-6.435 5.148-6.149-1.285,3.576-.285,7.582-3,10.3-.289.286-.86.286-1.146,0-1.42-1-1.85-2.72-1-4.15z" fill="#a6612a"/>
  <path d="m118.29,318.26c-.283,1.004-3.003-.142-1.998,1.004 .999,1 3.572,2.001 4.86.855 1.574-1.43 1.719-6.008-1.43-5.292-1,.29-1,2.15-1.43,3.43z" fill="#a6612a"/>
  <path d="m112.43,344.01c-.145,1.432 1.144,1.718 2.004,2.29 1.571-2.146.142-3.72-1.718-4.003-.71-.15-.28,1-.28,1.71z" fill="#a6612a"/>
  <path d="m118.44,346.01c-.145.431-.428,1.574.572,1.288s2.004-2.717.285-3.148c-.72-.14-.58,1.15-.86,1.86z" fill="#a6612a"/>
  <path d="m79.672,340.72c-.857,1.145 0,3.146.715,3.288 1.431.289 1.574-1 2.719-1.857 .286-.286.143.858.573.716 .858-.288.572-1.432.286-1.718-1.002-1.29-2.862.57-4.293-.43z" fill="#a6612a"/>
  <path d="m74.094,333c.288.86.288,2.434 1.145,2.004 3.433-1.575.143-4.864-.572-7.726-1.288,1.58-1.145,3.87-.573,5.73z" fill="#a6612a"/>
  <path d="m82.391,330.57c-1.002.286-.573,1.144-1.002,1.715 1.288.428 2.719,1.43 4.005,1.144 1.86-.286 2.859-3.289 1.433-4.577-.289-.286-.861,1.002-1.718.145 1.002.144 2.862-2.576 1.146-2.433-.431,0-1.576.286-2.147,1.002 .429.284.429.714.286,1-.429.87-1.002,1.73-2.003,2.02z" fill="#a6612a"/>
  <path d="m82.963,325.99c.143.286 0,.857.429.857 1.86-.286 5.295-2.573 3.291-3.864-1.144-1-3.72-.855-4.722.716-.286.42.859,1.28 1.002,2.28z" fill="#a6612a"/>
  <path d="m78.814,310.97c0,.427-.143,1.572.143,1.43 3.434-1.86 5.722-1.571 8.583.142 .572-2.574.572-5.292 1.146-8.007-3.72.86-10.015,1.15-9.872,6.44z" fill="#a6612a"/>
  <path d="m76.097,301.82c0-1.432-.858-3.292.429-4.008 1.146-.855 1.86.86 2.861,1.574 .573.43 1.431.43 1.431.572 2.003,3.434-.286,6.151-3.432,6.438-1.861.15-1.289-2.72-1.289-4.57z" fill="#a6612a"/>
  <path d="m83.965,297.95c.715,1.002.143,2.574.572,3.004 1.718,1.288 4.005-1.716 3.434-3.72 .855.289.855,1.005 1.285,1.574 1.288-1.715.858-4.147.43-6.007-2.004.858-4.005,1.43-5.864,1.718-.859.3-.859,2.01.143,3.44z" fill="#a6612a"/>
  <path d="m73.808,293.52c.145.713-.429,2.287.286,1.715 2.575-1.858 3.72.716 5.436,1.288 1.574.43.43-2.862.857-4.292-1.858-.428-2.001-3.29-3.718-3.146-.715,0 .572,1.285 0,1.716-1.287.857-1.144-1.572-1.86-1.144-1.43.7-1.144,2.42-1.001,3.85z" fill="#a6612a"/>
  <path d="m79.815,286.79c.716,2.001 2.719,3.434 4.15,4.292 2.429,1.43 6.438-2.718 5.005-5.436-.428-.713-1.571-2.859-3.146-1.715-1.002.713-1.288,1.86-2.719,1.574 1.145-1.86-1.145-2.291-2.003-2.435-1.716-.12-1.857,2.3-1.287,3.73z" fill="#a6612a"/>
  <path d="m76.097,281.5c.429-1.574-.286-2.288-1.43-3.004-.859,1.716-.286,4.003 1.001,5.292 .715-.72.143-1.57.429-2.29z" fill="#a6612a"/>
  <path d="m44.2,270.78c-.144.572-.573,1.144-1.288.286-1.144,1.572.287,2.717.858,4.005 .858,1.43 3.148,2.288 4.292,1.142 4.004-3.575 3.003-8.867-2.432-11.013-.286-.142-.572-1.145-1.001-1.857-.429,1.429-.858,2.146-1.86,3.289-.286.284-1.001,1.858.143,2.002 .287,0 1.002-.145 1.43-.145 0,.7.143,1.56-.142,2.28z" fill="#7c491f"/>
  <path d="m33.042,269.2c-.715,4.005 2.86,5.722 5.579,4.005 1.572-1.002.286-4.722-.287-7.009-.287-1.431-3.72-.714-4.72-3.149-.715,2.01-.286,4.02-.572,6.16z" fill="#a6612a"/>
  <path d="m23.745,264.77c.429,3.001.286,6.721 2.431,9.011 1.002-1.429-1.287-3.148-.141-3.72 1.144-.572 1.429,2.291 2.432,2.146 1-.144.572-2.146.286-2.573-1.002-1.002-2.432-1.863-1.288-3.148 .429-.428 1.144.572 1.717,1.002 1.287-3.435 1.859-8.44-1.431-10.158-1.287-.572.143,2.862-1.001,2.003-2.146-1.288-1.43-3.861-3.576-5.58-1.002,3.72-.001,7.3.571,11.02z" fill="#a6612a"/>
  <path d="m31.899,280.79c-.859-1.002-1.002-2.291-.431-2.718 2.003-1.718 6.58-2.862 6.58.142 0,2.432-2.145,5.15-3.147,7.868-1.715-1.29-1.715-3.58-3.002-5.29z" fill="#a6612a"/>
  <path d="m37.906,286.79c0-2.574.142-7.151 2.861-6.435 1.287.286.858,3.861 2.573,5.721 2.003,1.857.145,4.434-1.573,5.434-1.715.86-4.005-2.14-3.861-4.72z" fill="#a6612a"/>
  <path d="m45.773,282.08c.286,1.574 2.289,2.432 3.146,2.29 1.715-.289 2.717-3.003 2.002-5.293-1.428,1.71-5.863.14-5.148,3z" fill="#7c491f"/>
  <path d="m27.035,281.79c.572,2.001 2.146,3.432 3.862,4.292 .143-2.573-.715-5.292-2.29-7.009-.572-.57-2.001,1.43-1.572,2.72z" fill="#a6612a"/>
  <path d="m32.469,294.81c1.431,2.287 4.722,6.865 5.865,5.291 2.719-3.575-.572-8.009-5.149-8.725-1.859-.29-1.431,2.28-.716,3.43z" fill="#a6612a"/>
  <path d="m43.914,295.52c.715,1.145 2.002,2.144 3.433,2.002 .715-.144 1.144-.857 1.573-1.429 1.429-2.435 1.429-5.866-.286-8.298-2.146,1.571-2.432,3.29-1,5.436-.572.286-.715,1.288-1.287,1.144-.716,0-.716-1.288-1.431-1.43-1.431-.28-1.717,1.44-1.002,2.58z" fill="#a6612a"/>
  <path d="m42.054,300.96c-.143-1.144.143-2.146-.143-3.148 1.859.86 3.004,1.574 4.577,2.718 .859.716-.572,2.146-1.572,2.435-1.146.43-2.434-.14-2.862-2z" fill="#a6612a"/>
  <path d="m37.191,304.53c-.573-.716-2.146-1.288-2.29-.575-.286,1.86 3.291,5.863 5.151,3.004 1.001-1.43-1.86-1-2.861-2.43z" fill="#a6612a"/>
  <path d="m43.627,315.26c-.287-1.144-.715-2.146-1.716-2.574-2.575-1.002-1.288,1.288-2.003,2.862-.429-.43-1.144-.43-1.716-1.001-.144,2.001 1.144,4.289 3.433,4.577 .286,0 .286,1 .715,1.431 1.145-1.58 1.716-3.3 1.287-5.3z" fill="#a6612a"/>
  <path d="m73.093,269.92s-10.299,3.72-20.313-3.576c0,0-.572,8.156-1,15.45-.286,7.295-.858,23.886-.429,26.32 .286,2.285.286,5.863-.572,7.724-.715,2.143-1.431,4.575.143,8.439 1.717,3.861 2.145,7.292 1.717,10.155s0,3.432.427,5.722c.573,2.288 1.431,6.865 1.717,8.582 .145,1.859 1.145,8.153 2.433,13.875s3.146,14.875 3.29,16.734c.286,1.717.859,6.866.859,7.727 0,0 .427,1.285 1,2.859 .715,1.571.858,3.435.715,4.575 0,1.146-.715,5.008-1.001,6.151 0,0 .142,1.574.858,2.86 0,.145 1.144,3.292 1,3.147 .286,1.145.143,2.146.143,3.005 0,.142.858-1.431 1.717-1.86 .714-.286 1.715-.572 3.72,0s2.002.716 2.002.716-.287-1.86-1.431-3.434c-1.002-1.43-1.145-1.858-1.002-3.146 .145-1.429 1.002-4.863 1.288-7.01 .431-2.143 1.001-7.293.858-8.725s-.142-1.716-.142-1.716-1.717-2.719-3.005-9.012c-1.145-6.438-1.574-12.016-1.86-13.159-.143-1.288-1.86-14.591-1.86-15.449-.143-.716-1.43-11.585-1.573-13.159-.143-1.43-.573-6.294-.573-8.295s.431-9.442 1.574-12.016c1.287-2.718 3.289-6.293 3.863-7.582 .572-1.285 3.289-6.724 3.718-10.871 .43-3.291 1.002-4.148 1.145-4.434s.429-4.434.572-6.008c.143-1.288.572-6.435.572-8.87 .145-2.41-.141-5.7-.57-5.7z" fill="#cbb874"/>
  <path d="m62.221,302.67c.431-.428 1.288-1.858 2.432-1.43 .859.43 1.431,1.43.715,2.287-1.144,1.29-4.003.57-3.147-.86z" fill="#7c491f"/>
  <path d="m65.082,293.52c.286-.858 1.431-1.002 1.86-.858 1.002.428.429,1.716-.286,2.146-.429.142-1.288.427-1.574-.286-.143-.29-.143-.72 0-1z" fill="#7c491f"/>
  <path d="m67.371,298.95c-1.144,1.43.573,2.288.716,3.576 1.86-2.86 3.005-5.863 2.575-9.297-2.146,1.15-1.86,3.86-3.291,5.72z" fill="#7c491f"/>
  <path d="m65.941,307.82c.858-.286.858-1.286 1.43-2.002-1.572-1.285-2.289.572-2.573,1.716-.001.57.856.43 1.143.28z" fill="#7c491f"/>
  <path d="m69.087,289.08c0,.572-.857,1 0,1.43 .431-1.146 1.431-.145 1.86-.43 1.145-.855 2.432-3.29 1.288-3.575-1.288-.28-3.003.72-3.148,2.58z" fill="#7c491f"/>
  <path d="m68.087,283.22c1.145-1.429 2.86-.144 4.292-.716 .429,1.574-1.002,2.435-2.003,2.862s-3.148-.85-2.289-2.14z" fill="#7c491f"/>
  <path d="m106.71,253.47c-.857.714-1.285,1.713-2.001,2.574 4.433.427 6.866-3.434 8.296-7.01-3.16-.14-4.3,2.72-6.3,4.44z" fill="#7c491f"/>
  <path d="m48.205,303.1s-1.287,1-2.003.858c-.715-.142-1.144,2.576 0,2.718 1.145.28 2.574.86 2.003-3.58z" fill="#a6612a"/>
  <path d="m47.775,309.11s-1.288,2.573-2.717,1.574c-1.573-1.002-.573,1.716 0,2.573 .572,1.002 1,2.002 2.86,2.146 0,0 .715-2.86-.143-6.29z" fill="#a6612a"/>
  <path d="m38.334,321.41s2.146,3.434 3.291,3.434c1,.141 1,.283 1.144,1.429 .143,1.288 2.003,4.72 1.431,5.292-.573.44-6.152-2.57-5.866-10.15z" fill="#a6612a"/>
  <path d="m43.77,326.56s3.148.43 4.435-3.145 .286-5.439.572-5.722c0,0 .857,2.573 1.431,4.575 .715,2.146 1.573,4.863 1.573,4.863s-1.431-3.29-1.86-3.29c-.572,0 .145,1.574-.572,3.003-.715,1.431-2.287,2.147-1.715,2.862 .572.714 1.287,2.002.143,2.43-1.288.43-3.004-2.718-2.432-3.001 .715-.288 1.717.139 1.717.139s2.001-2.144 1.572-4.861c-.001-.01-2.002,4.57-4.864,2.14z" fill="#987b45"/>
  <path d="m48.347,318.12s-.859.858-1.429.286-1.288,4.576-.431,4.576c.86.14 2.432.28 1.86-4.87z" fill="#a6612a"/>
  <path d="m41.625,335.71c.286-1.144 2.575-1.144 4.005-1.713 .716,2.001 1.431,4.861-1.001,5.433-2.147.43-3.147-2.43-3.004-3.72z" fill="#a6612a"/>
  <path d="m48.347,338.43s.572-2.146 1.717-2.001c1.287.286 1.287,1.002 1.144,2.146 0,1.144.715,3.003-.143,3.432-.858.57-3.003-1.58-2.718-3.58z" fill="#a6612a"/>
  <path d="m46.487,341.87s2.575,2.287 1.86,3.717c-.714,1.289-1.286.716-1.86-.427-.714-1.29-.857-3.29 0-3.29z" fill="#a6612a"/>
  <path d="m80.245,352.59s1.716,1.573 1.287,2.29c-.429.714-1.431,1.43-1.86.571-.286-.859-1-1.717-.857-2.001 .143-.29 1-.86 1.43-.86z" fill="#a6612a"/>
  <path d="m76.668,344.3s1.002,2.429 1.86,2.717c1.001.286 1.001,3.005.716,3.721-.287.714-2.146-.716-2.862-2.435-.714-1.86-.428-4 .286-4z" fill="#a6612a"/>
  <path d="m80.387,347.16s2.291-1.145 2.862-1.575c.573-.286.716.145.573,1.575s0,2.718-1.145,3.147c-1.288.714-2.432,1.003-2.291-.571 .145-1.58.001-2.58.001-2.58z" fill="#a6612a"/>
  <path d="m75.525,350.88s1.43,1.288 1.43,2.287c.144,1.002.43,2.862-.286,2.862-.715,0-1.572-.86-1.572-2.004 .142-1.01.428-3.15.428-3.15z" fill="#a6612a"/>
  <path d="m82.82,338.58c-1.288-.286-4.435-1.574-2.575-2.574 1.287-.572 3.72.573 5.149-.715 0,0-.857,3.145-.857,3.575-.143.27-1.717-.3-1.717-.3z" fill="#a6612a"/>
  <path d="m75.668,337.29c1.572,1.288 2.003,3.29 1.431,4.578-.286.713-1.288,1.001-1.288.43-.143-1.01-.143-5.01-.143-5.01z" fill="#a6612a"/>
  <path d="m75.382,318.26c0-.428 0-1.286.572-.858 1.86,1.146 2.146,3.435 2.432,5.294 .143.716-1.287,0-1.717-.858-1,.572-1.287,1.857-2.287,2.432 0-.431 0-1.002-.288-.858-.857.427-.857-3.006.431-3.864 .428-.42.857-1.28.857-1.28z" fill="#a6612a"/>
  <path d="m87.682,317.12c-2.431-1.718-6.579-.144-9.011-2.146 2.432-2.001 8.297-2.434 9.011,0 .289.86 0,2.15 0,2.15z" fill="#a6612a"/>
  <path d="m87.254,317.98c0-.142-5.293,1.146-8.154.575 0,2.146 1.717,3.29 3.72,3.001 2.719-.15 6.58-.58 4.434-3.58z" fill="#a6612a"/>
  <path d="m73.953,306.25c3.432-2.288 3.002,8.012.286,7.726-.717-.01-.286-7.73-.286-7.73z" fill="#a6612a"/>
  <path d="m67.658,267.77c-3.146,0-6.438-1.571-8.297-4.431 2.719-1.147 4.435.572 6.723,2.146 1.43.85 3.148,2.28 1.574,2.28z" fill="#7c491f"/>
  <path d="m45.487,253.61c.286-1.288 2.86,1.144 3.718,2.287 .859,1.146 6.723,6.724 8.011,7.44 1.144.713 1.573,2.287-1.002,1.572-2.432-.716-4.435-2.002-6.007-3.862s-5.149-5.29-4.72-7.44z" fill="#7c491f"/>
  <path d="m73.093,269.92s-12.587,2.146-19.311-3.145c-8.725-7.008-14.161-19.023-15.019-26.177 0,0-.716,4.864 2.145,10.014 2.861,5.008 4.864,8.868 6.58,11.874 1.574,3.003 4.72,5.289 4.72,10.296s-.857,10.586-1,15.877c-.286,5.294.286,10.014-.286,12.731-.429,2.574-2.289,5.292-2.289,8.01 0,1.433 0,8.154 2.575,14.447 .715,2.432 2.432,5.722 1.717,10.297 0,3.72 5.294,34.188 6.436,35.047 0,0-6.436-29.467-2.001-38.334 2.716-5.436 5.578-16.021 3.146-15.019-4.433,1.86-7.867-1.575-8.869-7.868-.429-2.576-.286-5.15.286-8.44 .716-3.29 1.86-16.451 3.863-18.164 2.002-1.86.716-1.288 4.863-.716 4.29.572 10.872.572 11.873-4.148 1-4.73.571-6.59.571-6.59z" fill="#7f7348"/>
  <path d="m63.938,311.68s-.714-1.86-1.144-1.571c-.429.428-2.432,4.147-2.002,4.863 .573.859.573,1.431.573,1.431s-3.577,4.72-2.719,5.722c1.002.855 2.575,2.001 3.146-.286 .574-2.56.574-7 2.146-10.15z" fill="#a6612a"/>
  <path d="m61.506,326.7s-1.715-.428-1.572,1.288c.142,1.574.286,4.292 1.858,4.863 0,0 .144-4-.286-6.15z" fill="#a6612a"/>
  <path d="m111.14,347.73s2.004.144 2.146.859 .145,3.001-.713,2.86c-.87-.14-2.58-2.15-1.44-3.72z" fill="#a6612a"/>
  <path d="m117.01,349.88s1.002,1.859.858,2.432-2.146,2.146-2.432,1.431c-.29-.58.42-3.72 1.57-3.86z" fill="#a6612a"/>
  <path d="m110.42,329.56s2.004,2.862 2.576,3.432c.716.429.43,3.578-.286,3.434-.858-.145-2.29-1.43-2.431-2.718 0-1.27-.43-4.14.14-4.14z" fill="#a6612a"/>
  <path d="m122.16,323.56s-1.002,1.144-1.859,1.144c-1.144,0 0,1.716 1.43,1.86 1.57.14 2-.86.43-3z" fill="#a6612a"/>
  <path d="m112.57,318.41s1.144-.144 1.288,1.145c.139,1.146 1.715,2.29 1.571,2.718-.145.572-1.288.286-2.288,0-1.43-.44-2-3.16-.57-3.87z" fill="#a6612a"/>
  <path d="m112.14,323.42s1.144.999 1.719,1.285c.571.286-.145,2.002-1.005,1.574-1-.57-2.58-2.14-.72-2.85z" fill="#a6612a"/>
  <path d="m108.85,288.51s2.289,2.288 2.289,3.001c0,.716-.428,1.574.287,2.434s1.429,2.429.429,3.287c-.857.86-1.288,1.718-1.288,1.718s-1.43-4.57-1.72-10.44z" fill="#7c491f"/>
  <path d="m72.521,290.66s.715,21.74.857,24.744-1.572,9.725-1,12.731c.429,3.004 1,6.15 2.146,8.296 0,0 1.144,11.729-.572,22.745-1.86,11.013-2.719,23.028-2.719,25.174 0,0-2.146-3.434-3.29-11.442-1.288-8.013-4.578-34.475-5.149-39.767-.429-5.294-.715-16.593 1.858-21.457 2.718-4.861 6.294-11.441 6.724-15.447 .431-4 1.145-5.57 1.145-5.57z" fill="#fff" stroke="#000" stroke-linecap="round" stroke-linejoin="round" stroke-miterlimit="2.4142" stroke-width=".504"/>
  <path d="m52.639,340.15s1.572,4.434 2.001,9.153c.573,4.72 1.433,8.726 2.289,13.304 1.002,4.434 3.291,14.447 3.577,17.162 .286,2.719.715,7.154.715,7.154s-1.86-2.432-3.002-8.295c-1.29-5.866-3.864-17.023-4.007-20.744-.286-3.718-.858-10.011-1.717-12.157-.858-2.28.144-5.57.144-5.57z" fill="#fff" stroke="#000" stroke-linecap="round" stroke-linejoin="round" stroke-miterlimit="2.4142" stroke-width=".504"/>
  <path d="m62.221,401.37s2.146,1.288 2.146,2.717c0,1.291.145,4.009-1.001,1.574-1.145-2.29-1.145-4.29-1.145-4.29z" fill="#fff" stroke="#000" stroke-linecap="round" stroke-linejoin="round" stroke-miterlimit="2.4142" stroke-width=".504"/>
  <path d="m22.028,251.75s-.715,11.871 2.146,20.74c0,0-1,2.433-1.572,5.292-.429,2.718.286-4.862 0-7.296-.429-3.287-1.146-8.868-1.574-9.295-.001.01.571-8.28 1-9.43z" fill="#987b45"/>
  <path d="m21.456,262.05s.572,1.715.572,2.86c0,1.146-.429,5.438-.429,5.438l-1.429.569 1.286-8.87z" fill="#a6612a"/>
  <path d="m20.169,274.21s1.858,2.432 1,3.434-1.43,1.144-1.43,1.144l.43-4.57z" fill="#a6612a"/>
  <path d="m24.03,272.78-.429-1.715s-1.43.427-1.43,1.429-.573,3.146.715,3.291c.001,0 .716-2.43 1.144-3z" fill="#a6612a"/>
  <path d="m16.593,306.68c-.144,1.571-.287,3.145-.287,3.145-.716.289-.144.289.287,3.006s-2.003,6.722-2.003,6.722c.143-1-.143-2.863-.143-2.863-.143,1.433-3.146,5.439-3.862,6.869-.716,1.571-.43,2.287-1.002,3.289-.572,1.145.716,1.574 2.147,3.862 1.429,2.146.714,6.008.714,6.008-.286-2.716-1.859-4.29-2.718-4.578-.857-.283-1.717-1.144-1.717-1.144-.429,1.574.43,4.436 1.717,6.008s4.721,4.864 6.008,7.723c1.431,3.005.429,6.583.429,6.583-.284-3.578-2.43-5.867-3.575-7.44-1.144-1.572-4.863-4.006-4.863-4.006 .858,1.718 4.72,4.863 5.864,6.582 1.002,1.857 1.002,4.292 1.002,4.292-.429-.716-.858.142-.858.142 .286,5.149-2.146,7.865-2.146,7.865 1.287-7.152-2.576-13.873-5.007-15.733s-4.434-6.293-5.005-7.58c-.574-1.15-1.289-1.43-1.575-5.29s1.716-8.295 3.291-9.583c1.717-1.431 2.86-3.149 2.86-3.149l-2.003.43c.859-2.288 3.146-5.577 4.435-6.865 1.287-1.43 2.289-2.288 2.432-2.86 0-.43-1.288-.43-1.288-.43s1.432-1.433 3.721-3.862c1.285-1.59 3.287.85 3.145,2.85z" fill="#291c11"/>
  <path d="m52.352,413.67c.429-1.574 4.007-4.723 6.008-4.293s1.574.287 2.146,0c.715-.286 2.575-.43 3.718,1 1.002,1.433 2.289,4.15 2.289,5.438-.286,1.286-1,3.146-4.005,3.576-1.287.142-1.715.427-2.145.571-.572.142-1.288.142-2.432-.286-1.144-.285-5.006-.86-5.437-2.861-.428-1.86-.714-1.15-.142-3.15z" fill="#7f7f7f"/>
  <path d="m71.95,416.67s0-.572 1.572-1.43c1.431-.714 4.863-2.43 6.438-1.716 1,.428 1.287.145 1.715-.142 .43-.145 3.864-.145 4.436,1.43 .858,1.573 2.715,5.291 1.86,6.579-.716,1.433-1.86,2.862-3.863,3.29-2.147.286-4.579-.858-6.437-1.285-1.717-.433-4.149-.572-4.864-2.576l-.715-2.005s-.285-1.72-.142-2.15z" fill="#7f7f7f"/>
  <path d="m64.224,409.95s.858-2.574 3.29-2.433c2.29.142 3.863,1.146 3.863,1.146s.859,3.287.573,4.72c-.288,1.574-.288,2.715-.288,2.715s-1.858-.571-4.863-.571-.572-3.43-2.575-5.58z" fill="#7f7f7f"/>
  <path d="m53.211,412.24c.714-.573 1.86-1.719 1.86-1.719s-.716,1.002-.288,1.288c.43.431.43.857 0,1.86-.429.857.288,2.146-.143,2.861-.286.714.431,2.285 1.002,2.574 0,0-2.718-.572-3.003-1.86-.431-1.42-1.288-3.14.572-5z" fill="#4d4d4d"/>
  <path d="m58.933,409.67s-.144.142 0,.857c.142.716.286,6.294.858,7.868 .572,1.429.429,1.715.715,1.573s.286-1.002.286-2.29c-.143-1.286-.143-4.575-.429-5.577s-.287-1.719-.287-2.002c0-.29-1.001-.29-1.143-.43z" fill="#4d4d4d"/>
  <path d="m62.652,409.38s1.144-.144 2.146,1.86c1.001,2.146 2.287,3.721 1.573,5.578-.716,1.718-2.432,2.29-2.861,2.29 0,0 1.288-1.002 1.144-1.86s-.857-1.288-.857-2.146c-.143-.713.286-1.859-.143-2.717-.288-.86-1.002-2.14-1.002-3z" fill="#4d4d4d"/>
  <path d="m75.382,414.39s-3.432,1.43-3.432,2.285 .429,4.291 1.572,5.294c1.002.86 4.149,1.716 5.723,2.002 1.715.43-.859-1.142-1.86-1.717-1.002-.427-1.288-.427-1.002-1.288 .286-.713 0-.713-.715-1.285-.715-.716-1.001-.571-.715-1.287 .429-.858.715-1.145 0-1.574-.572-.58-.429-2 .429-2.43z" fill="#4d4d4d"/>
  <path d="m79.245,413.53s.856.716 2.287,4.147c1.288,3.148 2.433,6.151 2.003,6.438-.572.285-.429.857 1.288.285 1.002-.285.858-2.004.572-2.861-.286-.714.286-.573-.715-1-1-.286.715-1.002-.286-1.574l-1.145-.428s.859-.288-.143-1.718c-1.145-1.288-.715-1.717-.429-2.146 .286-.572.714-1.144.714-1.144s-1.287-.286-1.574-.142c-.286.286-1.001.427-1.287.286-.143-.01-1.001-.44-1.285-.15z" fill="#4d4d4d"/>
  <path d="m64.224,409.95s.858-2.291 2.432-2.433c1.717-.142 1.574.142 1.574.142s-1.574.288-1.574,1.146c.143.858.858,1 .858,1.716s-1.001,1.002 0,1.86c.716.857.716,1.288 1.145,1.859 .573.717 3.003,1.144 3.003,1.144v.714s-3.003-.571-4.863-.571c0,0-1.145-4.29-2.575-5.58z" fill="#4d4d4d"/>
  <path d="m111.57,414.96c-.144.857 0,3.287 3.434,4.86 3.575,1.433 8.866,1.288 10.438,1.144 1.433-.282 4.009-.427 3.148-3.289-.714-2.859-2.288-6.149-4.005-7.723-1.715-1.717-2.719-1.431-3.003-1.431-.289,0-.861.714-.861,1.286s-.857.859-2.001,1.002c-1.144,0-2.001.43-2.862,1.288-.713.857-2.429,1.43-3.145,1.574-.86.29-1.15.86-1.15,1.29z" fill="#7f7f7f"/>
  <path d="m116.72,411.52s-2.005,2.002-1.003,2.573c1.003.431 2.29.861 1.288,1.719-1.002.855-.574,1.857.714,2.146 1.288.284-.142,1.716 1.288,2.144 1.572.431 2.146.857 2.146.857s-4.147-.282-6.148-1.285-3.577-2.004-3.577-4.149c0-1.431 1.001-1.717 1.429-1.857 .28-.14 3-1 3.86-2.15z" fill="#4d4d4d"/>
  <path d="m119.87,410.67s1.288,0 2.29,1.857 4.721,6.294 5.151,6.725c.571.43.285,1.144.285,1.144s1.716-.428 1-2.718-.142-.286-1-.714c-.86-.288-1.288-.86-1.288-1.718 .145-.855 0-1.571-1.002-1.857-1.002-.145-1.144-.431-1.002-1.433 .145-.857-.284-1.144-1.288-1.43-1.144-.283-1.717-1.716-1.286-2.002 0,0-.431-.145-.858.857-.29,1.13-.43,1.13-1,1.28z" fill="#4d4d4d"/>
  <path d="m50.635,394.5s.716,1.86 2.432,1.718c1.717-.285 2.29,2.433.287,5.581 0,0 .715-1.574.143-2.435-.572-.99-2.146-2.14-2.862-4.86z" fill="#987b45"/>
  <path d="m56.788,389.93s-.143,2.432-.715,2.862-1.145,1.43.715,1.285c1.715-.01 1.858-1.29 0-4.15z" fill="#987b45"/>
  <path d="m62.938,394.36s-.286,2.718-1.86,1.288c-1.43-1.43-1.572-.431-1.144,1.145 .429,1.573.858,4.433 1.572,4.719 0-.01 1.575-4.87 1.432-7.16z" fill="#987b45"/>
  <path d="m53.066,407.66s1.002.145 2.004-1.141 2.432-1.574 1.288-.289c-1.146,1.288-3.005,2.718-3.579,4.864 .001.01.146-2.57.287-3.43z" fill="#987b45"/>
  <path d="m69.232,402.66s1.86,1.146 3.003,0c1.144-1.288 1.43-.855.858.857-.429,1.719-1.001,3.578-.858,5.722 0,0-1.002-3.287-1.717-4.289-.714-.87-1.431-1.29-1.286-2.29z" fill="#987b45"/>
  <path d="m79.529,396.65s0,2.861.143,3.72 .573,2.432-1.144,1.859c-1.574-.427-3.003.429-2.575-.716 .43-1.14 3.292-1.57 3.576-4.86z" fill="#987b45"/>
  <path d="m84.108,411.52s-1.86-1.002-4.007-.571-2.001.571-2.573.715c-.429.143-1.002-.144 0-.573 .857-.429 3.003-1.144 4.433-.855 1.288.427 1.002-.433 1.002-.433s.429,1.29 1.145,1.71z" fill="#987b45"/>
  <path d="m106.56,401.23s1.716,1.146 2.859,0c1.001-1.144 1.431-.572 1.431.431-.142,1-.857,3.432-1.717,4.292 0,0 .144-1.288-.286-1.863-.42-.72-2.13-1.43-2.28-2.86z" fill="#987b45"/>
  <path d="m118.72,399.22s-.431,1.146-1.002-.139c-.572-1.146-1.144-.431-.999.713 .141,1.288.571,4.006 1.715,4.864 0,0-.428-.858-.286-1.574 0-.71.57-3.14.57-3.86z" fill="#987b45"/>
  <path d="m116.43,390.21s-.855,3.861-.428,4.719c.428,1.003.572,1.145 1.288,1.288 .716.286 1.288.858.716-.144-.43-1.01-1.72-2.72-1.58-5.87z" fill="#987b45"/>
  <path d="m108.57,388.64s.715,2.288 1.718-1.144c1.144-3.576 1.144-5.437 1.429-5.437 .43,0 0,5.866-1.288,8.44s-3.004,4.291-3.004,4.291 1.28-2.72 1.14-6.15z" fill="#987b45"/>
  <path d="m109.71,411.95s.714,1.433 2.146,1.859c.428.143.717-.141 1.145-.285 .571-.142 2.287-.858 3.292-1.858s2.143-.859 2.715-1.002c.716-.144 1.433,0 1.715-1.288 .431-1.144 1.003-1.002 1.146-1.002 0,0-1.001-.283-1.001-.716 0,0-.145,1.005-.857,1.005-.717-.145-1.146-.572-1.146-.145-.283.286.145.857.574.857 .572,0 .428.573-.43.573-1,0-2.002-.145-3.004.715-.857.858-1.859,2.288-3.431,2.146s-2.72-.57-2.86-.86z" fill="#987b45"/>
  <path d="m72.092,413.53s-.43,2.718-.286,2.718c.286,0 .286-.286 1-.716s3.861-2.002 5.006-2.144c1.287-.145 1.858,0 2.288,0 .43.286.716.286 1.288.142s1.002-.286 1.86-.142c1.002,0 2.717.569 2.862,1.285 0,0-.145-1.43-.716-2.287 0,0 .286.857-.715.716-.857-.145-2.719-.431-3.577-.431-.858.145-1.144.145-1.858,0-.716-.285-2.146,0-3.72.717-1.43.56-3.146,2.56-3.432.13z" fill="#987b45"/>
  <path d="m71.233,407.66s-1.001-1.141-2.432-1.141c-1.288,0-1.431-.717-.429-.717 1.002-.145 2.146,0 2.146,0s.574,1.43.715,1.86z" fill="#987b45"/>
  <path d="m63.938,397.79s.715,1.291 1.43.289c.859-1.003 1.574-2.291 2.003-2.005 .573.144.859.286-.286,2.29-1.144,1.86-2.002,3.718-2.002,3.718s.144-.858-.285-1.571c-.431-.72-1.432-.72-.86-2.73z" fill="#987b45"/>
  <path d="m71.376,388.92s1.002.572 1.288-1c.143-1.574.143-2.862.572-2.432 .572.286.143,4.575-1.001,6.58s-1.574,4.289-1.574,4.289 .431-5.58.715-7.44z" fill="#987b45"/>
  <path d="m61.506,365.9c-.572.717-4.577-16.734-3.861-18.595 .715-1.72 4.576,17.74 3.861,18.6z" fill="#987b45"/>
  <path d="m50.922,289.08s-.573,5.147-1.288,8.295c-.714,3.146-1.144,8.725-1.144,10.869 0,0 1.574-5.002 2.145-6.149 .573-1.14.43-10.44.287-13.02z" fill="#fff" stroke="#000" stroke-linecap="round" stroke-linejoin="round" stroke-miterlimit="2.4142" stroke-width=".504"/>
  <path d="m52.352 272.35s-1.144 13.445-1.43 17.018" fill="none" stroke="#000" stroke-linecap="round" stroke-linejoin="round" stroke-miterlimit="2.4142" stroke-width=".504"/>
  <path d="m48.633,308.11s-.286,6.722 1.145,12.013c1.573,5.149 3.288,8.726 2.861,12.304-.288,3.718 0,7.723 0,7.723" fill="none" stroke="#000" stroke-linecap="round" stroke-linejoin="round" stroke-miterlimit="2.4142" stroke-width=".504"/>
  <path d="m61.078,386.92s1.574,3.29 1.86,4.292 .429,3.575-.143,6.005c-.573,2.576-.859,3.576-.573,4.148" fill="none" stroke="#000" stroke-linecap="round" stroke-linejoin="round" stroke-miterlimit="2.4142" stroke-width=".504"/>
  <path d="m63.938,406.52s.286,2.146.286,3.146" fill="none" stroke="#000" stroke-linecap="round" stroke-linejoin="round" stroke-miterlimit="2.4142" stroke-width=".504"/>
  <path d="m71.092,384.35s.142,3.576-.286,7.294c-.574,3.72-1.574,8.439-1.719,9.583-.143,1.002-.286,2.146.431,3.004 .714.858 1.858,2.718 2.144,5.437 .145,2.576.43,4.146 0,6.435" fill="none" stroke="#000" stroke-linecap="round" stroke-linejoin="round" stroke-miterlimit="2.4142" stroke-width=".504"/>
  <path d="m72.521,290.8 .857-8.298c.286-2.859.715-9.869 0-12.015" fill="none" stroke="#000" stroke-linecap="round" stroke-linejoin="round" stroke-miterlimit="2.4142" stroke-width=".504"/>
  <path d="m123.44,326.56s0,2.576-2.862,3.29c-2.86.572-6.863,1.002-6.58-.286 .433-1.431 2.432-.572 2.721-.428 .427.139 1.144-.86-.145-1.146-1.43-.145-3.29-1-3.432-.428s-.86,2.718.142,3.146c1.146.43 5.722.857 6.724.43s2.574,0 1.144.858c-1.288.714-4.006,1.288-5.149.857-.999-.286-.857-.857-1.43-.857-.574.142-.713,1.716 1.002,1.716h2.859s-.428.572-2.143.572c-1.719,0 .139,1.146 2.143.716 1.86-.572 3.148-2.146 3.72-1.86 .429.286-.145,2.29-1.433,2.574-1.285.288-.427,1.288.717.716 1-.428 1.145.286.716,1.285-.287.861-.571,2.576-3.575,3.149s-1.574,1.144 0,.715c1.43-.43 2.859-1.002 2.859,0 0,0 1.145-2.718 1.572-4.292s.287-5.15.431-7.007 0-3.72 0-3.72z" fill="#987b45"/>
  <path d="m86.969,332.71s-1.002,1.146-3.004,1.002c-1.002,0-1.145.858-3.291.716-2.146-.288-1.145.858.286.714 1.574-.142 2.719-.572 3.434-.714 .715-.144 1.572-.288 1.572.286 0-.01.861-1.44 1.003-2.01z" fill="#987b45"/>
  <path d="m75.811,326.27s.714-.144 1.429.286c.715.572 2.289,1.002 3.005.858 .858,0 .715,1.288-.716,1.002-1.429-.43-3.861-.86-3.718-2.15z" fill="#987b45"/>
  <path d="m125.73,89.543s0,5.722-.145,7.154-.857,4.863-1.001,7.293c0,2.004-1.002,8.153-1.575,11.871s-1.428,8.728-2.432,13.02c-1.143,4.147-3.288,10.441-5.434,14.445-2.002,4.147-1.716,4.436-1.716,4.436s-2.576,3.003-3.862,4.575c-1.144,1.718-1.575,1.86-2.862,3.004-1.285,1.288-5.149,3.72-6.579,4.147-1.573.431-5.293,1.718-7.438,3.434 0,0 1.572-3.576 2.576-4.864 .999-1.144 2.716-2.574 4.004-3.576 1.288-1.144 5.291-5.58 6.724-5.58s2.716.572 3.003-.57c.285-1.144.856-1.433 1.717-2.146 .715-.86 2.144-2.146 4.003-7.726 1.716-5.433 3.72-11.443 4.147-12.587 .43-.999.574-2.429.574-3.859 0-1.29.572-4.008 1.003-5.293 .427-1.145.713-1.86.713-4.007 .142-2.146.572-4.147 1.431-7.579 .87-3.28 3.31-12.859 3.16-15.577z" fill="#8d4a22"/>
  <path d="m132.88,27.323s4.437.142 5.008,1.286c.429,1.144-.431,1.718-1.433,5.866s-2.718,12.157-3.431,14.447c-.572,2.146-1.859,5.721-2.576,10.441-.571,4.72-2.001,16.163-2.718,20.167-.857,3.864-2.001,9.3-2.001,9.3s2.001-6.722 1.574-15.735c-.431-5.436-.717-14.447 0-16.594 .571-2.146 0-2.429.141-3.432 .286-1.144 1.003-7.437 1.574-11.157 .572-3.576.572-5.292 1.002-5.864 1-1.146.572-2.72 1-3.004 1.002-.572 0-1.86 1.144-2.434 1.73-.999.31-3.287.73-3.287z" fill="#8d4a22"/>
  <path d="m138.46,18.023s1.002,3.007 2.005,3.148c.857.145 1.573-2.432 1.573-3.576 .01.001-1.99-1.002-3.57.428z" fill="#8d4a22"/>
  <path d="m132.03,53.212s-.572,2.862.857,3.578c1.288.857.145,1.43-.428,2.573s-2.432,5.722-2.432,5.722 1.14-9.869 2-11.873z" fill="#a6612a"/>
  <path d="m129.45,69.233s.142,4.292.999,5.292c.717,1.146.717,1.86-.142,3.292-1.002,1.571-3.147,5.577-3.147,5.577s2.15-11.158 2.29-14.161z" fill="#a6612a"/>
  <path d="m135.6,39.338s.571,4.148 1.431,5.006 .429,1.432-.143,2.432c-.431,1.001-1.288,6.293-1.288,7.295-.142,1-.286-.431-1.002-1.288-.714-.858-2.002-1.288-1.571-2.576 .28-1.285 2.14-10.297 2.57-10.869z" fill="#a6612a"/>
  <path d="m138.18,47.49c-.57,1.574-1.572,7.154-.143,8.729 1.431,1.429 3.149,3.859 3.149,5.292 .142,1.285 1.144,1.43 1.144-1.861s1.43-3.431.142-5.865c-1.29-2.289-4.29-6.436-4.29-6.295z" fill="#a6612a"/>
  <path d="m145.62,61.365c-1.144.286-1.288,2.432-.43,3.864 .716,1.285 1.574,3.146 3.289,2.43 1.719-.858 1.144-2.002 2.005-3.432 .857-1.288 2.144-1.86 2.574-4.006 .428-2.002-.859-1.145-2.147-.573-1.14.574-3.86,1.431-5.28,1.717z" fill="#8d5324"/>
  <path d="m141.9,39.767s1.43,2.001 1.719,3.575c.286,1.719-.716,4.72-1.719,2.574-1.01-2.144-.72-5.434 0-6.149z" fill="#a6612a"/>
  <path d="m153.77,39.338c.714,1.43 1.144,2.86 2.859,3.576s.717,2.001 2.573,2.862c1.719.856 6.438,2.43 7.439,6.433 .429,2.291-.143,2.434-1.43.574-1.146-1.715-1.718-2.004-3.006-2.004-1.285,0-1,.716-6.721-1.715-5.723-2.288-9.87-5.006-11.729-8.726-1.86-3.576-4.721-1.43-4.434-6.149 .142-4.72.286-6.008-2.433-6.866s-6.579-1.432-6.579-1.432 6.293-.428 8.296-.428-1.717-7.151-1.861-8.581c0,0 2.147,4.861 3.722,4.861 1.429,0 4.146.861 3.86,2.432-.427,1.574-.141,5.006 2.573,4.864 2.862-.142 4.579-3.576 7.297,0 2.576,3.434 1.288,4.29 2.29,5.436 .999,1.288.428,1.86-.716,2.287-1.14.286-2,2.576-2,2.576z" fill="#feebac"/>
  <path d="m145.76,43.056s-.142-1.86.572-1.715c.571.144 2.004,2.432 1.859,3.003-.285.716-.857,2.574-.857,2.574s-5-4.003-1.57-3.862z" fill="#a6612a"/>
  <path d="m166.78,59.077s-2.288-2.146-5.578-2.576c-1.002-.141-3.575.572-6.007,1.288-2.29.714 1.288-.427.428-1.288s-.714-2.573-3.004-2.429c-2.288,0-6.008-1.718-6.722-3.148-.571-1.43 2.859,1.86 4.719,2.002s3.149,0 3.149,0-1.575-2.146-3.29-3.146c-1.719-.858-2.576-3.576-2.291-4.579 .145-.999.858,2.002 1.719,2.86s2.145,2.576 2.001.575 .431.858 1.146,2.001c.716,1 2.432,3.146 3.861,3.862 1.43.43 4.147,1.144 4.433,1.144 .431-.142-.999-1.144-1.573-1.86-.428-.572 1.288-.284 3.147,1.146s4.007,3.145 4.007,3.145l-.16,1.003z" fill="#a58d54"/>
  <path d="m153.91,48.636s-2.432-2.432-1.572-3.862c.856-1.576 1.858-1.86 2.431-.43 .71,1.572-.86,3.005-.86,4.292z" fill="#a6612a"/>
  <path d="m148.19,50.208s-1.002-1.571-2.287-2.43c-1.146-.86-2.287-.574-1.574,1 .57,1.43 3.15,1.288 3.86,1.43z" fill="#a6612a"/>
  <path d="m152.48,53.784s-2.573-.858-2.573-2.146c0-1.43-1.146-3.717.857-2.288 2,1.574 1.71,4.434 1.71,4.434z" fill="#a6612a"/>
  <path d="m146.33,53.212s1.433.144 2.146.86c.572.714 1.433-.144 1.433-.144s2.432,1.288 2.287,2.001c-.29.717-4.44,1.144-5.87-2.717z" fill="#a6612a"/>
  <path d="m156.06,47.92s2.287,1.429.285,3.003c-2,1.431-1.71-2.287-.28-3.003z" fill="#a6612a"/>
  <path d="m158.2,51.496c.571,0 2.859.142 3.431-.716 .431-.999 2.005,2.433 2.005,2.433s-.431,2.29-1.574,2.004-1.574-1.144-2.576-1.144c-1-.145-2.29-2.577-1.29-2.577z" fill="#a6612a"/>
  <path d="m155.2,53.355s3.004,1.716 2.287,2.718c-.857,1-4.719,1.715-4.433.145 .42-1.432 2.14-2.863 2.14-2.863z" fill="#955826"/>
  <path d="m166.93,57.503c.572-1.574-.573-2.288 1.716-2.146 2.287,0 5.577.572 6.724,1.574 .999,1 2.001.572 2.146-.286 .286-.857.571-2.146 2.001-2.29 0,0 .859,2.435 1.146,3.576 .428,1.004 1.002,3.72.428,5.435-.428,1.718-.856,2.29-2.288,2.72s-.858.428-2.146,1c-1.285.43-5.146,1.288-6.148-.716-1.003-2.144-1.43-4.148-2.433-4.72-1.144-.572-1.288-1.43-1.288-2.288-.01-.998.14-1.859.14-1.859z" fill="#ad7726"/>
  <path d="m138.32,22.459s-2.003-3.862-4.435-6.149c-2.29-2.291-2.573-2.146-2.573-2.146s1.285,2.002.428,2.146-.716-.433-2.287-1.002c-1.433-.572-3.292-1.288-5.437-2.576-2.147-1.43-4.15-1.716-5.294-1.574s-2.429.43-.572,1.718c3.719,2.574.572,3.002 2.573,4.006 3.864,1.857.145,2.287 2.72,2.86 2.432.572 5.579,1.574 5.865,2.146 .145.428-1.144.716.145,1.43 1.285.572 2.429,1.144 4.003.286 1.59-.717 2.88-1.716 4.88-1.145z" fill="#987b45"/>
  <path d="m139.32,9.872s2.146,0 3.432,2.146c1.146,2.002 1.573,7.151.43,8.01-1.429,1.288-2.001,1.144-2.001,1.144s1.144-2.002 1.285-3.862c.01-1.716.01-5.722-3.14-7.438z" fill="#987b45"/>
  <path d="m148.05,8.298s2.287.716 2.717,2.146 2.003,5.434-1.002,6.007c0,0 .717-.43.431-2.576-.15-2.145-.58-3.287-2.15-5.577z" fill="#987b45"/>
  <path d="m161.63,22.029s.86-2.144.86-4.29 2.573-4.292 4.435-5.008c2.146-.714 2.432-1.002 2.288.286s-.858,3.864-1.145,6.438c-.285,2.715-.857,5.005-3.005,6.293 .01.001-1.14-1.859-3.43-3.719z" fill="#987b45"/>
  <path d="m177.22,52.498s-1.715-1.86-4.003-2.573c-.716-.289-1.573-.575-2.432-.716-3.147-.286-4.291-1.43-6.866-6.152-1.43-2.432-2.718-4.578-3.72-6.008s-1.715-2.287-2.146-2.859c-.572-.716 0-2.574-1.571-4.864-1.574-2.146-3.006-3.146-4.864-3.146-.717.143-1.288-.144-2.146-.716-1.288-.713-2.576-2.004-3.575-2.717-1.574-1.288-1.574-2.718.286-3.29 1.86-.43 3.575-1.433 3.861-2.004 .145-.428 1.145-.714 2.003-.428 .716.143 1.859.286 2.861.428 .572.144 1.288.144 1.574.288 1.285.572 4.147,3.718 6.293,6.721 .428.428.858,1.002 1.144,1.43 1.858,2.432 3.005,4.006 3.577,5.008 .286.572.428,1.144.571,2.002 0,.716.142,1.574.428,2.432 1.146,3.003 3.148,6.865 8.153,13.159 .145.144.285.43.43.572 1.3,2.003.15,3.433.15,3.433z" fill="#f1d275"/>
  <path d="m176.8,51.926s-1.716-1.718-3.861-2.29c-.575-.142-1.43-.572-2.146-.858-2.576-.716-3.861-2.574-6.294-6.58-1.288-2.288-2.432-4.148-3.575-5.577-1.002-1.288-1.574-2.146-2.002-2.718-.716-1.146-.574-2.718-1.859-4.578-1.433-1.86-2.718-3.003-4.579-3.434-.572-.142-1.144-.428-1.86-.858-1.288-.715-2.572-1.715-3.575-2.429-1.573-1.146-2.001-2.435-.145-3.148 1.719-.43 3.148-1.288 3.72-1.716 .43-.43 1.288-.574 2.147-.43 .714.142 1.716.43 2.573.714 .572.145 1.002.288 1.288.574 1.288.714 3.146,2.718 5.005,4.861 .431.43 1.146.716 1.433,1.291 .428.427.428,1.141.857,1.572 1.43,2.287 2.145,3.72 2.86,5.149 .145.428.286,1.002.572,1.716 .145.716.286,1.43.716,2.288 1.43,3.147 4.006,7.724 7.867,12.587 .286.289.428.431.572.716 1.14,1.718.28,3.148.28,3.148z" fill="#e5bf5c"/>
  <path d="m176.37,51.354s-1.574-1.718-3.717-2.004c-.572-.142-1.288-.427-2.005-1.144-2.001-1.144-3.431-3.432-5.434-6.865-1.288-2.002-2.576-4.004-3.578-5.292-.857-1.002-1.43-2.004-2.001-2.72-.714-1.144-.858-2.574-2.002-4.148s-2.432-2.859-4.149-3.575c-.572-.286-1.143-.573-1.716-1-1.286-.716-2.719-1.574-3.718-2.29-1.574-.858-2.146-2.001-.286-2.859 1.43-.572 2.718-1.288 3.575-1.575 .571-.286 1.286-.43 2.145-.286 .716.286 1.432.572 2.29,1.002 .43.286.716.428 1.144.714 1.002.858 2.573,2.291 4.006,3.864 .427.428 1.573.858 1.859,1.285 .714.572 0,1.145.286,1.43 .286.431 1.43.716 1.716,1.144 1.145,1.862.285,3.006 1.145,4.864 .286.43.429,1.002.715,1.718 .287.428.573,1.144.859,1.857 1.859,3.434 5.005,8.728 7.867,12.303 .285.143.427.428.427.573 1.28,1.574.57,3.004.57,3.004z" fill="#d8a944"/>
  <path d="m152.77,24.175c-2.719-1.715-7.296-3.003-4.293-4.719s5.723-2.29 7.727-.287c.858,1 2.433,2.433 3.861,3.862 .428.572 2.144.572 2.432,1.286 .572.86 0,1.432.286,1.862s1.43.284 1.571.714c1.289,2.432-.428,3.861 1.717,7.01 2.004,3.145 7.153,11.873 9.155,14.017 1.288,1.429.857,2.859.857,2.859s-1.716-1.715-3.72-1.715-6.721-9.442-10.011-13.589c-3.31-4.004-3.6-7.579-9.6-11.3z" fill="#cc972e"/>
  <path d="m138.75,9.3s-2.717-1.146-2.717-4.148c.141-2.862.427-4.577.713-4.722 .287-.142 2.29.145 3.291,1.002 1.146.858 1.859.858 3.434,4.576 0,0-1.144-1-2.001-.428-.717.572-1.574.144-2.29.858-.71.86-.71,2.005-.42,2.862z" fill="#291c11"/>
  <path d="m147.76,7.871s-2.29-1.719-1.86-3.579c.286-1.574.286-3.432 1.43-3.717 1.288-.286 3.148.569 4.006,1.144 1.002.716 1.717,1.715 2.145,4.148 0,0-1.716-1.43-3.002-1.145-2.72.859-2.43,2.576-2.72,3.149z" fill="#291c11"/>
  <path d="m143.18,5.581c-1.288-.716-1.859,0-2.432.144-.716,0-1.288.284-2.003.858-.573.715-.287,2.432-.287,2.432" fill="none" stroke="#3d2a19" stroke-linejoin="round" stroke-miterlimit="2.4142" stroke-width="1.008"/>
  <path d="m153.48,5.581s-1.001-1.43-3.433-.858c-2.432.714-2.287,2.86-2.287,2.86" fill="none" stroke="#3d2a19" stroke-linejoin="round" stroke-miterlimit="2.4142" stroke-width="1.008"/>
  <path d="m143.32,6.008c-.713-.572-1.43-.428-1.856-.284-.145.142-.286.142-.431.142-.716.142-1.43.43-2.003,1.002s-.429,2.288-.429,2.288" fill="none" stroke="#5d4529" stroke-linejoin="round" stroke-miterlimit="2.4142" stroke-width="1.008"/>
  <path d="m143.47,6.438c-.716-.572-1.288-.43-1.715-.43-.145,0-.286.144-.431.144-.717.145-1.43.431-2.002.858-.716.572-.573,2.29-.573,2.29" fill="none" stroke="#81663d" stroke-linejoin="round" stroke-miterlimit="2.4142" stroke-width="1.008"/>
  <path d="m143.61,6.725c-.431-.572-1.146-.428-1.574-.428-.145,0-.285,0-.571.142-.575,0-1.288.43-1.86.716 0,.144 0,.144-.145.144-.715.428-.571,2.144-.571,2.144" fill="none" stroke="#a98b55" stroke-linejoin="round" stroke-miterlimit="2.4142" stroke-width="1.008"/>
  <path d="m143.76,7.01c-.431-.572-1.144-.427-1.43-.427h-.571c-.572.142-1.288.427-1.86.854h-.145c-.715.434-.715,2.146-.715,2.146" fill="none" stroke="#d1b571" stroke-linejoin="round" stroke-miterlimit="2.4142" stroke-width="1.008"/>
  <path d="m153.48,5.867s-1.001-1.288-3.146-.714c-.142,0-.286.143-.428.143-2.004.572-2.004,2.432-2.004,2.432" fill="none" stroke="#5d4529" stroke-linejoin="round" stroke-miterlimit="2.4142" stroke-width="1.008"/>
  <path d="m153.48,6.297c0-.289-1.001-1.145-3.002-.86-.145,0-.286.144-.431.144-1.86.572-2.001,2.291-2.001,2.291" fill="none" stroke="#81663d" stroke-linejoin="round" stroke-miterlimit="2.4142" stroke-width="1.008"/>
  <path d="m153.62,6.583c-.145-.286-1.146-1.002-3.006-.716h-.285c-1.86.43-2.146,2.146-2.146,2.146" fill="none" stroke="#a98b55" stroke-linejoin="round" stroke-miterlimit="2.4142" stroke-width="1.008"/>
  <path d="m153.62,6.869c-.145-.43-1.003-.86-2.72-.716-.142,0-.286.145-.427.145-1.719.142-2.146,1.857-2.146,1.857" fill="none" stroke="#d1b571" stroke-linejoin="round" stroke-miterlimit="2.4142" stroke-width="1.008"/>
  <path d="m118.72,11.158c-1.002,0-.714.86.571,1.004 2.002.139 0,1.141 2.146,1.286 2.146,0 3.721.858 4.293,1.43s-2.005,1.433.571,1.433 3.72.572 4.147,1.285c.431.716-2.287,2.002.145,1.86 2.287-.145 3.431-.287 3.575.43 .286.572-2.146.714-1.859,1.43 .285.572 2.575-.286 3.147.142s.572.713 1.285.713c.716,0 1.288.145 1.288.145s-2.718-5.722-6.438-8.009 .717,1.715.286,1.86c-.857.427-2.429-1.002-3.431-1.288s-4.006-2.002-5.151-2.576c-1.31-.573-3.02-1.287-4.6-1.145z" fill="#3d2a19"/>
  <path d="m161.63,21.888s.86-2.576.86-3.432 0-3.148 2.859-5.008c1.575-.858 1.002.428.573.858-.286.286-1.288.716-.429,1.002 .715.427 1.431.858.284,1.144-1,.142-1.572,1-1.717,1.716-.142.716 1.288.288.431.858-.717.716-1.716,2.146-2.002,3.72l-.85-.858z" fill="#3d2a19"/>
  <path d="m137.75,28.897s-3.434.428-3.575,1 2.287-.286 2.287.145c0,.569-3.717,1.286-4.003,1.857-.288.716 2.718-.428 2.718-.142 .142.428-3.72,1.716-3.72,2.718 0,.858 4.863-3.576 5.291-2.002-.02,0 1.27-2.29.99-3.576z" fill="#6c381a"/>
  <path d="m135.75,35.763s-1.86,1.43-4.15,3.431c-2.143,1.86-2.143,2.002-2.001,2.574 .145.43 3.147-3.001 3.434-2.43 .428.572-3.147,3.001-2.576,3.576 .431.572 3.575-3.72 3.72-3.148 .286.716-2.146,2.862-2.004,3.575 .145.716 2.29-1.715 2.146-1.002-.01.001 1.57-5.718 1.43-6.576z" fill="#6c381a"/>
  <path d="m132.88,48.206s-.571,1.144-1.715,2.146c-1.003.857-3.29,3.289-3.148,3.72 .286.858 3.004-3.003 3.004-1.862 0,.86-3.29,3.434-3.004,4.292 .431.861 3.575-4.147 3.575-3.146 .02-.001 1.45-4.434 1.3-5.15z" fill="#6c381a"/>
  <path d="m130.74,57.647s-3.575,3.291-3.146,4.148c.286.858 2.146-2.146 2.288-1.002 0,1.144-2.433,3.003-2.288,4.003 .142,1.146 1.86-1.857 1.86-1 .142,1.574-1.86,3.434-1.574,4.148 .286.716 1.144.145 1.43-.714 .14-.859 1.29-8.438 1.43-9.583z" fill="#6c381a"/>
  <path d="m123.44,110.14s-1.003,1-1.858.286l-.145,1.285s1.572-.142 1.859-.572c.14-.29.14-1.01.14-1.01z" fill="#6c381a"/>
  <path d="m123.44,112.29s-1.287.855-2.003.286l-.286,1.144s1.858-.142 2.146-.43c.14-.29.14-1 .14-1z" fill="#6c381a"/>
  <path d="m121.58,123.02s-1.288.142-2.146-.428v1s1.857.713 2.002.43c.15-.43.15-1 .15-1z" fill="#6c381a"/>
  <path d="m121.15,125.45s-1.144-.572-1.86-1.288l-.141,1.288s1.859.716 2.001.286c.15-.29 0-.29 0-.29z" fill="#6c381a"/>
  <path d="m120.87,127.16s-1.288-.715-2.004-1.429l-.142.857s1.719,1.574 1.858,1.286c.13-.43.28-.72.28-.72z" fill="#6c381a"/>
  <path d="m120.58,128.74s-1.428-.716-2.145-1.288l-.286.572s2.002,1.718 2.146,1.43c.14-.43.28-.71.28-.71z" fill="#6c381a"/>
  <path d="m116.29,133.74s2.429.572 2.429.716c0,.284 0,.858-.431.716s-2.143-.716-2.143-.861 .14-.58.14-.58z" fill="#6c381a"/>
  <path d="m115.86,135.46s2.576,0 2.576.288c-.145.142-.286.714-.428.714s-2.432-.286-2.432-.428 .28-.57.28-.57z" fill="#6c381a"/>
  <path d="m108.71,153.48s-3.719,0-5.578-1.43c0,0-1.285-.433 0,.57 1.288,1.144 4.29,2.004 4.29,2.004l1.29-1.14z" fill="#6c381a"/>
  <path d="m106.85,155.2s-2.576-1.002-3.434-1.716c-.858-.575-.717.142-.145.572 .571.572 2.432,1.286 2.004,1.574-.43.284-1.144,0-1.571-.43-.574-.431-1.146-.144-.288.569 .716.861.145,1.863-.717,1.433-.854-.286-1.427-2.146-1.715-2.718-.428-.716-.717-.144-.286.858s1.002,2.29.713,2.573c-.427.289-1.285-1.713-1.715-2.285-.428-.43-1-.145-.428.572 .572.855 1.43,2.288 1.144,2.43s-.857-1-1.288-.858c-.428.286.86,1.86 0,2.004 0,0 1.716-.289 4.147-1.863 2.59-1.56 3.59-2.7 3.59-2.7z" fill="#6c381a"/>
  <path d="m116,141.61s-.999.716-1.859.716c-.858-.144-1.43.284-.428.428 .857.286 1.144.144.999.427-.283.289-.283.575-1.144.433-.716,0-1.144.142-1.144.428s1.571.142 1.571.572-.714.43-.714,1.288c-.142.858 0,1.86-.571,1.43-.715-.286-1.574-.431-1.144.286 .285.716.285,1.43-.144.716-.573-.716-.859-1.002-1.144-.716-.287.286 1.001,1.43 1.001,1.716-.145.286-.86-.573-1.433-.43-.571.288.432.43.287,1.146 0,.716.715,1.572-.858,1.145-1.718-.428-2.861-1.286-3.577-1.002-.714.144 2.862,1.146 2.721,1.429-.289.433-2.149-.572-2.576-.284-.428.284 3.433,1.43 3.433,1.43s3.72-4.578 4.005-4.864c.145-.286.145-.431.145-.713-.01-.33 2.28-5.33 2.56-5.62z" fill="#6c381a"/>
  <path d="m158.92,18.456 2.573,3.287s.714-2.717.714-4.003c0-1.146.86-4.005 3.147-4.864 0,0-3.86.716-6.43,5.58z" fill="#fff2c7"/>
  <path d="m151.76,6.869c1.002.43 2.862,7.438 3.575,8.581 .86,1.002 0,.716-.999.572-1.002-.286-1.861-6.149-2.576-7.151-.85-.859-.42-2.002 0-2.002z" fill="#fff2c7"/>
  <path d="m142.75,7.438c.716.289 4.146,6.297 4.722,8.44 .713,2.003 1.144,1.432 1.144,1.432s-1.859,1.002-2.146,1.002c-.145-.144.427-.43-.286-2.434-.572-2.002-2.862-6.15-3.434-6.863-.7-.861-1.13-1.86.01-1.577z" fill="#fff2c7"/>
  <path d="m168.79,60.938c-.86-.145-2.576-1.718-1.002-1.861 1.573,0 2.432,0 3.145,1.572 .575,1.718 2.576,5.866 5.722,5.152 1.859-.43 2.146-.43 1.718-3.006-.571-2.573-.857-3.718-.286-3.718 .715.143 1.145.716 1.001,2.574 0,2.004-.143,3.146.286,3.006 .431,0 1.574-.861 1.859-1.863 0,0 .145,1.574-.857,2.29-1.145.572-2.433,1.286-3.291,1.716s-3.147,1.001-5.005-2.144c-1.146-1.863-2.004-3.148-2.29-3.579-.29-.284-1-.139-1-.139z" fill="#5c3f14"/>
  <path d="m156.06,33.759s-.858-.142-2.146-1.43c-1.144-1.43-2.574-2.002-4.004-1.86-1.433,0-2.432,1.146-4.006.858-1.574-.284-2.001,0-.145,1.288 .572.572 1.574.572 1.574.572s-.145,1.574.431,2.432c.571.858.857,3.148 2.001,3.72 1.287.714 2.432.714 3.291.284 0,0-.145,1.574-2.289,1.433-.857-.142-.145,1.002 1.144.713 1.287-.284 2.003-.427 2.434-2.001 .286-1.43.999-1.716 1.716-2.146 .571-.427-.286-1.285-.858-.572-.571.861-.571,1.718-1.002,1.288-.286-.427.572-1.574 1.002-1.715 .428-.286.714-1.43 0-.858-.857.427-1.718,2.43-2.432,2.573-.573.142-2.433,1.574-3.436-1.433-.285-.569.861.716 1.718.433 1.859-.433 2.72-1.002 3.292-1.718s.713-.716 1.43-.716c.73.143 1.44-.287.3-1.145z" fill="#d8c47c"/>
  <path d="m170.36,52.067c.43,0 .571-.142.716-.999 .145-.861.572-2.146 2.001-1.86 1.288.428.575.716-.141.858-.717,0-1.288.142-1.145,1.572 .142,1.288.714,2.146.428,2.29-.428.144-1.144-.144-1.144-.572 0-.286-.145-.286-.431-.286-.44-.001-1.58-1.003-.3-1.003z" fill="#cfac53"/>
  <path d="m147.9,33.045s2.576-.144 3.72-.572c.429-.144 2.719,1.43 2.719,1.43s-.431.858.142.713-1.288,1.574-2.575,1.574c-1.14,0-3.28.431-4-3.145z"/>
  <path d="m151.76,33.329c.573,0 1.002.43 1.144,1.002 .145.716.145.431-.57,0s-.99-1.002-.57-1.002z" fill="#fff"/>
  <path d="m176.22,55.216c.428,0 0-2.432-1.144-3.29-1.002-.857-1.574-1.288-2.146-.716-.431.428-.717,1.86.285,1.86s.714-1.002 1.571.143c1,1.287.72,2.003 1.43,2.003z" fill="#3d2a19"/>
  <path d="m146.19,31.471s-1.144-.286-1.433-.144c-.283.144 0,.858 1.002,1.288 1.003.572 1.288.713 2.862.43 1.716-.288 2.86-.716 3.575-.43s1.575,1.002 1.575,1.002-.716-1.002-1.575-1.288-2.001,0-3.289,0c-1.43,0-2.72-.858-2.72-.858z" fill="#666146"/>
  <path d="m157.2,22.887c-1.43,0-1.86.289-3.29.857-1.288.573-1.144-.286-.285-.713 1.002-.286.144-.427-1.146-.144-1.287.144-2.001-.428-.572-.572 1.573-.145 5.293-.286 6.726,0s2.572.572 3,1.144c.572.575-.428.145-2.146-.283-1.56-.572-2.28-.289-2.28-.289z" fill="#987123"/>
  <path d="m163.07,24.75c.428.569.428,1.141.857,1.429 .428.143.715.714 1.288,1.43 .57.713.57,2.143.856,3.861 .287,1.574 1.146,2.433.573,2.146-.715-.572-1.574-2.574-1.715-4.437-.145-2.001-1.433-2.146-2.433-2.573-.86-.428-1.573.428-2.29.858s-1.43-.286-.716-.714c0,0 .145-.144.86-.288 .428-.141.999-.572 1.43-.572 .716,0 .716,0 .857-.572 0-.569-.43-1.43-1.715-1.86-.572-.142-.717-.855.285-.283 .99.429 1.7,1.286 1.85,1.575z" fill="#987123"/>
  <path d="m159.06,29.611s.714,1.574 1.86,2.288c.999.574 2.146.144 2.001,1.86-.142,2.29 1.288,2.146 1.002,2.862-.145.427-1.144-.716-1.43-1.43-.43-.716-.86-.289-1.573-.716-.431-.43 0-1.146-.572-2.29-.72-1.142-2.43-3.004-1.29-2.574z" fill="#987123"/>
  <path d="m160.92,39.622c-1.002-.714-2.718-.855-1.288.145 1.43,1.146 2.861,1.718 3.575,1.86 .716.142.571.286 1.431,2.004 1.002,1.571 2.003,2.285 2.29,2.146s0-.432-.86-1.718c-1.001-1.429-2.574-5.58-3.288-5.292-.716.142.714,1.858.286,1.716-.57-.001-2.14-.861-2.14-.861z" fill="#cfac53"/>
  <path d="m154.91,26.894c-.716-.858-1.432-1.716-2.861-1.431-1.287.286-1.287,1-1.717,1.288-.428.284-.717.572-1.003-.429-.285-.859-.713-1.433-1.856-1.002-1.002.43-2.146.86-2.29-.569-.142-1.291-.142-2.579-.714-1.291-.43,1.146-.571,2.72-1.432,3.292-.714.572-1.285,1.716-.286,1.858s1.146.572 1.718.861c.572.141 1.285.141 1.574-.145 .142-.145-.431-.145-1.002-.716-.431-.572-.572-1.286-.145-1.715 .572-.431 1.288-.286 1.86-.431 .571-.284 1.144-.857 1.573-.428 .428.287.572.572.286,1.144-.286.716-1.144,2.146-.857,2.862 .142.857.142,1.002.999-.289 .857-1.144 2.576-1.857 3.434-1.715s2.003.86 2.575,2.004c.43,1.002 2.29.713 1.144-.145-1.285-1-1-1.43-2.002-2.146-1.144-.857-1.859-.716-2.288-.857-.573,0 .143-.572.571-.572 .715,0 1.287,0 2.003.713 .59.861 1.45.861.73-.141z" fill="#d8b964"/>
  <path d="m144.75,52.354c-1.856-1.716-2.143-3.146-2.429-2.718-.286.572.714,3.576-1.002,1.288-1.86-2.288-2.862-4.292-2.718-6.149 .286-1.86-1.574-4.006-.859-4.722 .715-.714.429.43.715,1.002 .431.43.573.286.573-2.288-.143-2.718-.286-3.434-.429-4.722-.145-1.43-.145-3.862.716-5.436s1.43-1.286 1,.145c-.428,1.288-1,3.146-.428,5.005 .572,2.004.857,5.58.428,6.008-.428.572-.572.286-.714,1.718-.145,1.572-.716,2.146.142,2.86 .857.857 2.29,2.86 3.148,4.292 1.002,1.288 2.287,3.001 3.575,3.861 1.42.857-.01,1.286-1.73-.144z" fill="#d8b964"/>
  <path d="m179.23,54.5c-1.288.286-1.003.857-1.716,2.29-.145.283-.145.427-.289.572-.857.57-2.287-.716-3.572-1.288-.431-.145-1.002-.286-1.719-.43-1.573-.286-3.434-.428-4.291-.286-.142,0-.286.145-.428.145-.286.427-.286,3.001-.286,3.001" fill="none" stroke="#bb8936" stroke-linecap="round" stroke-linejoin="round" stroke-miterlimit="2.4142" stroke-width="1.008"/>
  <path d="m179.08,54.355c-1.431.288-1.286.86-1.717,2.146-.145.289-.286.431-.431.431-.713.286-2.146-.713-3.431-1.144-.571-.286-1.146-.431-1.859-.572-1.716-.43-3.29-.286-4.292-.144-.142,0-.286,0-.428.144-.287.572-.145,3.004-.145,3.004" fill="none" stroke="#cb9f49" stroke-linecap="round" stroke-linejoin="round" stroke-miterlimit="2.4142" stroke-width="1.008"/>
  <path d="m179.08,54.072c-1.717.284-1.572,1.144-2.003,2.146-.145.142-.145.283-.285.283-.717.145-2.146-.713-3.576-1.144-.571-.286-1.144-.427-1.859-.572-1.716-.43-3.29-.286-4.292,0-.142,0-.286,0-.286.145-.429.713-.285,3.001-.285,3.001" fill="none" stroke="#dcb55e" stroke-linecap="round" stroke-linejoin="round" stroke-miterlimit="2.4142" stroke-width="1.008"/>
  <path d="m179.08,53.784c-1.717.43-1.861,1.288-2.147,2.004-.141.286-.285.43-.427.43-.572-.145-2.005-.861-3.435-1.288-.716-.145-1.285-.43-1.856-.575-2.004-.572-3.434-.284-4.437,0-.143,0-.285.145-.285.288-.572.714-.144,3.146-.144,3.146" fill="none" stroke="#eccc76" stroke-linecap="round" stroke-linejoin="round" stroke-miterlimit="2.4142" stroke-width="1.008"/>
  <path d="m143.61,186.81s-2.862,4.72-4.865,7.438c-2.004,2.576-2.861,8.155-2.717,9.44 .427,2.433 1.573-3.147 2.288-5.433 1.002-3.579 4.578-8.584 5.149-7.296l.15-4.15z" fill="#987b45"/>
  <path d="m143.47,192.39s-1.002,1.43-2.146,2.146c-1.288.713-2.432,2.717-2.289,3.72 .287,1 .429,1.141 1.858.428 1.574-.716 2.576-.289 2.576-.289s.29-5.01 0-6.01z" fill="#a6612a"/>
  <path d="m1.001,333.86s-.429-4.863 2.146-8.584c2.289-3.72 4.005-5.149 4.005-5.149s-3.862,5.438-4.435,7.439c-.429,2.146-1.287,5.863.143,9.726 .001-.01-1.715-2.59-1.859-3.44z" fill="#0e0a04"/>
  <path d="m11.014,317.4s-.858,2.576-1.86,3.576c-1,1.146-3.29,5.865-1.43,9.586 0,0 1.001.999 1.858,1.288 .859.283-.857-.289-1.429-2.435-.429-2.146-.286-5.147 1.144-7.293s2.004-3.44 1.717-4.73z" fill="#0e0a04"/>
  <path d="m13.588,306.1c-.572-.142-1.43,2.577-2.288,5.292-1.001,2.718-2.718,4.723-2.718,4.723s2.432-1.86 3.29-4.006c.715-2.28 2.861-5.85 1.716-6z" fill="#0e0a04"/>
  <path d="m14.59,316.69s.143-3.575-.429-5.147c0,0 2.001,2.288.714,7.151l-.285-2z" fill="#0e0a04"/>
  <path d="m7.581,339.58s-2.145-1.863-2.432-5.008 0-5.577.573-6.58c.429-1.145.572-.428.286,1.574-.286,1.857-.286,6.008 1.431,8.15 1.715,2.146 5.005,3.864 6.149,7.01 0,0-1.144-1.715-3.289-3.289-2.29-1.71-2.718-1.85-2.718-1.85z" fill="#0e0a04"/>
  <path d="m13.732,350.59s-.43-1.718-.859-2.861c-.429-1.003.859-.429 1.574,2.717 0,0-.285-.29-.715.14z" fill="#0e0a04"/>
  <path d="m180.09,51.068s-.285-.572-.858.141c-.572.716-.717.716-.717,1.574 0,1-.428,1-.428,1s.858-.714 1.43-.572c0,.001-.28-1.002.58-2.143z" fill="#d8c47c"/>
  <path d="m142.04,47.49c-.716-.572-1.146-1.574-1.573-2.429-.286-.858-.858-.431-.572,1.288 .428,1.572 1.43,2.574 2.432,3.287 .85.716 1.28-.858-.29-2.146z" fill="#995a27"/>
  <path d="m138.46,39.91s.717-1.86.145-3.148-.145-4.147-2.003,0c-.57,1.574 1.43,2.576 1.86,3.148z" fill="#a6612a"/>
  <path d="m148.05,33.903s.285,2.001 2.432,2.287c1.429.145 2.288-.142 2.288-.142s-2.288.428-3.291-.43c-.857-.857-1.002-1.429-1.144-1.86-.15-.429-.44-.429-.29.145z" fill="#666146"/>
  <path d="m178.94,53.641c-1.86.431-1.86,1.002-2.29,1.716-.142.286-.142.431-.428.431-.431-.145-1.86-.716-3.434-1.288-.572-.145-1.285-.428-1.86-.572-2.001-.572-3.431-.287-4.29,0-.286.144-.286.144-.429.286-.431.716-.145,3.148-.145,3.148" fill="none" stroke="#fee692" stroke-linecap="round" stroke-linejoin="round" stroke-miterlimit="2.4142" stroke-width="1.008"/>
  <path d="m138.32 17.881s1.002 2.86 2.146 3.29" fill="none" stroke="#000" stroke-linejoin="round" stroke-miterlimit="2.4142" stroke-width=".504"/>
  <path d="m132.46,27.179s0,.144 1.716.144c1.716.142 3.575.572 3.72,1.574" fill="none" stroke="#000" stroke-linejoin="round" stroke-miterlimit="2.4142" stroke-width=".504"/>
 </g>
</svg>
