<?xml version="1.0" encoding="UTF-8"?>
<svg width="500mm" height="215.9mm" clip-rule="evenodd" fill-rule="evenodd" image-rendering="optimizeQuality" shape-rendering="geometricPrecision" text-rendering="geometricPrecision" viewBox="0 0 500 215.9" xmlns="http://www.w3.org/2000/svg">
 <defs>
  <style type="text/css">.fil0 {fill:#1F1A17}</style>
 </defs>
 <path class="fil0" d="m61.791 56.633l377.41-9.5695c17.05-0.4323 33.38 12.327 31.734 28.173l-6.811 65.549-6.614 0.1677-2.4369-43.992c-0.4118-7.4277-3.4006-14.162-8.0685-19.19l1.2935 51.014c0.173 6.8196-0.9624 12.427-2.5239 12.466l-0.0669 0.0017c-1.5615 0.0396-2.9795-5.5028-3.1525-12.322l-1.4204-56.018c-1.6716-1.0435-3.4551-1.9135-5.329-2.5856l1.4939 58.916c0.1698 6.697-0.9676 12.204-2.5291 12.244l-0.0674 0.0017c-1.5615 0.0396-2.977-5.4026-3.1468-12.1l-1.5328-60.45c-1.3802-0.1758-2.7926-0.2499-4.2295-0.2135l-1.0382 0.0263 1.5454 60.95c0.1667 6.5744-0.9737 11.981-2.5352 12.021l-0.0669 0.0017c-1.5616 0.0395-2.9745-5.3025-3.1412-11.877l-1.5454-60.95-5.2601 0.1334 1.5499 61.129c0.1636 6.4512-0.9788 11.758-2.5403 11.798l-0.0675 0.0017c-1.5615 0.0396-2.9719-5.2023-3.1355-11.654l-1.55-61.129-5.2596 0.1334 1.5546 61.309c0.1605 6.3291-0.985 11.535-2.5466 11.575l-0.0669 0.0017c-1.5615 0.0396-2.9694-5.1017-3.1298-11.431l-1.5546-61.309-5.2601 0.1334 1.5591 61.488c0.1574 6.2065-0.9902 11.312-2.5522 11.352l-0.0669 0.0017c-1.5615 0.0396-2.9668-5.0015-3.1242-11.208l-1.5591-61.488-5.2596 0.1334 1.5636 61.667c0.1543 6.0838-0.9963 11.09-2.5578 11.129l-0.0669 0.0017c-1.562 0.0396-2.9643-4.9013-3.1186-10.985l-1.5636-61.667-5.2601 0.1334 1.5682 61.846c0.1511 5.9612-1.002 10.867-2.5635 10.906l-0.0669 0.0017c-1.5616 0.0396-2.9618-4.8012-3.1129-10.762l-1.5682-61.846-5.2596 0.1334 1.5727 62.026c0.148 5.8386-1.0076 10.644-2.5691 10.684l-0.0675 0.0017c-1.5615 0.0396-2.9587-4.701-3.1067-10.54l-1.5728-62.026-5.2601 0.1334 1.5773 62.205c0.145 5.716-1.0132 10.421-2.5747 10.461l-0.067 0.0017c-1.5615 0.0396-2.9567-4.6008-3.1016-10.317l-1.5773-62.205-5.2596 0.1334 1.5818 62.384c0.1419 5.5933-1.0189 10.198-2.5804 10.238l-0.0674 0.0017c-1.5615 0.0396-2.9536-4.5007-3.0955-10.094l-1.5818-62.384-5.2601 0.1334 1.5864 62.564c0.1387 5.4707-1.0246 9.9756-2.5861 10.015l-0.0669 0.0017c-1.5615 0.0396-2.9516-4.4006-3.0903-9.8712l-1.5864-62.564-3.5613 0.0903 1.5909 62.743c0.1356 5.3485-0.6178 9.7423-1.6751 9.7691l-0.0455 0.0011c-1.0572 0.0268-2.0324-4.3231-2.168-9.6716l-1.5909-62.743-3.5613 0.0903 1.5954 62.922c0.1325 5.2259-0.6235 9.5195-1.6808 9.5463l-0.0454 0.0011c-1.0573 0.0269-2.0299-4.2229-2.1624-9.4488l-1.5955-62.922-3.5613 0.0903 1.6 63.102c0.1294 5.1033-0.6291 9.2967-1.6864 9.3235l-0.0454 0.0012c-1.0573 0.0268-2.0274-4.1228-2.1568-9.2261l-1.6-63.102-3.5613 0.0903 1.6045 63.281c0.1263 4.9806-0.6347 9.0739-1.692 9.1007l-0.0455 0.0012c-1.0573 0.0268-2.0248-4.0227-2.1511-9.0033l-1.6045-63.281-3.5613 0.0903 1.6091 63.46c0.1231 4.858-0.6405 8.8511-1.6978 8.8779l-0.0454 0.0012c-1.0573 0.0268-2.0223-3.9225-2.1455-8.7805l-1.6091-63.46-3.4738 0.0881-0.0849 0.1058 1.6111 63.536c0.12 4.7354-0.6461 8.6284-1.7034 8.6552l-0.0454 0.0011c-1.0573 0.0268-2.0198-3.8223-2.1399-8.5577l-1.5124-59.649c-1.0912 0.9678-2.2586 1.8755-3.4947 2.7164l1.4504 57.202c0.1169 4.6128-0.6518 8.4056-1.7091 8.4324l-0.0454 0.0011c-1.0573 0.0268-2.0172-3.7221-2.1342-8.3349l-1.3951-55.023c-1.1341 0.5846-2.3096 1.118-3.5231 1.5966l1.3615 53.696c0.1138 4.4901-0.6574 8.1828-1.7147 8.2096l-0.0454 0.0011c-1.0573 0.0269-2.0147-3.622-2.1286-8.1121l-1.3311-52.497c-1.1553 0.3246-2.3373 0.601-3.5426 0.8266l1.317 51.94c0.1107 4.3679-0.663 7.9599-1.7203 7.9867l-0.0455 0.0012c-1.0573 0.0268-2.0121-3.5214-2.1228-7.8893l-1.3059-51.499c-0.9472 0.0876-1.9059 0.1446-2.8743 0.1692-0.2287 0.0058-0.4569 0.0086-0.6847 0.011l1.3081 51.589c0.1077 4.2448-0.6687 7.7366-1.726 7.7634l-0.0454 0.0012c-1.0573 0.0268-2.0096-3.4212-2.1172-7.666l-1.3141-51.827c-1.2106-0.0988-2.403-0.25-3.575-0.4486l1.3323 52.545c0.1046 4.1222-0.6743 7.5138-1.7316 7.5406l-0.0454 0.0012c-1.0573 0.0268-2.0071-3.321-2.1116-7.4432l-1.3567-53.506c-1.2288-0.3355-2.4282-0.7261-3.5932-1.1678l1.3931 54.943c0.1015 3.9995-0.68 7.2911-1.7372 7.3179l-0.0455 0.0011c-1.0573 0.0268-2.0045-3.2209-2.1059-7.2204l-1.4401-56.795c-1.2607-0.6506-2.4689-1.366-3.6179-2.1411l1.5012 59.206c0.0984 3.8769-0.6856 7.0683-1.7429 7.0951l-0.0454 0.0011c-1.0573 0.0268-2.002-3.1207-2.1003-6.9976l-1.5831-62.437c-0.8295-0.7642-1.612-1.5657-2.3426-2.4008l-1.2811 0.0325 1.6501 65.075c0.0952 3.7543-0.6913 6.8455-1.7486 6.8723l-0.0455 0.0011c-1.0573 0.0269-1.9994-3.0205-2.0946-6.7748l-1.65-65.075-3.5613 0.0903 1.6546 65.254c0.0921 3.6317-0.697 6.6227-1.7543 6.6495l-0.0454 0.0012c-1.0573 0.0268-1.9969-2.9204-2.089-6.5521l-1.6546-65.254-3.5612 0.0903 1.6591 65.433c0.089 3.509-0.7026 6.3999-1.7599 6.4267l-0.0454 0.0012c-1.0573 0.0268-1.9944-2.8203-2.0834-6.3293l-1.6591-65.433-3.5613 0.0903 1.6637 65.612c0.0859 3.3869-0.7082 6.1771-1.7655 6.2039l-0.0455 0.0012c-1.0573 0.0268-1.9918-2.7196-2.0777-6.1065l-1.6636-65.612-3.5613 0.0903 1.6682 65.792c0.0828 3.2643-0.7139 5.9544-1.7712 5.9812l-0.0454 0.0011c-1.0573 0.0268-1.9893-2.6194-2.072-5.8837l-1.6683-65.792-3.5613 0.0903 1.6728 65.971c0.0797 3.1416-0.7195 5.7315-1.7768 5.7583l-0.0455 0.0011c-1.0573 0.0268-1.9867-2.5192-2.0663-5.6608l-1.6728-65.971-3.5613 0.0903 1.6773 66.15c0.0766 3.0189-0.7252 5.5087-1.7825 5.5355l-0.0454 0.0011c-1.0573 0.0269-1.9842-2.4191-2.0607-5.438l-1.6773-66.15-3.5613 0.0903 1.6818 66.33c0.0735 2.8963-0.7308 5.2859-1.7881 5.3127l-0.0454 0.0012c-1.0573 0.0268-1.9817-2.319-2.0551-5.2153l-1.6819-66.33-3.5613 0.0903 1.6864 66.509c0.0704 2.7737-0.7364 5.0631-1.7937 5.0899l-0.0455 0.0012c-1.0573 0.0268-1.9791-2.2188-2.0494-4.9925l-1.6864-66.509-3.5613 0.0903 1.6909 66.688c0.0673 2.6511-0.7421 4.8403-1.7994 4.8671l-0.0454 0.0012c-1.0573 0.0268-1.9766-2.1186-2.0438-4.7697l-1.691-66.688-3.5612 0.0903 1.6955 66.868c0.0641 2.5284-0.7478 4.6176-1.8051 4.6444l-0.0455 0.0011c-1.0573 0.0268-1.974-2.0185-2.0381-4.5469l-1.6955-66.868-3.5613 0.0903 1.7001 67.047c0.061 2.4063-0.7535 4.3948-1.8108 4.4216l-0.0454 0.0011c-1.0573 0.0268-1.9715-1.9178-2.0325-4.3241l-1.7-67.047-3.5613 0.0903 1.7046 67.226c0.0579 2.2837-0.7591 4.172-1.8164 4.1988l-0.0454 0.0011c-1.0573 0.0269-1.969-1.8176-2.0269-4.1013l-1.7046-67.226-3.5613 0.0903 1.7092 67.406c0.0548 2.1611-0.7647 3.9492-1.822 3.976l-0.0455 0.0012c-1.0573 0.0268-1.9664-1.7175-2.0212-3.8786l-1.7091-67.406-3.5613 0.0903 1.7137 67.585c0.0517 2.0379-0.7704 3.7259-1.8277 3.7527l-0.0454 0.0012c-1.0573 0.0268-1.9639-1.6174-2.0155-3.6553l-1.7137-67.585-3.5613 0.0903 1.7182 67.765c0.0486 1.9152-0.776 3.503-1.8333 3.5298l-0.0455 0.0012c-1.0573 0.0268-1.9613-1.5172-2.0098-3.4324l-1.7183-67.765-3.5613 0.0903 1.7228 67.944c0.0455 1.7926-0.7817 3.2803-1.839 3.3071l-0.0454 0.0011c-1.0573 0.0268-1.9588-1.417-2.0042-3.2096l-1.7228-67.944-3.5613 0.0903 1.7273 68.123c0.0424 1.67-0.7873 3.0575-1.8446 3.0843l-0.0454 0.0011c-1.0573 0.0268-1.9563-1.3168-1.9986-2.9868l-1.7273-68.123-3.5613 0.0903 1.7318 68.303c0.0393 1.5473-0.7929 2.8347-1.8502 2.8615l-0.0455 0.0011c-1.0573 0.0269-1.9537-1.2167-1.9929-2.764l-1.7319-68.303-3.318 0.0842-0.2432 0.0091 1.7364 68.479c0.0361 1.4252-0.7987 2.6119-1.856 2.6387l-0.0454 0.0012c-1.0573 0.0268-1.9512-1.1161-1.9873-2.5413l-1.7286-68.173c-1.2114 0.2136-2.393 0.5071-3.5415 0.8725l1.7134 67.57c0.033 1.3026-0.8043 2.3891-1.8616 2.4159l-0.0455 0.0012c-1.0573 0.0268-1.9486-1.0159-1.9816-2.3185l-1.6763-66.112c-1.2235 0.6059-2.3954 1.3006-3.511 2.0749l1.6306 64.306c0.0299 1.18-0.81 2.1663-1.8673 2.1931l-0.0454 0.0012c-1.0573 0.0268-1.9461-0.9157-1.976-2.0957l-1.5526-61.234c-1.2706 1.2579-2.4285 2.6366-3.4592 4.1167l1.4551 57.387c0.0268 1.0573-0.8156 1.9436-1.8729 1.9704l-0.0454 0.0011c-1.0573 0.0268-1.9436-0.8156-1.9704-1.8729l-1.2744-50.26c-1.1399 3.2078-1.7719 6.6642-1.8041 10.252l-0.3978 44.064-7.8169 0.1982-10.714-65.105c-2.587-15.721 13.215-29.313 30.265-29.745z"/>
</svg>
