<?xml version="1.0" encoding="UTF-8"?>
<svg viewBox="0 0 400 400" xmlns="http://www.w3.org/2000/svg" xmlns:xlink="http://www.w3.org/1999/xlink">
 <defs>
  <filter id="h">
   <feGaussianBlur stdDeviation="3.77839"/>
  </filter>
  <filter id="i">
   <feGaussianBlur stdDeviation="4.53023"/>
  </filter>
  <filter id="l">
   <feGaussianBlur stdDeviation=".96495"/>
  </filter>
  <filter id="j">
   <feGaussianBlur stdDeviation=".53574"/>
  </filter>
  <filter id="k">
   <feGaussianBlur stdDeviation=".43591"/>
  </filter>
  <filter id="a" x="-.09888" y="-.15966" width="1.1978" height="1.3193">
   <feGaussianBlur stdDeviation="15.3683"/>
  </filter>
  <filter id="m" x="-.15613" y="-.15613" width="1.3123" height="1.3123">
   <feGaussianBlur stdDeviation="3.92658"/>
  </filter>
  <linearGradient id="g" x1="4.6447" x2="418.64" y1="317.14" y2="200.14" gradientUnits="userSpaceOnUse">
   <stop stop-color="#e9c6af" offset="0"/>
   <stop stop-color="#e9b08a" offset="1"/>
  </linearGradient>
  <linearGradient id="b">
   <stop offset="0"/>
   <stop stop-color="#333" stop-opacity="0" offset="1"/>
  </linearGradient>
  <linearGradient id="d" x1="226.17" x2="204.76" y1="462.34" y2="467.59" gradientUnits="userSpaceOnUse">
   <stop stop-color="#e6e6e6" offset="0"/>
   <stop stop-color="#e6e6e6" stop-opacity="0" offset="1"/>
  </linearGradient>
  <linearGradient id="f" x1="80.514" x2="124.57" y1="874.78" y2="918.83" gradientUnits="userSpaceOnUse" xlink:href="#b"/>
  <linearGradient id="e" x1="261.99" x2="250.16" y1="876.75" y2="897.13" gradientUnits="userSpaceOnUse" xlink:href="#b"/>
  <radialGradient id="c" cx="247.1" cy="465.93" r="69.12" gradientTransform="matrix(-.0494 -.56242 2.4476 -.215 -940.52 1148.1)" gradientUnits="userSpaceOnUse">
   <stop stop-color="#fff" offset="0"/>
   <stop stop-color="#ccc" offset="1"/>
  </radialGradient>
 </defs>
 <path transform="matrix(.80446 0 0 .80446 54.964 -1.7583)" d="m413.62 246.44c-43.598 53.334-206.18 123.25-233.31 142.25-15.652 4.8214-33.035 3.8186-46.586-1.9677-73.475-31.373-115.86-51.001-142.28-90.119-8.4682-12.541-45.947-30.137-44.442-47.164 6.1802-69.957 31.569-109.79 120.54-125.86 25.931-4.6834 62.907-13.856 99.27-17.889 175.76-19.495 246.81 61.083 246.81 140.75z" fill="url(#g)" filter="url(#h)"/>
 <path transform="matrix(.67688 0 0 .62802 55.952 -351.82)" d="m391.15 893.82c-34.849 42.631-164.8 98.519-186.49 113.7-12.511 3.854-26.405 3.0523-37.237-1.5728-58.73-25.077-92.613-40.766-113.73-72.034-6.7688-10.024-36.726-24.089-35.524-37.699 4.9399-55.918 25.234-87.759 96.348-100.6 20.727-3.7436 50.378-18.401 79.349-14.299 154.68 21.9 235.13 148.79 197.28 112.5z" fill="#e8ba9c" filter="url(#i)"/>
 <path transform="matrix(.32922 0 0 .04659 113.45 212.6)" d="m391.15 893.82c-34.849 42.631-164.8 98.519-186.49 113.7-12.511 3.854-26.405 3.0523-37.237-1.5728-58.73-25.077-92.613-40.766-113.73-72.034-6.7688-10.024-36.726-24.089-35.524-37.699 4.9399-55.918 27.46-9.1154 98.574-21.959 20.727-3.7436 45.831 57.083 74.897 53.859 140.49-15.582 199.5-97.977 199.5-34.298z" fill="#e0a681" filter="url(#a)"/>
 <g transform="matrix(.69964 0 0 .69964 39.876 -418.18)">
  <path d="m166.93 854.44 40.348 2.1282c9.4284-1.552 14.407-5.9865 19.576-10.297-1.854 3.701-2.9238 7.251-8.9662 11.758 5.7017-0.96699 9.0062-3.6594 11.955-6.6078-2.015 2.5611-2.255 4.7357-7.9201 8.0914l12.553 0.60992c11.248-1.8225 19.688-5.7588 27.795-9.9455-4.6747 6.2481-10.029 9.3292-15.243 12.765 17.919 6.4206 29.801 5.861 41.693-0.96837-3.2184 2.8928-6.5969 5.7761-12.553 8.5058 11.23 1.6261 23.787-3.6161 36.164-7.9275-6.5412 5.5607-12.285 11.437-23.013 15.341 21.239 6.4484 31.512 2.888 42.739 0.1989-4.9243 4.0145-9.8923 8.0062-17.932 10.395 16.5 6.1956 25.05 3.2741 35.118 2.0928-5.3211 3.4668-10.043 7.2713-19.576 8.3636 11.242 3.8661 21.63 5.4472 30.485 2.9216-8.4891 6.6969-18.361 10.116-30.037 9.2595 3.7345 4.5157 10.467 6.5935 21.37 5.2789-7.9346 2.0685-15.906 4.0909-29.29-0.64047l-2.2416 3.3194c8.5874 3.5214 11.474 7.4559 14.645 11.37-5.6404-4.7664-12.503-7.0648-19.726-8.6339-2.7291 2.3576-3.9614 2.9478-5.6786 3.9432 9.3493 3.872 12.603 7.3807 16.587 10.933-6.7744-4.0494-13.549-7.0095-20.323-8.117l-5.3797 2.3037c7.1166 4.3152 10.976 6.5508 15.99 13.245-7.1996-4.4755-14.349-8.991-26.6-9.4579l-11.656 5.3826c4.6599 2.391 9.1328 5.1163 13.001 8.9237-10.909-6.195-21.721-9.1355-34.819-4.9754 7.1701 4.0322 12.454 9.4778 16.438 15.896-8.2754-7.2228-17.035-12.133-26.899-14.31 3.7545 2.848 5.6412 5.5846 7.0235 8.2913-7.9369-6.5124-17.617-9.1905-29.14-7.8138 4.2826 2.5526 7.4564 5.1262 9.1157 8.9684-10.393-9.0534-27.972-11.261-46.624-12.447 2.1814-26.356 10.283-30.571-18.979-88.145z" fill-rule="evenodd" stroke="#000" stroke-width=".42408"/>
  <path d="m204.13 859c70.07 12.005 92.062 30.42 110.46 49.314-31.39 29.444-71.118 33.876-109.15 43.397-50.808-2.2191-100.63-10.367-147.94-33.534 46.927-46.034 96.204-60.354 146.63-59.177z" fill="url(#c)"/>
  <path d="m204.13 859c70.07 12.005 92.062 30.42 110.46 49.314-31.39 29.444-71.118 33.876-109.15 43.397-50.808-2.2191-100.63-10.367-147.94-33.534 46.927-46.034 96.204-60.354 146.63-59.177z" fill="url(#f)"/>
  <path d="m204.13 859c70.07 12.005 92.062 30.42 110.46 49.314-31.39 29.444-71.118 33.876-109.15 43.397-50.808-2.2191-100.63-10.367-147.94-33.534 46.927-46.034 96.204-60.354 146.63-59.177z" fill="url(#e)"/>
  <path d="m59.239 921.34c0.2472-1.4418-0.62148-4.5376 0.0019-5.7757 1.0455-1.9889 2.379-2.2124 3.6868-3.9406 1.7829-2.3727 5.2452-4.1847 7.2537-6.2643 2.541-2.6214 5.3168-4.8622 8.1293-7.0168 6.9776-5.2305 14.109-10.139 21.352-14.792 3.0474-1.997 6.1292-3.9124 9.2354-5.7686 3.2513-2.0353 5.9554-3.7698 9.3431-5.4303 3.8124-1.8362 7.7272-3.3299 11.642-4.7991 4.047-1.5094 8.1446-2.8026 12.253-4.0364 4.1853-1.2566 8.4119-2.2812 12.653-3.2084 4.6056-1.0074 9.2419-1.766 13.884-2.4674 4.6952-0.69633 9.4-1.2881 14.108-1.8402 4.6508-0.55594 9.314-0.93247 13.979-1.2443 4.5359-0.31197 9.0801-0.40501 13.622-0.4346 4.3952-0.0621 8.7881 0.14896 13.176 0.43719 4.2394 0.26586 8.4526 0.88262 12.657 1.5765 4.1685 0.6747 8.2944 1.6579 12.407 2.7175 4.172 1.0678 8.3029 2.3449 12.406 3.7518 3.9826 1.3528 7.8979 2.9669 11.791 4.66 3.7908 1.6726 7.4917 3.6196 11.16 5.6541 3.5742 2.0394 7.0907 4.2228 10.58 6.4689 3.3735 2.1873 6.7608 4.3429 10.132 6.536 3.1112 2.0479 6.2209 4.0995 9.2843 6.253 2.9895 2.1196 5.9209 4.3598 8.8203 6.6581 2.8695 2.2847 6.8588 6.1414 9.6983 8.4809 0.45349 0.38015-0.2554-0.73412 0.19808-0.35394-3.888 5.9661-7.776 6.279-11.664 9.1053-0.45042-0.37796-0.23662-0.75593-0.68703-1.1339-2.8256-2.3426-6.3132-4.6894-9.1774-6.9613-2.889-2.2678-5.8026-4.4908-8.7795-6.5827-3.0583-2.1269-6.1498-4.1808-9.2469-6.2218-3.3657-2.1924-6.7426-4.3588-10.114-6.5386-3.472-2.2226-6.9708-4.3838-10.531-6.3891-3.6438-2.0022-7.3243-3.9052-11.09-5.5408-3.8712-1.6665-7.7686-3.2404-11.727-4.5721-4.086-1.375-8.2004-2.6178-12.352-3.6624-4.0947-1.0272-8.2052-1.9581-12.352-2.615-4.1804-0.67125-8.3739-1.222-12.587-1.4696-4.3689-0.2628-8.7416-0.44754-13.117-0.36729-4.5274 0.0534-9.056 0.15734-13.576 0.49396-4.6514 0.32536-9.2998 0.72466-13.936 1.2909-4.7009 0.56541-9.3994 1.165-14.087 1.8793-4.633 0.71916-9.2583 1.516-13.852 2.5557-4.2295 0.96574-8.444 2.0296-12.619 3.3083-4.0933 1.2547-8.175 2.5723-12.204 4.113-3.9032 1.4993-7.147 3.026-10.933 4.9312-3.3782 1.6991-6.7086 3.527-9.9661 5.5509-3.0916 1.8724-6.155 3.8128-9.2001 5.7959-1.6026 1.04-3.2063 2.0781-4.7931 3.154-0.53226 0.36089-2.1173 1.4689-1.5913 1.0946 19.252-13.699 12.352-8.7617 8.689-6.138-2.812 2.0833-5.5943 4.2444-8.157 6.7729-2.0092 2.0047-1.8143 4.7452-3.6158 7.0304-1.2766 1.6795-3.4341 3.8091-4.5577 5.6501-0.62103 1.071-4.7127 0.68127-5.1285 1.8974-8.5651 1.2223-6.9879 4.6703-10.501 7.7474z"/>
  <path d="m59.693 919.09c-1.366 1.1932-0.54435 1.7631 0.10862 2.4802 1.0903 1.1496 3.9444 1.9532 5.2795 2.9304 1.8207 1.3424 8.2958-0.28683 10.324 0.86555 2.5662 1.4521 5.3458 2.6605 8.158 3.8146 6.9723 2.7937 14.081 5.384 21.289 7.8129 3.0343 1.0458 6.0987 2.0403 9.1846 2.9975 3.2336 1.058 6.5629 1.9275 9.9148 2.7507 3.7709 0.90673 7.6281 1.6002 11.485 2.2787 3.9863 0.69582 8.0135 1.2577 12.049 1.7829 4.1109 0.5349 8.2533 0.92686 12.406 1.259 4.5096 0.36097 9.0395 0.56931 13.573 0.74267 4.5848 0.16737 9.175 0.27082 13.767 0.35001 4.5364 0.0846 9.078 0.0599 13.619-5e-3 4.4156-0.0571 8.8311-0.24745 13.242-0.47617 4.2696-0.201 8.5266-0.56767 12.776-0.98073 4.1059-0.39156 8.1731-0.9944 12.228-1.6436 4.0216-0.63564 7.9902-1.456 11.943-2.3222 4.0101-0.87426 7.9725-1.8732 11.903-2.9494 3.8154-1.0368 7.5557-2.2286 11.271-3.4669 3.6172-1.2204 7.1366-2.6024 10.621-4.0357 3.393-1.4312 6.7245-2.9465 10.028-4.4984 3.1926-1.51 6.3997-3.0014 9.5895-4.5147 2.9432-1.4111 5.8847-2.8244 8.7774-4.297 2.8223-1.448 5.5836-2.9661 8.3117-4.5176 2.6995-1.5416 7.5135-6.6151 10.182-8.1884 0.42592-0.25522-1.3068 2.9766-0.88095 2.7214l-11.669-4.8896-1.269 0.76118c-2.6547 1.5744-5.3072 3.1512-8.002 4.6848-2.7191 1.5325-5.4637 3.0391-8.2749 4.4696-2.8888 1.4562-5.8126 2.8699-8.7423 4.2761-3.1848 1.5126-6.3814 3.0101-9.572 4.5154-3.2868 1.5367-6.602 3.0376-9.9825 4.4473-3.462 1.4123-6.9633 2.7665-10.558 3.9631-3.6954 1.2211-7.4198 2.3874-11.213 3.4101-3.915 1.0559-7.8626 2.0332-11.854 2.8922-3.9366 0.84547-7.8922 1.6333-11.894 2.257-4.0333 0.63418-8.0838 1.196-12.165 1.575-4.2317 0.39672-8.4702 0.7462-12.721 0.93511-4.3976 0.21355-8.7982 0.39637-13.2 0.43763-4.5283 0.0552-9.0564 0.0655-13.579-0.0262-4.5854-0.0876-9.1697-0.19623-13.748-0.37488-4.5253-0.18466-9.046-0.41675-13.545-0.79798-4.1429-0.35611-8.2749-0.77251-12.376-1.3214-4.0216-0.53879-8.0342-1.1163-12.004-1.8321-3.8462-0.69748-7.6917-1.4116-11.44-2.3617-3.344-0.84711-6.6466-1.775-9.8858-2.8257-3.0724-0.96784-6.1199-1.9785-9.1513-3.016-1.5953-0.5438-3.1915-1.0864-4.7728-1.6528-0.5304-0.19001-2.1112-0.77602-1.5863-0.57756 19.209 7.2638 12.324 4.6437 8.6681 3.2512-2.809-1.111-5.5919-2.2707-8.1756-3.6652-2.0264-1.1069-4.0116-2.2596-5.8471-3.5479-1.303-0.94941-2.6533-1.8669-3.8138-2.9226-0.64344-0.61591-1.2722-1.2532-1.7219-1.9682-5.076 1.0103-9.5188 1.5206-16.722-2.1498z"/>
  <path d="m199.59 862.44c-4.7361 0.0558-9.4978 0.19503-14.226 0.54715-4.8658 0.34035-9.7409 0.74523-14.591 1.3375-4.9176 0.59146-9.809 1.1983-14.713 1.9454-4.8465 0.75233-9.6644 1.5874-14.469 2.675-2.0689 0.47239-4.1418 0.99012-6.2012 1.5199-0.96519 4.2231-1.5199 8.6163-1.5199 13.132 0 32.425 26.303 58.729 58.729 58.729s58.729-26.303 58.729-58.729c0-4.6456-0.5608-9.1623-1.5807-13.497-3.4342-1.1061-6.8558-2.1036-10.335-2.979-4.2834-1.0746-8.6114-2.0486-12.95-2.7358-4.3731-0.70219-8.7851-1.2609-13.193-1.5199-4.5702-0.27493-9.1024-0.50951-13.679-0.42556z" stroke="#000" stroke-width="1.9455"/>
  <path transform="matrix(1.9455 0 0 1.9455 -283.01 -10.716)" d="m247.40625,452.46875-.34375.5625c1.23834-.11244 2.47782-.24181 3.71875-.375 .29006-.0315.58198-.0688.875-.0937-1.41166-.0724-2.83188-.11976-4.25-.0937zm5.125.15625c-.48886.2928-.98376.57598-1.46875.875-.72914.05-1.45807.0795-2.1875.125-.56375.0351-1.12338.065-1.6875.0937h-.0937-.4375c-.23596.39104-.47326.81662-.6875,1.1875 1.01056-.007 2.02033-.0301 3.03125-.0625-1.23289.83885-2.4503,1.70654-3.625,2.625-.19043.0299-.18218.0999-.34375-.0312-.002.0718-.006.16218-.0312.25-.23519.0967-.47991.18904-.71875.28125l-.0312.0625h.40625c-.17117.13912-.33411.29006-.5.4375l-.0625-.0937c-.50944,1.01418-.94074,1.91765-1.34375,2.78125h.15625c-.004.006.004.025 0,.0312h-.1875c-.10837.23229-.20837.43309-.3125.65625h.0937l-.15625.25c-.009-.0207-.0239-.0405-.0312-.0625-1.46276,3.1283-2.65359,5.48557-5.5625,7.96875-.0143.0176-.0169.0449-.0312.0625-.56581.69453-1.14728,1.3725-1.71875,2.0625 .0528-.0932.11118-.18402.15625-.28125 .063-.13582.18455-.31849.0937-.4375-.0692-.0907-.19258-.0261-.3125,0-.73222.52446-1.57653,1.05827-2.5,1.625l-.0937.0625c-.18696.1589-.37219.31956-.5625.46875-.57282.44904-1.16643.87753-1.75,1.3125 .46342-.38474.92214-.78993 1.5-1.25-.68447.40271-1.45578.81742-2.25,1.25-.0611.1257-.12669.24956-.1875.375-.43674.36319-.86598.73052-1.375,1.15625-.21397.18416-.4153.37375-.625.5625-.41053.27801-.83201.54174-1.25.8125 .0441.0501.0805.10648.125.15625l.21875-.125-.15625.15625c.0844.0939.16421.18867.25.28125 .52045-.53605 1.03669-1.05888 1.59375-1.5625 .26717-.18048.54836-.34796.8125-.53125-.22906.49574-.46734.96841-.6875,1.46875l.28125-.125-1.375,1.40625 .25.25 7.15625-7.28125c.10103.0885-.007.2838-.0625.40625-.13428.29786-.33066.56434-.5.84375-.28576.47149-.60224.91531-.90625,1.375-.82298.77369-1.64614,1.54005-2.5,2.28125-.5457.47371-.71004.60036-1.21875,1.0625-.14698.13352-.29353.26948-.4375.40625-.3899.42137-.73982.8706-1.0625,1.34375l.4375.40625c.43696-.78333.97789-1.50605 1.59375-2.15625 .8101-.71139 1.61279-1.40689 2.40625-2.125-.24114.35197-.47753.71067-.71875,1.0625-.96616,1.18486-1.92481,2.3776-2.84375,3.59375 .53568.45149 1.08326.8757 1.65625,1.28125 .44596-.73339.90444-1.45756 1.40625-2.15625 1.92242-2.6055 3.8981-5.17408 5.6875-7.875-.0239.0615-.0384.12611-.0625.1875-.42043.59553-.83646,1.18156-1.25,1.78125-.55243.80175-1.89866,2.74481-2.4375,3.5625-.4984.75633-.96834,1.51582-1.4375,2.28125l-1.3125,1.71875-.34375.5c-.0335.0396-.0602.0855-.0937.125 .45553.31694.92918.61977 1.40625.90625 .31718-.48541.61401-.98624.9375-1.46875-.25452.52904-.50563,1.05987-.75,1.59375 .26944.15854.56793.28897.84375.4375 .25088-.22848.50587-.45265.75-.6875-.0989.25873-.18056.52317-.28125.78125 .0685-.0918.059-.0516.0937-.0937-.0575.0796-.1192.14157-.15625.21875-.004.008.003.0237 0,.0312 .44412.22829.88458.42323 1.34375.625 .008-.0315.0227-.0623.0312-.0937 .34454-.9582.77079-1.89537 1.21875-2.8125-.33629,1.00374-.69174,1.99895-1.03125,3 1.00324.42908 2.05898.79833 3.125,1.09375 .0119-.23927.0192-.48118.0312-.71875 .0683-.76307.14077-1.52156.21875-2.28125l.6875-1.75c.51835-1.32525 1.08158-2.63595 1.65625-3.9375-.0887.50658-.17006,1.0201-.25,1.53125-.39124,2.50168-.49885,3.64968-.78125,6.15625-.0431.44531-.0875.89447-.125,1.34375 .37289.0795.74612.15623 1.125.21875 .30049.0496.60223.11757.90625.15625 .0352-.3117.0603-.62456.0937-.9375 .009-.0836.0224-.16643.0312-.25 .029-.00043.0731-.016.0937-.0312 .2875-.21178.44409-.32383.59375-.4375-.0674.40688-.14688.81773-.1875,1.0625-.0238.18683-.0643.42616-.0937.65625 .38071.0402.77061.071 1.15625.0937 .008-.0829.0165-.174.0312-.25 .069-.35691.1304-.73476.1875-1.09375 .25037-1.73197.45481-3.44981.65625-5.1875 .017.0822.0181.1674.0312.25 .0256.16157.0314.30813.0625.46875 .0146.0755.0355.20366.0625.28125 .008.10378-.007.20867 0,.3125-.002,1.00891.004,2.02234 0,3.03125-.007.56129-.0102,1.12462 0,1.6875-.0313.17664-.0555.3555-.0937.53125h.53125 .53125c-.006-.0219.005-.0427 0-.0625 .087-.19527.0627-.44662.0625-.84375 .019.24025.0445.4784.0625.71875 .004.0502.0255.10325.0312.15625 .76083-.0207 1.50773-.0684 2.25-.15625 .0719-.35303.13861-.70371.1875-1.0625 .11638-.85475.21945-1.70268.28125-2.5625 .0559.15091.0144.0506.21875.59375 .13734.36506.26354.73408.40625,1.09375-.0436.60241-.10401,1.20763-.15625,1.8125 .54052-.0848 1.06539-.19333 1.59375-.3125 .012-.22918.0194-.45962.0312-.6875 .007.0525.0209.10387.0312.15625 .0528.22798.0954.38018.125.5 .36741-.0859.73281-.17924 1.09375-.28125-.006-.15577-.0195-.31674-.0312-.46875-.0219-.28239-.0666-.56181-.0937-.84375-.0343-.35717-.0553-.70573-.0937-1.0625-.0241-.1978-.0695-.39611-.0937-.59375 .007-.0257.007-.0615 0-.0937-.1228-.99549-.24418-1.98293-.4375-2.96875-.11316-.57707-.23041-1.03337-.34375-1.5 .009-.57286.0233-1.14588.0312-1.71875 .66144,2.1847 1.36327,4.36873 2.09375,6.53125 .0636.77811.11932,1.56276.1875,2.34375 .32446-.11006.65047-.22078.96875-.34375-.0006-.0104.00059-.0209 0-.0312l.125-.0312 .3125-.125c-.18839-.51559-.34898-1.04512-.53125-1.5625-.0393-.91764-.0689-1.83172-.0937-2.75 .21733.36087.46472.70517.6875,1.0625l.0312.0312c.0755.97694.14404,1.94656.15625,2.8125 .001.10019-.0185.2095-.0312.3125 2.00442-.84145 3.86632-1.93795 5.5625-3.25-.47988-.64477-.9575-1.29224-1.40625-1.90625-.16244-.75459-.31943-1.50201-.5-2.25 .66163.78264 1.30205,1.59113 1.875,2.4375 .27297.40324.50371.78408.75,1.1875 1.03638-.86317 1.99165-1.82505 2.875-2.84375-.0959-.10227-.18471-.20966-.28125-.3125 .67662-.15971.19893-.55306-.21875-1.0625-.32984-.34191-.66091-.66777-1-1-.38214-.44745-.77206-.8982-1.15625-1.34375 1.27624.75867 2.57029,1.47577 3.90625,2.125 .42596-.58042.84361-1.16397 1.21875-1.78125-.29084-.18905-.58491-.37364-.875-.5625-.0381-.0782-.16694-.12777-.28125-.1875l-.0937-.0312c-.0347-.0271-.0588-.0669-.0937-.0937-.14727-.11325-.28914-.23193-.4375-.34375 .14742.038.28989.0878.4375.125 .45905.35083.92232.70136 1.375,1.0625 .25293-.41776.45901-.8791.6875-1.3125-.87326-.66619-2.11207-1.57542-2.59375-1.9375-.19001-.14339-.37349-.29284-.5625-.4375 1.1286.66664 2.24767,1.34724 3.34375,2.0625 .13605-.26763.24848-.53939.375-.8125-.56354-.34668-1.11823-.6933-1.6875-1.03125 .29963.0951.60627.18723.90625.28125l.125.0625c.0501.0156.10614.0157.15625.0312 .0716.0258.14471.0805.21875.0937 .11397.0532.22705.0884.34375.0625l.125-.0312 .0625.0312c.11143-.2556.20952-.52126.3125-.78125l-.125-.0312c.0502-.11284-.17784-.15115-.28125-.21875-.29573-.19324-.62461-.36347-.9375-.53125 .0396-.1039.0948-.15792.15625-.1875 .0471-.0445.19866-.11811.34375-.1875 .24636.1321.43417.24553.59375.34375-.16464.0115-.29799-.003-.4375,0 .26265.18034.55494.4295.8125.53125 .15695-.41111.30213-.82875.4375-1.25-.22164-.0751-.46463-.12424-.65625-.21875-.34554-.17041-.60602-.2955-.90625-.4375l1.625.4375c.0608-.19553.1314-.39618.1875-.59375-2.08063-.5563-4.1605-1.15633-6.21875-1.78125-.45413-.19308-.88933-.40134-1.34375-.59375l3.625.28125h.0625c.0526.004.10366.0272.15625.0312 1.03515.18088 2.08631.33788 3.125.5 .31173.0468.62405.10928.9375.15625 .21682-.9797.37163-1.98061.46875-3l-1.15625-.0625h1.1875c.0174-.18779.0181-.37352.0312-.5625-2.24939.004-4.49699.0103-6.75,0 1.14274-.10006 2.29218-.18153 3.4375-.25l3.3125.125c.0347-.53708.0625-1.07916.0625-1.625 0-.313-.0194-.62736-.0312-.9375-.31391-.038-.62224-.0906-.9375-.125 .0199-.0451.0574-.0721.0625-.125 .0294-.30747-.60017-.17685-.90625-.21875-.67929-.0929-2.23489-.1926-3.28125-.25h1.84375c1.0529.003 2.10335.0271 3.15625.0312h.0312c-.0167-.25261-.0694-.49952-.0937-.75l-3.0625-.0312h-2l.15625-.0937c.0225-.0123.0363-.0283.0312-.0312 1.31589-.0493 2.62511-.0999 3.9375-.21875 .25085-.20894.86563-.34144.8125-.625h-.0312c-.003-.0114.005-.0193 0-.0312h.0625c-.0486-.3479-.0936-.68808-.15625-1.03125l-.25-.0312c-.66787-.0593-1.21241-.0921-1.78125-.125l1-.0937c.31245-.0336.62482-.0853.9375-.125-.0416-.20951-.0784-.4174-.125-.625-.55684-.007-1.103.008-1.65625.0312h-9.125c.29861-.15904.58496-.32655.875-.5 2.32229.002 4.64672.0264 6.96875.0625l1.75.0312c.38653.0644.7706.14607 1.15625.21875-.007-.032-.0237-.0618-.0312-.0937-1.27339-.41014-2.52715-.78942-3.8125-1.125-.83319-.10733-1.6621-.21835-2.5-.3125h.375c.31212.0247.631.048.9375,0-1.59664-.38966-3.19931-.74445-4.8125-1-.39416-.0633-.79202-.0991-1.1875-.15625h-.15625-.25c-1.26786.00028-2.54465.006-3.8125,0-.24793-.001-.51288-.0724-.75,0h-.0937-.0625c.2359-.12329.4514-.25204.6875-.375 .0294-.0153.0642-.0161.0937-.0312 .0167-.007.0434.009.0625,0 .0102-.003.0206-.0276.0312-.0312h.0312c-.0625-.004-.12502-.0276-.1875-.0312h-.21875l-.875.5c-.0532.006-.10738-.014-.15625,0 .25596-.16797.49047-.36911.75-.53125h-.15625zm14.3125,17.09375c-.18991-.1304-.36951-.21909-.5-.15625-.13918.13173.1099.16554.5.15625zm-15.0625-16.5c-.0493.0345-.0763.0968-.0937.15625-.0441.0271-.0813.066-.125.0937h-.15625l.375-.25zm6.59375,1.25 1.28125.125-.4375.34375c-.98511-.004-1.98493.009-2.96875-.0312 .0725-.0164.14628-.0462.21875-.0625 1.00456-.22638 1.33606-.2726 1.90625-.375zm-2.625.125c-.18506.0484-.34281.10272-.5.1875-.27322-.0618-.55925-.0577-.5.375-.0808.0739-.15551.1213-.25.21875-.0668.0688.18925.0668.28125.0937 1.20275.0525 2.39003.035 3.59375.0312-.12195.0756-.17237.1168-.34375.21875-.0615.0365-.1222.0645-.1875.0937l-.40625.1875h-3.15625c-.38271-.00042-.76071-.0392-1.09375.0625-.30297.0128-.55649.11054-.5625.4375-.0382.0528-.0894.0919-.125.15625-.048.0867.0519.10754.1875.0937 .10496.0543.30732-.004.5-.0625 .80052.0402 1.60543.0909 2.40625.125l-.78125.3125c-.10091.039-.21099.0565-.3125.0937-1.54242.0742-3.07997.15177-4.625.1875-.27116.006-.5413-.004-.8125,0h-.0312-.25c-.17826-.0274-.37471-.11449-.5,0-.007.007.006.0238 0,.0312h-.78125-.0937c2.29928-1.00577 4.62956-1.95425 7-2.78125l1.34375-.0625zm4.3125.0625c.95859.10261 1.91799.19576 2.875.3125l-3.28125-.0312c.13439-.092.27462-.18497.40625-.28125zm-6.625.0312c-1.82884.68753-3.61405,1.44286-5.40625,2.21875l-1.125.5c-.32901-.0225-.67709-.0487-1,0 1.11154-.89389 2.26182-1.7533 3.4375-2.5625 .55243-.0173 1.10377-.0514 1.65625-.0625l2.4375-.0937zm8.53125,1.875h2.5c-.33275.0288-.66711.0664-1,.0937-.49905-.026-1.00098-.0673-1.5-.0937zm-5.8125.28125c.73806.0319 1.48108.0538 2.21875.0937l.65625.0312c-1.22959.0743-2.45787.15567-3.6875.21875 .27018-.11367.54476-.22419.8125-.34375zm6.5625.34375c.32417.0182.24481.001.78125.0312 1.1639.065 2.33755.12224 3.5.21875-2.06112.007-2.6212-.001-4.75,0h-3.0625c1.17447-.0867 2.35729-.15774 3.53125-.25zm-16.6875.875c.0419-.005.0831.005.125,0h.75 .53125 .15625c1.28244.0125 2.56138.0444 3.84375.0625l-.15625.0312-.4375.3125-.65625.0625c-.27184.0255-.55922-.0394-.8125.0625-.0766.0308-.14662.0855-.21875.125-.0494.0441-.14472.0542-.21875.0937l-1.6875.0312h-.0312c-.31263.008-.62508.0261-.9375.0312l.0312-.0625c.1142-.14061.24593-.30052.1875-.375 .0229-.0612.0421-.12555.0625-.1875-.0942.0532-.18312.10868-.28125.15625-.17682.0225-.35231.12813-.53125.21875 .033-.1416.0373-.29433.0625-.4375 .064-.0308.15417-.0944.21875-.125zm6.78125.0937 1.78125.0312c-.83925.0468-1.66163.12343-2.5.1875 .24176-.0701.47911-.14184.71875-.21875zm10.3125.25c-2.80115.12-5.60341.24098-8.40625.3125 .72725-.0397 1.45997-.0896 2.1875-.125 2.07306-.0727 4.14423-.15628 6.21875-.1875zm.625.46875c.14593-.005.2916.005.4375,0-.0687.012-.21474.0513-.375.0937-.003-.033-.0292-.0685-.0625-.0937zm-17.90625.9375h.0625l-.125.0937c.0203-.0317.0456-.0606.0625-.0937zm.53125,0h.25c.0155.0263.0217.0674.0312.0937-.0168.0631-.0469.124-.0625.1875h-.53125c.10585-.0926.2061-.18923.3125-.28125zm1.09375.0312c.41675.005.83336-.006 1.25,0-.0282.0225-.0698.0396-.0937.0625-.064.061-.0487.13043-.0312.21875-.2687-.007-.96989.002-1.1875,0 .024-.0916.042-.18857.0625-.28125zm2.21875,0c2.4477.0385 4.89513.10973 7.34375.1875l1.28125.0625c1.59887.11234 3.18645.23534 4.78125.375-2.23827.029-4.48013.0358-6.71875.0312-2.14189-.13451-4.26209-.25395-6.40625-.34375-.20157-.005-.1187.004-.28125,0 .0142-.10342.017-.2254 0-.3125zm15.71875.84375 .9375.0937c-.13604.063-.25424.1021-.375.125h-.28125-.0312c-.10475-.0334-.18192-.0912-.25-.21875zm1.65625.1875 .71875.0937c-.56249-.0159-1.12505-.0141-1.6875-.0312 .0935-.004.18775-.0266.28125-.0312 .12387-.006.39712-.005.6875-.0312zm-23.875.96875h.0625c-.0324.0723-.0609.14663-.0937.21875 .003-.0658.031-.17601.0312-.21875zm9.78125.8125h1.53125 .125c.006.007-.007.0252 0,.0312 .0863.0736.17604.12964.28125.15625-.63933-.0586-1.26873-.11134-1.90625-.15625-.004-.005-.0274.004-.0312,0-.006-.004.005-.0254 0-.0312zm5.28125.0312h.125c.93921.0203 1.87342.064 2.8125.0937-.56198.0578-1.12649.0874-1.6875.15625h-.0312c-.29087-.0633-.58447-.12248-.875-.1875l-.34375-.0625zm-10.40625.5625c.0941.004.18718.0276.28125.0312l.75.0937c.008.005.0224-.004.0312,0 .004.0833.027.16673.0312.25-.14837-.0443-.27519-.0102-.4375.21875-.11096-.10572-.2114-.21053-.3125-.25-.11735-.11293-.22648-.23074-.34375-.34375zm-3.5.15625c.14644.22041.27454.46342.40625.75-.1763.0657-.35323.13584-.53125.1875-.0357.22253.0776.50771.1875.75l-.34375-.125c.0123-.13548.0138-.2713.0312-.40625 .0493-.38212.27435-.7811.25-1.15625zm21.28125,1.40625c.76846.13406 1.54287.24767 2.3125.375 .22241.0297-.80882-.0738-1.6875-.1875-.20861-.0608-.4162-.12735-.625-.1875zm-18.71875.1877c.21767.12763.43609.25224.65625.375-.18724.17841-.32133.47879-.40625.8125-.0777-.3977-.16975-.79025-.25-1.1875zm-6.125.875c-.0125.072-.0186.14676-.0312.21875-.0533.0721-.10177.14768-.15625.21875l.0312-.15625c.0563-.0913.10336-.18849.15625-.28125zm17.375,0c.95505.30161 1.91627.58515 2.875.875 .50898.22306 1.02458.42702 1.53125.65625 .76457.35072 1.52149.70147 2.28125,1.0625 .11251.0535.23159.10204.34375.15625-1.51785-.51656-3.02619-1.04097-4.53125-1.59375-.82968-.39629-1.66667-.76783-2.5-1.15625zm-13.71875.71875 .3125.125c-.0454.20327-.0692.33671-.0937.46875-.12319.0922-.24949.19714-.34375.3125-.0134-.0299-.0178-.0638-.0312-.0937-.0212-.13956-.0634-.22756-.0937-.34375l.25-.46875zm14.4375.53125 .125.0312c.0435.0162.0815.0463.125.0625 .50541.24299.99567.50466 1.5.75-.44629-.1707-.89523-.33528-1.34375-.5-.138-.11037-.26819-.23344-.40625-.34375zm-10.1875,1.15625c.13586.0507.27033.10527.40625.15625 .001.12557-.0007.2494 0,.375 .001.19974-.0001.36892 0,.5625-.0457.11352-.08.22998-.125.34375-.0393-.064-.0855-.12366-.125-.1875-.0261-.27212-.0664-.54049-.0937-.8125-.0148-.14774-.0478-.28977-.0625-.4375zm-2.4375.75c.0903.17059.17043.28679.25.4375 .0632.29093.10148.58286.15625.875-.036.34312-.0576.68814-.0937,1.03125-.002.01.002.0212 0,.0312s.001.021 0,.0312c-.0471.22028-.10774.43627-.15625.65625-.0375-.0804-.0563-.16957-.0937-.25-.007-.93737-.0453-1.87534-.0625-2.8125zm-8.125.28125-.0312.0937-.3125.3125c.11478-.13476.22783-.27239.34375-.40625zm20.625.1875c.39569.16549.79086.33692 1.1875.5 .39525.26496.79715.50925 1.1875.78125 .60109.42817 1.18549.87516 1.78125,1.3125-.24907-.0649-.50082-.12397-.75-.1875-.54827-.35895-1.09749-.72015-1.65625-1.0625-.59405-.43401-1.17284-.8877-1.75-1.34375zm-17.65625.875c-.002.0831.002.16687 0,.25-.006.30157.003.60406 0,.90625-.38256.6426-.78799,1.27355-1.1875,1.90625 .0952-.38666.18999-.76913.28125-1.15625 .3112-.63458.59877-1.26963.90625-1.90625zm9.125.5c.27444.31622.48444.60947.625.78125 .11832.23724.22619.48114.34375.71875 .058.20674.0969.41866.15625.625 .065.5425.15874,1.08195.21875,1.625-.13196-.27328-.27424-.53952-.40625-.8125-.31735-.66056-.60296-1.27455-.9375-1.90625 .003-.34372-.003-.68752 0-1.03125zm-13.15625.125c-1.3643,1.8067-2.72747,3.64028-4.0625,5.46875-.2444.34209-.50038.66265-.75,1 1.08429-1.82108 2.29327-3.58374 3.5625-5.28125 .41573-.39682.84116-.78367 1.25-1.1875zm17.40625,2.25c.0151.0166.0161.0459.0312.0625 .047.16878.10852.33143.15625.5l-.15625-.25c-.0107-.10382-.0204-.2087-.0312-.3125zm-22.375.375-2.875,2.9375c.17596-.39841.34692-.79338.53125-1.1875l1.15625-.84375c.0119-.009.66281-.50298 1.1875-.90625zm8.21875.0937c-.16609.46764-.33616.9301-.5,1.40625-.23974.44811-.4763.89706-.71875,1.34375 .13914-.49835.27516-.99927.40625-1.5 .27489-.41106.54538-.83387.8125-1.25zm-2.34375.25c-.36923,1.32357-.66905,2.3654-1.03125,3.5625l-.375.78125-.0312.0625c-.31269.41658-.64624.80976-.96875,1.21875 .80292-1.87578 1.61103-3.74599 2.40625-5.625zm7,.65625c.0568.15783.12843.31098.1875.46875-.0163.29249-.0449.5826-.0625.875-.0165-.45507-.0775-.89156-.125-1.34375zm3.03125.31255c.0721.36426.14795.72653.21875,1.09375-.0461-.1058-.0779-.20369-.125-.3125-.0192-.0424-.0433-.0826-.0625-.125-.007-.21879-.0209-.43767-.0312-.65625zm8.1875.875c.10327.29807.19938.53324.28125.8125-.0163-.0238-.0463-.0386-.0625-.0625-.0766-.24826-.14339-.50136-.21875-.75zm-2.75,1.03125c.0451.0871.11091.16305.15625.25 .005.0517-.005.10454 0,.15625-.0481-.13525-.10899-.27071-.15625-.40625zm-1.8125.84375c.0985.14268.18235.295.28125.4375 .0185.23025.0457.45708.0625.6875-.11921-.37366-.22746-.75041-.34375-1.125zm-3.5625.59375c.0699.1479.14971.28912.21875.4375 .13007.31001.26885.63032.40625.9375 .0181.0529.0449.10312.0625.15625 .004.1155-.004.22824 0,.34375-.0281.53432-.0634,1.05931-.0937,1.59375-.0232-.0577.25821.6243-.65625-1.6875 .0198-.41568.0427-.83459.0625-1.25 .006-.17739-.004-.35384 0-.53125zm-13.03125.25c-.37793,1.04519-.76634,2.08423-1.15625,3.125-.34804.37738-.72559.73768-1.09375,1.09375 .63829-1.18198 1.25298-2.35577 1.84375-3.5625l.0312-.0312c.12589-.20646.24734-.41957.375-.625zm-1.875.375c-.41373.6269-.82778,1.25416-1.25,1.875 .24054-.39485.4784-.79088.71875-1.1875l.53125-.6875zm-2.875.90625c-.1481.27301-.29407.53671-.4375.8125-.11042.13898-.23297.26752-.34375.40625 .23723-.4157.52147-.81723.78125-1.21875zm5.125.6875c-.30913.5899-.62297,1.17946-.90625,1.78125 .19801-.51731.41555-1.01041.5625-1.375l.34375-.40625zm11.71875,0c.005.0125.0263.0187.0312.0312-.0881,1.61701-.18883,3.24269-.4375,4.84375-.0216-.0936-.0412-.18759-.0625-.28125 .0223-.16665.0423-.33309.0625-.5 .0912-.75283.1655-1.4964.25-2.25 .0513-.61434.10491-1.22945.15625-1.84375zm-4.96875,2.03125c.0501.0192-.027.0979-.0937.125-.00024-.0113-.031-.0202-.0312-.0312 .0457-.0355.0869-.062.125-.0937zm-8.15625.9375c-.0254.0611-.0377.12623-.0625.1875 .005-.0559-.007-.13206 0-.15625 .0169-.0153.0461-.0154.0625-.0312zm16.125,1.25c.0333-.009-.072.0675-.15625.125 .00054-.0105-.00054-.0208 0-.0312l.0625-.0625 .0937-.0312z" fill="#cdde87" filter="url(#l)" opacity=".52453"/>
  <path transform="matrix(.82146 0 0 .82146 39.494 196.44)" d="m248.35 839.32c-5.9295-0.0417-11.001-0.10743-1.4392-0.80633-18.475 0.46509-22.314 0.29953-0.19947-1.7441-28.585 1.5406-31.213 1.2044-0.40967-3.54-34.872 3.8307-36.313 3.2531-1.1282-5.9249-36.204 7.5742-37.114 6.8538-4.042-6.2573l-0.14371-0.0607c-29.701 10.056-30.846 9.5685-7.0824-2.7135l-0.48903-0.17315c-17.283 7.7878-17.244 7.0964-3.3203-1.1539l-0.64346-0.21864c-5.1777 2.6262-5.0844 2.2888-1.0467-0.33871-0.78181-0.25151-1.5625-0.49922-2.3379-0.73556-2.1556 1.2082-2.4988 1.231-0.66706-0.19968l-0.92444-0.27425c-8.5677 5.389-9.6562 5.5558-2.2328-0.63192l-1.0789-0.29574c-10.636 7.4743-11.935 7.516-3.7364-0.92513l-1.4725-0.32986c-8.484 7.0876-9.6144 6.9726-3.8736-0.75957-0.62309-0.10869-1.243-0.21864-1.8575-0.31217-3.7986 3.8143-4.4378 3.6955-2.1824-0.30332-2.7647-0.35134-5.4512-0.55735-8.0379-0.58389-13.12-0.13144-25.034 0.69385-35.957 2.1928 2.1245 3.3985 1.4864 3.4983-2.1127 0.29447-0.67563 0.0986-1.3373 0.20474-2.0022 0.31091 6.0239 7.2708 4.8045 7.353-4.1192 0.68247l-1.5733 0.27552c9.1629 8.426 7.6561 8.316-4.2737 0.83413-0.36678 0.0746-0.72925 0.15166-1.0939 0.22875 9.149 6.7603 7.7698 6.4999-2.7647 0.59653-0.28527 0.0645-0.56303 0.12892-0.84616 0.19464 4.0409 2.6781 3.2924 2.515-1.1003 0.24897-0.85366 0.19842-1.6977 0.40443-2.5395 0.6117 6.8958 3.8661 7.3333 4.4272-1.5894 0.39052l-0.50083 0.13144c17.888 9.2424 18.02 9.9755-4.4528 1.1969l-0.27132 0.0771c28.593 12.75 28.233 13.527-5.4737 4.0948 35.735 11.912 35.516 12.81-1.7502 7.1205 35.641 7.243 34.236 7.8952-0.79789 5.9792 31.023 3.0522 28.416 3.5337-0.21127 3.5602 22.196 0.82782 18.372 1.2032-0.10081 1.7517 9.5854 0.17567 4.5268 0.51817-1.392 0.88469 5.9284 0.0442 11.002 0.10995 1.4381 0.80759 18.475-0.46636 22.316-0.29953 0.20054 1.7428 28.584-1.5406 31.213-1.2019 0.41074 3.5438 34.872-3.8332 36.31-3.2556 1.1282 5.9211 36.89-7.717 37.16-6.831 2.1416 7.0092 34.408-11.693 33.53-10.43 2.3529 5.499 28.291-12.954 26.284-11.243 1.6044 3.1116 19.557-10.417 16.444-8.1884 0.77644 1.5116 8.3532-4.661 4.1525-1.8452-0.77644 1.4155 5.1338-2.9334 9.5404-5.4244 1.6258-0.0645 15.711-9.6304 19.103-11.412 1.0102 1.3384 23.914-15.568 26.342-16.599 2.0666 2.7501 28.223-20.614 29.741-20.843 3.8265 4.4171 28.092-24.877 28.749-24.259 5.211 4.8835 24.046-27.013 23.895-25.497 4.6672 3.5451 18.172-25.069 17.266-22.61 2.8827 1.8932 11.864-18.595 10.251-15.14 1.406 0.92513 4.9686-8.1214 2.7025-3.626 0.0236 1.6089 3.0178-5.0528 5.6239-9.3587 1.3867-0.84172 8.9184-16.029 10.995-19.229 1.5647 0.68247 13.117-25.195 14.735-27.272 3.228 1.4168 14.346-31.708 15.572-32.645 5.6786 2.0272 12.027-35.394 12.937-35.176 7.1907 1.7352 7.3119-35.303 7.9725-33.911 6.0389 0.78737 3.0811-30.725 3.5669-28.143 3.5948 0.21106 0.83865-21.984 1.2172-18.194 1.7706 0.0998 0.17373-9.4952 0.51905-4.4828 0.89226 1.3788 0.0451-5.8718 0.11154-10.896 0.81613-1.4243-0.4708-18.299-0.30243-22.102 1.7588-0.19716-1.554-28.312-1.2161-30.916 3.5734-0.40443-3.8672-34.539-3.286-35.965 5.9788-1.1185-7.7912-36.541-6.8979-36.807 7.077-2.1207-11.805-34.082-10.53-33.211 5.5531-2.333-13.079-28.022-11.354-26.033 3.1433-1.5899-10.52-19.371-8.2696-16.287 1.525-0.76715-4.7059-8.2756-1.8628-4.115 1.4285 0.76715-2.9642-5.0832-5.4737-9.4497-0.0643-1.6089-9.7238-15.562-11.524-18.922 1.3523-1.001-15.72-23.684-16.762-26.092 2.7733-2.0449-20.81-27.955-21.044-29.459 4.4613-3.7902-25.116-27.823-24.494-28.474 4.9332-5.159-27.275-23.82-25.747-23.67 3.5766-4.6244-25.314-18-22.829-17.101 1.9132-2.8563-18.774-11.75-15.29-10.152 0.93409-1.3915-8.1998-4.9214-3.6634-2.6768 1.6269-0.024-5.1026-2.9915-9.4535-5.571-0.85259-1.3751-16.183-8.8342-19.415-10.89 0.69172-1.5507-25.44-12.994-27.539-14.592 1.4285-3.195-32.013-14.209-32.961-15.424 2.0451-5.6228-35.735-11.915-35.516-12.812 1.7534-7.123-35.641-7.243-34.24-7.8977 0.79575-5.9792-31.023-3.0547-28.415-3.5312 0.21127-3.5602-22.194-0.82908-18.372-1.207 0.10295-1.7542-9.5887-0.16935-4.5278-0.51438 1.3899-0.88342z" fill="#cdde87" filter="url(#j)" opacity=".39623"/>
  <path transform="matrix(.63717 0 0 .63717 39.782 577.63)" d="m270 481.47c0 16.667-13.511 30.179-30.179 30.179s-30.179-13.511-30.179-30.179 13.511-30.179 30.179-30.179 30.179 13.511 30.179 30.179z" fill="#445016" filter="url(#m)" opacity=".72075" stroke="#000"/>
  <path transform="matrix(.58196 0 0 .58196 53.023 604.22)" d="m270 481.47c0 16.667-13.511 30.179-30.179 30.179s-30.179-13.511-30.179-30.179 13.511-30.179 30.179-30.179 30.179 13.511 30.179 30.179z" stroke="#000"/>
  <path transform="matrix(1.9455 0 0 1.9455 -283.01 -10.716)" d="m216.94 453.93c-0.39814 3.0648-0.24706 7.0722 0.24614 10.28 0.56157 3.652 1.7116 7.0561 3.307 10.175l17.222-6.6018c-4.3502-3.8538-4.8193-6.9063-3.2798-11.866l-6.6294-4.1206c-3.8545 0.80467-7.7113 1.0703-10.866 2.1333z" fill="url(#d)" filter="url(#k)" opacity=".93208"/>
  <path d="m91.298 938.88c29.858 24.345 155.21 45.599 240.44-16.605" fill="none" stroke="#000" stroke-linecap="round" stroke-width="1.8598"/>
  <path d="m134.64 851.2c-3.9557 7.464-5.1772 14.808-8.6346 21.587l-24.742 11.125c13.239-10.43 25.79-19.788 33.376-32.712z"/>
  <path d="m146.99 852.86c-4.3298 5.1581-6.7284 10.73-10.567 15.44l-19.589 4.1836c11.425-5.7736 22.145-10.829 30.156-19.623z"/>
  <path d="m174.52 842.26c-5.6476 8.4405-16.388 22.665-26.005 28.129l-23.401 3.002c18.27-9.069 35.43-15.503 49.405-31.131z"/>
  <path d="m186.58 836.26c-6.2346 9.6712-13.211 25.104-23.422 30.314l-23.045 5.0549c18.129-10.442 35.618-19.231 46.466-35.369z"/>
  <path d="m196.77 838.23c-3.2722 8.5653-12.665 20.174-19.854 24.92l-19.534 4.1555c14.425-8.7599 27.019-14.67 39.388-29.076z"/>
  <path d="m218.8 832.6c-6.8046 7.0093-16.361 19.963-22.417 26.329l-22.056 4.3904c16.552-9.7945 32.019-18.583 44.474-30.719z"/>
  <path d="m222.91 840.81c-4.442 5.0618-6.9623 10.579-10.903 15.204l-19.676 3.7524c11.549-5.5214 22.378-10.34 30.579-18.956z"/>
  <path d="m258.83 843.58c-8.9674 6.0046-14.909 13.728-22.908 19.273l-33.698-3.8597c20.85-3.1491 40.284-5.5177 56.606-15.413z"/>
  <path d="m357.14 890.74c-7.5995 6.0046-21.602 14.724-28.38 20.269l-20.588-9.6715c17.67-3.1491 35.136-0.70218 48.968-10.598z"/>
  <path d="m347.51 883.1c-7.5995 6.0046-21.602 14.724-28.38 20.269l-20.588-9.6715c17.67-3.1491 35.136-0.70221 48.968-10.598z"/>
  <path d="m335.46 876.75c-7.5995 6.0046-21.602 14.724-28.38 20.269l-20.588-9.6715c17.67-3.1491 35.136-0.70219 48.968-10.598z"/>
  <path d="m334.21 869.37c-9.7642 6.5948-27.755 16.171-36.464 22.262l-26.452-10.622c22.703-3.4586 45.144-0.77122 62.916-11.64z"/>
  <path d="m280.01 844.18c-8.3581 6.2792-14.502 14.999-21.987 20.831l-27.135-8.5798c17.685-1.434 34.077-2.0806 49.123-12.251z"/>
  <path d="m290.69 847.33c-9.7121 9.5942-16.492 23.576-26.387 27.226l-32.565-11.214c11.019 2.9081 24.343 3.1147 58.952-16.012z"/>
  <path d="m239.81 841.46c-9.6371 7.541-16.022 17.24-24.618 24.205l-36.215-4.8473c22.407-3.9548 43.292-6.9295 60.833-19.357z"/>
  <path d="m161.81 847.44c-4.7074 6.1859-13.477 16.524-20.6 20.105l-16.303 0.68095c13.402-5.7799 25.781-9.5824 36.903-20.786z"/>
  <path d="m307.67 857.86c-9.3114 4.3927-18.034 13.781-26.374 17.86l-28.352-9.2898c19.702-1.0032 37.964-1.4555 54.725-8.5705z"/>
  <path d="m318.85 862.37c-9.076 4.7854-17.578 15.012-25.707 19.457l-27.635-10.12c19.204-1.0928 37.004-1.5856 53.342-9.3366z"/>
  <g transform="matrix(.82146 0 0 .82146 44.423 195.62)">
   <path d="m133.33 925.1c-2.7999-5.1262-3.3154-11.354-5.7449-16.07l-19.976 0.71599c10.378 3.7437 20.255 6.8048 25.72 15.354z"/>
   <path d="m139.16 923c-1.8306-3.9242-1.6515-8.3052-3.2138-11.896l-16.702-2.1792c8.2756 3.9818 16.2 7.4237 19.916 14.075z"/>
   <path d="m161.12 932.76c-1.6348-6.5112-5.5477-17.408-12.247-21.251l-20.829-0.9804c13.306 6.2342 26.72 10.395 33.077 22.232z"/>
   <path d="m172.19 937.18c-1.6494-7.4754-1.4681-19.59-8.8421-23.189l-19.59-2.672c12.569 7.3595 25.259 13.415 28.432 25.861z"/>
   <path d="m180.7 932.65c0.69937-6.7609-3.2631-15.615-8.201-19.025l-17.438-2.1597c10.259 6.223 20.014 10.243 25.639 21.185z"/>
   <path d="m195.64 935.28c-3.3592-5.2751-6.7094-15.212-9.6433-20.011l-18.946-2.1933c11.361 6.9315 22.136 13.113 28.59 22.204z"/>
   <path d="m201.71 928.35c-1.9791-3.8389-1.939-8.1684-3.6358-11.683l-16.974-1.8231c8.5038 3.769 16.635 7.0118 20.61 13.506z"/>
   <path d="m240.65 926.43c-5.848-4.323-8.0766-10.232-13.209-14.243l-33.592 5.2424c18.35 1.2592 35.704 1.9721 46.802 9.0002z"/>
   <path d="m354.42 884.23c-4.5532-4.4085-13.973-10.625-17.951-14.711l-23.738 9.15c15.34 1.4577 32.947-1.6224 41.689 5.5612z"/>
   <path d="m341.95 891.04c-4.5533-4.4084-13.973-10.625-17.951-14.711l-23.738 9.15c15.34 1.4577 32.947-1.6224 41.689 5.5612z"/>
   <path d="m327.76 896.95c-4.5533-4.4084-13.973-10.625-17.951-14.711l-23.738 9.15c15.34 1.4577 32.947-1.6224 41.689 5.5612z"/>
   <path d="m323.33 903.03c-6.3426-4.7533-19.161-11.418-24.726-15.827l-29.707 10.289c19.968 1.3953 42.39-2.191 54.433 5.5377z"/>
   <path d="m261.24 922.9c-5.1505-4.5844-7.1319-11.292-11.653-15.567l-29.456 8.671c16.108 0.062 31.34-0.43543 41.109 6.896z"/>
   <path d="m272.45 923.68c-4.9748-7.1956-5.245-18.142-13.007-20.492l-35.753 11.152c11.708-3.0527 24.41-4.0525 48.759 9.3406z"/>
   <path d="m228.29 927.62c-5.8064-5.5306-7.5861-13.019-12.66-18.146l-36.408 6.2026c19.47 1.8172 37.93 2.9324 49.069 11.944z"/>
   <path d="m150.51 927.35c-1.7361-4.7365-5.4917-12.596-10.659-15.063l-15.131 0.46398c10.144 3.8635 20.189 6.1828 25.791 14.599z"/>
   <path d="m296.39 914.05c-6.8821-2.9908-11.011-10.08-17.111-12.877l-30.919 9.3243c18.207-0.41417 35.293-1.1864 48.03 3.5531z"/>
   <path d="m312.19 909.68c-6.4867-3.3248-10.038-11.111-15.778-14.217l-30.606 9.9548c17.696-0.31015 34.327-1.0206 46.384 4.2625z"/>
  </g>
  <path d="m79.315 882.76c25.394-38.916 144.31-95.779 241.62-26.322" fill="none" stroke="#000" stroke-linecap="round" stroke-width="2.0918"/>
  <path d="m79.179 879.5c3.2017-8.7579 28.215-33.146 46.258-39.396" fill="none" stroke="#000" stroke-linecap="round" stroke-width="2.0918"/>
  <path d="m77.343 886.7c24.921-38.916 141.63-95.779 237.12-26.322" fill="none" stroke="#000" stroke-linecap="round" stroke-width="1.6701"/>
  <path d="m26.36 820.84c2.8012 5.4052 3.3212 7.0267 2.5523 3.791-3.0032-12.641 10.086-19.646 10.086-19.646-4.4219 6.9232-1.8778 11.734-1.8778 11.734s5.2762-14.808 16.311-15.93c-7.9213 11.89 9.1461-0.63005 13.743-0.75656-1.5986 1.6618-1.9731 2.5588-0.73028 3.248 1.0999-0.0501 2.3108-0.1413 3.5602-0.25219 3.8222-1.6651 8.4659-3.1708 14.058-4.1254-3.6004 1.2544-6.418 2.4348-8.682 3.5306 2.8825-0.37706 6.0106-0.86911 9.2997-1.4581 4.4203-2.3222 10.43-4.6166 18.249-5.8701-4.9024 1.6248-8.3928 3.1289-10.932 4.4597 1.8647-0.38116 3.754-0.78532 5.6738-1.2174 4.5542-2.6385 11.352-5.5013 20.708-6.906-5.6664 1.7875-9.4796 3.4345-12.082 4.8458 3.6382-0.91018 7.2789-1.8869 10.856-2.9301 3.5569-2.6788 8.9079-5.4528 16.819-7.0966-4.5936 1.7809-7.6461 3.4444-9.6718 4.9115 0.33926-0.10761 0.68839-0.21193 1.0268-0.32283 3.331-1.0786 6.5026-2.1612 9.5774-3.2406 2.6804-2.227 6.5363-4.4613 12.183-6.193-2.9334 1.5468-5.0413 2.9457-6.5396 4.1894 1.4688-0.53231 2.908-1.0646 4.3274-1.5961 1.6684-0.79024 3.3737-1.6051 5.1259-2.4471 2.2204-1.4614 5.0248-2.8808 8.5875-4.0966 21.598-7.3701 41.971-15.984 64.245-22.249 14.652-4.1204 33.318-7.8934 48.799-7.9049 72.056-0.0526 124.2 36.206 129.12 38.541-8.2e-4 0-45.132-24.522-96.83-32.129-51.925-8.6877-104.69 29.154-145 52.71-27.294 18.668-55.378 30.495-80.209 36.218-14.325 3.8165-22.447 3.6276-25.634 3.5232-6.257-0.20454-17.238-2.4028-21.511-8.521-4.2724-6.1749-5.6212-13.226-5.2006-16.814z"/>
  <path d="m58.018 816.36c-2.2434 0.71467-2.6919 3.1363-4.5936 3.6506-0.2374 0.0649-0.49698 0.0986-0.78613 0.0961-0.6317-0.21523-1.072-0.46165-1.3685-0.73192s-0.44769-0.56681-0.50273-0.88963c-0.47891-2.7749 2.1374-3.8534 3.3655-6.0262-1.219 0.4978-2.5638 0.42223-3.7393 1.0465-1.2149 0.64567-2.204 1.652-3.0657 2.6007-1.0391 1.1435-1.9222 3.524-3.2472 4.3439-0.2949 0.18236-0.55941 0.36718-0.79846 0.55859-3.0952 2.4504-1.7218 5.7691-2.9589 9.2438-0.08379 0.17497-0.16676 0.33597-0.25219 0.48219-0.25547 0.44112-0.52163 0.75082-0.83378 0.90114-2.1317 1.0309-5.5793-3.7237-6.1215-14.918-2.0988 4.0728-3.8806 14.122-2.1547 18.359 1.6906 4.1508-2.5605-0.59555-5.9572-4.7398-1.279 15.999 11.744 21.682 29.971 21.151 12.876-0.37459 25.694-2.1498 37.968-5.4627 16.174-4.3644 31.271-11.372 45.487-19.097 4.0802-2.2163 8.1012-4.5106 12.08-6.8559 5.0495-2.9753 10.024-6.0402 14.944-9.1658 40.276-23.73 77.747-57.15 143.08-51.886 38.738 3.1207 92.217 26.83 92.217 26.83s-41.522-26.765-97.971-33.272c-56.579-7.1237-85.411 8.774-138.99 31.377-40.727 22.185-73.763 32.335-93.653 35.79-0.21194 0.037-0.42223 0.0731-0.6317 0.10351l-0.49862-0.30887c-0.23329-1.5755-1.928-3.7122-0.23329-5.1366-4.2371 0-4.2371 3.561-6.5355 4.7784-0.25136 0.16922-0.52491 0.30723-0.82556 0.40334-0.60377 0.19139-1.3234 0.21769-2.2237-0.0353-0.12732-0.18402-0.23329-0.37541-0.32283-0.57009-0.35816-0.77874-0.45427-1.6117-0.64895-2.2072-0.05586-0.15854-0.12075-0.2982-0.19551-0.41237z"/>
  <path d="m39.782 834.48s-4.5279-7.5442-1.9411-12.521c0.03778 8.2318 6.5905 8.8356 6.5905 8.8356-1.5353-4.0785-4.5459-9.0377-2.2878-12.925 0.27683 3.9775 1.7111 7.771 5.9367 11.099 1.564-1.8647 2.6582-3.9233 2.4718-6.11 0.60377 0.68263 1.6109 1.3299 2.2097 2.0134 1.4277-0.85595 2.319-2.1465 2.4003-3.3655 0.25794 0.94878 1.67 1.5583 2.2672 2.236 3.5339-2.2237 3.184-6.5174 6.1322-9.3572-0.0386 2.862-1.5107 6.5651 2.0996 9.1395 6.6834-4.343 9.0533-12.248 17.847-14.885-0.5857 2.1563-2.4052 6.7433-1.394 8.3936 5.1858-2.2237 8.8159-7.0308 12.554-9.97-0.38773 1.6002-1.1106 3.4501-1.4893 5.0594 5.7904-1.5115 6.6612-5.8085 11.002-8.0462-0.51012 1.1328-0.55366 2.4644-0.24725 3.5528 7.9673-1.1303 10.649-7.7866 16.059-10.601-0.10841 1.072-0.51341 2.5876-0.15362 3.8559 7.6921-2.0602 13.354-8.3517 19.504-11.426 0.11251 1.8417-1.3045 4.1508-2.8192 6.0648 7.0234-2.9227 10.727-7.2855 16.908-10.223 0.17413 0.59227 0.51094 1.7776 0.38772 2.774 4.8293-1.891 5.9219-5.2458 9.8911-7.2436 0.11251 0.38772 1.6257 1.3382 1.7333 1.7242 4.136-1.3981 5.3074-4.4671 7.6412-6.3737 0.27272 0.94713 0.96439 1.8926 0.82638 2.8414 2.8012-1.7136 4.2034-3.9676 6.6037-5.6376 2.1342 4.4695 8.7017-4.2248 8.7567-4.0416 1.3184 1.6134 7.9706-2.1259 9.9774-3.685 1.0548 2.6172 37.675-18.311 79.105-17.789l2.2754 0.0674 0.77956 0.0296 1.5903 0.0649c0.32037 0.014 0.64321 0.0296 0.96768 0.046 0.49534 0.0247 0.99643 0.0518 1.5024 0.0797l1.058 0.0608 1.5369 0.10021 1.0778 0.0731c0.7467 0.0542 1.5057 0.115 2.2738 0.17826 0.51341 0.0427 1.0359 0.0895 1.5575 0.13718l1.325 0.12158c0.51917 0.0501 1.0465 0.10431 1.5739 0.15854l1.1582 0.1224 1.7185 0.19304 1.0317 0.12403c0.63087 0.0764 1.2626 0.15362 1.905 0.23741l0.63087 0.0854c2.411 0.32119 4.8926 0.69002 7.4449 1.118l0.41647 0.069c0.81736 0.13801 1.6437 0.28423 2.4759 0.43456l0.54708 0.0986c0.85513 0.15772 1.716 0.32037 2.5843 0.49041l0.2834 0.055c4.8606 0.957 9.9388 2.1202 15.213 3.5356l0.0633 0.0172c11.739 3.1528 24.441 7.5476 37.83 13.648l0.18977 0.0854c1.1911 0.54463 2.3871 1.1008 3.5898 1.6717 0.7467 0.35486 1.4926 0.70974 2.2426 1.0753 0.89949 0.43866 1.8031 0.89047 2.7092 1.3456l0.95617 0.48137c0.97918 0.49698 1.9616 1.0005 2.9474 1.5156l1.256 0.66374c1.1624 0.61526 2.328 1.2437 3.4986 1.8828l0.63335 0.35159c1.0786 0.59391 2.1596 1.1936 3.2456 1.8121 2.0438 1.1648 7.0744 3.7803 9.142 5.029 0.0164 0.0102-3.9003-1.2116-11.295-3.5495-12.529-3.9619-23.306-5.1702-23.292-5.2417-0.0164 0.0633 4.9041 0.0214 11.55 1.0186-1.9304-0.52819-3.8838-1.2757-6.3663-1.7546-5.5407-1.0884-11.256-1.4638-11.254-1.509-8e-3 0.0476 5.7009-0.35979 11.507-0.0222 0.73191 0.0394 1.463 0.0904 2.1834 0.14949l-0.17825-0.055c-0.0255-0.9381-42.185-7.9008-42.28-7.6732-3e-3 -0.15443 18.627 1.0342 30.975 2.6369-1.6963-0.22098-9.4131-1.8778-9.9248-1.9888-0.15443-0.0715-8.9892-2.2483-18.176-3.3252-10.736-1.2576-21.215-0.0103-23.476-0.0517-5e-3 0.0238 14.24-1.8195 23.611-1.4893 1.5788 0.0296 3.1577 0.10101 4.693 0.19715-2.1596-0.53066-4.3348-1.0424-6.5199-1.5296-1.0892-0.0386-8.4068-0.30477-15.733-7e-3 -7.8539 0.30393-24.265 1.7801-24.276 1.7267 3.1831-0.67441 16.207-2.1777 24.059-3.2628 1.7596-0.24726 3.5265-0.46083 5.213-0.6432-15.138-2.7757-30.27-4.2083-43.513-3.3162-54.585 3.6777-88.799 35.952-125.53 56.988-0.6202 0.35241-1.2396 0.70563-1.8614 1.0548-35.325 23.192-71.546 31.296-94.206 32.957-5.3058 0.38444-12.101-0.5553-16.186-3.354-7.0317-5.4528-6.9314-8.7961-8.1521-12.239 1.408 2.1358 5.0947 3.4444 8.6286 3.6333z"/>
  <g transform="matrix(-.88368 0 0 .82146 489.32 510.58)">
   <path d="m517.459,395.59c9.548-9.253 7.159-22.909 7.159-22.909s-2.52,16.517-17.641,19.386c-3.16,3.379.964,12.595 10.482,3.523z"/>
   <path d="m525.438,396.364c-2.623,1.846-5.854,3.339-8.481,4.379 6.757-5.14 10.458-10.87 10.458-10.87s-5.986,7.015-23.176,12.03c-3.293.962-23.312,3.074-23.497,6.256 24.126,2.686 34.406-.737 41.627-5.654-1.724.549-3.924.985-5.993,1.316 5.352-3.258 13.225-10.405 9.062-7.457z"/>
  </g>
 </g>
 <path transform="matrix(.32922 0 0 -.04659 134.87 199.57)" d="m397.45 678.8c-34.849 42.631-171.1 313.54-192.78 328.73-12.511 3.854-24.307 25.296-35.139 20.671-58.73-25.077-94.712-63.01-115.83-94.278-6.7688-10.024-58.761-239.11-57.558-252.72 4.9399-55.918 49.494 205.91 120.61 193.07 20.727-3.7436 45.831 57.083 74.897 53.859 140.49-15.582 205.8-313 205.8-249.32z" fill="#e0a681" filter="url(#a)"/>
 <path transform="matrix(.30979 .11143 .01577 -.04384 163.99 195.69)" d="m397.45 678.8c-34.849 42.631-171.1 313.54-192.78 328.73-12.511 3.854-24.307 25.296-35.139 20.671-58.73-25.077-94.712-63.01-115.83-94.278-6.7688-10.024-58.761-239.11-57.558-252.72 4.9399-55.918 49.494 205.91 120.61 193.07 20.727-3.7436 45.831 57.083 74.897 53.859 140.49-15.582 205.8-313 205.8-249.32z" fill="#e0a681" filter="url(#a)"/>
</svg>
