<?xml version="1.0" encoding="utf-8"?>
<!-- Generator: Adobe Illustrator 24.0.2, SVG Export Plug-In . SVG Version: 6.00 Build 0)  -->
<svg version="1.1" id="Warstwa_2" xmlns="http://www.w3.org/2000/svg" xmlns:xlink="http://www.w3.org/1999/xlink" x="0px" y="0px"
	 viewBox="0 0 1252.1108398 1575.7357178" style="enable-background:new 0 0 1252.1108398 1575.7357178;" xml:space="preserve">
<style type="text/css">
	.st0{fill:#38393F;stroke:#010202;stroke-width:5;stroke-miterlimit:10;}
	.st1{fill:#B3B2B2;stroke:#010202;stroke-width:5;stroke-miterlimit:10;}
	.st2{fill:none;stroke:#010202;stroke-width:5;stroke-miterlimit:10;}
	.st3{fill:#C43124;stroke:#010202;stroke-width:5;stroke-miterlimit:10;}
</style>
<g>
	<circle class="st0" cx="535.6137085" cy="160.8930054" r="65.3702393"/>
	<path class="st0" d="M820.8701782,504.8972168c0,0,126.789856-85.2661438,200.4285278,112.0405273
		s10.6804199,347.9567871,10.6804199,347.9567871s-43.9204102,93.7235107-124.8666992,98.7825928l6.2738037,105.3260498
		c0,0,148.3856201,8.9376221,219.7758789-200.1737671c71.3901367-209.1113281-26.4200439-405.855896-26.4200439-405.855896
		s-70.8280029-168.6381531-189.9990234-179.318573c0,0-48.3826904-7.0680847-134.3483887,20.7987061L820.8701782,504.8972168z"/>
	<path class="st1" d="M281.4747314,409.6161499H109.077507c0,0,55.467659,216.6705322,89.6788406,275.0307007
		c6.4532471-41.7504883,19.0522461-88.7891235,33.7495117-139.527771
		C247.3364258,493.9204712,264.4511719,448.6119385,281.4747314,409.6161499z"/>
	<path class="st1" d="M523.3182373,215.5556183c0,0,153.7780762-21.4281006,244.5323486,161.3409271
		c0,0,39.5124512,61.5434265,79.8901367,222.6309204c24.5722046,98.0311279,40.4367676,198.038269,47.878479,298.8276978
		c9.2926025,125.8582153,24.1925049,342.7243042,22.3688354,416.4470825l2.4091797,90.4046631
		c0,0,22.8063354,63.0093994-397.0789795,69.4016113c0,0-234.5101624,1.826416-354.1365356-47.4852295
		c0,0-20.7064209-6.3807373-18.5718231-32.5296631l7.6149597-353.5283203c0,0,14.414093-450.163269,144.1409607-670.8098145
		C302.3658142,370.2554932,369.5041504,223.845871,523.3182373,215.5556183z"/>
	<line class="st2" x1="298.7110596" y1="376.586853" x2="767.5205688" y2="376.586853"/>
	<ellipse class="st3" cx="536.8855591" cy="1400.694458" rx="57.3843384" ry="29.1986313"/>
	<path class="st0" d="M152.8775482,1289.3165283c0,0,83.8239746,45.8669434,384.480957,43.7907715
		c300.6570435-2.0762939,380.529541-39.9675293,380.529541-39.9675293l-0.8131104-43.1856689
		c0,0-51.0426025,39.8676758-371.3280029,36.8172607c-320.2854004-3.050293-392.0495605-35.5152588-392.0495605-35.5152588
		L152.8775482,1289.3165283z"/>
	<path class="st2" d="M153.2628632,1271.4281006c0,0,72.7828674,38.2657471,392.0111084,38.1087646
		c324.9360962-0.15979,372.1411743-37.3665771,372.1411743-37.3665771"/>
</g>
</svg>
