<?xml version="1.0" encoding="UTF-8"?>
<svg enable-background="new 0 0 2000 2600" version="1.1" viewBox="0 0 2000 2600" xmlns="http://www.w3.org/2000/svg">
 <path d="m653.88 178.6c23.369 21.584 24.82 58.027 3.237 81.401l-41.249 44.671c-21.582 23.375-58.028 24.823-81.398 3.239l-82.77-76.431c-23.375-21.584-24.823-58.028-3.239-81.4l41.247-44.667c21.59-23.374 58.027-24.829 81.4-3.245l82.772 76.432z" fill="#384DA1" stroke="#000" stroke-miterlimit="10" stroke-width="21"/>
 <path d="m593.76 2071.1c-45.857 14.536-91.874 28.664-138.04 42.382-216.3-619.12-134.97-1273 175.29-1787 40.487 25.953 81.188 51.518 122.1 76.689-287.65 477.94-363.66 1088.4-159.35 1667.9z" fill="#384DA1"/>
 <path d="m593.76 2071.1c-45.857 14.536-91.874 28.664-138.04 42.382-216.3-619.12-134.97-1273 175.29-1787 40.487 25.953 81.188 51.518 122.1 76.689-287.65 477.94-363.66 1088.4-159.35 1667.9z" fill="none" stroke="#000" stroke-miterlimit="10" stroke-width="21"/>
 <g enable-background="new ">
  <path d="m328.31 2082.6c0.016 3.854 0.033 8.649 0.62 12.984 0.533 3.879 1.414 10.375 3.46 16.988 1.235 4.001 2.773 8.963 6.299 16.471 4.033 8.578 8.799 15.699 8.851 15.771 0.771 1.142 2.542 2.581 2.57 3.815 0.09 5.203-0.207 12.137-0.289 17.345-0.049 2.704-0.105 6.306-0.152 9-0.258 15.603-0.515 31.204-0.778 46.806-0.047 2.836-0.108 6.623-0.158 9.455-0.047 2.822-0.105 6.582-0.152 9.408-0.046 2.79-0.111 6.518-0.158 9.312-0.148 9.005-0.298 18.011-0.445 27.011-0.097 5.625-0.281 11.248-0.281 16.872-14.786-21.147-22.205-43.208-21.803-65.719 0.722-43.655 1.689-101.86 2.416-145.52z" fill="#fff"/>
  <path d="m350.11 2148.7c-3.745-5.56-11.533-17.12-16.399-31.885-5.331-16.13-5.371-26.977-5.4-34.145l0.104-6.564c-0.402 22.514 7.021 44.569 21.81 65.717-0.04 2.288-0.078 4.582-0.115 6.877z" fill="#fff"/>
  <path d="m358.4 2159.6c-4.838-5.859-8.278-10.927-8.287-10.944-0.058-0.121 0-0.291 5e-3 -0.418 0.013-1.018 0.032-2.038 0.049-3.062 0.021-1.128 0.04-2.264 0.06-3.397 2.192 3.137 4.556 6.258 7.074 9.355 0.313 2.827 0.724 5.646 1.099 8.466z" fill="#fff"/>
  <path d="m369.06 2171.4c-7.81-7.979-10.645-11.737-10.661-11.763 0-3e-3 -0.769-5.428-1.1-8.466 3.623 4.467 7.589 8.885 11.872 13.254-0.037 2.32-0.075 4.651-0.111 6.975z" fill="#fff"/>
  <path d="m383.05 2184.4c-8.883-7.683-13.968-13.032-13.987-13.061-0.08-0.116 6e-3 -0.291 0.01-0.413 0.019-1.345 0.047-2.681 0.064-4.021 0.015-0.845 0.027-1.692 0.037-2.541 3.939 3.999 8.148 7.965 12.629 11.879 0.418 2.72 0.863 5.439 1.247 8.157z" fill="#fff"/>
  <path d="m393.53 2193c-6.489-5.068-10.472-8.562-10.484-8.576-0.093-0.136-0.046-0.347-0.065-0.493-0.102-0.692-0.205-1.386-0.309-2.075-0.29-1.866-0.586-3.722-0.873-5.588 3.762 3.282 7.708 6.53 11.852 9.746-0.042 2.335-0.075 4.655-0.121 6.986z" fill="#fff"/>
  <path d="m399.96 2198c-2.628-1.942-6.429-4.956-6.432-4.959-0.066-0.128 7e-3 -0.307 7e-3 -0.438 0.02-1.045 0.039-2.092 0.059-3.132 0.018-1.139 0.037-2.274 0.055-3.417 1.895 1.473 3.828 2.938 5.804 4.401 0.149 2.514 0.37 5.032 0.507 7.545z" fill="#fff"/>
  <path d="m1387.5 2251.8c14.553-5.948 33.885-13.97 47.611-20.561 12.535-6.011 28.41-14.646 39.82-21.396 10.481-6.198 23.458-15.054 32.57-21.954 8.457-6.403 18.48-15.476 25.868-22.306 6.91-6.402 14.448-15.537 19.597-22.482 4.866-6.587 10.313-15.635 13.725-22.531 3.271-6.613 6.507-15.643 8.205-22.464 1.669-6.685 2.465-15.699 2.97-22.449l-2.521 151.67c-0.037 1.869-0.12 3.751-0.261 5.625-4.83 63.804-72.336 123.62-190.07 168.44 0.741-44.871 1.734-104.71 2.483-149.59z" fill="#fff"/>
  <path d="m1577.9 2075.3c-0.026 1.866-0.111 3.747-0.261 5.621-4.829 63.803-72.335 123.62-190.07 168.43l-0.038 2.502c14.553-5.948 33.885-13.97 47.611-20.561 12.535-6.011 28.41-14.646 39.82-21.396 10.481-6.198 23.458-15.054 32.57-21.954 8.457-6.403 18.488-15.469 25.868-22.306 6.9-6.402 14.448-15.537 19.597-22.482 4.866-6.587 10.33-15.635 13.725-22.531 4.922-9.993 10.867-25.974 11.175-45.327z" fill="#fff"/>
  <path d="m538.59 2266c-13.004-4.556-29.19-10.225-50.447-19.342-20.111-8.627-35.229-16.356-44.37-21.321-4.083-2.218-12.582-6.839-23.208-13.481-12.077-7.557-20.534-13.866-20.6-13.918l-0.508-7.544c26.508 19.577 60.148 37.825 100.45 54.287 12.623 5.156 25.736 10.064 39.301 14.73-0.053 1.981-0.221 3.571-0.62 6.589z" fill="#fff"/>
  <path d="m537.58 2280.8c0.364-4.912 0.686-9.83 1.007-14.739 22.142 6.985 52.191 15.737 75.059 21.86 12.076 3.235 28.897 6.544 41.302 9.313 26.369 5.895 63.033 11.248 90.5 15.044 30.021 4.15 70.829 7.759 101.54 9.48 33.896 1.908 79.385 3.174 113.43 2.603 36.743-0.621 85.77-2.799 122.08-6.188 37.785-3.521 87.533-10.543 124.29-16.788 38.087-6.461 86.371-19.544 122.28-29.389 18.424-5.053 40.908-14.1 58.439-20.148l-2.483 149.59c-122.4 46.589-283.23 71.473-452.87 70.058-152.43-1.285-295.23-23.782-406.24-63.729 1.548-23.684 4.328-59.517 12.176-126.89-7.848 67.37-10.628 103.2-12.176 126.89-9.763-3.511-19.273-7.164-28.534-10.941-27.894-11.387-52.597-23.637-73.956-36.595 0.061-3.506 0.121-7.012 0.178-10.52-0.057 3.508-0.117 7.014-0.178 10.52-0.722-0.439-1.445-0.881-2.166-1.32 0.144-8.715 0.291-17.431 0.435-26.149-0.144 8.719-0.291 17.435-0.435 26.149-3.825-2.357-7.546-4.74-11.156-7.141-1.521-24.424-3.217-48.829-4.84-73.25 1.623 24.421 3.319 48.826 4.84 73.25-27.296-18.17-48.23-37.596-62.402-57.862 0.803-48.406 1.608-96.807 2.415-145.21 2.813 4.002 5.413 7.462 7.734 10.274 0.169 0.201 0.498 0.451 0.553 0.67 0.205 0.743 0.234 1.746 0.338 2.489 2.531 18.814 3.638 26.794 5.148 37.11-1.619-11.03-3.235-22.866-5.486-39.6 1.411 1.723 4.336 5.304 9.949 11.035 0.214 0.223 0.679 0.479 0.712 0.728 0.295 2.086-0.113 4.881-0.15 6.973-0.069 3.628-0.141 7.246-0.197 10.871-0.221 13.05-0.383 26.092-0.601 39.139-1.864-11.457-3.224-19.737-4.678-29.318 1.454 9.581 2.813 17.861 4.678 29.318 0.311-19.001 0.527-37.99 0.948-56.982 4.322 4.38 8.719 8.501 13.07 12.264 0.27 0.245 0.801 0.525 0.917 0.797 0.244 0.573 0.221 1.347 0.311 1.924 0.188 1.162 0.432 2.714 0.609 3.875 0.351 2.229 0.351 2.229 1.192 7.825 1.499 9.906 2.09 13.463 2.661 16.782-1.724-10.12-3.149-20.27-4.773-30.406 1.244 1.064 5.002 4.301 9.818 8.051 0.197 0.154 0.637 0.327 0.666 0.525 0.154 1.059-0.04 2.482-0.058 3.551-0.144 8.753-0.291 17.502-0.435 26.253-0.16 9.649-0.325 19.292-0.484 28.943 0.329-19.581 0.657-39.167 0.977-58.747 1.337 1.036 2.647 2.076 3.988 3.112 0.67 0.515 1.347 1.035 2.036 1.543 0.12 0.092 0.391 0.187 0.407 0.304 0.197 1.447 0.214 3.398 0.309 4.846 0.192 3.012 0.45 7.01 0.636 10.01 2.111 33.28 3.169 49.289 4.352 65.881-0.702-9.831-1.368-19.659-2.016-29.484-1.119-17.087-2.189-34.164-3.28-51.252 7.79 5.549 15.159 10.796 28.053 18.466 10.309 6.125 21.298 12.071 32.661 17.645 33.118 16.263 61.157 26.089 77.911 31.952-0.322 4.907-0.644 9.825-1.008 14.737zm-151.35-66.071l0.35 2.083 0.362 2.164 0.368 2.223 0.386 2.278 0.385 2.314 0.394 2.351 0.403 2.366 0.402 2.381 0.404 2.387 0.404 2.367 0.403 2.35 0.39 2.316 0.396 2.273 0.395 2.223 0.375 2.161 0.37 2.08-0.37-2.08-0.375-2.161-0.395-2.223-0.396-2.273-0.39-2.316-0.403-2.35-0.404-2.367-0.404-2.387-0.402-2.381-0.403-2.366-0.394-2.351-0.385-2.314-0.386-2.278-0.368-2.223-0.362-2.164-0.35-2.083m35.641 117.93l0.122 0.985 0.129 1.013 0.123 1.046 0.132 1.067 0.131 1.089 0.133 1.106 0.14 1.106 0.131 1.125 0.142 1.111 0.13 1.114 0.138 1.102 0.136 1.089 0.126 1.066 0.132 1.048 0.127 1.013 0.121 0.975-0.121-0.975-0.127-1.013-0.132-1.048-0.126-1.066-0.136-1.089-0.138-1.102-0.13-1.114-0.142-1.111-0.131-1.125-0.14-1.106-0.133-1.106-0.131-1.089-0.132-1.067-0.123-1.046-0.129-1.013-0.122-0.985" fill="#fff"/>
  <path d="m934.68 2319.4c169.65 1.423 330.47-23.453 452.87-70.054-9e-3 0.753-0.028 1.756-0.038 2.502-17.531 6.049-40.016 15.096-58.439 20.148-35.909 9.845-84.193 22.928-122.28 29.389-36.761 6.245-86.509 13.268-124.29 16.788-36.313 3.39-85.34 5.567-122.08 6.188-34.043 0.571-79.531-0.694-113.43-2.603-30.707-1.722-71.515-5.33-101.54-9.48-27.467-3.796-64.131-9.149-90.5-15.044-12.404-2.77-29.226-6.078-41.302-9.313-22.867-6.123-52.917-14.875-75.059-21.86 0.399-3.018 0.567-4.608 0.62-6.589 109.41 37.577 247.92 58.691 395.47 59.928z" fill="#fff"/>
  <path d="m320.37 2274.2l2.532-152.09c-1.062 63.732 60.156 123.99 173.42 170.22 117.48 47.971 277.05 75.184 449.25 76.624 176.16 1.467 342.27-24.04 467.79-71.81 119.01-45.305 187.24-105.71 192.16-170.08 0.141-1.925 0.224-3.84 0.261-5.757l-2.522 152.08c-0.037 1.914-0.12 3.836-0.262 5.758-4.911 64.365-73.149 124.77-192.16 170.07-125.52 47.773-291.64 73.275-467.8 71.814-172.19-1.44-331.77-28.653-449.24-76.624-113.26-46.231-174.48-106.48-173.42-170.22z" fill="#384DA1" stroke="#000" stroke-miterlimit="10" stroke-width="21"/>
  <path d="m1410.3 2298.2c-125.69 46.598-290.86 71.467-465.08 70.051-170.3-1.391-328.9-27.896-446.49-74.663-118.49-47.099-180.92-108.98-175.84-174.26 4.969-63.803 74.292-123.62 195.19-168.44 125.71-46.594 290.86-71.471 465.13-70.046 170.28 1.378 328.84 27.893 446.44 74.66 118.48 47.095 180.93 108.98 175.84 174.26-4.96 63.807-74.286 123.63-195.2 168.44z" fill="#384DA1" stroke="#000" stroke-miterlimit="10" stroke-width="21"/>
 </g>
 <g enable-background="new ">
  <path d="m537.73 2028.1c8e-3 0.679 8e-3 1.518 0.055 2.277 0.059 0.681 0.142 1.818 0.33 2.981 0.111 0.699 0.251 1.569 0.58 2.887 0.376 1.501 0.826 2.754 0.826 2.764 0.073 0.201 0.243 0.452 0.243 0.663 9e-3 0.915-0.021 2.135-0.028 3.048-0.01 0.47-0.01 1.103-0.019 1.576-0.019 2.737-0.047 5.47-0.065 8.209-0.01 0.497-0.01 1.159-0.02 1.654 0 0.491-0.01 1.153-0.01 1.651-0.01 0.487-0.01 1.143-0.017 1.631-0.021 1.58-0.03 3.159-0.04 4.734-8e-3 0.988-0.026 1.973-0.026 2.963-1.38-3.709-2.073-7.576-2.034-11.527 0.075-7.652 0.159-17.856 0.225-25.511z" fill="#fff"/>
  <path d="m539.77 2039.7c-0.349-0.969-1.078-3-1.528-5.585-0.498-2.828-0.498-4.731-0.506-5.987l8e-3 -1.149c-0.037 3.948 0.657 7.813 2.035 11.523-1e-3 0.397-9e-3 0.801-9e-3 1.198z" fill="#fff"/>
  <path d="m540.53 2041.6c-0.449-1.028-0.768-1.916-0.768-1.924-0.011-0.018 0-0.045 0-0.068v-0.535c9e-3 -0.201 9e-3 -0.399 9e-3 -0.595 0.207 0.544 0.422 1.097 0.658 1.635 0.028 0.498 0.064 0.993 0.101 1.487z" fill="#fff"/>
  <path d="m541.53 2043.6c-0.732-1.396-0.996-2.059-0.996-2.063 0 0-0.073-0.952-0.101-1.487 0.336 0.789 0.701 1.558 1.104 2.327 0 0.407-7e-3 0.816-7e-3 1.223z" fill="#fff"/>
  <path d="m542.83 2045.9c-0.825-1.344-1.301-2.282-1.301-2.287-0.011-0.018 0-0.052 0-0.076 0-0.229 0-0.469 7e-3 -0.704v-0.442c0.365 0.697 0.76 1.396 1.174 2.084 0.037 0.474 0.084 0.953 0.12 1.425z" fill="#fff"/>
  <path d="m543.81 2047.4c-0.609-0.89-0.977-1.499-0.977-1.505-7e-3 -0.02-7e-3 -0.06-7e-3 -0.083-0.013-0.122-0.02-0.244-0.029-0.367-0.029-0.322-0.057-0.652-0.084-0.976 0.357 0.573 0.721 1.142 1.105 1.707 0 0.409-8e-3 0.816-8e-3 1.224z" fill="#fff"/>
  <path d="m544.41 2048.3c-0.244-0.342-0.601-0.867-0.601-0.872-0.01-0.023 0-0.056 0-0.076v-0.547c9e-3 -0.201 9e-3 -0.399 9e-3 -0.601 0.178 0.258 0.355 0.518 0.545 0.775 8e-3 0.439 0.028 0.88 0.047 1.321z" fill="#fff"/>
  <path d="m636.32 2057.8c1.353-1.046 3.149-2.451 4.437-3.609 1.162-1.05 2.635-2.563 3.703-3.749 0.975-1.083 2.186-2.635 3.029-3.851 0.788-1.121 1.725-2.709 2.409-3.91 0.637-1.12 1.34-2.724 1.817-3.941 0.461-1.152 0.966-2.737 1.286-3.951 0.299-1.153 0.599-2.738 0.759-3.934 0.158-1.178 0.234-2.756 0.281-3.938l-0.234 26.59c-0.01 0.329-0.019 0.656-0.029 0.983-0.449 11.19-6.73 21.68-17.689 29.54 0.073-7.871 0.158-18.362 0.231-26.23z" fill="#fff"/>
  <path d="m654.04 2026.8c-8e-3 0.33-8e-3 0.661-0.027 0.991-0.45 11.186-6.733 21.672-17.694 29.528v0.44c1.353-1.046 3.149-2.451 4.437-3.609 1.162-1.05 2.635-2.563 3.703-3.749 0.975-1.083 2.186-2.635 3.029-3.851 0.788-1.121 1.725-2.709 2.409-3.91 0.637-1.12 1.34-2.724 1.817-3.941 0.461-1.152 0.966-2.737 1.286-3.951 0.458-1.75 1.001-4.552 1.04-7.948z" fill="#fff"/>
  <path d="m557.31 2060.2c-1.21-0.797-2.72-1.79-4.7-3.392-1.875-1.509-3.281-2.867-4.133-3.739-0.377-0.389-1.162-1.196-2.156-2.361-1.126-1.324-1.912-2.43-1.912-2.439l-0.047-1.32c2.465 3.43 5.597 6.633 9.348 9.515 1.171 0.9 2.391 1.764 3.654 2.584-8e-3 0.346-0.017 0.623-0.054 1.152z" fill="#fff"/>
  <path d="m557.21 2062.8c0.029-0.856 0.066-1.72 0.096-2.581 2.061 1.228 4.854 2.76 6.983 3.835 1.126 0.566 2.691 1.143 3.846 1.635 2.456 1.032 5.869 1.971 8.418 2.631 2.794 0.73 6.59 1.363 9.451 1.663 3.16 0.338 7.387 0.559 10.557 0.46 3.424-0.112 7.98-0.492 11.364-1.087 3.517-0.614 8.148-1.848 11.57-2.945 3.543-1.128 8.036-3.426 11.382-5.152 1.716-0.881 3.806-2.47 5.437-3.529l-0.231 26.229c-11.393 8.167-26.357 12.526-42.146 12.28-14.195-0.229-27.479-4.175-37.813-11.176 0.141-4.152 0.404-10.435 1.134-22.246-0.729 11.812-0.993 18.094-1.134 22.246-0.91-0.613-1.79-1.254-2.654-1.916-2.598-1.998-4.902-4.145-6.891-6.419 0.011-0.613 0.02-1.228 0.02-1.842 0 0.614-9e-3 1.229-0.02 1.842-0.066-0.073-0.132-0.151-0.196-0.232 0.01-1.523 0.029-3.052 0.036-4.585-7e-3 1.533-0.026 3.062-0.036 4.585-0.356-0.407-0.703-0.829-1.04-1.246-0.142-4.282-0.302-8.565-0.451-12.847 0.149 4.281 0.31 8.564 0.451 12.847-2.541-3.189-4.493-6.597-5.804-10.146 0.073-8.49 0.149-16.975 0.225-25.467 0.263 0.704 0.506 1.314 0.721 1.807 0.01 0.037 0.039 0.08 0.047 0.117 0.02 0.131 0.02 0.309 0.029 0.435 0.243 3.301 0.339 4.698 0.488 6.507-0.162-1.936-0.311-4.008-0.518-6.941 0.131 0.305 0.402 0.93 0.93 1.936 0.02 0.037 0.066 0.08 0.066 0.127 0.026 0.365-0.011 0.854-0.021 1.224 0 0.633-0.01 1.271-0.02 1.902-0.02 2.288-0.026 4.576-0.056 6.863-0.169-2.008-0.3-3.46-0.433-5.138 0.133 1.678 0.264 3.13 0.433 5.138 0.036-3.327 0.056-6.662 0.096-9.989 0.401 0.768 0.806 1.491 1.218 2.151 0.018 0.043 0.076 0.089 0.083 0.136 0.02 0.102 0.02 0.24 0.029 0.342 0.018 0.203 0.037 0.474 0.056 0.675 0.028 0.396 0.028 0.396 0.112 1.374 0.14 1.735 0.189 2.363 0.244 2.944-0.158-1.776-0.29-3.558-0.441-5.335 0.113 0.192 0.461 0.76 0.911 1.417 0.019 0.021 0.065 0.052 0.065 0.088 9e-3 0.182-0.01 0.437-0.01 0.624-0.01 1.532-0.028 3.07-0.037 4.604-0.019 1.692-0.028 3.38-0.046 5.072 0.027-3.432 0.064-6.863 0.093-10.3 0.12 0.182 0.244 0.366 0.364 0.548 0.066 0.09 0.133 0.179 0.197 0.268 0.01 0.02 0.039 0.033 0.039 0.057 0.018 0.254 0.018 0.595 0.027 0.848 0.02 0.526 0.038 1.229 0.057 1.754 0.194 5.837 0.29 8.646 0.402 11.551-0.064-1.72-0.122-3.446-0.188-5.166-0.104-3-0.197-5.995-0.299-8.986 0.721 0.971 1.407 1.889 2.605 3.234 0.955 1.074 1.988 2.119 3.038 3.094 3.085 2.852 5.69 4.576 7.258 5.604-0.027 0.858-0.064 1.721-0.093 2.577zm-14.092-11.583l0.039 0.366 0.026 0.385 0.039 0.39 0.036 0.393 0.037 0.408 0.039 0.411 0.037 0.42 0.036 0.415 0.039 0.419 0.036 0.412 0.037 0.413 0.039 0.406 0.026 0.399 0.04 0.39 0.036 0.38 0.037 0.364-0.037-0.364-0.036-0.38-0.04-0.39-0.026-0.399-0.039-0.406-0.037-0.413-0.036-0.412-0.039-0.419-0.036-0.415-0.037-0.42-0.039-0.411-0.037-0.408-0.036-0.393-0.039-0.39-0.026-0.385-0.039-0.366m3.319 20.679l9e-3 0.174 0.019 0.172 0.01 0.188 0.01 0.185 0.02 0.195 8e-3 0.192 0.012 0.193 8e-3 0.195 0.02 0.197 8e-3 0.191 0.011 0.199 0.02 0.188 9e-3 0.185 8e-3 0.185 0.02 0.179 0.011 0.172-0.011-0.172-0.02-0.179-8e-3 -0.185-9e-3 -0.185-0.02-0.188-0.011-0.199-8e-3 -0.191-0.02-0.197-8e-3 -0.195-0.012-0.193-8e-3 -0.192-0.02-0.195-0.01-0.185-0.01-0.188-0.019-0.172-9e-3 -0.174" fill="#fff"/>
  <path d="m594.17 2069.6c15.789 0.248 30.754-4.111 42.144-12.282v0.44c-1.631 1.06-3.721 2.648-5.437 3.529-3.346 1.727-7.839 4.024-11.382 5.152-3.422 1.098-8.054 2.331-11.57 2.945-3.384 0.595-7.94 0.975-11.364 1.087-3.17 0.099-7.396-0.122-10.557-0.46-2.861-0.3-6.657-0.933-9.451-1.663-2.549-0.66-5.962-1.599-8.418-2.631-1.154-0.492-2.72-1.068-3.846-1.635-2.129-1.075-4.923-2.607-6.983-3.835 0.037-0.529 0.047-0.807 0.054-1.153 10.182 6.591 23.075 10.291 36.81 10.506z" fill="#fff"/>
  <path d="m536.99 2061.7l0.244-26.664c-0.103 11.175 5.597 21.742 16.135 29.848 10.934 8.413 25.784 13.183 41.817 13.435 16.397 0.258 31.851-4.213 43.541-12.595 11.072-7.942 17.421-18.533 17.88-29.816 0.01-0.337 0.02-0.675 0.029-1.008l-0.234 26.665c-0.01 0.334-0.02 0.67-0.027 1.008-0.461 11.284-6.808 21.874-17.892 29.82-11.681 8.373-27.143 12.85-43.531 12.592-16.032-0.253-30.885-5.026-41.815-13.438-10.537-8.108-16.24-18.672-16.147-29.847z" fill="#101424" stroke="#000" stroke-miterlimit="10" stroke-width="21"/>
  <path d="m638.44 2065.9c-11.7 8.171-27.066 12.529-43.286 12.287-15.847-0.25-30.604-4.896-41.555-13.094-11.025-8.257-16.839-19.108-16.361-30.553 0.459-11.188 6.91-21.676 18.161-29.533 11.7-8.171 27.077-12.535 43.299-12.28 15.845 0.237 30.602 4.889 41.544 13.086 11.026 8.261 16.837 19.108 16.369 30.557-0.46 11.185-6.92 21.672-18.171 29.53z" fill="#101424" stroke="#000" stroke-miterlimit="10" stroke-width="21"/>
 </g>
 <path d="m1738.8 451.78c-2.728-4.744-7.031-11.114-10.453-15.761-2.898-3.89-6.787-9.075-9.873-12.862-3.236-3.984-7.689-9.155-11.242-13.023-7.85-8.709-12.235-12.732-22.746-22.482-0.375-0.324-9.441-8.655-24.423-19.962-11.111-8.409-20.055-14.209-25.991-18.003-4.492-2.951-14.054-8.973-27.527-16.435-13.031-7.229-22.707-11.945-29.132-15.054-13.443-6.502-28.867-13.018-30.545-13.693-4.829-1.95-11.316-4.697-16.09-6.486-9.751-3.714-22.746-8.444-32.466-11.81-10.354-3.578-24.558-7.979-42.127-12.977-12.892-3.718-28.493-7.448-34.354-8.864-11.637-2.826-29.676-6.593-35.235-7.623-10.577-1.941-24.582-4.373-35.065-6.17-5.418-0.871-12.628-1.866-18.029-2.635-11.268-1.588-41.732-5.563-80.866-7.583-20.187-1.05-36.564-1.192-36.707-1.155-10.782-0.022-25.165 0.033-35.882 0.24-5.532 0.116-12.881 0.482-18.434 0.671-17.605 0.656-49.277 3.252-71.816 6.398-10.156 1.429-23.553 3.529-33.575 5.235-5.326 0.934-12.273 2.387-17.523 3.367-10.875 2.166-23.366 5.288-33.415 7.814-5.646 1.449-15.312 4.14-26.59 7.683-9.441-11.466-20.217-22.919-32.459-34.349-125.53-119.1-292.96-133.09-377.83-28.081-87.084 106.84-58.571 292.15 67.56 410.77 13.676 12.649 27.144 23.244 40.447 32.15-0.268 2.268-0.516 4.575-0.763 6.975-2.084 20.309-2.767 36.791-2.744 36.913-0.6 14.162-0.907 21.25-0.925 35.938-0.132 20.035 0.654 36.443 0.664 36.574 0.889 17.378 1.393 26.936 2.292 36.991 0.538 5.734 1.145 13.319 1.815 19.075 1.257 11.149 3 25.982 4.579 37.172 5.786 40.649 13.487 73.418 13.845 74.814 2.588 10.829 6.164 25.252 8.967 36.087 1.39 5.405 3.52 12.667 5.051 18.105 0.092 0.168 4.4 15.188 11.25 35.459 1.771 5.308 4.148 12.311 6.154 17.608 3.839 10.13 9.071 23.674 13.169 33.789 3.697 9.228 7.622 17.712 14.667 33.07 0.047 0.168 6.682 14.456 16.26 32.328 4.896 9.159 11.892 21.274 17.321 30.349 5.315 8.953 19.987 32.488 39.491 57.066 19.514 24.572 32.993 37.456 43.775 47.779 0.449 0.431 10.791 10.275 24.938 21.312 7.314 5.635 17.515 12.62 25.314 17.672 4.258 2.749 10.163 6.114 14.665 8.609 4.003 2.259 9.6 4.978 13.727 7.087 4.809 2.447 11.494 5.204 16.482 7.228 5.259 2.166 12.442 4.849 17.926 6.415 9.931 2.802 23.291 6.292 33.387 8.204 8.365 1.537 19.523 2.671 27.849 3.337 2.136 0.168 4.463 0.327 6.835 0.347 0.871 0.037 1.789 0.085 2.652 0.131 0.655 0.037 1.248 0.057 1.896 0.084 3.13 0.104 6.233 0.141 9.448 0.104 175.4-1.745 451.66-221.57 607.26-482.83 92.916-160.94 118.31-302.67 83.352-387.34-0.15-0.379-0.328-0.807-0.477-1.182l-0.039 0.01c-0.179-0.483-0.347-0.915-0.581-1.33 0.234 0.415 0.441 0.899 0.62 1.32-0.179-0.421-0.356-0.853-0.573-1.331-0.149-0.37-0.311-0.797-0.516-1.162-0.505-1.173-1.03-2.334-1.592-3.489-0.125-0.262-0.208-0.473-0.35-0.74-0.469-0.937-0.899-1.895-1.367-2.839-0.095-0.207-0.171-0.423-0.319-0.63-3.958-8.079-8.897-17.155-13.022-24.394z" fill="#384DA1" stroke="#000" stroke-miterlimit="10" stroke-width="21"/>
 <path d="m1733.7 460.45c99.217 82.619 16.551 345.48-184.65 587.11-201.2 241.62-444.74 370.54-543.96 287.92-99.226-82.614-16.548-345.48 184.66-587.1 201.2-241.63 444.74-370.54 543.95-287.93z" fill="#fff" stroke="#000" stroke-miterlimit="10" stroke-width="21"/>
 <path d="m1494.3 410.98c-18.311 18.183-101.34-31.393-209.7-35.154-108.25-8.237-203.26 36.306-217.9 15.723-6.542-9.763 9.938-38.417 50.525-64.144 39.834-25.605 103.78-48.283 174.72-43.299 71.09 3.391 129.65 32.716 164.14 61.271 35.174 28.887 46.289 57.004 38.214 65.603z" fill="#fff"/>
 <path d="m886.12 282.57c-21.712 14.981-70.841-10.189-135.07-17.258-63.92-10.49-130.66 7.219-141.24-16.152-4.541-11.389 8.619-34.639 39.211-52.517 29.913-17.923 77.259-30.473 125.4-21.481 48.492 7.85 84.031 33.589 101.99 56.368 18.448 23.239 19.318 43.516 9.709 51.04z" fill="#fff"/>
 <path d="m1189.7 748.38c-70.867 85.104-126.95 172.81-165.64 254.38 41.324 19.229 87.365 30.035 135.94 30.035 178.21 0 322.67-144.46 322.67-322.67 0-67.656-20.859-130.42-56.453-182.29-78.155 53.803-160.37 129.09-236.52 220.55z" fill="#E0E439" stroke="#000" stroke-miterlimit="10" stroke-width="21"/>
</svg>
