<?xml version="1.0" encoding="UTF-8"?>
<svg viewBox="0 0 400 400" xmlns="http://www.w3.org/2000/svg">
 <defs>
  <filter id="a">
   <feGaussianBlur stdDeviation=".41431"/>
  </filter>
  <filter id="f" x="-.0864" y="-.11145" width="1.1728" height="1.2229">
   <feGaussianBlur stdDeviation="11.145"/>
  </filter>
  <linearGradient id="e" x1="280.54" x2="323.48" y1="265.39" y2="279.5" gradientUnits="userSpaceOnUse">
   <stop stop-color="#fff" stop-opacity=".11224" offset="0"/>
   <stop stop-color="#fff" stop-opacity=".89796" offset="1"/>
  </linearGradient>
  <linearGradient id="d" x1="156.89" x2="135.91" y1="127.87" y2="10.91" gradientUnits="userSpaceOnUse">
   <stop stop-color="#fffbfb" stop-opacity=".82653" offset="0"/>
   <stop stop-opacity="0" offset="1"/>
  </linearGradient>
  <linearGradient id="c" x1="133.48" x2="314.77" y1="163.21" y2="289.78" gradientUnits="userSpaceOnUse">
   <stop stop-color="#ffefef" stop-opacity=".58163" offset="0"/>
   <stop stop-color="#ffefef" stop-opacity=".14286" offset="1"/>
  </linearGradient>
  <radialGradient id="b" cx="170.31" cy="209.17" r="104.54" gradientTransform="matrix(1.0744 -.88115 .89487 1.0911 -193.9 134.77)" gradientUnits="userSpaceOnUse">
   <stop stop-color="#70ffea" offset="0"/>
   <stop stop-color="#0055f6" offset="1"/>
  </radialGradient>
 </defs>
 <path transform="matrix(.97473 0 0 .97473 8.1233 4.8258)" d="m183 323-130-27-52-146 195-54 59 141-72 86z" fill="#1a1a1a" fill-rule="evenodd" filter="url(#f)" stroke="#000"/>
 <path d="m103.95 273.26 8.8769 4.8688 17.326-11.458-8.6954-4.5853-17.508 11.174z" fill="none" stroke="#000" stroke-width="1.0228"/>
 <path d="m156.01 239.64 8.5912 4.2186 15.545-10.144-8.6068-4.0719-15.529 9.9969z" fill="none" stroke="#000" stroke-width="1.0228"/>
 <path d="m171.6 229.61 8.4853 4.0153 14.991-9.9512-8.3926-3.8291-15.083 9.7651z" fill="none" stroke="#000" stroke-width="1.0228"/>
 <path d="m186.54 219.85 8.6069 3.9261 12.814-8.4763-8.4282-3.7261-12.993 8.2763z" fill="none" stroke="#000" stroke-width="1.0228"/>
 <path d="m199.54 211.55 8.4689 3.7426 11.603-7.8083-8.1753-3.5102-11.897 7.5758z" fill="none" stroke="#000" stroke-width="1.0228"/>
 <path d="m211.48 203.99 8.002 3.437 11.644-7.4055-7.6727-3.7643-11.973 7.7328z" fill="none" stroke="#000" stroke-width="1.0228"/>
 <path d="m68.308 278.6 165.04 96.416 159.75-155.46-142.99-53.433-181.8 112.48z" fill-rule="evenodd" stroke="#333" stroke-linecap="round" stroke-linejoin="round" stroke-width=".81824"/>
 <path d="m277.7 176.51c-100.4 58.922-38.097 45.44-175.99 121.07l87.765 51.806c83.783-25.593 176.93-74.408 165.6-144.16l-59.509-22.106-17.867-6.6162z" fill="url(#c)" fill-rule="evenodd"/>
 <path d="m68.172 278.57 0.13174 13.217 164.27 99.395c3.2527-1.7531 4.6545-12.087 1.0539-16.181l-165.46-96.431z" fill-rule="evenodd" stroke="#333" stroke-linecap="round" stroke-linejoin="round" stroke-width=".81824"/>
 <path d="m393.08 219.63c0.98328 3.0336 2.0298 9.6376-0.83637 12.349l-159.4 158.95c4.2195-4.8286 2.92-10.446 0.79041-16.181l159.45-155.11z" fill-rule="evenodd" stroke="#333" stroke-linecap="round" stroke-linejoin="round" stroke-width=".81824"/>
 <path d="m34.974 77.099s28.455 202.73 30.563 200.57 183.9-113.04 183.9-113.04l0.52696-155.84-214.99 68.309z" fill="#1a1a1a" fill-rule="evenodd" stroke="#333" stroke-linecap="round" stroke-linejoin="round" stroke-width=".81824"/>
 <path d="m243.63 7.361c5.0191-1.4087 4.9013 0.50643 6.3095 1.4342l-214.97 67.777c-1.933-1.7239-2.742-1.0199-7.0758-0.88682l215.73-68.324z" fill="#1a1a1a" fill-rule="evenodd" stroke="#333" stroke-linecap="round" stroke-linejoin="round" stroke-width=".81824"/>
 <path d="m41.128 89.516 205.92-67.659-1.4768 133.18-178.68 107.9-25.765-173.42z" fill="url(#b)" fill-rule="evenodd" stroke="#000" stroke-linejoin="round" stroke-width="1.0228"/>
 <path d="m270.3 173.9-178.24 117.98-8.9955-5.0356 179.48-116.03 7.7623 3.0761z" fill="none" stroke="#999" stroke-width="1.0228"/>
 <path d="m113.88 277.35 19.536-12.778-19.536 12.778z" fill="none" opacity=".3" stroke="#000" stroke-width="1.0228"/>
 <path d="m260.56 282.16 38.784-32.435c2.2226-1.8588 6.9069-2.0881 10.542-0.52131l19.515 8.7002c3.8753 1.6701 5.3564 4.6492 3.2796 6.688l-35.862 34.684c-2.4809 2.4355-7.8448 2.7908-11.975 0.78575l-22.133-10.543c-3.849-1.8684-4.7865-5.1546-2.151-7.3587" fill="#999" opacity=".89" stroke="#000" stroke-linecap="round" stroke-linejoin="round" stroke-width=".97446"/>
 <path d="m156.31 239.62c2.5373-1.9445 8.9412 1.7828 8.5718 4.1279l-8.5718-4.1279z" fill="#666" fill-rule="evenodd" opacity=".9972" stroke="#000" stroke-linecap="round" stroke-linejoin="round" stroke-width=".20456"/>
 <path d="m112.55 278.27 17.521-11.661c-1.4668-3.0068-4.2055-5.1623-8.6034-4.7679l-17.42 11.443c3.0375-2.075 8.9386 2.527 8.502 4.9862z" fill="#808080" fill-rule="evenodd" stroke="#000" stroke-linejoin="round" stroke-width=".20456"/>
 <path d="m104.03 273.3c3.4667-2.241 9.4019 3.3152 8.4914 5.0635l-8.4914-5.0635z" fill="none" opacity=".69" stroke="#000" stroke-linecap="round" stroke-linejoin="round" stroke-width=".20456"/>
 <path d="m164.84 243.75 14.799-9.7805c-0.74496-2.8182-2.9708-4.6431-8.2144-4.1871l-15.15 9.8444c2.6759-2.1202 9.2992 2.1306 8.566 4.1232z" fill="#4d4d4d" fill-rule="evenodd" stroke="#000" stroke-linejoin="round" stroke-width=".20456"/>
 <path d="m179.54 233.99 14.958-9.7486c-1.0326-2.9141-3.5302-4.8029-8.534-3.9474l-15.118 9.8125c3.0321-1.3227 8.2055 0.34843 8.6938 3.8834z" fill="#4d4d4d" fill-rule="evenodd" stroke="#000" stroke-linejoin="round" stroke-width=".20456"/>
 <path d="m194.44 224.23 13.264-8.8217c-1.7358-2.6903-3.8978-3.8121-8.2464-3.6757l-13.552 8.5819c3.1919-0.74734 7.726 0.34842 8.534 3.9154z" fill="#4d4d4d" fill-rule="evenodd" stroke="#000" stroke-linejoin="round" stroke-width=".20456"/>
 <path d="m207.75 215.39 11.586-7.719c-1.9915-2.4986-4.2813-3.5564-8.0546-3.5478l-11.874 7.6231c3.3358-0.29988 6.3996 0.65205 8.3422 3.6437z" fill="#4d4d4d" fill-rule="evenodd" stroke="#000" stroke-linejoin="round" stroke-width=".20456"/>
 <path d="m219.3 207.7 11.73-7.7349c-1.4801-3.4574-4.4091-4.0678-7.7349-3.7716l-12.258 8.0705c2.9682-0.33183 5.6325 0.15666 8.2623 3.436z" fill="#4d4d4d" fill-rule="evenodd" stroke="#000" stroke-linejoin="round" stroke-width=".20456"/>
 <path d="m221.69 286.68 50.096-40.3c0.60263-0.47932 1.8462-0.48924 2.7912-0.02273l7.6512 3.7625c0.95925 0.47355 1.2554 1.2498 0.66111 1.7408l-49.332 41.46c-0.73949 0.61097-2.1603 0.64191-3.1817 0.0687l-8.2257-4.6169c-1.0045-0.56372-1.2079-1.497-0.45981-2.092" fill="#808080"/>
 <path d="m219.03 288.29 11.362 6.4551-8.3652 7.0479-11.552-6.5129 8.5555-6.99z" fill="#f0f" fill-rule="evenodd" stroke="#000" stroke-width="1.0228"/>
 <path d="m209.42 296.08 11.661 6.476-8.6946 7.3113-11.362-7.0149 8.3958-6.7724z" fill="#f0f" fill-rule="evenodd" stroke="#000" stroke-width="1.0228"/>
 <path d="m200.12 303.55 11.366 7.001-8.9487 7.4474-11.939-6.8164 9.5225-7.632z" fill="#f0f" fill-rule="evenodd" stroke="#000" stroke-width="1.0228"/>
 <path d="m189.71 311.96 11.984 6.8273-10.982 9.2614-12.179-6.9674 11.177-9.1214z" fill="#f0f" fill-rule="evenodd" stroke="#000" stroke-width="1.0228"/>
 <path d="m273.68 244.43 10.51 5.2026 7.97-6.6032-10.562-4.9187-7.9178 6.3194z" fill="#f0f" fill-rule="evenodd" stroke="#000" stroke-width="1.0228"/>
 <path d="m282.59 237.36 7.5524-6.0924 10.804 4.6246-7.8532 6.3701-10.503-4.9022z" fill="#f0f" fill-rule="evenodd" stroke="#000" stroke-width="1.0228"/>
 <path d="m291.16 230.49 10.711 4.6268 7.4947-6.2411-10.342-4.7846-7.8633 6.399z" fill="#f0f" fill-rule="evenodd" stroke="#000" stroke-width="1.0228"/>
 <path d="m289.94 230.02-8.9956-4.4588 8.0976-6.2974 8.9226 4.3284-8.0246 6.4278z" fill="#f0f" fill-rule="evenodd" stroke="#000" stroke-width="1.0228"/>
 <path d="m177.42 320.42-10.935-6.1566 22.239-17.025 10.307 5.669-21.611 17.512z" fill="#f0f" fill-rule="evenodd" stroke="#000" stroke-width="1.0228"/>
 <path d="m290.08 218.44 8.7769 4.3033 21.02-16.982-9.0936-3.5619-20.703 16.241z" fill="#f0f" fill-rule="evenodd" stroke="#000" stroke-width="1.0228"/>
 <path d="m298.09 210.76 11.54-9.0671-21.586-8.3781-14.401 10.64 9.8278 3.9363 2.723-2.0823 11.896 4.9507z" fill="#f0f" fill-rule="evenodd" stroke="#000" stroke-width="1.0228"/>
 <path d="m286.62 192.75-19.712 14.635-9.3208-3.9782 20.15-14.084 8.8827 3.4275z" fill="#f0f" fill-rule="evenodd" stroke="#000" stroke-width="1.0228"/>
 <path d="m165.36 313.64 19.109-14.653-12.138-6.3911-19.141 14.243 12.17 6.801z" fill="#f0f" fill-rule="evenodd" stroke="#000" stroke-width="1.0228"/>
 <path d="m151.96 306.24 15.134-11.302-10.992-5.9201-15.207 10.899 11.066 6.3233z" fill="#f0f" fill-rule="evenodd" stroke="#000" stroke-width="1.0228"/>
 <path d="m139.75 299.33 11.112-7.9973-10.506-5.7964-10.989 7.8929 10.382 5.9008z" fill="#f0f" fill-rule="evenodd" stroke="#000" stroke-width="1.0228"/>
 <path d="m141.45 284.84 9.0367-6.4179 10.446 5.4863-9.1355 6.6814-10.347-5.7498z" fill="#f0f" fill-rule="evenodd" stroke="#000" stroke-width="1.0228"/>
 <path d="m200.07 302.08 8.2448-6.5868-10.67-5.4394-7.9644 6.3808 10.39 5.6453z" fill="#f0f" fill-rule="evenodd" stroke="#000" stroke-width="1.0228"/>
 <path d="m185.44 298.2 8.4198-6.6028-11.902-6.3423-8.4881 6.3776 11.971 6.5675z" fill="#f0f" fill-rule="evenodd" stroke="#000" stroke-width="1.0228"/>
 <path d="m168.25 294.18 8.4504-6.4085-11.057-5.8506-8.4415 6.2844 11.048 5.9747z" fill="#f0f" fill-rule="evenodd" stroke="#000" stroke-width="1.0228"/>
 <path d="m151.56 277.72 8.8038-6.0919 10.197 5.3852-8.6072 6.177-10.393-5.4704z" fill="#f0f" fill-rule="evenodd" stroke="#000" stroke-width="1.0228"/>
 <path d="m177.75 287.01 8.4833-6.5402-10.695-5.5269-8.9026 6.2844 11.114 5.7827z" fill="#f0f" fill-rule="evenodd" stroke="#000" stroke-width="1.0228"/>
 <path d="m161.45 270.89 8.5942-6.0686 10.15 5.2455-8.514 6.177-10.23-5.3539z" fill="#f0f" fill-rule="evenodd" stroke="#000" stroke-width="1.0228"/>
 <path d="m194.72 290.9 8.6174-6.7345-11.837-6.0788-8.4881 6.3776 11.707 6.4358z" fill="#f0f" fill-rule="evenodd" stroke="#000" stroke-width="1.0228"/>
 <path d="m209.45 294.74 8.5577-6.9985-10.504-5.3008-8.8054 6.7198 10.752 5.5795z" fill="#f0f" fill-rule="evenodd" stroke="#000" stroke-width="1.0228"/>
 <path d="m219.03 287 8.9199-7.1631-10.373-5.1691-9.036 6.9504 10.489 5.3819z" fill="#f0f" fill-rule="evenodd" stroke="#000" stroke-width="1.0228"/>
 <path d="m229.01 279.06 7.6262-5.9738-10.446-5.0647-7.6024 5.8542 10.423 5.1843z" fill="#f0f" fill-rule="evenodd" stroke="#000" stroke-width="1.0228"/>
 <path d="m237.61 272.25 8.5111-6.7656-10.307-4.9795-8.5725 6.6813 10.368 5.0638z" fill="#f0f" fill-rule="evenodd" stroke="#000" stroke-width="1.0228"/>
 <path d="m246.93 264.7 8.393-6.6691-10.109-4.8398-8.4102 6.5222 10.126 4.9867z" fill="#f0f" fill-rule="evenodd" stroke="#000" stroke-width="1.0228"/>
 <path d="m256.25 257.31 7.7519-6.1615-10.085-4.6488-7.6737 5.976 10.007 4.8343z" fill="#f0f" fill-rule="evenodd" stroke="#000" stroke-width="1.0228"/>
 <path d="m264.94 250.38 6.8494-5.8115-9.6504-4.4991-7.2618 5.6806 10.063 4.63z" fill="#f0f" fill-rule="evenodd" stroke="#000" stroke-width="1.0228"/>
 <path d="m272.68 243.8 7.7716-6.1738-9.5516-4.3015-7.7229 5.977 9.503 4.4983z" fill="#f0f" fill-rule="evenodd" stroke="#000" stroke-width="1.0228"/>
 <path d="m281.41 236.85 7.5081-6.0091-9.0576-4.4333-7.8217 6.0428 9.3712 4.3995z" fill="#f0f" fill-rule="evenodd" stroke="#000" stroke-width="1.0228"/>
 <path d="m171.19 264.05 9.3394-6.5344 9.7311 5.0592-8.9332 6.7825-10.137-5.3073z" fill="#f0f" fill-rule="evenodd" stroke="#000" stroke-width="1.0228"/>
 <path d="m181.56 256.75 8.5942-6.0686 9.4516 5.1523-8.3743 5.8976-9.6716-4.9813z" fill="#f0f" fill-rule="evenodd" stroke="#000" stroke-width="1.0228"/>
 <path d="m191.14 249.97 8.9901-6.3015 9.453 5.0944-9.003 6.3634-9.44-5.1563z" fill="#f0f" fill-rule="evenodd" stroke="#000" stroke-width="1.0228"/>
 <path d="m201.14 242.95 7.8264-5.4405 9.8003 4.5049-8.147 6.0566-9.4796-5.121z" fill="#f0f" fill-rule="evenodd" stroke="#000" stroke-width="1.0228"/>
 <path d="m209.94 236.71 8.5476-5.9289 9.6845 4.4071-8.3743 6.1305-9.8579-4.6087z" fill="#f0f" fill-rule="evenodd" stroke="#000" stroke-width="1.0228"/>
 <path d="m219.49 230.09 8.4521-5.8976 9.6845 4.1975-8.4354 6.0796-9.7012-4.3795z" fill="#f0f" fill-rule="evenodd" stroke="#000" stroke-width="1.0228"/>
 <path d="m229.05 223.35 8.5942-6.0686 9.5448 4.2208-8.514 6.177-9.625-4.3292z" fill="#f0f" fill-rule="evenodd" stroke="#000" stroke-width="1.0228"/>
 <path d="m238.76 216.51 7.7092-5.4864 9.5681 4.1277-7.7455 5.5948-9.5318-4.2361z" fill="#f0f" fill-rule="evenodd" stroke="#000" stroke-width="1.0228"/>
 <path d="m247.53 210.3 9.0017-6.1618 9.4284 4.0112-8.712 6.34-9.7181-4.1895z" fill="#f0f" fill-rule="evenodd" stroke="#000" stroke-width="1.0228"/>
 <path d="m192.43 277.38 8.6154-6.449 11.775 6.0099-8.5621 6.5204-11.828-6.0813z" fill="#f0f" fill-rule="evenodd" stroke="#000" stroke-width="1.0228"/>
 <path d="m202.02 270.13 8.1976-6.0251 11.707 5.8292-8.1724 6.2772-11.732-6.0813z" fill="#f0f" fill-rule="evenodd" stroke="#000" stroke-width="1.0228"/>
 <path d="m211.22 263.35 8.3009-6.2149 11.54 5.6674-8.2043 6.4051-11.636-5.8576z" fill="#f0f" fill-rule="evenodd" stroke="#000" stroke-width="1.0228"/>
 <path d="m220.49 256.41 11.507 5.6414 7.521-5.7989-11.436-5.5318s-7.5591 5.7213-7.5911 5.6893z" fill="#f0f" fill-rule="evenodd" stroke="#000" stroke-width="1.0228"/>
 <path d="m228.98 249.9 11.507 5.6414 7.521-5.7989-11.436-5.5318s-7.5592 5.7213-7.5911 5.6893z" fill="#f0f" fill-rule="evenodd" stroke="#000" stroke-width="1.0228"/>
 <path d="m237.57 243.45 11.411 5.5455 8.0947-6.414-11.051-5.2044-8.4541 6.0729z" fill="#f0f" fill-rule="evenodd" stroke="#000" stroke-width="1.0228"/>
 <path d="m247.07 236.57 11.009 5.2798 7.9046-6.1505-11.267-4.8745-7.647 5.7453z" fill="#f0f" fill-rule="evenodd" stroke="#000" stroke-width="1.0228"/>
 <path d="m255.9 229.99 11.054 4.9182 7.4306-5.7085-11.075-4.7634-7.4103 5.5537z" fill="#f0f" fill-rule="evenodd" stroke="#000" stroke-width="1.0228"/>
 <path d="m264.32 223.68 10.988 4.769 7.5849-5.8629-10.982-4.5955-7.5911 5.6893z" fill="#f0f" fill-rule="evenodd" stroke="#000" stroke-width="1.0228"/>
 <path d="m272.93 217.23 10.941 4.6017 6.4362-4.9401-10.849-4.6052-6.5288 4.9435z" fill="#f0f" fill-rule="evenodd" stroke="#000" stroke-width="1.0228"/>
 <path d="m280.51 211.48 10.693 4.6922 5.939-4.6237-10.758-4.4921-5.8734 4.4237z" fill="#f0f" fill-rule="evenodd" stroke="#000" stroke-width="1.0228"/>
 <path d="m187.21 279.65 8.4833-6.5402-10.695-5.5269-8.9026 6.2844 11.114 5.7827z" fill="#f0f" fill-rule="evenodd" stroke="#000" stroke-width="1.0228"/>
 <path d="m196.93 272.24 8.7545-6.4498-10.966-5.6173-8.9026 6.2844 11.114 5.7827z" fill="#f0f" fill-rule="evenodd" stroke="#000" stroke-width="1.0228"/>
 <path d="m206.76 265.04 8.8449-6.4046-10.695-5.2105-8.6766 6.1036 10.527 5.5115z" fill="#f0f" fill-rule="evenodd" stroke="#000" stroke-width="1.0228"/>
 <path d="m216.56 257.79 9.1705-6.6681-10.423-5.1434-9.35 6.668 10.603 5.1435z" fill="#f0f" fill-rule="evenodd" stroke="#000" stroke-width="1.0228"/>
 <path d="m226.62 250.28 7.8053-5.817-10.281-4.9767-7.7351 5.6438 10.21 5.1499z" fill="#f0f" fill-rule="evenodd" stroke="#000" stroke-width="1.0228"/>
 <path d="m235.32 243.66 7.6019-5.4554-10.04-4.9845-7.6821 5.5612 10.12 4.8787z" fill="#f0f" fill-rule="evenodd" stroke="#000" stroke-width="1.0228"/>
 <path d="m244.04 237.41 7.4295-5.7046-9.7381-4.9315-7.7209 5.5767 10.03 5.0595z" fill="#f0f" fill-rule="evenodd" stroke="#000" stroke-width="1.0228"/>
 <path d="m252.65 231.11 7.6523-5.837-9.7181-4.6338-7.688 5.4534 9.7538 5.0175z" fill="#f0f" fill-rule="evenodd" stroke="#000" stroke-width="1.0228"/>
 <path d="m261.24 224.42 7.219-5.212-9.6536-4.3763-7.0816 4.9562 9.5162 4.6321z" fill="#f0f" fill-rule="evenodd" stroke="#000" stroke-width="1.0228"/>
 <path d="m269.53 218.44 6.3136-4.8225-9.4747-4.3065-6.5521 4.7928 9.7131 4.3363z" fill="#f0f" fill-rule="evenodd" stroke="#000" stroke-width="1.0228"/>
 <path d="m276.8 212.88 5.4548-4.2349-9.6103-3.8092-5.2412 3.7983 9.3967 4.2459z" fill="#f0f" fill-rule="evenodd" stroke="#000" stroke-width="1.0228"/>
 <path d="m302.88 234.28 5.5045-4.5838c0.5465-0.4551 0.39212-1.0956-0.34857-1.4383l-7.5952-3.5137c-0.78113-0.36136-1.8736-0.2786-2.4468 0.18787l-5.7752 4.6998c-0.58355 0.47488-0.39966 1.1404 0.40955 1.49l7.8659 3.3978c0.76685 0.33126 1.8298 0.22346 2.3858-0.23956" fill="#808080" opacity=".9972"/>
 <path d="m235.3731,272.47703-7.94981-3.85423c-.68381-.33152-1.63568-.28825-2.13579.09686l-5.78558,4.45513c-.50643.38998-.3662.97695.31601,1.31628l7.93177,3.94524c.69779.34708 1.66984.30627 2.1779-.0917l5.80363-4.54616c.50162-.39295.34118-.98238-.35813-1.32142" fill="#808080" opacity=".9972"/>
 <path d="m247.43674,211.44485 7.60801,3.2821c.54937.237.64097.68178.20429.99721l-6.15889,4.44879c-.44231.31949-1.23991.3808-1.78724.13756l-7.57918-3.3683c-.53444-.23751-.60942-.68085-.16921-.99412l6.13007-4.36257c.43465-.30934 1.21564-.37211 1.75215-.14067" fill="#808080" opacity=".9972"/>
 <path d="m211.38791,264.687 9.30851,4.63487c.67742.3373.85727.89117.40086,1.24174l-6.49815,4.99124c-.47109.36185-1.39908.36966-2.0782.01764l-9.32854-4.83535c-.65251-.33823-.79557-.88991-.3232-1.23709l6.5182-4.79075c.45798-.33661 1.34917-.34662 2.00052-.0223" fill="#808080" opacity=".9972"/>
 <path d="m190.80124,251.03544 8.19638,4.46806c.33907.18485.36328.50821.05493.72536l-7.26243,5.11458c-.3076.21663-.83404.24741-1.181.06871l-8.38712-4.31975c-.36459-.18778-.40455-.51868-.08887-.74158l7.45316-5.2629c.31646-.22348.85863-.24672 1.21495-.05248" fill="#808080" opacity=".9972"/>
 <path d="m200.86922,319.47957-9.30662,7.84849c-.47149.3976-1.26656.48069-1.78201.1858l-10.32115-5.90456c-.51376-.29391-.5405-.84615-.06064-1.23773l9.47217-7.72982c.46484-.37933 1.24548-.45247 1.75102-.16446l10.15558,5.78588c.50718.28895.54836.83125.09165,1.2164" fill="#808080" opacity=".9972"/>
 <path d="m227.03328,279.37981-8.55868-4.26516c-.4967-.24753-1.24092-.1813-1.67011.14881l-7.45559,5.73478c-.44632.3433-.40262.82738.09951,1.08504l8.65441,4.4407c.51404.26377 1.28385.19088 1.72454-.16303l7.35989-5.91032c.42356-.34013.35425-.81756-.15397-1.07082" fill="#808080" opacity=".9972"/>
 <path d="m200.87727,244.07429 7.94693,4.28278c.41945.22606.43879.63322.04305.91294l-7.56867,5.34952c-.39889.28195-1.05751.32473-1.47642.09592l-7.93603-4.33478c-.41432-.22632-.42696-.63327-.02863-.91248l7.55776-5.29752c.39518-.277 1.04708-.32 1.46201-.09638" fill="#808080" opacity=".9972"/>
 <path d="m168.98 312.35 17.542-13.429c1.2251-0.93789 2.6871-1.4222 3.2869-1.0924l8.134 4.4736c0.60438 0.33239 0.1397 1.3711-1.0505 2.3356l-17.046 13.814c-1.3378 1.0841-2.9396 1.6726-3.5809 1.3115l-8.6295-4.8584c-0.63609-0.35813-0.03162-1.5009 1.3447-2.5545" fill="#808080" opacity=".9972"/>
 <path d="m192.51 290.87-9.2355-4.9212c-0.72831-0.38809-1.7305-0.38656-2.2495 0.00342l-6.5862 4.9486c-0.53461 0.40166-0.37747 1.0485 0.35482 1.4502l9.2884 5.0959c0.75364 0.41346 1.7894 0.41144 2.3199-0.00453l6.5332-5.1233c0.51472-0.40365 0.324-1.05-0.42515-1.4491" fill="#808080" opacity=".9972"/>
 <path d="m185.1382,279.89699-8.50433-4.39478c-.6051-.31269-1.48299-.28833-1.97065.05592l-7.07787,4.99634c-.52312.36925-.44013.93106.18861,1.25819l8.83769,4.59818c.63255.32912 1.54509.28341 2.04362-.10094l6.74456-5.19969c.46463-.35821.34699-.89871-.26163-1.21322" fill="#808080" opacity=".9972"/>
 <path d="m161.12258,272.02905 8.67382,4.58084c.42123.22247.47847.60381.12792.85539l-7.32141,5.25432c-.36174.2596-.99896.28696-1.4283.061l-8.84108-4.65328c-.4307-.22669-.47918-.6156-.10915-.87163l7.48865-5.18189c.35855-.24809.987-.26791 1.40955-.04475" fill="#808080" opacity=".9972"/>
 <path d="m220.2904,303.21609-7.09604,5.96711c-.44992.37833-1.30601.37892-1.91524.00278l-9.27073-5.72366c-.5492-.33907-.63898-.89292-.20492-1.24306l6.85221-5.52728c.42107-.33966 1.21135-.36173 1.77553-.04843l9.51458,5.284c.62467.34693.78024.92219.34461,1.28854" fill="#808080" opacity=".9972"/>
 <path d="m250.18 231.05-7.1523-3.6221c-0.71741-0.36332-1.7405-0.33424-2.2956 0.06674l-5.6702 4.0955c-0.58083 0.41952-0.45513 1.0587 0.28379 1.4315l7.3664 3.716c0.73645 0.37151 1.7808 0.32376 2.3397-0.10537l5.4562-4.1895c0.53425-0.41022 0.38721-1.0307-0.32787-1.3928" fill="#808080" opacity=".9972"/>
 <path d="m241.73896,237.6183-7.64021-3.79319c-.67328-.33427-1.62729-.3064-2.1375.06293l-5.84624,4.23216c-.50687.36693-.36737.92608.31127,1.25323l7.70127,3.71268c.66127.3188 1.59627.28531 2.09788-.07465l5.78519-4.15164c.50485-.36231.38433-.91583-.27166-1.24152" fill="#808080" opacity=".9972"/>
 <path d="m291.06923,231.66501 8.86614,3.79516c.55658.23825.6933.68477.3043,1.00029l-6.44562,5.22833c-.39078.31699-1.14279.36811-1.6839.11553l-8.61928-4.02298c-.5024-.23449-.60276-.66666-.22698-.96979l6.19871-5.00047c.37414-.30181 1.0898-.3673 1.60663-.14607" fill="#808080" opacity=".9972"/>
 <path d="m214.6618,258.17714-8.86857-4.32064c-.49-.23872-1.20924-.20105-1.61459.08411l-7.19537,5.06162c-.41523.29211-.36299.73012.11908.98252l8.72894,4.57022c.51383.26904 1.27015.23915 1.69361-.06749l7.33501-5.31125c.41303-.29908.32372-.74487-.19811-.99909" fill="#808080" opacity=".9972"/>
 <path d="m238.61522,217.71027 7.5896,3.35621c.54493.24097.60055.71327.12359,1.05933l-6.76985,4.91165c-.48928.35496-1.32655.44203-1.87611.19484l-7.65335-3.44243c-.54269-.24409-.58112-.72164-.08729-1.07035l6.83361-4.82543c.48151-.34 1.30157-.42184 1.8398-.18382" fill="#808080" opacity=".9972"/>
 <path d="m228.91723,224.61205 7.70052,3.3376c.55788.24179.6289.70993.15738,1.04976l-6.70736,4.83415c-.48582.35013-1.32851.42899-1.8875.17663l-7.71375-3.48232c-.54201-.24469-.58508-.71517-.09843-1.05474l6.72061-4.68941c.47259-.32976 1.28732-.40625 1.82853-.17167" fill="#808080" opacity=".9972"/>
 <path d="m257.14967,204.40311 8.17656,3.47865c.34841.14822.37977.44897.06947.67479l-7.55471,5.49788c-.33078.24072-.88697.31027-1.24614.15544l-8.42787-3.63328c-.35563-.15331-.36608-.46545-.02434-.69936l7.80599-5.34328c.32067-.21949.85596-.27766 1.20104-.13084" fill="#808080" opacity=".9972"/>
 <path d="m201.8511,271.34651 10.15139,5.18133c.45132.23036.55343.61488.22863.86224l-7.38158,5.62135c-.32919.25069-.95946.26491-1.41283.03181l-10.19734-5.24284c-.45008-.23141-.5455-.61735-.21427-.8653l7.42752-5.55985c.32682-.24465.95043-.25744 1.39848-.02874" fill="#808080" opacity=".9972"/>
 <path d="m219.21667,231.1118 8.20716,3.73481c.41361.18823.4698.54277.12482.79531l-7.09644,5.19501c-.36292.26569-.99513.32138-1.41627.12448l-8.35404-3.90564c-.41195-.19258-.44451-.55473-.07419-.81159l7.24336-5.02422c.35222-.2443.96078-.29238 1.3656-.10816" fill="#808080" opacity=".9972"/>
 <path d="m166.11 294.41-9.0696-4.8848c-0.52398-0.28222-1.5202-0.09691-2.2365 0.41645l-12.547 8.9923c-0.75739 0.5428-0.94511 1.2232-0.41788 1.5244l9.1305 5.2175c0.54488 0.31135 1.5931 0.10775 2.3472-0.45543l12.486-9.3249c0.71244-0.53207 0.84818-1.1941 0.30722-1.4855" fill="#808080" opacity=".9972"/>
 <path d="m151.01455,278.70397 9.36,4.91609c.30837.16196.34835.44512.08902.63479l-8.18616,5.9871c-.26657.19497-.72771.21514-1.03327.04534l-9.27146-5.15217c-.29021-.16128-.31116-.44175-.04757-.62896l8.09764-5.75101c.25662-.18226.69871-.20512.9918-.05118" fill="#808080" opacity=".9972"/>
 <path d="m175.52443,287.1458-8.72567-4.61687c-.6394-.33831-1.54739-.31714-2.03705.04738l-6.66143,4.95922c-.49649.36963-.38288.94524.25597,1.2907l8.71864,4.71477c.65187.3525 1.57785.33292 2.07491-.04404l6.66847-5.05711c.49011-.3717.3585-.94889-.29384-1.29405" fill="#808080" opacity=".9972"/>
 <path d="m201.97097,283.45905-9.18329-4.7162c-.71146-.36538-1.69929-.34465-2.21878.04567l-6.58621,4.94858c-.53412.4013-.40111,1.03493.30217,1.42155l9.08292,4.99312c.75039.41251 1.7948.40407 2.33736-.01994l6.68654-5.22552c.52712-.41195.33756-1.05784-.42071-1.44726" fill="#808080" opacity=".9972"/>
 <path d="m183.21 298.32-9.6511-5.0818c-0.6796-0.35783-2.0777-0.01157-3.1388 0.77799l-15.219 11.325c-1.1115 0.82714-1.4615 1.8009-0.78036 2.1815l9.6765 5.4077c0.69999 0.39119 2.1607 0.01936 3.2708-0.83191l15.194-11.651c1.0589-0.81198 1.3462-1.7602 0.64832-2.1276" fill="#808080" opacity=".9972"/>
 <path d="m181.25173,257.89055 8.27764,4.30353c.40372.20988.44363.59543.08826.86524l-7.59789,5.76871c-.38431.29178-1.03346.35014-1.45408.12992l-8.62318-4.5146c-.41818-.21895-.43028-.62221-.02855-.90329l7.94339-5.55765c.37158-.25997.99293-.30059 1.39441-.09186" fill="#808080" opacity=".9972"/>
 <path d="m207.30074,294.9799-8.70787-4.43907c-.52802-.26916-1.27875-.22332-1.68475.10197l-6.50034,5.20785c-.4051.32456-.31849.81006.19567,1.08943l8.47908,4.60713c.54431.29576 1.32142.26492 1.74078-.0701l6.72914-5.37594c.42032-.3358.30731-.83629-.25171-1.12127" fill="#808080" opacity=".9972"/>
 <path d="m210.32 311.53-6.5723 5.4697c-0.66725 0.5553-1.886 0.61493-2.7357 0.12985l-8.7675-5.0054c-0.90739-0.51804-1.0686-1.3969-0.35818-1.9663l6.9937-5.6053c0.69047-0.5534 1.9438-0.56744 2.8071-0.03566l8.3461 5.1411c0.80928 0.49849 0.93589 1.3317 0.28666 1.872" fill="#808080" opacity=".9972"/>
 <path d="m229.41 295.58-6.366 5.3635c-0.55996 0.47177-1.6247 0.50649-2.3867 0.07685l-8.7917-4.9564c-0.76744-0.43266-0.92376-1.1584-0.35105-1.6264l6.5108-5.3194c0.56003-0.45756 1.6181-0.47996 2.3729-0.05117l8.6468 4.9124c0.74955 0.42584 0.91252 1.1393 0.3649 1.6007" fill="#808080" opacity=".9972"/>
 <path d="m217.05231,287.26056-8.62147-4.35069c-.51554-.26017-1.27073-.20943-1.69511.11444l-7.2265,5.51489c-.45029.34363-.38977.84124.13773,1.11497l8.82481,4.57936c.5402.28033 1.32918.21713 1.76698-.1409l7.02316-5.74353c.41227-.33716.31795-.82233-.2096-1.08854" fill="#808080" opacity=".9972"/>
 <path d="m170.90895,265.27133 8.4176,4.35004c.48258.24941.55129.68245.15337.97116l-7.06058,5.12255c-.40725.29548-1.1273.32857-1.61374.07399l-8.4841-4.43996c-.48105-.25177-.5368-.68826-.12574-.97852l7.12707-5.03264c.4017-.28367 1.1088-.3133 1.58612-.06662" fill="#808080" opacity=".9972"/>
 <path d="m204.55438,265.20903-8.71994-4.46666c-.61798-.31654-1.51411-.28948-2.01076.0611l-7.07872,4.99694c-.51373.36264-.42443.91728.20179,1.2431l8.83766,4.59816c.63506.33042 1.55436.29636 2.05962-.07589l6.96102-5.12843c.48832-.35978.37586-.90741-.25067-1.22832" fill="#808080" opacity=".9972"/>
 <path d="m194.5991,272.5456-8.50432-4.39477c-.60507-.31269-1.48299-.28833-1.97066.05592l-7.07787,4.99633c-.52311.36927-.44009.93108.18862,1.25819l8.83768,4.59819c.63257.32911 1.5451.28342 2.04363-.10093l6.74456-5.19969c.46463-.35822.34699-.89871-.26164-1.21324" fill="#808080" opacity=".9972"/>
 <path d="m284.73208,249.18471 6.91174-5.72645c.28838-.23891.19836-.58094-.20066-.76676l-9.15954-4.26541c-.3781-.17607-.91239-.13359-1.19901.09516l-6.86644,5.48025c-.29581.23609-.2321.57595.14395.76209l9.11422,4.51161c.39725.19664.95784.15633 1.25574-.09049" fill="#808080" opacity=".9972"/>
 <path d="m266.25849,207.11055-8.03553-3.42968c-.35046-.14957.03962-.73946.86921-1.31929l17.36436-12.1368c.7134-.49864 1.55348-.79408 1.88789-.66505l7.65786,2.95488c.34413.1328.06351.65407-.63351,1.17154l-16.98658,12.61119c-.81256.60326-1.76213.96752-2.1237.81321" fill="#808080" opacity=".9972"/>
 <path d="m150.04703,290.88787-8.90327-4.91214c-.43907-.24225-1.16562-.1689-1.62945.16425l-9.31242,6.68888c-.46479.33384-.49001.80098-.0561,1.04759l8.79838,5.00066c.44351.25207 1.17933.18285 1.64934-.15542l9.41732-6.7774c.46904-.33755.48498-.80883.0362-1.05642" fill="#808080" opacity=".9972"/>
 <path d="m308.02082,201.07469-17.76694-6.89592c-1.21745-.47255-2.76171-.45482-3.44341.04885l-11.88242,8.77939c-.71373.52733-.85939.98068.52451,1.36589l6.75543,2.76082c1.09282.44661 1.09065.46973 2.03964-.22179l1.26465-.92155c.27654-.20152 1.10529-.27965 1.99385.10321l9.15262,3.94342c1.00937.28095 1.88621.36648 2.456-.08121l9.52182-7.4813c.54833-.43082.27891-1.05257-.61575-1.39981" fill="#808080"/>
 <path d="m263.00018,250.94679-8.47808-3.90799c-.43617-.20105-1.05678-.15228-1.39254.1092l-6.45106,5.02386c-.34156.26602-.26904.64829.16367.85734l8.41225,4.06389c.4507.21773 1.09226.17233 1.43738-.10198l6.51687-5.17978c.33911-.26954.24564-.6552-.20849-.86454" fill="#808080" opacity=".9972"/>
 <path d="m224.63535,250.5847-8.22546-4.05879c-.61287-.30241-1.54206-.23556-2.08349.15054l-7.37837,5.26188c-.55087.39285-.4925.95315.13095,1.25558l8.36713,4.05889c.61519.29841 1.54545.22188 2.08571-.17096l7.23672-5.26195c.53105-.38615.47163-.93674-.13319-1.23519" fill="#808080" opacity=".9972"/>
 <path d="m220.79919,257.76358 8.95421,4.39758c.72431.35572.90544.95705.40399,1.34854l-6.36601,4.9699c-.51696.4036-1.52305.43265-2.25356.06493l-9.02914-4.54513c-.71384-.35935-.86581-.96403-.34287-1.35556l6.44094-4.82234c.50746-.37994 1.48436-.40565 2.19244-.05792" fill="#808080" opacity=".9972"/>
 <path d="m209.90305,237.93879 7.78839,3.58011c.59426.27316.71648.76271.2675,1.09649l-6.47753,4.81545c-.47586.35378-1.32813.38688-1.90423.07567l-7.53324-4.06957c-.50176-.27106-.53405-.74363-.07793-1.06071l6.22267-4.32569c.43227-.3005 1.19446-.35075 1.71437-.11175" fill="#808080" opacity=".9972"/>
 <path d="m300.49 221.42 17.878-14.444c0.83532-0.67485 1.1928-1.3389 0.80516-1.4907l-7.7347-3.0296c-0.36516-0.14303-1.3196 0.26073-2.1434 0.90699l-17.609 13.813c-0.89041 0.69849-1.327 1.4012-0.97503 1.5738l7.4653 3.6602c0.37458 0.18366 1.4082-0.25887 2.3135-0.99024" fill="#808080" opacity=".9972"/>
 <path d="m258.97 224.64-7.1364-3.4028c-0.69304-0.33045-1.6893-0.2823-2.2396 0.10805l-5.6459 4.0048c-0.58095 0.41209-0.49425 1.0316 0.20059 1.3891l7.1625 3.6845c0.74053 0.38094 1.8081 0.33211 2.387-0.10944l5.6196-4.2865c0.54715-0.41735 0.3892-1.0362-0.34782-1.3877" fill="#808080" opacity=".9972"/>
 <path d="m245.03115,264.95865-8.1334-3.9295c-.59947-.28961-1.48109-.21148-1.97754.17545l-6.76484,5.27237c-.50501.3936-.42678.94776.17624,1.24227l8.18189,3.99605c.60818.29703 1.50215.21508 2.00355-.1835l6.71634-5.3389c.49291-.3918.40232-.94215-.20224-1.23424" fill="#808080" opacity=".9972"/>
 <path d="m241.3425,254.88757 5.83591-4.49966c.46229-.35645.25828-.92152-.45622-1.26712l-8.8741-4.29241c-.70503-.34101-1.64731-.3341-2.11395.01564l-5.89029,4.41461c-.47559.35644-.28847.92349.42082,1.27122l8.92849,4.37746c.71894.35247 1.6781.34359 2.14934-.01974" fill="#808080" opacity=".9972"/>
 <path d="m250.1 248.11 5.944-4.7098c0.57422-0.455 0.3694-1.1321-0.45415-1.5199l-8.1166-3.8224c-0.80225-0.3778-1.9271-0.33625-2.5271 0.09479l-6.2079 4.4594c-0.64415 0.4627-0.50083 1.1606 0.32702 1.5629l8.3804 4.0728c0.85082 0.41349 2.0372 0.3511 2.6543-0.13788" fill="#808080" opacity=".9972"/>
 <path d="m270.78129,244.1004-7.61544-3.55042c-.5668-.26425-1.35301-.21933-1.76396.10213l-5.7298,4.48217c-.43772.34238-.31523.83827.27592,1.11026l7.9409,3.65372c.58439.26888 1.38813.20214 1.80089-.14807l5.40439-4.58547c.3877-.32894.24766-.80299-.3129-1.06432" fill="#808080" opacity=".9972"/>
 <path d="m279.36283,237.13131-7.41125-3.33763c-.58165-.26194-1.42977-.1774-1.90376.18943l-5.99253,4.63781c-.48462.37505-.41074.89735.16777,1.17121l7.37349,3.4903c.60112.28456 1.47965.20181 1.96743-.18569l6.03029-4.79049c.47685-.37882.37261-.9029-.23144-1.17494" fill="#808080" opacity=".9972"/>
 <path d="m259.14 241.02 5.8055-4.5172c0.57403-0.44665 0.33291-1.1093-0.53298-1.484l-8.2723-3.579c-0.79271-0.34296-1.8729-0.28164-2.4286 0.13587l-5.6164 4.2196c-0.56926 0.42769-0.40978 1.0694 0.36427 1.4406l8.0831 3.8765c0.84669 0.40603 2.0085 0.36576 2.5973-0.09241" fill="#808080" opacity=".9972"/>
 <path d="m232.79455,261.43519 5.93503-4.5761c.43507-.33544.24302-.86726-.42948-1.19256l-9.02485-4.3653c-.66349-.32094-1.55032-.31444-1.98946.01468l-5.99035,4.48961c-.44766.33552-.27157.86919.39594,1.19646l9.08016,4.45179c.67668.33176 1.57944.32342 2.02301-.01858" fill="#808080" opacity=".9972"/>
 <path d="m254.17375,257.48652-7.84412-3.75537c-.62062-.29713-1.5348-.21394-2.05135.18664l-6.52585,5.0609c-.52739.40899-.45285.98478.16874,1.29088l7.85745,3.86936c.63535.31288 1.57196.22794 2.09833-.19034l6.51251-5.17485c.51541-.40955.41846-.98359-.21571-1.28722" fill="#808080" opacity=".9972"/>
 <path d="m233.04 243.79-7.5503-3.6551c-0.74304-0.35969-1.7935-0.31724-2.358 0.0947l-5.6811 4.1452c-0.57331 0.41831-0.44316 1.0542 0.29469 1.4264l7.4987 3.7822c0.76432 0.38551 1.8479 0.34917 2.4265-0.08205l5.7327-4.2723c0.56962-0.42451 0.40632-1.0666-0.36311-1.439" fill="#808080" opacity=".9972"/>
 <path d="m282.03015,224.70872 5.94725-4.62508c.58779-.45711 1.58381-.5702 2.23528-.25417l6.55329,3.17904c.6611.3207.72612.95398.14372,1.42049l-5.8936,4.72082c-.59812.47911-1.61803.59934-2.28463.26893l-6.60694-3.27477c-.65672-.32553-.69787-.96593-.09437-1.43526" fill="#808080" opacity=".9972"/>
 <path d="m274.59176,213.04701-6.95875-3.16291c-.70251-.31931-1.65024-.29775-2.12511.04962l-4.81209,3.51998c-.48904.35772-.30304.90566.41727,1.22723l7.13386,3.18479c.70857.31634 1.65849.28023 2.12968-.07968l4.63698-3.54187c.45766-.34956.26943-.88295-.42184-1.19716" fill="#808080" opacity=".9972"/>
 <path d="m292.00448,215.55279 4.36192-3.39589c.43262-.33682.1238-.88173-.68827-1.2208l-7.90075-3.29895c-.77094-.32191-1.73305-.32084-2.16103.00151l-4.31378,3.249c-.43604.3284-.17356.86266.59246,1.1988l7.85261,3.44581c.80735.35428 1.81581.36387 2.25684.02052" fill="#808080" opacity=".9972"/>
 <path d="m284.72744,221.17105 4.72715-3.62833c.47141-.36183.2116-.92421-.5828-1.26141l-7.96806-3.38231c-.80152-.34025-1.83198-.32307-2.31017.03901l-4.79522,3.63084c-.48223.36512-.21946.93321.58892,1.2732l8.03613,3.37983c.80118.33695 1.82868.31404 2.30405-.05083" fill="#808080" opacity=".9972"/>
 <path d="m280.70619,208.18882-7.05285-2.79557c-.66067-.26186-1.49042-.25052-1.86859.02353l-3.84925,2.78955c-.39296.28477-.19674.74682.44814,1.03821l6.89581,3.11585c.73981.33427 1.67336.34963 2.08302.03159l4.00606-3.11015c.39292-.30505.09305-.79361-.66234-1.09301" fill="#808080" opacity=".9972"/>
 <path d="m267.13462,218.61017-7.08909-3.21371c-.68865-.31219-1.65432-.27259-2.16945.08794l-5.20112,3.64005c-.52667.3686-.40785.93046.27073,1.26076l6.98818,3.40153c.72179.35133 1.73912.32286 2.27624-.06492l5.30199-3.82792c.52489-.37896.35442-.95194-.37748-1.28373" fill="#808080" opacity=".9972"/>
 <path d="m287.7354,230.25946-6.65224-3.25595c-.67638-.33106-1.67748-.24659-2.24425.1913l-5.74455,4.4381c-.58393.45112-.49018,1.08045.20982,1.40907l6.88255,3.23116c.67866.3186 1.67586.21255 2.23622-.23592l5.51423-4.41331c.5442-.43557.45435-1.04329-.20178-1.36445" fill="#808080" opacity=".9972"/>
 <path d="m267.95 234.14 5.4575-4.1927c0.54186-0.41627 0.31029-1.0379-0.51644-1.3935l-8.1338-3.4984c-0.80258-0.34519-1.8816-0.29678-2.4221 0.10827l-5.4426 4.079c-0.54965 0.41194-0.34952 1.0302 0.45144 1.3866l8.1189 3.6121c0.82532 0.36719 1.9358 0.32212 2.4871-0.10137" fill="#808080" opacity=".9972"/>
 <path d="m276.33 227.66 5.5708-4.306c0.55169-0.42643 0.33313-1.0461-0.48698-1.3893l-8.0655-3.3751c-0.79551-0.3329-1.8782-0.2676-2.4304 0.14631l-5.5753 4.1785c-0.56448 0.42306-0.38069 1.0416 0.4151 1.387l8.07 3.5026c0.82074 0.35622 1.9382 0.29202 2.5023-0.14402" fill="#808080" opacity=".9972"/>
 <g transform="matrix(1.0228 0 0 1.0228 -6.1273 -1.9736)" fill="#4d4d4d">
  <path d="m200.53013,313.0503-7.49555,6.32117c-.37973.32023-1.02008.38715-1.43523.14965l-8.31265-4.75554c-.41378-.23672-.43531-.68149-.04884-.99687l7.62889-6.22559c.37437-.30551 1.00311-.36442 1.41026-.13246l8.17931,4.65995c.40847.23272.44164.66949.07381.97969" opacity=".9972"/>
  <path d="m172.42 306.04 15.61-11.95c1.0902-0.83462 2.3913-1.2656 2.925-0.97211l7.2384 3.981c0.53782 0.2958 0.12431 1.2202-0.93486 2.0785l-15.17 12.293c-1.1905 0.96474-2.6159 1.4884-3.1866 1.1671l-7.6793-4.3235c-0.56606-0.3187-0.02814-1.3356 1.1966-2.2732" opacity=".9972"/>
  <path d="m183.72 293.09-8.4971-4.4742c-0.59833-0.31506-1.8292-0.0102-2.7634 0.68496l-13.399 9.9709c-0.97864 0.72825-1.2867 1.5856-0.68705 1.9207l8.5195 4.7611c0.61628 0.34441 1.9024 0.01704 2.8797-0.73243l13.377-10.258c0.93228-0.71489 1.1852-1.5497 0.5708-1.8732" opacity=".9972"/>
  <path d="m166.83 289.13-7.6963-4.1451c-0.44463-0.23948-1.29-0.08223-1.8979 0.35339l-10.647 7.6307c-0.64271 0.46062-0.802 1.038-0.35461 1.2936l7.748 4.4274c0.46238 0.26421 1.3519 0.09143 1.9918-0.38647l10.596-7.913c0.60457-0.4515 0.71975-1.0133 0.2607-1.2606" opacity=".9972"/>
  <path d="m151.36095,285.65566-7.51206-4.14458c-.37047-.2044-.98348-.14252-1.37484.13858l-7.8573,5.64369c-.39216.28168-.41344.67583-.04734.88391l7.42359,4.21927c.37421.21268.99504.15428 1.39162-.13113l7.94579-5.71839c.39575-.28481.4092-.68244.03054-.89135" opacity=".9972"/>
  <path d="m210.7 305.78-5.7721 4.8037c-0.58601 0.4877-1.6564 0.54005-2.4026 0.11404l-7.7-4.396c-0.79691-0.45497-0.93851-1.2268-0.31457-1.7269l6.1422-4.9228c0.60641-0.48602 1.7072-0.49835 2.4654-0.03132l7.33 4.5151c0.71075 0.43782 0.82194 1.1696 0.25176 1.6441" opacity=".9972"/>
  <path d="m220.36679,297.64972-6.16858,5.18721c-.39111.32888-1.13531.32939-1.66492.00241l-8.05903-4.97557c-.47744-.29476-.55548-.77623-.17816-1.08059l5.95664-4.80487c.36603-.29525 1.05301-.31445 1.54346-.04208l8.27103,4.59337c.54303.30158.67826.80166.29956,1.12012" opacity=".9972"/>
  <path d="m229.28 290.15-5.5074 4.6401c-0.48443 0.40815-1.4055 0.43818-2.0648 0.0665l-7.6059-4.288c-0.66393-0.3743-0.79918-1.0022-0.3037-1.407l5.6327-4.602c0.48451-0.39585 1.3999-0.41523 2.0528-0.04426l7.4806 4.2499c0.64845 0.3684 0.78943 0.98564 0.31567 1.3848" opacity=".9972"/>
  <path d="m207.6366,289.76045-7.43207-3.7887c-.45065-.22973-1.09138-.1906-1.43791.08703l-5.54795,4.44484c-.34575.277-.27182.69137.167.92981l7.23679,3.93213c.46457.25242 1.12782.2261 1.48573-.05983l5.74325-4.58829c.35874-.2866.26228-.71377-.21484-.95699" opacity=".9972"/>
  <path d="m193.30538,285.7839-8.08486-4.30808c-.63757-.33973-1.51491-.3384-1.96928.003l-5.76563,4.33203c-.468.35163-.33045.91785.31062,1.26956l8.13122,4.46106c.65975.36196 1.56651.36018 2.03086-.00395l5.71925-4.48501c.4506-.35336.28364-.91915-.37218-1.26861" opacity=".9972"/>
  <path d="m153.65825,274.40909 8.09972,4.25417c.26685.14015.30146.38518.07704.54931l-7.08394,5.18096c-.23068.16871-.62972.18617-.89413.03923l-8.02311-4.45845c-.25114-.13956-.26926-.38227-.04117-.54426l7.00733-4.97667c.22207-.15772.60463-.1775.85826-.04429" opacity=".9972"/>
  <path d="m176.68036,282.15173-7.59262-4.01735c-.55638-.29439-1.34646-.27597-1.77252.04122l-5.79644,4.31525c-.43203.32163-.33316.8225.22272,1.12311l7.58651,4.10253c.56722.30674 1.37296.2897 1.80549-.03831l5.80254-4.40044c.42648-.32342.31195-.82567-.25568-1.12601" opacity=".9972"/>
  <path d="m186.05575,275.08382-7.38738-3.81758c-.52562-.27162-1.28821-.25045-1.71183.04858l-6.14827,4.34012c-.45441.32077-.38232.80878.16383,1.09295l7.67697,3.99426c.54948.28589 1.34216.2462 1.77522-.08767l5.85873-4.51678c.40361-.31117.30142-.78067-.22727-1.05388" opacity=".9972"/>
  <path d="m163.51597,267.87954 7.64863,4.03942c.37144.19617.42191.53244.1128.75428l-6.45606,4.63328c-.31899.22892-.88089.25306-1.25949.0538l-7.79611-4.10329c-.37979-.19989-.42253-.54283-.09625-.76861l6.60354-4.56941c.31617-.21877.87034-.23625 1.24294-.03947" opacity=".9972"/>
  <path d="m173.08132,261.26965 7.33901,3.79266c.42075.21744.48067.595.13372.84671l-6.15586,4.46618c-.35507.25761-.98286.28646-1.40697.06451l-7.39699-3.87106c-.41941-.21949-.46802-.60006-.10963-.85313l6.21384-4.38778c.35024-.24731.96673-.27315 1.38288-.05809" opacity=".9972"/>
  <path d="m183.15808,254.05968 7.38302,3.83841c.36009.18721.3957.53108.07873.77174l-6.77675,5.14525c-.34277.26026-.92176.31231-1.29693.11589l-7.69123-4.02669c-.373-.19528-.38379-.55496-.02547-.80566l7.08491-4.95701c.33143-.23188.88562-.26811 1.24372-.08193" opacity=".9972"/>
  <path d="m195.50846,268.00414-7.58609-3.92027c-.53974-.27892-1.32287-.2572-1.75788.04988l-6.31366,4.45687c-.46664.3294-.39258.83056.16824,1.12235l7.88347,4.10171c.56426.29358 1.37827.25282 1.82298-.09003l6.01633-4.63828c.41447-.31954.30952-.80167-.23339-1.08223" opacity=".9972"/>
  <path d="m202.55006,278.55525-8.02953-4.12368c-.62206-.31947-1.48579-.30134-1.94002.03995l-5.75873,4.32684c-.46701.3509-.35072.90491.26422,1.24295l7.94175,4.3658c.65611.36068 1.56931.3533 2.04369-.01743l5.84646-4.56901c.4609-.36019.29516-.92493-.36784-1.26542" opacity=".9972"/>
  <path d="m217.28268,282.30723-7.5147-3.79217c-.44937-.22677-1.1076-.18254-1.47749.09974l-6.29881,4.80692c-.39248.29953-.33974.73325.12005.97184l7.69192,3.99149c.47086.24434 1.15856.18926 1.54015-.12281l6.12156-5.00621c.35935-.29387.27714-.71676-.18268-.9488" opacity=".9972"/>
  <path d="m223.63 280.97 47.572-38.162c0.56801-0.45177 1.7401-0.46114 2.6309-0.02142l6.3279 3.1045c0.90416 0.44636 1.1834 1.178 0.62315 1.6409l-46.853 39.255c-0.69701 0.5759-2.0362 0.60505-2.999 0.06477l-6.8694-3.9098c-0.94682-0.53132-1.1385-1.411-0.43339-1.9719"/>
  <path d="m227.03565,274.61509-7.46406-3.71966c-.43317-.21586-1.08221-.15811-1.45649.12978l-6.50206,5.00132c-.38923.2994-.35111.72157.0868.94626l7.54753,3.87275c.44828.23002 1.11965.16646 1.50398-.14218l6.41856-5.15441c.36938-.29663.30895-.71299-.13426-.93386" opacity=".9972"/>
  <path d="m192.51964,247.35677 7.26361,3.95958c.30048.1638.32193.45036.04868.6428l-6.43595,4.53253c-.2726.19198-.73911.21926-1.0466.06089l-7.43262-3.82815c-.32311-.16641-.35852-.45965-.07877-.65719l6.60497-4.66397c.28044-.19802.76091-.21862 1.07668-.04649" opacity=".9972"/>
  <path d="m204.95758,260.67876-7.5067-3.84519c-.532-.2725-1.30344-.24921-1.73099.0526l-6.09383,4.30169c-.44225.31219-.36539.78966.17371,1.07015l7.60803,3.9584c.54671.28444 1.3381.25512 1.77307-.06533l5.99249-4.4149c.42039-.30972.32357-.78115-.21578-1.05742" opacity=".9972"/>
  <path d="m203.42735,267.20908 8.80595,4.49461c.3915.19982.48008.53339.19833.74795l-6.40324,4.87632c-.28557.21747-.8323.2298-1.22559.0276l-8.8458-4.54797c-.39042-.20073-.47321-.53554-.18587-.75062l6.44309-4.82295c.28351-.21223.82446-.22332 1.21313-.02494" opacity=".9972"/>
  <path d="m212.72962,260.6903 8.08894,4.02762c.58866.29311.74495.77441.34834,1.07905l-5.64678,4.3373c-.40937.31444-1.21578.32122-1.80592.01533l-8.10633-4.20184c-.56702-.29391-.69134-.77331-.28086-1.075l5.6642-4.16309c.39798-.29251 1.17241-.3012 1.73841-.01937" opacity=".9972"/>
  <path d="m235.38208,267.94652-7.02013-3.4035c-.60385-.29275-1.4444-.25454-1.88603.08553l-5.10899,3.93413c-.44721.34437-.32337.86269.27906,1.16234l7.00419,3.48388c.61619.30648 1.47458.27045 1.92322-.08099l5.12493-4.01451c.44296-.34698.30128-.86749-.31625-1.16688" opacity=".9972"/>
  <path d="m202.3439,240.55011 7.06295,3.80639c.37281.20091.39.56279.03828.81139l-6.72677,4.75447c-.35452.25058-.93989.2886-1.31219.08525l-7.05327-3.8526c-.36824-.20115-.37946-.56284-.02545-.81098l6.71708-4.70826c.35122-.24619.93061-.28439 1.29937-.08566" opacity=".9972"/>
  <path d="m214.95641,253.88523-7.74776-3.77459c-.42807-.20855-1.05642-.17563-1.41054.07348l-6.28601,4.42194c-.36275.25518-.31711.63783.10404.85833l7.62575,3.99264c.4489.23503 1.10964.20893 1.47959-.05895l6.408-4.64002c.36083-.26128.28281-.65073-.17307-.87283" opacity=".9972"/>
  <path d="m221.9033,253.92205 7.84277,3.85171c.6344.31157.79305.83827.35384,1.18116l-5.57582,4.35301c-.4528.35349-1.33399.37895-1.97384.05686l-7.90838-3.98095c-.62524-.31474-.75835-.84437-.30032-1.1873l5.64145-4.22377c.44447-.33277 1.30012-.3553 1.9203-.05072" opacity=".9972"/>
  <path d="m244.75785,260.58731-7.17065-3.46436c-.52851-.25534-1.30576-.18645-1.74346.15468l-5.96408,4.64828c-.44522.34699-.37626.83557.15538,1.09522l7.21339,3.52302c.5362.26188 1.32435.18963 1.7664-.16177l5.92133-4.70694c.43454-.34542.35468-.83062-.17831-1.08813" opacity=".9972"/>
  <path d="m233.2943,256.416 5.16134-3.97954c.37834-.29172.21133-.75422-.37351-1.0371l-7.84835-3.79624c-.577-.2791-1.34821-.27345-1.73011.01278l-5.20943,3.90433c-.38931.29177-.23617.75588.34432,1.04048l7.89644,3.87146c.58848.28851 1.37356.28125 1.7593-.01617" opacity=".9972"/>
  <path d="m224.84883,246.55597-7.32149-3.61274c-.54551-.26918-1.37259-.20968-1.85451.134l-6.5675,4.6836c-.49034.34968-.43839.8484.11655,1.1176l7.4476,3.61281c.54759.26563 1.3756.1975 1.8565-.15217l6.4414-4.68366c.4727-.34371.41979-.8338-.11855-1.09944" opacity=".9972"/>
  <path d="m211.2176,234.55068 6.92164,3.1817c.52813.24277.63674.67783.23773.97446l-5.75666,4.27956c-.42291.3144-1.18034.34382-1.69231.06725l-6.69489-3.61668c-.44594-.2409-.47463-.66088-.06926-.94267l5.53015-3.8443c.38417-.26706 1.06154-.31171 1.5236-.09932" opacity=".9972"/>
  <path d="m233.15615,239.94299-6.71194-3.2492c-.66052-.31976-1.59432-.28202-2.09621.08418l-5.05027,3.68489c-.50966.37186-.39395.93719.26195,1.26802l6.66608,3.36224c.67945.3427 1.6427.3104 2.15707-.07294l5.09613-3.79794c.50635-.37736.36119-.94812-.32281-1.27925" opacity=".9972"/>
  <path d="m220.30432,227.87754 7.16054,3.25854c.36087.16422.40989.47355.10892.69388l-6.19149,4.53254c-.31664.23179-.86822.28038-1.23566.1086l-7.2887-3.40757c-.35942-.16803-.38782-.484-.06473-.7081l6.31966-4.38351c.3073-.21315.83826-.25511 1.19146-.09438" opacity=".9972"/>
  <path d="m253.8328,253.35343-7.02575-3.36361c-.55587-.26612-1.37469-.19162-1.83734.16717l-5.84504,4.53291c-.47236.36632-.4056.88205.15114,1.15621l7.03772,3.46569c.56905.28023 1.40795.20415 1.87941-.17048l5.83307-4.63499c.46164-.36682.37481-.88097-.19321-1.1529" opacity=".9972"/>
  <path d="m241.69245,250.18836 5.16996-3.98619c.40954-.31577.22881-.81636-.40415-1.12252l-7.86147-3.80259c-.62457-.3021-1.45932-.29598-1.87271.01385l-5.21813,3.91085c-.42133.31577-.25556.8181.37279,1.12616l7.90965,3.87793c.63688.31225 1.4866.30439 1.90406-.01749" opacity=".9972"/>
  <path d="m262.29906,246.8676-7.41738-3.41907c-.3816-.1759-.92456-.13323-1.21832.09553l-5.64396,4.39534c-.29883.23272-.23537.56717.1432.75006l7.35979,3.55546c.39431.19049.9556.15077 1.25754-.08922l5.70153-4.53173c.2967-.23582.21492-.57323-.1824-.75637" opacity=".9972"/>
  <path d="m269.92313,240.18072-6.6117-3.08246c-.4921-.22942-1.17467-.19042-1.53146.08868l-4.9746,3.89139c-.38001.29727-.27368.72778.23956.96393l6.89426,3.17215c.50736.23344 1.20517.17549 1.56352-.12856l4.69208-3.98108c.3366-.28559.21501-.69716-.27166-.92405" opacity=".9972"/>
  <path d="m284.15897,244.25926 5.93078-4.91372c.24745-.20501.17021-.49849-.17219-.65794l-7.85955-3.66002c-.32444-.15109-.7829-.11464-1.02884.08166l-5.89192,4.70244c-.25383.20259-.19915.49421.12353.65393l7.82067,3.87129c.34087.16874.82189.13415 1.07752-.07764" opacity=".9972"/>
  <path d="m290.6347,228.41799 7.84207,3.35681c.49227.21072.61321.60566.26913.88475l-5.70111,4.62442c-.34564.28037-1.0108.32559-1.48941.1022l-7.62372-3.55831c-.44436-.20741-.53313-.58966-.20075-.85779l5.48272-4.42288c.33093-.26696.96393-.32488 1.42107-.1292" opacity=".9972"/>
  <path d="m301.86982,230.05516 4.85673-4.04441c.48218-.40154.34597-.96669-.30754-1.26902l-6.7014-3.1002c-.6892-.31885-1.65308-.24582-2.15883.16575l-5.09559,4.1467c-.51488.419-.35262,1.00622.36135,1.31462l6.9402,2.99792c.67661.29228 1.61448.19718 2.10508-.21136" opacity=".9972"/>
  <path d="m229.75901,221.51708 6.54464,2.83662c.47414.20551.53451.60338.13375.8922l-5.70055,4.10853c-.4129.29758-1.1291.36459-1.60418.15012l-6.5559-2.95962c-.46065-.20796-.49725-.60782-.08365-.89641l5.71182-3.98553c.40165-.28026 1.09409-.34527 1.55407-.14591" opacity=".9972"/>
  <path d="m241.4331,233.77444-6.56608-3.25991c-.57862-.28728-1.3985-.26333-1.83698.05408l-5.02433,3.63717c-.43561.31534-.31571.79587.2675,1.07704l6.61856,3.19072c.56831.27397 1.37187.2452 1.80295-.06416l4.97185-3.56797c.43388-.31137.3303-.78707-.23347-1.06697" opacity=".9972"/>
  <path d="m250.22 243.4 5.1744-4.1c0.49988-0.39609 0.32157-0.98552-0.39536-1.3232l-7.0658-3.3275c-0.69839-0.32889-1.6776-0.29272-2.2 0.08253l-5.4042 3.882c-0.56074 0.40281-0.43599 1.0104 0.28468 1.3606l7.2955 3.5456c0.74068 0.35997 1.7734 0.30564 2.3107-0.12003" opacity=".9972"/>
  <path d="m259.03235,236.38432 4.96998-3.86712c.49142-.38237.28501-.94969-.45628-1.2704l-7.08175-3.06388c-.67862-.2936-1.60333-.24111-2.07906.11631l-4.80808,3.61233c-.48734.36614-.35081.9155.31184,1.23329l6.91981,3.31857c.72483.3476 1.71945.31312 2.22354-.0791" opacity=".9972"/>
  <path d="m249.92718,227.47874-6.34875-3.21511c-.63682-.3225-1.54492-.2967-2.03772.05925l-5.03318,3.63538c-.51557.37239-.40399.93976.25192,1.27064l6.53872,3.29853c.65371.32977 1.58073.28738 2.07682-.09353l4.84322-3.7188c.47422-.36412.34372-.91491-.29103-1.23636" opacity=".9972"/>
  <path d="m278.37779,233.42877-6.51151-2.93244c-.51103-.23014-1.25619-.15586-1.67265.16645l-5.26502,4.07476c-.42578.32952-.36089.78842.14741,1.02903l6.47833,3.06658c.52816.25 1.30001.17729 1.72858-.16317l5.29819-4.20891c.41897-.33283.3274-.79329-.20333-1.0323" opacity=".9972"/>
  <path d="m286.64967,226.73945-5.89498-2.88532c-.59939-.29337-1.48653-.21851-1.98879.16953l-5.09062,3.93289c-.51745.39976-.43437.95745.18595,1.24867l6.09907,2.86333c.60141.28235 1.4851.18836 1.98166-.20906l4.88651-3.91093c.48227-.38598.40264-.92452-.1788-1.20911" opacity=".9972"/>
  <path d="m267.6823,229.91307 4.78678-3.67741c.47526-.36512.27216-.91036-.45297-1.22224l-7.13418-3.06846c-.70394-.30277-1.65039-.2603-2.12443.09498l-4.77369,3.57769c-.4821.36131-.30657.90362.39597,1.21618l7.12108,3.16818c.72391.32207 1.69794.28252 2.18144-.08892" opacity=".9972"/>
  <path d="m258.51488,221.22986-6.32451-3.0157c-.61419-.29286-1.4971-.25019-1.9848.09575l-5.00353,3.54919c-.51485.36521-.43801.91426.17777,1.23103l6.34766,3.26534c.65628.3376 1.6024.29433 2.11541-.09698l4.98024-3.79884c.48491-.36988.34494-.91833-.30824-1.22979" opacity=".9972"/>
  <path d="m239.22906,214.77058 6.53042,2.88781c.46888.20735.51676.61375.10635.91151l-5.82509,4.22618c-.42099.30545-1.14141.38036-1.61428.16766l-6.58528-2.962c-.46697-.21005-.50002-.62093-.0751-.92098l5.87994-4.15202c.41432-.29255 1.11992-.36297 1.58304-.15816" opacity=".9972"/>
  <path d="m247.90724,208.64597 6.63035,2.86034c.47877.20654.55859.59417.17803.86906l-5.36744,3.87709c-.38547.27844-1.08057.33188-1.55757.11989l-6.60523-2.93546c-.46575-.20698-.5311-.59335-.14747-.86637l5.34233-3.80195c.37881-.26959 1.05944-.3243 1.527-.1226" opacity=".9972"/>
  <path d="m266.53609,215.35847-6.29359-2.85308c-.61139-.27716-1.46869-.242-1.92602.07806l-4.61749,3.23159c-.46757.32724-.36209.82606.24034,1.1193l6.20402,3.01983c.6408.31191 1.54397.28664 2.02081-.05763l4.70705-3.39838c.46599-.33644.31465-.84513-.33512-1.13969" opacity=".9972"/>
  <path d="m275.86123,223.49708 4.83474-3.73705c.4788-.3701.28912-.90789-.42263-1.20574l-6.99984-2.92918c-.69041-.28891-1.63003-.23224-2.10932.12697l-4.83866,3.62645c-.48989.36716-.33039.904.36026,1.20376l7.00376,3.03979c.7123.30915 1.6821.25344 2.17169-.125" opacity=".9972"/>
  <path d="m282.59083,221.04513 5.1282-3.98814c.50684-.39414 1.36569-.49167 1.92744-.21916l5.65078,2.74124c.57006.27654.62613.82259.12393,1.22486l-5.08194,4.07068c-.51575.41312-1.3952.51679-1.97.23189l-5.69703-2.82379c-.56629-.28068-.60176-.83289-.08138-1.23758" opacity=".9972"/>
  <path d="m273.82385,209.9072-6.14643-2.7937c-.62051-.28204-1.45759-.26299-1.87704.04383l-4.25035,3.10908c-.43196.31597-.26765.79993.36856,1.08396l6.3011,2.81303c.62585.2794 1.46489.24751 1.88106-.07038l4.0957-3.1284c.40424-.30877.23798-.77989-.3726-1.05742" opacity=".9972"/>
  <path d="m257.3726,201.76885 7.26942,3.09272c.30975.13178.33763.39916.06176.59992l-6.71655,4.88792c-.29408.21402-.78857.27586-1.10789.1382l-7.49285-3.23019c-.31617-.1363-.32545-.41381-.02163-.62178l6.93996-4.75046c.28509-.19515.76099-.24686 1.06778-.11633" opacity=".9972"/>
  <path d="m284.0905,217.40082 4.19471-3.21966c.41832-.32108.18777-.82011-.51715-1.11934l-7.07061-3.00137c-.71125-.30191-1.62564-.28666-2.04997.03463l-4.25512,3.22188c-.42793.32401-.19475.82811.52259,1.12981l7.13101,2.99915c.71093.299 1.6227.27868 2.04454-.0451" opacity=".9972"/>
  <path d="m300.1 217.07 16.217-13.102c0.7577-0.61215 1.0819-1.2145 0.73036-1.3522l-7.016-2.7481c-0.33123-0.12974-1.1969 0.23651-1.9442 0.82272l-15.973 12.53c-0.80768 0.63358-1.2037 1.271-0.88443 1.4276l6.7717 3.3201c0.33979 0.1666 1.2774-0.23483 2.0985-0.89822" opacity=".9972"/>
  <path d="m291.15172,211.81971 3.80612-2.96319c.37751-.29391.10804-.76938-.60056-1.06525l-6.89406-2.87861c-.67272-.28089-1.51222-.27996-1.88569.00132l-3.76412,2.83502c-.38048.28656-.15144.75275.51697,1.04605l6.85205,3.00676c.70449.30914 1.58445.31751 1.96929.0179" opacity=".9972"/>
  <path d="m279.78845,205.15721-6.13922-2.43341c-.57508-.22795-1.29735-.21808-1.62652.02047l-3.35061,2.42819c-.34206.24788-.17126.65007.39007.90371l6.00253,2.71222c.64397.29098 1.45659.30435 1.81318.02751l3.48712-2.70727c.34201-.26552.08098-.69079-.57655-.95142" opacity=".9972"/>
  <path d="m266.63729,203.4528-7.41292-3.16393c-.3233-.13799.03656-.68217.80186-1.21708l16.01892-11.19639c.65813-.46 1.43311-.73254 1.7416-.61351l7.06451,2.72593c.31746.1225.05858.60337-.58442,1.08075l-15.6704,11.63404c-.7496.55651-1.62561.89255-1.95915.75019" opacity=".9972"/>
  <path d="m306.08894,198.05464-16.22411-6.2971c-1.11174-.43151-2.52189-.41532-3.1444.04462l-10.85058,8.017c-.65174.48155-.78476.89553.47896,1.24728l6.16881,2.52108c.99792.40783.99594.42894 1.86252-.20253l1.15484-.84153c.25252-.18401 1.0093-.25536 1.82071.09424l8.35783,3.601c.92172.25655 1.72241.33465 2.24273-.07415l8.69497-6.83165c.50071-.39341.25469-.96117-.56228-1.27826"/>
 </g>
 <path d="m195.84 316.18c2.1734 1.3424 1.8858 2.3013-0.57533 4.5067-2.4812 2.2234 0.73514-0.99083 1.4064-2.0136 0.7008-1.0679-2.9671-3.8124-0.83102-2.4931z" fill="#fff" fill-rule="evenodd"/>
 <path d="m216.17 300.17c2.1735 1.3424 2.6209 2.0136 0.15981 4.2191-2.4812 2.2234 0.47944-0.95888 1.2785-2.0456 0.77722-1.057-3.5744-3.4928-1.4383-2.1734z" fill="#fff" fill-rule="evenodd"/>
 <path d="m206.46 308.32c2.1734 1.3424 2.7488 1.8218 0.28766 4.0273-2.4812 2.2234 0.60729-1.2146 1.0867-1.8538 0.56403-0.75204-3.5104-3.4928-1.3744-2.1734z" fill="#fff" fill-rule="evenodd"/>
 <path d="m225.51 292.47c2.1734 1.3424 2.7488 1.8219 0.28766 4.0273-2.4812 2.2234 1.2146-0.86299 0.99084-2.0776s-3.4146-3.269-1.2785-1.9497z" fill="#fff" fill-rule="evenodd"/>
 <path d="m203.5 293.36c2.136 1.3193 2.525 1.7739-0.01598 3.8994-2.5521 2.1348 1.0538-1.493 1.3105-1.9817 0.25009-0.47625-3.4305-3.2371-1.2945-1.9178z" fill="#fff" fill-rule="evenodd"/>
 <path d="m189 289.3c2.589 1.4383 2.9451 1.9121 0.28767 4.0273-2.673 2.1275 1.0867-1.1187 1.0867-2.1095 0-1.0228-3.9499-3.3486-1.3744-1.9178z" fill="#fff" fill-rule="evenodd"/>
 <path d="m171.17 285.43c2.3013 1.2146 3.0045 1.9497 0.28766 4.0273-2.7123 2.0741 1.3744-1.1187 1.1507-2.0776-0.23792-1.0196-3.7173-3.1525-1.4383-1.9497z" fill="#fff" fill-rule="evenodd"/>
 <path d="m155.95 281.5c2.1735 1.2785 2.8766 2.0456 0.28767 4.0273-2.6003 1.9903 1.1826-0.86299 0.95887-2.1415-0.22285-1.2734-3.4484-3.181-1.2465-1.8858z" fill="#fff" fill-rule="evenodd"/>
 <path d="m161.1 292.56c2.1735 1.3424 2.8686 1.9286 0.28766 4.0273s-4.2331 3.2124-0.73513 0.12786c3.5159-3.1004-1.6886-5.4744 0.44747-4.1551z" fill="#fff" fill-rule="evenodd"/>
 <path d="m178.74 296.62c3.6118 1.9178 3.0684 1.694-2.6209 6.2327-5.6738 4.5263 2.6387-2.7636 3.4839-3.7076 0.81509-0.91039-4.4499-4.4296-0.86299-2.525z" fill="#fff" fill-rule="evenodd"/>
 <path d="m193.22 300.42c2.1734 1.3424 2.2693 2.9406-3.8355 7.8628-6.1242 4.9379 5.6707-4.3923 4.1232-6.3925-1.5046-1.9448-2.4237-2.7896-0.28766-1.4703z" fill="#fff" fill-rule="evenodd"/>
 <path d="m145.18 288.69c2.6209 1.5342 2.6849 2.2054 0 4.219-2.6545 1.9909 1.4383-1.2785 1.2146-2.2374-0.21667-0.92858-3.8117-3.502-1.2146-1.9817z" fill="#fff" fill-rule="evenodd"/>
 <path d="m165.74 274.57c2.1735 1.3424 2.8766 2.0136 0.28766 4.0273-2.6202 2.038 0.7671-1.3424 1.1826-1.8538 0.38506-0.47393-3.6063-3.4928-1.4703-2.1734z" fill="#fff" fill-rule="evenodd"/>
 <path d="m181.27 278.15c2.1734 1.3424 2.7488 1.8219 0.28767 4.0273-2.4812 2.2234 1.0228-0.83103 0.79907-2.1095-0.22287-1.2734-3.2228-3.2371-1.0867-1.9178z" fill="#fff" fill-rule="evenodd"/>
 <path d="m198.27 281.88c2.1735 1.3424 2.7488 1.8218 0.28766 4.0273-2.4812 2.2234 1.0228-0.83102 0.79907-2.1095-0.22287-1.2734-3.2228-3.2371-1.0867-1.9177z" fill="#fff" fill-rule="evenodd"/>
 <path d="m213.09 285.58c2.8063 1.3876 3.2008 1.7767 0.28766 4.0273-2.87 2.2172 1.3431-1.3338 1.2511-2.1999-0.08726-0.82143-4.3819-3.2332-1.5388-1.8273z" fill="#fff" fill-rule="evenodd"/>
 <path d="m175.13 267.66c2.1734 1.3424 2.8642 1.9706 0.28767 4.0273-2.5451 2.0316 1.0228-0.89496 0.99083-2.0456s-3.4146-3.301-1.2785-1.9817z" fill="#fff" fill-rule="evenodd"/>
 <path d="m190.73 270.86c2.2374 1.2146 2.8766 1.8858 0.28767 4.0273-2.5465 2.1063 1.2146-0.7671 0.99083-2.0456-0.22286-1.2734-3.5236-3.2005-1.2785-1.9817z" fill="#fff" fill-rule="evenodd"/>
 <path d="m207.56 274.68c2.1735 1.3424 2.7488 1.8219 0.28767 4.0273-2.4812 2.2234 1.0228-0.83102 0.79907-2.1095-0.22287-1.2734-3.2228-3.2371-1.0867-1.9178z" fill="#fff" fill-rule="evenodd"/>
 <path d="m223.2 277.63c3.0323 1.6588 2.7488 1.8219 0.28766 4.0273-2.4812 2.2234 1.2586-1.4249 1.1607-2.2451-0.08725-0.73103-4.4459-3.422-1.4483-1.7822z" fill="#fff" fill-rule="evenodd"/>
 <path d="m277.38 248.7c4.5691 2.5629 4.1051 1.4316-6.4926 10.22-10.508 8.7142 3.4511-4.2378 6.2343-6.7786 2.7606-2.5201-4.3797-6.0429 0.25835-3.4414z" fill="#fff" fill-rule="evenodd"/>
 <path d="m231.58 270.35c2.1734 1.3424 2.7488 1.8219 0.28767 4.0273-2.4812 2.2234 1.0228-0.83103 0.79906-2.1095-0.22287-1.2734-3.2228-3.2371-1.0867-1.9178z" fill="#fff" fill-rule="evenodd"/>
 <path d="m241.29 263.7c2.1734 1.3424 2.7488 1.8219 0.28767 4.0273-2.4812 2.2234 1.0228-0.83104 0.79907-2.1095-0.22287-1.2734-3.2228-3.2371-1.0867-1.9178z" fill="#fff" fill-rule="evenodd"/>
 <path d="m250.24 256.54c2.1734 1.3424 2.7488 1.8219 0.28767 4.0273-2.4812 2.2234 1.0228-0.83103 0.79905-2.1095-0.22285-1.2734-3.2228-3.2371-1.0867-1.9178z" fill="#fff" fill-rule="evenodd"/>
 <path d="m258.68 249.38c2.1734 1.3424 2.7488 1.8219 0.28766 4.0273-2.4812 2.2234 1.0228-0.83103 0.79906-2.1095-0.22285-1.2734-3.2228-3.2371-1.0867-1.9178z" fill="#fff" fill-rule="evenodd"/>
 <path d="m215.09 267.41c2.1734 1.3424 2.7488 1.8219 0.28766 4.0273-2.4812 2.2234 1.0228-0.83103 0.79906-2.1095-0.22286-1.2734-3.2228-3.2371-1.0867-1.9177z" fill="#fff" fill-rule="evenodd"/>
 <path d="m200.55 263.45c3.7716 1.9817 3.1323 1.9497 0.28766 4.0273-2.785 2.034 0.43519-0.83103 1.2059-1.9287 0.74206-1.0569-5.2391-4.0666-1.4936-2.0986z" fill="#fff" fill-rule="evenodd"/>
 <path d="m185.49 260.5c2.8127 1.662 3.1962 1.7579 0.28766 4.0273-2.869 2.2385 1.2785-0.76711 1.0548-2.0456-0.22286-1.2734-4.1079-3.6158-1.3424-1.9817z" fill="#fff" fill-rule="evenodd"/>
 <path d="m194.5 253.47c2.1734 1.3424 2.7488 1.8219 0.28766 4.0273-2.4812 2.2234 1.0228-0.83102 0.79907-2.1095-0.22286-1.2734-3.2228-3.2371-1.0867-1.9178z" fill="#fff" fill-rule="evenodd"/>
 <path d="m204.79 246.89c2.1734 1.3424 2.7488 1.8219 0.28765 4.0273-2.4812 2.2234 1.0228-0.83102 0.79907-2.1095-0.22286-1.2734-3.2228-3.2371-1.0867-1.9178z" fill="#fff" fill-rule="evenodd"/>
 <path d="m209.97 256.35c2.1735 1.3424 2.7488 1.8219 0.28766 4.0273-2.4812 2.2234 1.0228-0.83103 0.79907-2.1095-0.22287-1.2734-3.2228-3.2371-1.0867-1.9178z" fill="#fff" fill-rule="evenodd"/>
 <path d="m219.94 249c2.1734 1.3424 2.7488 1.8219 0.28766 4.0273-2.4812 2.2234 1.0228-0.83104 0.79907-2.1095-0.22286-1.2734-3.2228-3.2371-1.0867-1.9177z" fill="#fff" fill-rule="evenodd"/>
 <path d="m226.08 260.57c2.1734 1.3424 2.7488 1.8218 0.28766 4.0273-2.4812 2.2234 1.0228-0.83104 0.79906-2.1095-0.22285-1.2734-3.2228-3.2371-1.0867-1.9177z" fill="#fff" fill-rule="evenodd"/>
 <path d="m234.39 254.11c2.1734 1.3424 2.7488 1.8219 0.28767 4.0273-2.4812 2.2234 1.0228-0.83103 0.79907-2.1095-0.22286-1.2734-3.2228-3.2371-1.0867-1.9178z" fill="#fff" fill-rule="evenodd"/>
 <path d="m229.28 242.22c2.1735 1.3424 2.7488 1.8219 0.28767 4.0273-2.4812 2.2234 1.0228-0.83102 0.79907-2.1095-0.22287-1.2734-3.2228-3.2371-1.0867-1.9178z" fill="#fff" fill-rule="evenodd"/>
 <path d="m243.01 247.59c2.3805 1.1929 2.8392 1.8219 0.37807 4.0273-2.4812 2.2234 1.294-1.509 1.2059-2.1999s-4.0364-3.0563-1.5839-1.8274z" fill="#fff" fill-rule="evenodd"/>
 <path d="m213.87 239.98c2.1734 1.3424 2.7488 1.8219 0.28767 4.0273-2.4812 2.2234 1.0228-0.83103 0.79905-2.1095-0.22286-1.2734-3.2228-3.2371-1.0867-1.9177z" fill="#fff" fill-rule="evenodd"/>
 <path d="m222.92 233.04c2.3994 1.1616 3.02 1.9575 0.28765 4.0273-2.7258 2.0649 1.4296-1.6447 1.3415-2.2903-0.10025-0.73453-4.0112-2.8901-1.6291-1.737z" fill="#fff" fill-rule="evenodd"/>
 <path d="m246.65 229.49c2.3542 1.252 3.246 1.5959 0.28766 4.0273-2.9363 2.4133 1.4296-0.92143 1.2059-2.1999-0.22285-1.2734-3.8293-3.0695-1.4935-1.8273z" fill="#fff" fill-rule="evenodd"/>
 <path d="m237.71 235.85c2.3091 1.1842 2.9296 2.0027 0.28767 4.0273s1.3844-1.3735 1.2511-2.1999c-0.14878-0.92219-3.8387-3.0069-1.5387-1.8274z" fill="#fff" fill-rule="evenodd"/>
 <path d="m284.38 228.84c2.2864 1.2068 2.6657 2.008 0.28765 4.0273-2.3911 2.0304 0.84192-1.1299 1.1833-1.7931 0.33241-0.6458-3.7397-3.4317-1.4709-2.2342z" fill="#fff" fill-rule="evenodd"/>
 <path d="m232.52 226.41c2.2639 1.1164 2.8844 1.7315 0.28767 3.7561-2.6188 2.0418 1.4296-1.3735 1.2511-2.0643-0.17605-0.68124-3.7663-2.7903-1.5388-1.6918z" fill="#fff" fill-rule="evenodd"/>
 <path d="m242.5 219.69c3.3735 1.8325 2.2515 1.5507-0.29998 3.6205-2.5244 2.0478 1.562-1.4713 1.3415-2.1999s-4.415-3.253-1.0415-1.4205z" fill="#fff" fill-rule="evenodd"/>
 <path d="m255.29 223.29c2.4673 1.2972 2.9974 1.9574 0.28766 4.0273s1.3166-1.4412 1.2285-2.1095c-0.09147-0.6937-3.9657-3.2057-1.5161-1.9178z" fill="#fff" fill-rule="evenodd"/>
 <path d="m269.1 227.39c2.1734 1.3424 2.7488 1.8219 0.28766 4.0273-2.4812 2.2234 1.0228-0.83101 0.79907-2.1095-0.22286-1.2734-3.2228-3.2371-1.0867-1.9178z" fill="#fff" fill-rule="evenodd"/>
 <path d="m260.47 233.78c2.1734 1.3424 2.7488 1.8219 0.28766 4.0273-2.4812 2.2234 1.0228-0.83101 0.79906-2.1095-0.22285-1.2734-3.2228-3.2371-1.0867-1.9178z" fill="#fff" fill-rule="evenodd"/>
 <path d="m252 240.42c2.7611 1.4328 2.8844 1.8671 0.28767 4.0273-2.5927 2.1568 1.294-1.4639 1.2059-2.2903-0.09436-0.88477-4.1642-3.1246-1.4936-1.737z" fill="#fff" fill-rule="evenodd"/>
 <path d="m266.74 242.22c2.1735 1.3424 2.7488 1.8219 0.28767 4.0273-2.4812 2.2234 1.0228-0.83102 0.79905-2.1095-0.22285-1.2734-3.2228-3.2371-1.0867-1.9178z" fill="#fff" fill-rule="evenodd"/>
 <path d="m275.78 235.81c2.5124 1.2068 2.907 1.7541 0.31026 3.8917-2.5811 2.1248 1.4312-1.4014 1.3415-2.1999-0.08725-0.77621-4.1095-2.8722-1.6517-1.6917z" fill="#fff" fill-rule="evenodd"/>
 <path d="m286.95 240.94c2.6848 1.4383 2.9725 1.8059 0.28765 4.0273-2.6692 2.2085 0.20299-0.57097 1.0068-1.5981 0.78397-1.0018-3.9596-3.8569-1.2945-2.4292z" fill="#fff" fill-rule="evenodd"/>
 <path d="m295.77 234.09c2.5124 1.139 2.9296 1.7767 0.28766 4.0273-2.6197 2.2317-0.01593-0.48391 1.0477-1.7253 1.0411-1.2151-3.8206-3.4286-1.3353-2.302z" fill="#fff" fill-rule="evenodd"/>
 <path d="m304.37 227.14c2.4672 1.2972 2.7488 1.8219 0.28765 4.0273-2.4812 2.2234 0.07513-0.67657 0.70867-1.8609 0.68117-1.2734-3.4366-3.4494-0.99632-2.1664z" fill="#fff" fill-rule="evenodd"/>
 <path d="m293.12 221.54c2.3492 1.1506 2.8606 1.8858 0.28767 4.0273s1.1991-1.4261 1.1347-2.2374c-0.06304-0.79401-3.7715-2.9405-1.4223-1.7899z" fill="#fff" fill-rule="evenodd"/>
 <path d="m277.51 220.7c2.8515 1.6136 2.8844 2.0027 0.28766 4.0273-2.6188 2.0418-1.0293 0.13655 0.75386-1.2507 1.8112-1.4091-3.7859-4.3296-1.0415-2.7766z" fill="#fff" fill-rule="evenodd"/>
 <path d="m263.22 217.42c2.1734 1.3424 2.7488 1.8219 0.28766 4.0273-2.4812 2.2234 1.0228-0.83104 0.79906-2.1095-0.22285-1.2734-3.2228-3.2371-1.0867-1.9178z" fill="#fff" fill-rule="evenodd"/>
 <path d="m251.16 213.32c3.2367 1.4612 3.2008 1.5507 0.19725 3.6657-3.025 2.1301 1.5136-1.127 1.2511-2.0643-0.26805-0.95703-4.6475-3.0456-1.4483-1.6014z" fill="#fff" fill-rule="evenodd"/>
 <path d="m260.86 206.1c2.1734 1.3424 2.7488 1.8219 0.28766 4.0273-2.4812 2.2234 1.0228-0.83103 0.79907-2.1095-0.22287-1.2734-3.2228-3.2371-1.0867-1.9178z" fill="#fff" fill-rule="evenodd"/>
 <path d="m271.02 211.73c2.1734 1.3424 2.7488 1.8219 0.28767 4.0273-2.4812 2.2234 1.0228-0.83102 0.79905-2.1095-0.22285-1.2734-3.2228-3.2371-1.0867-1.9178z" fill="#fff" fill-rule="evenodd"/>
 <path d="m284.99 215c2.7159 1.252 3.1104 1.8218 0.28767 4.0273-2.7669 2.1618-0.24286 0.07302 1.0703-1.7479 1.2096-1.6774-3.9995-3.4971-1.358-2.2794z" fill="#fff" fill-rule="evenodd"/>
 <path d="m276.9 206.81c2.1735 1.3424 2.7488 1.8219 0.28766 4.0273-2.4812 2.2234 1.0228-0.83103 0.79907-2.1095-0.22286-1.2734-3.2228-3.2371-1.0867-1.9178z" fill="#fff" fill-rule="evenodd"/>
 <path d="m292.18 209.68c2.1734 1.3424 2.7488 1.8219 0.28766 4.0273-2.4812 2.2234 1.0228-0.83102 0.79906-2.1095-0.22285-1.2734-3.2228-3.2371-1.0867-1.9178z" fill="#fff" fill-rule="evenodd"/>
 <path d="m314.68 204.25c3.0684 1.1506 3.196 1.3135-3.2921 6.5523-6.4567 5.2135 1.5957-1.7256 3.7716-3.7716 2.1929-2.0619-3.5375-3.9275-0.47945-2.7807z" fill="#fff" fill-rule="evenodd"/>
 <path d="m303.62 199.97c2.1734 1.3424 2.7488 1.8219 0.28766 4.0273-2.4812 2.2234 1.0228-0.83102 0.79905-2.1095-0.22285-1.2734-3.2228-3.2371-1.0867-1.9178z" fill="#fff" fill-rule="evenodd"/>
 <path d="m281.08 191.31c3.8911 1.5684 3.7432 1.415-2.3793 6.1066s2.6953-2.5487 3.9632-3.782-5.5072-3.906-1.5839-2.3246z" fill="#fff" fill-rule="evenodd"/>
 <path d="m247.05 21.87-205.93 67.633 7.3833 49.638c68.052-35.002 144.38-12.527 197.66-35.414l0.89496-81.856z" fill="url(#d)" fill-rule="evenodd"/>
 <path d="m27.882 75.747c4.183-1.5402 5.5067-0.96584 7.0672 0.88702l30.139 201.15-8.4471-4.2417-28.759-197.8z" fill="#1a1a1a" fill-rule="evenodd" stroke="#333" stroke-linecap="round" stroke-linejoin="round" stroke-width=".81824"/>
 <path d="m92.829 259.35 138.08-84.637c1.7415 1.0689 3.2649 2.2686 3.3241 4.3469l-137.57 84.765c-0.24318-1.9661-1.5468-3.4462-3.8355-4.4748z" fill="#808080" fill-rule="evenodd"/>
 <path transform="matrix(1.0228 0 0 1.0228 -6.1273 -1.9736)" d="m166.44 236.84 62.491-41.189 0.53033 0.88388-61.43 41.719-1.591-1.4142z" fill="#fff" fill-rule="evenodd" filter="url(#a)" opacity=".67"/>
 <path transform="matrix(1.0228 0 0 1.0228 -6.1273 -1.9736)" d="m114.55 270.07 15.556-10.076 0.53033 0.88388-14.496 10.607-1.591-1.4142z" fill="#fff" fill-rule="evenodd" filter="url(#a)" opacity=".67"/>
 <path transform="matrix(1.0228 0 0 1.0228 -6.1273 -1.9736)" d="m114.55 270.07 15.556-10.076 0.53033 0.88388-14.496 10.607-1.591-1.4142z" fill="#fff" fill-rule="evenodd" filter="url(#a)" opacity=".67"/>
 <path transform="matrix(1.0228 0 0 1.0228 -6.1273 -1.9736)" d="m166.44 236.84 62.491-41.189 0.53033 0.88388-61.43 41.719-1.591-1.4142z" fill="#fff" fill-rule="evenodd" filter="url(#a)" opacity=".67"/>
 <path d="m104.06 273.38c2.5373-2.3513 9.0768 2.054 8.4361 4.9867l-8.4361-4.9867z" fill="#666" fill-rule="evenodd" opacity=".9972" stroke="#000" stroke-linecap="round" stroke-linejoin="round" stroke-width=".20456"/>
 <path d="m304.07 248.2c-1.9033 0.09383-3.6191 0.60479-4.7304 1.5342l-38.771 32.442c-2.6355 2.2041-1.7075 5.483 2.1415 7.3514 0 0 5.0295 2.4079 9.9723 4.7624 33.987-6.1326 11.316-41.259 41.264-43.277l-4.0592-1.7899c-1.8178-0.78341-3.9138-1.1166-5.8172-1.0228z" fill="url(#e)"/>
</svg>
