<?xml version="1.0" encoding="UTF-8"?>
<svg viewBox="0 0 100 170" xmlns="http://www.w3.org/2000/svg">
 <defs>
  <linearGradient id="g" x1=".074244" x2=".43547" y1=".48676" y2=".51887">
   <stop stop-color="#dcba56" offset="0"/>
   <stop stop-color="#dcba56" stop-opacity="0" offset="1"/>
  </linearGradient>
  <linearGradient id="f" x1=".29668" x2=".39761" y1=".40564" y2=".67836">
   <stop stop-color="#dcba56" offset="0"/>
   <stop stop-color="#dcba56" stop-opacity="0" offset="1"/>
  </linearGradient>
  <linearGradient id="h" x1=".35117" x2=".55593" y1=".3608" y2=".64594">
   <stop stop-color="#dcba56" offset="0"/>
   <stop stop-color="#dcba56" stop-opacity="0" offset="1"/>
  </linearGradient>
  <linearGradient id="e" x1=".76076" x2=".46696" y1=".45955" y2=".52024">
   <stop stop-color="#dcba56" offset="0"/>
   <stop stop-color="#dcba56" stop-opacity="0" offset="1"/>
  </linearGradient>
 </defs>
 <g transform="matrix(1.2531 0 0 1.1293 -146.75 -24.609)">
  <g fill-rule="evenodd">
   <path d="m145 24.319c-1.5014 6.6213-3.5389 12.441-7.851 19.627-1.5851 2.6418-3.1323 7.947-4.4863 10.655-1.1298 2.2594 1.5765 7.7452 2.8039 8.9726 3.4893 3.4893 5.6078 1.287 5.6078 7.2902 0 7.9999 5.399 16.197 7.851 23.553 2.2873 6.8618 4.1575 12.937 5.6078 20.188 1.0925 5.4624 3.3647 10.946 3.3647 16.263 0 5.209-0.14624 10.292-4.7512 12.595-4.0818 2.0409-10.07 4.1002-12.717 6.0851-1.7931 1.3448-4.4838 3.3258-6.4511 4.1774-2.1647 0.93707-3.7455 0.20857-5.9315 1.3016-2.7997 1.3999-4.2515 1.8488-2.675 5.0017 0.80817 1.6164 2.9264 3.4872 4.4863 5.047 1.6124 1.6124 1.9652 2.5375 4.0616 3.0616 4.2273 1.0568 8.3164-0.93668 10.86-2.1524 2.8279-1.3516 6.6949-1.1016 9.0179-1.6824 2.6102-0.65254 5.1518-1.6335 7.0706-3.2431 3.7731-3.1652 6.7864-3.1086 9.3282-3.744 3.4666-0.86665 8.7231 0.45767 12.156-0.735 4.4147-1.5339 6.3882-3.7888 6.3882-8.3283 0-4.6918-0.16357-7.4538-2.804-10.094-1.8768-1.8768-3.3366-3.8974-5.0471-5.6078-2.5994-2.5994-3.1286-5.785-3.9255-8.9726-0.78308-3.1324-1.6823-6.7687-1.6823-10.094 0-3.7128 0.70068-5.889 0.70068-9.7579 0-4.8601 0.4209-7.8134 0.4209-12.674 0-5.0774 0.4566-9.4932-0.56079-14.58-0.77624-3.8809-1.8675-7.35-3.9255-10.094-2.0377-2.7169-0.5946-3.662-3.3647-5.0471-3.9046-1.9523-0.20862-1.0529 1.1216-5.047 0.50427-1.5141 9.3647-13.699 9.3647-17.047" fill="#fddf87" stroke="#000"/>
   <path d="m145 24.319c-1.501 6.6212-3.539 12.441-7.851 19.627-1.585 2.6418-3.132 7.947-4.486 10.655-1.13 2.2594 1.576 7.7452 2.804 8.9725 3.489 3.4893 5.608 1.2871 5.608 7.2902 0 7.9999 5.399 16.197 7.85 23.553 2.288 6.8619 4.158 12.937 5.608 20.188 1.093 5.463 3.365 10.946 3.365 16.263 0 5.209-0.146 10.292-4.751 12.595-4.082 2.041-10.07 4.1-12.717 6.085-1.793 1.345-4.484 3.326-6.451 4.177-2.165 0.937-3.745 0.209-5.931 1.302-2.8 1.4-4.252 1.849-2.675 5.002 0.80801 1.616 2.926 3.487 4.486 5.047 1.612 1.612 1.965 2.537 4.061 3.061 4.228 1.057 8.317-0.93599 10.86-2.152 2.828-1.352 6.695-1.102 9.018-1.682 2.611-0.653 5.152-1.634 7.071-3.243 3.773-3.166 6.786-3.109 9.328-3.745 3.467-0.866 8.723 0.45799 12.156-0.735 4.415-1.533 6.388-3.788 6.388-8.328 0-4.692-0.16301-7.454-2.804-10.094-1.877-1.877-3.336-3.897-5.047-5.608-2.599-2.599-3.128-5.785-3.925-8.972-0.783-3.133-1.683-6.769-1.683-10.094 0-3.713 0.70099-5.889 0.70099-9.758 0-4.8604 0.421-7.8136 0.421-12.674 0-5.0774 0.457-9.4931-0.561-14.58-0.776-3.881-1.867-7.3501-3.925-10.094-2.038-2.7168-0.595-3.662-3.365-5.047-3.905-1.9523-0.384-1.533 0.121-3.0471 0.50499-1.5141 10.365-15.699 10.365-19.047" fill="url(#e)"/>
   <g stroke="#000">
    <path d="m139.95 160.03c-1.5768 2.0848-7.0898 2.143-9.5333 3.3647-1.2056 0.60284-0.12744 3.3136 1.7277 3.8801" fill="none"/>
    <path d="m136.06 158.6c-1.1458 0.57291-2.3456 0.99558-4.1283 1.4111-1.1287 0.26311-2.8771 0.44617-3.7638 0.90862-0.42841 0.22345-0.29071 0.99745-0.59595 1.3027-0.26434 0.26436 1.1203 1.2442 1.1203 1.6181" fill="url(#f)" stroke-width=".4"/>
    <g fill="none">
     <path d="m133.04 157.35c-0.09613 0.096176-3.7949 1.8097-6.1531 1.6286-0.67938-0.052185-1.007 1.793-0.95563 1.9412" stroke-width=".4"/>
     <path d="m174.24 131.44c0.063293 1.374 1.2704 3.1929 2.1952 4.5144 0.81067 1.1585 2.3154 1.9692 2.7748 3.3224 0.7254 2.1368 0.22211 4.2039-1.2111 5.1452-1.722 1.1311-4.544 0.92001-4.9576 1.0234" stroke-width=".5"/>
     <path d="m131.24 156.38c-2.2867 0.86929-2.8929 1.0366-5.2511 0.85542-0.67938-0.052185-0.87811 2.4373-0.05365 1.6836" stroke-width=".4"/>
    </g>
    <path d="m133.04 157.35c-0.09613 0.096176-3.7949 1.8097-6.1531 1.6286-0.40033-0.030746-0.65936 0.71176-0.79419 1.3573-0.093994 0.45006 1.687 2.7225 0.99329 2.0136" fill="url(#g)" stroke-width=".4"/>
    <path d="m139.95 160.03c-1.5768 2.0848-7.0898 2.143-9.5333 3.3647-1.2056 0.60284 0.8623 3.9734 2.7175 4.54" fill="url(#h)"/>
    <path d="m131.59 163.14c0.32428 0.15463 0.97906 0.59059 1.3196 1.0447 0.25134 0.3351-0.087708 0.6104 0.3299 0.7148 0.63916 0.15979 1.639-0.26181 2.2545-0.38489 0.074097-0.014832 0.14661-0.036667 0.21991-0.054993 0.46985-0.11746 0.45721-0.086502 0.54987-0.54985 0.031128-0.15555-0.42041-0.65221-0.54987-0.82478-0.23181-0.30911-0.763-0.76981-1.0997-0.76981-0.95459 0-1.6647 0.14505-2.4743 0.54985-0.19415 0.097076-0.34387 0.19254-0.54987 0.27493z" fill="#f4f2ec" fill-opacity=".589" stroke-width=".1"/>
   </g>
  </g>
 </g>
</svg>
