<?xml version="1.0" encoding="UTF-8"?>
<svg viewBox="0 0 533.33 533.33" xmlns="http://www.w3.org/2000/svg">
 <defs>
  <radialGradient id="a" cx=".33704" cy=".28358" r=".38184">
   <stop stop-color="#ff0" offset="0"/>
   <stop stop-color="#ffe300" offset="1"/>
  </radialGradient>
 </defs>
 <g fill-rule="evenodd">
  <g transform="rotate(-15 270.08 238.93)">
   <path transform="rotate(-10 267.62 235.06)" d="m158.23 166.49c94.643-84.304 240.02-1.1993 238.07 86.115 15.611 15.556-1.9514 32.618-11.708 37.134-83.91 106.38-256.61 19.069-246.36-68.748-13.043-38.56-1.4636-49.985 20.002-54.501z" fill="url(#a)" stroke="#000" stroke-linejoin="round" stroke-width="10"/>
   <g stroke-width="1.25">
    <path transform="rotate(-10 276.51 277.71)" d="m151.35 238.53c12.57-12.93 14.049 87.469 197.43 50.2-3.6972-3.803-23.662-90.511 47.324-61.608 27.729 8.7469-58.786-5.8946-28.099 54.763 4.7584 7.9686 3.3275 7.9863 16.268 11.409-78.381 86.708-231.44 19.776-232.92-54.763z" fill-opacity=".133"/>
    <g fill="#fff" fill-opacity=".7">
     <path transform="rotate(-10 255.89 170.42)" d="m146.45 172.23c33.298-39.759 145.29-68.062 218.88 28.903-25.141 28.142-96.127-93.554-218.88-28.903z"/>
     <path transform="rotate(-10 385.23 246.15)" d="m398.93 235.9c8.4688 10.648 0.73944 22.818-5.1761 21.297-46.585-12.93-21.444-25.86 5.1761-21.297z"/>
    </g>
   </g>
  </g>
  <g transform="rotate(-25 368.17 395.17)">
   <path d="m255.66 322.5c94.643-84.304 240.02-1.1993 238.07 86.115 15.611 15.556-1.9514 32.618-11.708 37.134-83.91 106.38-256.61 19.069-246.36-68.748-13.043-38.56-1.4636-49.985 20.002-54.501z" fill="url(#a)" stroke="#000" stroke-linejoin="round" stroke-width="10"/>
   <g stroke-width="1.25">
    <path d="m241.24 395.44c12.57-12.93 14.049 87.469 197.43 50.2-3.6972-3.803-23.662-90.511 47.324-61.608 27.729 8.7469-58.786-5.8946-28.099 54.763 4.7584 7.9686 3.3275 7.9863 16.268 11.409-78.381 86.708-231.44 19.776-232.92-54.763z" fill-opacity=".133"/>
    <g fill="#fff" fill-opacity=".7">
     <path d="m255.29 327.19c33.298-39.759 145.29-68.062 218.88 28.903-25.141 28.142-96.127-93.554-218.88-28.903z"/>
     <path d="m492.65 412.17c8.4687 10.648 0.73944 22.818-5.1761 21.297-46.585-12.93-21.444-25.86 5.1761-21.297z"/>
    </g>
   </g>
  </g>
  <path d="m62.657 331.5c94.643-84.304 240.02-1.1993 238.07 86.115 15.611 15.556-1.9514 32.618-11.708 37.134-83.91 106.38-256.61 19.069-246.36-68.748-13.043-38.56-1.4635-49.985 20.002-54.501z" fill="url(#a)" stroke="#000" stroke-linejoin="round" stroke-width="10"/>
  <g stroke-width="1.25">
   <path d="m48.237 404.44c12.57-12.93 14.049 87.469 197.43 50.2-3.6972-3.803-23.662-90.511 47.324-61.608 27.729 8.7469-58.786-5.8946-28.099 54.763 4.7584 7.9686 3.3275 7.9863 16.268 11.409-78.381 86.708-231.44 19.776-232.92-54.763z" fill-opacity=".133"/>
   <g fill="#fff" fill-opacity=".7">
    <path d="m62.286 336.19c33.298-39.759 145.29-68.062 218.88 28.903-25.141 28.142-96.127-93.554-218.88-28.903z"/>
    <path d="m299.65 421.17c8.4687 10.648 0.73938 22.818-5.1761 21.297-46.585-12.93-21.444-25.86 5.1761-21.297z"/>
   </g>
  </g>
 </g>
</svg>
