<?xml version="1.0" encoding="UTF-8"?>
<svg viewBox="0 0 1500 1052.36" xmlns="http://www.w3.org/2000/svg">
 <defs>
  <linearGradient id="b" x1="43.473" x2="1423" gradientUnits="userSpaceOnUse">
   <stop stop-color="#0094d2" offset="0"/>
   <stop stop-color="#d8edf9" offset="1"/>
  </linearGradient>
  <radialGradient id="a" cx="355.41" cy="784.9" r="90.457" gradientTransform="matrix(1 0 0 .56251 0 343.38)" gradientUnits="userSpaceOnUse">
   <stop stop-color="#404040" offset="0"/>
   <stop stop-color="#202020" offset="1"/>
  </radialGradient>
 </defs>
 <g transform="translate(0,-.00218)" stroke="#000">
  <path d="m928.26 50.291c-43.849-7.1387-94.69 4.4705-129.3 32.325-220.88 177.77-479.69 387.43-670.74 545.48-56.46 46.708-121.54 107.54-44.447 208.09 25.39 25.094 56.119 39.029 86.873 54.548 89.607 43.656 187.37 83.436 278.8 117.18 112.44 32.368 187.51 22.012 272.74-50.508 174.52-187.72 456.73-484.21 670.74-711.15 20.661-21.625 27.757-47.474 24.244-76.772-3.5366-29.489-45.624-42.684-74.751-48.487-133.99-26.697-279.26-48.749-414.16-70.711z" fill="url(#b)" stroke-width="10"/>
  <path transform="translate(0,.00218)" d="m116.91 649.31c-60.442 53.924-55.269 107.22-16.162 124.25 120.9 52.642 239.74 100.27 377.8 148.49 69.773 24.374 163.03-1.1511 215.16-53.538 229.42-230.53 452.42-454.5 676.8-684.88 36.086-37.05-17.36-50.366-39.396-54.548-135.27-25.676-271.16-49.959-408.1-70.711-37.466-5.6774-80.829 4.2273-110.11 28.284-228.18 187.49-486.68 389.19-696 562.65z" fill="#404040" stroke-width="5"/>
  <path transform="translate(0,.00218)" d="m181 638.07 518.57 185.71 600-598.57-500-98.571z" fill="#202020" stroke-width="5"/>
  <path transform="translate(0,.00218)" d="m307.14 746.65c12.864-10.47 23.846-12.768 41.429-7.1429 25.28 8.0874 52.363 19.295 77.143 27.143 16.962 5.3721 23.333 14.177 11.847 26.551-9.8652 10.628-18.313 17.441-30 27.143-18.329 15.215-34.209 15.23-50.418 9.1632-24.39-9.1284-48.652-19.583-72.857-28.571-27.94-10.376-15.583-18.738-2.2654-31.342 7.0494-6.6719 17.07-16.39 25.123-22.944z" fill="url(#a)" stroke-width="5"/>
  <path transform="translate(0,.00218)" d="m295.36 583.79c-13.428 11.382-29.565 25.244-41.429 36.786-1.2799 1.2452-1.6584 4.6948 0 5.3571 16.851 6.7301 33.156 12.641 49.286 17.857 3.6687 1.1863 8.4731 0.69059 11.429-1.7857 15.746-13.193 29.973-24.789 43.737-38.005 1.4997-1.4399 4.3041-4.3258 1.0968-5.5664-14.889-5.7588-34.805-12.009-52.691-17.857-3.7614-1.2298-8.4098 0.65553-11.429 3.2143z" fill="#76ad37" stroke-width="3"/>
  <path transform="translate(0,.00218)" d="m370.22 660.42c12.512-10.64 31.652-28.501 46.214-39.648 2.3547-1.8026 5.9672-1.75 8.8388-1.0102 17.511 4.5116 34.963 11.124 50.255 16.162 1.7967 0.592 3.3714 3.9793 2.0203 5.3033-14.628 14.334-31.238 28.207-45.204 40.406-2.439 2.1304-6.2712 3.8007-9.3439 2.7779-17.363-5.7795-34.094-11.266-52.023-18.435-1.7355-0.69393-2.1815-4.345-0.75761-5.5558z" fill="#be4f1a" stroke-width="3"/>
  <path transform="translate(0,.00218)" d="m490.18 699.06c-1.7278 1.7267-2.0417 6.4853 0.25254 7.3236 20.688 7.5597 40.783 14.446 61.367 21.213 2.8543 0.93847 6.6537 0.29447 8.8388-1.7678 14.517-13.7 29.255-27.872 40.911-41.164 1.6133-1.8398-0.9651-5.7816-3.283-6.566-15.38-5.2043-34.208-12.109-51.265-16.92-4.5399-1.2806-10.456-2.438-14.142 0.50508-13.791 11.01-30.873 25.577-42.679 37.376z" fill="#edd782" stroke-width="3"/>
  <path transform="translate(0,.00218)" d="m621.24 743c-1.8341 1.9747-2.2383 7.052 0.25253 8.0812 17.127 7.0767 37.8 13.726 55.558 19.951 4.9483 1.7345 11.886 2.1281 15.657-1.5152 13.849-13.38 29.569-28.098 43.437-42.679 1.536-1.615 0.83336-5.8084-1.2627-6.566-17.065-6.1682-39.634-13.699-60.609-20.203-3.5028-1.0862-8.1836-0.74048-10.859 1.7678-13.75 12.89-28.769 26.732-42.174 41.164z" fill="#65a7c1" stroke-width="3"/>
 </g>
</svg>
