<?xml version="1.0" encoding="UTF-8"?>
<svg version="1.1" viewBox="0 0 918.91 1004.3" xmlns="http://www.w3.org/2000/svg" xmlns:xlink="http://www.w3.org/1999/xlink">
 <defs>
  <linearGradient id="a">
   <stop stop-color="#4a4a4a" offset="0"/>
   <stop stop-color="#333" stop-opacity=".49804" offset=".5"/>
   <stop stop-color="#333" stop-opacity="0" offset="1"/>
  </linearGradient>
  <linearGradient id="e" x1="290.61" x2="311.44" y1="440.84" y2="495.26" gradientTransform="matrix(-1 0 0 1 762.44 -118.79)" gradientUnits="userSpaceOnUse" xlink:href="#a"/>
  <linearGradient id="d" x1="290.61" x2="311.44" y1="440.84" y2="495.26" gradientTransform="translate(3.8274 -118.79)" gradientUnits="userSpaceOnUse" xlink:href="#a"/>
 </defs>
 <g transform="translate(135.38 -23.249)">
  <path d="m-11.015 481.56c1.0297-1.637 10.233-0.39461 12.507 3.3813 3.4967 5.8059 0.96848 15.566-4.0032 20.084-7.0184 6.3791-18.115 7.4375-27.982 2.2172-22.503-11.905-29.053-40.867-18.422-62.911 15.52-32.184 55.833-40.137 85.13-23.997 26.725 14.723 41.598 45.606 40.061 76.38l0.031-0.57416s-21.143 155.88-24.555 178.3c-29.698 195.2 199.66 259.01 231.87 196.69 50.07-96.88-217.78 28.06-175.4-223.45 13.58-80.64 17.4-73.4 22.16-135.62s-25.46-106.28-65.495-129.69c-50.256-27.687-119.41-14.044-146.03 41.164-18.236 37.814-7.9852 89.612 31.602 107.92 25.173 11.641 59.607 3.757 70.138-24.845 5.9971-16.289 0.5801-38.772-17.373-43.898-8.5315-2.4359-24.267 0.47093-25.465 9.7245-0.64788 5.0044 5.4371 13.478 11.951 8.8016" fill="#502d16" stroke="#000" stroke-width="1px"/>
  <path d="m627.06 130.97c-2.0976 11.636-17.804 15.722-28.844 37.594 53.87 106.92 100.91 118.39 66.59 213.19-10.74 29.68-74.72 99.95-108.31 83.56-38.57-18.81-61.48-24.75-73.59-22.31-30.349-20.085-64.775-31.438-101.25-31.438-40.579 0-78.596 14.067-111.31 38.562-7.2648 0.47433-152.76 11.395-218 130.88-66.919 122.55-47.356 307.22-37.562 330.72 9.7931 23.502 19.611 57.066 44.094 21.812 24.478-35.25-34.572-179.15 8.151-270.28 29.696-63.34 77.723-121.26 122-107.72-18.495 41.656-29.062 89.901-29.062 141.31 0 157.54 99.256 285.25 221.69 285.25s221.69-127.71 221.69-285.25c0-45.378-8.2548-88.283-22.906-126.38 24.638-17.348 63.873-50.937 113.28-113.53 58.31-73.872 79.485-193.72-66.656-325.97z" fill="#502d16" stroke="#000" stroke-linecap="round"/>
  <path transform="translate(-50)" d="m254.31 291.11c0 47.125-38.202 85.327-85.327 85.327s-85.327-38.202-85.327-85.327 38.202-85.327 85.327-85.327 85.327 38.202 85.327 85.327z" fill="#502d16" stroke="#000" stroke-linecap="round"/>
  <path transform="translate(472)" d="m254.31 291.11c0 47.125-38.202 85.327-85.327 85.327s-85.327-38.202-85.327-85.327 38.202-85.327 85.327-85.327 85.327 38.202 85.327 85.327z" fill="#502d16" stroke="#000" stroke-linecap="round"/>
  <path transform="matrix(.72709 0 0 .72709 19.54 80.871)" d="m254.31 291.11c0 47.125-38.202 85.327-85.327 85.327s-85.327-38.202-85.327-85.327 38.202-85.327 85.327-85.327 85.327 38.202 85.327 85.327z" fill="#a05a2c" stroke="#000" stroke-linecap="round"/>
  <path transform="matrix(.72709 0 0 .72709 495.54 80.871)" d="m254.31 291.11c0 47.125-38.202 85.327-85.327 85.327s-85.327-38.202-85.327-85.327 38.202-85.327 85.327-85.327 85.327 38.202 85.327 85.327z" fill="#a05a2c" stroke="#000" stroke-linecap="round"/>
  <path d="m595.61 289.44c0 101.64-96.254 184.04-214.99 184.04s-214.99-82.397-214.99-184.04 96.254-184.04 214.99-184.04 214.99 82.397 214.99 184.04z" fill="#502d16" stroke="#000" stroke-linecap="round"/>
  <path transform="translate(-4)" d="m535.92 738.86c0 102.58-65.678 185.74-146.7 185.74-81.019 0-146.7-83.157-146.7-185.74s65.678-185.74 146.7-185.74c81.019 0 146.7 83.157 146.7 185.74z" fill="#a05a2c" stroke="#000" stroke-dashoffset="2.7" stroke-linecap="round" stroke-linejoin="round" stroke-width=".3"/>
  <path transform="matrix(.95486 -.26108 .30512 1.068 -267.96 -18.302)" d="m276.06 816.46c0 75.769-44.944 137.19-100.38 137.19-55.441 0-100.38-61.423-100.38-137.19 0-75.769 44.944-137.19 100.38-137.19 55.441 0 100.38 61.423 100.38 137.19z" fill="#502d16" stroke="#000" stroke-linecap="round"/>
  <path transform="matrix(-.94659 -.26108 -.33895 1.068 1063.9 -18.302)" d="m276.06 816.46c0 75.769-44.944 137.19-100.38 137.19-55.441 0-100.38-61.423-100.38-137.19 0-75.769 44.944-137.19 100.38-137.19 55.441 0 100.38 61.423 100.38 137.19z" fill="#502d16" stroke="#000" stroke-linecap="round"/>
  <path transform="translate(-12,-2)" d="m532.04 367.24c0 56.827-62.172 102.89-138.86 102.89-76.693 0-138.86-46.067-138.86-102.89 0-56.827 62.172-102.89 138.86-102.89 76.693 0 138.86 46.067 138.86 102.89z" fill="#a05a2c" stroke="#000" stroke-linecap="round"/>
  <path d="m339.52 136.79c-20.473 8e-3 -41.751 26.023-50.688 45.625-9.6867 21.246-12.165 54.524 5.4689 69.83 18.194 15.791 57.174 14.356 72.159-4.5068 22.961-28.902 15.99-95.387-18.23-109.23-2.8531-1.1538-5.7849-1.7228-8.7097-1.7217zm81.78 0c-2.9248-1e-3 -5.8566 0.56789-8.7097 1.7217-34.22 13.839-41.19 80.324-18.23 109.23 14.985 18.863 53.965 20.298 72.159 4.5068 17.634-15.305 15.156-48.583 5.4689-69.83-8.937-19.602-30.215-45.617-50.688-45.625z" fill="#fff" stroke="#000" stroke-width="2.7698"/>
  <path d="m357.04 180.03c-8.8926 3e-3 -18.146 11.285-22.027 19.799-4.2074 9.2282-5.2795 23.684 2.38 30.332 7.9024 6.8587 24.836 6.2687 31.345-1.9242 9.9729-12.553 6.9132-41.437-7.9501-47.448-1.2392-0.50115-2.4768-0.76004-3.7472-0.75957zm46.587 0c-1.2704-4.7e-4 -2.508 0.25842-3.7472 0.75957-14.863 6.0108-17.923 34.894-7.9501 47.448 6.5088 8.193 23.442 8.7829 31.345 1.9242 7.6594-6.6479 6.5873-21.104 2.38-30.332-3.8817-8.514-13.135-19.796-22.027-19.799z" stroke="#000" stroke-width="1.2031"/>
  <path d="m78.903 969.73s-9.5554-51.865 85.999-53.538c95.554-1.6731 91.732 50.192 91.732 50.192s-63.066 30.115-177.73 3.3461z" fill="#502d16" stroke="#000" stroke-width="1.0688px"/>
  <path d="m680.39 969.73s9.5554-51.865-85.999-53.538c-95.554-1.6731-91.732 50.192-91.732 50.192s63.066 30.115 177.73 3.3461z" fill="#502d16" stroke="#000" stroke-width="1.0688px"/>
  <path d="m299.22 371.27c-4.4794-7.9946-4.984-20.593-1.0599-29.66 6.5449-15.123 33.433-13.97 35.384 8.9397 10.444-26.18-26.718-35.65-37.786-17.384-5.565 9.1843-8.5726 27.303 3.4614 38.104z" fill="url(#d)"/>
  <path d="m467.05 371.27c4.4794-7.9946 4.984-20.593 1.0599-29.66-6.5449-15.123-33.433-13.97-35.384 8.9397-10.444-26.18 26.718-35.65 37.786-17.384 5.565 9.1843 8.5726 27.303-3.4614 38.104z" fill="url(#e)"/>
  <path d="m354.29 403.94s-3.6351 24.729 29.713 24.729c32.874 0 29.397-24.266 29.397-24.266" fill="none" stroke="#f00" stroke-linecap="round" stroke-linejoin="round" stroke-width="3"/>
  <path d="m8.8728 885.55s-6.5067 10.647-9.4643 35.491-5.3658 57.769 10.056 57.969c15.422 0.20036 13.013-10.056 13.013-10.056s-1.7746 11.83 13.013 10.647 13.013-10.056 13.013-10.056-4.1406 8.2813 13.605 7.6898c12.471-0.41571 8.2813-35.491 8.2813-35.491s15.971 14.196 17.746-22.478c1.0762-22.241-24.844-39.04-24.844-39.04s-26.027-15.38-54.42 5.3237z" fill="#a05a2c" stroke="#000" stroke-width="1px"/>
  <path d="m553.11 71.891c16.41 4.4509 77.541 55.056 78.064 66.282 0.52313 11.227-28.736 33.767-28.736 33.767s-23.491 0.19994-35.583-7.2015-30.998-26.048-44.132-9.4926c-18.103 22.82-33.432 15.194-31.551 6.1472 1.7782-8.5559 4.6141-23.848 20.598-29.701 15.983-5.8537 47.567-4.09 43.013-5.9595-7.5623-3.1047-58.476-3.0267-60.59 3.0868-10.667 30.843-40.976 22.967-33.254 10.764 7.7216-12.203 5.6159-28.395 22.078-30.939 16.462-2.5436 38.601-6.7626 38.601-6.7626s-54.395-4.1626-56.057 6.1811c-4.2034 26.175-32.17 28.744-29.702 17.597 2.5719-11.615 11.173-40.549 28.031-44.78 16.678-4.1858 31.329-6.3219 43.455-9.5296 12.125-3.2078 29.354-3.9105 45.765 0.54041z" fill="#a05a2c" stroke="#000" stroke-width="1px"/>
 </g>
</svg>
