<?xml version="1.0" encoding="UTF-8"?>
<svg viewBox="0 0 500 500" xmlns="http://www.w3.org/2000/svg">
 <path d="m215 202.5s11.25 126.25 5 175-10 66.25 3.75 83.75c28.75 7.5 121.25 17.5 142.5-15-1.25-42.5-51.25-101.25-60-148.75s29.409-93.604-28.091-104.85-64.409 12.354-63.159 9.8544z" fill="#fafada" fill-rule="evenodd" stroke="#000" stroke-linejoin="round" stroke-width="10"/>
 <path d="m215 211.25s3.75 51.25-11.25 90c26.25 18.75 105-3.75 123.75-3.75-25-38.75-15-73.75-15-81.25s-100-7.5-97.5-5z" fill="#f0f0df" fill-rule="evenodd" stroke="#000" stroke-linejoin="round" stroke-width="10"/>
 <path d="m20 271.25c11.25-88.75 141.25-233.75 242.5-237.5 116.25-17.5 218.75 111.25 231.25 157.5-31.25 18.75-182.5 30-220 46.25-37.5 23.75-232.5 36.25-253.75 33.75z" fill="#fa0000" fill-rule="evenodd" stroke="#000" stroke-linejoin="round" stroke-width="10"/>
 <path d="m255 118.75c-55 22.5-42.5 107.5 13.75 98.75 91.25-16.25 25-108.75-13.75-98.75z" fill="#faffff" fill-rule="evenodd"/>
 <path d="m32.272 254.45c-6.25-10 26.25-92.5 61.25-77.5 43.75 21.25-21.25 108.75-61.25 77.5z" fill="#faffff" fill-rule="evenodd"/>
 <path d="m248.36 38.522c80-11.25 26.25 27.5-1.25 35-23.75 5-105-7.5 1.25-35z" fill="#faffff" fill-rule="evenodd"/>
 <path d="m142.5 102.5c31.25-11.25 87.5 51.25 20 76.25-68.75 8.75-55-61.25-20-76.25z" fill="#faffff" fill-rule="evenodd"/>
 <path d="m430.93 107.66c-32.5-26.25-78.75-18.75-67.5 38.75 26.25 53.75 96.25 7.5 67.5-38.75z" fill="#faffff" fill-rule="evenodd"/>
 <path d="m327.18 42.817c-30 16.25 5 75 56.25 27.5-10-11.25-47.5-25-56.25-27.5z" fill="#faffff" fill-rule="evenodd"/>
 <path d="m488.27 187.89c-5-12.5-17.659-56.796-45.159-20.546-29.613 56.32 45.159 20.546 45.159 20.546z" fill="#faffff" fill-rule="evenodd"/>
 <path d="m296.12 307.44c6.4725 9.7087 56.634 106.8 58.252 124.6s-16.181 24.272-25.89 21.036-43.689-134.3-32.362-145.63z" fill="#e6e4df" fill-rule="evenodd"/>
 <path d="m289.64 37.217c-80.906-6.4725-216.83 79.288-260.52 223.3 12.945 4.8544 4.8544 12.945 45.307 0 53.398-190.94 174.76-197.41 215.21-223.3z" fill="#fff" fill-opacity=".43333" fill-rule="evenodd"/>
</svg>
