<?xml version='1.0' encoding='utf-8'?>
<svg xmlns="http://www.w3.org/2000/svg" xmlns:xlink="http://www.w3.org/1999/xlink" enable-background="new 0 0 56.4 42.3" version="1.1" viewBox="0 0 56.4 42.3">
<symbol id="ac" viewBox="0 -28.562 26.031 28.562">
		<path d="m22.7-3.3c2.566-2.534 3.65-6.2 3.25-11-0.467-5.233-2.783-9.133-6.95-11.7-3.567-2.2-7.183-2.983-10.85-2.35-3.033 0.533-5.75 1.95-8.15 4.25 2.3-0.833 4.5-1.267 6.6-1.3 2.467-0.067 4.25 0.45 5.35 1.55 2.333 2.333 4.95 4.45 7.85 6.35 1.034 0.667 1.733 2.133 2.1 4.4 0.367 2.4 0.25 4.8-0.35 7.2-0.667 2.633-1.8 4.6-3.4 5.9 1.6-0.733 3.117-1.833 4.55-3.3z" clip-rule="evenodd" fill-rule="evenodd"/>
</symbol>
<linearGradient id="u" x1="-13.2" x2="-8.6988" y1="-8.312" y2="-8.312" gradientTransform="matrix(-.7553 -.6554 .6554 -.7553 .00030065 -.00029683)" gradientUnits="userSpaceOnUse">
	<stop stop-color="#FFD073" offset="0"/>
	<stop stop-color="#E07C3A" offset="1"/>
</linearGradient>
<path d="m2.45 11.8l1.475-0.05c-0.763 0.05-1.355 0.3-1.775 0.75-0.433 0.433-0.55 0.867-0.35 1.3 0.267 0.5 1.2 1.067 2.8 1.7-0.367 0-1.317-0.25-2.85-0.75-0.933-0.3-1.5-0.733-1.7-1.3l-0.05-0.75c0.567-0.433 1.383-0.733 2.45-0.9z" clip-rule="evenodd" fill="url(#u)" fill-rule="evenodd"/>
<linearGradient id="v" x1="4.9971" x2="18.034" y1="10.418" y2="10.418" gradientTransform="matrix(.932 .3624 -.3624 .932 0 -1.0133e-5)" gradientUnits="userSpaceOnUse">
	<stop stop-color="#FFD073" offset="0"/>
	<stop stop-color="#E07C3A" offset="1"/>
</linearGradient>
<path d="m11.35 13.75c0.1 3.033 0.133 4.417 0.1 4.15-1.733-3.133-3.467-4.983-5.2-5.55-1.1-0.333-2.467-0.367-4.1-0.1-0.833 0.1-1.55 0.25-2.15 0.45 0.067-0.2 0.3-0.4 0.7-0.6 0.733-0.4 1.867-0.65 3.4-0.75 1.533-0.067 3 0.217 4.4 0.85 0.8 0.367 1.75 0.883 2.85 1.55z" clip-rule="evenodd" fill="url(#v)" fill-rule="evenodd"/>
<linearGradient id="w" x1="9.0576" x2="13.472" y1="9.7441" y2="9.7441" gradientTransform="matrix(.9969 -.0793 .0793 .9969 4.974e-5 -.00020203)" gradientUnits="userSpaceOnUse">
	<stop stop-color="#FFD073" offset="0"/>
	<stop stop-color="#E07C3A" offset="1"/>
</linearGradient>
<path d="m10.4 4.25c0.167-0.033 0.25 0.067 0.25 0.3-0.033 0.233 0.033 0.383 0.2 0.45 0.167 0.033 0.35-0.083 0.55-0.35 0.3-0.4 1.033-0.9 2.2-1.5l-0.95 2.4c-0.467 1.067-0.717 2.1-0.75 3.1-0.033 0.833 0.067 1.85 0.3 3.05 0.167 0.867 0.417 1.35 0.75 1.45 0.867 0.233 1.367 0.4 1.5 0.5 0.566 0.367 0.35 0.55-0.65 0.55-0.933 0-1.683-0.333-2.25-1-0.6-0.733-1.117-2.184-1.55-4.35-0.433-2.1-0.517-3.4-0.25-3.9 0.233-0.433 0.45-0.667 0.65-0.7z" clip-rule="evenodd" fill="url(#w)" fill-rule="evenodd"/>
<linearGradient id="x" x1="3.0664" x2="10.866" y1="13.794" y2="13.794" gradientTransform="matrix(.9968 -.0801 .0801 .9968 .00013967 -.00014722)" gradientUnits="userSpaceOnUse">
	<stop stop-color="#FFD073" offset="0"/>
	<stop stop-color="#E07C3A" offset="1"/>
</linearGradient>
<path d="m10.05 11.45c0.667 0.466 1.167 0.917 1.5 1.35 0.167 0.267 0.317 0.55 0.45 0.85 0.133 0.267-0.15 0.967-0.85 2.1 0.167-0.867-0.233-1.7-1.2-2.5-1.1-0.9-2.417-1.15-3.95-0.75-0.667 0.2-1.267 0.65-1.8 1.35 0.033-0.467 0.2-0.983 0.5-1.55 0.466-1 0.983-1.583 1.55-1.75 1.333-0.233 2.6 0.067 3.8 0.9z" clip-rule="evenodd" fill="url(#x)" fill-rule="evenodd"/>
<linearGradient id="y" x1="-19.773" x2="-15.724" y1="4.6943" y2="4.6943" gradientTransform="matrix(-.7224 -.6915 .6915 -.7224 .0002116 -.00057852)" gradientUnits="userSpaceOnUse">
	<stop stop-color="#FFD073" offset="0"/>
	<stop stop-color="#E07C3A" offset="1"/>
</linearGradient>
<path d="m12.9 8.05c0.233-0.566 0.733-0.95 1.5-1.15 0.633-0.2 1.2-0.233 1.7-0.1 0.5 0.1 0.683 0.85 0.55 2.25-0.267-0.633-0.667-1.133-1.2-1.5-0.3-0.2-0.85-0.117-1.65 0.25-0.633 0.267-0.933 0.35-0.9 0.25z" clip-rule="evenodd" fill="url(#y)" fill-rule="evenodd"/>
<linearGradient id="z" x1="10.498" x2="15.489" y1="11.899" y2="11.899" gradientTransform="matrix(.9968 -.0801 .0801 .9968 6.8441e-5 2.6077e-5)" gradientUnits="userSpaceOnUse">
	<stop stop-color="#FFD073" offset="0"/>
	<stop stop-color="#E07C3A" offset="1"/>
</linearGradient>
<path d="m11.9 14.4c-0.5-1.767-0.6-3.35-0.3-4.75 0.333-1.633 1.2-2.566 2.6-2.8 0.8-0.2 1.433-0.217 1.9-0.05-0.2-0.066-0.467-0.033-0.8 0.1-0.633 0.2-1.25 0.733-1.85 1.6-0.7 1.033-1.067 2.15-1.1 3.35-0.033 1.133 0.233 1.967 0.8 2.5 0.733 0.7 0.317 0.717-1.25 0.05z" clip-rule="evenodd" fill="url(#z)" fill-rule="evenodd"/>
<linearGradient id="aa" x1="6.918" x2="14.823" y1="6.3833" y2="6.3833" gradientTransform="matrix(.9898 .1423 -.1423 .9898 -.00018069 -.00030845)" gradientUnits="userSpaceOnUse">
	<stop stop-color="#FFD073" offset="0"/>
	<stop stop-color="#E07C3A" offset="1"/>
</linearGradient>
<path d="m7.45 0c-0.2 2-0.15 3.5 0.15 4.5 0.2 0.633 0.633 1.65 1.3 3.05 0.7 1.867 1.883 3.867 3.55 6l0.25 2.2c-0.4 0.1-0.733-0.2-1-0.9-0.034-0.1-0.684-0.8-1.95-2.1-1.233-1.3-2.167-2.717-2.8-4.25-0.667-1.567-0.783-3.45-0.35-5.65 0.233-1.1 0.517-2.05 0.85-2.85z" clip-rule="evenodd" fill="url(#aa)" fill-rule="evenodd"/>
<path d="m28.65 12.2c2.433 0.533 4.816 1.933 7.149 4.2 2.667 2.6 3.767 6.35 3.3 11.25-0.466 5.366-2.866 9.383-7.199 12.05-3.767 2.267-7.567 3.05-11.4 2.35-3.2-0.6-6.05-2.116-8.55-4.55-2.034-1.967-3.217-4.384-3.55-7.25-0.333-2.434-0.033-5.017 0.9-7.75l2.05-6.4c-0.2-1.667-0.067-2.7 0.4-3.1 0.267-0.233 0.533-0.283 0.8-0.15l0.95 0.3c1.167 0.1 3.033-0.083 5.6-0.55 4.067-0.733 7.25-0.867 9.55-0.4z" clip-rule="evenodd" fill="#997032" fill-rule="evenodd"/>
<radialGradient id="ab" cx="18" cy="21.9" r="23.738" gradientUnits="userSpaceOnUse">
	<stop stop-color="#FFD073" offset="0"/>
	<stop stop-color="#C7882A" offset="1"/>
</radialGradient>
<path d="m27.85 12.25c2.367 0.5 4.667 1.867 6.9 4.1 2.566 2.533 3.65 6.2 3.25 11-0.467 5.233-2.783 9.134-6.95 11.7-3.633 2.233-7.3 3-11 2.3-3.1-0.566-5.85-2.05-8.25-4.449-1.967-1.934-3.117-4.301-3.45-7.101-0.3-2.333-0.017-4.85 0.85-7.55l2-6.2c-0.2-1.633-0.067-2.667 0.4-3.1 0.233-0.2 0.483-0.233 0.75-0.1l0.9 0.3c1.133 0.1 2.933-0.083 5.4-0.55 3.9-0.733 6.967-0.85 9.2-0.35z" clip-rule="evenodd" fill="url(#ab)" fill-rule="evenodd"/>
<path d="m25.3 18.4c0.1-0.3 0.167-0.533 0.2-0.7 0.067-0.2 0.2-0.267 0.4-0.2 0.1 0 0.333 0.067 0.7 0.2 0.3 0.066 0.5 0.066 0.6 0 0.033 0 0.117-0.1 0.25-0.3 0.133-0.167 0.583-0.316 1.35-0.45 0.4-0.067 0.634-0.167 0.7-0.3l-0.15 0.35c-0.1 0.2-0.233 0.267-0.399 0.2l-0.9 0.4 0.15 0.5c0.066 0.233 0.017 0.35-0.15 0.35-0.367-0.1-0.733-0.2-1.1-0.3-0.434-0.1-0.633-0.05-0.6 0.15 0 0.133 0.083 0.4 0.25 0.8 0.1 0.333 0.05 0.617-0.15 0.85-0.2 0.2-0.483 0.283-0.85 0.25-0.367-0.034-0.65 0.033-0.85 0.2-0.167 0.133-0.383 0.4-0.65 0.8-0.333 0.466 0.1 1.333 1.3 2.6-0.667-0.233-1.417-0.649-2.25-1.25-0.533-0.366-0.967-0.467-1.3-0.3l-0.4 0.4 0.45 0.55c0.333 0.399 0.783 1.283 1.35 2.649l-0.251-0.499c-0.067-0.199-0.533-0.533-1.4-1l-1.25-0.65 0.5 0.7c0.333 0.466 0.683 1.267 1.05 2.399-0.533-0.267-0.983-0.684-1.35-1.25-0.233-0.333-0.6-0.6-1.1-0.8l-0.65-0.249 0.3 1c0.167 0.467 0.333 1.116 0.5 1.95-0.4-0.9-0.867-1.55-1.4-1.95-0.333-0.233-0.7-0.4-1.1-0.5l-0.5-0.1 0.2 0.85c0.1 0.366 0.117 1.083 0.05 2.15l-0.3-0.551-1.2-1.55 0.1 1.7c0.033 0.6 0.267 1.316 0.7 2.15l-1.1-1.351c-0.267-0.333-0.466-0.816-0.6-1.45l-0.15-0.848 0.4 3.8c0.181 1.422 0.306 2.196 0.375 2.325l-0.975-0.975c-0.4-0.4-0.783-0.95-1.15-1.65l-0.45-0.9 0.05 1.75c0.067 0.667 0.517 1.584 1.35 2.75l-0.95-1c-0.4-0.399-0.8-0.933-1.2-1.6l-0.5-0.9 0.05 0.4c0.034 0.3 0.217 0.884 0.55 1.75l-0.7-1.35c-0.3-0.567-0.5-1.167-0.6-1.801l-0.15-2.899 0.15 1.45c0.133 0.399 0.35 0.633 0.65 0.699l0.35-1.699c0.1-0.567 0.383-1.15 0.85-1.75 0.1-0.134 0.15-0.15 0.15-0.051 0 0.301 0.034 0.567 0.1 0.801 0.167 0.466 0.333 0.716 0.5 0.75-0.033-0.7 0-1.284 0.1-1.75 0.067-0.301 0.2-0.634 0.4-1l0.3-0.5 0.3 0.699c0.2 0.434 0.433 0.534 0.7 0.301 0.133-0.5 0.183-0.934 0.15-1.301l0.05-1.7 0.3 0.7c0.267 0.5 0.55 0.917 0.85 1.25 0.5 0.534 0.767 0.601 0.8 0.2l-0.25-0.75 0.05-1.35 0.4 0.9c0.133 0.333 0.284 0.383 0.45 0.15l-0.45-1.4c-0.066-0.2-0.117-0.5-0.15-0.9v-0.549l1.3 1.85c0.4 0.6 0.716 0.717 0.95 0.35-0.066-0.267-0.217-0.633-0.45-1.1l-1-1.5 1.9 0.8c0.833 0.367 1.217 0.517 1.15 0.45l-0.1-0.15-1.1-1 1.55 0.4c0.433 0.167 0.7 0.3 0.8 0.4 0.1 0.067 0.2 0.184 0.3 0.35 0.167 0.267 0.2-0.067 0.1-1-0.033-0.133 0.133-0.25 0.5-0.35 0.2-0.033 0.383-0.05 0.55-0.05l0.5 0.25c0.367 0.167 0.633 0.233 0.8 0.2 0.2 0 0.333-0.133 0.4-0.4z" clip-rule="evenodd" fill="#FFD9A0" fill-rule="evenodd"/>
<radialGradient id="a" cx="19.497" cy="-.3921" r="30.409" gradientTransform="matrix(.6593 .7518 .7518 -.6593 .5896 -.517)" gradientUnits="userSpaceOnUse">
	<stop stop-color="#E3A84B" offset="0"/>
	<stop stop-color="#BF743F" offset="1"/>
</radialGradient>
<path d="m9.4 21.65l1.8-5.6c-0.133 0.6-0.467 1.983-1 4.15-0.467 2.233-0.65 4.267-0.55 6.1 0.133 2.233 0.7 4.4 1.7 6.5 1.1 2.267 2.517 4.033 4.25 5.3 1.8 1.367 4.316 2.25 7.55 2.65 0.734 0.092 1.392 0.158 1.975 0.2-3.806 0.057-7.131-0.794-9.975-2.55-4.867-3.034-6.783-8.617-5.75-16.75z" clip-rule="evenodd" fill="url(#a)" fill-rule="evenodd"/>
<path d="m12.15 12.8c0.1 0.7 0.167 2.833 0.2 6.4 0.066 3.233 0.283 5.7 0.65 7.399 0.7 3.2 1.583 5.517 2.65 6.95 1.667 2.3 4.5 4.084 8.5 5.351 1.967 0.633 4.417 0.583 7.35-0.15l-0.25 0.2c-4.333 1.267-8.967 0.383-13.9-2.65-1.934-1.2-3.467-3.383-4.6-6.55-0.867-2.467-1.283-4.65-1.25-6.55 0.067-2.1 0.117-3.784 0.15-5.05 0.067-2.333 0.033-4.066-0.1-5.2 0.167-0.1 0.367-0.15 0.6-0.15z" clip-rule="evenodd" fill="url(#a)" fill-rule="evenodd"/>
<path d="m14.65 21.8c-1.367-4.667-2.3-7.65-2.8-8.95 0.167-0.067 0.3-0.067 0.4 0 1.9 6.833 4.1 12.133 6.6 15.9 1.6 2.4 4.167 4.533 7.7 6.4 1.133 0.6 3.184 1.5 6.15 2.699l-0.15 0.151c-2.533-1-4.233-1.717-5.1-2.15-2.633-1.3-5-2.85-7.1-4.649-2.2-1.868-4.1-5.001-5.7-9.401z" clip-rule="evenodd" fill="url(#a)" fill-rule="evenodd"/>
<path d="m14.55 13.15c0.567 0.467 1.367 0.95 2.4 1.45 4.2 1.967 6.533 3.1 7 3.4 3.7 2.233 6.434 4.934 8.2 8.1 1 1.834 1.699 3.767 2.1 5.801 0.3 1.666 0.35 3.1 0.15 4.3l-0.25 0.3c0.366-3.033-0.15-6.017-1.551-8.95-2.665-5.768-8.166-9.951-16.499-12.551-0.867-0.267-1.633-0.883-2.3-1.85h0.75z" clip-rule="evenodd" fill="url(#a)" fill-rule="evenodd"/>
<radialGradient id="p" cx="19.497" cy="-.3867" r="30.399" gradientTransform="matrix(.6596 .7517 .7517 -.6596 .5811 -.5096)" gradientUnits="userSpaceOnUse">
	<stop stop-color="#E3A84B" offset="0"/>
	<stop stop-color="#BF743F" offset="1"/>
</radialGradient>
<path d="m27.65 14.45c2.7 0.966 4.917 2.466 6.65 4.5 1.566 1.833 2.45 3.783 2.65 5.85 0.3 2.934-0.15 6.184-1.351 9.75l-0.5 0.75c0.367-0.633 0.7-1.733 1-3.3 0.334-1.733 0.534-3.583 0.601-5.55 0.233-5.067-2.983-8.95-9.65-11.65-1.433-0.6-2.95-1.1-4.55-1.5-1.9-0.5-3.35-0.7-4.35-0.6l0.8-0.15c3.233 0.367 6.133 1 8.7 1.9z" clip-rule="evenodd" fill="url(#p)" fill-rule="evenodd"/>
<use transform="matrix(1 0 0 -1 12.05 13.05)" y="-28.562" width="26.031" height="28.562" enable-background="new" opacity=".0703" xlink:href="#ac"/>
<linearGradient id="q" x1="-21.556" x2="-16.34" y1="-5.834" y2="-5.834" gradientTransform="matrix(-.8437 -.5369 .5369 -.8437 -.00026381 -.00068235)" gradientUnits="userSpaceOnUse">
	<stop stop-color="#FFD073" offset="0"/>
	<stop stop-color="#E07C3A" offset="1"/>
</linearGradient>
<path d="m7.45 14.2c0.267-0.367 0.5-0.65 0.7-0.85 0.4-0.367 0.85-0.6 1.35-0.7 0.767-0.133 2.2 0.033 4.3 0.5l-1.15 0.75c-0.667 0.233-1.133 0.317-1.4 0.25-0.133-0.033-0.2 0.1-0.2 0.4 0.034 0.167 0.067 0.317 0.1 0.45-0.233-0.767-0.7-1.183-1.4-1.25-0.433-0.033-0.95 0.033-1.55 0.2l-0.75 0.25z" clip-rule="evenodd" fill="url(#q)" fill-rule="evenodd"/>
<linearGradient id="r" x1="5.5439" x2="12.968" y1="15.135" y2="15.135" gradientTransform="matrix(.9967 -.0808 .0808 .9967 -.00026552 .00021082)" gradientUnits="userSpaceOnUse">
	<stop stop-color="#FFD073" offset="0"/>
	<stop stop-color="#E07C3A" offset="1"/>
</linearGradient>
<path d="m9.6 13c-1.2 0.1-1.9 0.8-2.1 2.1-0.133 0.633-0.133 1.267 0 1.9-0.233-0.167-0.417-0.433-0.55-0.8-0.3-0.733-0.217-1.617 0.25-2.65 0.5-1.066 1.316-1.583 2.45-1.55 0.667 0.033 1.633 0.317 2.9 0.85l1.55 0.45h-0.95c-0.433-0.1-0.783-0.183-1.05-0.25-0.533-0.1-1.367-0.117-2.5-0.05z" clip-rule="evenodd" fill="url(#r)" fill-rule="evenodd"/>
<path d="m31.55 37.05c0.233-0.066 0.483-0.116 0.75-0.149-0.566 0.033-0.783-0.134-0.649-0.5 0.1-0.2 0.333-0.4 0.699-0.601 0.167-0.066 0.334-0.133 0.5-0.2l0.25-0.7c0.101-0.267 0.434-0.551 1-0.851 0.2-0.1 0.334-0.1 0.4 0 0.233 0.267 0.384 0.417 0.45 0.45 0.233 0.167 0.333 0.184 0.3 0.05-0.033-0.333-0.017-0.566 0.05-0.7l0.5-0.8c0.066-0.066 0.117-0.05 0.15 0.05 0.033 0.233 0.066 0.384 0.1 0.45 0.033 0.134 0.101 0.167 0.2 0.101 0.066-0.067 0.167-0.2 0.3-0.4 0.266-0.333 0.45-0.417 0.55-0.25 0.034 0.066-0.05 0.417-0.25 1.05-0.166 0.533-0.15 0.75 0.05 0.65 0.3-0.167 0.399-0.084 0.3 0.25-0.134 0.3-0.334 0.533-0.601 0.7-0.233 0.133-0.383 0.283-0.449 0.449l-0.15 0.501c-0.167 0.467-0.55 0.784-1.15 0.95-0.166 0.033-0.6 0.4-1.3 1.101-0.467 0.5-1.033 0.783-1.7 0.85-0.267 0.033-0.283-0.066-0.05-0.3l0.4-0.351c-0.533 0.233-0.967 0.317-1.3 0.25-0.2-0.033-0.167-0.183 0.1-0.449l0.45-0.4c-0.467 0.2-0.816 0.217-1.05 0.05-0.167-0.133 0-0.283 0.5-0.45 0.228-0.057 0.453-0.115 0.675-0.175-0.422 0.099-0.664 0.04-0.726-0.175-0.033-0.168 0.201-0.317 0.701-0.451z" clip-rule="evenodd" fill="#997032" fill-rule="evenodd"/>
<linearGradient id="s" x1="-51.676" x2="-45.779" y1="-19.997" y2="-19.997" gradientTransform="matrix(-.9115 -.4112 .4112 -.9115 .00017655 .00079441)" gradientUnits="userSpaceOnUse">
	<stop stop-color="#FFB94F" offset="0"/>
	<stop stop-color="#917130" offset="1"/>
</linearGradient>
<path d="m37.9 35.5c-0.134-0.033-0.267 0.017-0.4 0.15l-0.2 0.199 0.2-0.05c0.167 0 0.283 0.033 0.35 0.101 0.134 0.1 0.45 0.083 0.95-0.051-0.066 0.101-0.316 0.217-0.75 0.351-0.3 0.1-0.616 0.149-0.95 0.149h-0.4l0.5 0.25c0.399 0.134 0.767 0.2 1.1 0.2 0.492-0.03 0.801-0.147 0.925-0.35-0.275 0.507-0.783 0.856-1.524 1.05-0.467 0.134-0.934 0.167-1.4 0.1l-0.55-0.149 0.9 0.75c0.267 0.166 0.517 0.217 0.75 0.149-0.101 0.101-0.434 0.167-1 0.2-0.367 0.033-0.7-0.033-1-0.2l-0.401-0.249 0.2 0.95c0 0.367-0.134 0.5-0.4 0.4 0.101-0.066 0.101-0.2 0-0.4-0.033-0.133-0.133-0.267-0.3-0.399l-0.25-0.15 0.1 0.35 0.15 1.45-1.05-1.05-0.601 1.4v-0.751l-0.05-0.2c0-0.267-0.083-0.667-0.25-1.2-0.133-0.434-0.1-0.85 0.101-1.25 0.1-0.233 0.333-0.566 0.699-1 0.5-0.6 1.217-0.983 2.15-1.15 0.667-0.066 1.616 0.017 2.85 0.25-0.099 0.2-0.249 0.25-0.449 0.15z" clip-rule="evenodd" fill="url(#s)" fill-rule="evenodd"/>
<linearGradient id="t" x1="-53.074" x2="-47.265" y1="10.393" y2="10.393" gradientTransform="matrix(-.5164 -.8564 .8564 -.5164 .0001241 -.00086081)" gradientUnits="userSpaceOnUse">
	<stop stop-color="#FFB94F" offset="0"/>
	<stop stop-color="#A68137" offset="1"/>
</linearGradient>
<path d="m33 36.45c0.866-0.834 1.634-1.283 2.3-1.351 0.533-0.1 1.134-0.116 1.8-0.05l-0.45 0.051c-0.134 0-0.25 0.051-0.351 0.15l-0.1 0.15 0.3 0.149c0.2 0.101 0.417 0.084 0.65-0.05l-0.4 0.25c-0.267 0.167-0.634 0.3-1.1 0.4l0.351 0.451c0.137 0.205 0.287 0.313 0.45 0.325l-0.1 0.025-1.6-0.101 0.05 0.2 0.05 0.5c0.067 0.3 0 0.5-0.199 0.601 0-0.101-0.101-0.25-0.301-0.45l-0.65-0.3-0.101 1c0 0.5-0.066 1.066-0.199 1.699l-0.1-0.799-0.3-1.1-0.1 0.55c0 0.233-0.167 0.634-0.5 1.2l0.1-0.4c0.033-0.166 0.017-0.434-0.05-0.8-0.101-0.566-0.15-0.866-0.15-0.9-0.033-0.433 0.2-0.9 0.7-1.4z" clip-rule="evenodd" fill="url(#t)" fill-rule="evenodd"/>
</svg>