<?xml version="1.0" encoding="UTF-8" standalone="yes"?>
<svg viewBox="150 150 400 250" xmlns="http://www.w3.org/2000/svg">
 <path d="m0 0v523h659v-523h-659z" fill="#fff"/>
 <path d="m340 87c-7.215 18.731-15.205 40.975-17.075 61-0.458 4.907-2.486 10.938-1.608 15.816 0.818 4.542 6.491 10.109 8.766 14.354 3.936 7.342 5.84 15.669 7.163 23.83 2.153 13.274-3.408 29.766 1.754 42h1l6-40h-2v8h-3c-3.448-26.063-4.725-53.504-2.91-80 0.839-12.254 6.668-33.662 1.91-45z" fill="#5d932e"/>
 <path d="m341 88c-0.027 40.772-8.99 83.669 0 124h3c0.187-16.882 9.055-33.48 11.741-50 2.286-14.067-4.757-31.302-7.621-45-1.897-9.068-2.747-20.834-7.12-29z" fill="#6cac34"/>
 <path d="m336.33 96.667l0.334 0.6666-0.334-0.6666z" fill="#9dbb7b"/>
 <path d="m403 99v1h5l-5-1z" fill="#afc1a1"/>
 <path d="m344.33 100.67l0.334 0.666-0.334-0.666z" fill="#b2d390"/>
 <path d="m349 200h1v-4h1v4h1l3-8h6l-1 5h1l13.449-38 8.59-9.793 13.961 8.793-3-11h-22c6.754-18.587 15.895-35.176 33-46-9.017-3.1988-23.472 7.543-30 12.924-9.181 7.566-19.186 19.755-20.684 32.076-0.625 5.136 2.204 9.842 1.421 15-2.106 13.868-6.856 24.632-6.737 39z" fill="#5d932e"/>
 <path d="m396.67 101.33l0.666 0.334-0.666-0.334z" fill="#aac490"/>
 <path d="m397 107l10-5c-4.557-0.522-7.232 1.476-10 5z" fill="#f4fdd6"/>
 <path d="m345.33 104.67l0.334 0.666-0.334-0.666z" fill="#bcd4a6"/>
 <path d="m385 119l6-2-1-3 7-7-12 12m-103-11v1l14 1-14-2z" fill="#f4fdd6"/>
 <path d="m280 109v1h3l-3-1z" fill="#bcd4a6"/>
 <path d="m279 110v1c19.83 6.326 31.259 20.687 33 42-6.583-6.008-14.903-12.087-24-13v1l5 1v1l-11 3v1c10.024 1.027 17.954 8.52 20.946 18 1.532 4.853 0.632 11.879 5.054 15v-6l2 3 15-5v4l3-1c-1.175-4.438-5.358-7.011-6.4-11.184-1.959-7.845 3.384-16.798 1.828-24.816-3.875-19.971-25.971-31.33-44.428-29z" fill="#4e7b25"/>
 <path d="m289.67 109.33l0.666 0.334-0.666-0.334z" fill="#aac490"/>
 <path d="m274 111v1h6l-6-1z" fill="#92ad79"/>
 <path d="m294.67 110.33l0.666 0.334-0.666-0.334z" fill="#aac490"/>
 <path d="m284.67 112.33l0.666 0.334-0.666-0.334z" fill="#9dbb7b"/>
 <path d="m347.33 112.67l0.334 0.666-0.334-0.666z" fill="#e5f9b9"/>
 <path d="m348 117v3h1l-1-3z" fill="#bcd4a6"/>
 <path d="m328.33 124.67l0.334 0.666-0.334-0.666z" fill="#9dbb7b"/>
 <path d="m350.33 126.67l0.334 0.666-0.334-0.666z" fill="#d6e2b1"/>
 <path d="m266 143c11.976-4.645 18.807-3.073 31-1-4.92-6.97-26.333-5.895-31 1m87-5l1 6h1l2-6h-4z" fill="#f4fdd6"/>
 <path d="m258 171l2 1h4v-4h1l1 5h1c0.044-12.743 6.059-24.875 20-25v-1h-5v-1l11-3c-19.113-15.229-41.404 7.798-35 28z" fill="#6cac34"/>
 <path d="m379 145v1h12l-12-1z" fill="#e5f9b9"/>
 <path d="m391.67 146.33l0.666 0.334-0.666-0.334z" fill="#d6e2b1"/>
 <path d="m272 155l10-6c-4.587-1.253-8.076 2.089-10 6z" fill="#f4fdd6"/>
 <path d="m311.33 148.67l0.334 0.666-0.334-0.666z" fill="#9dbb7b"/>
 <path d="m380 149v1l5-1h-5z" fill="#e5f9b9"/>
 <path d="m393 148l4 10h-5l4 14c4.383-6.975 7.095-21.08-3-24z" fill="#4e7b25"/>
 <path d="m295 152l4 5-4-5m93 0l3 6-3-6z" fill="#f4fdd6"/>
 <path d="m255 157v5h1l-1-5z" fill="#afc1a1"/>
 <path d="m267 164v9h-1l-1-5h-1v4h-1l-1-2-1 2-1-2h-1c1.414 7.313 7.177 14.544 13 19l-5-25z" fill="#4e7b25"/>
 <path d="m268 164v7h1l-1-7z" fill="#aac490"/>
 <path d="m304.33 172.67l0.334 0.666-0.334-0.666z" fill="#9dbb7b"/>
 <path d="m308 174c-0.593 9.137-2.697 18.148 2.14 26.999 3.59 6.571 10.87 9.348 12.86 17.001h-1l-2-5h-6l1 3-4 1 1 3-6-2 11 22-3-3h-1v3l-5-2c5.175 11.3 13.337 15.024 25 17-1.874 5.953-13.131 10.042-19 9 5.49 8.276 19.208 3.848 27 3.345 5.19-0.335 9.079 3.591 14 3.961 8.04 0.604 20.866-7.768 23-15.306h-1c-3.775 3.817-25.029 1.268-26 9h-6c2.062-10.656 13.833-17.107 24-18l-2-10-3 3c-1.203-6.929-7.538-5.176-10 0-4.634-0.207-11.528 6.126-15.142 1.677-3.348-4.12-0.919-10.912-0.862-15.677 0.144-12.13 0.423-24.237-3.031-36-1.634-5.562-2.911-14.271-9.965-14v-4c-7.361 0.554-9.222 5.611-17 2z" fill="#35571b"/>
 <path d="m366.33 174.67l0.334 0.666-0.334-0.666z" fill="#b2d390"/>
 <path d="m269 176v3h1l-1-3z" fill="#bcd4a6"/>
 <path d="m305 178v3h1l-1-3z" fill="#92ad79"/>
 <path d="m270.33 181.67l0.334 0.666-0.334-0.666z" fill="#b2d390"/>
 <path d="m364.33 182.67l0.334 0.666-0.334-0.666z" fill="#bcd4a6"/>
 <path d="m271.33 185.67l0.334 0.666-0.334-0.666z" fill="#9dbb7b"/>
 <path d="m306.33 186.67l0.334 0.666-0.334-0.666z" fill="#bcd4a6"/>
 <path d="m363 187v10h1l-1-10z" fill="#afc1a1"/>
 <path d="m307.33 190.67l0.334 0.666-0.334-0.666z" fill="#92ad79"/>
 <path d="m348 192l-8 52 14-4c3.119-4.534 7.947-6.499 10 0l3-3 4 3c3.628-4.577 7.412-4.984 13-5-5.623-7.159-13.032-6.526-21-4v-13h-1l-7 6-4-2h-3l-1 6h-1c0.769-14.832 16.959-21.643 17-36h-1l-1 5h-1l1-5h-6l-3 8h-1v-4h-1v4h-1l-1-8z" fill="#4e7b25"/>
 <path d="m376 194v1l12 2-12-3m-101 10l13-8c-5.381-1.845-11.507 2.953-13 8z" fill="#f4fdd6"/>
 <path d="m274 216l2 1h1v-4h1l1 2 6-14 14-4c-14.208-6.828-24.999 5.847-25 19z" fill="#6cac34"/>
 <path d="m364 195v5l10-4v-1h-10z" fill="#f4fdd6"/>
 <path d="m374 195v1h4l-4-1z" fill="#b2d390"/>
 <path d="m378 195c1.176 2.434 6.443 4.345 3 6v1l7 4c10.078-5.955-4.571-10.298-10-11z" fill="#6cac34"/>
 <path d="m308.33 196.67l0.334 0.666-0.334-0.666z" fill="#afc1a1"/>
 <path d="m364 197h-1c-4.116 11.587-16.674 17.131-17 31h1l1-6h3l4 2 7-4v-2l2 1c4.343-7.514 11.573-15.309 20-18-3.497-9.538-19.475 0.07-20-4m-79 4l1 3-5 2v1l28 16-3-5 6 2-1-3 4-1-1-3h6l2 5h1l-13-18-2 2c-7.125-7.194-14.6-3.645-23-1m107 1l-3 3c0.625 4.838 0.836 11.203 6 13 0.933-6.348 2.558-10.137-1-16h-2z" fill="#5d932e"/>
 <path d="m281 209l3-1-3 1z" fill="#9dbb7b"/>
 <path d="m372 208c-6.745 6.892-11.356 13.1-9 23h18c-2.681-4.877-9.746-5.223-14-2h-1c-6.291-9.688 7.296-12.604 6-21z" fill="#f4fdd6"/>
 <path d="m273 209v7h1l-1-7z" fill="#aac490"/>
 <path d="m277 213v4h-1l-1-2v9h1l1-11z" fill="#5d932e"/>
 <path d="m390 213v14h1l-1-14z" fill="#aac490"/>
 <path d="m395.33 214.67l0.334 0.666-0.334-0.666z" fill="#bcd4a6"/>
 <path d="m391 216v9h1c1.338-3.755 2.036-6.069-1-9z" fill="#4e7b25"/>
 <path d="m276 221v6h1l-1-6z" fill="#afc1a1"/>
 <path d="m370 228v1h4l-4-1z" fill="#b2d390"/>
 <path d="m288 240l25-3h1l3 3c-3.448-11.989-24.187-9.785-29 0z" fill="#5d932e"/>
 <path d="m313 232l-1 2h2l-1-2z" fill="#b2d390"/>
 <path d="m369.33 242.67l0.334 0.666-0.334-0.666z" fill="#afc1a1"/>
 <path d="m376 245v1h6l-6-1m-7 1v1h3l-3-1z" fill="#aac490"/>
 <path d="m347 261h1l1-3 29-11c-9.551-3.895-28.859 3.441-31 14z" fill="#5d932e"/>
 <path d="m349 258l-3 1-1 6h6l19-9 4 3 5-2 3-11-33 12z" fill="#4e7b25"/>
 <path d="m382.33 246.67l0.334 0.666-0.334-0.666z" fill="#afc1a1"/>
 <path d="m306 258l5 4 22-6c-6.207-4.097-23.9-7.045-27 2z" fill="#5d932e"/>
 <path d="m379 255l1 1-1-1z" fill="#92ad79"/>
 <path d="m305 256c-4.894 4.393-5.327 7.123-3 13l6-2 5 4c1.687-6.277-4.038-10.609-8-15z" fill="#c09d54"/>
 <path d="m311 262l-4-5c3.178 11.281 22.657 8.606 26-1-8.029 0.067-15.087 2.072-22 6z" fill="#4e7b25"/>
 <path d="m377 260l11 7-8-9-3 2z" fill="#f4fdd6"/>
 <path d="m371 266l5-1 2-5-7 6z" fill="#c4ab60"/>
 <path d="m378 261l-4 8-18 2v1c10.56 7.206 10.089 9.114 5 20l-17-3 7 17-7-2-1 5h-11l-2-1c-1.323-3.177-4.473-7.423-3.867-10.985 1.139-6.698 11.168-11.051 16.867-9.015l3-10c-9.468 2.696-8.338-6.252-16-9 1.843 3.334 7.386 9.052 7.5 13 0.092 3.161-2.753 3.31-4.5 2l-8 8-3-1-1-5h-1c0.69 5.492 1.333 9.008-4 12v1c7.55-0.867 18.873 11.682 15.759 19.907-2.287 6.042-12.386 8.226-17.759 10.093l-6-17h-1l4 20c-8.678 1.854-17.36 9.211-21-3h-1l1 9-12 3-2-1-1-4h-1l-1 8 6 5h1l-1-5c16.929-6.53 15.288 5.525 25 16-7.608 3.381-15.418 4.265-20-4h-1c-0.05 6.247-3.483 7.307-9 6l16 11h1c-1.748-7.506 5.733-12.021 13-8.883 5.855 2.529 12.012 11.023 14 16.883l-14.985-0.314-10.015-3.686c0.511 9.43-5.768 8.731-13 8l23 7c0.891-9.068 17.028-9.29 24-8 12.607-14.436 23.01-5.462 36 1-4.05 5.02-11.775 8.967-17.961 10.8-4.916 1.457-6.961-1.245-10.039 4.2 9.131-0.694 15.423 2.428 21 10l-5 2v1c6.874-1.423 18.514-4.526 21 5h14v-1l-5-1c5.679-3.86 14.565-7.295 17-14l-8 6-14 4 3-4c-3.186-2.617-5.087-3.649-4-8l-14.961 7.423-13.039-7.423c5.125-9.553 20.697-13.855 30-11l-6-7c-4.511 0.784-6.976 0.619-10-3-19.275-3.47 5.04-23.312 15-21v-1c-3.652-4.263-0.277-7.838 2.316-12 2.654-4.262 6.917-8.63 8.842-13.17 3.207-7.562 4.375-22.513 11.842-26.83l1-17h-1l-6 5-3-2 3-15-2 6-12-1 1 2h-1l-6 1c3.057 2.088 6.378 4.122 8.731 7.04 3.607 4.473 0.156 13.994-5.412 15.793-3.25 1.051-7.118-0.5-10.319-0.988-2.931-0.447-7.397 0.637-8.745-2.947-1.558-4.144 4.619-9.941 6.875-12.898 2.371-3.107 4.702-5.721 7.87-8l6-21z" fill="#7f560d"/>
 <path d="m379 261l-3 9c4.297-1.085 8.405-2.26 11 2-4.794 0.794 0.088 5.492 3 6l1-7-12-10z" fill="#e9bd59"/>
 <path d="m298 264l2 12c5.311-0.491 9.897-0.457 12-6l-4-3-6 2-2-5h-2z" fill="#a57d26"/>
 <path d="m366 267v2h8l2-4-1-1-9 3z" fill="#b38c3e"/>
 <path d="m296 266c-4.415 4.871-5.784 7.865-3 14 5.475-2.761 6.4-9.024 3-14z" fill="#d1a844"/>
 <path d="m314 266l-3 7 15-4-12-3z" fill="#7f560d"/>
 <path d="m340.67 266.33l0.666 0.334-0.666-0.334z" fill="#7d8b4b"/>
 <path d="m333 270h8l9 1c-3.595-5.609-12.056-4.106-17-1z" fill="#c4ab60"/>
 <path d="m375 269l-2 12h1v-4l10-2v-4l3 1c-1.179-5.531-7.782-2.539-12-3z" fill="#bf983b"/>
 <path d="m298 269c-0.078 6.582-4.184 14.517-12 12l-3 12h1c1.141-7.391 7.66-10.36 14-13l3 15h1c-0.604-7.656-3.684-14.298 4-19v-1l-6 1-2-7z" fill="#7f560d"/>
 <path d="m301 286l3-2 4 4h4l-1-5 2 5h1l1-5h2l1 3h1l-1-8h1l4 1 2 3h1v-8h1v3l8 1c-4.721-15.881-36.864-5.353-34 8z" fill="#d8b359"/>
 <path d="m335 270c1.839 5.595 8.406 4.536 13 7h1l5-4v-2l-13-1h-6z" fill="#b38c3e"/>
 <path d="m384 271v11h7l2-6v-1l-4-3 1 6-6-7z" fill="#c09d54"/>
 <path d="m347 279l20 3c-3.127-9.702-14.664-12.073-20-3z" fill="#e9bd59"/>
 <path d="m290 274l-3 9 6-2-3-7z" fill="#a57d26"/>
 <path d="m326 274c0.122 5.035 1.034 9.864 7 9l1 3c11.329-5.434-5.531-9.104-8-12z" fill="#b38c3e"/>
 <path d="m336 274c2.652 6.487 6.313 5.846 12 3l-12-3z" fill="#8c6417"/>
 <path d="m374 277v4l-3-1-1 2v1h10l-1-2h1l4 1v-7l-10 2z" fill="#a57d26"/>
 <path d="m393 276l-1 10 3-2 1 7c6.775-3.961 2.26-11.79-3-15z" fill="#d8b359"/>
 <path d="m318 278l4 13 3 1 7-6c-5.561-0.066-8.544-1.024-9-7l-5-1z" fill="#8c6417"/>
 <path d="m346 278c1.584 3.94 4.014 3.953 8 4v6l3-4 2 2h1l7-4-21-4z" fill="#d1a844"/>
 <path d="m345 279l-2 11 18 2 4-7-5 1h-1l-2-2-3 4v-6l-9-3z" fill="#bf983b"/>
 <path d="m286 289l2-2-1 9h4l1-8 6 2h1l-1-10c-4.971 1.432-11.009 3.496-12 9z" fill="#ebc474"/>
 <path d="m324 280c-2.435 7.039 7.838 8.422 9 3l-6-3-2 2-1-2z" fill="#b29655"/>
 <path d="m311 283l1 5h-4l-4-4-2 1v8l13 1 1-7 4 2v-4l-3-2h-2l-1 5h-1v-5h-2z" fill="#b38c3e"/>
 <path d="m360 296l4-3 12-1 1 3 2-2 4 2c1.019-5.078-7.79-12.559-12.961-11.263-4.671 1.171-8.327 8.213-10.039 12.263z" fill="#d8b359"/>
 <path d="m394 284l-3 1-1 6 3 2 5-1v-1l-4-7z" fill="#b38c3e"/>
 <path d="m299 286v4h-1l-1-2h-5l-1 8h-4c1.778-3.553 3.617-6.302 0-9v2l-3-1 1 17c4.797-1.21 7.385-1.657 8-7l8 7h1l-3-19z" fill="#c09d54"/>
 <path d="m328 293l4-1 6 5 7-1c3.426-12.905-11.934-8.11-17-3z" fill="#e9bd59"/>
 <path d="m316 287l-1 7c-7.848-0.509-13.59-3.73-13 7h1l1-2c3.316 5.919 7.908 3.113 13 1l-1-2c4.596-1.69 4.945-4.395 5-9l-5-2z" fill="#a57d26"/>
 <path d="m400.33 289.67l0.334 0.666-0.334-0.666m-119.33 0.333l-7 16 4-1c1.503-5.474 5.506-9.026 3-15z" fill="#c4ab60"/>
 <path d="m282 292c0 8.723 1.667 15.549-9 14l1 8 1-2h1v7c7.777-3.462 11.312-19.989 6-27z" fill="#a57d26"/>
 <path d="m331 292l-4 1c-2.143 4.731 1.607 10.943 6 6h1c0.404 5.995 2.969 8.726 9 7l-2-3c-6.401 0.568-5.184-4.366-4-9l-6-2z" fill="#d1a844"/>
 <path d="m364 293c-2.165 1.991-5.419 3.395-6.802 6.108-1.227 2.408-0.653 5.468 1.951 6.67 7.194 3.319 21.92 3.325 21.851-6.778-6.679 7.595-12.337 4.175-10-6h-7z" fill="#a57d26"/>
 <path d="m371 292c0.175 5.339 1.857 6.865 7 8-1.027-4.279-2.836-6.515-7-8z" fill="#d2b786"/>
 <path d="m375 292l4 8h4l2-6-2-1-6 2-2-3z" fill="#bf983b"/>
 <path d="m400 292l-1 12c5.054-2.721 5.309-7.117 3-12h-2m-61 3l1 5 4-2 1 3 2-2 1 3h3l-4-8-2 2-6-1z" fill="#d1a844"/>
 <path d="m370 294c0.062 7.413 8.105 16.485 9 5-4.6 0.092-6.499-1.261-9-5z" fill="#b29655"/>
 <path d="m336 296v4l5 2-5-6z" fill="#f5dc95"/>
 <path d="m404 297l3 6-3-6z" fill="#c4ab60"/>
 <path d="m293 298c0.544 4.779 5.805 11.943 10 6l-10-6z" fill="#b38c3e"/>
 <path d="m307 308l4-1c1.828-2.169 2.253-2.033 4 0 3.46-3.279 6.565-3.449 11-2-2.06-11.237-19.133-5.004-19 3z" fill="#ebc474"/>
 <path d="m335 298c0.165 6.279 3.208 5.46 8 7l-1-5-2 2-5-4z" fill="#d2b57c"/>
 <path d="m343 298v8h1l1-2 6 2 1-4h-4c-0.914-2.266-1.011-2.406-3-1l-2-3z" fill="#b38c3e"/>
 <path d="m378 314h1l1-3 3-1h1v2l1-2h1l1 8h1l1-9 4 1c1.386-4.996 0.039-15.652-7.787-10.242-4.165 2.878-6.692 9.439-7.213 14.242z" fill="#e9bd59"/>
 <path d="m275 306c6.388 2.757 6.98-1.456 7-7l-7 7z" fill="#d1a844"/>
 <path d="m303 299c-0.127 3.902-0.599 5.915-4 8v1l7 1 2-6-5-4z" fill="#7f560d"/>
 <path d="m333 299l-7 1 4 8 2-1v2c3.929-0.545 9.993 1.699 11-3-6.323 1.311-7.423-2-10-7z" fill="#b38c3e"/>
 <path d="m403 299l-4 5c1.29 4.097 3.992 5.033 8 6l-4-11z" fill="#a57d26"/>
 <path d="m283 302c0 7.935 0.142 12.407-7 17v-7h-1l-1 10c3.783-1.619 7.234-4.498 11-2h1l6-8v-1l-6 2-3-11z" fill="#7f560d"/>
 <path d="m292 302l-8 2 2 9 13-4-5-7h-2z" fill="#a57d26"/>
 <path d="m315 307l-1-3-3 3h-5l4 12c2.249-1.406 4.689-0.146 6.833-1.5 5.841-3.689 4.605-6.768 13.167-5.5l-3-8c-4.611-0.033-9.005-1.168-12 3z" fill="#d1a844"/>
 <path d="m407.33 304.67l0.334 0.666-0.334-0.666z" fill="#d2b57c"/>
 <path d="m339 321l9-2 1-3 2 1v-2l7 4 1-3c2.875 2.396 4.419 2.906 5 0l4 2c-7.797-16.674-22.385-11.402-29 3m57-16l-4 15 14-2-1-3 2 1v-1l-8-10h-3m-109 15h1c3.917-1.542 5.43 1.415 6 5 2.845-0.325 7.298-8.443 8-3h1l2-5h1l1 3h1l-4-13c-7.178 1.705-16.369 4.7-17 13z" fill="#d8b359"/>
 <path d="m407 307l-4 2 4 4v-6z" fill="#7f560d"/>
 <path d="m305 309l1 3h1v-3h-2z" fill="#a57d26"/>
 <path d="m389 309l-1 8 5-7-4-1z" fill="#c09d54"/>
 <path d="m383 310l-3 1-1 3h-1v-3h-1l-1 5 12 3-2-9h-1l-1 2-1-2z" fill="#a57d26"/>
 <path d="m319 312l1 8h6v1h-2v1l8-1c2.263-9.284-5.801-10.243-13-9m88 0v4l-2-1 1 3-6-1c0.743 3.487 3.255 3.988 6 2l1 4h1l-1-11z" fill="#bf983b"/>
 <path d="m319 314c-2.615 2.877-4.139 3.637-8 3v6h4c5.668-0.805 12.441 2.619 16-3l-7 2v-1h2v-1h-6l-1-6z" fill="#b38c3e"/>
 <path d="m273 315v4h1l-1-4z" fill="#c09d54"/>
 <path d="m351 315c-2.708 7.652 2.092 8.83 9 10-0.436-5.662-3.785-8.269-9-10z" fill="#d2b786"/>
 <path d="m286 316l2 14c3.282 0 2.154 3.653 4.333 5.833 4.852 4.852 9.667-1.165 9.667-5.833l-7-2-2 1-1-3-3 2-3-12z" fill="#a57d26"/>
 <path d="m349 316l-1 3-10 1 2 5c3.306-2.066 13.105-2.979 9-9m10 0l1 7 10-1-1-5-5-1h-5m-54 1l-2 5h-1v-3l-8 6c-0.342-4.397-1.772-5.859-6-7l1 10 3-2 1 3 2-1 7 2v5l9-3c-0.053-6.299-1.163-10.726-6-15z" fill="#bf983b"/>
 <path d="m273 323l2 4 8-4h1l2 5c4.433-11.385-7.12-9.255-13-5z" fill="#e9bd59"/>
 <path d="m399 318l3 8-3-8z" fill="#e5c88f"/>
 <path d="m273 319l-1 15h1v-15z" fill="#f4fdd6"/>
 <path d="m391 319l-3 13 5-6 2 7 3 2c6.959-2.601 10.672-8.938 8-16l-5 1c1.447 5.484 2.727 9.597-4 11l2-12h-8z" fill="#a57d26"/>
 <path d="m409 320l-9 21-11-6 12 10c3.498-6.021 10.805-18.108 8-25z" fill="#7f560d"/>
 <path d="m312 321l2 8 12-5-11-1-3-2z" fill="#8c6417"/>
 <path d="m360 329l-11-1v-6l-8 1 5 8v-3h1c9.373 4.096 16.733 4.069 22-6-5.961-1.23-7.784 1.446-9 7z" fill="#a57d26"/>
 <path d="m349 322v6l11 1 1-6h-1l-11-1z" fill="#b29655"/>
 <path d="m410 322l-2 10 4-1-2-9z" fill="#e9bd59"/>
 <path d="m280 323l-1 3c2.992 2.077 7.857 5.336 9 0h-1l-1 2-2-5h-1l-1 2-2-2z" fill="#d1a844"/>
 <path d="m317 334h19l2 2 6-1c-4.997-11.804-22.137-15.73-27-1z" fill="#ebc474"/>
 <path d="m273 324c0.105 9.297 7.1 13.567 16 12-0.22-6.699-4.004-5.895-8-10h-1v6h-4l-3-8z" fill="#b38c3e"/>
 <path d="m278 324l-2 8h4v-8h-2z" fill="#d2b57c"/>
 <path d="m365 332l5-2h1v4h1l3-4v4h7l1-4c-7.056-3.928-14.838-9.225-18 2z" fill="#e9bd59"/>
 <path d="m402 324l-4 1-1 6c4.397-0.506 6.846-2.476 5-7z" fill="#c09d54"/>
 <path d="m393 326l-5 10 12 5 6-11-8 5-3-2-2-7z" fill="#8c6417"/>
 <path d="m364 330l-5 6 7-3 5 3v6c3.321-1.099 3.737-2.59 4-6l3 2h1l5-7h-1l-1 3-2-2-4 2h-1v-4l-3 4h-1v-4h-1l-1 2h-4l-1-2z" fill="#c4ab60"/>
 <path d="m407 330l-1 6h1l1-2 3 1v6l2-10-6-1z" fill="#d1a844"/>
 <path d="m274 331l-1 5 3 4 2 1 12-3v-5h-1c-3.833 6.245-10.643 1.399-15-2z" fill="#a57d26"/>
 <path d="m319 340h3l1-3h1v5h8v-4l12 3h3l-2-7-7 2h-1l-1-2c-6.431 2.974-21.077-6.235-17 6z" fill="#c09d54"/>
 <path d="m366 333l-11 7 13 2v4c3.759 0.124 5.138-0.749 7-4l3 1 4-8-3 3h-1l-3-2-4 6v-6l-5-3z" fill="#bf983b"/>
 <path d="m272 334v8h2l-2-8z" fill="#c09d54"/>
 <path d="m381 342l11 1 3-1c-4.061-6.911-12.049-9.633-14 0z" fill="#e9bd59"/>
 <path d="m405 334l-4 11c12.722 5.937 4.301 10.062 3 19 8.804-5.004 9.999-15.79 10-25l-3 2v-6l-4-1v2h-1l-1-2z" fill="#a57d26"/>
 <path d="m298 346l5-4 3 10h1l3-1-2-7 12 2c-1.309-4.532-3.526-10.343-9.004-10.758-5.835-0.443-17.844 3.513-12.996 10.758z" fill="#d8b359"/>
 <path d="m271 336v4h1l-1-4z" fill="#d6e2b1"/>
 <path d="m323 337l-3 3c2.204 6.403 6.016 5.258 11 8l16-7h-3l-12-3v4h-8l-1-5z" fill="#b38c3e"/>
 <path d="m279 344l4 11h1l3-7 2 4 5-1 3 1 1-1c-3.424-10.815-9.512-12-19-7m101-3l-4 9h1l1-3h7v3h1v-6l4 3h3l4-1c0.056-3.244-2.19-5.755-5-3l-12-2z" fill="#d1a844"/>
 <path d="m272 342l-2 9v1l2 2h1l-1-12z" fill="#f4fdd6"/>
 <path d="m300 347h1l1 3 1-8-3 5z" fill="#bf983b"/>
 <path d="m339 348v1l17-3-1 3 8 2c-6.423-10.93-14.951-8.538-24-3z" fill="#ebc474"/>
 <path d="m398 343l-4 9-2-1-1 4-16 1c1.952 3.434 7.606 5.814 8.654 9.326 2.553 8.547-12.575 11.032-17.654 10.674l-11-8c-5.171 5.421-0.614 10.41 6 11 2.358 4.276 5.576 4.038 10 3l5 8c2.954 2.905 2.762 4.33 1 8 10.512-4.407 12.786-2.769 23 2l5-10h-1l-2 4h-1l-5-6h-5c2.161-4.239 5.286-9.69 9.104-12.642 5.42-4.19 10.589 1.066 10.896-8.358h-6l1-4-9-2h-2l-4 3c1.746-6.061 10.215-15.021 7-21z" fill="#8c6417"/>
 <path d="m273 344v10h-1l-2-2v5l5-7 3 1c0.558-4.353-0.61-6.283-5-7z" fill="#ebc474"/>
 <path d="m308 344l2 7-3 1h-1l-2-4-3-1h-1c-0.434 9.693 8.789 9 16 9l-1-3 7-1c-0.649-8.354-7.892-6.004-14-8z" fill="#b38c3e"/>
 <path d="m386 344v4h4l-4-4z" fill="#e5c88f"/>
 <path d="m392 345l1 7 5-7-5 2-1-2z" fill="#bf983b"/>
 <path d="m394 357h4l4-3v4h2l3-7h1l2 2c-5.654-12.082-12.969-5.578-16 4z" fill="#d8b359"/>
 <path d="m355 346l-25 7 1 4 23-2v-2h10l3 2c-2.464-4.835-6.852-5.711-12-6v-3z" fill="#d1a844"/>
 <path d="m378 347l-3 2-2 7 18-1v-2h-5l-1-6h-1l-1 2-5-2z" fill="#a57d26"/>
 <path d="m386 348v5c4.319-0.337 6.005-1.585 5-6l-5 1z" fill="#c09d54"/>
 <path d="m287 348v12h11v-1l-11-11z" fill="#b29655"/>
 <path d="m278 351l-3-1v6l7 4h-10v1c5.837 2.665 11.415 2.885 11-5h1c3.156 8.687 13.202 7.92 20 4l-5-9h-9c0.855 5.319 2.993 6.63 8 8v1h-11l-1-8-2 3h-1l-2-6-3 2z" fill="#a57d26"/>
 <path d="m348 351l-1 4 6 2-5-6z" fill="#f5dc95"/>
 <path d="m407 351l-3 7h-2v-4l-4 3c-3.08-0.283-4.144-0.03-5 3l6-1c5.333 3.17 13.213-2.718 8-8z" fill="#bf983b"/>
 <path d="m274 352l-3 8h11l-7-4 1-4h-2z" fill="#b29655"/>
 <path d="m346 353l-1 5 3 2h4l2-5h-1l-1 2-6-4z" fill="#d2b786"/>
 <path d="m354 353l-2 7h-4l-3-4h-1c0.168 14.133 17.857 6.216 23-1l-3-2h-10z" fill="#bf983b"/>
 <path d="m314 360v2c3.723 1.319 8.878 4.4 12 1l3 1 7 1c-4.971-9.79-13.336-8.84-22-5z" fill="#e9bd59"/>
 <path d="m332 357c5.166 7.308 12.211 10.597 21 8v-1c-5.448-0.132-8.549-1.156-9-7h-12z" fill="#a57d26"/>
 <path d="m362 365c6.622-1.755 15.76 1.168 22 4 2.623-11.366-17.468-16.278-22-4z" fill="#e9bd59"/>
 <path d="m411 356c-2.338 3.524-5.715 8.394 0 10v-10z" fill="#d8b359"/>
 <path d="m392 359l-1 5 4-3h2l7 3v-4l-5-1h-7z" fill="#b38c3e"/>
 <path d="m309 362c2.768 9.285 20.103 19.918 28 11l-8-1v-1l9-2 3 2c-1.381-3.85-7.936-10.758-12-7l-3-1c-4.233 2.535-8.743 0.211-12-3l-5 2z" fill="#c09d54"/>
 <path d="m300 363v1h5l-5-1z" fill="#bf983b"/>
 <path d="m361 363l-4 6h11l-1 6c7.372 2.61 13.745 0.026 16-8l-7-1-1 1 1 6c-5.787-2.047-6.306-4.504-8-10h-7z" fill="#b29655"/>
 <path d="m406 363l-1 4 6 3h1v-7h-1v3l-5-3z" fill="#b38c3e"/>
 <path d="m291 372l2-1 8 7c-0.277-3.874-1.942-9.135-6-10v-1l7 3 3 1 5-1c-3.803-7.89-23.966-8.936-19 2z" fill="#d8b359"/>
 <path d="m369 364c0.068 5.671 1.402 7.638 7 9-0.546-4.799-2.607-7.094-7-9z" fill="#e5c88f"/>
 <path d="m278 366v1h9l-9-1z" fill="#a57d26"/>
 <path d="m380 376l6 2h1l2-6 8 5 2-6c-8.312-5.579-14.419-4.822-19 5z" fill="#d1a844"/>
 <path d="m290 376c3.092-13.226-16.736-7.59-12.377-4.023 3.617 2.96 8.615 0.182 12.377 4.023z" fill="#d8b359"/>
 <path d="m295 367v1h3c0.651 4.12 2.759 7.362 7 5l10 3-4-7-6 2-3-1-7-3z" fill="#d1a844"/>
 <path d="m356 368l10 8h4v-1h-3l1-6-12-1z" fill="#b38c3e"/>
 <path d="m275 368v4h1l-1-4z" fill="#f5dc95"/>
 <path d="m313 370c5.002 6.051 11.376 7.937 19 8l-19-8m24-1l-8 2v1l8 1-4 3v1c4.803-0.724 8.164-1.874 9-7l-5-1z" fill="#a57d26"/>
 <path d="m411 370l-6 22h1c2.582-5.145 7.184-16.59 5-22z" fill="#f4fdd6"/>
 <path d="m292 371l-1 5h-1l-14-4 3 8 39 1-2-6-11-2-4 1v4l-9-7z" fill="#b38c3e"/>
 <path d="m389 372v9h2c0.984-3.586 1.12-6.624-2-9z" fill="#d2b57c"/>
 <path d="m397 379h5v10c11.85-7.877 1.447-23.374-5-10z" fill="#d8b359"/>
 <path d="m276 374l-2 5 2-5z" fill="#e5c88f"/>
 <path d="m327 382v1l13-2c1.003 4.712 5.668 6.056 10 7l-1-5h9c-7.881-13.026-20.474-6.553-31-1z" fill="#e9bd59"/>
 <path d="m374 382l14 5 8-10-4-2c-0.86 5.536-3.894 6.801-9 8l3-7c-5.855-0.807-9.385 0.47-12 6z" fill="#a57d26"/>
 <path d="m387 376l-4 7 7-1-3-6z" fill="#c09d54"/>
 <path d="m277 377l-2 1c1.739 5.713 13.4 13.125 15 4l-13-5z" fill="#b29655"/>
 <path d="m280 379l10 3v4h1l3-6-14-1z" fill="#a57d26"/>
 <path d="m396 379l-5 9h5c-0.097 3.768 1.884 4.329 5 6h1l5-10-5 5v-10h-6z" fill="#b38c3e"/>
 <path d="m327 383l5 8-16 1c4.456 5.332 13.465 4.02 20 4l-2-5 18 1v-6l11 1c-3.405-6.138-8.202-3.88-14-4l1 5c-3.989-1.33-10.827-3.691-10-7l-13 2z" fill="#bf983b"/>
 <path d="m407 381v3h1l-1-3z" fill="#e5c88f"/>
 <path d="m328 387c-3.748-5.768-19.925-4.764-24.288 0.584-3.793 4.651 3.956 4.391 6.289 3.491 2.675-1.033 5.139-1.903 7.999-2.273 3.385-0.439 6.658-1.114 10-1.802z" fill="#e9bd59"/>
 <path d="m278 384l7 13-7-13z" fill="#f4fdd6"/>
 <path d="m352 386v6l-18-1 2 5h-16v1l8 1-11 5-3-5-6-2h-2l-1 5-7-1 4 2c-2.584 4.209-5.472 3.825-10 3 5.253 8.072 22.312-2.51 30 8h-9l-5 2v1l9 2-2 2v1l24 2-17 4v1h37v-1h-4l3-3v-1c-8.207 1.384-14.991 2.009-21-5l5-1v-1c-7.431-2.73-19.16-4.593-24-11l18-4c0.544-5.143 20.176-10.109 26-13l-10-2z" fill="#8c6417"/>
 <path d="m362 391l15 1c-3.307-6.447-11.176-7.715-15-1m-50-1l2 7 8 1v-1l-6-5 16-1c-4.699-5.623-13.741-3.309-20-1m-30-1c2.035 5.948 4.551 9.749 11 11l-5-4v-1l14-1c-2.535-8.737-12.986-5.886-20-5z" fill="#d8b359"/>
 <path d="m305 393c2.203 4.025 4.324 6.575 9 5l3 5c4.433-0.827 8.727-0.665 11-5l-14-1-2-7-7 3z" fill="#b29655"/>
 <path d="m353 394v2c8.957 1.765 15.378-6.461 23 0l4-1-1-4-26 3z" fill="#bf983b"/>
 <path d="m288 395v1l17 5c0.607-3.487 1.087-9.646-4-7l-13 1z" fill="#a57d26"/>
 <path d="m366 392l-1 9 5 2 2-6-6-5z" fill="#d2b57c"/>
 <path d="m367 392c0.728 3.351 1.597 4.412 5 5-0.577-3.474-1.526-4.423-5-5z" fill="#e5c8a9"/>
 <path d="m376 401h5v7l4 1 5-1 9-5 1-3c-9.204-6.07-16.616-9.259-24 1z" fill="#d1a844"/>
 <path d="m364 394c-5.177 4.979-14.389-2.053-17 6h15l-2 4h9l-4-3 1-7h-2z" fill="#b38c3e"/>
 <path d="m372 394l-2 8 5-2-2 2 6 6-3 4 8-3-3-1v-7h-5l3-6-3 1-4-2z" fill="#a57d26"/>
 <path d="m286 397l3 7 13-2-16-5z" fill="#c09d54"/>
 <path d="m339 399v1h5l-5-1z" fill="#b38c3e"/>
 <path d="m320 405v1h30c-3.665-11.873-22.081-3.247-30-1z" fill="#d8b359"/>
 <path d="m351 402v1c4.533 2.954 7.45 5.58 13 4l-4-3 2-4-11 2z" fill="#8c6417"/>
 <path d="m290 405l11 1c-3.269-2.621-8.031-4.929-11-1z" fill="#a57d26"/>
 <path d="m350 404c-5.783 4.702-24.649 2.05-32 1 2.669 3.054 6.376 1.118 9.853 2.603 4.418 1.886 12.895 13.974 17.147 3.397-5.045 1.183-8.522 0.914-11-4h1c3.499 4.158 16.345 3.571 19-1l-4-2z" fill="#bf983b"/>
 <path d="m293 408c2.934 6.269 8.354 8.997 15 10l-6-7 15-2v-2l-24 1z" fill="#e9bd59"/>
 <path d="m320 407c2.609 4.103 6.581 3.553 11 4-1.654-4.983-6.476-4-11-4m14 0c1.653 5.444 6.11 5.442 11 4l-5 4v1c5.423 0.358 15.13-2.539 15-9-5.903 3.019-15.163 3.303-21 0m55 8l7-8c-4.145 1.231-5.973 3.87-7 8z" fill="#a57d26"/>
 <path d="m302 411l4 5h1l13-5-1-3-17 3z" fill="#d1a844"/>
 <path d="m355 412v1l18 4c-3.83-6.435-11.495-7.043-18-5z" fill="#d8b359"/>
 <path d="m381 416h9l1-6-10 6z" fill="#c09d54"/>
 <path d="m307 414c1.459 9.079 9.493 8 17 8v-1h-9v-1l2-2-9-2v-1l5-2c3.704 0.849 6.653 1.319 9-2l-15 3z" fill="#b29655"/>
 <path d="m337 420c6.668-0.843 19.397-4.102 25 0h1l8-5c-10.576-0.921-26.139-5.478-34 5z" fill="#bf983b"/>
 <path d="m301 416l4 4 1-3-5-1z" fill="#b29655"/>
 <path d="m352 421v-1l3-1v-1l-17 2v1l14 3.6 22-3.6-3 2c5.002 1.069 9.276-0.557 13-4l-32 2z" fill="#a57d26"/>
 <path d="m305 419l8 3v-1l-5-3-3 1z" fill="#8c6417"/>
 <path d="m352 420v1c4.361 1.274 7.676 1.214 10-3l-10 2z" fill="#d2b57c"/>
 <path d="m355 427l17-2-1-3 3-1c-5.119-3.327-16.009 1.057-19 6z" fill="#d1a844"/>
 <path d="m309 422v1c5.773 3.186 22.631 3.739 27-2l-27 1z" fill="#d8b359"/>
 <path d="m316 425v1l19 1v-1h-4v-1l8-2-23 2z" fill="#bf983b"/>
 <path d="m331 425v1h5l-5-1z" fill="#ebc474"/>
 <path d="m327 428v1h5l-5-1z" fill="#e5c8a9"/>
 <path d="m339 428v1h8l-8-1z" fill="#b29655"/>
 <path d="m347 428v1h9l-9-1z" fill="#e5c8a9"/>
</svg>
