<?xml version="1.0" encoding="UTF-8"?>
<svg viewBox="0 0 800 600" xmlns="http://www.w3.org/2000/svg">
 <path d="m398.33 48.333c-31.34 19.161-28.474 66.827-35 106.67l53.333 8.3333c-17.144-60.239-9.7107-81.127 21.667-101.67l-40-13.333z" fill="#784421"/>
 <path d="m400.5 55.5c-20.442-0.68026-34.517 73.254-30 91.5l37 3c-4.6318-58.973-37.772-25.071-7-94.5z" fill="#a05a2c"/>
 <path d="m383.43 136.69c343.08-81.82 329.39 433.88-1.8986 335-372.77 76.358-308.57-448.63 1.8986-335z" fill="#f60"/>
 <path d="m251.71 144.96c-99.343 53.863-117.42 214.41-51.856 288.42-96.059-65.364-78.748-265.56 51.856-288.42z" fill="#d45500"/>
 <path d="m320.2 142.48c-127.95 101.72-87.838 222.7-54.319 318.02-78.651-84.87-124.48-241.99 54.319-318.02z" fill="#d45500"/>
 <path d="m396.77 143.49c103.08 107.67 125.49 235.59 64.073 319.68 97.496-27.296 91.243-218.24-64.073-319.68z" fill="#d45500"/>
 <path d="m467.61 138.49c139.89 107.32 123.53 233.71 66.085 314.68 95.686-81.009 127.75-215.53-66.085-314.68z" fill="#d45500"/>
 <path d="m354.15 159.96c-24.343 117.2-22.416 226.08-13.522 301.75-31.059-75.364-45.415-148.89 13.522-301.75z" fill="#d45500"/>
</svg>
