<?xml version="1.0" encoding="UTF-8"?>
<svg width="204.75mm" height="149.26mm" version="1.1" viewBox="0 0 725.47839 528.87599" xmlns="http://www.w3.org/2000/svg">
 <defs>
  <linearGradient id="e" x1="-179.81" x2="-178.29" y1="633.65" y2="687.19" gradientUnits="userSpaceOnUse">
   <stop stop-color="#04534f" offset="0"/>
   <stop stop-color="#04534f" offset="1"/>
  </linearGradient>
  <linearGradient id="f" x1="-99.5" x2="-85.358" y1="561.43" y2="580.12" gradientUnits="userSpaceOnUse">
   <stop stop-color="#dabd8f" offset="0"/>
   <stop stop-color="#dcc194" offset=".073759"/>
   <stop stop-color="#d5b57d" offset=".20644"/>
   <stop stop-color="#dabd8f" offset=".45966"/>
   <stop stop-color="#d5b47a" offset=".73226"/>
   <stop stop-color="#e2cba2" offset=".9413"/>
   <stop stop-color="#e6d0a9" offset="1"/>
  </linearGradient>
  <linearGradient id="g" x1="-183.6" x2="-158.59" y1="628.35" y2="538.19" gradientUnits="userSpaceOnUse">
   <stop stop-color="#04534f" offset="0"/>
   <stop stop-color="#033e33" offset=".061473"/>
   <stop stop-color="#033e33" offset=".18538"/>
   <stop stop-color="#033e33" offset=".41943"/>
   <stop stop-color="#04534f" offset="1"/>
  </linearGradient>
  <linearGradient id="h" x1="-117.68" x2="-134.6" y1="607.9" y2="583.9" gradientUnits="userSpaceOnUse">
   <stop stop-color="#04534f" offset="0"/>
   <stop stop-color="#033e33" offset=".045342"/>
   <stop stop-color="#033e33" offset=".26433"/>
   <stop stop-color="#033e33" offset=".52029"/>
   <stop stop-color="#04534f" offset="1"/>
  </linearGradient>
 </defs>
 <g transform="translate(359.03 -218.13)">
  <path d="m-128.54 579.61 475.02-357.59c15.278-11.378 27.938 4.684 13.859 16.609l-481.31 369.52-49.245 27.022-9.849-7.0711 46.972-38.386z" fill="url(#f)"/>
  <path d="m-126.33 578.68c-2.07-0.0263-4.3136 0.34521-6.707 1.1836l-30 24.465c-1.3474 1.0931-2.9128 2.1426-5 2.3223-8.0184 0.69012-15.537 5.9824-21.965 11.607-2.6715 2.3377-6.3066 4.5447-11.071 5.2787l-152.86-28.316c-7.0166 25.166-9.178 52.311 9.2852 87.857l3.0469 0.58789c0.55767-1.0138 0.92274-2.1426 0.70312-3.623-11.144-44.3-10.66-39.489-7.5996-63.5 0.10011-0.78558 0.71904-1.0423 1.4277-1.0606 0.23623-6e-3 0.48213 0.0153 0.71875 0.0508l10.102 1.5156c2.5804 0.38705 2.2842 1.5726 2.1465 2.5254-5.2769 36.497 5.432 49.964 12.947 68.031l4.5039 0.86914c0.77557-1.2009 1.3964-2.4949 1.125-4.3242-11.996-31.939-11.133-32.612-7.5996-63.5 0.09-0.7868 0.72099-1.0423 1.4297-1.0606 0.23624-6e-3 0.48018 0.0153 0.7168 0.0508l10.102 1.5156c2.5804 0.38706 2.2842 1.5726 2.1465 2.5254-5.3582 37.059 5.7606 50.382 13.287 68.879l4.127 0.79688c0.79373-1.2186 1.44-2.5267 1.1641-4.3867-11.996-31.939-11.133-32.612-7.5996-63.5 0.09-0.78679 0.71904-1.0403 1.4277-1.0586 0.23623-6e-3 0.48213 0.0133 0.71875 0.0488l10.102 1.5156c2.5804 0.38706 2.2842 1.5726 2.1465 2.5254-5.3654 37.109 5.7877 50.419 13.314 68.955l3.7383 0.7207c0.94229-1.3793 1.8402-2.785 1.5234-4.9199-11.996-31.939-11.133-32.612-7.5996-63.5 0.09-0.7868 0.72099-1.0423 1.4297-1.0606 0.23624-6e-3 0.48018 0.0153 0.7168 0.0508l10.102 1.5137c2.5804 0.38706 2.2842 1.5726 2.1465 2.5254-5.4284 37.544 6.0521 50.73 13.578 69.611l3.334 0.64258c0.99349-1.4506 1.9994-2.8936 1.666-5.1406-11.996-31.939-11.133-32.612-7.5996-63.5 0.09-0.7868 0.71904-1.0423 1.4277-1.0606 0.23623-6e-3 0.48213 0.0153 0.71875 0.0508l10.102 1.5156c2.5804 0.38706 2.2842 1.5726 2.1465 2.5254-5.4539 37.721 6.1603 50.852 13.684 69.877l3.084 0.59375c1.0375-1.5257 2.1584-3.001 1.8086-5.3594-11.996-31.939-11.133-32.612-7.5996-63.5 0.09-0.7868 0.72099-1.0423 1.4297-1.0606 0.23623-6e-3 0.48017 0.0153 0.71679 0.0508l10.102 1.5156c2.5804 0.38705 2.2842 1.5726 2.1465 2.5254-5.4795 37.898 6.2714 50.974 13.791 70.145l3.041 0.58593c1.0189-1.4918 2.0886-2.9528 1.7461-5.2617-11.996-31.939-11.133-32.612-7.5996-63.5 0.09-0.7868 0.71904-1.0423 1.4277-1.0606 0.23623-6e-3 0.48213 0.0153 0.71875 0.0508l10.102 1.5156c2.5804 0.38705 2.2842 1.5726 2.1465 2.5254-5.4681 37.819 6.2208 50.92 13.742 70.025l2.9453 0.56836c1.0589-1.57 2.2478-3.0615 1.8887-5.4824-11.996-31.939-11.133-32.612-7.5996-63.5 0.09-0.78679 0.72099-1.0403 1.4297-1.0586 0.23623-6e-3 0.48017 0.0133 0.71679 0.0488l10.102 1.5156c2.5804 0.38706 2.2842 1.5726 2.1465 2.5254-5.4939 37.998 6.3348 51.041 13.852 70.295l2.9024 0.55859c1.042-1.5346 2.176-3.0137 1.8242-5.3848-11.996-31.939-11.133-32.612-7.5996-63.5 0.09-0.78679 0.71903-1.0403 1.4277-1.0586 0.23623-6e-3 0.48213 0.0133 0.71875 0.0488l10.102 1.5156c2.5804 0.38706 2.2842 1.5726 2.1465 2.5254-5.4824 37.918 6.2838 50.987 13.803 70.174l2.6016 0.50195c1.1121-1.7408 2.564-3.2786 2.1719-5.9219-11.996-31.939-11.133-32.612-7.5996-63.5 0.09-0.78679 0.72099-1.0403 1.4297-1.0586 0.23623-6e-3 0.48017 0.0133 0.71679 0.0488l10.102 1.5156c2.5804 0.38706 2.2842 1.5726 2.1465 2.5254-5.5453 38.353 6.5628 51.276 14.066 70.83l2.4023 0.46289c1.1036-1.701 2.4942-3.2304 2.1094-5.8242-11.996-31.939-11.133-32.612-7.5996-63.5 0.09001-0.78679 0.71904-1.0403 1.4277-1.0586 0.23623-6e-3 0.48213 0.0133 0.71875 0.0488l10.102 1.5156c2.5804 0.38706 2.2842 1.5726 2.1465 2.5254-5.5338 38.274 6.5086 51.225 14.016 70.711l2.1035 0.40625c1.1239-1.9378 2.8824-3.494 2.457-6.3613-11.996-31.939-11.133-32.612-7.5996-63.5 0.09001-0.7868 0.72099-1.0423 1.4297-1.0606 0.23623-6e-3 0.48018 0.0153 0.7168 0.0508l10.102 1.5137c2.5804 0.38706 2.2842 1.5726 2.1465 2.5254-5.5943 38.692 6.7836 51.494 14.27 71.342l0.94168 0.22558 0.87082 0.14747c1.1218-1.967 2.926-3.5258 2.4961-6.4238-11.996-31.939-11.133-32.612-7.5996-63.5 0.09002-0.78679 0.71904-1.0403 1.4277-1.0586 0.23623-6e-3 0.48213 0.0133 0.71875 0.0488l10.102 1.5156c2.5804 0.38706 2.2842 1.5726 2.1465 2.5254-5.5943 38.692 9.8121 71.066 14.268 71.342l0.8131 0.18377 1.6049 0.37287c1.3267-1.009 2.3317-3.1602 1.5195-5.3574-8.8141-12.777-10.91-37.648-0.71484-84.643l-159.34-28.075c0.081-0.36269 0.0182-1.0254 0.95061-1.7475 4.8629-3.7659 9.5781-7.116 14.285-10.715 2.7024-2.0661 4.694-0.93719 5.8926 0.71484l6.6074 9.1074 32.143-22.5c2.581-13.174-3.5425-24.971-14.721-25.113z" fill="url(#e)"/>
  <path d="m-126.33 578.68c-2.07-0.0263-4.3136 0.34521-6.707 1.1836l-30 24.465c-1.3474 1.0931-2.9128 2.1426-5 2.3223-8.0184 0.69012-15.537 5.9824-21.965 11.607-2.6715 2.3377-6.3066 4.5447-11.071 5.2787l29.586 5.3965c0.081-0.36269 0.0182-1.0254 0.95061-1.7475 4.8629-3.7659 9.5781-7.116 14.285-10.715 2.7024-2.0661 4.694-0.93719 5.8926 0.71484l6.6074 9.1074 32.143-22.5c2.581-13.174-3.5425-24.971-14.721-25.113z" fill="url(#g)"/>
  <path d="m-126.33 578.68c-2.07-0.0263-4.3136 0.34521-6.707 1.1836l-30 24.465c-1.3474 1.0931-2.9128 2.1426-5 2.3223-8.0184 0.69012-15.537 5.9824-21.965 11.607-2.6715 2.3377-6.3066 4.5447-11.071 5.2787l29.586 5.3965c0.081-0.36269 0.0182-1.0254 0.95061-1.7475 4.8629-3.7659 9.5781-7.116 14.285-10.715 2.7024-2.0661 4.694-0.93719 5.8926 0.71484l6.6074 9.1074 32.143-22.5c2.581-13.174-3.5425-24.971-14.721-25.113z" fill="url(#h)"/>
  <path d="m-135.18 590.04a1.6071 0.71429 0 0 1 -1.6071 0.71429 1.6071 0.71429 0 0 1 -1.6071 -0.71429 1.6071 0.71429 0 0 1 1.6071 -0.71428 1.6071 0.71429 0 0 1 1.6071 0.71428z" fill="#a2b9b4"/>
  <g transform="matrix(1.2874 -.95837 .37204 .49979 0 0)" fill="#836c45" stroke-width="1px">
   <path d="m-197.25 626.41h-0.0164q0.0274 0.011 0.0603 0.0274 0.0329 0.011 0.0713 0.0219h0.0219q0.0274 0.0713 0.0548 0.13706 0 0.12609-0.17544 0.23574-0.16996 0.10965-0.48794 0.20285-0.23026 0.0603-0.46601 0.0987-0.23026 0.0329-0.42215 0.0329-0.42215 0-0.75658-0.14254-0.32894-0.14803-0.55921-0.4057-0.23026-0.25768-0.35636-0.60855-0.12061-0.35088-0.12061-0.76207 0-0.37829 0.12061-0.71272 0.1261-0.33443 0.35088-0.58662t0.53728-0.4057q0.31798-0.15351 0.70175-0.18092 0.1261-5e-3 0.2522 0.011 0.12609 0.0164 0.23574 0.0384 0.10965 0.0165 0.19189 0.0274 0.0822 5e-3 0.11513-0.0164 0.0384-0.0274 0.0877-0.0603 0.0548-0.0384 0.1261-0.0384t0.13158 0.10417q0.0658 0.0987 0.13157 0.26864 0.0713 0.17544 0.0987 0.27412 0.0274 0.0932 0.0219 0.14803-5e-3 0.0439-0.0384 0.0822-0.0274 0.0384-0.0713 0.0603-0.0384 0.0219-0.0822 0.0219-0.0439-5e-3 -0.0713-0.0384-0.0439-0.0493-0.0713-0.0713-0.0274-0.0274-0.0548-0.0439-0.0219-0.0164-0.0493-0.0329-0.0274-0.0219-0.0658-0.0658-0.14254-0.14255-0.34539-0.20834-0.20285-0.0713-0.41119-0.0713-0.26315 0-0.44956 0.15899-0.18092 0.15351-0.29605 0.38926-0.10965 0.23026-0.16447 0.50438-0.0493 0.26865-0.0493 0.49891 0 0.29605 0.0548 0.55921t0.18092 0.46053q0.13158 0.19736 0.33991 0.3125 0.20833 0.11513 0.52083 0.11513 0.15351 0 0.2522-0.0274 0.0493-0.0274 0.0877-0.0768 0.0439-0.0493 0.0439-0.10965v-0.61952q0-0.16447-0.14803-0.21381-0.21382-0.0658-0.21382-0.17544 0-0.0768 0.0713-0.10965 0.0713-0.0329 0.16995-0.0329h0.99233q0.0987 0 0.16995 0.0329 0.0713 0.0329 0.0713 0.10965 0 0.0767-0.18641 0.16996-0.0603 0.0384-0.0987 0.0932t-0.0384 0.12609v0.49342z"/>
   <path d="m-194.79 627.16q-0.15351 0-0.15351-0.14803 0-0.0877 0.11514-0.13157 0.12609-0.0439 0.19736-0.10965 0.0713-0.0713 0.0439-0.14803l-0.16447-0.52632q-0.0822-0.0219-0.15899-0.0274-0.0713-0.011-0.16996-5e-3 -0.10965 0.0274-0.21929 0.0329-0.10965 0-0.18641-0.0274-0.0877-0.0274-0.12061-0.0713-0.0329-0.0493-0.0329-0.10965 0-0.11513 0.0822-0.15351 0.0877-0.0384 0.25219-0.0384 0.0877 0 0.19737 5e-3 0.11513 0 0.16447-0.0493-0.011-0.0658-0.0658-0.23027-0.0494-0.16995-0.11514-0.35636-0.0658-0.1864-0.12609-0.34539-0.0603-0.15899-0.0822-0.20834-0.0713 0.14255-0.16996 0.42215-0.0987 0.27413-0.23574 0.66886-0.15899 0.4386-0.23026 0.70724-0.0658 0.26864-0.0658 0.36732 0 0.13707 0.14802 0.19189 0.14803 0.0548 0.14803 0.14254 0 0.14803-0.15351 0.14803h-0.89364q-0.0768 0-0.0932-0.0384-0.011-0.0439-0.011-0.12061 0.14803-0.11513 0.27413-0.22478 0.12609-0.10965 0.16995-0.2193 0.26316-0.7511 0.49342-1.4967 0.23575-0.74561 0.48794-1.5077 0.0384-0.0932 0.12062-0.14254 0.0877-0.0548 0.1864-0.0548 0.11513 0 0.24123 0.0439 0.12609 0.0439 0.16447 0.13157 0.26316 0.7511 0.52632 1.4967 0.26315 0.74013 0.52631 1.4912 0.0274 0.0822 0.10965 0.14255 0.0822 0.0548 0.23026 0.16447 0.0768 0.0548 0.13707 0.0987 0.0603 0.0439 0.0603 0.0877 0 0.14803-0.14802 0.14803h-1.4803z"/>
   <path d="m-190.3 627.16q-0.21929 0-0.75109-0.77851-0.52632-0.77851-0.52632-1.0197 0-0.0822 0.37829-0.24123 0.19189-0.0768 0.27961-0.24671 0.0932-0.17544 0.0932-0.42215 0-0.12062-0.0329-0.24123-0.0274-0.12061-0.0932-0.2193-0.0658-0.0987-0.16447-0.15899-0.0987-0.0603-0.23575-0.0658-0.0822 0-0.16995 0.0219-0.0822 0.0219-0.15351 0.0658-0.0658 0.0384-0.11513 0.0987-0.0439 0.0603-0.0439 0.13707v2.5658q0 0.14802 0.16995 0.20285 0.16996 0.0548 0.16996 0.1535 0 0.14803-0.13706 0.14803h-1.2884q-0.13706 0-0.13706-0.14803 0-0.0932 0.16995-0.14802 0.17544-0.0548 0.17544-0.20833v-2.5658q0-0.0987-0.16447-0.14803-0.15899-0.0493-0.15899-0.16447 0-0.0713 0.10416-0.1261 0.10965-0.0603 0.27413-0.10417 0.16995-0.0493 0.3728-0.0822 0.20286-0.0384 0.38378-0.0603 0.1864-0.0219 0.32894-0.0329 0.14803-0.011 0.20285-0.011 0.25768 0 0.50987 0.0603 0.25768 0.0603 0.46053 0.19188 0.20285 0.1261 0.32895 0.32895 0.12609 0.20285 0.12609 0.48246 0 0.19188-0.0658 0.32894-0.0603 0.13158-0.16447 0.24123-0.10417 0.10417-0.24671 0.19737-0.13706 0.0932-0.29057 0.20285 0.0548 0.19189 0.18092 0.41667 0.1261 0.22478 0.30154 0.44956 0.19188 0.23026 0.38377 0.37829 0.19737 0.14802 0.36184 0.25767 0.0658 0.0494 0.0713 0.0987 0.011 0.0439-0.0164 0.0822-0.0274 0.0329-0.0768 0.0603-0.0493 0.0219-0.0932 0.0219h-0.70176z"/>
   <path d="m-187.78 627.19q-0.3728 0-0.82236-0.0822-0.625-0.11513-0.625-0.31798 0-0.0384 0.12609-0.13158 0.1261-0.0932 0.1261-0.23575v-2.3849q0-0.0987-0.16448-0.14803-0.15899-0.0493-0.15899-0.16447 0-0.19189 0.68531-0.31799 0.5318-0.0987 0.89364-0.0987 0.97588 0 1.5132 0.4989 0.54276 0.49342 0.54276 1.4638 0 0.9046-0.61403 1.4254-0.58114 0.49342-1.5022 0.49342zm0.14255-3.4923q-0.18092 0-0.32895 0.0877-0.14254 0.0822-0.13706 0.2522v2.4342q-5e-3 0.15351 0.15899 0.23574 0.13158 0.0658 0.30153 0.0658 0.54825 0 0.84979-0.46052 0.25767-0.39474 0.25767-0.97588 0-0.66338-0.2193-1.0855-0.28508-0.55373-0.88267-0.55373z"/>
   <path d="m-182.78 627.04q-0.0164 0.0658-0.0932 0.0932-0.0768 0.0219-0.12061 0.0219h-2.3629q-0.13706 0-0.13706-0.14254 0-0.0877 0.16995-0.14255 0.16996-0.0548 0.16996-0.21929v-2.7906q0-0.1535-0.16996-0.20833-0.16995-0.0548-0.16995-0.15351 0-0.14254 0.13706-0.14254h2.2423q0.13707 0 0.20286 0.0822 0.0658 0.0767 0.12609 0.21381 0.0384 0.0768 0.0603 0.15351 0.0219 0.0768 0.0219 0.13706-0.0164 0.0165-0.0274 0.0493-5e-3 0.0274-0.0219 0.0548-0.011 0.0274-0.0329 0.0384t-0.0603-0.0164q-0.0493-0.0329-0.11513-0.0713-0.0603-0.0439-0.12061-0.0822-0.0603-0.0384-0.10965-0.0713-0.0493-0.0329-0.0713-0.0493-0.0713-0.0439-0.24671-0.0658-0.16996-0.0219-0.42215-0.0219-0.19737 0-0.27412 0.0548-0.0768 0.0493-0.0768 0.14803 0 0.27412 0 0.41118t0 0.19737q0 0.0603 0 0.0713 0 5e-3 0 0.0165 0 0.0548 0.0219 0.0877 0.0219 0.0274 0.0548 0.0439 0.0384 0.011 0.0768 0.0164 0.0384 0 0.0713 0t0.0822 0q0.0493-5e-3 0.10417-0.011 0.0548-5e-3 0.10416-5e-3 0.0548-5e-3 0.0877-5e-3 0.14803 0 0.24123 0.0548 0.0987 0.0493 0.0987 0.1864 0 0.13706-0.0987 0.18641-0.0932 0.0493-0.26316 0.0493-0.0768 0-0.17544-0.011-0.0987-0.011-0.18092-0.011-0.0767 0-0.15351 0.0329-0.0713 0.0329-0.0713 0.13707v1.2006q0 0.1261 0.0384 0.15899 0.0384 0.0329 0.16995 0.0384 0.0658 5e-3 0.19189 5e-3 0.1261 0 0.25219 0 0.13158 0 0.23575 0 0.10965-5e-3 0.14254-5e-3 0.0439 0.0274 0.13158-0.0329 0.0877-0.0603 0.18092-0.14255 0.0987-0.0877 0.17544-0.15899 0.0822-0.0767 0.10965-0.0767 0.0603 0 0.0987 0.0329 0.0439 0.0274 0.0439 0.0877 0 0.0384-0.0329 0.1261-0.0329 0.0822-0.0767 0.17544-0.0439 0.0877-0.0877 0.16995-0.0439 0.0768-0.0713 0.10417z"/>
   <path d="m-179.17 623.86q0 0.24672 5e-3 0.58114 5e-3 0.32895 0.011 0.68531 5e-3 0.35636 5e-3 0.70724 5e-3 0.34539 0 0.625-5e-3 0.2796-0.0219 0.46053-0.011 0.17543-0.0384 0.1864-0.0329 0.0329-0.0877 0.0493-0.0493 0.0219-0.10965 0.0219-0.0548 5e-3 -0.10964-0.011-0.0493-0.0164-0.0822-0.0603-0.2193-0.29605-0.45505-0.61404-0.23026-0.32346-0.48245-0.64693-0.24671-0.32346-0.50987-0.64144-0.26316-0.32347-0.5318-0.625l-5e-3 2.0724q0 0.14802 0.16996 0.20285 0.16995 0.0548 0.16995 0.1535 0 0.14803-0.13706 0.14803h-0.87719q-0.13706 0-0.13706-0.14803 0-0.0932 0.16995-0.14802 0.16996-0.0548 0.16996-0.20833v-2.7906q0-0.1535-0.16996-0.20833-0.16995-0.0548-0.16995-0.15351 0-0.14802 0.13706-0.14802h0.75658q0.0493 0 0.16995 0.13158 0.1261 0.12609 0.29057 0.32894 0.16448 0.19737 0.35636 0.44956 0.19737 0.2522 0.38377 0.49891 0.19189 0.24123 0.36185 0.45504 0.16995 0.21382 0.29605 0.3454 0-5e-3 0-0.0164 5e-3 -0.0165 0-0.0658 0-0.0493 0-0.15351 0-0.10417-5e-3 -0.29057 0-0.1864 0-0.47149 5e-3 -0.28509 5e-3 -0.70176 0-0.14254-0.22478-0.22478-0.10965-0.0439-0.10965-0.13158 0-0.14802 0.13706-0.14802h0.86623q0.14254 0 0.14254 0.14802 0 0.0932-0.16995 0.14803-0.16996 0.0548-0.16996 0.20833z"/>
  </g>
  <g transform="matrix(1.2874 -.95837 .37204 .49979 0 0)" fill="#836c45" stroke-width="1px">
   <path d="m36.043 622.66h-0.01645q0.02741 0.011 0.06031 0.0274 0.03289 0.011 0.07127 0.0219h0.02193q0.02741 0.0713 0.05482 0.13706 0 0.1261-0.17544 0.23575-0.16996 0.10964-0.48794 0.20285-0.23026 0.0603-0.46601 0.0987-0.23026 0.0329-0.42215 0.0329-0.42215 0-0.75658-0.14255-0.32895-0.14802-0.55921-0.4057t-0.35636-0.60855q-0.12061-0.35088-0.12061-0.76206 0-0.37829 0.12061-0.71272 0.1261-0.33443 0.35088-0.58663 0.22478-0.25219 0.53728-0.4057 0.31798-0.15351 0.70175-0.18092 0.1261-5e-3 0.25219 0.011 0.1261 0.0164 0.23575 0.0384 0.10965 0.0164 0.19189 0.0274 0.08224 5e-3 0.11513-0.0164 0.03838-0.0274 0.08772-0.0603 0.05482-0.0384 0.1261-0.0384 0.07127 0 0.13158 0.10417 0.06579 0.0987 0.13158 0.26864 0.07127 0.17544 0.09868 0.27412 0.02741 0.0932 0.02193 0.14803-0.0055 0.0439-0.03838 0.0822-0.02741 0.0384-0.07127 0.0603-0.03838 0.0219-0.08224 0.0219-0.04386-5e-3 -0.07127-0.0384-0.04386-0.0494-0.07127-0.0713-0.02741-0.0274-0.05482-0.0439-0.02193-0.0164-0.04934-0.0329-0.02741-0.0219-0.06579-0.0658-0.14254-0.14254-0.3454-0.20833-0.20285-0.0713-0.41118-0.0713-0.26316 0-0.44956 0.159-0.18092 0.1535-0.29605 0.38925-0.10965 0.23026-0.16447 0.50439-0.04934 0.26864-0.04934 0.4989 0 0.29605 0.05483 0.55921 0.05482 0.26316 0.18092 0.46053 0.13158 0.19737 0.33991 0.3125t0.52083 0.11513q0.15351 0 0.25219-0.0274 0.04934-0.0274 0.08772-0.0768 0.04386-0.0493 0.04386-0.10965v-0.61951q0-0.16448-0.14803-0.21382-0.21382-0.0658-0.21382-0.17544 0-0.0767 0.07127-0.10965 0.07127-0.0329 0.16996-0.0329h0.99232q0.09868 0 0.16996 0.0329 0.07127 0.0329 0.07127 0.10965 0 0.0768-0.1864 0.16996-0.06031 0.0384-0.09868 0.0932-0.03838 0.0548-0.03838 0.1261v0.49342z"/>
   <path d="m38.504 623.41q-0.15351 0-0.15351-0.14802 0-0.0877 0.11513-0.13158 0.1261-0.0439 0.19737-0.10965 0.07127-0.0713 0.04386-0.14803l-0.16447-0.52631q-0.08224-0.0219-0.15899-0.0274-0.07127-0.011-0.16996-5e-3 -0.10965 0.0274-0.2193 0.0329-0.10965 0-0.1864-0.0274-0.08772-0.0274-0.12061-0.0713-0.03289-0.0493-0.03289-0.10965 0-0.11513 0.08224-0.15351 0.08772-0.0384 0.25219-0.0384 0.08772 0 0.19737 5e-3 0.11513 0 0.16447-0.0493-0.01096-0.0658-0.06579-0.23027-0.04934-0.16995-0.11513-0.35636-0.06579-0.1864-0.1261-0.34539t-0.08224-0.20833q-0.07127 0.14254-0.16996 0.42215-0.09868 0.27412-0.23575 0.66886-0.15899 0.43859-0.23026 0.70723-0.06579 0.26864-0.06579 0.36733 0 0.13706 0.14803 0.19188 0.14803 0.0548 0.14803 0.14255 0 0.14802-0.15351 0.14802h-0.89364q-0.07675 0-0.0932-0.0384-0.01096-0.0439-0.01096-0.12062 0.14803-0.11513 0.27412-0.22478 0.1261-0.10965 0.16996-0.2193 0.26316-0.75109 0.49342-1.4967 0.23575-0.74561 0.48794-1.5077 0.03838-0.0932 0.12061-0.14255 0.08772-0.0548 0.1864-0.0548 0.11513 0 0.24123 0.0439t0.16447 0.13158q0.26316 0.75109 0.52632 1.4967 0.26316 0.74013 0.52632 1.4912 0.02741 0.0822 0.10965 0.14254 0.08224 0.0548 0.23026 0.16447 0.07675 0.0548 0.13706 0.0987t0.06031 0.0877q0 0.14802-0.14803 0.14802h-1.4803z"/>
   <path d="m42.989 623.41q-0.2193 0-0.7511-0.77851-0.52632-0.7785-0.52632-1.0197 0-0.0822 0.37829-0.24123 0.19189-0.0768 0.2796-0.24671 0.0932-0.17544 0.0932-0.42215 0-0.12061-0.0329-0.24123-0.02741-0.12061-0.0932-0.2193-0.06579-0.0987-0.16447-0.15899-0.09868-0.0603-0.23575-0.0658-0.08224 0-0.16996 0.0219-0.08224 0.0219-0.15351 0.0658-0.06579 0.0384-0.11513 0.0987-0.04386 0.0603-0.04386 0.13706v2.5658q0 0.14802 0.16996 0.20285 0.16996 0.0548 0.16996 0.15351 0 0.14802-0.13706 0.14802h-1.2884q-0.13706 0-0.13706-0.14802 0-0.0932 0.16996-0.14803 0.17544-0.0548 0.17544-0.20833v-2.5658q0-0.0987-0.16447-0.14803-0.15899-0.0493-0.15899-0.16447 0-0.0713 0.10417-0.1261 0.10965-0.0603 0.27412-0.10417 0.16996-0.0493 0.37281-0.0822 0.20285-0.0384 0.38377-0.0603 0.1864-0.0219 0.32895-0.0329 0.14803-0.011 0.20285-0.011 0.25768 0 0.50987 0.0603 0.25768 0.0603 0.46053 0.19188 0.20285 0.1261 0.32895 0.32895t0.1261 0.48246q0 0.19188-0.06579 0.32894-0.06031 0.13158-0.16447 0.24123-0.10417 0.10417-0.24671 0.19737-0.13706 0.0932-0.29057 0.20285 0.05482 0.19189 0.18092 0.41667t0.30154 0.44956q0.19189 0.23026 0.38377 0.37829 0.19737 0.14803 0.36184 0.25767 0.06579 0.0493 0.07127 0.0987 0.01096 0.0439-0.01645 0.0822-0.02741 0.0329-0.07675 0.0603-0.04934 0.0219-0.0932 0.0219h-0.70175z"/>
   <path d="m45.511 623.45q-0.37281 0-0.82237-0.0822-0.625-0.11513-0.625-0.31798 0-0.0384 0.1261-0.13158 0.1261-0.0932 0.1261-0.23574v-2.3849q0-0.0987-0.16447-0.14803-0.15899-0.0493-0.15899-0.16447 0-0.19189 0.68531-0.31799 0.5318-0.0987 0.89364-0.0987 0.97588 0 1.5132 0.4989 0.54276 0.49343 0.54276 1.4638 0 0.90461-0.61404 1.4254-0.58114 0.49342-1.5022 0.49342zm0.14254-3.4923q-0.18092 0-0.32895 0.0877-0.14254 0.0822-0.13706 0.2522v2.4342q-0.0055 0.15351 0.15899 0.23574 0.13158 0.0658 0.30154 0.0658 0.54824 0 0.84978-0.46052 0.25768-0.39474 0.25768-0.97588 0-0.66338-0.2193-1.0855-0.28509-0.55372-0.88268-0.55372z"/>
   <path d="m50.511 623.29q-0.01645 0.0658-0.0932 0.0932-0.07675 0.0219-0.12061 0.0219h-2.3629q-0.13706 0-0.13706-0.14254 0-0.0877 0.16996-0.14254 0.16996-0.0548 0.16996-0.2193v-2.7906q0-0.15351-0.16996-0.20834-0.16996-0.0548-0.16996-0.15351 0-0.14254 0.13706-0.14254h2.2423q0.13706 0 0.20285 0.0822 0.06579 0.0768 0.1261 0.21381 0.03838 0.0768 0.06031 0.15351 0.02193 0.0768 0.02193 0.13706-0.01645 0.0164-0.02741 0.0494-0.0055 0.0274-0.02193 0.0548-0.01096 0.0274-0.03289 0.0384t-0.06031-0.0164q-0.04934-0.0329-0.11513-0.0713-0.06031-0.0439-0.12061-0.0822-0.06031-0.0384-0.10965-0.0713t-0.07127-0.0493q-0.07127-0.0439-0.24671-0.0658-0.16996-0.0219-0.42215-0.0219-0.19737 0-0.27412 0.0548-0.07675 0.0493-0.07675 0.14803 0 0.27412 0 0.41118t0 0.19737q0 0.0603 0 0.0713 0 5e-3 0 0.0164 0 0.0548 0.02193 0.0877 0.02193 0.0274 0.05483 0.0439 0.03838 0.011 0.07675 0.0164 0.03838 0 0.07127 0t0.08224 0q0.04934-5e-3 0.10417-0.011 0.05482-5e-3 0.10417-5e-3 0.05483-5e-3 0.08772-5e-3 0.14803 0 0.24123 0.0548 0.09868 0.0493 0.09868 0.18641 0 0.13706-0.09868 0.1864-0.0932 0.0493-0.26316 0.0493-0.07675 0-0.17544-0.011-0.09868-0.011-0.18092-0.011-0.07675 0-0.15351 0.0329-0.07127 0.0329-0.07127 0.13706v1.2006q0 0.1261 0.03838 0.159t0.16996 0.0384q0.06579 5e-3 0.19189 5e-3t0.25219 0q0.13158 0 0.23574 0 0.10965-5e-3 0.14254-5e-3 0.04386 0.0274 0.13158-0.0329t0.18092-0.14255q0.09868-0.0877 0.17544-0.15899 0.08224-0.0768 0.10965-0.0768 0.06031 0 0.09868 0.0329 0.04386 0.0274 0.04386 0.0877 0 0.0384-0.03289 0.1261-0.0329 0.0822-0.07675 0.17544-0.04386 0.0877-0.08772 0.16995-0.04386 0.0768-0.07127 0.10417z"/>
   <path d="m54.118 620.11q0 0.24671 0.0055 0.58114 0.0055 0.32894 0.01096 0.6853 0.0055 0.35636 0.0055 0.70724 0.0055 0.3454 0 0.625-0.0055 0.27961-0.02193 0.46053-0.01096 0.17544-0.03838 0.1864-0.0329 0.0329-0.08772 0.0493-0.04934 0.0219-0.10965 0.0219-0.05482 5e-3 -0.10965-0.011-0.04934-0.0164-0.08224-0.0603-0.2193-0.29605-0.45504-0.61403-0.23026-0.32347-0.48246-0.64693-0.24671-0.32347-0.50987-0.64145-0.26316-0.32347-0.5318-0.625l-0.0055 2.0724q0 0.14802 0.16996 0.20285 0.16996 0.0548 0.16996 0.15351 0 0.14802-0.13706 0.14802h-0.87719q-0.13706 0-0.13706-0.14802 0-0.0932 0.16996-0.14803 0.16996-0.0548 0.16996-0.20833v-2.7906q0-0.15351-0.16996-0.20834-0.16996-0.0548-0.16996-0.15351 0-0.14802 0.13706-0.14802h0.75658q0.04934 0 0.16996 0.13158 0.1261 0.12609 0.29057 0.32894 0.16447 0.19737 0.35636 0.44957 0.19737 0.25219 0.38377 0.4989 0.19189 0.24123 0.36184 0.45504 0.16996 0.21382 0.29605 0.3454 0-5e-3 0-0.0164 0.0055-0.0164 0-0.0658 0-0.0493 0-0.15351 0-0.10416-0.0055-0.29057 0-0.1864 0-0.47149 0.0055-0.28509 0.0055-0.70175 0-0.14255-0.22478-0.22478-0.10965-0.0439-0.10965-0.13158 0-0.14803 0.13706-0.14803h0.86623q0.14254 0 0.14254 0.14803 0 0.0932-0.16996 0.14802-0.16996 0.0548-0.16996 0.20834z"/>
  </g>
 </g>
</svg>
