<?xml version="1.0" encoding="UTF-8"?>
<svg viewBox="0 0 318.42667 304" xmlns="http://www.w3.org/2000/svg">
 <defs>
  <linearGradient id="a" x1="291.08" x2="296.73" y1="193.07" y2="218.71" gradientUnits="userSpaceOnUse">
   <stop stop-color="#f4d000 icc-color(Fogra27L-CMYK-Coated-Press, 0.05, 0.12, 1, 0.03)" offset="0"/>
   <stop stop-color="#f4d000" offset=".8086"/>
   <stop stop-color="#eaa000 icc-color(Fogra27L-CMYK-Coated-Press, 0.05, 0.40000001, 1, 0.03)" offset="1"/>
  </linearGradient>
 </defs>
 <g transform="matrix(2.4885 0 0 2.4885 -583.29 -376.88)">
  <path d="m274.14 197.48c-9.0271-22.456-22.984-15.732-30.57-12.524-3.2464 1.3731-3.1557 4.1286-1.1834 7.7904-3.1282 0.18463-15.096 19.106 1.0848 15.975 0.80282 12.463 8.1062 14.349 11.735 5.0293 11.665 4.3584-0.97797-24.977 14.595-14.595z" fill="#eaa000 icc-color(Fogra27L-CMYK-Coated-Press, 0.05, 0.40000001, 1, 0.03)"/>
  <path d="m246.93 190.08c-6.1684 4.0463-3.5589 12.79-5.5223 13.313-4.2161 1.1229-2.5026-9.2882 5.5223-13.313z" fill="#c44615 icc-color(Fogra27L-CMYK-Coated-Press, 0.0130312, 0.78667885, 0.97860688, 0.19834711)"/>
  <path d="m262.71 185.47c-6.5884-3.3189-12.856 3.3128-14.29 1.8739-3.0802-3.0901 6.7925-6.8114 14.29-1.8739z" fill="#c44615 icc-color(Fogra27L-CMYK-Coated-Press, 0.0130312, 0.78667885, 0.97860688, 0.19834711)"/>
  <path d="m247.73 202.04c-3.3189 6.5884 3.3128 12.856 1.8739 14.29-3.0898 3.0805-6.8114-6.7925-1.8739-14.29z" fill="#c44615 icc-color(Fogra27L-CMYK-Coated-Press, 0.0130312, 0.78667885, 0.97860688, 0.19834711)"/>
  <path d="m258.67 192.02c-7.0055 2.3119-5.3753 7.3698-7.3992 7.1895-2.2922-0.20423-1.394-5.379 7.3992-7.1895z" fill="#c44615 icc-color(Fogra27L-CMYK-Coated-Press, 0.0130312, 0.78667885, 0.97860688, 0.19834711)"/>
  <path d="m269.54 194.15c-5.5049-4.911-9.0701-0.97024-9.9259-2.8131-0.96922-2.0872 3.9614-3.8968 9.9259 2.8131z" fill="#c44615 icc-color(Fogra27L-CMYK-Coated-Press, 0.0130312, 0.78667885, 0.97860688, 0.19834711)"/>
  <path d="m252.55 207.34c1.6363 1.4708 3.4996 2.6313 6.9029 1.5778-2.9449 2.5509-5.5356 2.6883-6.9029-1.5778z" fill="#c44615 icc-color(Fogra27L-CMYK-Coated-Press, 0.0130312, 0.78667885, 0.97860688, 0.19834711)"/>
  <path d="m266.37 246.55c1.9485-9.4168 5.9441-14.091 11.505-20.291-6.0866-3.6854-10.566-11.455-10.931-18.612-0.30327-5.9383 1.3967-13.965 13.581-14.51 9.072-0.40589 16.277 2.6251 22.374-3.2651 7.5128-7.2582 11.057-21.409 32.225-27.974 7.496-2.3247 25.247 1.4059 26.401 13.127 0.34802 3.5334-6.6429 0.12654-6.7032 1.6975-0.13758 3.587 3.2767 6.5586 3.3127 11.394 0.0817 10.967-5.6038 18.151-15.759 17.433-8.6027-0.60865-5.5235-15.78-9.3438-17.851-2.5272-0.19694-4.553 5.2683-6.3819 11.105-0.77799 2.483-0.84878 3.825-0.30566 6.048 1.7235 7.0543-1.9773 11.768-6.4914 16.317 5.4934 7.9402 15.6 9.775 23.848 12.621l-11.575 12.621c-8.6308-5.3234-14.631-12.345-18.06-21.198-9.1473 5.094-19.515 6.5973-29.356 4.2535-4.4288 4.5452-3.4953 13.421-2.7195 25.242z" fill="#c44615 icc-color(Fogra27L-CMYK-Coated-Press, 0.0130312, 0.78667885, 0.97860688, 0.19834711)"/>
  <path d="m335.47 231.16-8.125 11.938c1.4899 1.1748 3.0897 2.2692 4.7812 3.3125l11.562-12.625c-2.6254-0.90606-5.4252-1.6943-8.2188-2.625zm-68.438 12.781c-0.2363 0.83719-0.46339 1.693-0.65625 2.625l15.625 8.1562c-0.17968-2.7379-0.37204-5.3139-0.5-7.7188l-14.469-3.0625z" fill="#000200 icc-color(Fogra27L-CMYK-Coated-Press, 1, 1, 1, 0.99710077)"/>
  <path d="m258.09 238.41c-0.86599-1.0521-5.7185 3.6158-4.9498 5.4801 18.107 41.304 90.375 39.421 98.995-12.551 0.60881-3.9189-5.2611-4.9589-7.7782-1.0607-21.667 34.218-70.504 28.593-86.267 8.1317z" fill="#e01c16 icc-color(Fogra27L-CMYK-Coated-Press, 0.00006104, 0.94995041, 0.99688716, 0.02415503)"/>
  <path d="m348.78 227.81c-1.5614-0.0125-3.305 0.76327-4.4062 2.4688-21.667 34.218-70.518 28.586-86.281 8.125-0.49722-0.60405-2.2867 0.69611-3.5938 2.25l0.6875 4.5625 3.9688-0.4375 0.0937 5.5625 6.4375-1.5938v8.5625l8.5938-4.8438 0.96875 11.562 7.9375-7.8438 3.1875 12.375 7.6875-10.969 6.0312 12.281 5.6562-13.344 8.0312 12.375 2.0312-14.219 9.7188 10.312 0.53125-14.562 9.2812 6.9688-1.25-11.938 9.8125 3.0312-4.2188-8.1562 8.3125-0.53125-2.3125-6.3438 6.2188-1c0.0699-0.37515 0.15564-0.74449 0.21875-1.125 0.34246-2.2044-1.3362-3.5152-3.3438-3.5312z" fill="#f4d000 icc-color(Fogra27L-CMYK-Coated-Press, 0.05, 0.12, 1, 0.03)"/>
  <path d="m303.91 188.84c-0.32489 0.35433-0.66093 0.70367-1 1.0312-6.0968 5.8902-13.303 2.8441-22.375 3.25-0.4529 0.0203-0.85688 0.0846-1.2812 0.125-0.72818 11.222-0.20579 23.543 15.219 26.344l2.3125 10.844c0.35606 1.4858 6.6433 0.66914 6.1875-0.9375l-3.2812-11.25c7.6108-3.2824 12.834-15 4.2188-29.406z" fill="url(#a)"/>
  <path d="m301.97 190.69c-5.2243 4.2186-11.264 2.6024-18.562 2.4375 0.0556 7.9887 2.2507 20.601 11.812 19.719 9.7031-0.89542 9.5895-13.933 6.75-22.156z" fill="#e01c16 icc-color(Fogra27L-CMYK-Coated-Press, 0.00006104, 0.94995041, 0.99688716, 0.02415503)"/>
  <path d="m281.24 194.36c0.5779 0 1.0431 0.46524 1.0431 1.0431s-0.46524 1.0431-1.0431 1.0431-1.0432-0.46524-1.0432-1.0431 0.46524-1.0431 1.0432-1.0431z" fill="#e01c16 icc-color(Fogra27L-CMYK-Coated-Press, 0.00006104, 0.94995041, 0.99688716, 0.02415503)"/>
  <path d="m281.54 198.66c0.5779 0 1.0432 0.46524 1.0432 1.0431s-0.46525 1.0432-1.0432 1.0432-1.0431-0.46525-1.0431-1.0432 0.46524-1.0431 1.0431-1.0431z" fill="#e01c16 icc-color(Fogra27L-CMYK-Coated-Press, 0.00006104, 0.94995041, 0.99688716, 0.02415503)"/>
  <path d="m281.96 202.39c0.5779 0 1.0431 0.46524 1.0431 1.0431s-0.46524 1.0431-1.0431 1.0431-1.0432-0.46524-1.0432-1.0431 0.46524-1.0431 1.0432-1.0431z" fill="#e01c16 icc-color(Fogra27L-CMYK-Coated-Press, 0.00006104, 0.94995041, 0.99688716, 0.02415503)"/>
  <path d="m282.88 206.39c0.5779 0 1.0431 0.46524 1.0431 1.0431s-0.46524 1.0431-1.0431 1.0431-1.0431-0.46524-1.0431-1.0431 0.46524-1.0431 1.0431-1.0431z" fill="#e01c16 icc-color(Fogra27L-CMYK-Coated-Press, 0.00006104, 0.94995041, 0.99688716, 0.02415503)"/>
  <path d="m296.58 214.62c0.57791 0 1.0432 0.46524 1.0432 1.0431s-0.46524 1.0432-1.0432 1.0432-1.0431-0.46524-1.0431-1.0432 0.46524-1.0431 1.0431-1.0431z" fill="#e01c16 icc-color(Fogra27L-CMYK-Coated-Press, 0.00006104, 0.94995041, 0.99688716, 0.02415503)"/>
  <path d="m292.29 214.42c0.5779 0 1.0431 0.46524 1.0431 1.0431s-0.46524 1.0431-1.0431 1.0431-1.0432-0.46524-1.0432-1.0431 0.46525-1.0431 1.0432-1.0431z" fill="#e01c16 icc-color(Fogra27L-CMYK-Coated-Press, 0.00006104, 0.94995041, 0.99688716, 0.02415503)"/>
  <path d="m287.99 212.35c0.5779 0 1.0431 0.46524 1.0431 1.0431s-0.46524 1.0431-1.0431 1.0431-1.0431-0.46524-1.0431-1.0431 0.46524-1.0431 1.0431-1.0431z" fill="#e01c16 icc-color(Fogra27L-CMYK-Coated-Press, 0.00006104, 0.94995041, 0.99688716, 0.02415503)"/>
  <path d="m284.78 209.73c0.5779 0 1.0431 0.46524 1.0431 1.0432s-0.46524 1.0431-1.0431 1.0431-1.0431-0.46524-1.0431-1.0431 0.46524-1.0432 1.0431-1.0432z" fill="#e01c16 icc-color(Fogra27L-CMYK-Coated-Press, 0.00006104, 0.94995041, 0.99688716, 0.02415503)"/>
  <path d="m300.68 212.64c0.5779 0 1.0431 0.46524 1.0431 1.0431s-0.46524 1.0432-1.0431 1.0432-1.0432-0.46525-1.0432-1.0432 0.46524-1.0431 1.0432-1.0431z" fill="#e01c16 icc-color(Fogra27L-CMYK-Coated-Press, 0.00006104, 0.94995041, 0.99688716, 0.02415503)"/>
  <path d="m303.47 209.43c0.57791 0 1.0432 0.46524 1.0432 1.0431s-0.46524 1.0432-1.0432 1.0432-1.0431-0.46525-1.0431-1.0432 0.46524-1.0431 1.0431-1.0431z" fill="#e01c16 icc-color(Fogra27L-CMYK-Coated-Press, 0.00006104, 0.94995041, 0.99688716, 0.02415503)"/>
  <path d="m305.17 205.73c0.5779 0 1.0431 0.46524 1.0431 1.0432s-0.46524 1.0431-1.0431 1.0431-1.0432-0.46524-1.0432-1.0431 0.46525-1.0432 1.0432-1.0432z" fill="#e01c16 icc-color(Fogra27L-CMYK-Coated-Press, 0.00006104, 0.94995041, 0.99688716, 0.02415503)"/>
  <path d="m305.77 201.73c0.5779 0 1.0431 0.46524 1.0431 1.0432s-0.46524 1.0431-1.0431 1.0431-1.0431-0.46524-1.0431-1.0431 0.46524-1.0432 1.0431-1.0432z" fill="#e01c16 icc-color(Fogra27L-CMYK-Coated-Press, 0.00006104, 0.94995041, 0.99688716, 0.02415503)"/>
  <path d="m305.57 197.73c0.5779 0 1.0431 0.46524 1.0431 1.0432s-0.46524 1.0431-1.0431 1.0431-1.0432-0.46524-1.0432-1.0431 0.46525-1.0432 1.0432-1.0432z" fill="#e01c16 icc-color(Fogra27L-CMYK-Coated-Press, 0.00006104, 0.94995041, 0.99688716, 0.02415503)"/>
  <path d="m305.08 194.22c0.5779 0 1.0431 0.46524 1.0431 1.0431s-0.46524 1.0432-1.0431 1.0432-1.0432-0.46525-1.0432-1.0432 0.46524-1.0431 1.0432-1.0431z" fill="#e01c16 icc-color(Fogra27L-CMYK-Coated-Press, 0.00006104, 0.94995041, 0.99688716, 0.02415503)"/>
  <path d="m303.7 190.52c0.5779 0 1.0432 0.46524 1.0432 1.0432s-0.46525 1.0431-1.0432 1.0431-1.0431-0.46524-1.0431-1.0431 0.46524-1.0432 1.0431-1.0432z" fill="#e01c16 icc-color(Fogra27L-CMYK-Coated-Press, 0.00006104, 0.94995041, 0.99688716, 0.02415503)"/>
  <path d="m343.35 162.94s5.8586-8.1177 9.1488-6.4362c1.3314 0.68045-2.75 8.5-2.75 8.5z" fill="#c44615 icc-color(Fogra27L-CMYK-Coated-Press, 0.0130312, 0.78667885, 0.97860688, 0.19834711)"/>
  <path d="m340.25 161.25c-1.9495-3e-3 -3.7195 0.22036-5.125 0.65625-14.488 4.4933-20.694 12.51-25.594 19.469-10.199 12.558 5.6153 19.187 6.4688 7.125 5.7038 4.7785 9.5268 4.1238 9.25-8.375 3.0364 3.0554 5.7868 4.0373 7.5-2.5l5.202 10.97-3.2576 1.8786c0.20663 0.67737 0.32376 1.368 0.44554 2.0595 5.6052-3.5495 16.126-5.2693 22.954-5.0015-0.21652-2.3404-0.52359-3.1115-1.3998-4.9682-4.7467 0.6687-10.901 1.249-16.006 4.3744l-5.6875-11.5c1.3512-3.6406 4.3789-6.1815 5.727-4.2829 1.7168 2.4179 3.8428 2.9935 5.9278 2.8378 3.9244-0.29318 6.1264 4.9236 7.4077 4.5702l0.90625-0.25c-0.0738-0.47064-0.11979-1.1485-0.15625-1.5938 0.0603-1.571 7.0668 1.8458 6.7188-1.6875-0.93804-9.5236-12.833-13.77-21.281-13.781z" fill="#eaa000 icc-color(Fogra27L-CMYK-Coated-Press, 0.05, 0.40000001, 1, 0.03)"/>
  <path d="m335 175.44-2.25 2.1875 5.1875 10.969-3.25 1.875c0.20663 0.67737 0.31572 1.371 0.4375 2.0625 5.6052-3.5495 16.141-5.2678 22.969-5-0.21652-2.3404-0.53009-3.1121-1.4062-4.9688-4.7467 0.6687-10.894 1.2496-16 4.375l-5.6875-11.5z" fill="#f4d000 icc-color(Fogra27L-CMYK-Coated-Press, 0.05, 0.12, 1, 0.03)"/>
  <path d="m339.89 186.01c1.552 0 2.8016 1.2496 2.8016 2.8016s-1.2496 2.8016-2.8016 2.8016-2.8016-1.2496-2.8016-2.8016 1.2496-2.8016 2.8016-2.8016z" fill="#000200 icc-color(Fogra27L-CMYK-Coated-Press, 1, 1, 1, 1)"/>
  <path d="m309.31 184.05c0.2934 2.4248 0.65158 6.1913 4.207 6.4533-6.3289 3.3659-5.3035-3.2095-4.207-6.4533z" fill="#c44615 icc-color(Fogra27L-CMYK-Coated-Press, 0.0130312, 0.78667885, 0.97860688, 0.19834711)"/>
  <path d="m325.68 169.93c0.2934 2.4248 0.65158 6.1913 4.207 6.4533-6.3289 3.3659-5.3035-3.2095-4.207-6.4533z" fill="#c44615 icc-color(Fogra27L-CMYK-Coated-Press, 0.0130312, 0.78667885, 0.97860688, 0.19834711)"/>
  <path d="m316.12 180.24c0.2934 2.4248 0.41476 5.5805 3.207 6.4533-4.8289 0.3034-4.3035-3.2095-3.207-6.4533z" fill="#c44615 icc-color(Fogra27L-CMYK-Coated-Press, 0.0130312, 0.78667885, 0.97860688, 0.19834711)"/>
  <path d="m321.76 181.54c-0.1464 1.471 0.24393 4.0465-1.8886 4.8016 4.0474 0.23911 3.0982-2.649 1.8886-4.8016z" fill="#c44615 icc-color(Fogra27L-CMYK-Coated-Press, 0.0130312, 0.78667885, 0.97860688, 0.19834711)"/>
  <path d="m342.93 163.9c1.0963 2.1827 2.7073 5.606 6.1417 4.65-4.8174 5.3082-6.0765-1.2265-6.1417-4.65z" fill="#c44615 icc-color(Fogra27L-CMYK-Coated-Press, 0.0130312, 0.78667885, 0.97860688, 0.19834711)"/>
  <path d="m349.07 168.55c2.28 0.87602 5.1253 2.2463 7.2037 0.18763-1.9431 4.2991-5.0435 2.3868-7.3614-0.0167-0.0593-0.0615 0.15769-0.1709 0.15769-0.1709z" fill="#c44615 icc-color(Fogra27L-CMYK-Coated-Press, 0.0130312, 0.78667885, 0.97860688, 0.19834711)"/>
  <path d="m341.72 167.22c0.43722 0.87057 1.0798 2.236 2.4496 1.8547-1.9214 2.1172-2.4236-0.4892-2.4496-1.8547z" fill="#c44615 icc-color(Fogra27L-CMYK-Coated-Press, 0.0130312, 0.78667885, 0.97860688, 0.19834711)"/>
  <path d="m340.25 174.25c0-0.0668 0.34911-2.8942 0.6116-6.501 1.9153-6.1817 0.87149-15.525-1.9866-15.499-3.2604 0.0293-3.8268 9.3388-2.3037 15.687 0.29518 3.4709 0.67758 6.1771 0.67873 6.3132z" fill="#c44615 icc-color(Fogra27L-CMYK-Coated-Press, 0.0130312, 0.78667885, 0.97860688, 0.19834711)"/>
  <path d="m340.84375,168.125-4.25.1875c.0907,1.0379.18954,1.78535.28125,2.625l3.71875-.0312c.0849-.88292.1672-1.68331.25-2.78125z" fill="#f4d000 icc-color(Fogra27L-CMYK-Coated-Press, 0.05, 0.12, 1, 0.03)"/>
  <path transform="matrix(.92055,-.39062,.39062,.92055,0,0)" d="m246.11 297.28a1.5625 1.9375 0 0 1 1.5625 1.9375 1.5625 1.9375 0 0 1 -1.5625 1.9375 1.5625 1.9375 0 0 1 -1.5625 -1.9375 1.5625 1.9375 0 0 1 1.5625 -1.9375" fill="#000200 icc-color(Fogra27L-CMYK-Coated-Press, 1, 1, 1, 1)"/>
  <path d="m335.89 197.09c0.13595 0.65277 0.24041 1.3158 0.41854 1.9699 2.0232 3.5469 5.896 5.8271 9.3177 6.4378 0.87188-0.0182 1.0223-0.12659 1.8073-0.31275l-0.0156-0.14062c-6.0015-0.7384-9.6614-3.8691-11.395-8.0078z"/>
  <path d="m339.89 186.25c1.42 0 2.5633 1.1432 2.5633 2.5633s-1.1432 2.5633-2.5633 2.5633-2.5633-1.1432-2.5633-2.5633 1.1432-2.5633 2.5633-2.5633z" fill="#e01c16 icc-color(Fogra27L-CMYK-Coated-Press, 0.00006104, 0.94995041, 0.99688716, 0.02415503)"/>
 </g>
</svg>
