<?xml version="1.0" encoding="UTF-8"?>
<svg enable-background="new 0 0 42.469 42.469" viewBox="0 0 42.469 42.469" xmlns="http://www.w3.org/2000/svg">
 <path d="m42.468 21.234a21.234 21.234 0 1 0 -42.468 0 21.234 21.234 0 1 0 42.468 0" fill="#03f"/>
 <path d="m29.999 8.867s-4.508-3.297-8.444-3.161-6.367 2.017-6.367 2.017l-2.172-3.937-4.615 9.909h10.994l-2.171-2.986s2.759-1.995 5.067-1.452 5.716 2.468 5.716 2.468l1.992-2.858z" fill="#fff"/>
 <path d="m5.526 20.975s-0.171 5.583 2.166 8.752 5.263 4.112 5.263 4.112l-2.02 4.017 10.782-1.794-6.214-9.068-1.236 3.479s-3.205-1.149-4.062-3.36-1.195-6.11-1.195-6.11l-3.484-0.028z" fill="#fff"/>
 <path d="m27.408 34.493s5.105-2.266 6.947-5.746c1.845-3.479 1.425-6.524 1.425-6.524l4.495 0.079-6.29-8.939-5.479 9.531 3.672-0.395s0.354 3.387-1.268 5.117-4.988 3.725-4.988 3.725l1.486 3.152z" fill="#fff"/>
</svg>
