<?xml version="1.0" encoding="UTF-8"?>
<svg viewBox="0 0 666.06451 680.10486" xmlns="http://www.w3.org/2000/svg">
 <g transform="translate(-20.074 -147.31)">
  <path d="m174.52 714.86 78.746 19.599 78.746 19.599s-7.825 17.83-7.0786 35.66 10.064 35.66 10.064 35.66-56.159 1.2717-105.18-11.742-90.889-40.314-90.889-40.314 17.468-8.9014 26.364-23.517 9.2215-34.946 9.2215-34.946z" fill="#7fff2a" stroke="#000" stroke-width="4"/>
  <g stroke="#000" stroke-width="4">
   <path d="m446.02 650.78c-61.787 42.218-56.3 20.604-123.38-5.474s-80.865-51.653-144.93-98.836-89.704-25.564-111.34-89.895-41.629-96.533 24.796-167.43 156.55-94.442 240.91-116.15 42.134-10.666 96.534 29.324 85.771 62.106 121.07 130.63 46.031 64.021 20.118 143.48-61.984 132.13-123.77 174.35z" fill="#008000"/>
   <path d="m548.12 602.37c-42.569 71.338-26.459 62.951-126.49 82.435s-184.02 56.768-273.65-4.4964-82.7-143.35-84.845-240.56 27.033-77.13 76.267-148.29 56.439-113.45 120.67-136.36 58.963 28.56 136.25 44.705 124.01-30.039 172.9 19.875 27.954 84.105 22.679 179.78-1.2116 131.58-43.78 202.92z" fill="#008000"/>
   <path d="m371.24 732.26c-52.098 31.433-16.627 35.333-95.382 9.2929s-160.13-65.452-219.64-113.45-24.421-11.881-18.41-78.546-15.827-112.08 42.455-188.12 110.15-101.6 190.68-116.01 59.998 14.099 131.42 58.36 133.8 40.673 154.27 118.68-26.031 115.91-72.378 193.35-60.912 85.005-113.01 116.44z" fill="#28c11e"/>
   <path d="m555.34 732.45c-83.132 32.108-137-29.123-237.31-66.739s-117.85-33.144-163.93-83.722-37.686-27.52-20.375-118.59 39.868-176.36 89.618-245.68 40.541-22.775 109.38-31.614 87.569-52.926 165.99-3.7394 109.73 111.76 147.69 200.49 26.917 67.028 4.1495 154.43-12.087 163.06-95.219 195.17z" fill="#0a0"/>
   <path d="m536.57 765.72c-67.379 37.557-74.838 37.158-161.65 14.903s-143.47-28.282-185.59-103.92 0.77169-118.63 17.118-198.65 1.9461-69.948 48.268-121.43 54.801-95.59 137.02-84.507 130.05 72.843 191.85 128.84 40.155 37.789 55.367 95.15 31.079 66.889 5.4822 134.29-40.491 97.767-107.87 135.32z" fill="#0f0"/>
   <path d="m386.61 742.97c-94.191-1.1369-96.953 8.5246-136.04-60.142s-15.428-116.72-20.321-214.53-45.121-117.56 0.74902-176.7 107-49.099 182.73-59.883 50.356-10.791 120.21 16.746 66.106 12.658 113.48 99.113 41.028 103.19 24.581 189.56-23.312 64.493-76.086 147.38c-53.613 84.205-115.1 59.589-209.29 58.452z" fill="#00d400"/>
   <path d="m451.94 784.41c-78.842 34.197-135.02 17.836-202.02-18.004s-35.79-49.88-65.974-125.35-69.726-111.34-54.761-176.54 40.166-48.547 114.62-84.263 104.76-61.292 183.2-58.601 96.916 7.9064 130.54 69.363 2.0295 116.81 3.9647 176.46 31.168 7.9076 3.7761 62.14-34.502 120.59-113.34 154.79z" fill="#37c837"/>
   <path d="m470.21 632.49c-17.212 40.834-91.739 113.28-132.04 137.43s-62.882 17.886-109.77 7.4313-104.78-24.861-131.56-53.02-50.504-43.247-51.954-90.215-20.744-172.14 3.2556-208.74 173.54-206.25 226.46-213.7 145.37 35.238 199.63 80.427c55.636 46.337 32.648 127.99 50.075 169.96s-36.876 129.6-54.088 170.43z" fill="#00d400"/>
  </g>
  <path d="m251.03 278.97c-35.038 5.0344-46.348 47.835-79.902 55.903-40.456 26.597-70.914 68.296-85.622 114.15-6.1633 44.048 10.62 88.866-2.1862 132.41-0.89828 25.593 2.4453 57.341 23.895 74.142-23.306-33.876-22.269-77.424-14.891-116.13 1.4093-40.803-15.911-86.685 10.426-123.02 21.37-38.343 53.192-70.907 92.289-90.976 18.749-15.37 34.085-35.236 55.99-46.483z" fill-rule="evenodd"/>
  <path d="m337.16 281.78c-32.547-1.1106-37.045 60.218-70.37 55.991-30.155-3.9393-48.222 32.992-63.752 59.263-30.577 40.888-15.902 101.53-34.248 148.79-14.996 54.204-13.75 113.68-6.0816 169.34 9.6718 22.439-2.2083-34.493-0.6198-43.338-4.0643-49.594 0.55426-100.43 16.766-146.28 8.0669-40.739 3.4839-86.7 24.632-122.27 10.876-21.15 25.325-39.275 41.595-54.072 28.982-5.4732 62.88-17.962 75.287-54.606 5.2344-4.9815 11.165-8.619 16.792-12.833z" fill-rule="evenodd"/>
  <path d="m416.25 299.16c-33.115 12.381-68.128 37.757-72.54 77.145-18.607 60.662-36.831 123.78-77.245 173.01-29.382 53.973-28.766 117.83-42.594 176.74 18.683-31.469 12.122-70.526 22.18-104.91 7.6515-42.173 28.08-80.536 54.29-113.01 31.941-55.904 35.107-125.66 71.221-178.94 13.975-11.52 33.889-14.212 44.69-30.04z" fill-rule="evenodd"/>
  <path d="m450 325.22c16.647 22.506 45.547 46.223 34.912 77.485-37.62 65.378-50.969 141.16-59.276 215.12-11.726 36.224-52.877 47.872-75.043 75.271 25.831-11.283 44.888-33.626 65.904-51.773 24.395-26.488 15.465-65.613 23.172-98.057 11.317-47.317 22.961-95.83 49.202-137.52 9.9108-32.133-13.36-63.536-38.871-80.531z" fill-rule="evenodd"/>
  <path d="m421.07 331.47c-13.197 37.823-5.3475 83.896-27.402 117.61-9.3162 48.973-28.149 95.252-55.514 133.16-23.166 47.581-35.052 101.43-45.293 154.75 18.008-35.146 14.013-79.984 33.187-114.8 13.012-37.514 34.349-69.529 52.615-103.1 10.012-41.283 25.021-80.529 36.19-120.67 3.1288-22.165 3.0995-44.777 6.2158-66.943z" fill-rule="evenodd"/>
  <path d="m372.88 248.09c-21.497 23.573-55.196 42.793-56.624 78.294-14.875 54.36-48.446 101.69-60.92 156.88-18.353 50.44-38.827 100.17-62.831 148.2 27.866-33.744 36.42-77.98 55.024-116.65 20.132-58.871 44.687-116.33 67.777-173.88 4.864-32.161 24.022-61.268 50.341-80.063 3.0096-3.8768 5.5725-8.1435 7.2332-12.777z" fill-rule="evenodd"/>
  <path d="m524.53 382.69c11.86 27.687 42.49 54 29.489 86.843-19.359 57.059-41.229 113.33-66.765 167.87-7.0698 31.455-26.326 64.195-29.773 93.607 17.811-36.202 26.76-76.363 42.892-113.45 22.618-52.907 47.83-105.59 58.943-162.46 4.958-28.479-18.912-51.753-34.787-72.409z" fill-rule="evenodd"/>
  <path d="m487.5 245.75c-1.6163 29.653 33.822 30.611 54.636 36.883 34.8 14.106 34.328 62.517 65.995 81.982 28.952 17.178 62.331 46.66 52.658 84.233-7.9637 44.509-40.114 80.053-48.906 124.3 17.165-37.682 36.601-74.539 51.304-113.21 10.995-33.234-5.4038-67.999-34.205-85.791-24.85-20.104-54.518-42.239-58.049-76.624-13.897-33.371-62.159-11.548-79.284-41.232-1.8535-3.3173-2.7396-7.0336-4.1488-10.538z" fill-rule="evenodd"/>
 </g>
</svg>
