<?xml version="1.0" encoding="UTF-8"?>
<svg width="318.95" height="265.68" enable-background="new 0 0 318.946 265.682" viewBox="0 0 318.946 265.682" xmlns="http://www.w3.org/2000/svg">
 <defs>
  <linearGradient id="i" x2="0" y1="265.72" y2=".01554" gradientUnits="userSpaceOnUse">
   <stop offset="0"/>
   <stop offset="1"/>
  </linearGradient>
  <linearGradient id="h" x2="0" y1=".0933" y2="68.216" gradientUnits="userSpaceOnUse">
   <stop stop-color="#908677" offset="0"/>
   <stop stop-color="#d3bda3" offset="1"/>
  </linearGradient>
  <linearGradient id="g" x2="0" y1="176" y2="52.785" gradientUnits="userSpaceOnUse">
   <stop stop-color="#908677" offset="0"/>
   <stop stop-color="#d3bda3" offset="1"/>
  </linearGradient>
  <linearGradient id="f" x2="0" y1="264.79" y2="89.065" gradientUnits="userSpaceOnUse">
   <stop stop-color="#5b5751" offset="0"/>
   <stop stop-color="#d3bda3" offset="1"/>
  </linearGradient>
  <linearGradient id="e" x2="0" y1="244.38" y2="143.92" gradientUnits="userSpaceOnUse">
   <stop stop-color="#5b5751" offset="0"/>
   <stop stop-color="#d3bda3" offset="1"/>
  </linearGradient>
  <linearGradient id="d" x2="0" y1="221.83" y2="145.67" gradientUnits="userSpaceOnUse">
   <stop stop-color="#5b5751" offset="0"/>
   <stop stop-color="#d3bda3" offset="1"/>
  </linearGradient>
  <linearGradient id="c" x2="0" y1="209.97" y2="150.34" gradientUnits="userSpaceOnUse">
   <stop stop-color="#5b5751" offset="0"/>
   <stop stop-color="#d3bda3" offset="1"/>
  </linearGradient>
  <linearGradient id="b" x2="0" y1="230.24" y2="190.05" gradientUnits="userSpaceOnUse">
   <stop stop-color="#5b5751" offset="0"/>
   <stop stop-color="#d3bda3" offset="1"/>
  </linearGradient>
  <linearGradient id="a" x2="0" y1="235.92" y2="215.76" gradientUnits="userSpaceOnUse">
   <stop stop-color="#5b5751" offset="0"/>
   <stop stop-color="#d3bda3" offset="1"/>
  </linearGradient>
  <linearGradient id="r" x2="0" y1="250.16" y2="260.71" gradientUnits="userSpaceOnUse">
   <stop stop-color="#5b5751" offset="0"/>
   <stop stop-color="#908677" offset="1"/>
  </linearGradient>
  <linearGradient id="q" x2="0" y1="25.671" y2="17.312" gradientUnits="userSpaceOnUse">
   <stop offset="0"/>
   <stop offset="1"/>
  </linearGradient>
  <linearGradient id="p" x2="0" y1="23.757" y2="4.7492" gradientUnits="userSpaceOnUse">
   <stop offset="0"/>
   <stop offset="1"/>
  </linearGradient>
  <linearGradient id="o" x2="0" y1="35.814" y2="6.7904" gradientUnits="userSpaceOnUse">
   <stop offset="0"/>
   <stop offset="1"/>
  </linearGradient>
  <linearGradient id="n" x2="0" y1="61.266" y2="9.4051" gradientUnits="userSpaceOnUse">
   <stop offset="0"/>
   <stop offset="1"/>
  </linearGradient>
  <linearGradient id="m" x2="0" y1="70.199" y2="10.426" gradientUnits="userSpaceOnUse">
   <stop offset="0"/>
   <stop offset="1"/>
  </linearGradient>
  <linearGradient id="l" x2="0" y1="24.967" y2="5.0019" gradientUnits="userSpaceOnUse">
   <stop offset="0"/>
   <stop offset="1"/>
  </linearGradient>
  <linearGradient id="k" x2="0" y1="40.665" y2="8.0637" gradientUnits="userSpaceOnUse">
   <stop offset="0"/>
   <stop offset="1"/>
  </linearGradient>
  <linearGradient id="j" x2="0" y1="61.844" y2="12.336" gradientUnits="userSpaceOnUse">
   <stop offset="0"/>
   <stop offset="1"/>
  </linearGradient>
 </defs>
 <g fill-rule="evenodd">
  <path d="m318.95,236.72c-22.071-.766-49.947,2.615-71.699-5.103-6.634,5.421-65.129,4.146-79.035,6.634 36.359,16.394 36.232,14.862 49.117,19.71 2.617.956 5.359,3.381.766,5.614-3.954,1.914-9.121,2.296-12.82,2.106-21.751-1.788-43.889-10.59-69.212-14.608-11.29-1.786-14.862-5.167-16.458-11.738-15.181-1.212-30.044-2.232-41.845-13.396 .255,4.529 2.998,8.93-1.85,12.183-7.208,4.848-16.968,5.87-25.516,6.762-9.058,1.022-24.177-1.02-35.147-3.89-7.081-1.914-9.824-.192-15.246-5.167 .255-1.723 4.083-1.531 5.422-1.531 9.632-4.274 34,1.084 42.803-6.89 1.276-1.85 6.634-3.443 3.636-15.564-5.358-21.37-13.97-38.274-12.63-57.474 1.786-26.344-.32-45.035 3.827-71.634 1.531-9.569 4.529-24.623 8.931-34.128-2.616-5.103-.957-6.251 3.764-11.228 5.167-7.974 4.592-15.245 7.974-17.606 7.462-5.293 8.802-6.824 10.716-8.802 3.189-3.063 1.467-4.656 10.78-8.548 3.317-3.892 9.887-2.998 10.653,1.277 .957.573 4.656,5.74 4.784,18.498 0,1.403 2.87,8.101.51,18.372-.383,1.786 2.232,6.251 1.978,11.035-.319,9.059 10.079,19.839 10.78,34.766 5.868,3.316 19.455,28.32 31.385,48.926 4.019,7.079 11.481,11.162 15.564,13.011 18.883,9.187 46.63,14.099 66.084,25.388 5.996,3.445 22.901,8.357 36.425,37.381 3.636,7.656 31.257,16.903 42.165,19.009 6.11,1.28 10.2,6 13.39,6.64z" fill="url(#i)"/>
  <path d="m86.051,2.424c.767-1.786 5.231-4.465 9.186.319-.191,1.339-1.785,2.68-3.316,2.104-1.595-.573-1.85-4.656-3.955-2.423 4.848,1.467 3.317,5.485 2.297,7.017-3.317,5.103-15.437,5.421-13.142,7.399 5.551-1.531 16.714-7.271 22.327,3.571 1.212-3.061-1.404-1.593-5.295-8.993-1.084-1.85-1.85-4.786.447-6.89 2.615-2.487 6.06,12.504 5.422,17.606 3.891,21.113-2.105,15.245-1.659,22.773 .574-3.126 1.531-4.401 2.232-2.68 2.807,6.187 1.85,8.293 1.085,10.973-6.188,21.687-35.084,16.967-39.932,3.89-5.294,2.679-9.058-7.399-4.848-16.33-2.041-.064-5.359,3.062-4.465,6.952-3.636-4.018 1.787-8.547 3.635-10.015 3.637-4.848 5.486-15.947 7.592-17.478 4.209-2.934 8.739-7.463 11.099-8.93 1.786-1.658 3.062-6.442 11.29-8.865z" fill="url(#h)"/>
  <path d="m102.25,52.754c1.212,10.015 11.992,22.069 9.823,36.551-3.955,25.134-3.637,49.5-21.561,76.163-12.057,17.863-28.96,10.399-35.531-3.381-15.437-31.575-15.182-51.923-11.865-77.566 2.807-20.35 8.612-34.064 10.908-30.428 .511.765.766,6.187 7.527,4.848 14.553,16.773 38.155,8.225 40.702-6.19z" fill="url(#g)"/>
  <path d="m219.24,261.79c-.703.575-7.146,2.744-7.784,2.806-14.542,1.276-34.956-5.357-42.355-7.335-27.174-7.463-32.787-4.912-43.568-10.78-10.333-5.485-6.123-44.461-11.801-46.884-5.486-2.297 1.213-.447 1.723,7.335-5.678,6.953-11.738,11.674-25.005,10.909-5.741-.319-10.207,4.784-18.308-.128-9.504-5.804-13.013-14.863-16.011-21.496-21.306-46.63-13.269-63.216-11.61-56.963 11.993,45.481 36.998,41.016 45.929,26.599 16.521-27.174 15.755-37.826 22.07-74.696 1.786-10.333 16.33,19.071 23.475,30.555 7.719,12.247 14.161,27.302 17.031,42.419 2.361,11.993.574,29.152 1.914,42.355 1.212,10.973.701,30.172 6.891,31.639 16.967,3.637 33.679,13.778 51.478,18.883 5.229,1.531 4.401,2.87 6.313,4.146-8.61-3.254-43.822-15.119-48.352-15.119 11.355,3.764 33.936,10.207 45.99,15.31-22.452-.892-48.605-15.756-63.532-15.628-1.34,0 4.529,1.148 7.272,2.232 18.31,6.62 30.56,14.4 58.24,13.83z" fill="url(#f)"/>
  <path d="m52.562,190.67c.256.766 8.293,20.859 16.203,27.557 5.167,3.062 2.552,19.646-1.467,21.496-17.733,8.165-35.274,4.019-58.686-.892-6.954-1.34-6.251-2.553-7.463-3.509 2.36-2.487 15.245,3.509 22.709.956-3.19.766-11.228-.255-17.862-1.722 6.826-3.636 30.364.192 41.335-5.359-.255,1.148-2.487,5.104-7.591,6.571 7.591-.256 14.161-9.249 14.161-14.863 0-20.796-19.838-45.993-12.949-76.994 .958,23.96 7.273,34.3 11.61,46.74z" fill="url(#e)"/>
  <path d="m156.16,146.72c17.543,9.696 49.755,16.394 66.979,26.28 6.889,3.764 20.859,9.187 25.579,19.328 3.509,7.527 3.636,22.136-12.822,28.003-14.35,4.848-51.604-3.252-60.661-6.762-6.698-2.423-6.571-4.337-5.742-7.081 5.742-20.539-14.161-35.403-16.521-56.198-.33-2.55-2.18-6.57 3.18-3.57z" fill="url(#d)"/>
  <path d="m151.24,150.29c3.444,17.095 26.408,39.359 16.201,58.368-1.722,3.188-12.374.956-11.928-12.694 .9-34.2-6.88-41.47-4.27-45.68z" fill="url(#c)"/>
  <path d="m248.46 190.03c5.868 7.463 17.286 21.434 11.418 26.41-6.762 5.676-4.529 11.865-3.828 13.779-9.758-2.808-5.611-14.672-3.699-17.925-1.977 1.722-4.401 4.337-6.249 4.337 1.47-3.71 7.52-14.56 2.36-26.61z" fill="url(#b)"/>
  <path d="m314.48,235.89c-22.198-.511-39.485,1.722-57.857-5.359-1.276-1.914-3.762-9.441 3.188-13.459 3.7-2.104 5.487-1.914 11.483,1.274 24.559,12.504 23.156,8.421 37.634,14.29 2.18.9 3.2,2.11 5.56,3.26z" fill="url(#a)"/>
  <path d="m168.66,250.12c10.78,1.276 27.046,8.039 38.465,10.526-12.75-.2-28.96-5.24-38.46-10.53z" fill="url(#r)"/>
  <path d="m70.296 17.287c-2.36 1.212-4.976 2.104-6.124 3.573s-1.084 2.678-1.531 4.784c3.7-1.914 3.636-5.359 7.655-8.357z" fill="url(#q)"/>
  <path d="m83.309,23.73c-5.358-14.863 6.123-18.69 4.082-19.009-2.424.701-9.185,8.802-4.082,19.009z" fill="url(#p)"/>
  <path d="m80.247,35.785c-6.953-19.264 5.358-29.342 3.891-29.023-3.381.764-10.397,15.756-3.891,29.023z" fill="url(#o)"/>
  <path d="m74.569,61.237c-8.739-33.682 7.974-51.478 5.933-51.861-2.487-.446-13.65,28.259-5.933,51.861z" fill="url(#n)"/>
  <path d="m66.852,70.167c-6.443-34.318 14.607-60.025 12.63-59.771-3.444.447-19.009,34.383-12.63,59.771z" fill="url(#m)"/>
  <path d="m94.409,24.94c10.206-12.119-.895-20.412 1.084-19.965 2.105,1.403 7.267,12.121-1.084,19.965z" fill="url(#l)"/>
  <path d="m93.069 40.633c13.077-15.756 3.572-33.489 4.848-32.595 2.933 1.849 5.863 21.943-4.848 32.595z" fill="url(#k)"/>
  <path d="m93.579,61.813c19.711-28.643 3.445-49.821 5.486-49.502 2.485.51 9.825,29.917-5.486,49.502z" fill="url(#j)"/>
 </g>
</svg>
