<?xml version="1.0" encoding="UTF-8"?>
<svg viewBox="0 0 500 500" xmlns="http://www.w3.org/2000/svg" xmlns:xlink="http://www.w3.org/1999/xlink">
 <defs>
  <linearGradient id="a">
   <stop stop-color="#fff" offset="0"/>
   <stop stop-color="#fff" stop-opacity="0" offset="1"/>
  </linearGradient>
  <linearGradient id="b">
   <stop stop-color="#fdfdfd" offset="0"/>
   <stop stop-color="#dcdcdc" offset="1"/>
  </linearGradient>
  <linearGradient id="j" x2="0" y1="450.35" y2="252.35" gradientUnits="userSpaceOnUse">
   <stop stop-color="#ff0f0f" offset="0"/>
   <stop stop-color="#790000" offset="1"/>
  </linearGradient>
  <linearGradient id="c" x1="229.47" x2="236.78" gradientUnits="userSpaceOnUse" xlink:href="#a"/>
  <linearGradient id="i" x1="379.02" x2="383.99" y1="365.81" y2="288.24" gradientUnits="userSpaceOnUse" xlink:href="#a"/>
  <radialGradient id="f" cx="215.44" cy="234.51" r="122.48" gradientTransform="matrix(1.2626 -9.2819e-16 9.6565e-16 1.3135 -56.571 -74.946)" gradientUnits="userSpaceOnUse">
   <stop stop-color="#c98b2b" stop-opacity="0" offset="0"/>
   <stop stop-color="#c98b2b" offset="1"/>
  </radialGradient>
  <radialGradient id="h" cx="337.76" cy="307.01" r="196.43" gradientTransform="matrix(1.2979 5.7877e-16 -3.9264e-16 .88049 -101.95 50.308)" gradientUnits="userSpaceOnUse" xlink:href="#b" spreadMethod="reflect"/>
  <radialGradient id="g" cx="455.36" cy="387.83" r="196.43" gradientTransform="matrix(1.3916 3.9294e-16 -2.6519e-16 .96229 -237.83 -81.516)" gradientUnits="userSpaceOnUse" xlink:href="#a" spreadMethod="reflect"/>
  <radialGradient id="e" cx="366.73" cy="622.25" r="196.43" gradientTransform="matrix(.28884 .15564 -.10477 .19442 235.75 94.336)" gradientUnits="userSpaceOnUse" xlink:href="#b" spreadMethod="reflect"/>
  <radialGradient id="d" cx="209.01" cy="388.05" r="196.43" gradientTransform="matrix(.0049604 .43711 -.33224 .0037704 477.59 192.05)" gradientUnits="userSpaceOnUse" xlink:href="#b" spreadMethod="reflect"/>
 </defs>
 <g transform="matrix(.9248 0 0 .9248 -81.168 -78.798)" fill-rule="evenodd">
  <path d="m440.76 460.3h24.806v100.82h-24.806z"/>
  <path d="m488.77 479.51h24.806v100.82h-24.806z"/>
  <path d="m450.34 533.36c-15.68 0-25.065 1.6457-28.394 25.887-1.4609 10.64 1.478 17.178 6.3837 21.031 0.9879-4.435 3.5454-13.994 5.2479-17.036 1.5882 11.558-1.6149 13.946 0.03916 19.934 5.8108 2.0482 12.822 1.9341 19.229 0.31333 16.516-4.1775 25.887-1.5289 25.887-24.242 0-22.667-12.713-25.887-28.394-25.887z"/>
  <path d="m496.36 554.96c-16.23 0-25.944 1.7034-29.389 26.795-1.5121 11.013 1.5298 17.78 6.6075 21.768 1.0225-4.5905 3.6697-14.484 5.4319-17.634 1.6439 11.963-1.6715 14.435 0.04054 20.633 6.0145 2.12 13.271 2.0019 19.904 0.32429 17.095-4.3239 26.795-1.5825 26.795-25.092 0-23.462-13.159-26.795-29.389-26.795z"/>
  <path d="m255.32 460.3h24.806v100.82h-24.806z"/>
  <path d="m303.33 479.51h24.806v100.82h-24.806z"/>
  <path d="m264.9 533.36c-15.68 0-25.065 1.6457-28.394 25.887-1.4609 10.64 1.478 17.178 6.3837 21.031 0.98789-4.435 3.5454-13.994 5.2479-17.036 1.5882 11.558-1.6149 13.946 0.03916 19.934 5.8108 2.0482 12.822 1.9341 19.229 0.31333 16.516-4.1775 25.887-1.5289 25.887-24.242 0-22.667-12.713-25.887-28.394-25.887z"/>
  <path d="m310.92 554.96c-16.23 0-25.944 1.7034-29.389 26.795-1.5121 11.013 1.5298 17.78 6.6075 21.768 1.0225-4.5905 3.6697-14.484 5.4319-17.634 1.6439 11.963-1.6715 14.435 0.04053 20.633 6.0145 2.12 13.271 2.0019 19.904 0.32429 17.095-4.3239 26.795-1.5825 26.795-25.092 0-23.462-13.159-26.795-29.389-26.795z"/>
  <path d="m295.09 95.969c-6.1077 3.6697-12.556 6.5339-19.732 6.6269-8.8719 1.9975-16.542 9.7516-17.518 18.936-12.976 1.2611-22.331 16.223-18.406 28.5-35.068 9.585-63.705 33.744-88.155 59.691-23.549 22.44-36.751 55.581-33.305 88.1 3.3779 42.225 33.445 80.089 72.241 96.054-2.5678 5.8168-2.0206 13.262 2.0625 18.25-7.3599 7.8932-5.6974 22.295 3.6562 27.906-2.8705 9.4685 0.48787 20.754 9.9062 25 2.8351 6.9599 8.7952 12.31 11.816 19.22 3.2548 4.0881 7.9597 7.3489 13.277 7.7801 3.2458 8.4702 13.553 13.052 22.156 10.844 4.0019 10.391 18.302 15.284 27.656 9 10.169 1.5287 19.822 6.032 30.024 6.7822 4.9383-1.1418 10.329-3.5906 14.634 0.40566 7.208 4.9937 16.91 3.0545 23.294-2.0289 6.2797-2.3611 11.62 2.0977 17.228 3.4294 12.396 1.2909 24.974 2.555 37.316 0.82433 5.9695 1.2539 11.893 0.19447 16.786-3.4752 5.2735-2.8885 10.028 0.03796 14.438 2.8125 6.4676 2.3275 14.35 1.3609 19.438-3.4688 5.5802 0.12005 10.951-2.8202 15.313 2.1752 8.0372 3.5495 18.749 1.1776 23.75-6.269 7.9546 5.3419 19.483 4.096 25.561-3.4247 5.6622-2.446 12.165-3.5254 15.959-8.9841 6.0197-5.7273 16.769-3.8162 20.471-12.348 3.4796-4.7887 11.167-4.3574 13.935-10.297 3.9794-4.6204 3.8516-11.197 3.9795-16.576 1.997-5.2437 5.7088-8.429 10.439-10.964 5.9696-5.8408 8.494-15.958 3.625-23.219 3.2267-7.5767 12.307-14.425 8.099-23.617-3.098-9.0932-0.94172-19.785-6.474-28.04 5.3851-7.1596 5.4599-17.045-0.07455-24.12-0.97909-9.6266-5.4714-19.166-12.675-25.973 0.84579-8.3476-1.6143-17.648-9.9094-21.338-5.8693-2.4747-4.104-10.611-9.6843-13.975-6.4545-4.4394-12.09-9.7886-17.632-15.28-4.442-9.1107-16.484-11.232-25.149-7.4072-4.0087-6.8026-11.256-11.474-19.188-11.062-5.4426-4.3715-10.157-10.759-18.062-10.062-4.7775-1.5743-10.114 4.667-13.219 2.3125-5.7899-5.6059-15.044-7.18-22.312-3.6562-4.6433-1.5539-8.8136-5.2174-13.969-4.4688-3.111-4.9154-3.9234-11.152-7.9688-15.688-0.84267-5.7012 6.5789-8.8282 6.0123-14.947 2.472-5.1829-3.9069-11.915 2.1127-14.959 8.7182-10.824 4.2886-30.338-9.7812-34.031-3.9366-5.0011-6.1826-12.276-12.784-14.153-3.0431-6.4875-4.5941-14.285-11.686-17.802-5.1952-4.0797-13.454-1.8804-16.968-8.2005-4.1602-3.1622-9.1144-5.4381-14.406-5.5625-4.4612-10.07-16.898-15.434-27.406-12.625-6.2481-5.3192-15.174-7.1269-23-4.6562-4.8524-2.3875-10.477-2.367-15.719-1.9688z"/>
  <path d="m195.21 180.36c37.293-24.284 62.274-34.522 79.943-7.3889 12.431 19.091-10.646 51.6-47.939 75.885s-70.317 39.76-82.749 20.669 13.451-64.88 50.745-89.165z" fill="#dedede"/>
  <path d="m423.09 245.22c-6.5497 0.08999-6.9614 10.729-13.842 8.199-28.225-0.88032-56.525-4.3057-84.74-2.3644-47.684 5.7994-88.201 41.108-106.81 84.478-7.0672 15.888-11.326 32.941-12.948 50.249-12.023 1.1656-16.875 19.191-7.0938 26.125-4.6958 4.6904-8.2845 11.418-5.0961 18.04 0.79168 4.5523 7.3173 7.1862 8.5961 9.3665-5.491 7.8918-0.99846 20.826 8.625 22.75-0.21501 5.9545 5.4197 9.6937 8.3083 13.738 1.1449 7.2472 8.3034 12.971 15.629 12.48 1.8555 9.1746 13.819 14.08 21.812 9.5625 1.6191 10.966 15.919 17.115 24.531 9.7812 6.9194 2.1359 14.18 2.7452 21.031 4.8125 5.5733 3.5115 12.119 2.805 17.536-0.43349 6.7244 0.75225 12.488 8.4456 19.995 5.677 5.0585-0.40314 7.2995-7.3966 12.778-4.7731 5.6844-1.5251 9.41 0.62863 13.81 3.6771 8.5358 1.0484 17.205 0.53433 25.731 1.8876 5.7324 0.75722 11.544-3.338 17.307-0.4102 6.1661 0.60879 9.6673-6.4854 15.781-4.9375 5.4603-3.4535 7.5488 2.6981 12.246 4.0197 5.726 1.961 12.823 0.41349 16.629-4.4572 4.8231 3.2627 11.225-4.9381 14.062 0.6875 7.4265 6.6985 21.381 3.8596 24.562-5.7812 5.7432 3.6131 13.544 7.6051 19.789 2.8161 3.539-3.4619 6.5748-7.0448 11.961-6.5036 7.2512-2.1862 10.089-11.07 18.259-11.148 6.381-0.77978 10.482-5.475 12.835-11.07 9.866 0.35035 17.658-11.497 13.188-20.438 4.9071-2.0711 3.0401-10.111 7.9062-10.469 8.8238-3.1151 13.65-15.542 7.125-22.969 0.36353-5.7295 4.7659-8.376 7.6379-12.591 2.6894-4.6723 2.18-10.981-1.1066-15.253 1.7536-5.9067-1.887-11.786-1.3125-17.812-2.3633-4.25-6.59-7.5452-0.84375-11.125 3.4738-5.9535 2.0186-14.42-3.4688-18.656 2.4021-7.5108-3.5718-14.513-6.9375-20.719-5.0907-2.5112-6.2148-6.5924-4.5625-11.625 0.33208-7.8061-7.6338-13.501-13.531-15.094 0.59254-7.081-4.6452-14.269-11.656-15.625-2.0103-6.4851-10.695-7.3769-12.526-14.103-5.1807-7.0411-15.509-6.9518-22.254-2.9212-3.9797-3.8524-5.7622-11.017-12.671-11.162-5.1603-0.00694-10.331-0.78088-12.372-6.124-5.9696-6.4974-17.812-6.2309-23.178 0.74732-3.8896-4.6914-8.3605-9.4852-15.094-8.8125-5.9982 0.85979-9.5139 5.1423-14.051-0.5665-3.4595-2.0709-7.7499-1.9953-11.574-1.1522zm4.6626 3.2087c-5.7286 0-10.283 4.0952-11.225 9.3678l-77.053-3.7978c-71.304 0-126.79 64.496-131.15 135.37-0.20698-0.01062-0.38106-0.0844-0.59077-0.0844-6.4047 0-11.646 5.0407-11.646 11.225 0 4.2105 2.5167 7.7072 6.0764 9.621-0.17883 0.78122-0.50637 1.5302-0.50637 2.3631 0 0.68461 0.29999 1.2903 0.42198 1.9411-3.9531 1.7863-6.7516 5.5529-6.7516 10.043 0 6.1839 5.1574 11.225 11.562 11.225 0.44596 0 0.83302-0.20582 1.2659-0.25319-0.00227 0.09088-0.0844 0.1618-0.0844 0.25319 0 0.8329 0.32754 1.5818 0.50637 2.3631-3.5597 1.9138-6.0764 5.4106-6.0764 9.621 0 6.1839 5.1574 11.225 11.562 11.225h0.16879c-0.18543 0.79469-0.50637 1.5145-0.50637 2.363 0 5.0482 3.514 9.235 8.2707 10.634-0.06687 0.48635-0.25319 0.93077-0.25319 1.4347 0 6.1839 5.1574 11.14 11.562 11.14 1.3568 0 2.5872-0.26134 3.7978-0.67516-0.01607 0.24109-0.16879 0.43019-0.16879 0.67516 0 6.1839 5.1574 11.225 11.562 11.225 3.1339 0 5.929-1.2552 8.0175-3.207 1.0042 0.5515 2.0447 0.93888 3.207 1.1815-0.13211 0.67616-0.42197 1.3124-0.42197 2.0255 0 6.1839 5.2418 11.224 11.646 11.225 3.4722 0 6.4814-1.5461 8.6083-3.8822 1.8954 1.3013 4.0816 2.2786 6.5828 2.2787 1.1777 0 2.2201-0.35975 3.2914-0.67515 2.0718 1.8609 4.8824 3.0382 7.9331 3.0382 1.2109 0 2.2781-0.34239 3.3758-0.67516 2.1268 2.3326 5.139 3.8822 8.6083 3.8822 3.6111 0 6.6485-1.7196 8.7771-4.2198 1.9938 1.5598 4.4094 2.6162 7.1736 2.6162 0.11999 0 0.21849-0.08091 0.33758-0.08439 2.1014 2.8721 5.367 4.8949 9.2834 4.8949 4.9277 0 9.1213-2.987 10.803-7.1736 1.9364 1.3992 4.233 2.363 6.836 2.363 2.722 0 5.1095-1.0146 7.0892-2.5318 1.8284 3.8697 5.7745 6.5828 10.465 6.5828 1.6012 0 3.1694-0.36121 4.5573-0.92835 1.74 1.006 3.7333 1.6879 5.9076 1.6879 1.9973 0 3.7597-0.57545 5.4013-1.4347 1.8954 1.3013 4.0816 2.2786 6.5828 2.2787 3.2024 0 6.0862-1.2637 8.1863-3.2914 1.9619 1.4666 4.3334 2.4475 7.0048 2.4474 4.4249 0 8.1706-2.4718 10.127-5.992 1.5497 0.74133 3.218 1.1815 5.0637 1.1815 2.9369 0 5.5509-1.1304 7.5955-2.8694 1.546 4.4333 5.6918 7.68 10.803 7.6799 4.4249 0 8.1706-2.4718 10.127-5.992 1.5497 0.74133 3.218 1.1815 5.0637 1.1815 4.0813 0 7.5525-2.1537 9.621-5.2325 0.98 5.2278 5.5289 9.2834 11.225 9.2834 6.0964 0 10.926-4.6097 11.393-10.381 1.211 0.41419 2.4403 0.75958 3.7978 0.75955 0.60332 0 1.1093-0.25172 1.6879-0.33758 2.0766 3.0345 5.4904 5.148 9.5366 5.1481 5.5126 0 9.876-3.7983 11.056-8.7771 1.2818 0.47132 2.6828 0.75958 4.1353 0.75956 5.0822 0 9.3186-3.2008 10.887-7.5955 2.8398-0.51882 5.2186-1.9258 6.9204-4.051 0.72987 0.13905 1.4223 0.42197 2.1943 0.42197 6.4047 0 11.562-5.0407 11.562-11.225 0-0.21005-0.07256-0.38354-0.08439-0.59076 0.95972 0.24843 1.9133 0.59076 2.9538 0.59076 6.4047 0 11.562-4.9563 11.562-11.14 0-2.613-1.0612-4.9298-2.6162-6.836 3.8627-1.8192 6.5828-5.5323 6.5828-9.9586 0-0.9792-0.26156-1.8796-0.50637-2.785 0.59673 0.0915 1.149 0.33758 1.7723 0.33758 6.4047 0 11.562-5.0407 11.562-11.225 0-3.2628-1.4898-6.0539-3.7978-8.1019 1.2966-1.8083 2.1943-3.8809 2.1943-6.2452 0-1.0726-0.38322-2.0558-0.67516-3.0382 4.9618-1.2714 8.6927-5.3604 8.6927-10.549 0-3.1571-1.366-5.9806-3.5446-8.0175 0.71845-1.4568 1.1815-3.0904 1.1815-4.8105 0-2.3851-0.96113-4.5123-2.2787-6.3296 0.33833-1.051 0.67516-2.1334 0.67516-3.2914 0-3.6603-1.9959-6.7324-4.8105-8.7771 0-1.3347-0.31538-2.6104-0.75955-3.7978 3.7136-1.8687 6.3296-5.4692 6.3296-9.7898 0-4.3612-2.6432-8.1082-6.414-9.9586 0.91541-1.602 1.6035-3.359 1.6035-5.3169 0-3.4499-1.6772-6.384-4.2197-8.4395-0.52033-4.2899-3.4253-7.7968-7.5111-9.199-0.40977-1.69-1.0913-3.2576-2.1943-4.5573 1.1136-1.7197 1.9411-3.5627 1.9411-5.7389 0-6.1839-5.1574-11.225-11.562-11.225-1.3952 0-2.7272 0.32307-3.9666 0.75955-0.06093-0.07578-0.19207-0.0932-0.25319-0.16879 1.2848-1.8031 2.1943-3.8084 2.1943-6.1608 0-5.9245-4.8546-10.659-10.887-11.056-1.0314-4.7521-5.0212-8.3277-10.127-8.7771-0.3385-5.8914-5.2074-10.634-11.393-10.634-3.2024 0-6.0862 1.2637-8.1863 3.2914-1.4057-0.58442-3.015-0.84395-4.6417-0.84395-0.75683 0-1.3933 0.28819-2.1099 0.42197 0.00618-0.1502 0.08439-0.2703 0.08439-0.42197 0-6.1839-5.1574-11.225-11.562-11.225-1.4525 0-2.8535 0.28824-4.1354 0.75956-1.3382-1.4986-2.9971-2.6418-4.9793-3.2914-1.4913-4.5246-5.7087-7.8488-10.887-7.8487-4.5114 0-8.3772 2.5274-10.296 6.1608-1.0701-0.31468-2.1151-0.59076-3.2914-0.59076-0.5946 0-1.1173 0.25415-1.6879 0.33757-1.0324-5.165-5.4907-9.1146-11.14-9.1146-4.6485 0-8.6138 2.6843-10.465 6.4984-1.1146-5.0629-5.5657-8.9458-11.14-8.9458z"/>
  <path d="m427.76 248.43c-5.7286 0-10.283 4.0952-11.225 9.3678l-77.053-3.7978c-71.304 0-126.79 64.496-131.15 135.37-0.20698-0.01062-0.38106-0.0844-0.59077-0.0844-6.4047 0-11.646 5.0407-11.646 11.225 0 4.2105 2.5167 7.7072 6.0764 9.621-0.17883 0.78122-0.50637 1.5302-0.50637 2.3631 0 0.68461 0.29999 1.2903 0.42198 1.9411-3.9531 1.7863-6.7516 5.5529-6.7516 10.043 0 6.1839 5.1574 11.225 11.562 11.225 0.44596 0 0.83302-0.20582 1.2659-0.25319-0.00227 0.09088-0.0844 0.1618-0.0844 0.25319 0 0.8329 0.32754 1.5818 0.50637 2.3631-3.5597 1.9138-6.0764 5.4106-6.0764 9.621 0 6.1839 5.1574 11.225 11.562 11.225h0.16879c-0.18543 0.79469-0.50637 1.5145-0.50637 2.363 0 5.0482 3.514 9.235 8.2707 10.634-0.06687 0.48635-0.25319 0.93077-0.25319 1.4347 0 6.1839 5.1574 11.14 11.562 11.14 1.3568 0 2.5872-0.26134 3.7978-0.67516-0.01607 0.24109-0.16879 0.43019-0.16879 0.67516 0 6.1839 5.1574 11.225 11.562 11.225 3.1339 0 5.929-1.2552 8.0175-3.207 1.0042 0.5515 2.0447 0.93888 3.207 1.1815-0.13211 0.67616-0.42197 1.3124-0.42197 2.0255 0 6.1839 5.2418 11.224 11.646 11.225 3.4722 0 6.4814-1.5461 8.6083-3.8822 1.8954 1.3013 4.0816 2.2786 6.5828 2.2787 1.1777 0 2.2201-0.35975 3.2914-0.67515 2.0718 1.8609 4.8824 3.0382 7.9331 3.0382 1.2109 0 2.2781-0.34239 3.3758-0.67516 2.1268 2.3326 5.139 3.8822 8.6083 3.8822 3.6111 0 6.6485-1.7196 8.7771-4.2198 1.9938 1.5598 4.4094 2.6162 7.1736 2.6162 0.11999 0 0.21849-0.08091 0.33758-0.08439 2.1014 2.8721 5.367 4.8949 9.2834 4.8949 4.9277 0 9.1213-2.987 10.803-7.1736 1.9364 1.3992 4.233 2.363 6.836 2.363 2.722 0 5.1095-1.0146 7.0892-2.5318 1.8284 3.8697 5.7745 6.5828 10.465 6.5828 1.6012 0 3.1694-0.36121 4.5573-0.92835 1.74 1.006 3.7333 1.6879 5.9076 1.6879 1.9973 0 3.7597-0.57545 5.4013-1.4347 1.8954 1.3013 4.0816 2.2786 6.5828 2.2787 3.2024 0 6.0862-1.2637 8.1863-3.2914 1.9619 1.4666 4.3334 2.4475 7.0048 2.4474 4.4249 0 8.1706-2.4718 10.127-5.992 1.5497 0.74133 3.218 1.1815 5.0637 1.1815 2.9369 0 5.5509-1.1304 7.5955-2.8694 1.546 4.4333 5.6918 7.68 10.803 7.6799 4.4249 0 8.1706-2.4718 10.127-5.992 1.5497 0.74133 3.218 1.1815 5.0637 1.1815 4.0813 0 7.5525-2.1537 9.621-5.2325 0.98 5.2278 5.5289 9.2834 11.225 9.2834 6.0964 0 10.926-4.6097 11.393-10.381 1.211 0.41419 2.4403 0.75958 3.7978 0.75955 0.60332 0 1.1093-0.25172 1.6879-0.33758 2.0766 3.0345 5.4904 5.148 9.5366 5.1481 5.5126 0 9.876-3.7983 11.056-8.7771 1.2818 0.47132 2.6828 0.75958 4.1353 0.75956 5.0822 0 9.3186-3.2008 10.887-7.5955 2.8398-0.51882 5.2186-1.9258 6.9204-4.051 0.72987 0.13905 1.4223 0.42197 2.1943 0.42197 6.4047 0 11.562-5.0407 11.562-11.225 0-0.21005-0.07256-0.38354-0.08439-0.59076 0.95972 0.24843 1.9133 0.59076 2.9538 0.59076 6.4047 0 11.562-4.9563 11.562-11.14 0-2.613-1.0612-4.9298-2.6162-6.836 3.8627-1.8192 6.5828-5.5323 6.5828-9.9586 0-0.9792-0.26156-1.8796-0.50637-2.785 0.59673 0.0915 1.149 0.33758 1.7723 0.33758 6.4047 0 11.562-5.0407 11.562-11.225 0-3.2628-1.4898-6.0539-3.7978-8.1019 1.2966-1.8083 2.1943-3.8809 2.1943-6.2452 0-1.0726-0.38322-2.0558-0.67516-3.0382 4.9618-1.2714 8.6927-5.3604 8.6927-10.549 0-3.1571-1.366-5.9806-3.5446-8.0175 0.71845-1.4568 1.1815-3.0904 1.1815-4.8105 0-2.3851-0.96113-4.5123-2.2787-6.3296 0.33833-1.051 0.67516-2.1334 0.67516-3.2914 0-3.6603-1.9959-6.7324-4.8105-8.7771 0-1.3347-0.31538-2.6104-0.75955-3.7978 3.7136-1.8687 6.3296-5.4692 6.3296-9.7898 0-4.3612-2.6432-8.1082-6.414-9.9586 0.91541-1.602 1.6035-3.359 1.6035-5.3169 0-3.4499-1.6772-6.384-4.2197-8.4395-0.52033-4.2899-3.4253-7.7968-7.5111-9.199-0.40977-1.69-1.0913-3.2576-2.1943-4.5573 1.1136-1.7197 1.9411-3.5627 1.9411-5.7389 0-6.1839-5.1574-11.225-11.562-11.225-1.3952 0-2.7272 0.32307-3.9666 0.75955-0.06093-0.07578-0.19207-0.0932-0.25319-0.16879 1.2848-1.8031 2.1943-3.8084 2.1943-6.1608 0-5.9245-4.8546-10.659-10.887-11.056-1.0314-4.7521-5.0212-8.3277-10.127-8.7771-0.3385-5.8914-5.2074-10.634-11.393-10.634-3.2024 0-6.0862 1.2637-8.1863 3.2914-1.4057-0.58442-3.015-0.84395-4.6417-0.84395-0.75683 0-1.3933 0.28819-2.1099 0.42197 0.00618-0.1502 0.08439-0.2703 0.08439-0.42197 0-6.1839-5.1574-11.225-11.562-11.225-1.4525 0-2.8535 0.28824-4.1354 0.75956-1.3382-1.4986-2.9971-2.6418-4.9793-3.2914-1.4913-4.5246-5.7087-7.8488-10.887-7.8487-4.5114 0-8.3772 2.5274-10.296 6.1608-1.0701-0.31468-2.1151-0.59076-3.2914-0.59076-0.5946 0-1.1173 0.25415-1.6879 0.33757-1.0324-5.165-5.4907-9.1146-11.14-9.1146-4.6485 0-8.6138 2.6843-10.465 6.4984-1.1146-5.0629-5.5657-8.9458-11.14-8.9458z" fill="url(#h)"/>
  <path d="m424.88 253.03c-4.375 2.6127-5.853 11.601-12.844 8.5312-28.546-0.93036-57.133-4.1818-85.688-2.6875-43.138 4.7826-79.769 35.89-98.656 73.938-8.6873 17.835-13.651 37.3-15.375 57.031-3.1216 4.9288-12.696 3.7365-12.312 11.25 2.184 4.5734 7.7092 8.1632 5.5625 14.062-2.1597 4.3589-9.1038 7.5911-5.0312 13.188 3.4441 4.0193 13.38 2.8727 11.688 10.312-1.9491 4.1667-8.8393 7.521-0.8125 9.0312 4.5073 4.3848 9.3225 9.8041 16.402 8.1762 5.5205-2.242 10.106 1.0747 15.505 1.4488 5.7531-1.2073 11.071-2.7355 16.336 0.84419 6.0364 2.0895 11.362-1.4822 16.195-4.2192 6.903 1.3493 14.728 6.7561 20.963 0.67538 3.7276-3.8394 8.4749-9.1391 14.193-5.3629 6.264 2.1273 10.807-4.8463 16.452-3.4424 5.1098 3.3174 6.6421 11.073 13.847 11.296 7.0335 1.7046 13.279-3.1705 17.203-8.3037 6.7093-1.6411 15.42 3.8 20.538-3.3153 3.0336-5.0899 11.272-4.8248 11.252 2.0913 4.7977 11.688 25.043 11.173 27.618-1.7215 0.36021-5.6677 5.8426-7.7624 10.68-5.8906 8.3955-0.56804 12.007 10.272 20.816 8.1298 6.9046-0.66442 11.523-6.3544 13.593-12.383 5.6497-3.748 13.336 1.7452 18.75-3.4923 4.3825-3.8233 6.2515-10.281 12.585-11.144 4.3024-3.8166 9.5072-5.8176 15.23-5.2255 7.5153-1.2348 12.07-8.7898 12.156-15.872 4.2689-5.781 12.745 0.18659 17.583-5.1949 7.2672-4.8285 7.2-15.415 2.2279-21.707 0.44506-7.3263 12.146-9.0524 9.9372-17.606-0.81929-4.9795 2.9805-10.629 8.5-8.5625 4.4379-0.5651 12.355-4.3056 10.495-9.438-3.9832-3.8779-10.925-9.2775-6.5891-15.375 1.3263-6.6611-6.4013-10.189-11.812-8.3438-7.7704-2.8422 3.0048-12.689-5.0428-15.452-5.3637-1.5723-7.7476-6.7636-11.89-9.3586-5.4416-1.9289-5.9227-8.8479-10.473-11.19-6.1608-1.2354-11.705 5.7119-17.703 1.3709-5.5288-1.7885-3.7404-11.402-10.86-10.152-8.4102 1.4509-12.788-6.6592-18.5-10.781-6.9457-1.5754-10.712 9.7012-17.988 5.1846-4.3971-2.4862-5.5907-10.296-12.105-8.4346-3.5135 2.8961-10.285 9.172-13.09 2.2163-1.3763-3.826-5.8565-5.196-9.5348-4.1226z" fill="url(#g)"/>
  <path d="m242.06 153.38c-23.253 5.7642-43.823 19.243-62.342 33.967-20.125 17.432-38.301 40.033-42.287 67.056-1.6833 13.237 8.0293 27.948 22.324 27.311 18.647 0.60417 35.416-9.6226 51.204-18.312 27.907-16.102 56.507-36.11 69.539-66.74 4.7002-12.773 0.34858-27.592-10.468-35.819-7.5266-6.6308-18.158-9.246-27.969-7.4626zm-46.849 26.986c37.293-24.284 62.274-34.522 79.943-7.3889 12.431 19.091-10.646 51.6-47.939 75.885s-70.317 39.76-82.749 20.669 13.451-64.88 50.745-89.165z"/>
  <path d="m300.69 142.47c-30.156 2.5131-59.008 17.165-79.416 39.412-46.238 7.605-88.359 44.508-94.975 92.011-6.9199 42.308 17.151 85.534 53.961 106.09 49.839 29.637 120.18 20.213 158.18-24.445 18.409-20.619 27.012-48.58 25.603-75.988 0.42873-34.753 15.065-54.074-2.8633-104.36-7.7225-21.662-30.023-32.859-51.053-32.94-3.1468-0.08647-6.2977-0.0047-9.4369 0.22688z" fill="#eed6b1"/>
  <path d="m300.69 142.47c-30.156 2.5131-59.008 17.165-79.416 39.412-46.238 7.605-88.359 44.508-94.975 92.011-6.9199 42.308 17.151 85.534 53.961 106.09 49.839 29.637 120.18 20.213 158.18-24.445 18.409-20.619 27.012-48.58 25.603-75.988 0.42873-34.753 15.065-54.074-2.8633-104.36-7.7225-21.662-30.023-32.859-51.053-32.94-3.1468-0.08647-6.2977-0.0047-9.4369 0.22688z" fill="url(#f)"/>
  <path d="m364.83 240.29c-0.2248 13.43-0.59463 26.888-0.75956 40.256 1.409 27.409-7.2473 55.42-25.656 76.04-27.402 32.201-71.533 45.791-112.75 39.919 19.466 12.364 43.475 19.917 69.71 19.917 64.206 0 116.3-43.876 116.3-97.982 0-32.058-18.576-60.262-46.839-78.15z" fill="url(#j)"/>
  <path d="m241.15 165.68c-2.8055 0.27458-6.2598 1.5592-9.621 3.7134-6.4931 4.1614-10.338 10.138-8.9459 13.672 5.1869-0.37836 11.571-2.6166 17.892-6.6672 2.6026-1.6679 4.8273-3.5717 6.9204-5.4857 0.21918-1.1473 0.1208-2.1705-0.33758-3.0382-0.91673-1.7354-3.1022-2.4688-5.9076-2.1943z"/>
  <path d="m270.43 173.61c-6.3617-0.20647-12.694 4.7636-13.932 11.518-0.07189 1.532 1.0735 2.7174 1.9806 3.7579 1.3915 1.3849 2.9463 2.766 4.8273 3.276 6.1284 0.47601 12.424 1.1343 18.037 4.0139 1.6161-0.57046 1.0967-2.7511 0.52649-3.9772-0.93801-3.1791-0.27571-6.6925 1.2409-9.5416 0.6057-1.6766-1.1148-2.8616-1.8765-4.0945-2.7423-3.1624-6.7681-5.0002-10.803-4.9531z"/>
  <path d="m300.66 138.47c-30.778 2.79-60.114 17.318-81.344 39.719-48.366 8.3724-91.845 48.421-97.375 98.281-6.2058 48.474 26.126 96.726 70.901 114.18 52.447 22.695 120.41 7.2959 154.27-39.811 16.585-21.619 21.934-49.574 21.273-76.294 1.8521-26.319 9.8395-53.067 2.4457-79.298-3.3786-19.551-11.946-40.366-30.858-49.457-11.988-6.6129-25.848-8.0916-39.317-7.3158zm0.03057 3.9995c-30.156 2.5131-59.008 17.165-79.416 39.412-46.238 7.605-88.359 44.508-94.975 92.011-6.9199 42.308 17.151 85.534 53.961 106.09 49.839 29.637 120.18 20.213 158.18-24.445 18.409-20.619 27.012-48.58 25.603-75.988 0.42873-34.753 15.065-54.074-2.8633-104.36-7.7225-21.662-30.023-32.859-51.053-32.94-3.1468-0.08647-6.2977-0.0047-9.4369 0.22688z"/>
  <path d="m300.94 103.48c-7.7226-1.8231-11.273 8.7898-17.824 6.2319-9.9887-1.4999-20.854 8.533-17.032 18.732-0.49997 1.9713-9.735-0.92686-12.868 2.9673-8.7011 4.6156-9.5571 18.131-1.2468 23.579 6.8763 6.564 17.377 1.4609 23.21-0.21427 6.9605 7.6471 16.923-1.2575 23.198 5.3372 6.3807 3.9575 13.724-3.1818 17.291 4.6591 4.862 3.9822 11.625 2.2458 12.781 9.5985 2.874 5.6496 11.904 5.9535 15.194 6.8364-0.16385 9.8018 11.044 17.17 20.086 14.01 2.5167 8.8291 13.351 13.145 21.605 9.7898-0.82237 12.48 15.588 19.52 25.275 12.831 10.173-4.3803 6.6734-18.729 3.2601-23.195 8.5938-2.6354 13.302-14.018 7.4037-21.372-3.5981-7.1806-14.753-3.3932-13.738-12.488-1.5209-6.0196-9.9412-7.7023-12.685-10.079 3.4027-10.734-9.6189-20.686-19.558-17.011-2.3502-7.965-11.821-12.818-19.664-10.127-0.5219-11.215-14.611-17.336-23.884-11.984-4.476-6.8376-14.307-9.1587-21.352-4.9793-2.7792-1.8848-6.0604-3.1447-9.4522-3.1226z" fill="url(#e)"/>
  <path d="m296.88 99.562c-5.8986 1.6683-10.241 8.0218-16.871 6.2094-9.8253 0.24581-19.221 9.2663-18.441 19.322-14.442-1.1017-25.162 17.647-15.848 29.222 5.9521 8.5974 18.305 9.7928 27.067 5.1845 6.4558 2.7911 13.328 2.3694 20.164 2.4916 4.7958 2.5191 10.013 4.223 15.586 3.0396 4.6679 0.91374 7.6255 5.8547 12.774 6.8576 4.7436 3.0321 5.7276 9.8809 12.132 11.017 7.338-0.64723 7.1697 5.8634 10.98 10.233 4.2105 4.648 10.732 7.4327 17.02 6.5482 3.6756 7.3638 12.56 11.346 20.562 10.188 3.8241 17.21 32.117 19.581 38.107 2.7234 2.0398-5.1675 1.238-11.194-1.0758-16.161 12.824-6.677 10.833-29.137-4.0132-31.915-5.5959-2.4526-3.5878-10.947-10.244-12.714-6.1386-1.4791-5.4597-6.9573-7.18-11.714-3.6203-7.184-11.876-11.997-19.938-10.844-3.6086-6.7037-11.497-10.885-19.062-10.25-3.0496-10.274-15.844-15.835-25.656-12.094-5.4756-5.9147-14.975-7.9519-22.375-4.7188-4.0957-2.4299-9.0622-2.7701-13.688-2.625zm4.065 3.9187c-7.7226-1.8231-11.273 8.7898-17.824 6.2319-9.9887-1.4999-20.854 8.533-17.032 18.732-0.49997 1.9713-9.735-0.92686-12.868 2.9673-8.7011 4.6156-9.5571 18.131-1.2468 23.579 6.8763 6.564 17.377 1.4609 23.21-0.21427 6.9605 7.6471 16.923-1.2575 23.198 5.3372 6.3807 3.9575 13.724-3.1818 17.291 4.6591 4.862 3.9822 11.625 2.2458 12.781 9.5985 2.874 5.6496 11.904 5.9535 15.194 6.8364-0.16385 9.8018 11.044 17.17 20.086 14.01 2.5167 8.8291 13.351 13.145 21.605 9.7898-0.82237 12.48 15.588 19.52 25.275 12.831 10.173-4.3803 6.6734-18.729 3.2601-23.195 8.5938-2.6354 13.302-14.018 7.4037-21.372-3.5981-7.1806-14.753-3.3932-13.738-12.488-1.5209-6.0196-9.9412-7.7023-12.685-10.079 3.4027-10.734-9.6189-20.686-19.558-17.011-2.3502-7.965-11.821-12.818-19.664-10.127-0.5219-11.215-14.611-17.336-23.884-11.984-4.476-6.8376-14.307-9.1587-21.352-4.9793-2.7792-1.8848-6.0604-3.1447-9.4522-3.1226z"/>
  <path d="m428.96 295.55c0 47.115-5.3488 75.192-39.628 75.192-24.118 0-39.628-39.254-39.628-86.37s5.3488-85.353 29.467-85.353 49.789 49.416 49.789 96.531z" fill="url(#d)"/>
  <path transform="matrix(.5015 .72492 -.70056 .48464 241.53 -81.743)" d="m236.78 173.93a3.654 4.3848 0 1 1 -7.3081 0 3.654 4.3848 0 1 1 7.3081 0z" fill="url(#c)"/>
  <path transform="matrix(.65329 .86361 -.9126 .57735 273.12 -121.32)" d="m236.78 173.93a3.654 4.3848 0 1 1 -7.3081 0 3.654 4.3848 0 1 1 7.3081 0z" fill="url(#c)"/>
  <path d="m374.47 195.47c-17.096 4.2305-22.606 23.215-25.312 38.469-4.6776 36.59-6.2272 75.082 6.6429 110.26 5.6624 15.332 18.344 31.622 36.381 30.479 16.895-0.04058 32.609-12.482 35.726-29.254 5.8672-21.441 5.5696-44.139 3.9516-66.135-3.569-27.727-13.067-56.411-33.67-76.167-6.6449-5.3611-14.972-9.4281-23.719-7.6562zm54.488 100.08c0 47.115-5.3488 75.192-39.628 75.192-24.118 0-39.628-39.254-39.628-86.37s5.3488-85.353 29.467-85.353 49.789 49.416 49.789 96.531z"/>
  <path d="m369.12 206.91c-13.23 15.162-13.194 36.542-14.802 55.498-1.3224 31.146-1.2221 64.892 16.14 92.044 2.0639 5.39 7.9949 8.765 11.249 2.2002 5.3242-9.3547 1.6021-20.753 2.7276-30.993-0.12673-36.738 0.41589-73.651-0.70361-110.28-2.148-5.3648-8.5854-10.574-14.612-8.4722z" fill="url(#i)"/>
  <path d="m168.79 260.74c2.2258 3.0949 2.5138 7.0241 3.5764 10.58 0.76617 3.013 2.1413 5.8537 4.0147 8.3324 1.9016 2.8564 3.4875 6.2745 2.8246 9.7888-0.41103 2.7378-1.692 5.5434-4.0279 7.1334-2.0196 0.63783-3.4402-1.4346-4.2522-2.9711-1.7863-3.2544-1.3372-7.0711-1.7422-10.631-0.27532-3.4932-0.38613-7.0008-0.55897-10.496-0.53548-3.2404-2.0661-6.5678-0.95797-9.8597 0.14883-0.69482 0.20011-1.7945 1.1235-1.8766z" fill="#8a6223"/>
  <path d="m178.54 311.15c0.33763 7.9696-1.084 16.145 1.2871 23.923 1.7562 6.7912 3.731 13.586 4.3858 20.594 0.37944 0.98257-0.70872 2.9127-1.4114 1.2666-2.1995-7.6458-4.7897-15.248-5.7985-23.171-0.55268-5.9078 0.62674-11.958-0.15366-17.756-0.28427-2.1123 1.4554-4.0681 1.6385-5.5431l0.0118 0.37101 0.04024 0.31617z" fill="#8a6223"/>
  <path d="m221.36 274.04c-5.0768 0.98838-9.0512 4.551-13.627 6.7093-2.9988 1.5136-6.2726 2.3356-9.5505 2.975-3.834 0.9533-7.8764 2.6063-10.039 6.1169-1.4768 2.1819-2.3714 4.9869-1.5827 7.5901 1.2792 1.7042 3.7125 1.3219 5.5058 0.84057 3.903-0.91105 6.8379-3.7844 9.7744-6.3154 3.5517-2.809 6.8854-5.882 10.334-8.8109 2.9486-2.029 6.6309-3.3546 8.5355-6.578 0.33291-0.75821 1.5355-1.7058 0.64972-2.5275z" fill="#8a6223"/>
 </g>
</svg>
