<?xml version="1.0" encoding="UTF-8"?>
<svg viewBox="0 0 640 480" xmlns="http://www.w3.org/2000/svg" xmlns:xlink="http://www.w3.org/1999/xlink">
 <defs>
  <linearGradient id="f" x1="4.0737" x2="-1.571" y1="-.048109" y2="-.048109" gradientTransform="scale(.65013 1.5381)" xlink:href="#a"/>
  <linearGradient id="g" x1="1.9337" x2="2.8371" y1="-.37225" y2="-.37225" gradientTransform="scale(.65598 1.5244)" xlink:href="#a"/>
  <linearGradient id="e" x1="-.44074" x2="-.86501" y1="28.484" y2="28.484" gradientTransform="scale(2.2953 .43567)">
   <stop stop-color="#b95600" offset="0"/>
   <stop stop-color="#caa07f" offset="1"/>
   <stop stop-color="#dcebff" stop-opacity="0" offset="1"/>
  </linearGradient>
  <linearGradient id="a">
   <stop stop-color="#dcebff" offset="0"/>
   <stop stop-color="#87acc6" offset="1"/>
   <stop stop-color="#dcebff" stop-opacity="0" offset="1"/>
  </linearGradient>
 </defs>
 <g fill-rule="evenodd">
  <path d="m200.14 445.07s-27.025-1.124-4.146 5.6307c22.879 6.7548 145.66 20.864 157.52 20.864 11.863 0 28.048 0.037231 46.768-1.9299 20.089-0.59924-13.528-7.1949-25.155-10.615l-174.99-13.95z" fill-opacity=".281"/>
  <path d="m209.06 446.1s-33.288-2.703-12.861 2.0273c20.427 4.7304 139.2 18.922 149.8 18.922 10.592 0 52.74 2.6948 44.418-2.0355-8.322-4.7304-24.706-6.0655-24.706-6.0655l-156.65-12.848z" fill-opacity=".195"/>
  <path d="m312.23 5.6636l-4.2797 420" fill="none" stroke="#8f0000" stroke-width="5"/>
  <g stroke="#000">
   <path d="m190.45 426.95l216.05-4.0009s-4.0009 10.669-12.003 20.004c-8.0018 9.3353-14.67 12.003-21.338 16.004-6.6682 4.0008-10.669 4.0008-10.669 4.0008s-49.344-4.0008-84.018-6.6681c-34.674-2.6672-68.015-8.0018-68.015-8.0018l-20.004-21.338z" fill="url(#e)"/>
   <path d="m145.1 377.61s53.345-133.36 82.685-193.38c29.34-60.013 84.018-172.04 84.018-172.04l-1.3336 396.09-165.37-30.673z" fill="url(#f)"/>
  </g>
  <path d="m142.24 377.13l151.93 29.958" fill="none" stroke="#800" stroke-width="2.7"/>
  <path d="m275.8 417.62l36.008-282.73s20.004 30.674 36.008 68.015c16.004 37.342 58.68 110.69 49.344 138.7-9.3354 28.006-17.337 64.014-33.341 72.016-16.004 8.0018-24.005 8.0018-24.005 8.0018s-50.678-1.3336-64.014-4.0008z" fill="url(#g)" stroke="#000"/>
  <g fill-opacity=".114">
   <path d="m310.47 30.867v18.671s-34.674 149.37-40.009 162.7c-5.3345 13.336-14.67 37.342-5.3345 16.004l45.343-197.38z"/>
   <path d="m309.14 109.55s-18.671 110.69-21.338 140.03c-2.6672 29.34-8.0018 81.351-8.0018 81.351s9.3354-129.36 13.336-152.03c4.0009-22.672 16.004-69.349 16.004-69.349z"/>
   <path d="m259.79 181.57l40.009-117.36s-22.672 54.679-28.006 70.682c-5.3345 16.004-12.003 46.677-12.003 46.677z"/>
   <path d="m329.14 202.9s12.003 42.676 12.003 65.348-1.3336 41.342-1.3336 41.342 6.6682-33.341 4.0009-54.679-14.67-52.011-14.67-52.011z"/>
   <path d="m327.81 416.28s28.006 0 37.342-10.669c9.3354-10.669 20.004-34.674 24.005-53.345 4.0008-18.671 4.0008-37.342-4.0009-54.679-8.0018-17.337-16.004-36.008-16.004-36.008s20.004 50.678 16.004 70.682c-4.0008 28.006-10.669 41.342-17.337 52.012-2.6673 9.3353-5.3345 17.337-18.671 25.339-13.336 8.0018-21.338 6.6682-21.338 6.6682z"/>
  </g>
  <path d="m198.04 430.96s174.7 1.3336 189.38-1.3336" fill="none" stroke="#9c0000" stroke-width="2.2"/>
  <path d="m203.78 437.62l6.9319 9.6066 59.538 7.9867c75.429 4.2797 84.229 5.8845 93.565 4.551 15.755-8.2882-77.328-6.6531-115.5-11.731-16.772-1.8686-24.533-3.7448-32.534-6.4119-8.0018-2.6673-12.003-4.0008-12.003-4.0008z" fill-opacity=".184"/>
 </g>
</svg>
