<?xml version="1.0" encoding="UTF-8"?>
<svg viewBox="0 0 96 96" xmlns="http://www.w3.org/2000/svg" xmlns:xlink="http://www.w3.org/1999/xlink">
 <defs>
  <filter id="bp">
   <feGaussianBlur stdDeviation=".2303"/>
  </filter>
  <filter id="bo">
   <feGaussianBlur stdDeviation=".2758"/>
  </filter>
  <linearGradient id="d">
   <stop stop-opacity=".5187" offset="0"/>
   <stop stop-opacity="0" offset="1"/>
  </linearGradient>
  <linearGradient id="e">
   <stop stop-color="#d1d1d1" offset="0"/>
   <stop stop-color="#9a9a9a" offset=".5"/>
   <stop stop-color="#646464" offset="1"/>
  </linearGradient>
  <linearGradient id="b">
   <stop stop-color="#fee3fa" offset="0"/>
   <stop stop-color="#fed6f8" offset=".25"/>
   <stop stop-color="#fec9f7" offset=".5"/>
   <stop stop-color="#ffb0f5" offset="1"/>
  </linearGradient>
  <linearGradient id="f">
   <stop stop-opacity=".285" offset="0"/>
   <stop stop-color="#ffefef" stop-opacity=".2944" offset="1"/>
  </linearGradient>
  <linearGradient id="g">
   <stop offset="0"/>
   <stop stop-opacity="0" offset="1"/>
  </linearGradient>
  <linearGradient id="c">
   <stop stop-color="#ffcefa" offset="0"/>
   <stop stop-color="#ecabe6" offset=".2909"/>
   <stop stop-color="#da88d2" offset=".6094"/>
   <stop stop-color="#b642aa" offset="1"/>
  </linearGradient>
  <linearGradient id="h">
   <stop stop-color="#ffcefa" offset="0"/>
   <stop stop-color="#ecabe6" offset=".2909"/>
   <stop stop-color="#da88d2" offset=".5"/>
   <stop stop-color="#b642aa" offset="1"/>
  </linearGradient>
  <linearGradient id="a">
   <stop stop-color="#ffcefa" offset="0"/>
   <stop stop-color="#ecabe6" offset=".25"/>
   <stop stop-color="#da88d2" offset=".5"/>
   <stop stop-color="#b642aa" offset="1"/>
  </linearGradient>
  <linearGradient id="bn" x1="26.979" x2="26.031" y1="41.276" y2="42.479" gradientUnits="userSpaceOnUse" xlink:href="#a"/>
  <linearGradient id="bm" x1="29.407" x2="28.932" y1="39.836" y2="40.788" gradientUnits="userSpaceOnUse" xlink:href="#a"/>
  <linearGradient id="bl" x1="28.884" x2="27.883" y1="40.256" y2="40.406" gradientUnits="userSpaceOnUse" xlink:href="#a"/>
  <linearGradient id="bk" x1="31.379" x2="31.329" y1="37.345" y2="38.297" gradientUnits="userSpaceOnUse" xlink:href="#a"/>
  <linearGradient id="bj" x1="33.215" x2="31.934" y1="38.189" y2="38.59" gradientUnits="userSpaceOnUse" xlink:href="#a"/>
  <linearGradient id="bi" x1="32.047" x2="38.406" gradientUnits="userSpaceOnUse" xlink:href="#a"/>
  <linearGradient id="bh" x1="37.92" x2="36.432" y1="36.898" y2="36.648" gradientUnits="userSpaceOnUse" xlink:href="#a"/>
  <linearGradient id="bg" x1="35.953" x2="41.609" gradientUnits="userSpaceOnUse" xlink:href="#a"/>
  <linearGradient id="bf" x1="39.766" x2="41.422" gradientUnits="userSpaceOnUse" xlink:href="#a"/>
  <linearGradient id="be" x1="43.907" x2="44.968" gradientUnits="userSpaceOnUse" xlink:href="#a"/>
  <linearGradient id="bd" x1="39.996" x2="47.244" gradientUnits="userSpaceOnUse" xlink:href="#a"/>
  <linearGradient id="bc" x1="44.959" x2="46.338" gradientUnits="userSpaceOnUse" xlink:href="#a"/>
  <linearGradient id="bb" x1="46.095" x2="48.574" gradientUnits="userSpaceOnUse" xlink:href="#a"/>
  <linearGradient id="ba" x1="47.04" x2="48.26" gradientUnits="userSpaceOnUse" xlink:href="#a"/>
  <linearGradient id="az" x1="43.937" x2="44.74" y1="28.807" y2="30.786" gradientUnits="userSpaceOnUse" xlink:href="#a"/>
  <linearGradient id="ay" x1="55.875" x2="54.25" y1="44.375" y2="41.125" gradientUnits="userSpaceOnUse" xlink:href="#f"/>
  <linearGradient id="ax" x1="43.825" x2="43.629" y1="48.321" y2="49.205" gradientUnits="userSpaceOnUse" xlink:href="#a"/>
  <linearGradient id="aw" x1="41.04" x2="40.413" y1="49.474" y2="50.313" gradientUnits="userSpaceOnUse" xlink:href="#a"/>
  <linearGradient id="av" x1="43.004" x2="42.044" y1="1004.7" y2="1005.1" gradientUnits="userSpaceOnUse" xlink:href="#a"/>
  <linearGradient id="au" x1="48.658" x2="47.641" y1="46.049" y2="46.535" gradientUnits="userSpaceOnUse" xlink:href="#a"/>
  <linearGradient id="at" x1="48.26" x2="47.998" y1="44.724" y2="45.74" gradientUnits="userSpaceOnUse" xlink:href="#a"/>
  <linearGradient id="as" x1="49.984" x2="49.582" y1="42.419" y2="44.01" gradientUnits="userSpaceOnUse" xlink:href="#a"/>
  <linearGradient id="ar" x1="52.151" x2="50.735" y1="43.961" y2="44.668" gradientUnits="userSpaceOnUse" xlink:href="#a"/>
  <linearGradient id="aq" x1="56.238" x2="55.066" y1="41.76" y2="42.29" gradientUnits="userSpaceOnUse" xlink:href="#a"/>
  <linearGradient id="ap" x1="53.652" x2="53.371" y1="40.452" y2="41.778" gradientUnits="userSpaceOnUse" xlink:href="#a"/>
  <linearGradient id="ao" x1="54.33" x2="54.167" y1="36.989" y2="37.917" gradientUnits="userSpaceOnUse" xlink:href="#a"/>
  <linearGradient id="an" x1="58.869" x2="57.965" y1="38.125" y2="38.523" gradientUnits="userSpaceOnUse" xlink:href="#h"/>
  <linearGradient id="am" x1="62.326" x2="62.156" y1="38.018" y2="38.46" gradientUnits="userSpaceOnUse" xlink:href="#h"/>
  <linearGradient id="al" x1="64.268" x2="62.732" y1="36.823" y2="37.707" gradientUnits="userSpaceOnUse" xlink:href="#c"/>
  <linearGradient id="ak" x1="57.548" x2="57.88" y1="34.363" y2="34.761" gradientUnits="userSpaceOnUse" xlink:href="#c"/>
  <linearGradient id="aj" x1="56.906" x2="57.421" y1="33.915" y2="34.49" gradientUnits="userSpaceOnUse" xlink:href="#c"/>
  <linearGradient id="ai" x1="54.542" x2="54.739" y1="33.772" y2="34.259" gradientUnits="userSpaceOnUse" xlink:href="#c"/>
  <linearGradient id="ah" x1="55.324" x2="55.343" y1="34.672" y2="35.026" gradientUnits="userSpaceOnUse" xlink:href="#c"/>
  <radialGradient id="o" cx="62.91" cy="1008.4" r="5.4421" gradientTransform="matrix(.1042 1.1485 -1.4854 .13477 1554.2 798.93)" gradientUnits="userSpaceOnUse">
   <stop stop-color="#fee3fa" offset="0"/>
   <stop stop-color="#fed6f8" stop-opacity="0" offset=".1426"/>
   <stop stop-color="#fec9f7" offset=".5"/>
   <stop stop-color="#ffb0f5" offset="1"/>
  </radialGradient>
  <radialGradient id="l" cx="75.106" cy="39.066" r="6.2628" gradientTransform="matrix(.39932 -1.6709 1.1267 .26927 1.0995 1109.9)" gradientUnits="userSpaceOnUse">
   <stop stop-opacity=".8131" offset="0"/>
   <stop stop-opacity="0" offset="1"/>
  </radialGradient>
  <radialGradient id="j" cx="41.523" cy="73.799" r="1.736" gradientTransform="matrix(-.56812 .82295 -.93878 -.64808 134.39 1044)" gradientUnits="userSpaceOnUse">
   <stop offset="0"/>
   <stop stop-color="#676767" offset="1"/>
  </radialGradient>
  <radialGradient id="ag" cx="14.217" cy="60.264" r="9.8146" gradientTransform="matrix(-1.7947 .83389 -.37685 -.81108 71.787 94.582)" gradientUnits="userSpaceOnUse" xlink:href="#d"/>
  <radialGradient id="af" cx="29.812" cy="43.541" r="14.312" gradientTransform="matrix(.41569 .9095 -1.4236 .65066 79.403 -15.757)" gradientUnits="userSpaceOnUse" xlink:href="#f"/>
  <radialGradient id="ae" cx="11.118" cy="50.415" r="8.4926" gradientTransform="matrix(.73872 1.0133 -1.9215 1.4008 99.778 -31.01)" gradientUnits="userSpaceOnUse" xlink:href="#b"/>
  <radialGradient id="ad" cx="30.188" cy="46.25" r="7.5625" gradientTransform="matrix(-.55372 .67769 -.49279 -.40264 69.694 45.665)" gradientUnits="userSpaceOnUse" xlink:href="#b"/>
  <radialGradient id="ac" cx="39.984" cy="43.25" r="3.5156" gradientTransform="matrix(1 0 0 .90667 0 4.0367)" gradientUnits="userSpaceOnUse" xlink:href="#b"/>
  <radialGradient id="ab" cx="47.438" cy="38.875" r="4.9375" gradientTransform="matrix(1 0 0 .87342 0 4.9209)" gradientUnits="userSpaceOnUse" xlink:href="#b"/>
  <radialGradient id="aa" cx="70.188" cy="34.438" r="2.5" gradientTransform="matrix(1 0 0 1.3251 0 -11.197)" gradientUnits="userSpaceOnUse" xlink:href="#b"/>
  <radialGradient id="z" cx="62.927" cy="32.759" r="6.6773" gradientTransform="matrix(-.02036 -.99979 1.3104 -.02669 21.28 95.73)" gradientUnits="userSpaceOnUse" xlink:href="#g"/>
  <radialGradient id="y" cx="4.9448" cy="51.509" r="6.3052" gradientTransform="matrix(.70263 1.2093 -1.0522 .61133 55.667 13.171)" gradientUnits="userSpaceOnUse" xlink:href="#e"/>
  <radialGradient id="x" cx="45.965" cy="29.684" r="1.3811" gradientTransform="matrix(-1.0135 1.3968 -.38311 -.27799 103.92 -26.044)" gradientUnits="userSpaceOnUse" xlink:href="#a"/>
  <radialGradient id="w" cx="45.821" cy="985.21" r="1.286" gradientTransform="matrix(-.47493 1.1793 -.88015 -.35445 934.72 1280.7)" gradientUnits="userSpaceOnUse" xlink:href="#a"/>
  <radialGradient id="v" cx="42.305" cy="26.823" r="4.3089" gradientTransform="matrix(-1.0989 1.0523 -.43182 -.45091 101.51 -5.0266)" gradientUnits="userSpaceOnUse" xlink:href="#a"/>
  <radialGradient id="u" cx="54.035" cy="67.625" r="35.212" gradientTransform="matrix(.22238 .97496 -1.0614 .24211 113.8 -1.4292)" gradientUnits="userSpaceOnUse" xlink:href="#g"/>
  <radialGradient id="t" cx="47.423" cy="1014.9" r="12.696" gradientTransform="matrix(-2.446 1.5753 -.32168 -.49947 489.88 1448.4)" gradientUnits="userSpaceOnUse" xlink:href="#b"/>
  <radialGradient id="s" cx="23.472" cy="1012" r="11.336" gradientTransform="matrix(-.12598 .78236 -.94093 -.15152 978.63 1148.7)" gradientUnits="userSpaceOnUse" xlink:href="#b"/>
  <radialGradient id="r" cx="45.214" cy="46.986" r="11.466" gradientTransform="matrix(.21542 .25606 -1.5511 1.3049 104.57 930.64)" gradientUnits="userSpaceOnUse" xlink:href="#d"/>
  <radialGradient id="q" cx="56.768" cy="1013.5" r="6.1628" gradientTransform="matrix(1 0 0 1.2602 0 -263.69)" gradientUnits="userSpaceOnUse" xlink:href="#b"/>
  <radialGradient id="p" cx="62.91" cy="1008.3" r="5.9421" gradientTransform="matrix(1 0 0 1.4502 0 -455.14)" gradientUnits="userSpaceOnUse" xlink:href="#b"/>
  <radialGradient id="n" cx="66.665" cy="1003.5" r="14.413" gradientTransform="matrix(1.3015 .49422 -.06876 .18107 50.187 789.16)" gradientUnits="userSpaceOnUse" xlink:href="#b"/>
  <radialGradient id="m" cx="78.454" cy="1005" r="6.6639" gradientTransform="matrix(.98649 .16379 -.20634 1.2427 208.35 -257.5)" gradientUnits="userSpaceOnUse" xlink:href="#b"/>
  <radialGradient id="k" cx="28.509" cy="1022" r="11.875" gradientTransform="matrix(1 0 0 .84557 0 157.83)" gradientUnits="userSpaceOnUse" xlink:href="#e"/>
  <radialGradient id="i" cx="60.506" cy="43.042" r="3.0838" gradientTransform="matrix(-1.8063 1.9382 -5.0553 -4.7112 388.62 120.27)" gradientUnits="userSpaceOnUse" xlink:href="#c"/>
 </defs>
 <g transform="matrix(1.0948 0 0 1.3179 -3.6006 -1280.6)">
  <g opacity=".99">
   <path transform="translate(0 956.36)" d="m13.75 59.125c-16.077 7.2384-6.5357 9.428 10.375 8.75z" fill="url(#ag)" filter="url(#bo)"/>
   <path transform="translate(0 956.36)" d="m10.375 45.875c5.4732-2.2705 12.371-3.7332 14.125-5.375l12.5-6.75c2.3222-1.0472 4.1427-2.3734 6.125-2.625 2.7633-2.4263 5.0357-1.4169 7.5-1.75 1.0833-0.42089 2.1667-0.30025 3.25 2.25 5.9706-0.31673 5.9889-2.465 8-4 1.1034-1.5555 0.97547-4.1186 5.5-2.875 2.573 1.7917 3.5919 3.5833 3.5 5.375 0.58333 2.0167 1.1667 4.259 1.75 5-16.791 11.381-36.971 16.408-56.25 23.125-2.5024 0.7449-4.0619-0.38383-7.625-1.875-4.6475-2.497-5.9286-5.6678 1.625-10.5z" fill="#aaf9fa"/>
   <path transform="translate(0 956.36)" d="m51 29.375c-5.5105-0.74685-16.324 5.8645-25.875 11.375-2.7521 3.3183-0.76819 2.8479 1.375 2.25 8.4836-3.7056 13.557-6.8428 20.25-10.25 2.3311 0.58001 4.0757 0.28021 5.75-0.125l1.25-1.25c-0.2871-1.9258-1.1304-2.7392-2.75-2z" fill="url(#af)"/>
   <path transform="translate(0 956.36)" d="m7.125 48.125c1.1811 0.70833 2.3562 1.9167 2.875 2.625 1.7604 2.3668-3.1849 3.2367-1.25 6 3.4167 1.5679 5.4583 1.8531 8.125 2 1.7578-2.824 0.01032-0.78758 5.625-6.875 2.2603-1.2687 0.51366-1.7361-0.375-2.375-6.9293-0.18679-11.524-1.4398-12.125-3.625-1.3013 0.47564-2.4018 1.1119-2.875 2.25z" fill="url(#ae)"/>
   <path transform="translate(0 956.36)" d="m22.438 49.875 2.8125-0.4375c0.98656-0.44198 2.1096-0.83845 2.625-1.4375 0.875-0.33333 1.1667-1.0833 0.875-2.25l2.625-0.875c0.67306 2.5 2.0824 3.4048 3.75 3.75l-4.6875 1.875c-2.192-0.75866-5.1556 0.98787-6.6875 2.375-1.4958 0.72379-2.5281 1.1042-3.75 1.625 1.4506-1.7133 4.1539-4.1182 2.4375-4.625z" fill="url(#ad)"/>
   <path transform="translate(0 956.36)" d="m40.562 40.312c1.0109 1.2116 2.1491 2.3808 2.6875 3.75-1.6774 0.84387-2.5792 1.4292-3.8125 2.125-0.67999-1.0535-1.2201-2.4122-2.8438-3.9375 1.2429-0.71491 2.3184-1.2826 3.9688-1.9375z" fill="url(#ac)"/>
   <path transform="translate(0 956.36)" d="m42.312 39.312c2.3998-1.255 5.203-2.5838 7.4375-4.5 0.99003 0.98714 2.175 1.8183 2.375 3.4375-2.06 1.4786-4.4608 3.0423-7.1875 4.6875-0.30993-1.1875-1.6596-2.4375-2.625-3.625z" fill="url(#ab)"/>
   <path transform="translate(0 956.36)" d="m19.438 43c1.1721 0.66486 2.9067 1.1839 3.625 2 1.3144 0.80302 2.5636 1.6452 7.125 0.5 7.5239-3.9923 14.952-6.926 22.625-12.562-2.5065-1.3908-4.4658-1.0034-6.3125-0.25-6.8033 2.8389-12.241 7.2473-19.5 10.188l-2.375 0.875c-0.45097-0.56047-1.2798-0.86906-0.3125-2.375 4.3426-2.7338 8.6825-5.4783 13.188-7.5625-4.1667 1.5417-11.107 5.4864-18.062 9.1875z" fill="#ffc3f7"/>
   <path transform="translate(0 956.36)" d="m70.875 31.125c-0.26342 2.3705-1.4255 4.4415-3.1875 6.3125 0.16097 1.1321 2.9985-1.0815 5-2.25z" fill="url(#aa)"/>
   <path transform="translate(0 956.36)" d="m53.625 32.125c3.5513 0.91893 7.4297 4.0466 10.375 0.875 0.11161-1.551 0.29404-3.1905 1.0625-5.5625l1.375-1.0625c0.26397-1.8601-0.77459-0.89811-1.4375-0.75-1.9527 4.542-5.4276 7.1178-11.375 6.5z" fill="url(#z)"/>
   <path transform="translate(0 956.36)" d="m9.0625 56.688c0.53737 1.0171 3.1153 2.4146 8.0625 4.375l0.125-2.6875c-2.8575 0.721-5.4814-0.89402-8.1875-1.6875z" fill="#dfdfdf"/>
   <path transform="translate(0 956.36)" d="m7.8125,48.6875c.73244.49673 1.46764.99069 1.875,1.8125 1.20576.84059 1.14549,2.01435-.8125,3.6875-.99099,1.0625-.49751,2.125.5,3.1875 2.53396,1.37715 6.0119,3.11483 7.375,3.5625l.0625,2.25-1.8125-.9375c-.35585-1.35828-.91726-1.94569-1.9375-.8125l-4.4375-2.5625c.17609-.569.23592-1.08633-1.0625-1-1.12284-.81358-1.81103-1.84448-2.625-2.8125-.80423-1.73826-1.32332-3.56563.5-6.125 .62214-.59191.97389-1.99499 2.375-.25z" fill="url(#y)"/>
  </g>
  <path transform="translate(0 956.36)" d="m23.875,41c1.09459.43765 1.94997-.16125 3.5,2.25 .76815.9241 1.37766,1.05498 1.8125.3125-.22104-1.56472-2.53924-2.6143-4.125-3.75-1.78233.0177-1.08804.71084-1.1875,1.1875z" fill="url(#bn)"/>
  <path transform="translate(0 956.36)" d="m26,40.3125 4.625.75 .8125-.5-4.4375-.75z" fill="url(#bm)"/>
  <path transform="translate(0 956.36)" d="m28.25,42.0625 .39063-.10938c.09928-.98497.1486-2.01159 0-3.20313l-.85938.46875c.08394.77157.17766,1.52681.14063,2.5z" fill="url(#bl)"/>
  <path transform="translate(0 956.36)" d="m28.17188,38.3125c.43438-.57993.29753-1.49058 2.20313-1.21875 4.57945.89374 3.97131,1.39572 4.8125,1.5625l-.90625.59375c-.61829-.51952-1.5694-.99943-3.92188-1.3125-2.09556-.18554-1.78852.17496-2.1875.375z" fill="url(#bk)"/>
  <path transform="translate(0 956.36)" d="m32.0625,36.76563 .92188-.5625c.31169,1.91065.40163,3.24017.45313,4.89063-.04167,1.0467-1.02083.6493-1.0625.39063-.0422-1.6039-.0324-3.2338-.3125-4.71875z" fill="url(#bj)"/>
  <path transform="translate(0 956.36)" d="m32.047 36.203c0.34114-0.138 0.71142-0.36344 1.0156-0.39063 1.3824-0.05177 2.9598 1.0011 4.4531 1.5781l0.89063-0.51563c-1.5287-0.72166-3.0672-1.4922-4.5156-1.8125-1.4902-0.18474-1.5997 0.52134-1.8438 1.1406z" fill="url(#bi)"/>
  <path transform="translate(0 956.36)" d="m36.01563,34.73438c.2017-.17476.53742-.57528 1-.28125 .39987,1.64663.38058,3.34566.46875,5.03125-.39985.86415-.69343.29356-1.01563.10938-.03062-1.61979.23009-3.23958-.45313-4.85938z" fill="url(#bh)"/>
  <path transform="translate(0 956.36)" d="m35.953 34.234c1.1134-0.58879 2.8061-0.4397 5 1.1719l0.65625-0.28125c-1.1652-0.63068-0.92336-1.5146-3.9375-1.8125-1.7238-0.14184-1.6464 0.41922-1.7188 0.92188z" fill="url(#bg)"/>
  <path transform="translate(0 956.36)" d="m39.76563,33.0625c.05891,1.8987.01429,3.83874.67188,4.51563 .87861.7474.8863-.01102.98438-.15625-.90502-1.58588-.55953-3.89984-.65625-4.35938-.34657-.42281-.52885-.53233-1,0z" fill="url(#bf)"/>
  <path transform="translate(0 956.36)" d="m44.32676,35.05623c-.41038-1.21354-.4113-2.48556-.41984-3.75651 .07274-.55334.33074-.42737.57452-.35355-.04452,1.42903.06071,2.82062.48614,4.13216-.25489.61196-.4421.20855-.64082-.0221z" fill="url(#be)"/>
  <path transform="translate(0 956.36)" d="m40.65864,31.96264c1.82514.46907 3.68443.88595 5.56847.88388 .13328-.12522.36659-.25043 1.01647-.37565-1.71621-.24426-3.74177-.33135-5.45798-.99437-1.19623-.07147-1.36718.4139-1.78986.7292z" fill="url(#bd)"/>
  <path transform="translate(0 956.36)" d="m45.36532,30.0181c-.94825,4.12771.05315,8.36178.11049,12.48485l.86179-.57452c-.40891-3.70239-.88584-7.75309-.22097-11.42419-.07353-.65738-.386-.64571-.7513-.48614z" fill="url(#bc)"/>
  <path transform="translate(0 956.36)" d="m48.08326,32.82443c.27473.04998.61948.19624.44194-.37565l-1.76777-2.58536c-.59045-.16276-.65214-.0083-.66291.17678z" fill="url(#bb)"/>
  <path transform="translate(0 956.36)" d="m47.97278,30.0181c-.18818.35719-.48216.42342-.90598.13258-.6673-.0869-.90073.04314-.86179.30936-.36299.32589-.69025.36599-.99437.22097 .6099-1.5337 1.62478-1.47866 2.76214-.66291z" fill="url(#x)"/>
  <path transform="translate(0 956.36)" d="m47.06679,29.70874c.4808-.04038.63449.27624.88388.64082-.0057,3.32962.03509,6.66855.30936,10.05417-.29463.16204-.55812.13725-.90598.61872-.18453-3.68246-.3883-7.34568-.28726-11.31371z" fill="url(#ba)"/>
  <path d="m47.70838,986.17924c-.40915.0257-.69285.0713-1.11668-.21957-.49053-.0206-.90073.0431-.86179.30936-.36299.32589-.24831.56486-.61872.7734-.47286-2.32919 1.75455-2.29779 2.59718-.86319z" fill="url(#w)"/>
  <path transform="translate(0 956.36)" d="m45.741 28.935c-1.5532-1.8142-2.9444-0.95017-4.1542-0.13258-1.7552 1.2858-3.1355 2.8596-4.4636 4.4415 0.45271-0.10142 1.0914-0.35161 1.2816-0.24307 1.2893-1.5915 4.5323-5.4595 7.3362-4.0659z" fill="url(#v)"/>
  <path transform="translate(0 956.36)" d="m45.542 28.913c-2.0847-1.0511-4.1988 1.0137-4.9276 1.6573-0.73591 0.51959-1.4293 1.3004-1.9887 2.2318l1.1932-0.50823c0.91808-1.3076 4.086-4.1509 5.1928-2.3644z" fill="url(#az)"/>
  <g transform="translate(0,-.125)">
   <path transform="translate(0 956.36)" d="m24.125 69.625c-11.132 5.0964-1.7732 8.0718 5.125 9 28.552-0.09246 39-9.375 43.375-9.375 15.888-2.8344 16.888-4.4777 16.375-6l-7.625-6.625-56.5 13.25z" fill="url(#u)" filter="url(#bp)" opacity=".3156"/>
   <path d="m54.514 993.05-15.532 10.221-6.4134 3.0063c-4.3523 1.125-6.3374 2.1429-8.618 3.0062-7.1388 2.7491-10.256 6.2163-2.5052 11.624 3.6216 1.883 7.3508 3.6043 12.025 3.9082 4.142 1.1159 8.2839 0.533 12.426 0.7014 2.0706-0.1339 3.9044-0.5048 5.7119-0.9018 2.5909-1.3593 4.761-1.4562 7.1148-2.1044 1.3361-0.8725 2.6722-1.3754 4.0084-2.0042 6.0082-2.809 7.986-5.1861 20.743-8.7182 1.731-0.8439 3.694-1.3399 4.4092-3.7077-0.65441-0.7022-0.42193-3.6216-0.60125-5.5115-0.33272-2.8713-1.0251-6.1023-1.6033-9.2192-0.90115-2.0708-0.39206-3.7184-3.7077-6.5136l-3.0063-0.90188c-2.2212-0.17523-3.3224 1.3295-4.5094 2.7056-0.1876 1.0997-1.6517 4.0847-7.4154 5.1106-0.97071-1.6979-3.1896-6.03-7.0146-1.5031-1.7656-0.37701-3.4897-1.1268-5.5115 0.80167z" fill="#b0feff"/>
   <path d="m46.688 1010.7-3.4062 0.5c0.96045 1.3696-3.4699 2.7555-5.5938 4.125-7.4303 8.4021-3.8415 8.2979-2.8125 10.125 6.9904 0.2423 13.009 0.9481 16.531-0.9062 1.802 0.3271 3.7238-0.6394 6.8125-2.125 1.6718-3.8585-4.7098-7.5657-7.2188-8.5-2.7725-1.4029-3.6442-2.3419-4.3125-3.2188zm-1.4375 4.9688c2.6555 0.1044 5.3132 0.9237 7.9688 2.3437 1.0889 1.6792 1.9872 3.326-0.59375 4.2188-3.645 0.6141-6.1473 0.7805-9.5312-0.4063-4.7017-1.6461-5.9294-3.554-0.5-6 0.88518-0.1277 1.7711-0.191 2.6562-0.1562z" fill="url(#t)"/>
   <path d="m22.948 1009.7c-1.3964 1.5372 5.2058 4.9353 15.031 5.8121 1.9298 0.1006 1.771 1.0714 0.50104 2.5052-5.1069 4.8679-2.763 5.2653-3.0063 7.215-6.3296-0.3572-10.59-2.5252-14.831-4.7098-5.3876-4.1026-5.6541-7.7876 2.3048-10.822z" fill="url(#s)"/>
   <path transform="translate(0 956.36)" d="m40.625 51.625c-9.0554-0.13096 8.4291-8.3396 19.125-15.75 1.9653-1.6926 2.4556-2.4825 7.125 1.375 1.7048 1.4084-3.6794-0.23142-2.4577 2.6592-5.0336 2.268-21.147 11.754-23.792 11.716z" fill="url(#ay)"/>
   <path d="m35.62 1005.1 20.064-12.86c2.7387-0.93667 3.6979-0.16745 2.0771 2.0771l-16.484 14.672c-1.3772-0.2325-4.9666-0.9048-5.6569-3.8891z" fill="url(#r)"/>
   <path d="m49.804 996.36c-3.2234 3.0434-6.8242 6.0029-12.426 8.5177-1.1128 0.9798-1.0556 1.7924-0.30063 2.5053l1.6033 0.8016c1.2025 0.6013 2.405-0.4008 3.6075-0.6012 7.21-4.3618 15.049-7.6758 21.545-13.228 1.892 0.75635 3.5524 1.281 4.9102 1.5031-6.1836 4.7104-13.424 9.5528-21.745 14.53-1.4924 0.4784-3.6638 1.8811-7.8163 0.5011-2.0009-1.4881-3.8148-3.0697-6.3132-4.309l-0.10021-0.4008c5.9935-2.516 11.572-6.5945 17.035-9.8205z" fill="#ffb0f5"/>
   <path d="m50.605 1007.9 4.0084-2.1044c4.0002 3.9235 7.9624 8.003 8.3173 14.53l-2.2046 1.0021c-0.02343-5.2247-6.5103-9.16-10.121-13.428z" fill="url(#q)"/>
   <path d="m56.718 1004.4c5.6422 5.0547 9.333 10.306 8.1169 14.831l2.6054-1.4029c0.91004-5.9449-2.2224-9.5318-4.309-13.729-1.8136-0.5561-3.0032-0.8002-4.309-1.1023z" fill="url(#p)" stroke="url(#o)"/>
   <path d="m66.238 1005.1c1.7332 2.7717 3.8398 4.9461 3.0063 11.825l3.0063-1.6033c-7e-3 -2.1918 0.13218-4.1278-0.90188-8.117-1.647-0.6448-3.213-1.2088-5.1106-2.1043z" fill="#ffb0f5"/>
   <path d="m73.35282,1007.8813c.82895,2.7755.80538,5.0394.30063,7.0146l3.20668-1.3027c.49648-.9606.40094-2.3159.10021-3.8079-1.2025-.9969-2.40501-1.4228-3.60752-1.904z" fill="#ffb0f5"/>
   <path d="m58.923 1002.9c3.9474-2.7268 6.0721-4.3871 6.8142-4.7098 5.8416 4.035 12.634 9.2986 21.545 5.2108 0.03482 1.2373 0.01182 2.4168 0.30063 3.9082 0.10121 0.5678 0.25385 1.1357 0.10021 1.7035-2.1051 2.3304-5.9221 3.7097-10.422 4.7098 1.0033-1.3586 0.78987-2.5144 0.20042-3.6075-6.3841-2.9905-12.398-5.3404-18.539-7.215z" fill="url(#n)"/>
   <path d="m73.954 1003.5c6.4629-1.1863 11.036-4.5294 11.624-10.522 0.83472 3.7963 1.6529 7.5706 1.7036 10.322-4.1065 4.3906-9.977 1.1402-13.328 0.2004z" fill="url(#m)"/>
   <path d="m67.841 994.75c3.9448-0.20171 7.6725-1.2239 9.7202-7.1148 0.39619-0.37752 0.19635-0.97856 2.6054-0.60125-0.9031 2.6386-2.0734 5.2237-1.7036 8.1169-0.23979 3.3538-3.4781 2.0286-4.9102 2.0042-1.7138-1.7527-3.7451-1.9175-5.7119-2.405z" fill="url(#l)"/>
   <path d="m20.042 1020.3c3.6255 3.0044 9.7828 6.9526 20.543 10.221 0.8827-1.4165 1.4795-0.5456 2.1044 0.1002 3.5027 0.4207 7.0219 1.4359 10.121 0.1002 0.60125-0.7071 1.2025-0.9274 1.8038-0.3006 3.4492-1.3978 7.1797-2.0925 9.62-6.0125 1.1106-1.2778 2.1257-2.7147 4.0084-2.7057l5.7119-1.0021c1.2386-0.6878 1.3609-0.073 1.0021 1.1023l-0.50104 1.3027 2.906-0.2004c0.94262-0.4261 1.8119-0.2652 3.0063-2.7056 0.87979-2.0954 3.492-2.8047 5.6117-3.9082l1.1023 0.2005c1.3644-1.1717 1.7935-2.811 2.1044-4.5094l-0.50104-0.9019c0.32299-1.429-0.37788-2.1754-0.80167-3.1065-0.4955 1.9673-3.2508 3.0057-5.8121 4.2088-7.5091 1.9785-13.566 4.4085-15.482 6.1628-3.2652 1.0419-7.4011 3.7354-9.1691 4.3591-4.7848 1.6693-9.566 3.3247-13.829 2.9061-9.5394 0.3686-15.874-1.7907-23.549-5.3111z" fill="#fff"/>
   <path d="m20.142 1012.4c-1.4622-1.4581-3.3708 0.9567-3.5073 3.5073l0.20042 3.6075c3.0152 2.9756 6.4297 5.9068 11.825 8.618l1.0021-0.8017 0.70146 0.5011 0.10021 1.4029 9.0188 2.8058 0.90188-1.5031c-6.82-2.6418-12.883-5.0787-18.639-8.8184-1.2675-0.8629-1.3684-2.0439 0.30063-3.7077 1.4446-1.0079 1.7276-2.1321 0.50104-3.4071z" fill="url(#k)"/>
   <path d="m42.53862,1030.6287c.60125,1.382.45094,1.749 1.05219,1.8038 2.29587.8741 4.98908.7548 7.81628.3006 1.65955-.4233 1.24861-1.4909.60125-1.8038-4.08581-.2249-6.2661-.028-9.46973-.3006z" fill="#858585"/>
   <path d="m64.58455,1023.9648c1.24673.39 6.15993-1.1242 7.6277-.9552s-.35958,1.47 1.14057,1.6066c.63465-.3842 1.56994-.5395 2.20459.1002 .88185-.067 1.3523-.1336 1.70355-.2004l1.20251-.6013c.57556-.4934 1.08907-.4438 1.60334-.4008 .94029.2822 1.62599-.1993 2.3048-.7015 .50104-.7206 1.00209-.549 1.50313-.501l1.70355-1.403c.81086.055 1.65135.2881 2.20459-1.2025 1.58411.1263 1.57693-1.7365 2.20459-2.8058 .30062-1.4586-.37493-3.3428-.85177-5.0605-.41951,1.5699-.97042,3.0396-1.90397,4.6096-3.59537-.556-6.01555,2.5744-7.06472,3.7077-1.1161,2.2507-2.89375,3.2084-5.61169,3.0563 .99769-2.3664.84561-3.8174-1.35282-2.4551-1.83716-.1202-3.4238.1708-5.26096.8518-1.78165-.016-2.70692,1.6727-3.35699,2.3549z" fill="#858585"/>
   <path d="m51.82529,1030.8807c1.9234,1.6494 3.60063.9046 4.82592.8088-.12693-.7988-.19291-1.5526 1.80689-.7795 1.00675-.067.95581-.3988 1.27545-.6377-.0045-.663-.67319-1.7134 1.4526-1.1337 2.13216-1.5066 3.8224-3.3666 5.49152-5.2436l-2.2639.165c-2.05812,3.7282-5.79842,4.6821-9.78201,6.2098-.4359-.3839-1.18051-.7319-1.62974.4985-.42102.103-.96266.01-1.17672.1124z" fill="#858585"/>
   <path d="m66.33821,1024.516c2.78718.1169 4.72165.2338 9.21921.3507-.20877-.6597-.87918-.6731-1.75365-.4008-1.07944.2231-.8782-.2856-1.1023-.5512 .57654-1.1564-.59699-.7572-1.1023-.952-1.37351.1085-3.14639.4831-4.91023.8518z"/>
   <path d="m39.645 1031.9c0.66688-0.2725 1.55-0.9234 1.8778-0.6023 0.68598-0.2757 1.076 0.6324 1.5943 1.0274l-0.46058-1.6652c-0.98575-1.5966-1.5354-0.6856-2.1612-0.2125z" fill="url(#j)"/>
   <path transform="translate(0 956.36)" d="m56.5 72.875c5.8887-10.723 21.751-9.2823 31.875-18.75" fill="none" opacity=".3156" stroke="#4c4c4c" stroke-opacity=".5813" stroke-width=".3"/>
   <path transform="translate(0 956.36)" d="m43.125 74.25c4.125-1.7795 8.25-3.7066 12.375-3.875" fill="none" opacity=".3156" stroke="#4c4c4c" stroke-linecap="round" stroke-linejoin="round" stroke-opacity=".5813" stroke-width=".3"/>
   <path transform="translate(0 956.36)" d="m87.875 55.5c-1.7279 1.6667-3.2174 3.3333-3.625 5" fill="none" opacity=".3156" stroke="#4c4c4c" stroke-linecap="round" stroke-linejoin="round" stroke-opacity=".5813" stroke-width=".3"/>
   <path transform="translate(0 956.36)" d="m58.875 66.25c-2.1639 2.0847-4.5179 4.0744-4.75 7.125" fill="none" opacity=".3156" stroke="#4c4c4c" stroke-linecap="round" stroke-linejoin="round" stroke-opacity=".5813" stroke-width=".3"/>
   <g transform="translate(-1,1.125)">
    <path transform="translate(0 956.36)" d="m38.079 48.802c2.567 0.24597 4.8565 0.24702 6.9293 0.8636 1.5263-1.0186 1.1383-0.62587 1.5372-0.83404-2.6221-0.86739-5.3434-0.80333-7.9655-0.88133z" fill="url(#ax)"/>
    <path transform="translate(0 956.36)" d="m36.576 48.15c2.3964 1.1288 4.8966 1.7383 6.9144 4.7599 0.59891 0.25294 1.9966 0.35338 1.3528-0.70146-0.32888-1.2378-3.3533-2.8915-6.8643-4.6597-0.53445-1e-6 -1.0021 0.20042-1.4029 0.60125z" fill="url(#aw)"/>
    <path d="m40.661 1003.2 1.0208-0.6958 0.35055 0.6128c1.107 1.0289 1.3451 2.2884 1.9558 3.449l-0.69851 0.5006-0.97791-0.7232c-0.08009-1.0754-0.83462-2.0679-1.6508-3.1434z" fill="url(#av)"/>
    <path transform="translate(0 956.36)" d="m48.083 50.215c0.88277 0.56662 1.1455 0.01711 1.4584-0.44194-0.49552-3.0284-1.089-6.5418-3.182-6.7175l-0.92808 0.61872c2.8857 1.8527 2.3554 4.3644 2.6516 6.5407z" fill="url(#au)"/>
    <path transform="translate(0 956.36)" d="m40.526 46.193 1.3258-0.79549c1.1051-0.45702 1.7398-0.28683 2.5191-0.30936 3.134-0.03482 4.3252 1.1255 5.5167 1.8906l0.98299-0.51739-1.8151-1.4174c-1.788-0.75422-3.3375-0.95222-4.773-0.88388-4.0604-0.0066-3.5068 1.2046-3.7565 2.0329z" fill="url(#at)"/>
    <path transform="translate(0 956.36)" d="m45.299 42.967c1.791-0.14261 4.3111 0.21944 8.1822 2.0414l1.1392-0.65533c-2.2539-0.96757-5.4766-2.5976-7.7305-2.5794-1.5212 0.48032-1.418 0.82527-1.591 1.1932z" fill="url(#as)"/>
    <path transform="translate(0 956.36)" d="m51.884 47.873c0.72456 0.41839 1.3443 0.60962 1.37-0.48614-0.40339-4.2474-2.6068-5.7478-4.1574-6.7832l-0.79013 0.71783c2.1728 1.1611 3.6437 3.6227 3.5775 6.5515z" fill="url(#ar)"/>
    <path transform="translate(0 956.36)" d="m52.967 38.097c0.30044-0.68428 1.1555 0.52134 1.5682 0.84819 1.0649 1.7219 2.4397 2.8684 2.74 6.0104-0.20915 0.63883-0.4502 1.2075-1.2374 0.57452-0.35701-2.6787-1.2926-4.9124-2.2387-6.1774-0.59536-0.08472-0.81494-0.8241-0.83211-1.2557z" fill="url(#aq)"/>
    <path transform="translate(0 956.36)" d="m48.746 40.227 0.35355 1e-6c2.9021 0.65517 5.8042 1.393 8.7062 2.1655l0.95711-0.55622c-2.6669-0.76603-5.3718-1.5946-8.4701-2.3606-1.85-0.44211-2.2437 1.0711-2.5191 1.6352l0.97227-0.57452 0.26517-0.22097" fill="url(#ap)"/>
    <path transform="translate(0 956.36)" d="m53.188 37.531c4.1977 1.6054 5.4936 2.1363 7.9688 2.5625l0.65625-0.5c-2.4992-0.68367-5.1921-1.4174-7.6875-2.75-1.3-0.23474-1.2836 0.54308-1.5625 1.0938z" fill="url(#ao)"/>
    <path transform="translate(0 956.36)" d="m59.4375,41.3125c-.79167-.97291-1.67708-2.68132-2.46875-4.21875 .09133-.56894.37153-.39166.875-.21875 .46148,1.40988 1.41492,2.68316 2.375,3.84375z" fill="url(#an)"/>
    <path transform="translate(0 956.36)" d="m54.812 36.375c3.1553 0.90486 6.6281 1.1394 9.0938 3.5 0.73844-0.13194 0.4886-0.53341 0.34375-0.90625-2.1488-1.6954-9.2887-3.6587-9.4375-2.5938z" fill="url(#am)"/>
    <path transform="translate(0 956.36)" d="m57.469 35.344c2.382 2.1563 2.6983 4.8064 1.4688 9.1875-2.4184 11.673 1.8245 10.842 1.9062 11.281 3.0332-0.57147 2.7341-2.9879 2.7812-4.2812 0.03667-3.2235-0.47824-6.2018-1.1875-9.0938-0.07176-2.5425-0.60781-4.7368-1.3438-6.7812-0.57982-0.38776-0.90461-0.94554-1.9375-1.0312-1.787-0.13928-1.4015 0.2566-0.5625 0.6875 0.64583 0.368 1.2917-0.08961 1.9375 1.3125l1.3438 7.6562c0.61097 2.2591 0.50707 5.2964 0.71875 7.875 0.10945 2.1453-1.6408 4.0699-3.3125 0.375-0.2355-1.9044-0.21367-4.4422 0.375-6.5938 0.39858-2.1698 1.2838-4.8734 0.25-9.3125-2.2354-2.7139-2.5079-2.2731-2.4375-1.2812z" fill="url(#i)"/>
    <path transform="translate(0 956.36)" d="m59.40625,34.71875c1.7709.21993 4.13547.22597 5.34375,2.9375 .68666,3.15287.60354,6.39127.5625,9.625-.39597.36552-.71727.20839-1.03125,0-.10183-3.22066-.14875-6.8531-.40625-8.90625-.58593-2.58501-3.06177-2.63871-4.46875-3.65625z" fill="url(#al)"/>
    <path transform="translate(0 956.36)" d="m64.46875,47.40625c.2754.0254.46118-.03882.65625-.09375l.28125,7c-.16775.2331-.37393.23558-.625-.03125z" fill="#b311a2"/>
    <path transform="translate(0 956.36)" d="m57.65625,35.40625c-.28682.24129-.51903.6191-1.125.0625 1.98579-2.6979 1.8501-.72855 2.71875-.96875l-.34375.0625c-.79195.02152-1.36532-.0026-1.25.84375z" fill="url(#ak)"/>
    <path transform="translate(0 956.36)" d="m56.656 35.281c-0.17258-1.9216 1.1728-1.6443 1.7812-1.0625-0.8158-0.12777-1.1112 0.01364-1.7812 1.0625z" fill="url(#aj)"/>
    <path transform="translate(0 956.36)" d="m57.125 33.812-0.46875 0.5c-1.9262-0.29391-4.5776 3.3026-5.465 4.4589-0.26873 0.13985 0.07745-0.1717-0.89166 0.77819 0.58365-1.2709 0.67086-2.6594 1.8567-4.0808 2.8003-2.8402 3.5388-1.5568 4.9688-1.6562z" fill="url(#ai)"/>
    <path transform="translate(0 956.36)" d="m56.625 34.625-0.03125 0.84375c-1.176-0.52197-2.305-0.02892-3.7446 0.34911 0.49466-1.1744 2.3572-1.3411 3.7759-1.1929z" fill="url(#ah)"/>
   </g>
  </g>
 </g>
</svg>
