<?xml version="1.0" encoding="UTF-8"?>
<svg viewBox="0 0 294.97403 224.68709" xmlns="http://www.w3.org/2000/svg" xmlns:xlink="http://www.w3.org/1999/xlink">
 <defs>
  <linearGradient id="c">
   <stop stop-color="#2b0000" offset="0"/>
   <stop stop-color="#2b0000" stop-opacity="0" offset="1"/>
  </linearGradient>
  <linearGradient id="d">
   <stop stop-color="#f4d7d7" offset="0"/>
   <stop stop-color="#f4d7d7" stop-opacity="0" offset="1"/>
  </linearGradient>
  <linearGradient id="a">
   <stop stop-color="#999" offset="0"/>
   <stop stop-color="#999" stop-opacity="0" offset="1"/>
  </linearGradient>
  <linearGradient id="b">
   <stop stop-color="#faa" offset="0"/>
   <stop stop-color="#faa" stop-opacity="0" offset="1"/>
  </linearGradient>
  <linearGradient id="r" x1="341.24" x2="336.51" y1="312.34" y2="318.33" gradientUnits="userSpaceOnUse">
   <stop stop-color="#d3725f" offset="0"/>
   <stop stop-color="#d3725f" stop-opacity="0" offset="1"/>
  </linearGradient>
  <linearGradient id="q" x1="302.46" x2="307.7" y1="330.34" y2="325.71" gradientUnits="userSpaceOnUse">
   <stop stop-color="#f95" offset="0"/>
   <stop stop-color="#f95" stop-opacity="0" offset="1"/>
  </linearGradient>
  <linearGradient id="p" x1="308.49" x2="312.7" y1="336.67" y2="340.38" gradientUnits="userSpaceOnUse">
   <stop stop-color="#ff2a2a" offset="0"/>
   <stop stop-color="#a02c2c" stop-opacity="0" offset="1"/>
  </linearGradient>
  <linearGradient id="o" x1="312.04" x2="311.91" y1="343.99" y2="340.5" gradientUnits="userSpaceOnUse">
   <stop stop-color="#ff2a2a" offset="0"/>
   <stop stop-color="#ff2a2a" stop-opacity="0" offset="1"/>
  </linearGradient>
  <linearGradient id="m" x1="331.05" x2="330.6" y1="435.84" y2="427.12" gradientUnits="userSpaceOnUse">
   <stop stop-color="#800000" offset="0"/>
   <stop stop-color="#800000" stop-opacity="0" offset="1"/>
  </linearGradient>
  <linearGradient id="h" x1="298.54" x2="298.86" y1="288.44" y2="297.24" gradientUnits="userSpaceOnUse">
   <stop stop-color="#f00" offset="0"/>
   <stop stop-color="#f00" stop-opacity="0" offset="1"/>
  </linearGradient>
  <linearGradient id="t" x1="341.47" x2="341.25" y1="348.76" y2="356.12" gradientTransform="matrix(.94189 .19279 -.21921 .79379 173.94 102.08)" gradientUnits="userSpaceOnUse" xlink:href="#d"/>
  <linearGradient id="s" x1="290.34" x2="292.51" y1="425.71" y2="414.87" gradientUnits="userSpaceOnUse" xlink:href="#c"/>
  <linearGradient id="n" x1="469.86" x2="469.64" y1="427.7" y2="435.06" gradientUnits="userSpaceOnUse" xlink:href="#d"/>
  <linearGradient id="l" x1="288.18" x2="303.24" gradientUnits="userSpaceOnUse" xlink:href="#a"/>
  <linearGradient id="k" x1="305.4" x2="322.43" gradientUnits="userSpaceOnUse" xlink:href="#a"/>
  <linearGradient id="j" x1="301.12" x2="306.29" gradientUnits="userSpaceOnUse" xlink:href="#a"/>
  <linearGradient id="i" x1="350.87" x2="330.27" y1="279.81" y2="269.82" gradientUnits="userSpaceOnUse" xlink:href="#c"/>
  <linearGradient id="g" x1="320.77" x2="330.07" y1="258.59" y2="268.79" gradientUnits="userSpaceOnUse" xlink:href="#b"/>
  <linearGradient id="f" x1="331.82" x2="340.07" y1="264.69" y2="269.49" gradientUnits="userSpaceOnUse" xlink:href="#b"/>
  <linearGradient id="e" x1="310.77" x2="318.87" y1="257.42" y2="264.82" gradientUnits="userSpaceOnUse" xlink:href="#b"/>
 </defs>
 <g transform="matrix(.62097 0 0 .62097 -115.1 -147.27)">
  <path d="m360.79 329.27c2.6831 0.16995 9.3517 4.1248 13.774 7.2608 6.2654 4.4428 9.7999 10.709 16.075 15.159 8.3651 5.9317 17.665 13.874 23.983 21.392 4.3168 5.1365 11.086 8.3243 14.077 14.368 1.9185 3.8764-3.5367 8.859-8.4337 12.191-4.0016 2.7228-8.4764 7.0314-11.671 10.522-3.8923 4.2533-9.5168 7.4245-13.475 11.75-3.3819 3.6956-7.9435 7.4124-12.084 10.23-6.7167 4.5702-5.7524 2.8135-11.668-1.3811-5.3523-3.7953-12.89-6.7392-8.0801-11.996 3.4775-3.8001 9.7794-6.224 13.257-10.024 3.3242-3.6326 4.8314-7.3023 9.7371-10.64 4.1076-2.7949 12.301-4.9179 10.28-9.0021-1.3562-2.7403-10.582-6.6383-12.383-8.7808-3.1294-3.7235-8.4086-7.2157-12.513-10.126-4.4295-3.1409-9.3321-5.4763-13.209-9.3662-3.9633-3.9769-6.2211-7.2037-9.5361-11.148-2.4901-2.9628-2.9074-10.212-0.95264-13.834 2.5886-4.7969 7.5874-8.9248 12.822-6.5733z" fill="#ff0" fill-rule="evenodd" stroke="#000" stroke-width=".87492"/>
  <path d="m308.23 421.58 225.79 50.228 60.069 16.256-61.373-11.537-227.24-50.37 2.7618-4.577z" fill="#241c1c" fill-rule="evenodd" stroke="#000" stroke-width=".75685"/>
  <path d="m310.39 421.79 225.79 50.228 60.069 16.256-61.373-11.537-227.24-50.37 2.7618-4.577z" fill="url(#t)" fill-rule="evenodd" stroke="#000" stroke-width=".75685"/>
  <path d="m324.72 424.93s-16.463-5.9128-20.853-6.6728-38.881-8.3236-38.881-8.3236-4.7859-1.718-5.8086 2.7826c-0.59567 2.6151-0.89957 3.6783 3.3366 5.3654l38.99 9.0776s19.536 3.7581 22.171 3.4706c2.4142-0.2634 3.6509-4.636 1.0443-5.6998z" fill="#ff7f2a" fill-rule="evenodd" stroke="#000" stroke-width=".75685"/>
  <path d="m267.07 410.44c2.6821 3.8266-1.6208 7.8706-1.9948 8.0682" fill="none" stroke="#000" stroke-width=".75685"/>
  <path d="m273.6 411.94c2.8259 4.731-1.8467 8.1867-2.2171 8.0217" fill="none" stroke="#000" stroke-width=".75685"/>
  <path d="m292.46 415.9c2.9306 4.0446-1.6869 8.2752-2.0896 8.481" fill="none" stroke="#000" stroke-width=".80729"/>
  <path d="m299.58 417.3c3.0259 5.1389-2.0149 8.909-2.413 8.7304" fill="none" stroke="#000" stroke-width=".8189"/>
  <path d="m529.24 476.36c-1.0238 4.503 0.46193 7.9673 3.9019 8.7934 3.9708-0.1582 5.7182-2.222 7.3623-5.0061 1.5014-2.9812 2.1473-6.8154 2.2103-9.4986 0.12092-5.1454-3.0622-7.4679-6.624-6.0828-2.5519 0.9924-3.789 2.3172-5.3668 6.1515l5.2552 1.4115s0.38028 4.0009-1.4618 4.7987c-1.6677 0.7224-0.37192 0.1945-2.1367 0.0132-1.4047-0.1443-3.1403-0.5808-3.1403-0.5808z" fill="#500"/>
  <path d="m528.43 475.98c-1.0048 4.4344 0.49354 7.8528 3.934 8.6771 3.9669-0.1441 5.7046-2.1727 7.3362-4.9114 1.4882-2.9334 2.1181-6.71 2.1704-9.3539 0.10016-5.0703-3.0896-7.3685-6.6429-6.0141-2.5458 0.9704-3.7766 2.2723-5.3377 6.0461l5.2565 1.4066s0.39603 3.9438-1.4413 4.7246c-1.6634 0.7069-0.37084 0.1905-2.1349 0.0066-1.4042-0.1464-3.1401-0.5816-3.1401-0.5816z" fill="#ff7f2a"/>
  <path d="m352.08 436.4c-0.67389 0.8912 5.2882 2.0756 8.6665 2.6466 1.1726 0.1982 2.7587 0.7105 3.9902 0.883 1.764-0.2104 6.3803-1.9891 6.3053-4.6066-0.03476-1.2134 3.4725-0.6632 3.8891-0.9546 1.9958-1.3963-5.1672 5.7523-4.3053 6.2423 0.67754 0.3852 0.69776 4.0208 4.2271 4.0716 2.9316 0.0421 10.715-6.9577 11.762-6.1812 0.86579 1.2047-0.0797 5.0301-3.2015 7.332-2.426 1.7888-6.7522 2.202-8.8032 2.6753-2.9374 0.6779-6.869-1.2221-7.7916-1.4585-13.447-3.4454-12.764-8.2448-14.731-10.339m3.1226-7.7243c-4.3028-4.5794-1.0618-2.258 0.74329-8.0647 1.7924-5.766 11.799-6.4363 16.464-9.299 3.4013-1.3481 8.2171 2.0375 11.525 4.0204 7.9726 2.474 6.6613 10.774 4.2341 18.195-0.31703 0.6206-1.1638 2.8841-1.8488 3.2406-0.52365-0.3146-5.5192 5.4147-9.1378 7.3317-1.8913 1.002-5.1395-1.094-5.9202-2.0076-2.308-2.7011 2.8444-4.9703 2.2866-5.6074 1.2789-2.6223 7.0901-7.3667 2.1069-8.3992-1.363-0.2824-7.9756-0.1756-12.769 3.1508-0.79108 0.549-1.4072-0.2365-1.7753 0.2502" fill="#f00" stroke="#000" stroke-width=".91974"/>
  <g transform="matrix(.98884 0 0 .94067 124.87 98.492)" fill-rule="evenodd" stroke="#000">
   <path d="m301.69 485.69c-3.2879 0-171.79 23.171-186.59 23.171s-50.14-9.8031-50.14-9.8031l-3.2879 6.2383s40.276 18.715 74.799 15.15 48.496-6.2384 48.496-6.2384l303.31-43.668s15.617-15.15 23.015-23.171-4.1098-10.694-4.1098-10.694-23.015 22.28-32.879 23.171-172.61 24.953-172.61 25.845z" fill="#280b0b" stroke-width="1.0412"/>
   <path d="m299.94 484.73c-3.264 0-170.55 22.722-185.24 22.722s-49.777-9.6133-49.777-9.6133l-3.264 6.1176s39.985 18.353 74.257 14.857 48.145-6.1176 48.145-6.1176l301.11-42.823s15.504-14.857 22.848-22.722-4.0801-10.487-4.0801-10.487-22.848 21.849-32.641 22.722-171.36 24.47-171.36 25.344z" fill="#e9afaf" stroke-width="1.0273"/>
  </g>
  <path d="m423.18 543.45c-2.5396 2.4194-14.501 4.472-22.195 5.7543-9.5245 1.5874-10.691 13.974-0.82204 16.441 8.6017 2.1504 14.624 1.2762 23.017-0.822 9.0602-2.2651 14.838-4.1102 24.661-4.1102 9.2015 0 12.699-15.251 7.3984-20.551-6.7019-6.7019-18.143-0.7931-24.661 2.4662-2.3087 1.1543-4.958 0.822-7.3984 0.822z" fill="#d35f5f" fill-rule="evenodd" stroke="#000"/>
  <path d="m429.14 568.33s-0.36192-8.3462-4.2225-14.149c-3.5102-5.2762-8.8721-8.4794-11.098-7.9229-4.6741 1.1685-15.45 2.2072-16.489 3.3757-0.49998 0.5625 3.561 1.5662 7.6188 6.4058 3.6172 4.3142 5.2541 11.34 4.9753 13.978-0.29693 2.8098 18.956-1.2984 19.216-1.6879z" fill="#f4d7d7" fill-rule="evenodd" stroke="#000"/>
  <g transform="matrix(1 0 0 .94067 130.18 108.49)" fill-rule="evenodd" stroke="#000">
   <path d="m301.69 485.69c-3.2879 0-171.79 23.171-186.59 23.171s-50.14-9.8031-50.14-9.8031l-3.2879 6.2383s40.276 18.715 74.799 15.15 48.496-6.2384 48.496-6.2384l303.31-43.668s15.617-15.15 23.015-23.171-4.1098-10.694-4.1098-10.694-23.015 22.28-32.879 23.171-172.61 24.953-172.61 25.845z" fill="#280b0b" stroke-width="1.0412"/>
   <path d="m299.94 484.73c-3.264 0-170.55 22.722-185.24 22.722s-49.777-9.6133-49.777-9.6133l-3.264 6.1176s39.985 18.353 74.257 14.857 48.145-6.1176 48.145-6.1176l301.11-42.823s15.504-14.857 22.848-22.722-4.0801-10.487-4.0801-10.487-22.848 21.849-32.641 22.722-171.36 24.47-171.36 25.344z" fill="#e9afaf" stroke-width="1.0273"/>
  </g>
  <path d="m446.2 370.11c2.8408 4.6032 11.625 12.447 18.085 18.907 5.3322 5.3322 4.7353 15.653 6.5763 23.017 1.3526 5.4106-4.9641 19.793-7.3984 24.661-3.1494 6.2988-7.4089 17.305-9.0424 23.839-2.456 9.8242 2.5737 17.977-4.9322 25.483-3.1955 3.1955 5.3092 9.1106 3.2882 13.153-3.177 6.3539-1.6441 15.331-1.6441 23.017 0 9.913-0.82204 12.815-0.82204 20.551 0 4.539-13.094 8.2204-18.907 8.2204-11.066 0-14.847 1.0228-11.509-12.331 2.2284-8.9136-2.4661-16.004-2.4661-24.661 0-7.4502-2.3497-18.165-5.7543-23.839-3.3163-5.5271 0-18.348 0-24.661 0-8.1991-0.82204-16.278-0.82204-24.661 0-8.9039-0.3472-14.541-2.4661-23.017-1.9759-7.9036 10.083-15.837 13.975-19.729 6.9043-6.9043 15.668-15.741 18.907-23.839 0.79482-1.987 3.2882-2.7401 4.9322-4.1102z" fill="#008080" fill-rule="evenodd" stroke="#000"/>
  <path d="m443.85 548.74c-2.5396 2.4193-14.501 4.472-22.195 5.7543-9.5245 1.5874-10.691 13.974-0.82204 16.441 8.6017 2.1504 14.624 1.2761 23.017-0.8221 9.0602-2.265 14.838-4.1102 24.661-4.1102 9.2015 0 12.699-15.251 7.3984-20.551-6.7019-6.7019-18.143-0.7931-24.661 2.4661-2.3087 1.1544-4.958 0.8221-7.3984 0.8221z" fill="#d35f5f" fill-rule="evenodd" stroke="#000"/>
  <path d="m470.15 371.64c2.8408 4.6032 11.625 12.447 18.085 18.907 5.3322 5.3322 4.7353 15.653 6.5763 23.017 1.3526 5.4105-4.9641 19.793-7.3984 24.661-3.1494 6.2988-7.4089 17.305-9.0424 23.839-2.456 9.8242 2.5737 17.977-4.9322 25.483-3.1955 3.1955 5.3092 9.1106 3.2882 13.153-3.177 6.3539-1.6441 15.331-1.6441 23.017 0 9.9129-0.82204 12.815-0.82204 20.551 0 4.5391-13.094 8.2205-18.907 8.2205-11.066 0-14.847 1.0228-11.509-12.331 2.2284-8.9136-2.4661-16.004-2.4661-24.661 0-7.4503-2.3497-18.165-5.7543-23.839-3.3163-5.5272 0-18.348 0-24.661 0-8.1992-0.82204-16.278-0.82204-24.661 0-8.9039-0.3472-14.541-2.4661-23.017-1.9759-7.9037 10.083-15.837 13.975-19.729 6.9043-6.9043 15.668-15.741 18.907-23.839 0.79482-1.987 3.2882-2.7401 4.9322-4.1102z" fill="#008080" fill-rule="evenodd" stroke="#000"/>
  <path d="m324.72 424.93s-16.463-5.9128-20.853-6.6728-38.881-8.3236-38.881-8.3236-4.7859-1.718-5.8086 2.7826c-0.59567 2.6151-0.89957 3.6783 3.3366 5.3654l38.99 9.0776s19.536 3.7581 22.171 3.4706c2.4142-0.2634 3.6509-4.636 1.0443-5.6998z" fill="url(#s)" fill-rule="evenodd" stroke="#000" stroke-width=".75685"/>
  <path d="m327.56 349.02c-3.732 4.2388-3.1236 18.383 1.1626 22.67 11.07 10.482 11.878 13.804 29.064 17.438 1.9029 3.8058 9.0146 5.8192 11.625 9.3003 2.4465 3.262 12.82 5.5928 16.276 6.9752 6.1962 2.4785 10.859 3.5537 17.438 4.6502 5.9409 0.99014 6.4683 5.5406 12.207 6.9752 5.8955 1.4739 11.637 2.6187 17.438 4.0689 6.1178 1.5294 11.771 1.6709 17.438-1.1626 6.1196-3.0598 10.117-7.7918 14.532-12.207 3.7648-3.7648 6.6538-12.022 7.5565-17.438 4.3088-29.191-3.1703-20.776-18.601-36.039-5.779-7.9727-32.167-21.74-43.014-20.344-23.11-4.1532-34.898-0.71164-56.965-9.3003-8.1955-2.0489-13.966 0.01566-19.763 5.8127-4.8138 4.8138-9.8315 1.5432-11.625 8.7191-0.3009 1.2036 6.0065 8.9128 5.2314 9.8816z" fill="#ff0" fill-rule="evenodd" stroke="#000" stroke-width=".7"/>
  <path d="m351.28 325.06c-0.30732 2.3978-6.2255-2.6891-7.7463-0.57899-2.3164 3.2138 1.0142 8.7818-3.4834 12.02-5.1571 3.7131-9.3546 9.0875-16.744 11.992-1.3751 0.54058-3.6613 0.80471-5.2776 1.2682-12.119 3.475-29.147-25.674-26.734-42.64s18.734-18.808 34.364-15.477c15.617 3.3278 27.436 14.092 25.046 31.048" fill="#d38d5f" stroke="#000" stroke-width=".2"/>
  <path d="m332.35 312.61v-0.53727c0-2.5716 4.9176-5.3522 6.9846-4.8355 3.6078 0.90195 3.2236 4.873 3.2236 7.7905 0 3.216 1.6118 4.4622 1.6118 7.2532 0 1.421-0.54007 4.2303-1.3432 4.0295-1.7714-0.44286-2.9251 0.41789-4.8354-0.53727" fill="url(#r)" fill-rule="evenodd" stroke="#000" stroke-width=".5"/>
  <path d="m288.85 315.23c1.9131-1.469 4.1766-1.933 6.378-2.6658 2.9746-0.99012 4.1787 0.83432 6.368 0.98185 1.7454 0.11759 1.8087 4.7201 1.9798 6.048 0.36452 2.828-1.9338 4.0844-3.8895 5.2103-1.8479 1.0639-5.0999 1.0936-7.0779 0.96027-2.2886-0.15421-3.96-2.7869-4.2146-4.7614-0.25231-1.9574-0.07316-3.8358 0.45611-5.7733z" fill="#4d4d4d" fill-rule="evenodd" stroke="#000" stroke-width=".86137"/>
  <path d="m307.65 310.97c2.2276-1.4297 4.8141-1.7803 7.3404-2.4176 3.4136-0.86104 4.7094 1.1328 7.1881 1.4214 1.976 0.2301 1.8699 5.0787 2.0128 6.4869 0.3043 2.9991-2.3522 4.1815-4.615 5.2476-2.138 1.0073-5.8293 0.84049-8.0687 0.57971-2.591-0.30172-4.3859-3.1748-4.5983-5.2687-0.21062-2.0758 0.0653-4.0421 0.7408-6.0494z" fill="#4d4d4d" fill-rule="evenodd" stroke="#000" stroke-width=".94232"/>
  <path d="m303.6 320.4c-0.47107 0.75215-0.99305 5.0467-1.6118 7.5218-0.62362 2.4945-0.86069 5.1576 2.1491 5.91 2.7785 0.69463 3.5434-1.5574 5.91-2.1491 2.1482-0.53704 2.7298-0.35544 3.7609-2.4177" fill="url(#q)" fill-rule="evenodd" stroke="#000"/>
  <path d="m307.9 337.59c0.48608-0.12152 1.3929 0.06653 1.7493-0.04241 1.7825-0.5448 1.6279-0.95578 3.8921-1.838 1.7541-0.68353 4.0271 0.69995 5.6414-0.26863 1.938-1.1628-3.4488 3.2128-5.6414 3.7609-2.26 0.56499-5.9134 1.6084-7.2532 0.26863-1.2842-1.2842 0.24689-1.6299 1.6118-1.8804z" fill="url(#p)" fill-rule="evenodd" stroke="#000" stroke-width=".5"/>
  <path d="m307.36 340.55c-0.94129-0.94129 1.3949 2.6321 2.6864 2.955 1.2499 0.31248 3.2054 0.25216 4.6787-0.40437 1.2148-0.54136 2.0556-1.5495 2.3059-2.5506 0.21678-0.86712 0.40131-1.521 0.47646-2.0286 0.16192-1.0938 1.2556-1.8445 1.5496-2.7788" fill="url(#o)" fill-rule="evenodd" stroke="#000" stroke-width=".6"/>
  <path d="m332.49 310.81c0.0384-0.15359-5.9606 1.1909-8.466 1.527-0.24363 0.03268-1.4622-2.0672-0.43577-2.2026 3.0014-0.39612 6.4602-0.98418 7.6849-1.2904 1.6197-0.40492 2.3724-0.157 3.2236 0.26864" fill-rule="evenodd" stroke="#000"/>
  <path d="m302.26 315.03c1.692-0.42299 4.5668-4.2089 4.5668-0.53728 0 3.3952-0.30578 3.0314-3.2236 3.7609" fill="#4d4d4d" fill-rule="evenodd" stroke="#000"/>
  <path d="m357.58 325.76c2.35-1.6075 10.867-2.3255 16.904-2.3255 8.553 0 16.226 3.4882 24.793 3.4882 11.419 0 25.136 1.2512 36.063 4.0696 7.4654 1.9256 15.484 0.43012 22.539 4.0696 4.5252 2.3344 3.7837 10.546 2.2539 16.86-1.25 5.159-1.6904 12.101-1.6904 17.441 0 6.5071-2.2539 13.15-2.2539 19.767 0 5.6539-0.96059 12.103-2.2539 17.441-2.0982 8.6594-2.6308 6.3951-10.706 6.3951-7.3065 0-15.777 2.228-15.777-5.8137 0-5.8137 3.3809-12.209 3.3809-18.022 0-5.5574-1.5325-9.9539 0-16.278 1.2832-5.2956 6.4582-12.656 1.6904-15.116-3.1989-1.6502-13.79 0.80322-16.904 0-5.4118-1.3959-12.428-1.1628-18.031-1.1628-6.0468 0-11.875 1.0586-18.031 0-6.2942-1.0823-10.608-2.5909-16.341-4.0696-4.3062-1.1107-10.144-7.5619-11.27-12.209-1.4911-6.1538-0.48007-13.272 5.6348-14.534z" fill="#ff0" fill-rule="evenodd" stroke="#000" stroke-width=".98466"/>
  <path d="m450.3 573.13s-0.36192-8.3462-4.2225-14.149c-3.5102-5.2762-8.8721-8.4794-11.098-7.9229-4.6741 1.1685-15.45 2.2072-16.489 3.3757-0.49998 0.5625 3.561 1.5663 7.6188 6.4058 3.6172 4.3142 5.2541 11.34 4.9753 13.978-0.29693 2.8099 18.956-1.2984 19.216-1.6879z" fill="#f4d7d7" fill-rule="evenodd" stroke="#000"/>
  <path d="m352.01 427.13 240.83 4.7845 64.875 4.723-64.875 1.2227-242.33-4.5987 1.5052-6.1315z" fill="#241c1c" fill-rule="evenodd" stroke="#000" stroke-width=".85156"/>
  <path d="m354.24 426.86 240.83 4.7845 64.875 4.723-64.875 1.2227-242.33-4.5986 1.5052-6.1316z" fill="url(#n)" fill-rule="evenodd" stroke="#000" stroke-width=".85156"/>
  <path d="m369.51 427.09s-18.184-3.0324-22.807-2.8671-41.381-0.4355-41.381-0.4355-5.2861-0.8804-5.0648 4.7356c0.12715 3.2636 0.11681 4.6055 4.8419 5.5832l41.7 1.3079s20.674-0.2869 23.242-1.2728c2.353-0.9034 2.3822-6.419-0.53233-7.0513z" fill="#ff7f2a" fill-rule="evenodd" stroke="#000" stroke-width=".85156"/>
  <path d="m307.55 423.89c3.7572 3.9082 0.55546 9.7802 0.23442 10.107" fill="none" stroke="#000" stroke-width=".85156"/>
  <path d="m314.54 424.09c4.1527 4.9515 0.41619 10.212-0.00183 10.106" fill="none" stroke="#000" stroke-width=".85156"/>
  <path d="m334.58 424.21c4.0673 4.1075 0.60132 10.279 0.2538 10.623" fill="none" stroke="#000" stroke-width=".90832"/>
  <path d="m342.13 424.14c4.4668 5.3891 0.44766 11.115-0.00198 10.999" fill="none" stroke="#000" stroke-width=".92138"/>
  <path d="m589.31 438.51c0.22086 5.6191 2.6752 9.3873 6.3612 9.5328 3.9463-1.1578 5.1296-4.0452 6.0091-7.7661 0.68149-3.9211 0.26639-8.6506-0.41486-11.865-1.3064-6.1648-5.1496-8.1572-8.3444-5.6363-2.289 1.8061-3.1645 3.6878-3.6859 8.6448l5.6726 0.4005s1.4924 4.6776-0.13726 6.0786c-1.4754 1.2683-0.31978 0.3226-2.1435 0.5372-1.4516 0.1708-3.3169 0.0739-3.3169 0.0739z" fill="#500"/>
  <path d="m588.38 438.25c0.22086 5.5328 2.6752 9.2431 6.3612 9.3864 3.9463-1.1401 5.1296-3.9831 6.0091-7.6468 0.68149-3.8609 0.26639-8.5178-0.41486-11.683-1.3064-6.0701-5.1496-8.0319-8.3444-5.5497-2.289 1.7784-3.1645 3.6311-3.6859 8.512l5.6726 0.3943s1.4924 4.6058-0.13726 5.9853c-1.4754 1.2488-0.31978 0.3176-2.1435 0.5289-1.4516 0.1682-3.3169 0.0728-3.3169 0.0728z" fill="#ff7f2a"/>
  <path d="m428.7 410.05-2.3251 2.3251c-4.4427 4.4427-11.044 2.3764-11.044 11.625 0 0.7424-0.30578 3.2713 0.19121 3.9883 2.5384 0.0714 10.248 0.02 11.716-0.4037 0.05983-3.1018 1.7778-6.9705 3.2056-1.2595 0.8912 3.5648-1.191 6.7401-3.8962 9.0995-0.44618 0.3891-2.2191-1.812-2.3165-0.1904-0.01243 0.2069-5.7364-0.9904-7.0679-0.4578-2.6013 1.0405 0.08009 6.5947 4.1687 10.28 2.5607 2.3078 6.5994 3.1701 7.3681 3.9388 1.9099 1.9099 13.856-2.1561 16.857-2.9064 6.5638-1.6409 8.1378-9.3464 8.1378-15.113 0-6.4324 1.4209-11.582-1.7438-16.857-2.7867-4.6444-12.412-1.2652-16.857-3.4876-0.94053-0.47027-5.4739-0.58127-6.394-0.58127z" fill="#f00" fill-rule="evenodd" stroke="#000"/>
  <path d="m369.51 427.09s-18.184-3.0324-22.807-2.8671-41.381-0.4355-41.381-0.4355-5.2861-0.8804-5.0648 4.7356c0.12715 3.2636 0.11681 4.6055 4.8419 5.5832l41.7 1.3079s20.674-0.2869 23.242-1.2728c2.353-0.9034 2.3822-6.419-0.53233-7.0513z" fill="url(#m)" fill-rule="evenodd" stroke="#000" stroke-width=".85156"/>
  <path d="m289.11 315.82c1.7783-1.3605 3.8823-1.7903 5.9286-2.469 2.765-0.91704 3.8842 0.77275 5.9193 0.90938 1.6224 0.10891 1.6812 4.3718 1.8403 5.6016 0.33883 2.6193-1.7975 3.7829-3.6154 4.8258-1.7177 0.98538-4.7405 1.0128-6.5792 0.88941-2.1274-0.14283-3.681-2.5812-3.9176-4.41-0.23454-1.813-0.06801-3.5527 0.42396-5.3472z" fill="url(#l)" fill-rule="evenodd" stroke="#000" stroke-width=".79923"/>
  <path d="m306.59 311.87c2.0706-1.3242 4.4749-1.6489 6.8232-2.2391 3.173-0.79749 4.3776 1.0492 6.6816 1.3165 1.8368 0.21312 1.7381 4.7038 1.8709 6.0081 0.28286 2.7777-2.1865 3.8728-4.2898 4.8603-1.9874 0.93298-5.4186 0.77846-7.5001 0.53692-2.4085-0.27945-4.0768-2.9404-4.2743-4.8798-0.19579-1.9226 0.06069-3.7438 0.6886-5.6029z" fill="url(#k)" fill-rule="evenodd" stroke="#000" stroke-width=".87434"/>
  <path d="m301.58 315.63c1.5727-0.39175 4.245-3.8982 4.245-0.49761 0 3.1446-0.28425 2.8077-2.9965 3.4833" fill="url(#j)" fill-rule="evenodd" stroke="#000" stroke-width=".92786"/>
  <path d="m318.47604,300.6788c-.31992.68693-.4833,2.14575 1.24228,2.14575 2.73269,0 1.5653-1.30539 2.03281.56467 .24157.96628 2.76076.25038 2.93629-.45174 .26072-1.0429-2.62122,2.29285.22586,1.58108 2.37294-.59324.47896.53583 2.03282,1.46814 .7916.47496 1.75257-1.1879.11293.45174-1.11224,1.11224 1.5868,1.80465 2.14575,1.58107 .12383-.04953-.74698,1.46814.56467,1.46814 1.0789,0 .77202.60355 1.12934,2.03282 .24564.98257-.37766,1.95874 1.46814.11293 .41223-.41223.81192-2.72574.90347-3.27509 .10539-.63234 1.3465.17376 1.91988-.11293 1.19217-.59608 2.57659-1.24227 3.95269-1.24227 1.14713,0 2.10517,1.09935 2.59749,1.91987 .61035,1.01725.83789,2.10929 1.12934,3.27509 .27661,1.10646-.39834,2.2464-.11294,3.38802 .324,1.29598.68222,2.05126 1.01641,3.38802 .26393,1.05573.61224,2.20528.79054,3.27509 .13833.82998-.24746,2.73201-.79054,3.27509-1.11658,1.11658-2.29221.27174-1.46814,1.91988 .21952.43903 1.81936,1.71096 2.37161.79054 .13375-.22292 1.59536-.35309 1.91988-.67761 .01411-.01411.96127-.05779 1.35521-.45173 .38291-.38291 1.4697,3.04453 2.59748-.33881 .55235-1.65705 1.27947-1.09079 1.80695-2.14574 .37936-.75873.09861-2.31599-.11294-3.16216-.27074-1.08296-.00128-2.03538-.45173-2.93628-.52592-1.05185-.16084-2.15258-.56467-3.16216-.09379-.23446.40005-.43261.3388-.6776-.21936-.87745.71408-1.09462-.11293-3.16215-.40187-1.00467-1.41601-1.95893-1.58108-2.37162-.34702-.86754-.90347-2.80441-.90347-3.16215 0-1.45294-.90266-1.15778-1.91988-.90347-.4921.12302-2.88745-1.48417-3.72683-1.69401-1.30801-.32701-3.1262.69557-4.29149.11293-1.31666-.65833-1.51274.76824-2.82335.11293-1.08233-.54116-2.99976-1.3111-4.17856-1.0164-.99699.24925-4.41433-.91338-5.19497-1.69401-.46801-.46801-2.64797-.15379-3.38802-.3388-1.52025-.38007-1.91514.17177-3.38802-.56468-.95061-.4753-1.33503.48077-2.14575,1.12935" fill="#333" fill-rule="evenodd" stroke="#000"/>
  <path d="m290.89 282.25c12.158-28.72 45.378-40.093 63.15-38.721 1.2964 0.10014 1.1402-2.9316 2.7515-4.7444 1.7131-1.9272 5.6103-2.7489 7.2753 1.0036 1.7186 3.8732 1.091 6.7358-0.97366 7.294-1.8486 0.49974-5.009-1.1676-6.0601-0.39331-6.0158 4.4312-10.321 21.645-5.2104 46.84 0.9315 4.5925 0.98941 7.7922-1.0619 10.179-0.62573 0.72813-0.31838 1.4936-1.3717 2.0869-1.5431 0.86929-3.2038-0.77347-4.7147-0.86756-4.8163-0.29995-6.0012-3.2426-22.514-3.1398-15.256 0.09495-28.409 7.3582-32.641 5.0088-8.4964-4.7167 0.46795-14.611 1.3672-24.51" fill="#f00"/>
  <path d="m290.89 282.25c12.158-28.72 45.378-40.093 63.15-38.721 1.2964 0.10014 1.1402-2.9316 2.7515-4.7444 1.7131-1.9272 5.6103-2.7489 7.2753 1.0036 1.7186 3.8732 1.091 6.7358-0.97366 7.294-1.8486 0.49974-5.009-1.1676-6.0601-0.39331-6.0158 4.4312-10.321 21.645-5.2104 46.84 0.9315 4.5925 0.98941 7.7922-1.0619 10.179-0.62573 0.72813-0.31838 1.4936-1.3717 2.0869-1.5431 0.86929-3.2038-0.77347-4.7147-0.86756-4.8163-0.29995-6.0012-3.2426-22.514-3.1398-15.256 0.09495-28.409 7.3582-32.641 5.0088-8.4964-4.7167 0.46795-14.611 1.3672-24.51" fill="url(#i)"/>
  <path d="m290.73 307.58c-1.1372 0.10707-3.0868-2.4869-4.5986-3.9987-1.5498-1.5499-1.614-4.3552-0.99968-6.1981 0.57071-1.7121-0.36126-3.8443-0.79975-5.5982-0.73806-2.9522 3.4555-1.8849 4.9984-2.3992 1.8542-0.61807 4.8915-1.0764 6.7979-0.59982 3.4034 0.85087 7.0658-1.1996 10.397-1.1996 4.1779 0 9.2516 2.8294 13.196 0.19994 2.7381-1.8254 9.6215-0.39988 12.796-0.39988 2.4793 0 3.9976 1.7994 6.7979 1.7994 2.5662 0 6.081 1.2203 8.3974 1.7994 1.7751 0.44378 4.8988 2.8994 5.9981 3.9988 1.1739 1.1739-0.38297 4.5648-0.99969 5.7982-0.92763 1.8553-0.50602 4.4517-2.3992 5.3983-2.2718 1.1359-3.4809 0.57932-5.7982 0-2.0478-0.51196-3.988-1.097-5.9981-1.5995-2.1704-0.54259-4.1111-0.59981-6.398-0.59981-2.188 0-4.154-0.79975-6.398-0.79975-2.2792 0-4.4592 0.19994-6.7979 0.19994-2.0077 0-4.0621-0.19994-5.9981-0.19994-1.9513 0-3.3632 0.39988-5.3983 0.39988-2.0926 0-3.5911 0.89776-5.5982 1.3996-1.977 0.49425-4.9648 0.16629-6.1981 1.3996-1.2351 1.2351-3.5375 1.5302-4.5986 0.99969" fill="#a00" fill-rule="evenodd" stroke="#000"/>
  <path d="m290.73 307.58c-1.1372 0.10707-3.0868-2.4869-4.5986-3.9987-1.5498-1.5499-1.614-4.3552-0.99968-6.1981 0.57071-1.7121-0.36126-3.8443-0.79975-5.5982-0.73806-2.9522 3.4555-1.8849 4.9984-2.3992 1.8542-0.61807 4.8915-1.0764 6.7979-0.59982 3.4034 0.85087 7.0658-1.1996 10.397-1.1996 4.1779 0 9.2516 2.8294 13.196 0.19994 2.7381-1.8254 9.6215-0.39988 12.796-0.39988 2.4793 0 3.9976 1.7994 6.7979 1.7994 2.5662 0 6.081 1.2203 8.3974 1.7994 1.7751 0.44378 4.8988 2.8994 5.9981 3.9988 1.1739 1.1739-0.38297 4.5648-0.99969 5.7982-0.92763 1.8553-0.50602 4.4517-2.3992 5.3983-2.2718 1.1359-3.4809 0.57932-5.7982 0-2.0478-0.51196-3.988-1.097-5.9981-1.5995-2.1704-0.54259-4.1111-0.59981-6.398-0.59981-2.188 0-4.154-0.79975-6.398-0.79975-2.2792 0-4.4592 0.19994-6.7979 0.19994-2.0077 0-4.0621-0.19994-5.9981-0.19994-1.9513 0-3.3632 0.39988-5.3983 0.39988-2.0926 0-3.5911 0.89776-5.5982 1.3996-1.977 0.49425-4.9648 0.16629-6.1981 1.3996-1.2351 1.2351-3.5375 1.5302-4.5986 0.99969" fill="url(#h)" fill-rule="evenodd" stroke="#000"/>
  <path d="m354.11 244.4c-0.576 0.298-3.1819 2.2724-4.9984 2.9991-2.3015 0.92061-3.5681 1.9417-6.1981 2.5992-0.39329 0.09832-0.79975 0.13329-1.1996 0.19994-2.1915 0.36525-4.3028 0.67582-6.398 1.1996-1.8649 0.46623-4.4331 1.0341-5.5982 2.1993-1.2996 1.2996-3.1073 2.8024-4.5986 3.3989-1.3882 0.55528-3.5827 3.2386-4.3986 4.5986-1.1676 1.946-0.06263 3.4616-1.9994 5.3983-1.5338 1.5338-2.58 2.9004-3.5989 4.5986-1.1634 1.9391-3.0289 4.3179-3.5989 6.5979-0.45553 1.8221-1.5995 3.8497-1.5995 5.7982 0 1.4776-0.39987 2.884-0.39987 4.3986" fill="url(#g)" fill-rule="evenodd"/>
  <path d="m354.51 245.6c0 0.35129-4.4543 4.0785-5.7982 5.1984-1.501 1.2508-3.7658 2.7662-5.1984 4.1987-2.0102 2.0102-4.1306 2.9173-6.1981 5.3983l-0.99969 1.1996c-1.3042 1.565-2.3552 2.9111-3.199 4.5986-0.90404 1.8081-0.59981 3.9844-0.59981 5.9981 0 2.0737-1.3124 4.0502-1.7994 5.9981-0.46355 1.8542-1.0945 3.7782-1.5995 5.7982-0.3145 1.258-0.21591 3.3389-0.39988 3.7988" fill="url(#f)" fill-rule="evenodd"/>
  <path d="m294.13 288.58c-0.12634 0.50535 2.6206-2.6848 3.5989-6.5979 0.58285-2.3314 1.2273-4.3648 1.5995-6.5979 0.25518-1.5311 2.2252-3.8507 2.9991-5.3983 0.9062-1.8124 2.3106-3.4217 2.9991-4.7985 0.73703-1.4741 2.8652-1.9541 3.7988-3.199 1.3894-1.8526 3.414-3.2141 4.9984-4.7985 1.6673-1.6674 2.5718-2.812 4.9984-4.1987 2.1072-1.2041 3.9341-2.167 5.9981-3.199 1.8531-0.92657 4.7432-1.858 5.9981-2.7991 1.5202-1.1402 5.6955-1.0289 7.5976-1.5995 2.0232-0.60697 5.0674-1.1996 7.1978-1.1996 2.0754 0 3.9131-1.1996 5.9981-1.1996 2.2347 0 4.7985 1.5298 4.7985 3.5989 0 0.77997-0.39738 0.50047-1.5995 0.19994" fill="url(#e)" fill-rule="evenodd"/>
  <path d="m360.79 329.27c2.6831 0.16995 9.3517 4.1248 13.774 7.2608 6.2654 4.4428 9.7999 10.709 16.075 15.159 8.3651 5.9317 17.665 13.874 23.983 21.392 4.3168 5.1365 11.086 8.3243 14.077 14.368 1.9185 3.8764-3.5367 8.859-8.4337 12.191-4.0016 2.7228-8.4764 7.0314-11.671 10.522-3.8923 4.2533-9.5168 7.4245-13.475 11.75-3.3819 3.6956-7.9435 7.4124-12.084 10.23-6.7167 4.5702-5.7524 2.8135-11.668-1.3811-5.3523-3.7953-12.89-6.7392-8.0801-11.996 3.4775-3.8001 9.7794-6.224 13.257-10.024 3.3242-3.6326 4.8314-7.3023 9.7371-10.64 4.1076-2.7949 12.301-4.9179 10.28-9.0021-1.3562-2.7403-10.582-6.6383-12.383-8.7808-3.1294-3.7235-8.4086-7.2157-12.513-10.126-4.4295-3.1409-9.3321-5.4763-13.209-9.3662-3.9633-3.9769-6.2211-7.2037-9.5361-11.148-2.4901-2.9628-2.9074-10.212-0.95264-13.834 2.5886-4.7969 7.5874-8.9248 12.822-6.5733z" fill="#ff0" fill-rule="evenodd" stroke="#000" stroke-width=".87492"/>
  <path d="m308.23 421.58 225.79 50.228 60.069 16.256-61.373-11.537-227.24-50.37 2.7618-4.577z" fill="#241c1c" fill-rule="evenodd" stroke="#000" stroke-width=".75685"/>
  <path d="m310.39 421.79 225.79 50.228 60.069 16.256-61.373-11.537-227.24-50.37 2.7618-4.577z" fill="url(#t)" fill-rule="evenodd" stroke="#000" stroke-width=".75685"/>
  <path d="m324.72 424.93s-16.463-5.9128-20.853-6.6728-38.881-8.3236-38.881-8.3236-4.7859-1.718-5.8086 2.7826c-0.59567 2.6151-0.89957 3.6783 3.3366 5.3654l38.99 9.0776s19.536 3.7581 22.171 3.4706c2.4142-0.2634 3.6509-4.636 1.0443-5.6998z" fill="#ff7f2a" fill-rule="evenodd" stroke="#000" stroke-width=".75685"/>
  <path d="m267.07 410.44c2.6821 3.8266-1.6208 7.8706-1.9948 8.0682" fill="none" stroke="#000" stroke-width=".75685"/>
  <path d="m273.6 411.94c2.8259 4.731-1.8467 8.1867-2.2171 8.0217" fill="none" stroke="#000" stroke-width=".75685"/>
  <path d="m292.46 415.9c2.9306 4.0446-1.6869 8.2752-2.0896 8.481" fill="none" stroke="#000" stroke-width=".80729"/>
  <path d="m299.58 417.3c3.0259 5.1389-2.0149 8.909-2.413 8.7304" fill="none" stroke="#000" stroke-width=".8189"/>
  <path d="m529.24 476.36c-1.0238 4.503 0.46193 7.9673 3.9019 8.7934 3.9708-0.1582 5.7182-2.222 7.3623-5.0061 1.5014-2.9812 2.1473-6.8154 2.2103-9.4986 0.12092-5.1454-3.0622-7.4679-6.624-6.0828-2.5519 0.9924-3.789 2.3172-5.3668 6.1515l5.2552 1.4115s0.38028 4.0009-1.4618 4.7987c-1.6677 0.7224-0.37192 0.1945-2.1367 0.0132-1.4047-0.1443-3.1403-0.5808-3.1403-0.5808z" fill="#500"/>
  <path d="m528.43 475.98c-1.0048 4.4344 0.49354 7.8528 3.934 8.6771 3.9669-0.1441 5.7046-2.1727 7.3362-4.9114 1.4882-2.9334 2.1181-6.71 2.1704-9.3539 0.10016-5.0703-3.0896-7.3685-6.6429-6.0141-2.5458 0.9704-3.7766 2.2723-5.3377 6.0461l5.2565 1.4066s0.39603 3.9438-1.4413 4.7246c-1.6634 0.7069-0.37084 0.1905-2.1349 0.0066-1.4042-0.1464-3.1401-0.5816-3.1401-0.5816z" fill="#ff7f2a"/>
  <path d="m352.08 436.4c-0.67389 0.8912 5.2882 2.0756 8.6665 2.6466 1.1726 0.1982 2.7587 0.7105 3.9902 0.883 1.764-0.2104 6.3803-1.9891 6.3053-4.6066-0.03476-1.2134 3.4725-0.6632 3.8891-0.9546 1.9958-1.3963-5.1672 5.7523-4.3053 6.2423 0.67754 0.3852 0.69776 4.0208 4.2271 4.0716 2.9316 0.0421 10.715-6.9577 11.762-6.1812 0.86579 1.2047-0.0797 5.0301-3.2015 7.332-2.426 1.7888-6.7522 2.202-8.8032 2.6753-2.9374 0.6779-6.869-1.2221-7.7916-1.4585-13.447-3.4454-12.764-8.2448-14.731-10.339m3.1226-7.7243c-4.3028-4.5794-1.0618-2.258 0.74329-8.0647 1.7924-5.766 11.799-6.4363 16.464-9.299 3.4013-1.3481 8.2171 2.0375 11.525 4.0204 7.9726 2.474 6.6613 10.774 4.2341 18.195-0.31703 0.6206-1.1638 2.8841-1.8488 3.2406-0.52365-0.3146-5.5192 5.4147-9.1378 7.3317-1.8913 1.002-5.1395-1.094-5.9202-2.0076-2.308-2.7011 2.8444-4.9703 2.2866-5.6074 1.2789-2.6223 7.0901-7.3667 2.1069-8.3992-1.363-0.2824-7.9756-0.1756-12.769 3.1508-0.79108 0.549-1.4072-0.2365-1.7753 0.2502" fill="#f00" stroke="#000" stroke-width=".91974"/>
  <g transform="matrix(.98884 0 0 .94067 124.87 98.492)" fill-rule="evenodd" stroke="#000">
   <path d="m301.69 485.69c-3.2879 0-171.79 23.171-186.59 23.171s-50.14-9.8031-50.14-9.8031l-3.2879 6.2383s40.276 18.715 74.799 15.15 48.496-6.2384 48.496-6.2384l303.31-43.668s15.617-15.15 23.015-23.171-4.1098-10.694-4.1098-10.694-23.015 22.28-32.879 23.171-172.61 24.953-172.61 25.845z" fill="#280b0b" stroke-width="1.0412"/>
   <path d="m299.94 484.73c-3.264 0-170.55 22.722-185.24 22.722s-49.777-9.6133-49.777-9.6133l-3.264 6.1176s39.985 18.353 74.257 14.857 48.145-6.1176 48.145-6.1176l301.11-42.823s15.504-14.857 22.848-22.722-4.0801-10.487-4.0801-10.487-22.848 21.849-32.641 22.722-171.36 24.47-171.36 25.344z" fill="#e9afaf" stroke-width="1.0273"/>
  </g>
  <path d="m423.18 543.45c-2.5396 2.4194-14.501 4.472-22.195 5.7543-9.5245 1.5874-10.691 13.974-0.82204 16.441 8.6017 2.1504 14.624 1.2762 23.017-0.822 9.0602-2.2651 14.838-4.1102 24.661-4.1102 9.2015 0 12.699-15.251 7.3984-20.551-6.7019-6.7019-18.143-0.7931-24.661 2.4662-2.3087 1.1543-4.958 0.822-7.3984 0.822z" fill="#d35f5f" fill-rule="evenodd" stroke="#000"/>
  <path d="m429.14 568.33s-0.36192-8.3462-4.2225-14.149c-3.5102-5.2762-8.8721-8.4794-11.098-7.9229-4.6741 1.1685-15.45 2.2072-16.489 3.3757-0.49998 0.5625 3.561 1.5662 7.6188 6.4058 3.6172 4.3142 5.2541 11.34 4.9753 13.978-0.29693 2.8098 18.956-1.2984 19.216-1.6879z" fill="#f4d7d7" fill-rule="evenodd" stroke="#000"/>
  <g transform="matrix(1 0 0 .94067 130.18 108.49)" fill-rule="evenodd" stroke="#000">
   <path d="m301.69 485.69c-3.2879 0-171.79 23.171-186.59 23.171s-50.14-9.8031-50.14-9.8031l-3.2879 6.2383s40.276 18.715 74.799 15.15 48.496-6.2384 48.496-6.2384l303.31-43.668s15.617-15.15 23.015-23.171-4.1098-10.694-4.1098-10.694-23.015 22.28-32.879 23.171-172.61 24.953-172.61 25.845z" fill="#280b0b" stroke-width="1.0412"/>
   <path d="m299.94 484.73c-3.264 0-170.55 22.722-185.24 22.722s-49.777-9.6133-49.777-9.6133l-3.264 6.1176s39.985 18.353 74.257 14.857 48.145-6.1176 48.145-6.1176l301.11-42.823s15.504-14.857 22.848-22.722-4.0801-10.487-4.0801-10.487-22.848 21.849-32.641 22.722-171.36 24.47-171.36 25.344z" fill="#e9afaf" stroke-width="1.0273"/>
  </g>
  <path d="m446.2 370.11c2.8408 4.6032 11.625 12.447 18.085 18.907 5.3322 5.3322 4.7353 15.653 6.5763 23.017 1.3526 5.4106-4.9641 19.793-7.3984 24.661-3.1494 6.2988-7.4089 17.305-9.0424 23.839-2.456 9.8242 2.5737 17.977-4.9322 25.483-3.1955 3.1955 5.3092 9.1106 3.2882 13.153-3.177 6.3539-1.6441 15.331-1.6441 23.017 0 9.913-0.82204 12.815-0.82204 20.551 0 4.539-13.094 8.2204-18.907 8.2204-11.066 0-14.847 1.0228-11.509-12.331 2.2284-8.9136-2.4661-16.004-2.4661-24.661 0-7.4502-2.3497-18.165-5.7543-23.839-3.3163-5.5271 0-18.348 0-24.661 0-8.1991-0.82204-16.278-0.82204-24.661 0-8.9039-0.3472-14.541-2.4661-23.017-1.9759-7.9036 10.083-15.837 13.975-19.729 6.9043-6.9043 15.668-15.741 18.907-23.839 0.79482-1.987 3.2882-2.7401 4.9322-4.1102z" fill="#008080" fill-rule="evenodd" stroke="#000"/>
  <path d="m443.85 548.74c-2.5396 2.4193-14.501 4.472-22.195 5.7543-9.5245 1.5874-10.691 13.974-0.82204 16.441 8.6017 2.1504 14.624 1.2761 23.017-0.8221 9.0602-2.265 14.838-4.1102 24.661-4.1102 9.2015 0 12.699-15.251 7.3984-20.551-6.7019-6.7019-18.143-0.7931-24.661 2.4661-2.3087 1.1544-4.958 0.8221-7.3984 0.8221z" fill="#d35f5f" fill-rule="evenodd" stroke="#000"/>
  <path d="m470.15 371.64c2.8408 4.6032 11.625 12.447 18.085 18.907 5.3322 5.3322 4.7353 15.653 6.5763 23.017 1.3526 5.4105-4.9641 19.793-7.3984 24.661-3.1494 6.2988-7.4089 17.305-9.0424 23.839-2.456 9.8242 2.5737 17.977-4.9322 25.483-3.1955 3.1955 5.3092 9.1106 3.2882 13.153-3.177 6.3539-1.6441 15.331-1.6441 23.017 0 9.9129-0.82204 12.815-0.82204 20.551 0 4.5391-13.094 8.2205-18.907 8.2205-11.066 0-14.847 1.0228-11.509-12.331 2.2284-8.9136-2.4661-16.004-2.4661-24.661 0-7.4503-2.3497-18.165-5.7543-23.839-3.3163-5.5272 0-18.348 0-24.661 0-8.1992-0.82204-16.278-0.82204-24.661 0-8.9039-0.3472-14.541-2.4661-23.017-1.9759-7.9037 10.083-15.837 13.975-19.729 6.9043-6.9043 15.668-15.741 18.907-23.839 0.79482-1.987 3.2882-2.7401 4.9322-4.1102z" fill="#008080" fill-rule="evenodd" stroke="#000"/>
  <path d="m324.72 424.93s-16.463-5.9128-20.853-6.6728-38.881-8.3236-38.881-8.3236-4.7859-1.718-5.8086 2.7826c-0.59567 2.6151-0.89957 3.6783 3.3366 5.3654l38.99 9.0776s19.536 3.7581 22.171 3.4706c2.4142-0.2634 3.6509-4.636 1.0443-5.6998z" fill="url(#s)" fill-rule="evenodd" stroke="#000" stroke-width=".75685"/>
  <path d="m327.56 349.02c-3.732 4.2388-3.1236 18.383 1.1626 22.67 11.07 10.482 11.878 13.804 29.064 17.438 1.9029 3.8058 9.0146 5.8192 11.625 9.3003 2.4465 3.262 12.82 5.5928 16.276 6.9752 6.1962 2.4785 10.859 3.5537 17.438 4.6502 5.9409 0.99014 6.4683 5.5406 12.207 6.9752 5.8955 1.4739 11.637 2.6187 17.438 4.0689 6.1178 1.5294 11.771 1.6709 17.438-1.1626 6.1196-3.0598 10.117-7.7918 14.532-12.207 3.7648-3.7648 6.6538-12.022 7.5565-17.438 4.3088-29.191-3.1703-20.776-18.601-36.039-5.779-7.9727-32.167-21.74-43.014-20.344-23.11-4.1532-34.898-0.71164-56.965-9.3003-8.1955-2.0489-13.966 0.01566-19.763 5.8127-4.8138 4.8138-9.8315 1.5432-11.625 8.7191-0.3009 1.2036 6.0065 8.9128 5.2314 9.8816z" fill="#ff0" fill-rule="evenodd" stroke="#000" stroke-width=".7"/>
  <path d="m351.28 325.06c-0.30732 2.3978-6.2255-2.6891-7.7463-0.57899-2.3164 3.2138 1.0142 8.7818-3.4834 12.02-5.1571 3.7131-9.3546 9.0875-16.744 11.992-1.3751 0.54058-3.6613 0.80471-5.2776 1.2682-12.119 3.475-29.147-25.674-26.734-42.64s18.734-18.808 34.364-15.477c15.617 3.3278 27.436 14.092 25.046 31.048" fill="#d38d5f" stroke="#000" stroke-width=".2"/>
  <path d="m332.35 312.61v-0.53727c0-2.5716 4.9176-5.3522 6.9846-4.8355 3.6078 0.90195 3.2236 4.873 3.2236 7.7905 0 3.216 1.6118 4.4622 1.6118 7.2532 0 1.421-0.54007 4.2303-1.3432 4.0295-1.7714-0.44286-2.9251 0.41789-4.8354-0.53727" fill="url(#r)" fill-rule="evenodd" stroke="#000" stroke-width=".5"/>
  <path d="m288.85 315.23c1.9131-1.469 4.1766-1.933 6.378-2.6658 2.9746-0.99012 4.1787 0.83432 6.368 0.98185 1.7454 0.11759 1.8087 4.7201 1.9798 6.048 0.36452 2.828-1.9338 4.0844-3.8895 5.2103-1.8479 1.0639-5.0999 1.0936-7.0779 0.96027-2.2886-0.15421-3.96-2.7869-4.2146-4.7614-0.25231-1.9574-0.07316-3.8358 0.45611-5.7733z" fill="#4d4d4d" fill-rule="evenodd" stroke="#000" stroke-width=".86137"/>
  <path d="m307.65 310.97c2.2276-1.4297 4.8141-1.7803 7.3404-2.4176 3.4136-0.86104 4.7094 1.1328 7.1881 1.4214 1.976 0.2301 1.8699 5.0787 2.0128 6.4869 0.3043 2.9991-2.3522 4.1815-4.615 5.2476-2.138 1.0073-5.8293 0.84049-8.0687 0.57971-2.591-0.30172-4.3859-3.1748-4.5983-5.2687-0.21062-2.0758 0.0653-4.0421 0.7408-6.0494z" fill="#4d4d4d" fill-rule="evenodd" stroke="#000" stroke-width=".94232"/>
  <path d="m303.6 320.4c-0.47107 0.75215-0.99305 5.0467-1.6118 7.5218-0.62362 2.4945-0.86069 5.1576 2.1491 5.91 2.7785 0.69463 3.5434-1.5574 5.91-2.1491 2.1482-0.53704 2.7298-0.35544 3.7609-2.4177" fill="url(#q)" fill-rule="evenodd" stroke="#000"/>
  <path d="m307.9 337.59c0.48608-0.12152 1.3929 0.06653 1.7493-0.04241 1.7825-0.5448 1.6279-0.95578 3.8921-1.838 1.7541-0.68353 4.0271 0.69995 5.6414-0.26863 1.938-1.1628-3.4488 3.2128-5.6414 3.7609-2.26 0.56499-5.9134 1.6084-7.2532 0.26863-1.2842-1.2842 0.24689-1.6299 1.6118-1.8804z" fill="url(#p)" fill-rule="evenodd" stroke="#000" stroke-width=".5"/>
  <path d="m307.36 340.55c-0.94129-0.94129 1.3949 2.6321 2.6864 2.955 1.2499 0.31248 3.2054 0.25216 4.6787-0.40437 1.2148-0.54136 2.0556-1.5495 2.3059-2.5506 0.21678-0.86712 0.40131-1.521 0.47646-2.0286 0.16192-1.0938 1.2556-1.8445 1.5496-2.7788" fill="url(#o)" fill-rule="evenodd" stroke="#000" stroke-width=".6"/>
  <path d="m332.49 310.81c0.0384-0.15359-5.9606 1.1909-8.466 1.527-0.24363 0.03268-1.4622-2.0672-0.43577-2.2026 3.0014-0.39612 6.4602-0.98418 7.6849-1.2904 1.6197-0.40492 2.3724-0.157 3.2236 0.26864" fill-rule="evenodd" stroke="#000"/>
  <path d="m302.26 315.03c1.692-0.42299 4.5668-4.2089 4.5668-0.53728 0 3.3952-0.30578 3.0314-3.2236 3.7609" fill="#4d4d4d" fill-rule="evenodd" stroke="#000"/>
  <path d="m357.58 325.76c2.35-1.6075 10.867-2.3255 16.904-2.3255 8.553 0 16.226 3.4882 24.793 3.4882 11.419 0 25.136 1.2512 36.063 4.0696 7.4654 1.9256 15.484 0.43012 22.539 4.0696 4.5252 2.3344 3.7837 10.546 2.2539 16.86-1.25 5.159-1.6904 12.101-1.6904 17.441 0 6.5071-2.2539 13.15-2.2539 19.767 0 5.6539-0.96059 12.103-2.2539 17.441-2.0982 8.6594-2.6308 6.3951-10.706 6.3951-7.3065 0-15.777 2.228-15.777-5.8137 0-5.8137 3.3809-12.209 3.3809-18.022 0-5.5574-1.5325-9.9539 0-16.278 1.2832-5.2956 6.4582-12.656 1.6904-15.116-3.1989-1.6502-13.79 0.80322-16.904 0-5.4118-1.3959-12.428-1.1628-18.031-1.1628-6.0468 0-11.875 1.0586-18.031 0-6.2942-1.0823-10.608-2.5909-16.341-4.0696-4.3062-1.1107-10.144-7.5619-11.27-12.209-1.4911-6.1538-0.48007-13.272 5.6348-14.534z" fill="#ff0" fill-rule="evenodd" stroke="#000" stroke-width=".98466"/>
  <path d="m450.3 573.13s-0.36192-8.3462-4.2225-14.149c-3.5102-5.2762-8.8721-8.4794-11.098-7.9229-4.6741 1.1685-15.45 2.2072-16.489 3.3757-0.49998 0.5625 3.561 1.5663 7.6188 6.4058 3.6172 4.3142 5.2541 11.34 4.9753 13.978-0.29693 2.8099 18.956-1.2984 19.216-1.6879z" fill="#f4d7d7" fill-rule="evenodd" stroke="#000"/>
  <path d="m352.01 427.13 240.83 4.7845 64.875 4.723-64.875 1.2227-242.33-4.5987 1.5052-6.1315z" fill="#241c1c" fill-rule="evenodd" stroke="#000" stroke-width=".85156"/>
  <path d="m354.24 426.86 240.83 4.7845 64.875 4.723-64.875 1.2227-242.33-4.5986 1.5052-6.1316z" fill="url(#n)" fill-rule="evenodd" stroke="#000" stroke-width=".85156"/>
  <path d="m369.51 427.09s-18.184-3.0324-22.807-2.8671-41.381-0.4355-41.381-0.4355-5.2861-0.8804-5.0648 4.7356c0.12715 3.2636 0.11681 4.6055 4.8419 5.5832l41.7 1.3079s20.674-0.2869 23.242-1.2728c2.353-0.9034 2.3822-6.419-0.53233-7.0513z" fill="#ff7f2a" fill-rule="evenodd" stroke="#000" stroke-width=".85156"/>
  <path d="m307.55 423.89c3.7572 3.9082 0.55546 9.7802 0.23442 10.107" fill="none" stroke="#000" stroke-width=".85156"/>
  <path d="m314.54 424.09c4.1527 4.9515 0.41619 10.212-0.00183 10.106" fill="none" stroke="#000" stroke-width=".85156"/>
  <path d="m334.58 424.21c4.0673 4.1075 0.60132 10.279 0.2538 10.623" fill="none" stroke="#000" stroke-width=".90832"/>
  <path d="m342.13 424.14c4.4668 5.3891 0.44766 11.115-0.00198 10.999" fill="none" stroke="#000" stroke-width=".92138"/>
  <path d="m589.31 438.51c0.22086 5.6191 2.6752 9.3873 6.3612 9.5328 3.9463-1.1578 5.1296-4.0452 6.0091-7.7661 0.68149-3.9211 0.26639-8.6506-0.41486-11.865-1.3064-6.1648-5.1496-8.1572-8.3444-5.6363-2.289 1.8061-3.1645 3.6878-3.6859 8.6448l5.6726 0.4005s1.4924 4.6776-0.13726 6.0786c-1.4754 1.2683-0.31978 0.3226-2.1435 0.5372-1.4516 0.1708-3.3169 0.0739-3.3169 0.0739z" fill="#500"/>
  <path d="m588.38 438.25c0.22086 5.5328 2.6752 9.2431 6.3612 9.3864 3.9463-1.1401 5.1296-3.9831 6.0091-7.6468 0.68149-3.8609 0.26639-8.5178-0.41486-11.683-1.3064-6.0701-5.1496-8.0319-8.3444-5.5497-2.289 1.7784-3.1645 3.6311-3.6859 8.512l5.6726 0.3943s1.4924 4.6058-0.13726 5.9853c-1.4754 1.2488-0.31978 0.3176-2.1435 0.5289-1.4516 0.1682-3.3169 0.0728-3.3169 0.0728z" fill="#ff7f2a"/>
  <path d="m428.7 410.05-2.3251 2.3251c-4.4427 4.4427-11.044 2.3764-11.044 11.625 0 0.7424-0.30578 3.2713 0.19121 3.9883 2.5384 0.0714 10.248 0.02 11.716-0.4037 0.05983-3.1018 1.7778-6.9705 3.2056-1.2595 0.8912 3.5648-1.191 6.7401-3.8962 9.0995-0.44618 0.3891-2.2191-1.812-2.3165-0.1904-0.01243 0.2069-5.7364-0.9904-7.0679-0.4578-2.6013 1.0405 0.08009 6.5947 4.1687 10.28 2.5607 2.3078 6.5994 3.1701 7.3681 3.9388 1.9099 1.9099 13.856-2.1561 16.857-2.9064 6.5638-1.6409 8.1378-9.3464 8.1378-15.113 0-6.4324 1.4209-11.582-1.7438-16.857-2.7867-4.6444-12.412-1.2652-16.857-3.4876-0.94053-0.47027-5.4739-0.58127-6.394-0.58127z" fill="#f00" fill-rule="evenodd" stroke="#000"/>
  <path d="m369.51 427.09s-18.184-3.0324-22.807-2.8671-41.381-0.4355-41.381-0.4355-5.2861-0.8804-5.0648 4.7356c0.12715 3.2636 0.11681 4.6055 4.8419 5.5832l41.7 1.3079s20.674-0.2869 23.242-1.2728c2.353-0.9034 2.3822-6.419-0.53233-7.0513z" fill="url(#m)" fill-rule="evenodd" stroke="#000" stroke-width=".85156"/>
  <path d="m289.11 315.82c1.7783-1.3605 3.8823-1.7903 5.9286-2.469 2.765-0.91704 3.8842 0.77275 5.9193 0.90938 1.6224 0.10891 1.6812 4.3718 1.8403 5.6016 0.33883 2.6193-1.7975 3.7829-3.6154 4.8258-1.7177 0.98538-4.7405 1.0128-6.5792 0.88941-2.1274-0.14283-3.681-2.5812-3.9176-4.41-0.23454-1.813-0.06801-3.5527 0.42396-5.3472z" fill="url(#l)" fill-rule="evenodd" stroke="#000" stroke-width=".79923"/>
  <path d="m306.59 311.87c2.0706-1.3242 4.4749-1.6489 6.8232-2.2391 3.173-0.79749 4.3776 1.0492 6.6816 1.3165 1.8368 0.21312 1.7381 4.7038 1.8709 6.0081 0.28286 2.7777-2.1865 3.8728-4.2898 4.8603-1.9874 0.93298-5.4186 0.77846-7.5001 0.53692-2.4085-0.27945-4.0768-2.9404-4.2743-4.8798-0.19579-1.9226 0.06069-3.7438 0.6886-5.6029z" fill="url(#k)" fill-rule="evenodd" stroke="#000" stroke-width=".87434"/>
  <path d="m301.58 315.63c1.5727-0.39175 4.245-3.8982 4.245-0.49761 0 3.1446-0.28425 2.8077-2.9965 3.4833" fill="url(#j)" fill-rule="evenodd" stroke="#000" stroke-width=".92786"/>
  <path d="m318.47604,300.6788c-.31992.68693-.4833,2.14575 1.24228,2.14575 2.73269,0 1.5653-1.30539 2.03281.56467 .24157.96628 2.76076.25038 2.93629-.45174 .26072-1.0429-2.62122,2.29285.22586,1.58108 2.37294-.59324.47896.53583 2.03282,1.46814 .7916.47496 1.75257-1.1879.11293.45174-1.11224,1.11224 1.5868,1.80465 2.14575,1.58107 .12383-.04953-.74698,1.46814.56467,1.46814 1.0789,0 .77202.60355 1.12934,2.03282 .24564.98257-.37766,1.95874 1.46814.11293 .41223-.41223.81192-2.72574.90347-3.27509 .10539-.63234 1.3465.17376 1.91988-.11293 1.19217-.59608 2.57659-1.24227 3.95269-1.24227 1.14713,0 2.10517,1.09935 2.59749,1.91987 .61035,1.01725.83789,2.10929 1.12934,3.27509 .27661,1.10646-.39834,2.2464-.11294,3.38802 .324,1.29598.68222,2.05126 1.01641,3.38802 .26393,1.05573.61224,2.20528.79054,3.27509 .13833.82998-.24746,2.73201-.79054,3.27509-1.11658,1.11658-2.29221.27174-1.46814,1.91988 .21952.43903 1.81936,1.71096 2.37161.79054 .13375-.22292 1.59536-.35309 1.91988-.67761 .01411-.01411.96127-.05779 1.35521-.45173 .38291-.38291 1.4697,3.04453 2.59748-.33881 .55235-1.65705 1.27947-1.09079 1.80695-2.14574 .37936-.75873.09861-2.31599-.11294-3.16216-.27074-1.08296-.00128-2.03538-.45173-2.93628-.52592-1.05185-.16084-2.15258-.56467-3.16216-.09379-.23446.40005-.43261.3388-.6776-.21936-.87745.71408-1.09462-.11293-3.16215-.40187-1.00467-1.41601-1.95893-1.58108-2.37162-.34702-.86754-.90347-2.80441-.90347-3.16215 0-1.45294-.90266-1.15778-1.91988-.90347-.4921.12302-2.88745-1.48417-3.72683-1.69401-1.30801-.32701-3.1262.69557-4.29149.11293-1.31666-.65833-1.51274.76824-2.82335.11293-1.08233-.54116-2.99976-1.3111-4.17856-1.0164-.99699.24925-4.41433-.91338-5.19497-1.69401-.46801-.46801-2.64797-.15379-3.38802-.3388-1.52025-.38007-1.91514.17177-3.38802-.56468-.95061-.4753-1.33503.48077-2.14575,1.12935" fill="#333" fill-rule="evenodd" stroke="#000"/>
  <path d="m290.89 282.25c12.158-28.72 45.378-40.093 63.15-38.721 1.2964 0.10014 1.1402-2.9316 2.7515-4.7444 1.7131-1.9272 5.6103-2.7489 7.2753 1.0036 1.7186 3.8732 1.091 6.7358-0.97366 7.294-1.8486 0.49974-5.009-1.1676-6.0601-0.39331-6.0158 4.4312-10.321 21.645-5.2104 46.84 0.9315 4.5925 0.98941 7.7922-1.0619 10.179-0.62573 0.72813-0.31838 1.4936-1.3717 2.0869-1.5431 0.86929-3.2038-0.77347-4.7147-0.86756-4.8163-0.29995-6.0012-3.2426-22.514-3.1398-15.256 0.09495-28.409 7.3582-32.641 5.0088-8.4964-4.7167 0.46795-14.611 1.3672-24.51" fill="#f00"/>
  <path d="m290.89 282.25c12.158-28.72 45.378-40.093 63.15-38.721 1.2964 0.10014 1.1402-2.9316 2.7515-4.7444 1.7131-1.9272 5.6103-2.7489 7.2753 1.0036 1.7186 3.8732 1.091 6.7358-0.97366 7.294-1.8486 0.49974-5.009-1.1676-6.0601-0.39331-6.0158 4.4312-10.321 21.645-5.2104 46.84 0.9315 4.5925 0.98941 7.7922-1.0619 10.179-0.62573 0.72813-0.31838 1.4936-1.3717 2.0869-1.5431 0.86929-3.2038-0.77347-4.7147-0.86756-4.8163-0.29995-6.0012-3.2426-22.514-3.1398-15.256 0.09495-28.409 7.3582-32.641 5.0088-8.4964-4.7167 0.46795-14.611 1.3672-24.51" fill="url(#i)"/>
  <path d="m290.73 307.58c-1.1372 0.10707-3.0868-2.4869-4.5986-3.9987-1.5498-1.5499-1.614-4.3552-0.99968-6.1981 0.57071-1.7121-0.36126-3.8443-0.79975-5.5982-0.73806-2.9522 3.4555-1.8849 4.9984-2.3992 1.8542-0.61807 4.8915-1.0764 6.7979-0.59982 3.4034 0.85087 7.0658-1.1996 10.397-1.1996 4.1779 0 9.2516 2.8294 13.196 0.19994 2.7381-1.8254 9.6215-0.39988 12.796-0.39988 2.4793 0 3.9976 1.7994 6.7979 1.7994 2.5662 0 6.081 1.2203 8.3974 1.7994 1.7751 0.44378 4.8988 2.8994 5.9981 3.9988 1.1739 1.1739-0.38297 4.5648-0.99969 5.7982-0.92763 1.8553-0.50602 4.4517-2.3992 5.3983-2.2718 1.1359-3.4809 0.57932-5.7982 0-2.0478-0.51196-3.988-1.097-5.9981-1.5995-2.1704-0.54259-4.1111-0.59981-6.398-0.59981-2.188 0-4.154-0.79975-6.398-0.79975-2.2792 0-4.4592 0.19994-6.7979 0.19994-2.0077 0-4.0621-0.19994-5.9981-0.19994-1.9513 0-3.3632 0.39988-5.3983 0.39988-2.0926 0-3.5911 0.89776-5.5982 1.3996-1.977 0.49425-4.9648 0.16629-6.1981 1.3996-1.2351 1.2351-3.5375 1.5302-4.5986 0.99969" fill="#a00" fill-rule="evenodd" stroke="#000"/>
  <path d="m290.73 307.58c-1.1372 0.10707-3.0868-2.4869-4.5986-3.9987-1.5498-1.5499-1.614-4.3552-0.99968-6.1981 0.57071-1.7121-0.36126-3.8443-0.79975-5.5982-0.73806-2.9522 3.4555-1.8849 4.9984-2.3992 1.8542-0.61807 4.8915-1.0764 6.7979-0.59982 3.4034 0.85087 7.0658-1.1996 10.397-1.1996 4.1779 0 9.2516 2.8294 13.196 0.19994 2.7381-1.8254 9.6215-0.39988 12.796-0.39988 2.4793 0 3.9976 1.7994 6.7979 1.7994 2.5662 0 6.081 1.2203 8.3974 1.7994 1.7751 0.44378 4.8988 2.8994 5.9981 3.9988 1.1739 1.1739-0.38297 4.5648-0.99969 5.7982-0.92763 1.8553-0.50602 4.4517-2.3992 5.3983-2.2718 1.1359-3.4809 0.57932-5.7982 0-2.0478-0.51196-3.988-1.097-5.9981-1.5995-2.1704-0.54259-4.1111-0.59981-6.398-0.59981-2.188 0-4.154-0.79975-6.398-0.79975-2.2792 0-4.4592 0.19994-6.7979 0.19994-2.0077 0-4.0621-0.19994-5.9981-0.19994-1.9513 0-3.3632 0.39988-5.3983 0.39988-2.0926 0-3.5911 0.89776-5.5982 1.3996-1.977 0.49425-4.9648 0.16629-6.1981 1.3996-1.2351 1.2351-3.5375 1.5302-4.5986 0.99969" fill="url(#h)" fill-rule="evenodd" stroke="#000"/>
  <path d="m354.11 244.4c-0.576 0.298-3.1819 2.2724-4.9984 2.9991-2.3015 0.92061-3.5681 1.9417-6.1981 2.5992-0.39329 0.09832-0.79975 0.13329-1.1996 0.19994-2.1915 0.36525-4.3028 0.67582-6.398 1.1996-1.8649 0.46623-4.4331 1.0341-5.5982 2.1993-1.2996 1.2996-3.1073 2.8024-4.5986 3.3989-1.3882 0.55528-3.5827 3.2386-4.3986 4.5986-1.1676 1.946-0.06263 3.4616-1.9994 5.3983-1.5338 1.5338-2.58 2.9004-3.5989 4.5986-1.1634 1.9391-3.0289 4.3179-3.5989 6.5979-0.45553 1.8221-1.5995 3.8497-1.5995 5.7982 0 1.4776-0.39987 2.884-0.39987 4.3986" fill="url(#g)" fill-rule="evenodd"/>
  <path d="m354.51 245.6c0 0.35129-4.4543 4.0785-5.7982 5.1984-1.501 1.2508-3.7658 2.7662-5.1984 4.1987-2.0102 2.0102-4.1306 2.9173-6.1981 5.3983l-0.99969 1.1996c-1.3042 1.565-2.3552 2.9111-3.199 4.5986-0.90404 1.8081-0.59981 3.9844-0.59981 5.9981 0 2.0737-1.3124 4.0502-1.7994 5.9981-0.46355 1.8542-1.0945 3.7782-1.5995 5.7982-0.3145 1.258-0.21591 3.3389-0.39988 3.7988" fill="url(#f)" fill-rule="evenodd"/>
  <path d="m294.13 288.58c-0.12634 0.50535 2.6206-2.6848 3.5989-6.5979 0.58285-2.3314 1.2273-4.3648 1.5995-6.5979 0.25518-1.5311 2.2252-3.8507 2.9991-5.3983 0.9062-1.8124 2.3106-3.4217 2.9991-4.7985 0.73703-1.4741 2.8652-1.9541 3.7988-3.199 1.3894-1.8526 3.414-3.2141 4.9984-4.7985 1.6673-1.6674 2.5718-2.812 4.9984-4.1987 2.1072-1.2041 3.9341-2.167 5.9981-3.199 1.8531-0.92657 4.7432-1.858 5.9981-2.7991 1.5202-1.1402 5.6955-1.0289 7.5976-1.5995 2.0232-0.60697 5.0674-1.1996 7.1978-1.1996 2.0754 0 3.9131-1.1996 5.9981-1.1996 2.2347 0 4.7985 1.5298 4.7985 3.5989 0 0.77997-0.39738 0.50047-1.5995 0.19994" fill="url(#e)" fill-rule="evenodd"/>
 </g>
</svg>
