<?xml version="1.0" encoding="UTF-8"?>
<svg version="1.1" viewBox="0 0 988.15 496.43" xmlns="http://www.w3.org/2000/svg" xmlns:xlink="http://www.w3.org/1999/xlink">
 <defs>
  <linearGradient id="z">
   <stop stop-color="#4d4d4d" offset="0"/>
   <stop stop-color="#1f1f1f" offset="1"/>
  </linearGradient>
  <linearGradient id="b">
   <stop stop-color="#ff2a2a" offset="0"/>
   <stop stop-color="#a42727" offset="1"/>
  </linearGradient>
  <linearGradient id="y">
   <stop stop-color="#fff725" offset="0"/>
   <stop stop-color="#fff725" stop-opacity="0" offset="1"/>
  </linearGradient>
  <linearGradient id="a">
   <stop stop-color="#fff" offset="0"/>
   <stop stop-color="#b7fdff" offset="1"/>
  </linearGradient>
  <linearGradient id="aa" x1="333.62" x2="410.39" y1="593.71" y2="708.62" gradientTransform="matrix(1.1038 0 0 1.1038 -54.398 -68.377)" gradientUnits="userSpaceOnUse">
   <stop stop-color="#fff" offset="0"/>
   <stop stop-color="#72d8db" offset="1"/>
  </linearGradient>
  <linearGradient id="ab" x1="183.97" x2="242.96" y1="492.26" y2="608.32" gradientTransform="matrix(1.1038 0 0 1.1038 -54.398 -68.377)" gradientUnits="userSpaceOnUse" xlink:href="#z"/>
  <linearGradient id="ac" x1="588.22" x2="645.09" y1="190.97" y2="314.21" gradientTransform="translate(0 308.27)" gradientUnits="userSpaceOnUse" xlink:href="#z"/>
  <linearGradient id="ad" x1="694.64" x2="660" y1="487.67" y2="478.38" gradientTransform="translate(0 308.27)" gradientUnits="userSpaceOnUse" xlink:href="#b"/>
  <linearGradient id="ae" x1="962.19" x2="924.15" y1="549.27" y2="545.98" gradientTransform="translate(0 308.27)" gradientUnits="userSpaceOnUse" xlink:href="#b"/>
  <linearGradient id="af" x1="706.73" x2="669.69" y1="773.97" y2="765.4" gradientUnits="userSpaceOnUse" xlink:href="#a"/>
  <linearGradient id="ag" x1="758.61" x2="690.68" y1="659.79" y2="690.51" gradientUnits="userSpaceOnUse" xlink:href="#a"/>
  <linearGradient id="ah" x1="310.12" x2="311.88" y1="657.9" y2="636.94" gradientUnits="userSpaceOnUse" xlink:href="#a"/>
  <linearGradient id="ai" x1="513.16" x2="483.25" y1="274.92" y2="255.23" gradientTransform="translate(0 308.27)" gradientUnits="userSpaceOnUse" xlink:href="#a"/>
  <linearGradient id="aj" x1="501.55" x2="510.16" y1="417.51" y2="390.49" gradientTransform="translate(0 308.27)" gradientUnits="userSpaceOnUse" xlink:href="#a"/>
  <linearGradient id="ak" x1="876.48" x2="877.01" y1="496.01" y2="520" gradientUnits="userSpaceOnUse" xlink:href="#y"/>
  <linearGradient id="al" x1="331.46" x2="323.88" y1="311.75" y2="303.04" gradientUnits="userSpaceOnUse" xlink:href="#b"/>
  <linearGradient id="am" x1="220.93" x2="226.08" y1="297.32" y2="304.39" gradientUnits="userSpaceOnUse" xlink:href="#b"/>
  <linearGradient id="an" x1="216.22" x2="220.34" y1="298.27" y2="305.09" gradientUnits="userSpaceOnUse" xlink:href="#b"/>
  <linearGradient id="ao" x1="235.51" x2="228.84" y1="257.62" y2="257.62" gradientUnits="userSpaceOnUse" xlink:href="#a"/>
  <linearGradient id="ap" x1="241.75" x2="236.04" y1="283.56" y2="260.27" gradientUnits="userSpaceOnUse">
   <stop stop-color="#000080" offset="0"/>
   <stop stop-color="#2a97ff" offset="1"/>
  </linearGradient>
  <linearGradient id="aq" x1="310.06" x2="340.95" y1="231.14" y2="217.48" gradientUnits="userSpaceOnUse" xlink:href="#a"/>
  <linearGradient id="ar" x1="347.25" x2="346.59" y1="181.92" y2="208.44" gradientUnits="userSpaceOnUse" xlink:href="#a"/>
  <linearGradient id="as" x1="336.46" x2="338.78" y1="291.33" y2="265.57" gradientUnits="userSpaceOnUse" xlink:href="#a"/>
  <linearGradient id="at" x1="179.33" x2="193.32" y1="345.51" y2="366.72" gradientUnits="userSpaceOnUse" xlink:href="#y"/>
 </defs>
 <g transform="translate(-58.501 -417.59)">
  <g transform="translate(28.571 7.1429)">
   <path d="m455.86 702.95s-25.552-12.158-32.428-20.793c-6.8752-8.6355-32.822-49.454-37.658-61.224-4.8361-11.771-10.497-26.16-12.395-44.049-1.8973-17.89-3.0912-46.921-2.262-59.171 0.82916-12.25 4.2555-42.44 5.8587-56.566s-2.8599-14.352-7.0715-16.794c-4.2116-2.4418-12.458-3.9388-21.076-4.6362-8.6177-0.69748-98.406 9.3116-126.2 9.5233-27.798 0.21173-82.543 5.5009-108.58 5.0703-26.042-0.4306-54.71-9.8561-63.579-8.3378-8.8692 1.5183-12.325 4.7732-14.124 10.741s-5.9209 17.563-2.0237 22.775c3.8972 5.2116 7.1148 11.468 16.186 15.584 9.0714 4.1155 37.84 10.186 49.076 10.058 11.236-0.12752 27.798-0.21173 27.798-0.21173s-21.251 4.3213-34.149 4.2602c-12.898-0.061-34.2-0.23428-40.633-0.40332-6.4333-0.16904-7.9499 3.3059-10.24 8.6568-2.2905 5.3509-5.1724 13.44-1.1239 19.791 4.0485 6.3509 9.7588 12.89 18.496 15.004 8.7375 2.1138 26.71 4.434 37.914 4.5835 11.205 0.14948 32.267-2.51 32.267-2.51s-15.037 6.4292-25.663 8.5898c-10.625 2.1606-28.572 2.0877-32.393 3.6179-3.8207 1.5302-7.7672 4.1683-7.559 7.2779s0.07053 9.266 5.1386 14.049c5.068 4.7834 7.8947 7.068 16.821 7.5199 8.9261 0.45193 20.402 3.157 29.454 2.5011 9.0519-0.65596 27.615-1.0741 27.615-1.0741s-4.6831 1.7129-5.0289 4.7596c-0.34578 3.0467 0.53615 7.6355 4.9618 10.663s15.279 8.7476 25.684 8.5258c10.405-0.22181 38.846 1.3226 45.367 3.185 6.5217 1.8623 22.871 13.537 33.655 22.336 10.784 8.7986 22.513 21.632 35.022 30.065 12.509 8.4333 21.657 19.291 37.798 27.855 16.141 8.5649 53.309 29.616 53.309 29.616z" stroke="#000" stroke-width="5.5191"/>
   <path d="m413.99 715.88s-54.684-7.6089-78.425-30.783c-23.741-23.174-73.69-107.11-73.69-107.11s-26.651 9.8804-36.553 5.6706c-9.9024-4.2098-15.116-12.657-13.19-19.732 1.9252-7.0756 33.428-25.102 33.428-25.102s-25.928 3.5099-35.302-2.8843-12.654-12.097-8.4504-19.475c4.2039-7.3781 23.339-15.306 23.339-15.306s-12.898-0.061-18.42-8.2624c-5.5217-8.2014-8.1225-14.949-3.4904-21.156 4.6321-6.2074 17.951-14.795 28.362-17.541s37.901-2.7122 58.686-5.4031 59.611-6.1397 68.84-3.4091c9.2286 2.7306 12.03 2.768 14.359 6.96s-6.9938 41.849-5.472 75.406c1.5219 33.557 2.3207 73.485 15.562 97.712 13.241 24.227 31.608 55.207 38.489 61.319 6.8811 6.1113 25.943 16.13 25.943 16.13z" fill="url(#aa)"/>
   <path d="m219.81 454.25s-17.845 8.916-20.444 14.512c-2.599 5.5965-5.6635 12.823-2.6286 18.218 3.0349 5.3942 7.4487 13.47 15.972 14.998 0 0-10.814 3.8225-13.658 9.1106-2.8445 5.288-6.3118 13.591-3.0883 17.324 3.2235 3.7324 8.1598 12.148 14.744 13.456 6.5846 1.3084 18.96 1.0296 18.96 1.0296s-18.008 12.825-19.958 17.654c-1.9507 4.8284-4.3925 9.04 0.33569 14.346 4.7282 5.3058 8.8964 13.073 15.884 13.305 6.9873 0.2319 34.369-6.199 34.369-6.199s46.032 73.958 53.524 82.102c7.492 8.1444 16.477 22.911 23.761 27.946 7.2838 5.0348 16.167 10.812 27.548 14.348 11.382 3.536 46.363 11.714 46.363 11.714l-38.076 11.67s-39.138-20.994-60.404-36.312c-21.266-15.319-40.719-29.309-46.983-35.912s-39.291-34.477-48.028-36.591c-8.7375-2.1138-41.767-2.7763-48.691-3.5622-6.9244-0.78585-18.986-3.2769-24.513-8.954-5.5277-5.6771-0.49879-10.437 3.045-11.998 3.5438-1.5616 9.7689-4.5022 9.7689-4.5022s-31.071 4.329-50.182 2.16-31.21-1.8588-35.378-9.626c-4.1683-7.7672-2.5829-14.32 0.28114-14.837 2.8641-0.5166 19.023 0.47568 33.809-3.7377 14.786-4.2134 56.229-20.831 56.229-20.831s-33.387 7.4327-50.811 7.6996c-17.424 0.26688-50.667-0.98101-59.941-10.73-9.2737-9.7493-7.9339-16.611-5.0579-22.176 2.8759-5.565 4.2353-7.6551 6.7595-7.6492 2.5242 6e-3 38.783 1.8766 57.969-1.5568s55.191-11.691 55.191-11.691-42.187 5.8728-66.19 2.3071-48.162-5.7465-56.725-16.818c-8.5625-11.071-6.826-16.485-3.8557-22.881 2.9702-6.396 2.2022-7.0442 7.8734-10.048 5.6712-3.0034 21.724 3.8682 35.573 5.4399s63.748 1.9045 87.825-0.1322 48.829-2.5942 48.829-2.5942z" fill="url(#ab)"/>
   <g transform="matrix(1.1038 0 0 1.1038 -54.398 -68.377)">
    <path d="m344.73 610.13s-7.9464 26.339-9.9107 37.143-4.4643 23.482-1.0714 31.875c3.3929 8.3929 7.4107 17.232 15.357 21.071 7.9464 3.8393 24.464 7.3214 35.625 5.8929 11.161-1.4286 21.339-6.6964 26.964-12.857 5.625-6.1607 22.589-41.607 30.804-61.607 8.2143-20 18.393-38.393 24.554-52.054 6.1607-13.661 18.304-40.357 23.929-49.464 5.625-9.1072 15.625-24.018 33.214-36.339s35.714-17.946 52.679-21.518c16.964-3.5714 45-5.625 55.268-5.1786s20.089-1.7857 28.839-1.9643c8.75-0.17858 56.161 2.5 68.661 2.6786s40.714 0.0893 55.179-1.1607c14.464-1.25 51.518-7.7678 54.821-6.7857s8.2143 4.2857 10.268 9.5536 4.1071 12.857 1.7857 19.018c-2.3214 6.1607-5.3571 11.964-12.232 14.821-6.875 2.8571-35.446 7.4107-53.214 9.8214s-53.571 0.625-53.125 0.71428c0.44643 0.0893 12.054 5.8036 25.893 7.1429s32.054 5.7143 46.161 5.4464c14.107-0.26786 38.929-2.6786 42.589-0.98215 3.6607 1.6964 5.1786 5.2679 4.7321 7.7679-0.44642 2.5-1.875 13.661-5.4464 19.375-3.5714 5.7143-8.6607 12.143-14.375 14.018s-27.946 4.1964-37.411 3.0357c-9.4643-1.1607-68.482-8.3928-68.482-8.3928s28.214 8.6607 37.946 10.982c9.7321 2.3214 29.672 8.5491 39.673 10.5 10.834 2.1132 15.804 0.66613 18.483 2.9876s1.9338 5.5304-0.11979 8.834-7.5 15.089-15.357 20.268c-7.8571 5.1786-20.357 7.3214-30 6.4286-9.6429-0.89286-37.232-8.0357-47.589-11.607-10.357-3.5714-46.786-11.964-52.054-12.054-5.2679-0.0893-15.357 0.35714-15.357 0.35714s6.3393 7.3214 14.464 10.268 23.393 4.0179 25.089 7.3214 0.53571 6.3393-3.3036 9.5536c-3.8393 3.2143-15 10.714-24.196 10.893s-41.161-11.518-41.161-11.518 3.0357 5.2679 5.1786 6.7857c2.1428 1.5178 8.3036 5.2678 8.9286 7.5893s-2.0536 5.9821-6.3393 8.3036c-4.2857 2.3214-7.8571 3.9286-12.946 4.375-5.0893 0.44643-19.643-3.2143-25.446-5.625-5.8036-2.4107-11.161-5.1786-11.161-5.1786s-0.71429 2.2321-2.3214 2.9464-4.0179 0.89286-4.0179 0.89286 1.9643 1.4286 0.625 4.6428c-1.3393 3.2143-3.6607 5.9822-6.875 7.2322s-10.804 2.5-13.929 5.2678c-3.125 2.7679-14.821 24.643-14.821 24.643s46.786 5.4464 56.964 5.8929 51.429 1.5179 51.429 1.5179 27.321-9.1072 36.25-12.232 22.054-9.2857 25.179-8.125 3.4822 3.5714 3.4822 5.3572c0 1.7857-0.98215 9.375-0.98215 9.375s12.589-1.4286 18.125-2.3214c5.5357-0.89286 10.804-1.7857 13.661-2.2322 2.8571-0.44642 7.4107-3.4821 9.4643-3.3036 2.0536 0.17857 4.375 2.1429 5 5.4464s1.5179 10.536-0.17857 14.375c-1.6964 3.8393-10.982 12.589-16.25 14.821-5.2678 2.2321-30.446 9.4643-41.161 10.179-10.714 0.71429-34.286 1.9643-34.286 1.9643s17.232 3.2143 26.25 3.3928c9.0179 0.17858 19.911 1.4286 25.357 0.98215s14.196-2.4107 15.714-1.3393c1.5179 1.0714 3.0357 2.7679 2.6786 5.0893-0.35714 2.3214-1.1607 7.4107-5 11.071-3.8393 3.6607-7.5 7.5893-14.018 9.1964-6.5179 1.6071-19.821 2.1428-31.25 1.3393s-21.518-2.9464-21.518-2.9464l-5.3571 2.8572s10.893 4.1964 12.679 5.9821c1.7857 1.7857 1.4286 4.7321 0.89286 6.7857-0.53572 2.0536-2.3214 5.3572-2.3214 5.3572s117.23 30.625 122.32 31.607c5.0893 0.98214 22.679 4.9107 28.304 4.1071s32.054-20.179 35.893-22.5c3.8393-2.3214 9.2857 0.71429 10.893 2.6786 1.6071 1.9643 3.6607 4.8214 3.75 7.1429 0.0893 2.3214 0 4.2857 0 4.2857s7.2321-4.1964 11.161-4.1071c3.9286 0.0893 11.607 2.3214 13.125 5.4464 1.5178 3.125 2.0536 5.5357 0.71428 7.0536-1.3393 1.5179-12.411 10.089-14.643 12.411-2.2321 2.3214-3.3928 4.5536-3.3928 4.5536s5.9821 5.5357 12.5 6.5178c6.5179 0.98215 12.054 2.9464 20.536 1.4286 8.4822-1.5179 19.464-4.1072 24.196-2.5893s7.4107 3.75 7.9464 6.5179c0.53571 2.7678-0.89286 7.9464-0.89286 7.9464s3.6607-1.3393 7.5-0.80358 6.875 1.6964 7.2322 5.3572c0.35714 3.6607-3.2143 11.875-3.2143 11.875s1.9643-0.71429 2.9464 0.98214 1.9643 5 0.53571 7.8571c-1.4286 2.8572-7.0536 8.75-11.25 8.4822-4.1964-0.26786-23.75-0.0893-34.018-3.4822-10.268-3.3928-27.143-8.3036-38.929-13.661-11.786-5.3571-34.643-17.857-34.643-17.857l-64.196-16.071s-10.179 3.3928-21.786 0.26785c-11.607-3.125-16.071-11.518-16.071-11.518l-86.518-22.321s-6.7857 3.3036-15.268 4.5536-36.964-1.6071-49.554-3.3036c-12.589-1.6964-45.089-5.7143-45.089-5.7143s-15.982 2.7679-35.179 4.1964-37.679 0-46.607-2.6786-12.5-9.9107-12.5-9.9107-0.80357 3.8393 1.6071 13.571c0 0-14.732-9.0178-18.393-13.661-3.6607-4.6429-5.3571-9.6429-5.3571-9.6429s-0.625 4.0179 0.17857 8.6607 6.4286 17.946 6.4286 17.946-18.929-10.179-23.661-14.286-8.0357-6.6964-8.0357-6.6964-8.2143 0.44643-25-2.7678c-16.786-3.2143-46.607-8.2143-58.393-14.643-11.786-6.4286-28.393-19.554-34.107-31.786-2.7734-5.9368-5.0893-14.554-6.0714-24.643-0.98214-10.089-1.7857-18.839-0.53571-31.518s6.9643-23.304 8.8393-30.982c1.875-7.6786 8.0357-23.571 8.0357-23.571l40.893-23.036z" stroke="#000" stroke-width="5"/>
    <path d="m304.11 621.47s-15 40.536-16.071 56.964c-1.0714 16.429 2.5 45 8.75 52.857 6.25 7.8572 21.607 26.786 48.75 34.464 27.143 7.6786 62.321 11.607 62.321 11.607l-5.5357-9.8214s11.964 13.214 16.429 16.071c4.4643 2.8571 16.429 9.8214 16.429 9.8214s-3.0357-8.3929-2.8571-14.643 1.6071-11.339 1.6071-11.339 4.6429 10.804 10.714 16.161 10.357 8.125 10.357 8.125c-2.0536-9.1964-0.35714-16.339-0.35714-16.339s5 10 10.893 13.393c5.8928 3.3929 40.893 6.25 56.25 3.9286s83.75-14.821 83.75-14.821l-41.964 12.679s33.75 5 46.964 5.8928c13.214 0.89286 26.071 5 38.75 1.0714s21.607-6.6071 24.464-12.321c2.8572-5.7143 3.3929-9.2857 0.17857-12.857-3.2143-3.5714-47.679-17.143-47.679-17.143l23.929 3.0357s11.964 0.71429 21.25-5.1786l-17.5-5.5357s36.964 7.5 47.143 6.7857c10.179-0.71429 24.107 2.5 33.393-5.1786 9.2857-7.6786 10.536-13.929 9.4643-15.536-1.0714-1.6071-9.2857 0-15.179 0.35714-5.8928 0.35715-40.714-1.7857-53.214-3.75s-18.571-8.3928-18.571-8.3928 21.964 4.4643 44.107 1.7857 37.679-5.8929 48.571-11.071 16.429-10.179 17.321-16.964c0.89286-6.7857 0.17857-11.25-2.3214-12.321s-7.6786 2.3214-11.964 3.0357c-4.2857 0.71429-37.143 6.25-56.607 8.3929s-67.504 1.3473-86.697 0.33711c-19.193-1.0102-60.862-6.0609-60.862-6.0609s-9.7227 13.637-24.749 19.445-30.178 7.4499-42.3 4.1669-22.981-15.279-22.981-15.279 12.753 8.7126 28.032 5.177c15.279-3.5355 29.421-13.637 33.84-22.097 4.4194-8.46 15.405-31.441 20.961-45.204s14.521-25.885 23.107-34.598c8.5863-8.7126 10.733-9.4702 10.733-9.4702s3.7881 2.0203 8.8388-0.3788c5.0508-2.3991 7.1973-5.8084 7.1973-5.8084s-6.1872-1.894-10.48-6.9448c0 0 13.258 4.672 21.466 3.6618 8.2075-1.0102 21.339-3.0304 25.001-9.3439 3.6618-6.3134 0.25254-10.354-3.4093-12.627-3.6618-2.2728-30.305-9.3439-30.305-9.3439s18.183 3.9143 24.875 3.7881 26.895-2.2728 32.451-7.3236 5.8084-9.4702 4.4194-13.006c-1.389-3.5355-4.9245-9.9753-10.228-12.753s-32.451-9.4702-32.451-9.4702l8.0812-0.37881 7.3236 1.5152s8.5863-0.12627 15.784-5.8084c7.1973-5.6821 11.364-11.112 11.238-16.541s-1.894-10.985-9.0914-14.016c-7.1973-3.0305-12.627-3.0305-19.067-3.283-6.4397-0.25254-10.354 0.12626-10.354 0.12626l12.879-1.894s1.7678-1.0102-0.25254-1.6415c-2.0203-0.63135-27.274 0.12627-38.891 3.283-11.617 3.1567-40.154 5.4296-63.64 22.981-23.486 17.551-40.027 47.225-47.603 64.902-7.5762 17.678-36.365 79.171-42.931 94.197s-10.859 29.673-22.981 40.659-24.622 14.016-40.406 12.627-27.653-6.0609-32.83-12.879c-5.177-6.8185-10.733-17.425-10.354-27.653 0.37881-10.228 7.5761-40.28 10.859-48.992s1.6415-19.193 1.6415-19.193z" fill="#fff"/>
    <path d="m472.05 705.04s13.125 7.5893 25.268 6.7857c12.143-0.80358 33.929-7.4107 44.196-18.75 10.268-11.339 16.339-27.857 20.268-31.964s16.875-5.8036 19.018-8.5714c2.1429-2.7679 3.125-3.8393 2.6786-6.1607-0.44643-2.3214-3.9286-3.6607-3.9286-3.6607s4.5536 0.625 7.2322-0.53571c2.6786-1.1607 3.2143-5 3.2143-5s14.107 8.4821 23.661 9.8214c9.5536 1.3393 18.304 3.2143 23.482-0.0893 5.1786-3.3036 8.4821-5.5357 7.7679-7.3214-0.71429-1.7857-6.0714-5.0893-9.375-8.2143s-12.589-15.089-12.589-15.089 18.214 9.375 27.768 11.875 17.411 7.2321 28.214 3.8393c10.804-3.3929 14.464-5.0893 16.875-8.2143 2.4107-3.125 4.6428-4.2857 3.9286-6.3393-0.71429-2.0536-8.2143-2.0536-13.393-3.4822s-16.607-4.8214-22.411-10.357c-5.8036-5.5357-5.4464-8.2143-5.4464-8.2143s11.339 1.1607 16.696 0.35715c5.3571-0.80357 33.929 6.25 42.768 8.3036 8.8393 2.0536 44.018 12.857 53.214 14.018 9.1964 1.1607 28.661 0.71428 35.446-6.25 6.7857-6.9643 15.893-19.643 14.107-22.857-1.7857-3.2143-3.6607-0.89285-9.0179-1.7857-5.3571-0.89286-47.768-11.786-64.286-16.339s-47.143-16.518-47.143-16.518 47.946 7.7678 58.304 9.1071c10.357 1.3393 53.839 4.2857 62.946 2.4107s16.161-4.5536 20-9.6428c3.8393-5.0893 9.6429-19.375 8.4821-23.036-1.1607-3.6607-3.3036-5.1786-5.5357-5.1786s-29.732 1.0714-39.911 1.0714-32.054-3.2143-48.571-5.9821c-16.518-2.7679-43.125-13.304-43.125-13.304s42.946 3.9286 71.696 0 49.821-5.2678 55.625-9.6428c5.8036-4.375 9.1071-11.161 9.1071-17.321 0-6.1607-0.53572-11.875-3.8393-15.625s-3.8393-4.8214-7.5-4.8214-10.714 1.6071-15.714 2.2321-36.607 4.1964-54.821 5.8036-58.75-0.71428-75.446-1.3393-21.875-1.4286-34.911-0.80357c-13.036 0.625-25.089 1.6071-25.089 1.6071l-0.44643 1.5179s13.661 0.625 18.571 4.2857 7.3214 9.6429 7.1429 15.446-5.8036 14.196-11.25 17.411c-5.4464 3.2143-14.018 5.8036-14.018 5.8036s12.054 1.875 15.714 5.3571c3.6607 3.4821 10.804 11.25 11.071 17.589 0.26786 6.3393-4.1071 11.518-11.696 14.464-7.5893 2.9464-24.554 4.4643-24.554 4.4643s6.6964 2.9464 7.6786 5.7143c0.98215 2.7679 1.6072 8.0357-0.44642 11.161-2.0536 3.125-9.9107 8.4821-18.75 9.7321s-15.982 1.4286-15.982 1.4286-3.8393 6.5179-9.2857 8.5714-10.357 0.98214-10.357 0.98214-8.6607 6.1607-17.054 17.411c-8.3928 11.25-15.982 26.429-22.411 42.232s-12.679 30-17.857 34.821-9.6429 8.4821-19.375 12.768c-9.7322 4.2857-15.893 5.625-26.607 4.0179z" fill="url(#ac)"/>
    <path d="m678.66 776.38-0.35714 5.2679s123.21 33.304 132.5 35.714c9.2857 2.4107 22.232 5.9821 30 5.0893 7.7678-0.89286 17.5-5.9822 21.518-10.179 4.0179-4.1964 16.339-9.375 17.232-11.25 0.89285-1.875 0.71428-5.0893-2.1429-7.6786-2.8571-2.5893-5.3571-4.9107-10.089-2.5893-4.7321 2.3214-21.161 16.429-28.036 19.732s-18.839 2.0536-25.268 0.625-66.071-15.804-84.643-20.804c-18.571-5-50.714-13.929-50.714-13.929z" fill="#8e2100"/>
    <path d="m677.41 783.43s142.86 38.214 149.02 39.821c6.1607 1.6071 12.679 1.875 17.054 1.1607 4.375-0.71428 14.821-4.7321 19.643-8.2143 4.8214-3.4822 18.839-12.857 25.982-14.464 7.1428-1.6071 9.5536-0.17857 12.054 1.0714s3.9286 2.7679 4.0179 4.2857c0.0893 1.5179-4.8214 6.6072-9.7322 10-4.9107 3.3929-11.786 7.6786-12.143 14.375-0.35715 6.6964 1.6964 9.2857 4.4643 11.339s18.571 10.804 29.464 14.286c10.893 3.4822 28.125 7.7679 35.357 8.2143s11.607-0.44643 12.946 0.98214 1.0714 4.1072-0.0893 6.0714c-1.1607 1.9643-4.1071 6.0714-10.179 6.0714s-22.679 0.0893-39.732-5.5357c-17.054-5.625-33.661-12.321-45.357-18.929-11.696-6.6071-19.464-10.804-19.464-10.804l-61.607-14.375 4.9107-4.9107s-14.821 6.3393-28.214 3.75-17.321-13.393-17.321-13.393l-1.3393 1.5179-80.357-20.357s5.1786-2.0536 7.8571-5.8929c2.6786-3.8393 2.7679-6.0714 2.7679-6.0714z" fill="url(#ad)"/>
    <path d="m894.02 844.33s20 10.179 32.411 13.393c12.411 3.2143 35.446 5.8036 35.446 5.8036s5.3571-8.5714 3.6607-11.696-4.1964-3.125-7.9464-2.7679-18.036 2.8571-27.857 1.875-35.714-6.6071-35.714-6.6071z" fill="url(#ae)"/>
    <path d="m886.79 828.79s-2.3214 3.0357-1.6071 6.25c0.71428 3.2143 4.6875 6.3393 4.6875 6.3393s33.438 6.6518 41.161 7.0536c7.7232 0.40179 19.598-0.40179 19.598-0.40179s2.0089-5.5804 1.0268-7.7678-2.9464-4.8661-7.2321-5.0893c-4.2857-0.22321-15.938 2.9464-24.598 2.9464-8.6607 0-17.679-0.22321-22.054-2.7232s-10.982-6.6072-10.982-6.6072z" fill="#8e2100"/>
    <path d="m651.34 760.49s20.192 7.2346 23.125 9.5536c2.0457 1.6172 3.8393 4.6429 3.8393 4.6429s1.6964-2.7679 2.3214-5 1.3393-4.0179-0.26785-5.2679c-1.6072-1.25-13.571-6.5179-13.571-6.5179s-4.6428 2.3214-15.446 2.5893z" fill="url(#af)"/>
    <path d="m663.75 694.59s28.214-8.9286 33.839-11.607 20.446-8.9286 22.5-6.875-0.44643 12.5-0.44643 12.5-19.018 3.3929-26.875 4.1964-29.018 1.7857-29.018 1.7857z" fill="url(#ag)" stroke="#000" stroke-width="1px"/>
    <path d="m338.15 612.43-37.844 21.906c-3.4093 6.566-4.7659 12.967-9.125 27.188 5.0453-8.5203 12.79-13.969 21.469-13.969 6.5477 0 13.314 4.1078 18.039 9.2914 2.2715-9.978 4.1477-20.8 5.8049-25.198 3.283-8.7126 1.6562-19.219 1.6562-19.219z" fill="url(#ah)"/>
    <path d="m417.7 696.79c19.445-25.001 31.315-55.558 42.426-85.358 11.112-29.8 34.345-74.751 41.416-84.853 7.0711-10.102 21.213-30.305 42.426-37.881 21.213-7.5761 42.426-13.637 54.548-14.142 12.122-0.50507 27.022-2.2728 35.86 1.0102 8.8388 3.283 13.89 3.5355 11.364 9.0914s-6.0609 9.849-18.688 10.354c-12.627 0.50508-57.074-1.7678-83.085 35.355-26.011 37.123-43.689 96.722-60.104 120.21-16.415 23.486-21.971 34.093-31.315 40.406-9.3439 6.3134-34.85 5.8084-34.85 5.8084z" fill="url(#ai)"/>
    <path d="m459.11 697.8s0.75762 33.082 11.617 45.709 20.456 22.476 38.133 19.951 30.557-8.5863 38.133-22.476c7.5761-13.89 2.2728-52.275 2.2728-52.275s-11.364 13.637-23.739 18.94c-12.374 5.3033-22.981 8.0812-35.608 6.8185s-30.81-16.668-30.81-16.668z" fill="url(#aj)"/>
    <path transform="translate(0 308.27)" d="m850.3 516.81s29.8-19.445 37.376-20.708c7.5762-1.2627 11.617-1.0102 13.132 1.2627 1.5152 2.2728-5.8084 9.0914-12.122 14.142-6.3135 5.0508-9.0914 8.5863-9.0914 12.879s-10.607 5.0508-20.708 3.0305c-10.102-2.0203-8.5863-10.607-8.5863-10.607z" fill="url(#ak)"/>
   </g>
   <g transform="matrix(1.1038 0 0 1.1038 -23.177 -94.102)">
    <path transform="translate(0 308.27)" d="m215.62 317.13s-23.036 19.732-36.875 30-52.232 39.554-62.589 47.143c-10.357 7.5893-22.5 16.964-26.25 19.554-3.75 2.5893-14.018 5.4464-15.625 8.3929s-1.0714 3.8393 0 5.1786 3.75 3.3929 7.3214 3.125c3.5714-0.26786 7.5-0.0893 13.304-2.2321 5.8036-2.1429 57.321-22.143 73.125-28.571 15.804-6.4286 58.661-23.661 72.768-31.518 14.107-7.8571 56.25-28.839 65.804-33.75 9.5536-4.9107 12.857-6.25 12.857-6.25s11.339-2.0536 18.482-5.5357 18.036-10.268 22.321-17.054c4.2857-6.7857 4.1071-15.357 4.1071-15.357l4.1964 2.9464-1.4286-3.9286 3.5714 1.875s-1.1607-5.3571-4.5536-10l7.2321 2.8571s-5-11.161-14.286-14.732c0 0 3.0357-7.8571 4.6428-15s-2.3214-20.625-5.5357-26.786c-3.2143-6.1607-8.4821-13.036-8.4821-13.036s5.8844-0.51198 9.6428-1.875c4.0458-1.4672 8.125-3.4821 9.4643-5.9821s1.7857-7.2322 1.1607-12.143c0 0-9.1071 6.0714-13.75 7.6786s-10.893 1.875-10.893 1.875 16.607-7.8571 20.625-12.679c4.0179-4.8214 9.5536-12.143 9.8214-18.304 0.26786-6.1607-2.6786-10.982-5.7143-14.286-3.0357-3.3036-13.214-7.4107-13.214-7.4107s0.26786 17.411-3.4821 24.196c-3.75 6.7857-5.1786 9.2857-8.4821 12.411-3.3036 3.125-6.9643 5.8928-6.9643 5.8928s0.625-3.5714 0-7.1428-2.2321-6.25-4.5536-7.9464-6.25-2.5893-6.25-2.5893 2.3214 5.8929 1.6071 10.179c-0.71428 4.2857-4.7321 9.1964-4.7321 9.1964s-16.429-7.2321-29.464-6.5179c-13.036 0.71429-30.982 1.875-41.875 7.8572-10.893 5.9821-23.571 12.411-26.696 18.304s-3.2143 23.036-4.1964 28.839c-0.98215 5.8036-2.8572 19.554-5.8929 24.196-3.0357 4.6429-7.0536 6.6071-10.089 10.893-3.0357 4.2857-5.8036 13.482-5.8036 13.482l4.9107-3.6607s-2.0536 3.75-1.25 7.6786c0.80357 3.9286 2.269 8.9974 4.4643 12.411 1.6491 2.5642 5.0476 5.603 7.5 8.125z" stroke="#000" stroke-width="5"/>
    <path transform="translate(0 308.27)" d="m305.07 326.78c-9.5964 8.3338-43.815 28.789-68.943 41.037s-137 57.452-146.47 59.473c-9.4702 2.0203-12.753 0.37881-13.763-2.1466-1.0102-2.5254 8.7126-5.6821 14.142-8.8388s73.489-55.18 86.621-64.65c13.132-9.4702 46.972-36.744 51.897-44.068 4.9245-7.3236 11.238-12.248 17.046-12.501 5.8084-0.25253 18.562 3.1567 22.223 5.4296 3.6618 2.2728 11.493 6.4844 25.254 5.6821 16.021-0.93401 18.056-10.354 38.26-14.773-5.9013 13.434-15.164 25.194-26.264 35.355z" fill="#ff2a2a"/>
    <path transform="translate(0 308.27)" d="m300.65 334.23c27.653-11.49 45.331-41.29 45.331-41.29s-2.6516-2.1466-10.102-1.5152c0 0-12.627 25.759-35.229 42.805z" fill="url(#al)"/>
    <path transform="translate(0 308.27)" d="m221.22 294.96c6.0609 4.4194 8.1444 6.7554 8.1444 6.7554-2.5254 3.9775-4.9245 6.0609-4.9245 6.0609s-3.6618-4.8614-3.2199-12.816z" fill="url(#am)"/>
    <path transform="translate(0 308.27)" d="m217.56 315.41 4.2931-4.4194s-4.8614-3.283-6.0609-7.4499c-1.1996-4.1669-1.3258-9.9753-1.3258-9.9753l-4.2931 0.75762s5.177-3.5355 9.6596-2.5254 10.922 8.2706 10.922 8.2706 6.4397-6.3766 13.385-7.0711c6.9448-0.69448 17.741 2.0203 22.855 4.4826 5.1139 2.4622 11.68 6.9448 21.403 6.8817 9.7227-0.0631 13.258-1.8309 16.541-3.8512s17.678-11.427 29.105-11.743 21.529 6.4397 21.529 6.4397l-7.1973-1.8309s-4.0406 7.0079-9.5964 13.637-19.509 19.193-19.509 19.193 15.684-3.9429 24.345-9.1214c8.6607-5.1786 14.062-11.473 16.473-17.098 2.4107-5.625 2.0089-13.705 2.0089-13.705l3.5268 3.2589-1.875-4.1071c1.5179 0.53571 3.3482 2.0089 3.3482 2.0089s-2.6339-7.6339-7.4554-10.491l7.9911 2.9464s-5.3125-7.0536-10.982-8.6161c-5.6696-1.5625-18.08-0.40179-18.08-0.40179s9.0625-2.7232 17.902-2.0089c0 0 5.7589-12.857 5.4018-22.232-0.35714-9.375-6.7411-21.384-11.696-27.455-4.9554-6.0714-7.1875-9.1518-7.1875-9.1518s2.5646 1.5588 4.6429 2.0536c2.8125 0.66964 10.396-1.4322 13.17-2.5 3.5451-1.365 8.1696-5.0893 7.0089-11.25 0 0-6.0714 4.6429-11.696 5.8929s-20.714 2.5-20.714 2.5 17.723-7.0536 26.071-14.688c8.3482-7.6339 10.58-13.17 11.25-17.857 0.66964-4.6875-0.71429-15.223-13.214-18.527 0 0-0.35714 13.125-3.7054 20.446-3.3482 7.3214-8.5714 12.768-11.696 15.938-3.125 3.1696-12.455 7.2321-12.455 7.2321s3.8192-3.9079 4.375-8.3036c0.49107-3.8839-0.35714-8.2589-5.4464-10.402 0 0 0.35714 6.9196-0.71429 10.179-1.0714 3.2589-5.1786 8.4822-5.1786 8.4822s-14.509-8.1696-32.902-7.4554c-18.393 0.71429-29.107 3.3929-41.786 10s-21.071 12.321-23.214 17.679c-2.1429 5.3572-2.2322 25.089-3.2143 29.955s-3.4375 16.071-5.7589 20.536c-2.3214 4.4643-7.7232 7.9018-9.9107 10.714s-3.8393 6.7411-3.8393 6.7411l4.4196-4.9554s-2.0536 5.3572-2.4107 8.3036c-0.35714 2.9464 0.13393 7.9464 0.13393 7.9464l1.1607-4.4643s0.44643 6.8304 2.0089 10.759 8.1866 10.424 8.1866 10.424z" fill="#fff"/>
    <path transform="translate(0 308.27)" d="m216.24 293.31 2.5254 0.1894c-0.0631 10.291 4.9876 15.72 4.9876 15.72l-0.82075 0.82075s-7.0711-3.5355-6.6923-16.731z" fill="url(#an)"/>
    <path transform="translate(0 308.27)" d="m217.32 284.36s6.7857 0.80357 9.7321 2.6786 10.893 6.1607 10.893 6.1607l-3.2143-4.0178s4.9107 0.71428 7.0536-0.625c2.1428-1.3393 4.179-4.359 4.8214-7.4107 1.7857-8.4821 1.6964-39.196 1.3393-45.982-0.35714-6.7857-3.0357-14.107-7.9464-14.554-4.9107-0.44643-11.607 10.357-12.768 17.946-1.1607 7.5893-3.0357 30.179-1.6964 45.357 0 0-1.9428-0.65165-2.9464-0.625-1.263 0.0335-5.2679 1.0714-5.2679 1.0714z"/>
    <path transform="translate(0 308.27)" d="m227.5 284.18s2.5893 2.9464 6.3393 3.3036c4.2747 0.40712 6.0714 0.71428 8.125-1.5179s3.4821-10.357 3.5714-16.964c0.0893-6.6071 0.26785-23.214-0.35715-26.25-0.625-3.0357-3.4821-10.625-6.9643-10.982-3.4822-0.35714-8.125 5-9.375 9.7321-1.25 4.7322-1.7857 13.75-1.7857 19.107 0 5.3571-0.0893 15.536 0.44644 23.571z" fill="url(#ao)"/>
    <path transform="translate(0 308.27)" d="m274.02 232.49s7.8577-10.483 15.446-10.357c7.1433 0.11869 11.696 9.1964 11.696 9.1964s-6.0711-7.0737-11.875-6.875c-5.5332 0.18947-15.268 8.0357-15.268 8.0357z"/>
    <path transform="translate(0 308.27)" d="m263.84 274.81s4.375-18.125 17.143-23.304c9.3674-3.7994 16.241-3.1681 20.893 0.26786 5.9784 4.4155 8.3036 14.732 8.3036 14.732l-2.4107 0.98215s-6.9643-8.9286-16.339-8.6607c-9.375 0.26785-12.857 2.6786-16.875 5.2678-4.0178 2.5893-10.714 10.714-10.714 10.714z"/>
    <path transform="translate(0 308.27)" d="m270.58 280.97 1.1161 7.3214-1.3393-0.17861-0.17857 2.1428c2.8571-0.26786 9.7768 1.0268 9.7768 1.0268s-3.3482-2.1875-6.2946-2.5893z"/>
    <path transform="translate(0 308.27)" d="m291.7 291.24s5.8036-8.5714 14.018-12.589l1.0714-4.7321 0.98214 3.5714c7.9464-3.8393 17.411-5.3572 17.411-5.3572s-14.286 5.2679-18.393 7.8572c-4.1072 2.5893-15.089 11.25-15.089 11.25z"/>
    <path transform="matrix(1.0948 0 0 1.0614 -22.902 292.76)" d="m246.16 268.92c0 9.8622-3.3179 17.857-7.4107 17.857s-7.4107-7.9949-7.4107-17.857c0-9.8622 3.3179-17.857 7.4107-17.857s7.4107 7.9949 7.4107 17.857z"/>
    <path transform="matrix(.87352 0 0 .94879 29.739 322.7)" d="m246.16 268.92c0 9.8622-3.3179 17.857-7.4107 17.857s-7.4107-7.9949-7.4107-17.857c0-9.8622 3.3179-17.857 7.4107-17.857s7.4107 7.9949 7.4107 17.857z" fill="url(#ap)"/>
    <path transform="matrix(.43451 0 0 .47195 135.27 454.51)" d="m246.16 268.92c0 9.8622-3.3179 17.857-7.4107 17.857s-7.4107-7.9949-7.4107-17.857c0-9.8622 3.3179-17.857 7.4107-17.857s7.4107 7.9949 7.4107 17.857z"/>
    <path transform="matrix(.43451 0 0 .47195 132.89 443.55)" d="m246.16 268.92c0 9.8622-3.3179 17.857-7.4107 17.857s-7.4107-7.9949-7.4107-17.857c0-9.8622 3.3179-17.857 7.4107-17.857s7.4107 7.9949 7.4107 17.857z" fill="#fff"/>
    <path transform="translate(0 308.27)" d="m354.11 268.38s-13.393-0.71428-25.536 2.1429-18.036 5-18.036 5 5.1786-26.786 1.9643-36.429c-3.2143-9.6429-9.8214-23.393-20.357-24.286-10.536-0.89286-31.071-1.7857-43.393 1.0714-12.321 2.8572-17.321 3.9286-20.357 10-3.0357 6.0714-2.8571 9.4643-2.8571 9.4643s0.17857-11.786 1.4286-14.821c1.25-3.0357 11.964-12.321 22.679-16.786 10.714-4.4643 17.143-8.2143 30.536-9.6429s25.055-0.32829 35.714 3.5714c7.3214 2.6786 14.211 5.5133 20.893 11.964 5.1786 5 12.954 11.805 16.607 18.571 2.9598 5.4815 6.0714 11.25 5.7143 19.286-0.35714 8.0357-5 20.893-5 20.893z" fill="url(#aq)"/>
    <path transform="translate(0 308.27)" d="m359.5 155.66s-0.33928 13.116-3.6875 20.438c-3.3482 7.3214-8.5938 12.768-11.719 15.938-3.125 3.1696-12.438 7.25-12.438 7.25s3.8192-3.9168 4.375-8.3125c0.49107-3.8839-0.34821-8.2634-5.4375-10.406 0 0 0.35268 6.9286-0.71875 10.188-0.7263 2.2092-4.1915 6.9923-5.4827 8.7678 4.4121 2.2902 7.3717 4.0988 11.331 6.9611 7.5458-3.112 19.506-8.7416 25.745-14.448 8.3482-7.6339 10.58-13.156 11.25-17.844 0.66964-4.6875-0.71875-15.228-13.219-18.531zm8.3125 42.688s-6.0625 4.625-11.688 5.875c-3.8106 0.84681-14.508 2.1719-19.372 2.6301 3.7354 1.7299 7.2163 4.2348 10.872 5.2449 2.7867 0.77008 10.414-1.4322 13.188-2.5 3.5451-1.365 8.1607-5.0893 7-11.25z" fill="url(#ar)"/>
    <path transform="translate(0 308.27)" d="m291.81 293.06c4.0877-4.4926 9.9048-9.8736 15.026-12.753 10.538-5.9256 17.234-8.1115 25.885-8.7126 15.401-1.07 20.203-2.1466 25.38 0.3788s8.8388 7.1973 8.8388 7.1973l-8.3338-2.3991c6.3134 4.0406 8.7126 10.733 8.7126 10.733s-1.2627-0.88388-3.6618-2.6516l1.894 4.7982s-1.6415-2.7779-3.7881-3.7881l-1.0102 11.743s-11.869-9.0914-22.602-9.0914-18.562 2.6516-25.506 7.0711c-6.9448 4.4194-6.9448 5.8084-13.258 7.0711-6.3134 1.2627-10.102 1.7678-13.132-1.2627s3.309-5.8643 5.5558-8.3338z" fill="url(#as)"/>
    <path transform="translate(0 308.27)" d="m243.07 298.74c-7.8549 2.7005-5.177 7.0711-16.162 16.036-10.985 8.9651-35.355 29.421-53.286 42.931s-55.18 40.659-66.796 49.497c-11.617 8.8388-26.643 14.142-28.158 16.668-1.5152 2.5254 2.2728 3.4093 3.5355 3.4093s41.669-16.289 56.947-25.38c15.279-9.0914 158.22-94.197 158.22-94.197s-13.132 2.3991-19.319 0.63134c-6.1872-1.7678-11.49-6.1872-18.056-8.0812s-12.041-3.1927-16.92-1.5152z" fill="url(#at)"/>
   </g>
  </g>
 </g>
</svg>
