<?xml version="1.0" encoding="UTF-8"?>
<svg version="1.1" viewBox="0 0 638.81 613.66" xmlns="http://www.w3.org/2000/svg" xmlns:xlink="http://www.w3.org/1999/xlink">
 <defs>
  <linearGradient id="a">
   <stop stop-color="#f8d800" offset="0"/>
   <stop stop-color="#4a2a00" offset="1"/>
  </linearGradient>
  <linearGradient id="e" x1="-1.3973" x2="10.314" y1="-82.324" y2="99.297" gradientUnits="userSpaceOnUse" xlink:href="#a"/>
  <linearGradient id="f" x1="-1.6923" x2="-.75751" y1="-78.754" y2="92.806" gradientUnits="userSpaceOnUse" xlink:href="#a"/>
  <radialGradient id="g" cx="238.27" cy="482.5" r="20.342" gradientTransform="matrix(2.2077 4.207 -3.1638 1.6602 1272.1 -1336.5)" gradientUnits="userSpaceOnUse">
   <stop stop-color="#ffd732" offset="0"/>
   <stop stop-color="#ffee76" offset=".34677"/>
   <stop stop-color="#ecc600" offset="1"/>
  </radialGradient>
 </defs>
 <g transform="translate(-52.641 -110.37)">
  <path d="m537.15 207.6c6.5572-11.357 6.8009-28.739-0.77512-43.037s-17.193-35.52-35.311-45.98-41.305-8.1782-57.476-7.5903c-16.17 0.5879-31.101 9.4897-37.658 20.847-13.114 22.715 8.1053 53.799 44.341 74.72s73.765 23.755 86.88 1.0404z" fill="#8d5fd3"/>
  <path d="m206.94 207.6c-6.5572-11.357-6.8009-28.739 0.77512-43.037s17.193-35.52 35.311-45.98 41.305-8.1782 57.476-7.5903c16.17 0.5879 31.101 9.4897 37.658 20.847 13.114 22.715-8.1053 53.799-44.341 74.72s-73.765 23.755-86.88 1.0404z" fill="#8d5fd3"/>
  <path d="m566.84 556.76c0 168.2-118.63 159.34-194.8 159.34-76.164 0-194.8 10.96-194.8-159.34 0-64.203 37.094-91.747 72.345-133.82 35.251-42.074 68.66-98.678 122.45-98.678 53.791 0 87.2 56.604 122.45 98.678 35.251 42.074 72.345 69.618 72.345 133.82z" fill="#95f"/>
  <path d="m511.83 550.87c0 113.79-44.421 111.91-139.78 111.91-95.362 0-139.78 3.2966-139.78-111.91 0-43.434 37.094-46.068 60.942-74.532s42.449-30.757 78.84-30.757 54.992 2.2936 78.84 30.757c23.848 28.464 60.942 31.097 60.942 74.532z" fill="#caf"/>
  <g transform="matrix(.5 -.86603 .86603 .5 -469.55 474.18)">
   <path d="m273.2 607.89c15.077 56.27-11.799 112.36-60.03 125.29-48.231 12.924-99.553-22.216-114.63-78.485-15.077-56.27 11.799-112.36 60.03-125.29 48.231-12.924 99.553 22.216 114.63 78.485z" fill="#442178"/>
   <path d="m179.73 542.35c37.969 1e-5 68.749 26.383 68.749 58.928 1e-5 32.545-30.78 58.928-68.749 58.928s-68.749-26.383-68.749-58.928 30.78-58.928 68.749-58.928z" fill="#8d5fd3"/>
   <path d="m139.79 543.63c12.163 9.7069 18.277 24.576 13.657 33.21-4.6202 8.6345-18.226 7.7652-30.388-1.9417-12.163-9.7069-18.277-24.576-13.657-33.21 4.6202-8.6346 18.226-7.7652 30.388 1.9417z" fill="#1a1a1a"/>
   <path d="m186.96 534.82c6.1553 14.292 4.5437 30.288-3.5997 35.728-8.1433 5.4396-19.735-1.737-25.89-16.029-6.1553-14.292-4.5436-30.288 3.5996-35.728 8.1433-5.4396 19.735 1.737 25.89 16.029z" fill="#1a1a1a"/>
   <path d="m236.42 553.29c-5.5256 14.547-17.814 24.913-27.448 23.153-9.6334-1.7605-12.963-14.981-7.4378-29.528 5.5256-14.547 17.814-24.913 27.448-23.153 9.6334 1.7605 12.963 14.981 7.4378 29.528z" fill="#1a1a1a"/>
   <path d="m203.27 634.92c-10.958 11.175-29.558 13.966-41.544 6.2345-11.986-7.7317-12.821-23.058-1.8629-34.233s29.558-13.966 41.544-6.2345c11.987 7.7317 12.821 23.058 1.8629 34.233z" fill="#1a1a1a"/>
  </g>
  <path d="m383.79 593.51c0 7.5656-5.2569 13.699-11.742 13.699-6.4847 0-11.742-6.1331-11.742-13.699 0-7.5655 5.2569-13.699 11.742-13.699 6.4848 0 11.742 6.1331 11.742 13.699z" fill="#484537"/>
  <path d="m225.38 196.08c-4.7004-8.1414-4.8751-20.601 0.55563-30.85s12.325-25.462 25.312-32.96c12.987-7.4983 29.609-5.8624 41.2-5.441 11.591 0.42143 22.294 6.8025 26.995 14.944 9.4008 16.283-5.8102 38.565-31.785 53.562s-52.877 17.029-62.278 0.74582z" fill="#442178"/>
  <path d="m516.72 196.08c4.7004-8.1414 4.8751-20.601-0.55563-30.85s-12.325-25.462-25.312-32.96c-12.987-7.4983-29.609-5.8624-41.2-5.441-11.591 0.42143-22.294 6.8025-26.995 14.944-9.4008 16.283 5.8102 38.565 31.785 53.562s52.877 17.029 62.278 0.74582z" fill="#442178"/>
  <path d="m557.66 292.17c0 39.341-36.776 58.957-70.366 84.739-33.59 25.781-63.994 57.727-115.25 57.727-51.257 0-81.661-31.946-115.25-57.727-33.59-25.781-70.366-45.398-70.366-84.739 0-78.682 83.103-142.47 185.62-142.47 102.51 0 185.62 63.784 185.62 142.47z" fill="#aa87de"/>
  <path d="m336.06 178.86c-31.775 0-57.562 29.396-57.562 65.661 0 36.266 25.787 65.661 57.562 65.661 13.632 0 26.142-5.4024 36-14.445 9.8554 9.0319 22.377 14.445 36 14.445 31.775 0 57.531-29.396 57.531-65.661 0-36.266-25.756-65.661-57.531-65.661-13.623 0-26.145 5.4486-36 14.48-9.8584-9.0424-22.368-14.48-36-14.48z" fill="#fff"/>
  <path d="m463.83 332.47c0 15.888-10.273 34.271-26.882 44.683s-39.554 26.851-64.899 26.851-48.29-16.44-64.899-26.851c-16.609-10.412-26.882-28.795-26.882-44.683 0-31.775 41.092-51.534 91.781-51.534s91.781 19.759 91.781 51.534z" fill="#e9afc6"/>
  <path d="m372.05 367.73v-40.909" fill="none"/>
  <path d="m371.93 385.26c18.28 0 25.625-10.692 25.625-10.692s-21.376 2.7569-25.505-6.079c-4.129 8.6874-25.736 6.0419-25.736 6.0419s7.3368 10.729 25.617 10.729z"/>
  <path d="m299.61 345.76c11.292 25.193 40.408 31.379 61.726 28.875 9.4376-1.125 9.2422-6.875 10.71-6.875 1.4674 0 1.2108 5.5247 10.858 6.875 18.903 2.4767 55.549-3.5599 61.578-28.875" fill="none" stroke="#000" stroke-width="2"/>
  <path d="m405.82 320.17c0 7.1588-6.6921 10.728-12.804 15.42-6.1123 4.6914-11.645 10.505-20.972 10.505-9.3271 0-14.86-5.8132-20.972-10.505-6.1123-4.6914-12.804-8.261-12.804-15.42 0-14.318 15.122-25.924 33.776-25.924s33.776 11.607 33.776 25.924z"/>
  <g transform="translate(-6 -34)">
   <path d="m365.06 248.94c0 10.97-5.8264 19.863-13.014 19.863-7.1873 0-13.014-8.893-13.014-19.863s5.8264-19.863 13.014-19.863c7.1873 0 13.014 8.893 13.014 19.863z"/>
   <path d="m356.68 237.66c0 2.5582-2.0738 4.632-4.632 4.632s-4.632-2.0738-4.632-4.632 2.0738-4.632 4.632-4.632 4.632 2.0738 4.632 4.632z" fill="#fff"/>
  </g>
  <g transform="translate(6 -34)">
   <path d="m405.06 248.94c0 10.97-5.8264 19.863-13.014 19.863-7.1873 0-13.014-8.893-13.014-19.863s5.8264-19.863 13.014-19.863c7.1873 0 13.014 8.893 13.014 19.863z"/>
   <path d="m396.68 237.66c0 2.5582-2.0738 4.632-4.632 4.632s-4.632-2.0738-4.632-4.632 2.0738-4.632 4.632-4.632 4.632 2.0738 4.632 4.632z" fill="#fff"/>
  </g>
  <path d="m372.05 371.85v-40.909" fill="none" stroke="#000" stroke-width="2"/>
  <g transform="matrix(.5 .86603 -.86603 .5 841.6 -170.23)">
   <path d="m470.89 607.89c-15.077 56.27 11.799 112.36 60.03 125.29 48.231 12.924 99.553-22.216 114.63-78.485 15.077-56.27-11.799-112.36-60.03-125.29-48.231-12.924-99.553 22.216-114.63 78.485z" fill="#442178"/>
   <path d="m564.36 542.35c-37.969 0-68.749 26.383-68.749 58.928-1e-5 32.545 30.78 58.928 68.749 58.928s68.749-26.383 68.749-58.928c-1e-5 -32.545-30.78-58.928-68.749-58.928z" fill="#8d5fd3"/>
   <path d="m604.3 543.63c-12.163 9.7069-18.277 24.576-13.657 33.21 4.6202 8.6346 18.226 7.7652 30.388-1.9417 12.163-9.7069 18.277-24.576 13.657-33.21-4.6202-8.6346-18.226-7.7652-30.388 1.9417z" fill="#1a1a1a"/>
   <path d="m557.14 534.82c-6.1553 14.292-4.5437 30.288 3.5997 35.728 8.1433 5.4396 19.735-1.737 25.89-16.029 6.1553-14.292 4.5436-30.288-3.5996-35.728-8.1433-5.4396-19.735 1.737-25.89 16.029z" fill="#1a1a1a"/>
   <path d="m507.68 553.29c5.5256 14.547 17.814 24.913 27.448 23.153 9.6334-1.7605 12.963-14.981 7.4378-29.528-5.5256-14.547-17.814-24.913-27.448-23.153-9.6334 1.7605-12.963 14.981-7.4378 29.528z" fill="#1a1a1a"/>
   <path d="m540.83 634.92c10.958 11.175 29.558 13.966 41.544 6.2345 11.986-7.7317 12.821-23.058 1.8629-34.233s-29.558-13.966-41.544-6.2345c-11.986 7.7317-12.821 23.058-1.8629 34.233z" fill="#1a1a1a"/>
  </g>
  <g transform="matrix(.89178 -.45248 .45248 .89178 119.73 200.09)">
   <path d="m27.729 298.59s0.05865-14.19-6.275-22.378-20.057 2.6024-13.808 10.681c6.2489 8.0785 20.083 11.697 20.083 11.697z" fill="#999" opacity=".5"/>
   <path d="m26.506 295.69s-7.5114-12.039-17.234-15.593c-9.7225-3.554-15.586 12.889-5.9933 16.396 9.5925 3.5064 23.227-0.80288 23.227-0.80288z" fill="#999" opacity=".5"/>
   <path d="m46.289 302.15c1.2751 5.9045-6.9224 12.685-18.31 15.144-11.387 2.4591-21.652-0.33393-22.927-6.2384-1.2751-5.9045 6.9224-12.685 18.31-15.144 11.387-2.4591 21.652 0.33392 22.927 6.2384z" fill="#fc0"/>
   <path transform="translate(67.079 110.37)" d="m-35.5 184.66c-0.41015-1e-3 -0.83061 0.0176-1.25 0.0312 2.4765 1.6174 4.5644 3.9147 5.875 6.75 2.2143 4.7903 1.6405 9.8085-1.0938 13.219 2.4031-1.0333 4.5177-2.2489 6.25-3.5938 1.3088-3.1077 1.2901-6.8927-0.40625-10.562-0.96681-2.0916-2.3662-3.8823-4.0312-5.3438-1.6446-0.31276-3.4404-0.49389-5.3438-0.5zm-4.1562 0.25c-1.3237 0.14754-2.6927 0.32918-4.0625 0.625-0.31966 0.069-0.62301 0.17427-0.9375 0.25 2.0615 2.0588 3.7092 4.6189 4.625 7.5312 1.7052 5.4226 0.54692 10.69-2.5938 14.188 1.1562-0.1447 2.3416-0.30559 3.5312-0.5625 0.92408-0.19956 1.8088-0.46506 2.6875-0.71875 2.6034-3.4659 3.4749-8.2926 1.9062-13.281-0.9928-3.1572-2.84-5.8797-5.1562-8.0312zm12.687 1.09c1.3147 1.1113 2.4279 2.5026 3.25 4.0938 1.4031 2.7156 1.6917 5.5603 1 8.0312 1.6267-2.0699 2.3866-4.264 1.9375-6.3438-0.55786-2.5832-2.8471-4.5684-6.1875-5.7812zm-20.719 0.625c-1.3326 0.43437-2.6194 0.92652-3.8125 1.4688 1.2661 1.9806 2.1653 4.2366 2.5625 6.6562 0.8297 5.0538-0.72535 9.6581-3.8125 12.562 1.5502 0.3008 3.2456 0.47242 5.0312 0.5 3.2212-2.8853 4.8772-7.5348 4.0312-12.688-0.52818-3.2171-1.9983-6.1188-4-8.5zm-6.4062 2.8125c-1.0919 0.62429-2.1013 1.2711-3 1.9688 0.38337 1.3882 0.57319 2.8562 0.53125 4.3438-0.09552 3.3882-1.3708 6.2943-3.375 8.3125 0.86576 0.79558 1.9316 1.509 3.2188 2.0625 2.6118-1.9852 4.3261-5.2686 4.4375-9.2188 0.07482-2.6544-0.61438-5.231-1.8125-7.4688zm-4.6562 3.4062c-2.5628 2.491-3.8413 5.2502-3.2812 7.8438 0.11954 0.55355 0.32267 1.0654 0.59375 1.5625 1.2252-1.3563 2.1389-3.1198 2.5625-5.1875 0.2902-1.4166 0.30983-2.839 0.125-4.2188z" fill="#540"/>
   <path d="m5.6715 307.31c-1.8209-0.10711-9.1045-1.0711-9.1045-1.0711l8.7832 2.1422c0.99769 0.24334 1.2766-1.0149 0.32134-1.0711z" fill="#2b2200"/>
   <path d="m27.971 298.19s5.0956-13.244 13.969-18.575c8.8735-5.3309 17.745 9.7046 8.9899 14.964-8.7548 5.2596-22.959 3.6104-22.959 3.6104z" fill="#999" opacity=".5"/>
   <path d="m27.699 297.71s10.736-9.2784 21.075-9.7974c10.339-0.51898 11.076 16.923 0.87518 17.435-10.2 0.51203-21.95-7.6376-21.95-7.6376z" fill="#999" opacity=".5"/>
  </g>
  <g transform="matrix(.82685 .56243 .56243 -.82685 -193.44 609.02)">
   <path d="m259.24 371.7c-58.104-3.05-117.32 5.5123-161.09 31.432-39.607 26.825-41.716 92.58-4.2323 122.15 27.213 25.105 75.525 25.335 100.01-3.7841 16.864-18.506 24.585-45.21 47.085-58.409 13.022-5.634 26.871-14.879 29.092-30.054 6.0963-19.511-2.4646-41.743-10.869-61.331z" fill="#5a2ca0"/>
   <path d="m167.86 438.22c22.358 22.358 24.947 56.019 5.7833 75.183s-52.825 16.575-75.183-5.7833-24.947-56.019-5.7833-75.183 52.825-16.575 75.183 5.7833z" fill="#ff2ad4"/>
  </g>
  <g transform="matrix(-.82685 .56243 -.56243 -.82685 935.9 609.02)">
   <path d="m259.24 371.7c-58.104-3.05-117.32 5.5123-161.09 31.432-39.607 26.825-41.716 92.58-4.2323 122.15 27.213 25.105 75.525 25.335 100.01-3.7841 16.864-18.506 24.585-45.21 47.085-58.409 13.022-5.634 26.871-14.879 29.092-30.054 6.0963-19.511-2.4646-41.743-10.869-61.331z" fill="#5a2ca0"/>
   <path d="m167.86 438.22c22.358 22.358 24.947 56.019 5.7833 75.183s-52.825 16.575-75.183-5.7833-24.947-56.019-5.7833-75.183 52.825-16.575 75.183 5.7833z" fill="#ff2ad4"/>
  </g>
  <g transform="matrix(-.97229 -.2338 -.2338 .97229 538 143.32)">
   <path d="m27.729 298.59s0.05865-14.19-6.275-22.378-20.057 2.6024-13.808 10.681c6.2489 8.0785 20.083 11.697 20.083 11.697z" fill="#999" opacity=".5"/>
   <path d="m26.506 295.69s-7.5114-12.039-17.234-15.593c-9.7225-3.554-15.586 12.889-5.9933 16.396 9.5925 3.5064 23.227-0.80288 23.227-0.80288z" fill="#999" opacity=".5"/>
   <path d="m46.289 302.15c1.2751 5.9045-6.9224 12.685-18.31 15.144-11.387 2.4591-21.652-0.33393-22.927-6.2384-1.2751-5.9045 6.9224-12.685 18.31-15.144 11.387-2.4591 21.652 0.33392 22.927 6.2384z" fill="#fc0"/>
   <path transform="translate(67.079 110.37)" d="m-35.5 184.66c-0.41015-1e-3 -0.83061 0.0176-1.25 0.0312 2.4765 1.6174 4.5644 3.9147 5.875 6.75 2.2143 4.7903 1.6405 9.8085-1.0938 13.219 2.4031-1.0333 4.5177-2.2489 6.25-3.5938 1.3088-3.1077 1.2901-6.8927-0.40625-10.562-0.96681-2.0916-2.3662-3.8823-4.0312-5.3438-1.6446-0.31276-3.4404-0.49389-5.3438-0.5zm-4.1562 0.25c-1.3237 0.14754-2.6927 0.32918-4.0625 0.625-0.31966 0.069-0.62301 0.17427-0.9375 0.25 2.0615 2.0588 3.7092 4.6189 4.625 7.5312 1.7052 5.4226 0.54692 10.69-2.5938 14.188 1.1562-0.1447 2.3416-0.30559 3.5312-0.5625 0.92408-0.19956 1.8088-0.46506 2.6875-0.71875 2.6034-3.4659 3.4749-8.2926 1.9062-13.281-0.9928-3.1572-2.84-5.8797-5.1562-8.0312zm12.687 1.09c1.3147 1.1113 2.4279 2.5026 3.25 4.0938 1.4031 2.7156 1.6917 5.5603 1 8.0312 1.6267-2.0699 2.3866-4.264 1.9375-6.3438-0.55786-2.5832-2.8471-4.5684-6.1875-5.7812zm-20.719 0.625c-1.3326 0.43437-2.6194 0.92652-3.8125 1.4688 1.2661 1.9806 2.1653 4.2366 2.5625 6.6562 0.8297 5.0538-0.72535 9.6581-3.8125 12.562 1.5502 0.3008 3.2456 0.47242 5.0312 0.5 3.2212-2.8853 4.8772-7.5348 4.0312-12.688-0.52818-3.2171-1.9983-6.1188-4-8.5zm-6.4062 2.8125c-1.0919 0.62429-2.1013 1.2711-3 1.9688 0.38337 1.3882 0.57319 2.8562 0.53125 4.3438-0.09552 3.3882-1.3708 6.2943-3.375 8.3125 0.86576 0.79558 1.9316 1.509 3.2188 2.0625 2.6118-1.9852 4.3261-5.2686 4.4375-9.2188 0.07482-2.6544-0.61438-5.231-1.8125-7.4688zm-4.6562 3.4062c-2.5628 2.491-3.8413 5.2502-3.2812 7.8438 0.11954 0.55355 0.32267 1.0654 0.59375 1.5625 1.2252-1.3563 2.1389-3.1198 2.5625-5.1875 0.2902-1.4166 0.30983-2.839 0.125-4.2188z" fill="#540"/>
   <path d="m5.6715 307.31c-1.8209-0.10711-9.1045-1.0711-9.1045-1.0711l8.7832 2.1422c0.99769 0.24334 1.2766-1.0149 0.32134-1.0711z" fill="#2b2200"/>
   <path d="m27.971 298.19s5.0956-13.244 13.969-18.575c8.8735-5.3309 17.745 9.7046 8.9899 14.964-8.7548 5.2596-22.959 3.6104-22.959 3.6104z" fill="#999" opacity=".5"/>
   <path d="m27.699 297.71s10.736-9.2784 21.075-9.7974c10.339-0.51898 11.076 16.923 0.87518 17.435-10.2 0.51203-21.95-7.6376-21.95-7.6376z" fill="#999" opacity=".5"/>
  </g>
  <g transform="matrix(.95581 .29399 -.29399 .95581 275.34 29.089)">
   <path d="m27.729 298.59s0.05865-14.19-6.275-22.378-20.057 2.6024-13.808 10.681c6.2489 8.0785 20.083 11.697 20.083 11.697z" fill="#999" opacity=".5"/>
   <path d="m26.506 295.69s-7.5114-12.039-17.234-15.593c-9.7225-3.554-15.586 12.889-5.9933 16.396 9.5925 3.5064 23.227-0.80288 23.227-0.80288z" fill="#999" opacity=".5"/>
   <path d="m46.289 302.15c1.2751 5.9045-6.9224 12.685-18.31 15.144-11.387 2.4591-21.652-0.33393-22.927-6.2384-1.2751-5.9045 6.9224-12.685 18.31-15.144 11.387-2.4591 21.652 0.33392 22.927 6.2384z" fill="#fc0"/>
   <path transform="translate(67.079 110.37)" d="m-35.5 184.66c-0.41015-1e-3 -0.83061 0.0176-1.25 0.0312 2.4765 1.6174 4.5644 3.9147 5.875 6.75 2.2143 4.7903 1.6405 9.8085-1.0938 13.219 2.4031-1.0333 4.5177-2.2489 6.25-3.5938 1.3088-3.1077 1.2901-6.8927-0.40625-10.562-0.96681-2.0916-2.3662-3.8823-4.0312-5.3438-1.6446-0.31276-3.4404-0.49389-5.3438-0.5zm-4.1562 0.25c-1.3237 0.14754-2.6927 0.32918-4.0625 0.625-0.31966 0.069-0.62301 0.17427-0.9375 0.25 2.0615 2.0588 3.7092 4.6189 4.625 7.5312 1.7052 5.4226 0.54692 10.69-2.5938 14.188 1.1562-0.1447 2.3416-0.30559 3.5312-0.5625 0.92408-0.19956 1.8088-0.46506 2.6875-0.71875 2.6034-3.4659 3.4749-8.2926 1.9062-13.281-0.9928-3.1572-2.84-5.8797-5.1562-8.0312zm12.687 1.09c1.3147 1.1113 2.4279 2.5026 3.25 4.0938 1.4031 2.7156 1.6917 5.5603 1 8.0312 1.6267-2.0699 2.3866-4.264 1.9375-6.3438-0.55786-2.5832-2.8471-4.5684-6.1875-5.7812zm-20.719 0.625c-1.3326 0.43437-2.6194 0.92652-3.8125 1.4688 1.2661 1.9806 2.1653 4.2366 2.5625 6.6562 0.8297 5.0538-0.72535 9.6581-3.8125 12.562 1.5502 0.3008 3.2456 0.47242 5.0312 0.5 3.2212-2.8853 4.8772-7.5348 4.0312-12.688-0.52818-3.2171-1.9983-6.1188-4-8.5zm-6.4062 2.8125c-1.0919 0.62429-2.1013 1.2711-3 1.9688 0.38337 1.3882 0.57319 2.8562 0.53125 4.3438-0.09552 3.3882-1.3708 6.2943-3.375 8.3125 0.86576 0.79558 1.9316 1.509 3.2188 2.0625 2.6118-1.9852 4.3261-5.2686 4.4375-9.2188 0.07482-2.6544-0.61438-5.231-1.8125-7.4688zm-4.6562 3.4062c-2.5628 2.491-3.8413 5.2502-3.2812 7.8438 0.11954 0.55355 0.32267 1.0654 0.59375 1.5625 1.2252-1.3563 2.1389-3.1198 2.5625-5.1875 0.2902-1.4166 0.30983-2.839 0.125-4.2188z" fill="#540"/>
   <path d="m5.6715 307.31c-1.8209-0.10711-9.1045-1.0711-9.1045-1.0711l8.7832 2.1422c0.99769 0.24334 1.2766-1.0149 0.32134-1.0711z" fill="#2b2200"/>
   <path d="m27.971 298.19s5.0956-13.244 13.969-18.575c8.8735-5.3309 17.745 9.7046 8.9899 14.964-8.7548 5.2596-22.959 3.6104-22.959 3.6104z" fill="#999" opacity=".5"/>
   <path d="m27.699 297.71s10.736-9.2784 21.075-9.7974c10.339-0.51898 11.076 16.923 0.87518 17.435-10.2 0.51203-21.95-7.6376-21.95-7.6376z" fill="#999" opacity=".5"/>
  </g>
 </g>
 <g transform="matrix(.80262 0 0 .55307 395.8 301.32)" fill="#fc0">
  <path d="m-73.627 239.67c-9.9882 5.0612-3.7423 23.85-3.9612 30.093-5.2168-4.4937 0.45696-16.003-10.567-16.339-21.223-0.64648-0.40982 62.692-25.995 56.804-26.745-6.155 30.838-54.349 12.857-61.257-10.405-3.997-24.085 25.406-30.669 29.271 1.3756-7.0564 22.318-21.92 14.426-35.193-5.6649-9.5275-28.067 23.74-35.103 15.087-7.0357-8.653 25.739-14.941 20.867-24.762-4.8721-9.8214-18.234-2.7976-29.198-2.3762 20.933-6.0687 33.037-2.7758 33.301-13.822 0.42046-17.578-86.244 11.536-85.41-11.861 1.0572-29.654 60.377 9.1496 77.806-5.306 8.5127-7.0606-16.373-18.355-22.841-24.423 7.6002 0.78108 29.48 18.824 36.79 10.658 7.3101-8.1662-36.875-35.81-20.026-44.46 16.409-8.4239 20.34 36.31 30.391 31.422 10.051-4.8875 4.7027-17.3 6.9341-29.223 4.3213 11.011 0.32299 27.777 11.152 30.499 13.736 3.4529-6.2573-60.533 15.725-59.101 21.539 1.404-21.175 58.85 0.22668 59.044 10.962 0.0994 20.829-22.505 27.07-27.939-2.6439 8.0788-24.295 29.579-15.733 36.659 8.5622 7.0806 39.201-32.633 45.179-23.491 9.3117 14.239-34.139 18.331-28.853 31.216 4.1376 10.084 30.792 4.1561 34.801 2.7264-20.572 9.5693-34.559 5.7377-34.154 16.665 0.4052 10.927 54.626-9.2622 49.41 9.089-5.0106 17.629-56.557-6.8783-59.788 3.72-3.2301 10.598 32.647 29.187 35.39 35.011-4.6618-0.46968-29.531-27.294-36.902-19.115-7.3715 8.1793 31.661 25.718 19.44 42.766-18.769 4.1498-21.828-46.614-32.568-42.065z"/>
  <path d="m-162.49 230.89c-47.64 25.997-57.659 54.326-67.495 43.154-3.2594-4.6164 0.53041-12.17 10.155-18.57 17.45-11.604 27.557-13.045 57.34-24.584z"/>
  <path d="m-47.554 144.96c22.813-21.917 40.318-22.514 35.835-29.942-1.9939-2.622-6.8577-1.8414-12.105 2.3849-9.5132 7.6626-12.088 13.028-23.73 27.557z"/>
  <path d="m-160.35 173.56c-28.924-12.813-45.581-7.3982-43.903-15.91 0.97903-3.1452 5.8172-4.0718 12.192-1.8905 11.558 3.9549 15.809 8.1185 31.711 17.801z"/>
  <path d="m-23.512 258.88c31.934 21.87 53.18 19.074 49.261 28.939-1.8798 3.5649-7.9066 3.5996-15.088-0.44725-13.02-7.3373-17.205-13.295-34.173-28.492z"/>
  <path d="m-135.32 121.79c-3.8703 10.018-6.569 18.309-16.587 14.438-10.018-3.8703-23.562-18.436-19.691-28.454 3.8703-10.018 9.9782-11.37 19.996-7.4996 10.018 3.8703 20.152 11.497 16.282 21.515z"/>
  <path d="m-75.905 101.73c-4.1414-2.8974-7.6256-5.0647-4.7282-9.2061s11.079-8.6885 15.22-5.7912c4.1414 2.8973 4.0709 5.8406 1.1735 9.982s-7.5244 7.9126-11.666 5.0153z"/>
  <path d="m-68.333 292.83c-4.344 2.2164-7.7684 4.2035-9.9848-0.14052s-2.3855-13.374 1.9585-15.59c4.344-2.2164 6.8197-0.82349 9.0362 3.5205 2.2164 4.344 3.3342 9.9941-1.0098 12.21z"/>
  <path d="m3.7117 183.4c2.8332 3.8166 5.2971 6.7865 1.4805 9.6196-3.8166 2.8332-12.468 4.4568-15.302 0.64023-2.8332-3.8166-1.895-6.4216 1.9216-9.2548s9.0663-4.8217 11.9-1.0051z"/>
  <path d="m-165.31 256.15c5.9716 2.1582 10.907 3.6462 8.7488 9.6177-2.1582 5.9716-10.593 14.165-16.564 12.007-5.9716-2.1582-6.8497-5.7511-4.6915-11.723 2.1582-5.9716 6.5355-12.061 12.507-9.9023z"/>
  <path d="m-11.27 156.03c-2.1218-1.4844-3.9069-2.5948-2.4224-4.7166 1.4844-2.1218 5.6762-4.4515 7.798-2.967 2.1218 1.4844 2.0857 2.9924 0.60124 5.1142-1.4844 2.1218-3.855 4.0539-5.9768 2.5695z"/>
  <path d="m-66.164 302.78c2.6521 0.95849 4.844 1.6193 3.8855 4.2714s-4.7045 6.2911-7.3565 5.3326c-2.6521-0.95849-3.0421-2.5542-2.0836-5.2062 0.9585-2.6521 2.9025-5.3563 5.5546-4.3978z"/>
  <path d="m-36.842 234.16c-1.179 2.5617-2.0226 4.69-4.5842 3.511-2.5617-1.179-5.8714-5.2189-4.6924-7.7806s2.8019-2.8155 5.3636-1.6365 5.0921 3.3444 3.9131 5.9061z"/>
  <path d="m-212.75 152.49c1.1217 2.5873 2.1443 4.6356-0.44297 5.7573s-7.8048 0.892-8.9265-1.6953-0.22807-3.9656 2.3592-5.0873 5.8885-1.562 7.0102 1.0253z"/>
 </g>
 <path d="m287.73 265.18c-6.3967 8.197-11.247 15.103-8.0321 24.541 5.3079 9.3197 16.083 8.0807 20.86-0.46237 4.3236-12.454-4.0514-8.6646 5.9007-21.169 0 0-3.5243 0.47924-8.7302-0.19339-5.2059-0.67264-9.9983-2.7168-9.9983-2.7168z" opacity=".25"/>
 <path d="m277.15 262.36c-9.5645 8.3765-16.817 15.433-12.01 25.079 7.9365 9.5238 24.047 8.2577 31.19-0.47249 6.4647-12.727-6.0578-8.8544 8.8228-21.632 0 0-5.2696 0.48973-13.054-0.19763-7.784-0.68737-14.95-2.7762-14.95-2.7762z" fill="#e40000"/>
 <g transform="translate(-21.277 42.857)">
  <g transform="matrix(1.0589 -.3437 .3437 1.0589 -191.13 70.541)">
   <g transform="matrix(.71315 -.22919 .28663 .89189 343.58 490.49)" fill="url(#f)" stroke="#442800" stroke-width="2.7468">
    <path d="m100 0c0 55.228-44.772 100-100 100s-100-44.772-100-100 44.772-100 100-100 100 44.772 100 100zm-87.467-83.206c0 3.7705-5.6114 6.8271-12.533 6.8271-6.922 0-12.533-3.0566-12.533-6.8271s5.6114-6.8271 12.533-6.8271c6.922 0 12.533 3.0566 12.533 6.8271zm12.336 1.9735c0 7.481-11.134 13.546-24.869 13.546s-24.869-6.0646-24.869-13.546c0-7.481 11.134-13.546 24.869-13.546s24.869 6.0646 24.869 13.546zm11.943 3.2546c0 11.074-16.481 20.051-36.812 20.051s-36.812-8.9769-36.812-20.051 16.481-20.051 36.812-20.051 36.812 8.9769 36.812 20.051zm11.363 4.4844c0 14.492-21.569 26.239-48.175 26.239-26.607 0-48.175-11.748-48.175-26.239 0-14.492 21.569-26.239 48.175-26.239 26.607 0 48.175 11.748 48.175 26.239zm-21.819-22.972c29.016 7.9281 40.738 27.167 26.182 42.97-14.556 15.804-49.878 22.188-78.894 14.26-29.016-7.9281-40.738-27.167-26.182-42.97 5.6788-6.1655 14.862-11.167 26.182-14.26m75.803 9.5449c26.145 14.874 25.202 38.475-2.1071 52.715s-70.642 13.726-96.787-1.1476c-25.344-14.418-25.344-37.15-3e-6 -51.568m114.43 10.916c22.862 19.548 12.299 45.49-23.593 57.941-35.892 12.452-83.521 6.6986-106.38-12.85-16.085-13.754-16.085-31.338 1e-6 -45.092m141.92 12.116c19.218 23.14 0.35472 50.385-42.132 60.852s-92.508 0.1932-111.73-22.947c-10.005-12.047-10.005-25.857 1e-6 -37.904m163.08 13.12c15.276 25.916-10.922 53.667-58.504 61.984-47.581 8.317-98.533-5.9486-113.8-31.864-5.7711-9.7939-5.7711-20.326 1e-6 -30.12m179.11 13.923c11.086 27.964-21.553 55.526-72.896 61.563-51.343 6.036-101.95-11.74-113.03-39.703-2.8551-7.2036-2.8551-14.656 1e-6 -21.86m190.43 14.503c6.718 29.32-31.471 56.056-85.303 59.716-53.833 3.66-102.92-17.141-109.64-46.46-1.0089-4.4014-1.0089-8.854 0-13.255m197.19 14.855c2.251 29.996-40.568 55.306-95.641 56.533-55.074 1.227-101.54-22.095-103.8-52.091-0.11111-1.48-0.11111-2.9618 1e-6 -4.4418m199.44 14.974c-2.252 29.996-48.723 53.318-103.8 52.091-51.913-1.156-93.515-23.815-95.638-52.091m197.19 14.856c-6.721 29.32-55.808 50.121-109.64 46.46-44.603-3.033-79.736-22.168-85.304-46.46m190.44 14.503c-11.083 27.964-61.689 45.74-113.03 39.703-36.505-4.291-65.019-19.821-72.898-39.703m179.12 13.923c-15.271 25.915-66.223 40.181-113.8 31.864-27.802-4.859-49.587-16.724-58.508-31.864m163.08 13.121c-19.218 23.141-69.239 33.415-111.73 22.948-18.693-4.607-33.671-12.764-42.128-22.948m141.92 12.115c-22.862 19.548-70.491 25.305-106.38 12.849-9.496-3.293-17.549-7.679-23.596-12.849m114.43 10.916c-26.145 14.874-69.478 15.388-96.787 1.1476-0.71757-0.37417-1.4201-0.75681-2.1071-1.1476m75.803 9.5449c-16.586 4.5318-36.127 4.5318-52.713 1e-6" fill="url(#e)" stroke="#442800" stroke-width="2.7468"/>
   </g>
   <path transform="matrix(.96012 -.27241 .24235 1.0182 -84.115 80.111)" d="m325.73 415.11c0 3.2124-4.0979 5.8165-9.1529 5.8165s-9.1529-2.6042-9.1529-5.8165c0-3.2124 4.0979-5.8165 9.1529-5.8165s9.1529 2.6042 9.1529 5.8165z" fill="#110a00"/>
  </g>
  <path d="m297.88 406.26c-2.9523-3.6421-1.1614 1.9163-6.492-2.0697-5.605-4.1911-18.811 12.127-18.811 12.127s-7.8709 8.0427-11.335 29.628c-2.1223 13.224 0.14019 26.405 9.9813 37.917 3.494 4.0875 16.467 13.87 21.276 24.824 4.8088 10.955 1.0305 14.689-0.34349 17.677-6.8342 14.968-2.5111 12.799 14.443 27.534 7.5568-2.2408 8.9143-13.343 3.762-22.804s-7.9808-10.661-5.9199-21.367-13.863-28.706-21.076-37.669c-7.2133-8.9631 1.5781-22.379 4.326-28.354 2.7479-5.9754 7.9405-7.2348 14.81-17.692 6.8698-10.457-0.71026-14.928-4.6205-19.752z" fill-opacity=".25882"/>
  <path d="m295.09 407.3c-2.284-3.8873-6.5677 3.535-10.692-0.71923-4.3361-4.4732-14.553 12.943-14.553 12.943s-6.0891 8.584-8.7691 31.622c-1.6418 14.114 0.10846 28.182 7.7218 40.469 2.7031 4.3626 12.739 14.803 16.46 26.495 3.7202 11.692 0.79719 15.678-0.26573 18.867-1.0629 3.1888-4.5174 14.084-2.923 22.321 1.5944 8.2376 6.6642 12.01 13.287 9.3006 5.8461-2.3916 7.7062-16.475 3.7202-26.573s-6.1742-11.378-4.5798-22.805c1.5944-11.426-10.725-30.638-16.305-40.204-5.5803-9.5663 1.2209-23.885 3.3467-30.263 2.1258-6.3775 6.143-7.7218 11.458-18.882 5.3146-11.161 5.1197-17.423 2.0947-22.571z" fill="url(#g)"/>
 </g>
 <g transform="matrix(-1 0 0 1 364.2 -112.32)">
  <path d="m27.729 298.59s0.05865-14.19-6.275-22.378-20.057 2.6024-13.808 10.681c6.2489 8.0785 20.083 11.697 20.083 11.697z" fill="#999" opacity=".5"/>
  <path d="m26.506 295.69s-7.5114-12.039-17.234-15.593c-9.7225-3.554-15.586 12.889-5.9933 16.396 9.5925 3.5064 23.227-0.80288 23.227-0.80288z" fill="#999" opacity=".5"/>
  <path d="m46.289 302.15c1.2751 5.9045-6.9224 12.685-18.31 15.144-11.387 2.4591-21.652-0.33393-22.927-6.2384-1.2751-5.9045 6.9224-12.685 18.31-15.144 11.387-2.4591 21.652 0.33392 22.927 6.2384z" fill="#fc0"/>
  <path transform="translate(67.079 110.37)" d="m-35.5 184.66c-0.41015-1e-3 -0.83061 0.0176-1.25 0.0312 2.4765 1.6174 4.5644 3.9147 5.875 6.75 2.2143 4.7903 1.6405 9.8085-1.0938 13.219 2.4031-1.0333 4.5177-2.2489 6.25-3.5938 1.3088-3.1077 1.2901-6.8927-0.40625-10.562-0.96681-2.0916-2.3662-3.8823-4.0312-5.3438-1.6446-0.31276-3.4404-0.49389-5.3438-0.5zm-4.1562 0.25c-1.3237 0.14754-2.6927 0.32918-4.0625 0.625-0.31966 0.069-0.62301 0.17427-0.9375 0.25 2.0615 2.0588 3.7092 4.6189 4.625 7.5312 1.7052 5.4226 0.54692 10.69-2.5938 14.188 1.1562-0.1447 2.3416-0.30559 3.5312-0.5625 0.92408-0.19956 1.8088-0.46506 2.6875-0.71875 2.6034-3.4659 3.4749-8.2926 1.9062-13.281-0.9928-3.1572-2.84-5.8797-5.1562-8.0312zm12.687 1.09c1.3147 1.1113 2.4279 2.5026 3.25 4.0938 1.4031 2.7156 1.6917 5.5603 1 8.0312 1.6267-2.0699 2.3866-4.264 1.9375-6.3438-0.55786-2.5832-2.8471-4.5684-6.1875-5.7812zm-20.719 0.625c-1.3326 0.43437-2.6194 0.92652-3.8125 1.4688 1.2661 1.9806 2.1653 4.2366 2.5625 6.6562 0.8297 5.0538-0.72535 9.6581-3.8125 12.562 1.5502 0.3008 3.2456 0.47242 5.0312 0.5 3.2212-2.8853 4.8772-7.5348 4.0312-12.688-0.52818-3.2171-1.9983-6.1188-4-8.5zm-6.4062 2.8125c-1.0919 0.62429-2.1013 1.2711-3 1.9688 0.38337 1.3882 0.57319 2.8562 0.53125 4.3438-0.09552 3.3882-1.3708 6.2943-3.375 8.3125 0.86576 0.79558 1.9316 1.509 3.2188 2.0625 2.6118-1.9852 4.3261-5.2686 4.4375-9.2188 0.07482-2.6544-0.61438-5.231-1.8125-7.4688zm-4.6562 3.4062c-2.5628 2.491-3.8413 5.2502-3.2812 7.8438 0.11954 0.55355 0.32267 1.0654 0.59375 1.5625 1.2252-1.3563 2.1389-3.1198 2.5625-5.1875 0.2902-1.4166 0.30983-2.839 0.125-4.2188z" fill="#540"/>
  <path d="m5.6715 307.31c-1.8209-0.10711-9.1045-1.0711-9.1045-1.0711l8.7832 2.1422c0.99769 0.24334 1.2766-1.0149 0.32134-1.0711z" fill="#2b2200"/>
  <path d="m27.971 298.19s5.0956-13.244 13.969-18.575c8.8735-5.3309 17.745 9.7046 8.9899 14.964-8.7548 5.2596-22.959 3.6104-22.959 3.6104z" fill="#999" opacity=".5"/>
  <path d="m27.699 297.71s10.736-9.2784 21.075-9.7974c10.339-0.51898 11.076 16.923 0.87518 17.435-10.2 0.51203-21.95-7.6376-21.95-7.6376z" fill="#999" opacity=".5"/>
 </g>
 <g transform="translate(151.98 231.33)">
  <path d="m27.729 298.59s0.05865-14.19-6.275-22.378-20.057 2.6024-13.808 10.681c6.2489 8.0785 20.083 11.697 20.083 11.697z" fill="#999" opacity=".5"/>
  <path d="m26.506 295.69s-7.5114-12.039-17.234-15.593c-9.7225-3.554-15.586 12.889-5.9933 16.396 9.5925 3.5064 23.227-0.80288 23.227-0.80288z" fill="#999" opacity=".5"/>
  <path d="m46.289 302.15c1.2751 5.9045-6.9224 12.685-18.31 15.144-11.387 2.4591-21.652-0.33393-22.927-6.2384-1.2751-5.9045 6.9224-12.685 18.31-15.144 11.387-2.4591 21.652 0.33392 22.927 6.2384z" fill="#fc0"/>
  <path transform="translate(67.079 110.37)" d="m-35.5 184.66c-0.41015-1e-3 -0.83061 0.0176-1.25 0.0312 2.4765 1.6174 4.5644 3.9147 5.875 6.75 2.2143 4.7903 1.6405 9.8085-1.0938 13.219 2.4031-1.0333 4.5177-2.2489 6.25-3.5938 1.3088-3.1077 1.2901-6.8927-0.40625-10.562-0.96681-2.0916-2.3662-3.8823-4.0312-5.3438-1.6446-0.31276-3.4404-0.49389-5.3438-0.5zm-4.1562 0.25c-1.3237 0.14754-2.6927 0.32918-4.0625 0.625-0.31966 0.069-0.62301 0.17427-0.9375 0.25 2.0615 2.0588 3.7092 4.6189 4.625 7.5312 1.7052 5.4226 0.54692 10.69-2.5938 14.188 1.1562-0.1447 2.3416-0.30559 3.5312-0.5625 0.92408-0.19956 1.8088-0.46506 2.6875-0.71875 2.6034-3.4659 3.4749-8.2926 1.9062-13.281-0.9928-3.1572-2.84-5.8797-5.1562-8.0312zm12.687 1.09c1.3147 1.1113 2.4279 2.5026 3.25 4.0938 1.4031 2.7156 1.6917 5.5603 1 8.0312 1.6267-2.0699 2.3866-4.264 1.9375-6.3438-0.55786-2.5832-2.8471-4.5684-6.1875-5.7812zm-20.719 0.625c-1.3326 0.43437-2.6194 0.92652-3.8125 1.4688 1.2661 1.9806 2.1653 4.2366 2.5625 6.6562 0.8297 5.0538-0.72535 9.6581-3.8125 12.562 1.5502 0.3008 3.2456 0.47242 5.0312 0.5 3.2212-2.8853 4.8772-7.5348 4.0312-12.688-0.52818-3.2171-1.9983-6.1188-4-8.5zm-6.4062 2.8125c-1.0919 0.62429-2.1013 1.2711-3 1.9688 0.38337 1.3882 0.57319 2.8562 0.53125 4.3438-0.09552 3.3882-1.3708 6.2943-3.375 8.3125 0.86576 0.79558 1.9316 1.509 3.2188 2.0625 2.6118-1.9852 4.3261-5.2686 4.4375-9.2188 0.07482-2.6544-0.61438-5.231-1.8125-7.4688zm-4.6562 3.4062c-2.5628 2.491-3.8413 5.2502-3.2812 7.8438 0.11954 0.55355 0.32267 1.0654 0.59375 1.5625 1.2252-1.3563 2.1389-3.1198 2.5625-5.1875 0.2902-1.4166 0.30983-2.839 0.125-4.2188z" fill="#540"/>
  <path d="m5.6715 307.31c-1.8209-0.10711-9.1045-1.0711-9.1045-1.0711l8.7832 2.1422c0.99769 0.24334 1.2766-1.0149 0.32134-1.0711z" fill="#2b2200"/>
  <path d="m27.971 298.19s5.0956-13.244 13.969-18.575c8.8735-5.3309 17.745 9.7046 8.9899 14.964-8.7548 5.2596-22.959 3.6104-22.959 3.6104z" fill="#999" opacity=".5"/>
  <path d="m27.699 297.71s10.736-9.2784 21.075-9.7974c10.339-0.51898 11.076 16.923 0.87518 17.435-10.2 0.51203-21.95-7.6376-21.95-7.6376z" fill="#999" opacity=".5"/>
 </g>
 <g transform="matrix(-.86105 .50852 .50852 .86105 357.71 29.454)">
  <path d="m27.729 298.59s0.05865-14.19-6.275-22.378-20.057 2.6024-13.808 10.681c6.2489 8.0785 20.083 11.697 20.083 11.697z" fill="#999" opacity=".5"/>
  <path d="m26.506 295.69s-7.5114-12.039-17.234-15.593c-9.7225-3.554-15.586 12.889-5.9933 16.396 9.5925 3.5064 23.227-0.80288 23.227-0.80288z" fill="#999" opacity=".5"/>
  <path d="m46.289 302.15c1.2751 5.9045-6.9224 12.685-18.31 15.144-11.387 2.4591-21.652-0.33393-22.927-6.2384-1.2751-5.9045 6.9224-12.685 18.31-15.144 11.387-2.4591 21.652 0.33392 22.927 6.2384z" fill="#fc0"/>
  <path transform="translate(67.079 110.37)" d="m-35.5 184.66c-0.41015-1e-3 -0.83061 0.0176-1.25 0.0312 2.4765 1.6174 4.5644 3.9147 5.875 6.75 2.2143 4.7903 1.6405 9.8085-1.0938 13.219 2.4031-1.0333 4.5177-2.2489 6.25-3.5938 1.3088-3.1077 1.2901-6.8927-0.40625-10.562-0.96681-2.0916-2.3662-3.8823-4.0312-5.3438-1.6446-0.31276-3.4404-0.49389-5.3438-0.5zm-4.1562 0.25c-1.3237 0.14754-2.6927 0.32918-4.0625 0.625-0.31966 0.069-0.62301 0.17427-0.9375 0.25 2.0615 2.0588 3.7092 4.6189 4.625 7.5312 1.7052 5.4226 0.54692 10.69-2.5938 14.188 1.1562-0.1447 2.3416-0.30559 3.5312-0.5625 0.92408-0.19956 1.8088-0.46506 2.6875-0.71875 2.6034-3.4659 3.4749-8.2926 1.9062-13.281-0.9928-3.1572-2.84-5.8797-5.1562-8.0312zm12.687 1.09c1.3147 1.1113 2.4279 2.5026 3.25 4.0938 1.4031 2.7156 1.6917 5.5603 1 8.0312 1.6267-2.0699 2.3866-4.264 1.9375-6.3438-0.55786-2.5832-2.8471-4.5684-6.1875-5.7812zm-20.719 0.625c-1.3326 0.43437-2.6194 0.92652-3.8125 1.4688 1.2661 1.9806 2.1653 4.2366 2.5625 6.6562 0.8297 5.0538-0.72535 9.6581-3.8125 12.562 1.5502 0.3008 3.2456 0.47242 5.0312 0.5 3.2212-2.8853 4.8772-7.5348 4.0312-12.688-0.52818-3.2171-1.9983-6.1188-4-8.5zm-6.4062 2.8125c-1.0919 0.62429-2.1013 1.2711-3 1.9688 0.38337 1.3882 0.57319 2.8562 0.53125 4.3438-0.09552 3.3882-1.3708 6.2943-3.375 8.3125 0.86576 0.79558 1.9316 1.509 3.2188 2.0625 2.6118-1.9852 4.3261-5.2686 4.4375-9.2188 0.07482-2.6544-0.61438-5.231-1.8125-7.4688zm-4.6562 3.4062c-2.5628 2.491-3.8413 5.2502-3.2812 7.8438 0.11954 0.55355 0.32267 1.0654 0.59375 1.5625 1.2252-1.3563 2.1389-3.1198 2.5625-5.1875 0.2902-1.4166 0.30983-2.839 0.125-4.2188z" fill="#540"/>
  <path d="m5.6715 307.31c-1.8209-0.10711-9.1045-1.0711-9.1045-1.0711l8.7832 2.1422c0.99769 0.24334 1.2766-1.0149 0.32134-1.0711z" fill="#2b2200"/>
  <path d="m27.971 298.19s5.0956-13.244 13.969-18.575c8.8735-5.3309 17.745 9.7046 8.9899 14.964-8.7548 5.2596-22.959 3.6104-22.959 3.6104z" fill="#999" opacity=".5"/>
  <path d="m27.699 297.71s10.736-9.2784 21.075-9.7974c10.339-0.51898 11.076 16.923 0.87518 17.435-10.2 0.51203-21.95-7.6376-21.95-7.6376z" fill="#999" opacity=".5"/>
 </g>
 <g transform="matrix(.86509 .50162 -.50162 .86509 572.98 167.33)">
  <path d="m27.729 298.59s0.05865-14.19-6.275-22.378-20.057 2.6024-13.808 10.681c6.2489 8.0785 20.083 11.697 20.083 11.697z" fill="#999" opacity=".5"/>
  <path d="m26.506 295.69s-7.5114-12.039-17.234-15.593c-9.7225-3.554-15.586 12.889-5.9933 16.396 9.5925 3.5064 23.227-0.80288 23.227-0.80288z" fill="#999" opacity=".5"/>
  <path d="m46.289 302.15c1.2751 5.9045-6.9224 12.685-18.31 15.144-11.387 2.4591-21.652-0.33393-22.927-6.2384-1.2751-5.9045 6.9224-12.685 18.31-15.144 11.387-2.4591 21.652 0.33392 22.927 6.2384z" fill="#fc0"/>
  <path transform="translate(67.079 110.37)" d="m-35.5 184.66c-0.41015-1e-3 -0.83061 0.0176-1.25 0.0312 2.4765 1.6174 4.5644 3.9147 5.875 6.75 2.2143 4.7903 1.6405 9.8085-1.0938 13.219 2.4031-1.0333 4.5177-2.2489 6.25-3.5938 1.3088-3.1077 1.2901-6.8927-0.40625-10.562-0.96681-2.0916-2.3662-3.8823-4.0312-5.3438-1.6446-0.31276-3.4404-0.49389-5.3438-0.5zm-4.1562 0.25c-1.3237 0.14754-2.6927 0.32918-4.0625 0.625-0.31966 0.069-0.62301 0.17427-0.9375 0.25 2.0615 2.0588 3.7092 4.6189 4.625 7.5312 1.7052 5.4226 0.54692 10.69-2.5938 14.188 1.1562-0.1447 2.3416-0.30559 3.5312-0.5625 0.92408-0.19956 1.8088-0.46506 2.6875-0.71875 2.6034-3.4659 3.4749-8.2926 1.9062-13.281-0.9928-3.1572-2.84-5.8797-5.1562-8.0312zm12.687 1.09c1.3147 1.1113 2.4279 2.5026 3.25 4.0938 1.4031 2.7156 1.6917 5.5603 1 8.0312 1.6267-2.0699 2.3866-4.264 1.9375-6.3438-0.55786-2.5832-2.8471-4.5684-6.1875-5.7812zm-20.719 0.625c-1.3326 0.43437-2.6194 0.92652-3.8125 1.4688 1.2661 1.9806 2.1653 4.2366 2.5625 6.6562 0.8297 5.0538-0.72535 9.6581-3.8125 12.562 1.5502 0.3008 3.2456 0.47242 5.0312 0.5 3.2212-2.8853 4.8772-7.5348 4.0312-12.688-0.52818-3.2171-1.9983-6.1188-4-8.5zm-6.4062 2.8125c-1.0919 0.62429-2.1013 1.2711-3 1.9688 0.38337 1.3882 0.57319 2.8562 0.53125 4.3438-0.09552 3.3882-1.3708 6.2943-3.375 8.3125 0.86576 0.79558 1.9316 1.509 3.2188 2.0625 2.6118-1.9852 4.3261-5.2686 4.4375-9.2188 0.07482-2.6544-0.61438-5.231-1.8125-7.4688zm-4.6562 3.4062c-2.5628 2.491-3.8413 5.2502-3.2812 7.8438 0.11954 0.55355 0.32267 1.0654 0.59375 1.5625 1.2252-1.3563 2.1389-3.1198 2.5625-5.1875 0.2902-1.4166 0.30983-2.839 0.125-4.2188z" fill="#540"/>
  <path d="m5.6715 307.31c-1.8209-0.10711-9.1045-1.0711-9.1045-1.0711l8.7832 2.1422c0.99769 0.24334 1.2766-1.0149 0.32134-1.0711z" fill="#2b2200"/>
  <path d="m27.971 298.19s5.0956-13.244 13.969-18.575c8.8735-5.3309 17.745 9.7046 8.9899 14.964-8.7548 5.2596-22.959 3.6104-22.959 3.6104z" fill="#999" opacity=".5"/>
  <path d="m27.699 297.71s10.736-9.2784 21.075-9.7974c10.339-0.51898 11.076 16.923 0.87518 17.435-10.2 0.51203-21.95-7.6376-21.95-7.6376z" fill="#999" opacity=".5"/>
 </g>
 <g transform="translate(424.2 280.53)">
  <path d="m27.729 298.59s0.05865-14.19-6.275-22.378-20.057 2.6024-13.808 10.681c6.2489 8.0785 20.083 11.697 20.083 11.697z" fill="#999" opacity=".5"/>
  <path d="m26.506 295.69s-7.5114-12.039-17.234-15.593c-9.7225-3.554-15.586 12.889-5.9933 16.396 9.5925 3.5064 23.227-0.80288 23.227-0.80288z" fill="#999" opacity=".5"/>
  <path d="m46.289 302.15c1.2751 5.9045-6.9224 12.685-18.31 15.144-11.387 2.4591-21.652-0.33393-22.927-6.2384-1.2751-5.9045 6.9224-12.685 18.31-15.144 11.387-2.4591 21.652 0.33392 22.927 6.2384z" fill="#fc0"/>
  <path transform="translate(67.079 110.37)" d="m-35.5 184.66c-0.41015-1e-3 -0.83061 0.0176-1.25 0.0312 2.4765 1.6174 4.5644 3.9147 5.875 6.75 2.2143 4.7903 1.6405 9.8085-1.0938 13.219 2.4031-1.0333 4.5177-2.2489 6.25-3.5938 1.3088-3.1077 1.2901-6.8927-0.40625-10.562-0.96681-2.0916-2.3662-3.8823-4.0312-5.3438-1.6446-0.31276-3.4404-0.49389-5.3438-0.5zm-4.1562 0.25c-1.3237 0.14754-2.6927 0.32918-4.0625 0.625-0.31966 0.069-0.62301 0.17427-0.9375 0.25 2.0615 2.0588 3.7092 4.6189 4.625 7.5312 1.7052 5.4226 0.54692 10.69-2.5938 14.188 1.1562-0.1447 2.3416-0.30559 3.5312-0.5625 0.92408-0.19956 1.8088-0.46506 2.6875-0.71875 2.6034-3.4659 3.4749-8.2926 1.9062-13.281-0.9928-3.1572-2.84-5.8797-5.1562-8.0312zm12.687 1.09c1.3147 1.1113 2.4279 2.5026 3.25 4.0938 1.4031 2.7156 1.6917 5.5603 1 8.0312 1.6267-2.0699 2.3866-4.264 1.9375-6.3438-0.55786-2.5832-2.8471-4.5684-6.1875-5.7812zm-20.719 0.625c-1.3326 0.43437-2.6194 0.92652-3.8125 1.4688 1.2661 1.9806 2.1653 4.2366 2.5625 6.6562 0.8297 5.0538-0.72535 9.6581-3.8125 12.562 1.5502 0.3008 3.2456 0.47242 5.0312 0.5 3.2212-2.8853 4.8772-7.5348 4.0312-12.688-0.52818-3.2171-1.9983-6.1188-4-8.5zm-6.4062 2.8125c-1.0919 0.62429-2.1013 1.2711-3 1.9688 0.38337 1.3882 0.57319 2.8562 0.53125 4.3438-0.09552 3.3882-1.3708 6.2943-3.375 8.3125 0.86576 0.79558 1.9316 1.509 3.2188 2.0625 2.6118-1.9852 4.3261-5.2686 4.4375-9.2188 0.07482-2.6544-0.61438-5.231-1.8125-7.4688zm-4.6562 3.4062c-2.5628 2.491-3.8413 5.2502-3.2812 7.8438 0.11954 0.55355 0.32267 1.0654 0.59375 1.5625 1.2252-1.3563 2.1389-3.1198 2.5625-5.1875 0.2902-1.4166 0.30983-2.839 0.125-4.2188z" fill="#540"/>
  <path d="m5.6715 307.31c-1.8209-0.10711-9.1045-1.0711-9.1045-1.0711l8.7832 2.1422c0.99769 0.24334 1.2766-1.0149 0.32134-1.0711z" fill="#2b2200"/>
  <path d="m27.971 298.19s5.0956-13.244 13.969-18.575c8.8735-5.3309 17.745 9.7046 8.9899 14.964-8.7548 5.2596-22.959 3.6104-22.959 3.6104z" fill="#999" opacity=".5"/>
  <path d="m27.699 297.71s10.736-9.2784 21.075-9.7974c10.339-0.51898 11.076 16.923 0.87518 17.435-10.2 0.51203-21.95-7.6376-21.95-7.6376z" fill="#999" opacity=".5"/>
 </g>
 <g transform="matrix(.61567 .78801 -.78801 .61567 541.33 296.93)">
  <path d="m27.729 298.59s0.05865-14.19-6.275-22.378-20.057 2.6024-13.808 10.681c6.2489 8.0785 20.083 11.697 20.083 11.697z" fill="#999" opacity=".5"/>
  <path d="m26.506 295.69s-7.5114-12.039-17.234-15.593c-9.7225-3.554-15.586 12.889-5.9933 16.396 9.5925 3.5064 23.227-0.80288 23.227-0.80288z" fill="#999" opacity=".5"/>
  <path d="m46.289 302.15c1.2751 5.9045-6.9224 12.685-18.31 15.144-11.387 2.4591-21.652-0.33393-22.927-6.2384-1.2751-5.9045 6.9224-12.685 18.31-15.144 11.387-2.4591 21.652 0.33392 22.927 6.2384z" fill="#fc0"/>
  <path transform="translate(67.079 110.37)" d="m-35.5 184.66c-0.41015-1e-3 -0.83061 0.0176-1.25 0.0312 2.4765 1.6174 4.5644 3.9147 5.875 6.75 2.2143 4.7903 1.6405 9.8085-1.0938 13.219 2.4031-1.0333 4.5177-2.2489 6.25-3.5938 1.3088-3.1077 1.2901-6.8927-0.40625-10.562-0.96681-2.0916-2.3662-3.8823-4.0312-5.3438-1.6446-0.31276-3.4404-0.49389-5.3438-0.5zm-4.1562 0.25c-1.3237 0.14754-2.6927 0.32918-4.0625 0.625-0.31966 0.069-0.62301 0.17427-0.9375 0.25 2.0615 2.0588 3.7092 4.6189 4.625 7.5312 1.7052 5.4226 0.54692 10.69-2.5938 14.188 1.1562-0.1447 2.3416-0.30559 3.5312-0.5625 0.92408-0.19956 1.8088-0.46506 2.6875-0.71875 2.6034-3.4659 3.4749-8.2926 1.9062-13.281-0.9928-3.1572-2.84-5.8797-5.1562-8.0312zm12.687 1.09c1.3147 1.1113 2.4279 2.5026 3.25 4.0938 1.4031 2.7156 1.6917 5.5603 1 8.0312 1.6267-2.0699 2.3866-4.264 1.9375-6.3438-0.55786-2.5832-2.8471-4.5684-6.1875-5.7812zm-20.719 0.625c-1.3326 0.43437-2.6194 0.92652-3.8125 1.4688 1.2661 1.9806 2.1653 4.2366 2.5625 6.6562 0.8297 5.0538-0.72535 9.6581-3.8125 12.562 1.5502 0.3008 3.2456 0.47242 5.0312 0.5 3.2212-2.8853 4.8772-7.5348 4.0312-12.688-0.52818-3.2171-1.9983-6.1188-4-8.5zm-6.4062 2.8125c-1.0919 0.62429-2.1013 1.2711-3 1.9688 0.38337 1.3882 0.57319 2.8562 0.53125 4.3438-0.09552 3.3882-1.3708 6.2943-3.375 8.3125 0.86576 0.79558 1.9316 1.509 3.2188 2.0625 2.6118-1.9852 4.3261-5.2686 4.4375-9.2188 0.07482-2.6544-0.61438-5.231-1.8125-7.4688zm-4.6562 3.4062c-2.5628 2.491-3.8413 5.2502-3.2812 7.8438 0.11954 0.55355 0.32267 1.0654 0.59375 1.5625 1.2252-1.3563 2.1389-3.1198 2.5625-5.1875 0.2902-1.4166 0.30983-2.839 0.125-4.2188z" fill="#540"/>
  <path d="m5.6715 307.31c-1.8209-0.10711-9.1045-1.0711-9.1045-1.0711l8.7832 2.1422c0.99769 0.24334 1.2766-1.0149 0.32134-1.0711z" fill="#2b2200"/>
  <path d="m27.971 298.19s5.0956-13.244 13.969-18.575c8.8735-5.3309 17.745 9.7046 8.9899 14.964-8.7548 5.2596-22.959 3.6104-22.959 3.6104z" fill="#999" opacity=".5"/>
  <path d="m27.699 297.71s10.736-9.2784 21.075-9.7974c10.339-0.51898 11.076 16.923 0.87518 17.435-10.2 0.51203-21.95-7.6376-21.95-7.6376z" fill="#999" opacity=".5"/>
 </g>
 <g transform="matrix(-.81974 .57274 .57274 .81974 257.14 264.51)">
  <path d="m27.729 298.59s0.05865-14.19-6.275-22.378-20.057 2.6024-13.808 10.681c6.2489 8.0785 20.083 11.697 20.083 11.697z" fill="#999" opacity=".5"/>
  <path d="m26.506 295.69s-7.5114-12.039-17.234-15.593c-9.7225-3.554-15.586 12.889-5.9933 16.396 9.5925 3.5064 23.227-0.80288 23.227-0.80288z" fill="#999" opacity=".5"/>
  <path d="m46.289 302.15c1.2751 5.9045-6.9224 12.685-18.31 15.144-11.387 2.4591-21.652-0.33393-22.927-6.2384-1.2751-5.9045 6.9224-12.685 18.31-15.144 11.387-2.4591 21.652 0.33392 22.927 6.2384z" fill="#fc0"/>
  <path transform="translate(67.079 110.37)" d="m-35.5 184.66c-0.41015-1e-3 -0.83061 0.0176-1.25 0.0312 2.4765 1.6174 4.5644 3.9147 5.875 6.75 2.2143 4.7903 1.6405 9.8085-1.0938 13.219 2.4031-1.0333 4.5177-2.2489 6.25-3.5938 1.3088-3.1077 1.2901-6.8927-0.40625-10.562-0.96681-2.0916-2.3662-3.8823-4.0312-5.3438-1.6446-0.31276-3.4404-0.49389-5.3438-0.5zm-4.1562 0.25c-1.3237 0.14754-2.6927 0.32918-4.0625 0.625-0.31966 0.069-0.62301 0.17427-0.9375 0.25 2.0615 2.0588 3.7092 4.6189 4.625 7.5312 1.7052 5.4226 0.54692 10.69-2.5938 14.188 1.1562-0.1447 2.3416-0.30559 3.5312-0.5625 0.92408-0.19956 1.8088-0.46506 2.6875-0.71875 2.6034-3.4659 3.4749-8.2926 1.9062-13.281-0.9928-3.1572-2.84-5.8797-5.1562-8.0312zm12.687 1.09c1.3147 1.1113 2.4279 2.5026 3.25 4.0938 1.4031 2.7156 1.6917 5.5603 1 8.0312 1.6267-2.0699 2.3866-4.264 1.9375-6.3438-0.55786-2.5832-2.8471-4.5684-6.1875-5.7812zm-20.719 0.625c-1.3326 0.43437-2.6194 0.92652-3.8125 1.4688 1.2661 1.9806 2.1653 4.2366 2.5625 6.6562 0.8297 5.0538-0.72535 9.6581-3.8125 12.562 1.5502 0.3008 3.2456 0.47242 5.0312 0.5 3.2212-2.8853 4.8772-7.5348 4.0312-12.688-0.52818-3.2171-1.9983-6.1188-4-8.5zm-6.4062 2.8125c-1.0919 0.62429-2.1013 1.2711-3 1.9688 0.38337 1.3882 0.57319 2.8562 0.53125 4.3438-0.09552 3.3882-1.3708 6.2943-3.375 8.3125 0.86576 0.79558 1.9316 1.509 3.2188 2.0625 2.6118-1.9852 4.3261-5.2686 4.4375-9.2188 0.07482-2.6544-0.61438-5.231-1.8125-7.4688zm-4.6562 3.4062c-2.5628 2.491-3.8413 5.2502-3.2812 7.8438 0.11954 0.55355 0.32267 1.0654 0.59375 1.5625 1.2252-1.3563 2.1389-3.1198 2.5625-5.1875 0.2902-1.4166 0.30983-2.839 0.125-4.2188z" fill="#540"/>
  <path d="m5.6715 307.31c-1.8209-0.10711-9.1045-1.0711-9.1045-1.0711l8.7832 2.1422c0.99769 0.24334 1.2766-1.0149 0.32134-1.0711z" fill="#2b2200"/>
  <path d="m27.971 298.19s5.0956-13.244 13.969-18.575c8.8735-5.3309 17.745 9.7046 8.9899 14.964-8.7548 5.2596-22.959 3.6104-22.959 3.6104z" fill="#999" opacity=".5"/>
  <path d="m27.699 297.71s10.736-9.2784 21.075-9.7974c10.339-0.51898 11.076 16.923 0.87518 17.435-10.2 0.51203-21.95-7.6376-21.95-7.6376z" fill="#999" opacity=".5"/>
 </g>
 <g transform="matrix(-.98072 -.19544 -.19544 .98072 605.81 193.24)">
  <path d="m27.729 298.59s0.05865-14.19-6.275-22.378-20.057 2.6024-13.808 10.681c6.2489 8.0785 20.083 11.697 20.083 11.697z" fill="#999" opacity=".5"/>
  <path d="m26.506 295.69s-7.5114-12.039-17.234-15.593c-9.7225-3.554-15.586 12.889-5.9933 16.396 9.5925 3.5064 23.227-0.80288 23.227-0.80288z" fill="#999" opacity=".5"/>
  <path d="m46.289 302.15c1.2751 5.9045-6.9224 12.685-18.31 15.144-11.387 2.4591-21.652-0.33393-22.927-6.2384-1.2751-5.9045 6.9224-12.685 18.31-15.144 11.387-2.4591 21.652 0.33392 22.927 6.2384z" fill="#fc0"/>
  <path transform="translate(67.079 110.37)" d="m-35.5 184.66c-0.41015-1e-3 -0.83061 0.0176-1.25 0.0312 2.4765 1.6174 4.5644 3.9147 5.875 6.75 2.2143 4.7903 1.6405 9.8085-1.0938 13.219 2.4031-1.0333 4.5177-2.2489 6.25-3.5938 1.3088-3.1077 1.2901-6.8927-0.40625-10.562-0.96681-2.0916-2.3662-3.8823-4.0312-5.3438-1.6446-0.31276-3.4404-0.49389-5.3438-0.5zm-4.1562 0.25c-1.3237 0.14754-2.6927 0.32918-4.0625 0.625-0.31966 0.069-0.62301 0.17427-0.9375 0.25 2.0615 2.0588 3.7092 4.6189 4.625 7.5312 1.7052 5.4226 0.54692 10.69-2.5938 14.188 1.1562-0.1447 2.3416-0.30559 3.5312-0.5625 0.92408-0.19956 1.8088-0.46506 2.6875-0.71875 2.6034-3.4659 3.4749-8.2926 1.9062-13.281-0.9928-3.1572-2.84-5.8797-5.1562-8.0312zm12.687 1.09c1.3147 1.1113 2.4279 2.5026 3.25 4.0938 1.4031 2.7156 1.6917 5.5603 1 8.0312 1.6267-2.0699 2.3866-4.264 1.9375-6.3438-0.55786-2.5832-2.8471-4.5684-6.1875-5.7812zm-20.719 0.625c-1.3326 0.43437-2.6194 0.92652-3.8125 1.4688 1.2661 1.9806 2.1653 4.2366 2.5625 6.6562 0.8297 5.0538-0.72535 9.6581-3.8125 12.562 1.5502 0.3008 3.2456 0.47242 5.0312 0.5 3.2212-2.8853 4.8772-7.5348 4.0312-12.688-0.52818-3.2171-1.9983-6.1188-4-8.5zm-6.4062 2.8125c-1.0919 0.62429-2.1013 1.2711-3 1.9688 0.38337 1.3882 0.57319 2.8562 0.53125 4.3438-0.09552 3.3882-1.3708 6.2943-3.375 8.3125 0.86576 0.79558 1.9316 1.509 3.2188 2.0625 2.6118-1.9852 4.3261-5.2686 4.4375-9.2188 0.07482-2.6544-0.61438-5.231-1.8125-7.4688zm-4.6562 3.4062c-2.5628 2.491-3.8413 5.2502-3.2812 7.8438 0.11954 0.55355 0.32267 1.0654 0.59375 1.5625 1.2252-1.3563 2.1389-3.1198 2.5625-5.1875 0.2902-1.4166 0.30983-2.839 0.125-4.2188z" fill="#540"/>
  <path d="m5.6715 307.31c-1.8209-0.10711-9.1045-1.0711-9.1045-1.0711l8.7832 2.1422c0.99769 0.24334 1.2766-1.0149 0.32134-1.0711z" fill="#2b2200"/>
  <path d="m27.971 298.19s5.0956-13.244 13.969-18.575c8.8735-5.3309 17.745 9.7046 8.9899 14.964-8.7548 5.2596-22.959 3.6104-22.959 3.6104z" fill="#999" opacity=".5"/>
  <path d="m27.699 297.71s10.736-9.2784 21.075-9.7974c10.339-0.51898 11.076 16.923 0.87518 17.435-10.2 0.51203-21.95-7.6376-21.95-7.6376z" fill="#999" opacity=".5"/>
 </g>
 <path d="m288.64 264.71s-4.3751 4.2949-7.5434 9.9113c-1.586 2.8115-2.4116 5.1543-2.8125 6.8125-0.40087 1.6582-0.375 2.6562-0.375 2.6562h1s-5e-3 -0.83267 0.375-2.4062c0.38043-1.5736 1.117-3.8339 2.6562-6.5625 3.0822-5.4638 7.7711-10.272 7.7711-10.272z" color="#000000" fill="#710000" style="block-progression:tb;text-indent:0;text-transform:none"/>
</svg>
