<?xml version="1.0" encoding="UTF-8"?>
<svg viewBox="0 0 548.55945 511.44623" xmlns="http://www.w3.org/2000/svg" xmlns:xlink="http://www.w3.org/1999/xlink">
 <defs>
  <filter id="ad">
   <feGaussianBlur stdDeviation="1.06762"/>
  </filter>
  <filter id="h">
   <feGaussianBlur stdDeviation="1.17123"/>
  </filter>
  <filter id="ac">
   <feGaussianBlur stdDeviation="1.16693"/>
  </filter>
  <filter id="w">
   <feGaussianBlur stdDeviation="2.46819"/>
  </filter>
  <filter id="x"/>
  <filter id="ae" x="-.09418" y="-.1289" width="1.1884" height="1.2578">
   <feGaussianBlur stdDeviation=".71098"/>
  </filter>
  <filter id="a" x="-.16471" y="-.15921" width="1.3294" height="1.3184">
   <feGaussianBlur stdDeviation="2.02505"/>
  </filter>
  <filter id="g" x="-.28858" y="-.28615" width="1.5772" height="1.5723">
   <feGaussianBlur stdDeviation="3.60482"/>
  </filter>
  <filter id="ab" x="-.1087" y="-.1241" width="1.2174" height="1.2482">
   <feGaussianBlur stdDeviation="6.0655"/>
  </filter>
  <filter id="aa" x="-.12506" y="-.18124" width="1.2501" height="1.3625">
   <feGaussianBlur stdDeviation="10.52729"/>
  </filter>
  <filter id="z" x="-.18288" y="-.54031" width="1.3658" height="2.0806">
   <feGaussianBlur stdDeviation="15.00946"/>
  </filter>
  <filter id="y" x="-.65221" y="-.59635" width="2.3044" height="2.1927">
   <feGaussianBlur stdDeviation="7.80081"/>
  </filter>
  <filter id="c" x="-.16224" y="-.10962" width="1.3245" height="1.2192">
   <feGaussianBlur stdDeviation="1.70719"/>
  </filter>
  <linearGradient id="e">
   <stop stop-color="#244a22" offset="0"/>
   <stop stop-color="#14190f" stop-opacity=".93725" offset="1"/>
  </linearGradient>
  <linearGradient id="f">
   <stop stop-color="#9baf72" offset="0"/>
   <stop stop-color="#224815" offset="1"/>
  </linearGradient>
  <linearGradient id="b">
   <stop stop-color="#244a22" offset="0"/>
   <stop stop-color="#142f0f" stop-opacity=".93671" offset="1"/>
  </linearGradient>
  <linearGradient id="v" x1="655.72" x2="677.94" y1="684.76" y2="547.29" gradientUnits="userSpaceOnUse">
   <stop stop-color="#830c1b" offset="0"/>
   <stop stop-color="#bc2609" stop-opacity=".00422" offset="1"/>
  </linearGradient>
  <linearGradient id="d">
   <stop stop-color="#ddaddf" offset="0"/>
   <stop stop-color="#bc2609" stop-opacity=".00422" offset="1"/>
  </linearGradient>
  <linearGradient id="r" x1="328.71" x2="302.29" gradientUnits="userSpaceOnUse">
   <stop stop-color="#244a22" offset="0"/>
   <stop stop-color="#5f9911" offset="1"/>
  </linearGradient>
  <linearGradient id="k" x2="0" y1="466.47" y2="582.14" gradientUnits="userSpaceOnUse">
   <stop stop-color="#e29239" offset="0"/>
   <stop stop-color="#e29239" stop-opacity=".01688" offset="1"/>
  </linearGradient>
  <linearGradient id="u" x1="513.03" x2="596.12" y1="661.01" y2="623.05" gradientUnits="userSpaceOnUse" xlink:href="#d"/>
  <linearGradient id="t" x1="798.4" x2="729.46" y1="632.73" y2="606.88" gradientUnits="userSpaceOnUse" xlink:href="#d"/>
  <linearGradient id="s" x1="289.29" x2="316.07" y1="433.08" y2="485.76" gradientUnits="userSpaceOnUse" xlink:href="#e"/>
  <linearGradient id="q" x1="318.66" x2="307.99" y1="453.89" y2="456.76" gradientUnits="userSpaceOnUse" xlink:href="#f"/>
  <linearGradient id="p" x1="245.87" x2="301.27" gradientTransform="matrix(.49743 1.5024 1.9699 -.53002 -804.93 308.35)" gradientUnits="userSpaceOnUse" xlink:href="#b"/>
  <linearGradient id="o" x1="245.87" x2="301.27" gradientTransform="matrix(.45334 1.5548 -2.0198 .68257 1181.5 -296.41)" gradientUnits="userSpaceOnUse" xlink:href="#b"/>
  <linearGradient id="n" x1="245.85" x2="305.93" gradientUnits="userSpaceOnUse" xlink:href="#e"/>
  <linearGradient id="m" x1="311.64" x2="326.04" y1="478.52" y2="502.16" gradientUnits="userSpaceOnUse" xlink:href="#f"/>
  <linearGradient id="l" x1="238.5" x2="307.21" gradientUnits="userSpaceOnUse" xlink:href="#b"/>
  <radialGradient id="j" cx="321.23" cy="469.5" r="9.2414" gradientTransform="matrix(2.9198 -.3316 .27561 1.7724 -746.09 -256.13)" gradientUnits="userSpaceOnUse">
   <stop stop-color="#338000" offset="0"/>
   <stop stop-color="#338000" stop-opacity="0" offset="1"/>
  </radialGradient>
  <radialGradient id="i" cx="321.23" cy="469.5" r="9.2414" gradientTransform="matrix(3.9006 .54104 -.26254 1.8928 -808.48 -592.95)" gradientUnits="userSpaceOnUse">
   <stop stop-color="#9db174" offset="0"/>
   <stop stop-color="#9db174" stop-opacity="0" offset="1"/>
  </radialGradient>
 </defs>
 <g transform="matrix(1.3972 0 0 1.3972 -637.08 -525.07)">
  <path transform="matrix(1.1795 0 0 1.2986 -140.51 -223.92)" d="m782.87 680.63c0 18.41-44.095 33.335-98.49 33.335s-98.49-14.925-98.49-33.335 44.095-33.335 98.49-33.335c53.017 0 96.521 14.204 98.426 32.137" fill="#1a1a1a" filter="url(#z)" opacity=".58991"/>
  <path d="m623.6 417.05c41.435-14.944 82.36-5.3977 117.86 16.429 24.327 17.607 40.838 35.344 52.143 72.143 6.5363 28.786 9.5491 60.302-12.143 98.571-23.275 41.837-54.24 61.904-77.143 70.714-50.979 14.687-98.262 14.572-133.57-11.429-34.966-25.747-51.793-59.2-56.429-90.714-4.5466-30.908 2.8029-58.987 25.714-92.857 26.545-33.642 43.934-45.628 83.571-62.857z" fill="#bc2609"/>
  <path d="m623.6 417.05c41.435-14.944 82.36-5.3977 117.86 16.429 24.327 17.607 40.838 35.344 52.143 72.143 6.5363 28.786 9.5491 60.302-12.143 98.571-23.275 41.837-54.24 61.904-77.143 70.714-50.979 14.687-98.262 14.572-133.57-11.429-34.966-25.747-51.793-59.2-56.429-90.714-4.5466-30.908 2.8029-58.987 25.714-92.857 26.545-33.642 43.934-45.628 83.571-62.857z" fill="url(#u)"/>
  <path d="m623.6 417.05c41.435-14.944 82.36-5.3977 117.86 16.429 24.327 17.607 40.838 35.344 52.143 72.143 6.5363 28.786 9.5491 60.302-12.143 98.571-23.275 41.837-54.24 61.904-77.143 70.714-50.979 14.687-98.262 14.572-133.57-11.429-34.966-25.747-51.793-59.2-56.429-90.714-4.5466-30.908 2.8029-58.987 25.714-92.857 26.545-33.642 43.934-45.628 83.571-62.857z" fill="url(#v)"/>
  <path d="m623.6 417.05c41.435-14.944 82.36-5.3977 117.86 16.429 24.327 17.607 40.838 35.344 52.143 72.143 6.5363 28.786 9.5491 60.302-12.143 98.571-23.275 41.837-54.24 61.904-77.143 70.714-50.979 14.687-98.262 14.572-133.57-11.429-34.966-25.747-51.793-59.2-56.429-90.714-4.5466-30.908 2.8029-58.987 25.714-92.857 26.545-33.642 43.934-45.628 83.571-62.857z" fill="url(#t)"/>
  <path transform="matrix(1.017 0 0 1.183 282.26 -49.428)" d="m461.64 471.52c0 38.495-45.226 69.701-101.02 69.701s-101.02-31.206-101.02-69.701 45.226-69.701 101.02-69.701c54.376 0 98.995 29.7 100.95 67.195" fill="#c3150e" filter="url(#aa)"/>
  <g transform="matrix(1 0 0 1.0065 300 -3.6144)" fill="#fff" filter="url(#ab)" opacity=".92744">
   <g filter="url(#ac)">
    <path transform="matrix(.97874 -.43862 .30637 .89739 -130.61 211.22)" d="m383.35 443.49c0 8.2289-6.6708 14.9-14.9 14.9s-14.9-6.6708-14.9-14.9 6.6708-14.9 14.9-14.9c8.0205 0 14.602 6.3489 14.89 14.364" filter="url(#h)" opacity=".9306"/>
    <path transform="matrix(.88542 -.32955 .27716 .67423 -130.95 347.98)" d="m383.35 443.49c0 8.2289-6.6708 14.9-14.9 14.9s-14.9-6.6708-14.9-14.9 6.6708-14.9 14.9-14.9c8.0205 0 14.602 6.3489 14.89 14.364" filter="url(#ad)" opacity=".96845"/>
    <path transform="matrix(.94041 -.31748 .29437 .64953 -216.43 325.69)" d="m383.35 443.49c0 8.2289-6.6708 14.9-14.9 14.9s-14.9-6.6708-14.9-14.9 6.6708-14.9 14.9-14.9c8.0205 0 14.602 6.3489 14.89 14.364" filter="url(#h)" opacity=".9306"/>
    <path transform="matrix(.73657 -.26101 .23057 .53401 -110.25 336.17)" d="m383.35 443.49c0 8.2289-6.6708 14.9-14.9 14.9s-14.9-6.6708-14.9-14.9 6.6708-14.9 14.9-14.9c8.0205 0 14.602 6.3489 14.89 14.364" filter="url(#a)" opacity=".9306"/>
    <path transform="matrix(.73657 -.26101 .23057 .53401 -103.43 325.31)" d="m383.35 443.49c0 8.2289-6.6708 14.9-14.9 14.9s-14.9-6.6708-14.9-14.9 6.6708-14.9 14.9-14.9c8.0205 0 14.602 6.3489 14.89 14.364" filter="url(#a)" opacity=".9306"/>
    <path transform="matrix(.65147 -.21024 .20393 .43014 -49.404 341.81)" d="m383.35 443.49c0 8.2289-6.6708 14.9-14.9 14.9s-14.9-6.6708-14.9-14.9 6.6708-14.9 14.9-14.9c8.0205 0 14.602 6.3489 14.89 14.364" filter="url(#a)" opacity=".9306"/>
    <path transform="matrix(.65147 -.21024 .20393 .43014 -36.524 333.48)" d="m383.35 443.49c0 8.2289-6.6708 14.9-14.9 14.9s-14.9-6.6708-14.9-14.9 6.6708-14.9 14.9-14.9c8.0205 0 14.602 6.3489 14.89 14.364" filter="url(#a)" opacity=".9306"/>
    <path transform="matrix(.65147 -.21024 .20393 .43014 -23.392 323.88)" d="m383.35 443.49c0 8.2289-6.6708 14.9-14.9 14.9s-14.9-6.6708-14.9-14.9 6.6708-14.9 14.9-14.9c8.0205 0 14.602 6.3489 14.89 14.364" filter="url(#a)" opacity=".9306"/>
    <path transform="matrix(.65147 -.21024 .20393 .43014 7.9224 314.79)" d="m383.35 443.49c0 8.2289-6.6708 14.9-14.9 14.9s-14.9-6.6708-14.9-14.9 6.6708-14.9 14.9-14.9c8.0205 0 14.602 6.3489 14.89 14.364" filter="url(#a)" opacity=".9306"/>
    <path transform="matrix(.65235 .20751 -.08402 .46856 145.41 227.67)" d="m383.35 443.49c0 8.2289-6.6708 14.9-14.9 14.9s-14.9-6.6708-14.9-14.9 6.6708-14.9 14.9-14.9c8.0205 0 14.602 6.3489 14.89 14.364" filter="url(#a)" opacity=".9306"/>
    <path transform="matrix(.66645 -.02564 .14919 .32357 48.401 361.71)" d="m383.35 443.49c0 8.2289-6.6708 14.9-14.9 14.9s-14.9-6.6708-14.9-14.9 6.6708-14.9 14.9-14.9c8.0205 0 14.602 6.3489 14.89 14.364" filter="url(#a)" opacity=".9306"/>
   </g>
   <path transform="matrix(.65147 -.21024 .20393 .43014 -38.545 417.82)" d="m383.35 443.49c0 8.2289-6.6708 14.9-14.9 14.9s-14.9-6.6708-14.9-14.9 6.6708-14.9 14.9-14.9c8.0205 0 14.602 6.3489 14.89 14.364" filter="url(#g)" opacity=".9306"/>
   <path transform="matrix(.65147 -.21024 .20393 .43014 -63.798 407.72)" d="m383.35 443.49c0 8.2289-6.6708 14.9-14.9 14.9s-14.9-6.6708-14.9-14.9 6.6708-14.9 14.9-14.9c8.0205 0 14.602 6.3489 14.89 14.364" filter="url(#g)" opacity=".9306"/>
  </g>
  <path d="m557.59 535.16 12.122-9.0914 8.0812-4.0406 16.162-10.102 11.112-2.0203 40.406-21.213 10.224-2.6733-12.244-1.3673 3.153-7.7854 2.9079-6.3568-8.0812-4.0406h-3.0305l-5.0508 1.0102-22.223 3.0305-5.0508 14.142-20.203 17.173-28.284 33.335z" fill="url(#k)" filter="url(#w)"/>
  <path transform="matrix(-1.111 -.57068 -.61679 1.0279 1581.2 323.77)" d="m586.14 512.69c8.4179 1.4968 18.351 22.301 26.769 34.85-5.0669-12.699-7.8355-30.784-17.678-39.901l-9.0914 5.0508z" fill="#600000" filter="url(#c)" opacity=".62776"/>
  <path transform="matrix(.8122 0 0 .69546 116.91 154.17)" d="m621.24 510.42c8.4179 1.4968 18.351 22.301 26.769 34.85-5.0669-12.699-7.8355-30.784-17.678-39.901l-9.0914 5.0508z" fill="#600000" filter="url(#c)" opacity=".62776"/>
  <path transform="matrix(.78777 -.77835 .61597 .99545 -172.64 516.37)" d="m643.21 489.96c8.4179 1.4968 18.351 22.301 26.769 34.85-5.0669-12.699-7.8355-30.784-17.678-39.901l-9.0914 5.0508z" fill="#600000" filter="url(#c)" opacity=".62776"/>
  <g transform="translate(300)">
   <path d="m303.87 390.43c3.1157 26.702 8.6267 60.833 12.309 73.196l9.7475 1.977c3.0855-19.782 8.0882-39.972 13.867-55.714l5.2092-8.954c-6.292 26.836-12.334 53.548-10.714 76.429 7.3802-10.935 19.948-33.965 27.857-50.209-3.8365 14.877-17.031 40.611-22.857 53.066-1.5248 9.2752 1.0936 9.8184 0 16.429l-5 5.7143-6.4286 5.7143-9.2857 3.5714-5-0.71429-3.9465-0.96683-3.9106-0.46174-0.71429-2.8571c-0.50265-0.56733-2.881-1.9995-18.571 0l-19.286 7.8571-20 10-10 3.5714-5.7143 2.1428-5.7143 7.1429-0.71429 6.4286v-7.8571l5.7143-8.5714c3.7567-2.2342 1.0236-0.16624 25-15l23.571-11.429c6.5791-2.5915 13.705-4.4433 20.714-2.8571-21.309-21.302-49.965-40.756-66.847-63.03 23.05 19.972 40.552 26.31 76.133 55.173l-4.9133-22.143c-1.2918-11.195-3.7076-25.13-3.6581-45.714l3.153-31.934z" fill="#3d6c38" stroke="#112b00" stroke-width=".3"/>
   <path d="m289.29 476.65 24.286 23.214 2.5-30-6.7857-36.786 5.3572 38.929-6.0714-3.9286-3.5714 0.71428 4.6429 22.857-20.357-15z" fill="url(#s)" filter="url(#x)"/>
   <path d="m312.86 508.43-2.5-40.357 16.071-1.0714 1.7857 33.929-15.357 7.5z" fill="url(#r)"/>
   <path d="m303.93 397.66c-0.89717 20.21-2.8927 43.48 1.0714 69.387 3.057 0.7247 4.5374 0.0889 8.3517 1.6539-5.7218-16.443-7.215-47.55-9.4231-71.041z" fill="url(#q)"/>
   <path transform="matrix(.93945 -.1018 .104 .91959 -31.713 68.693)" d="m330.32 469.5c0 3.6263-4.0704 6.566-9.0914 6.566s-9.0914-2.9397-9.0914-6.566 4.0704-6.566 9.0914-6.566c4.9649 0 9.0116 2.8767 9.0902 6.462" fill="#9db174"/>
   <path transform="matrix(.85272 -.09081 .0944 .82033 .4558 111.56)" d="m330.32 469.5c0 3.6263-4.0704 6.566-9.0914 6.566s-9.0914-2.9397-9.0914-6.566 4.0704-6.566 9.0914-6.566c4.9649 0 9.0116 2.8767 9.0902 6.462" fill="#89945a"/>
   <path transform="matrix(.62351 -.08311 .08732 .59347 76.126 215.48)" d="m330.32 469.5c0 3.6263-4.0704 6.566-9.0914 6.566s-9.0914-2.9397-9.0914-6.566 4.0704-6.566 9.0914-6.566c4.8938 0 8.9096 2.7978 9.0855 6.33" fill="url(#j)" filter="url(#ae)"/>
   <path transform="matrix(.39987 -.04366 .05546 .31479 162.74 333.59)" d="m330.32 469.5c0 3.6263-4.0704 6.566-9.0914 6.566s-9.0914-2.9397-9.0914-6.566 4.0704-6.566 9.0914-6.566c4.5726 0 8.4337 2.4528 9.0171 5.7282" fill="url(#i)"/>
   <path d="m344.36 401.75c-7.1186 33.565-22.721 73.095-9.9288 92.663-4.185-7.5641-7.4074-16.028-6.9497-27.933 4.9502-27.935 11.006-45.468 16.878-64.731z" fill="url(#p)"/>
   <path d="m240.18 442c25.933 24.275 46.265 31.211 70.276 59.827-6.8138-2.2266-5.6353-5.3907-17.532-14.821-4.6453-3.2527-40.054-31.37-52.743-45.005z" fill="url(#o)"/>
   <path d="m246.07 521.29c20.976-8.4982 44.393-21.871 59.643-18.929-5.7595-0.78332-11.944-0.97912-19.752 1.0714-17.631 6.6185-28.171 12.147-39.891 17.857z" fill="url(#n)"/>
   <path d="m360 432.54c-8.3282 16.293-16.07 32.977-25.714 48.393-0.56113 3.6094-0.23387 2.9063-1.25 3.7857l-0.17858 2.6428 2.1429 7.5-2.8571-12.857-2.5-7.5-1.7857-3.9286-0.71428-6.7857-1.4286 6.4286-0.35715 6.7857-1.0714 7.8571-4.6428 8.2143-2.8572 8.5714-1.4286 4.6428c-0.207-6.3737-6.8324-7.5621-12.143-7.8571l-3.5714 1.4286-0.35715 2.5-0.35714 0.71429-6.4286 0.35714c-2.826-0.34986-10.111 1.9743-16.25 4.4643l-11.964 5.1786-24.643 13.214 29.107-13.393 13.393-5.5357c7.381-1.8102 14.762-4.0092 22.143-2.1429l8.2143 3.5714 5-0.71428c6.7268 0.23938 10.705-5.019 15.714-8.2143l0.71428-11.071 4.4643-11.429c8.7793-14.94 14.516-29.881 21.607-44.821z" fill="url(#m)"/>
   <path d="m238.75 523.53c23.991-10.679 50.772-27.484 68.214-23.787-6.5872-0.98436-13.66-1.2304-22.59 1.3464-20.165 8.3172-32.22 15.265-45.624 22.44z" fill="url(#l)"/>
  </g>
  <path transform="matrix(1.4585 -.63656 .45656 1.3024 -57.037 202.23)" d="m383.35 443.49c0 8.2289-6.6708 14.9-14.9 14.9s-14.9-6.6708-14.9-14.9 6.6708-14.9 14.9-14.9c8.0205 0 14.602 6.3489 14.89 14.364" fill="#fff" filter="url(#y)" opacity=".89274"/>
 </g>
</svg>
