<?xml version="1.0" encoding="UTF-8"?>
<svg version="1.1" viewBox="0 0 500 500" xmlns="http://www.w3.org/2000/svg">
 <g transform="translate(-125.85 .94533)">
  <path d="m393.08 103.5c-112.43 0-126.37 123.36-126.37 123.36l221.04 164.08 17.098-10.104v-155.09c0-67.729-49.855-122.25-111.77-122.25z" color="#000000" fill="#3d3d3d"/>
  <path d="m375.98 108.17c-61.914 0-111.72 54.517-111.72 122.25v160.53h223.49v-160.53c0-67.729-49.855-122.25-111.77-122.25z" color="#000000" fill="#4c4c4c"/>
  <g transform="translate(2.1141 32.544)" fill="none" stroke="#393939" stroke-width="5">
   <path d="m375.63 127.4 0.27478 112.66"/>
   <path d="m408.88 167.24-64.849 1.0991"/>
   <path d="m342.38 165.04 65.398 4.6713"/>
   <path d="m378.92 128.22-4.9461 111.29"/>
   <path d="m379.47 238.13-6.0452-109.09"/>
  </g>
  <path d="m496.09 387.27c-4.1228 1.1458-6.1933 3.4154-10.94 2.711-4.7469-0.70441-17.111-26.772-27.794-32.493s-20.466-9.2564-20.466-9.2564 21.797 3.7675 27.224 8.3028c5.427 4.5354 19.315 22.479 20.563 26.179 1.2483 3.7005 1.9748 5.1286 1.9748 5.1286s-7.7299-41.485-14.837-54.207-10.147-16.41-10.147-16.41 9.1276 3.2871 14.4 15.832c5.2723 12.545 14.132 46.794 14.259 49.954 0.12749 3.1604 1.2048 3.5112 1.2048 3.5112s-9.0961-43.963-10.481-55.207c-1.3854-11.245-1.5379-17.988-1.5379-17.988s8.2972 29.195 9.4247 36.711c1.1274 7.516 5.6401 34.988 5.6401 34.988s0.87007-35.286-4.0729-42.923c-4.9429-7.6368-11.528-18.086-15.31-22.401-3.7816-4.3151-6.2685-7.3325-6.2685-7.3325s18.991 12.386 21.404 16.816c2.4125 4.43 10.952 38.154 9.8101 43.6-1.1421 5.4454-1.921 11.605-1.921 11.605s11.624-40.546 14.123-47.898c2.4987-7.3517 9.0921-16.84 13.668-19.485 4.5759-2.6454 6.8049-3.3564 6.8049-3.3564s-9.641 25.737-11.652 39.556c-2.0108 13.818-14.642 30.872-25.073 34.065z" fill="#66874b"/>
  <path d="m497.11 390.3s15.937-29.951 27.203-31.6c11.266-1.6487 11.816-1.6487 11.816-1.6487s-17.037-2.1983-25.28 2.7478-15.388 16.762-15.388 16.762 2.1983-39.019 4.6713-47.812 5.2209-17.037 5.2209-17.037-8.5182 10.442-10.442 17.861c-1.9235 7.4191-4.1217 41.767-4.3965 45.889s0.27478 8.793 0.27478 8.793-14.014-33.798-21.983-41.492-16.212-11.541-16.212-11.541 26.104 46.438 28.028 52.758c1.9235 6.32 5.7704 7.6939 16.487 6.32z" fill="#729754"/>
  <path d="m261.14 392.55s-25.259-37.5-26.813-39.443c-1.5544-1.943-4.8575-5.0518-4.8575-5.0518s21.956 15.544 26.036 24.87c4.0803 9.3264 8.7435 16.127 8.7435 16.127s3.4974-29.339-1.7487-37.306c-5.2461-7.9663-7.9663-11.075-7.9663-11.075s10.492 2.1373 13.018 10.687c2.5259 8.5492-0.97151 38.083-0.97151 38.083s20.984-8.9378 25.065-13.212 6.6062-5.4404 6.6062-5.4404-17.293 19.819-24.87 20.984-12.241 0.7772-12.241 0.7772z" fill="#4a6136"/>
  <path d="m271.21 391.19s-5.2209-36.546-12.09-45.614-9.8922-10.717-9.8922-10.717 16.762 40.118 17.311 47.263c0.54957 7.1443 1.0991 10.717 4.6713 9.0678z" fill="#66874b"/>
  <path d="m272.99 393.54s10.438-20.809 18.886-22.045c8.4473-1.2362 10.371-2.8849 10.371-2.8849s-14.835-3.2969-21.016 0.41162c-6.1809 3.7086-9.4768 14.217-9.4768 14.217s3.4343-18.54 5.2886-25.133 1.4415-11.263 1.4415-11.263-2.54 4.6692-3.9822 10.232-6.2505 22.249-6.4565 25.339c-0.20603 3.0905 0.20603 6.593 0.20603 6.593s-5.1361-12.418-10.987-27.538c-2.9972-7.7457-7.2097-8.7907-7.2097-8.7907s9.1312 31.384 10.573 36.123c1.4422 4.7387 4.3267 5.7689 12.362 4.7387z" fill="#729754"/>
 </g>
</svg>
