<?xml version="1.0" encoding="UTF-8"?>
<svg viewBox="0 0 625 625" xmlns="http://www.w3.org/2000/svg">
 <path transform="matrix(-1.3064 .22328 .21923 1.2827 588.42 -100.24)" d="m72.188 121.25a37.813 41.25 0 1 0 -75.625 0 37.813 41.25 0 1 0 75.625 0z" fill="#cbe6f2" fill-rule="evenodd" stroke="#003f7f" stroke-opacity=".5" stroke-width="2.4133"/>
 <path transform="matrix(1.3227 .082817 -.081316 1.2988 20.581 -92.176)" d="m72.188 121.25a37.813 41.25 0 1 0 -75.625 0 37.813 41.25 0 1 0 75.625 0z" fill="#cbe6f2" fill-rule="evenodd" stroke="#003f7f" stroke-opacity=".5" stroke-width="2.4133"/>
 <path d="m113.98 51.01c-17.173 3.977-43.948 11.552-51.823 1.3828-5.6182-7.8594 19.416-13.901 1.239-20.972-19.008-7.0043-42.482 6.4568-42.704 35.786-0.17204 26.497 20.173 53.6 80.028 38.554l13.259-54.75z" fill="#cbe6f2" fill-rule="evenodd" stroke="#003f7f" stroke-opacity=".5" stroke-width="3.1693"/>
 <path d="m54.334 38.327c-34.228-7.4314-39.981 64.511 16.657 29.179-13.731-3.6757-32.528-2.021-16.657-29.179z" fill="#e5f2f8" fill-rule="evenodd"/>
 <path d="m94.208 57.337c40.325 148.6 7.3849 234.75-2.0601 292.94-4.5358 27.942-17.535 128.73-20.037 156.79 39.632-0.3361 72.436 108.66 253.24 90.901 160.22-82.008 176.52-174.96 207.43-371.47 7.401-46.1 40.102-79.149 0.8113-168.04l-439.38-1.1241z" fill="#000d0b" fill-rule="evenodd" stroke="#003f3f" stroke-opacity=".5" stroke-width="6.4066"/>
 <path d="m481.73 56.095c24.103 4.2224 58.824 11.953 58.148-0.89023-2.1487-40.142 63.761-35.124 64.189 6.8624-0.1981 31.85-38.555 66.432-134.13 48.597l11.796-54.569z" fill="#cbe6f2" fill-rule="evenodd" stroke="#003f7f" stroke-opacity=".5" stroke-width="3.1693"/>
 <path d="m558.61 37.114c20.798-5.9755 33.495 5.3139 36.183 17.285 7.2667 33.047-78.752 35.331-59.299 22.241 31.375-20.647 3.1409-33.985 23.116-39.526z" fill="#e5f2f8" fill-rule="evenodd"/>
 <path d="m141.44 299.83c30.053 55.63 9.4193 210.09-11.974 251.59 92.893 85.278 245.27 72.236 362.77 53.384 1.2091-19.33-4.4589-41.87 10.654-68.716 37.282-68.216-3.0881-105.07 15.31-177.54 15.826-68.565 18.114-121.98 10.894-152.58-21.213-88.441-15.342-144.76 5.9032-144.61-8.1006-28.338-98.877-5.6217-124.66-11.614-97.206-22.32-181.95-57.456-220.58-13.234-17.38 20.571-90.988 4.8888-104.7 21.894-21.327 26.445-9.0304 117.75 56.385 241.43z" fill="#001900" fill-rule="evenodd" stroke="#007f00" stroke-opacity=".4924" stroke-width="6.4066"/>
 <path d="m402.06 523.84c39.892-8.6067 70.795 45.832 83.824 24.905 31.838-52.291-49.837-64.764-83.824-24.905z" fill-rule="evenodd"/>
 <path d="m165.63 96.345c91.215 88.016 169.02 28.969 240.61 3.3544-110.97-17.175-144.18 35.162-240.61-3.3544z" fill-rule="evenodd"/>
 <path d="m108.69 69.412c57.04 13.166 160.6 28.641 214.69 2.8754-67.151-0.87847-112.98-17.7-98.604-49.028-18.454-3.4542-24.979 28.297-61.357 29.887-86.869 2.2721-75.659 11.473-54.729 16.265z" fill-rule="evenodd"/>
 <g transform="matrix(1.2652 .079216 -.079216 1.2652 -99.486 -79.803)" fill="#007f00" fill-opacity=".5" fill-rule="evenodd">
  <path d="m245.5 75.364c-4.7976 4.2776-1.562 7.3219-22.339 20.399-35.629 21.027 42.872 105.47 55.912 214.35 4.064 34.187 25.528 160.24-0.591 201.04-2.7986 4.6043 15.983 7.0573 18.787 2.8209 20.43-29.625-5.9129-180.95-9.5724-222.94-8.0458-83.675-70.276-170.14-49.29-189.38 14.773-12.786 18.334-37.132 7.094-26.295z"/>
  <path d="m197.61 98.21c-13.239 37.652 45.344 130.75 55.912 202.12 5.1001 34.051 29.649 161.05 3.5298 201.85-2.7987 4.6041 14.335 10.319 17.138 6.0826 20.43-29.625-0.3924-166.41-5.4516-208.26-8.0458-65.736-80.582-181.62-55.883-203.24 7.7715-7.4292-12.452-4.1563-15.245 1.4435z"/>
  <path d="m156.4 108c-13.239 37.652 33.624 129.85 53.439 165.43 25.898 44.646 35.418 165.94 9.2989 206.74-2.7986 4.6042 5.9815 12.985 12.193 4.4517 21.748-28.742 16.499-154.58-17.814-221.31-55.562-110.71-49.95-128.32-49.29-161.65 0.2583-5.8031-5.0342 0.7363-7.8273 6.3361z"/>
  <path d="m172.88 102.29c-13.239 37.652 41.213 125.4 61.681 199.68 12.8 49.443 27.176 148.82 1.0573 189.62-2.7986 4.6042 13.511 12.765 16.314 8.5289 20.43-29.625 4.2563-156.62-7.0999-206.63-13.021-59.206-69.868-146.56-56.708-192.64 3.1079-10.24-12.452-4.1563-15.245 1.4435z"/>
  <path d="m269.4 64.764c-8.5141 2.4797-3.512 25.861-10.8 32.631-39.575 35.178 32.981 75.302 38.604 200.49 1.3184 34.398 31.297 178.18 5.1782 218.98-2.7987 4.6042 22.112 8.0853 24.556 3.6364 5.5951-11.686-23.968-196.33-21.935-238.43 5.1409-89.383-53.091-157.65-28.686-179.59 11.892-11.506 2.7042-40.273-6.9168-37.711z"/>
  <path d="m296.6 63.948c-13.656-4.2176 2.8518 12.958-3.3829 31-18.693 54.911 18.316 28.753 22.121 211.09 1.0194 49.074 23.88 165.13 19.189 214.08-0.423 5.3565 22.824 6.2003 22.083 1.1902-24.899-173.96-27.052-172.19-29.352-214.78-8.8756-182.07 0.8227-139.01-12.203-210.58-2.9742-17.446-4.403-27.409-18.455-32.003z"/>
  <path d="m323.79 70.472c-13.656-4.2177 1.9138 11.124 4.0344 32.631 6.8102 60.709 6.7778 20.598 6.4617 202.94-0.0847 49.084 30.473 165.94 29.079 214.08-0.0635 5.3724 25.105 3.6217 23.732-1.2561-37.261-131.55-40.9-149.36-43.363-191.95-4.7548-96.454 11.893-128.31 6.753-202.42-0.5125-19.274-12.645-49.425-26.697-54.02z"/>
  <path d="m347.72 72.371c-9.108-0.68007 8.8155 14.784 10.936 36.291 6.8102 60.709 1.6183 59.104-6.1725 193.34-3.1395 54.597 12.28 110.35 40.197 218.13 1.3532 5.1996 18.037 2.6088 16.656-2.2669-35.745-128.02-47.446-185.72-45.385-225.31 3.3596-64.015 17.452-94.954 12.312-169.07-0.5127-19.274-13.807-49.945-28.545-51.11z"/>
  <path d="m369.44 79.227c27.806 45.884 13.896 91.641 2.2454 223.78-6.3829 73.105 28.314 107.25 42.218 213.07 0.7046 5.3265 15.415 4.2561 14.635-0.7508-8.6795-54.976-9.4871-70.915-23.69-106.79-9.6926-22.678-31.086-48.07-18.789-127.71 16.22-100.41 24.891-104.6 6.8074-175.54-6.6517-26.356-26.654-31.53-23.428-26.066z"/>
  <path d="m395.88 89.948c19.666 55.03 19.488 102.91-1.3282 208.06-16.353 78.997 27.599 89.382 41.504 213.79 0.5664 5.343 8.5076 5.737 8.2027 0.6787-4.3912-72.129-6.5614-93.611-22.26-118.94-29.673-48.314-7.8998-95.303 4.7961-174.88 6.9285-38.946-11.476-67.457-17.492-129.08-0.9563-8.7552-16.989-9.9788-13.422 0.37785z"/>
  <path d="m418.04 89.948c-5.8928 37.761 36.205 67.563 12.251 168.03-13.035 55.814-16.741 66.928-13.535 92.096 7.9657 63.251 36.651 27.326 32.168 160.28-0.2098 5.3686 12.971 3.5967 13.206-1.4654 3.4705-74.273 5.4693-101.42-12.254-125.37-23.24-30.446-9.3291-87.442 3.3668-167.02 6.9284-38.946-27.66-85.67-18.922-129.08 1.0052-5.0758-15.676-5.9366-16.281 2.522z"/>
  <path d="m443.77 86.375c-11.61 54.199 29.467 77.437 9.3924 178.75-13.035 69.394-0.8739 101.53 12.909 122.83 12.254 18.225 14.496 24.468 0.0072 120.26-0.7977 5.3133 6.8885 2.8519 7.488-2.1799 8.4734-77.132 22.252-93.964 9.9012-121.08-23.24-52.602-17.88-67.835-8.0683-142.72 7.2225-55.646-29.804-85.67-11.06-161.96 1.2788-5.0136-18.77-2.1917-20.569 6.0956z"/>
  <path d="m470.21 81.372c-16.613 82.073 23.67 89.047 10.822 197.34-6.6759 55.895 1.2701 85.803 15.053 107.11 12.254 18.225-14.807 76.641-17.146 119.55-0.2876 5.3651 10.05 2.8788 10.347-2.18 4.9-82.849 25.79-58.84 13.475-128.23-7.2723-36.95-6.095-48.465-1.6361-121.27 4.0804-67.343-30.519-105.68-15.348-176.25 1.077-5.0608-13.814-4.346-15.566 3.9514z"/>
 </g>
</svg>
