<?xml version="1.0" encoding="UTF-8"?>
<svg viewBox="0 0 350 310" xmlns="http://www.w3.org/2000/svg" xmlns:xlink="http://www.w3.org/1999/xlink">
 <defs>
  <filter id="r">
   <feGaussianBlur stdDeviation="3.02671"/>
  </filter>
  <filter id="p">
   <feGaussianBlur stdDeviation="1.74296"/>
  </filter>
  <filter id="o">
   <feGaussianBlur stdDeviation="4.54012"/>
  </filter>
  <filter id="q" x="-.20843" y="-.19976" width="1.4169" height="1.3995">
   <feGaussianBlur stdDeviation="8.35851"/>
  </filter>
  <linearGradient id="b">
   <stop offset="0"/>
   <stop stop-opacity="0" offset="1"/>
  </linearGradient>
  <linearGradient id="c">
   <stop stop-color="#7fa347" offset="0"/>
   <stop stop-color="#7fa347" stop-opacity="0" offset="1"/>
  </linearGradient>
  <linearGradient id="l" x1="-62.509" x2="-193.13" y1="60.141" y2="359.12" gradientTransform="matrix(0 -.8568 .8568 0 -9.8166 57.069)" gradientUnits="userSpaceOnUse">
   <stop stop-color="#75ae49" offset="0"/>
   <stop stop-color="#7bac55" offset=".18734"/>
   <stop stop-color="#668935" offset=".50249"/>
   <stop stop-color="#8aaf45" offset=".80548"/>
   <stop stop-color="#3c6c3a" offset="1"/>
  </linearGradient>
  <linearGradient id="k" x1="81.42" x2="184.55" y1="308.08" y2="75.708" gradientTransform="matrix(0 -.8568 .8568 0 -10.64 304.88)" gradientUnits="userSpaceOnUse">
   <stop stop-color="#121e18" offset="0"/>
   <stop stop-color="#273419" offset=".5"/>
   <stop stop-color="#283329" offset="1"/>
  </linearGradient>
  <linearGradient id="h" x1="190.47" x2="212.07" y1="187.16" y2="279.73" gradientUnits="userSpaceOnUse">
   <stop stop-color="#d82f2d" offset="0"/>
   <stop stop-color="#d82f2d" stop-opacity="0" offset="1"/>
  </linearGradient>
  <linearGradient id="a" x1="-40.837" x2="-38.435" gradientUnits="userSpaceOnUse">
   <stop stop-color="#520" offset="0"/>
   <stop stop-color="#520" stop-opacity="0" offset="1"/>
  </linearGradient>
  <linearGradient id="g" x1="250.16" x2="293.94" y1="225.12" y2="212.12" gradientUnits="userSpaceOnUse">
   <stop stop-color="#fff" stop-opacity="0" offset="0"/>
   <stop stop-color="#fff" stop-opacity=".17085" offset=".5"/>
   <stop stop-color="#fff" stop-opacity="0" offset="1"/>
  </linearGradient>
  <linearGradient id="f" x1="200.24" x2="197.99" y1="200.42" y2="337.23" gradientUnits="userSpaceOnUse">
   <stop stop-color="#cde09e" offset="0"/>
   <stop stop-color="#cde09e" stop-opacity="0" offset="1"/>
  </linearGradient>
  <linearGradient id="n" x1="152.46" x2="119.31" y1="254.04" y2="309.77" gradientUnits="userSpaceOnUse" xlink:href="#b"/>
  <linearGradient id="m" x1="154.22" x2="121.07" y1="247.31" y2="303.04" gradientUnits="userSpaceOnUse" xlink:href="#b"/>
  <linearGradient id="j" x1="188.09" x2="195.54" y1="15.498" y2="21.744" gradientUnits="userSpaceOnUse" xlink:href="#c"/>
  <linearGradient id="i" x1="246.98" x2="189.31" y1="47.251" y2="45.569" gradientUnits="userSpaceOnUse" xlink:href="#c"/>
  <radialGradient id="d" cx="196.03" cy="61.99" r="14.424" gradientTransform="matrix(1.9706 6.3917e-8 -3.9268e-8 1.2106 -190.26 -12.915)" gradientUnits="userSpaceOnUse">
   <stop stop-color="#b2c689" offset="0"/>
   <stop stop-color="#decd87" offset="1"/>
  </radialGradient>
  <radialGradient id="e" cx="555.52" cy="173.93" r="164.59" gradientTransform="matrix(1.0608 0 0 .88142 -414.24 16.112)" gradientUnits="userSpaceOnUse" xlink:href="#b"/>
 </defs>
 <g transform="matrix(.9972 0 0 .9972 2.1982 -19.108)">
  <path d="m155.98 38.063c-1.0582 0.0042-2.0974 0.02975-3.1562 0.0625-47.293 0.59131-91.995 30.892-110.5 74.219-2.836 6.6201-5.2601 13.433-6.8438 20.469-1.2213-5.329-7.7438-6.6435-11.656-3.2812-6.8902 4.5566-12.114 11.876-15.125 19.312-0.25622 4.0217 6.208 7.1088 7.8438 2.625 3.9603-3.3834 7.1895-8.2084 11.469-10.844 1.6686 2.4382 6.7471 2.6939 4.875 6.3438-0.36484 3.9846-1.1869 7.3739-0.75 10.125-2.3294 46.656 24.584 92.646 65.875 113.97 5.0339 2.822 10.362 5.0176 15.812 6.9062 12.38 9.6566 27.296 16.809 44.375 22 16.475 8.2571 34.77 12.894 53.281 13.594 24.251 2.189 49.637-0.77941 70.781-13.406 21.608-11.707 38.527-31.107 47.312-54 8.7087-20.536 9.5376-43.468 7.1562-65.531-8.3833 3.9709-17.325 9.1298-27.25 9.6562-7.8344 1.4032-16.057-0.23098-23.562 2.9375-3.0866 0.70221-6.1347 1.1643-9.2812 1.2812 9.8793-42.066-1.9969-88.885-32.719-119.5-22.816-23.529-55.135-37.068-87.938-36.938z" fill="url(#n)" filter="url(#o)" opacity=".5"/>
  <path d="m95.108 249.6c23.122-0.72018 142.71-4.6932 142.71-4.6932l30.748 53.809-47.563 5.1283c-57.151-4.5585-101.69-18.956-125.89-54.244z" fill="url(#m)" filter="url(#p)"/>
  <path d="m154.57 31.394c-47.293 0.59131-91.995 30.892-110.5 74.219-2.836 6.6201-5.2601 13.433-6.8438 20.469-1.2213-5.329-7.7438-6.6435-11.656-3.2812-6.8902 4.5566-12.114 11.876-15.125 19.312-0.25622 4.0217 6.2124 7.1056 7.8482 2.6218 3.9603-3.3834 7.1851-8.2052 11.464-10.841 1.6686 2.4382 6.7471 2.6939 4.875 6.3438-0.36484 3.9846-1.1869 7.3739-0.75 10.125-2.3294 46.656 24.584 92.646 65.875 113.97 11.153 6.2523 23.792 9.5348 35.864 12.857 21.591 18.342 49.327 28.574 77.605 29.643 24.251 2.189 49.643-0.76836 70.787-13.395 21.608-11.707 38.522-31.118 47.307-54.011 8.7087-20.536 9.5376-43.468 7.1562-65.531-8.3833 3.9709-17.325 9.1298-27.25 9.6562-7.8344 1.4032-16.057-0.23098-23.562 2.9375-3.0866 0.70221-6.1347 1.1643-9.2812 1.2812 9.8793-42.066-1.9803-88.885-32.702-119.5-23.552-24.288-57.227-37.922-91.11-36.874z" fill="url(#e)" filter="url(#r)"/>
  <path d="m156.39 33.783c67.356 0 120.92 54.481 121.96 121.67 1.1643 75.346-54.603 121.67-121.96 121.67s-121.96-54.473-121.96-121.67 54.603-121.67 121.96-121.67z" fill="url(#l)"/>
  <path d="m35.011 143.45c4.149-5.7938 1.8524-9.2154 0.61582-5.0337-0.23407 1.666-0.45011 3.3467-0.61582 5.0337zm3.3201 10.121c0.67693 14.866 4.2141 29.324 11.299 42.438 5.5941 14.184 11.236 27.668 21.42 39.091 11.19 10.46 22.871 21.438 37.057 27.846 14.216 6.3736 29.227 12.3 45.143 11.781 2.4128 1.4244 5.0058 2.0843 7.6844 2.3026 3.2306-0.10068 6.419-0.3023 9.5854-0.61582 4.3189-0.69439 8.666-1.6732 12.718-1.8475 0.0258-5e-3 0.0545 5e-3 0.0803 0 1.8124-0.35422 3.5996-0.77906 5.3818-1.2049 2.9896-1.217 3.5208-2.7525-3.454-1.7136-17.732-0.40053-36.548 3.1559-53.122-4.8998-4.4823-1.1068-2.3528-7.6025-9.7996-5.7834-13.059 0.90115-22.552-8.6206-32.103-15.878-12.993-7.8192-24.22-18.783-31.139-32.424-5.3023-10.999-8.4536-23.339-13.387-34.272-0.31279-4.3357-2.7814-7.3331-3.3201-11.674-3.2257-3.3362-1.9997-22.359-4.043-13.146zm4.5517-34.111c6.4298-5.6328 8.0447-14.695 11.915-22.518 1.7733-5.9834 5.057-11.069 9.5319-15.396 6.126-7.8459 13.413-14.518 21.206-20.67 4.924-3.386 8.4953-9.0445 14.753-9.8532 10.289-2.591 20.374-6.4625 30.791-8.2467 14.56-0.29334 29.14-1.6395 43.67-1.2316 12.276 1.6292 24.761 2.0548 36.735 5.4353-0.35286-0.18567-0.7164-0.35384-1.071-0.5355-0.34802-0.17366-0.69429-0.36511-1.0442-0.5355-0.0967-0.04824-0.1977-0.08593-0.29453-0.13387-12.951-6.2631-27.202-10.264-42.278-11.54l-0.24098-0.02673c-0.78006-0.06109-1.5482-0.11442-2.3294-0.16065s-1.5742-0.10248-2.3562-0.13387c-17.682-0.70978-35.538 2.3954-51.943 9.0232-0.28134 0.11575-0.57651 0.20352-0.8568 0.3213-0.0557 0.02296-0.10497 0.05723-0.16064 0.08028-13.649 5.7594-26.027 13.948-36.601 23.99-0.02262 0.02211-0.05775 0.03144-0.08028 0.05355l-0.26775 0.26775c-3.754 3.7734-7.4687 7.7452-10.924 11.942l-0.58905 0.7497c-4.0232 5.1073-7.643 10.534-10.817 16.252-3.2141 6.3003-5.4918 13.023-6.3189 20.215zm3.1327 37.967c3.7001 11.206 3.4065 23.792 8.4609 34.165 3.3185 5.3052 8.0881 10.59 10.442 16.199 8.8013 9.4811 22.305 13.073 30.256 23.749 9.6037 13.797 27.236 15.628 41.903 20.992 5.6127 3.549 30.294-1.338 18.796 9.5587-3.5278 3.7639 17.556 0.28569 23.16 0.77648 17.536-1.1924 34.993-4.2736 51.997-8.4609 1.4611-1.0383 2.9029-2.1081 4.3108-3.213 1.1599-1.3654-0.54149-1.42-5.4889 0.83003-10.391 0.0134-21.092 1.584-31.193 3.6414-9.458 2.8965-19.365 4.371-25.061-4.5517-11.26-4.4647-24.092-0.98549-35.209-6.7741-13.17-1.7308-19.229-13.305-32.21-15.449-8.0132-5.684-20.477-8.553-23.562-18.983-7.4286-8.1972-16.295-17.573-24.446-26.721-4.6736-8.0163-4.5714-19.489-12.156-25.758zm0.88357-15.101c5.1965 12.675 15.538-4.9844 24.981 2.2759 6.6067 5.0589 7.0112 13.943 17.671 14.458 8.9379 3.2262 28.755 5.7628 25.035 18.314 1.61 0.1749 3.1036 0.5735 4.4179 1.1513 8.8594-8.7991 12.74 14.855 22.143 5.8637 6.6095-2.8975 25.493 1.5626 27.23 8.809-5.822 9.6318 10.526-7.1052 15.529-0.40162 11.359-2.2145 2.3973 20.713 11.513 9.1838 6.2921-11.025 20.092-11.268 29.319-5.596 12.202 2.3352 24.911-3.3626 35.637 3.213 3.2083 2.0133 6.4396 3.7564 9.4516 5.1943 1.2559-3.1903 2.3819-6.4527 3.3736-9.8264-1.4551-1.1272-3.0592-2.3069-4.8195-3.5878-9.6402-1.4728-19.228-16.287-28.381-7.5238-12.095 5.6814-28.427-1.0684-29.881-12.825-12.83-0.53388-22.603 7.7858-32.906 12.076-9.2567-1.353-9.476-24.118-19.894-16.547-10.535 1.6897-12.863-18.869-20.429-7.0686-12.068-5.0807-27.01-4.9932-36.842-14.057-11.493 2.376-26.126-6.8884-39.172-7.1757-3.6497 2.497-12.645 1.4231-13.977 4.0698zm0.08028 6.8276s2.3578 4.5577 4.0966 6.3992c2.2772 2.4118 8.0593 5.8369 8.0593 5.8369 2.5749 10.206 8.1694 19.554 17.404 24.981 4.6159 10.743 19.903 14.167 26.106 21.902 11.335 0.0237 25.323 7.1397 25.436 17.136 9.4312 4.3572 19.872-2.6368 27.23 7.8986 4.408 5.2944 12.229 3.3625 13.736-3.3469 7.3204 12.665 27.482-8.6991 29.827 10.844 5.1399-14.292 22.349-9.7535 34.807-10.603 6.2209-0.94459 16.351-0.66477 24.017-2.6775 1.9799-2.8486 3.8462-5.8212 5.5692-8.8893-2.494-2.0368-6.9932-4.4896-16.922-3.0256-8.7501 11.221-26.72 0.30497-37.351 7.1221-5.7386-2.721-11.053-7.8875-16.574-6.9615-10.9-5.472-22.198 8.2182-33.977 1.1781-10.695-6.6854-21.565-10.479-33.683-12.343-5.6572-2.1033-11.482-6.733-13.414-11.754-3.1562-0.25922-5.8989-1.3953-7.738-3.0256-5.7641 1.8007-12.399-0.38903-16.975-6.8276-11.173-9.1336-8.495-22.613-17.805-29.185-5.021-3.5438-18.046-3.7753-18.046-3.7753zm1.7672-30.336c7.9562-12.501 17.179-24.744 30.095-32.424 7.7016-8.3867 19.446-11.582 28.837-15.958 7.4153-8.6746 20.616-3.396 26.721-1.901 9.8154-12.314 25.444-15.057 39.172-9.6658 12.244-1.9393 23.213 5.208 35.504 5.8369 11.955 1.8255 30.27 5.6915 40.082 12.879 0.31291 0.14714 0.53792 0.23278 0.80325 0.34807-2.5064-3.0352-5.1715-5.9519-7.9522-8.7286-1.0299-0.7091-1.9656-1.3201-2.5436-1.6065-13-6.8082-34.599-13.397-48.891-14.057-12.026-6.9777-23.477-2.0936-36.146-1.0978-12.99 2.9712-26.837 2.7915-38.556 9.88-6.1176 3.9175-16.098 0.87926-6.4795-4.7392 5.1022-3.0636 10.386-10.662 0.58905-4.873-11.497 4.0216-19.793 12.499-26.614 22.063-8.8488 13.147-23.579 21.581-30.122 36.441zm2.5168 9.7729c9.454 0.46231 18.547-3.8082 23.964 4.2304 11.188-0.81289 3.2122-22.981 16.011-11.942 8.1424 4.7256 13.384 15.282 24.071 8.809 6.8263-4.5007 11.206 9.9288 14.298-0.9639 7.2627-7.3286 18.829 5.7318 28.863 3.6146 9.0706 5.2292 21.566-4.8453 25.918 7.6844 13.156-5.4346 26.901 0.16563 37.324 6.1315 4.9343 12.302 11.647-5.5336 19.385 2.8917 7.8979 7.5905 27.073 8.7883 37.083 15.476 0.13875-2.9744 0.20813-6.0046 0.16065-9.0767-0.0578-3.743-0.29219-7.428-0.66937-11.085-9.193-5.239-30.512-6.4411-34.62-15.637-1.9037-9.287-19.051 5.2752-22.464-10.094-6.751 12.096-19.144-0.65631-28.114 1.5262-5.7144-10.329-8.7729-0.78308-11.272 2.1152-7.3764-11.146-18.092-7.3467-29.586-9.6925-11.864 2.7977-23.165-2.8661-34.245-2.7043-2.8994 5.5979-11.813 9.1399-15.021 1.6065-10.753 11.916-28.322-5.3358-39.627 8.0325-4.574 1.7971-9.6584 4.1013-11.46 9.0767zm5.8905-14.619c8.8629-7.0586 21.219-2.9674 29.64-10.951 10.293-4.997 21.046-10.436 33.281-8.7554 14.214 3.2773 20.78-14.738 35.022-8.6751 10.886 1.153 15.921 18.382 27.043 7.4702 9.5929-6.879 19.517 14.991 25.731-1.8207 2.4054-8.4314 8.3843-2.7929 13.12-0.16065 4.4806 3.4099 11.719 4.3804 13.066 10.603 1.5755 15.106 17.93-4.263 21.741 11.005 0.67724 5.3483 12.937 16.014 19.144 15.583-1.0452-4.4081-2.3064-8.7208-3.802-12.932-8.8135-10.779-22.577-19.335-31.996-28.14-12.417 1.1594-22.7-6.0889-33.014-12.263-8.2797 0.17745-20.119-9.1916-20.322 4.7124-8.3505 5.5153-18.385 8.3261-24.687-2.4633-11.262-11.002-20.542 10.921-33.201 10.415-10.576 3.5171-21.145-0.44874-31.675 5.3818-9.9887 6.3878-21.396 10.601-32.692 13.682-2.9754 1.4745-5.4481 4.087-6.3992 7.3096z" fill="url(#k)"/>
  <g transform="matrix(0 -.8568 .8568 0 -10.64 304.88)">
   <path d="m181.61 61.645c0.0985 2.4656 2.3179 4.5579 4.3028 6.0239 2.189 1.6167 5.0936 1.9688 7.745 2.5817 4.2293 0.97757 8.9539 3.5114 12.908 1.7211 1.8844-0.85312 2.8428-3.1836 3.4422-5.1633 0.41563-1.3727 0.75404-3.0827 0-4.3028-2.3605-3.8194-7.6479-5.1292-12.048-6.0239-4.5064-0.91637-9.8398-1.5289-13.769 0.86056-1.4291 0.86911-2.6484 2.6315-2.5817 4.3028z" fill="url(#d)"/>
   <g transform="matrix(.71425 0 0 .71425 56.729 18.573)">
    <path d="m189.76 60.27s2.6958 3.3301 4.5924 4.132c2.219 0.93829 7.2113 0.48679 7.2113 0.48679s2.1084-10.594 5.1321-14.883c2.5246-3.5811 9.2664-3.9449 10.264-8.2113 1.2895-5.5146-3.5916-11.019-7.1849-15.396-6.0569-7.3786-23.094-16.936-23.094-16.936s-2.266-0.02668-3.1465 0.57442c-1.3088 0.89344-2.4987 4.0444-2.4987 4.0444s9.5159 8.9753 13.857 13.857c2.7518 3.0946 7.5319 5.6131 7.6981 9.7509 0.099 2.4652-2.841 4.04-4.1056 6.1585-3.1772 5.3225-8.7245 16.423-8.7245 16.423z" fill="#a5bc6e"/>
    <path d="m186.31 9.4688c-0.67858 0.02067-2.1208 0.11167-2.7812 0.5625-1.3088 0.89344-2.5 4.0625-2.5 4.0625s5.8242 5.4596 10.438 10.188l10.125-5.1875c-6.9666-5.1748-14.906-9.625-14.906-9.625s-0.14881-0.00689-0.375 0z" fill="url(#j)"/>
    <path d="m202.69 19.906c1.515 1.8638 6.482 8.0616 8.7188 11.938 1.3979 2.4224 3.7968 4.9276 3.3438 7.6875-0.38564 2.3493-2.9714 3.7719-4.8125 5.2812-2.5275 2.0721-6.4917 2.3824-8.4062 5.0312-1.9231 2.6608-1.1832 6.4895-2.1562 9.625-0.51864 1.6712-1.4442 3.8914-2.125 5.4688 2.1272 0.14028 4.3125-0.0625 4.3125-0.0625s2.1014-10.586 5.125-14.875c2.5246-3.5811 9.2836-3.9524 10.281-8.2188 1.2895-5.5146-3.5942-10.998-7.1875-15.375-1.7035-2.0752-4.2764-4.3412-7.0938-6.5z" fill="url(#i)"/>
   </g>
  </g>
  <path d="m103.14 206.23c2.2175 7.6527 3.976 15.53 6.4773 23.044l30.57 40.76 48.985 19.759 81.093-2.4698 48.162-46.104 12.349-60.099c-11.962 3.8852-24.477 6.2157-37.099 5.66-8.7016 3.2508-18.034 4.344-27.22 2.7786-9.1664 0.63592-18.176 2.2542-27.22 3.7786-11.932 0.37451-23.95 0.70986-35.642 3.4075-10.038 1.7012-20.276 0.72582-30.34 2.3279-9.1948 0.81315-18.344 1.8633-27.386 3.7533-9.3458 0.80725-18.747 0.52822-28.057 1.9063l-14.673 1.4978z" fill="#bd1c17"/>
  <path d="m322.06 183.62c-9.2675 2.3243-18.789 3.5783-28.375 3.1562-8.7016 3.2508-18.033 4.3466-27.219 2.7812-9.1664 0.63592-18.176 2.2569-27.219 3.7812-11.932 0.37451-23.964 0.70859-35.656 3.4062-10.038 1.7012-20.28 0.71038-30.344 2.3125-9.1948 0.81315-18.334 1.86-27.375 3.75-9.012 0.77842-18.079 0.56311-27.062 1.7812 1.2737 1.37 3.681 3.9922 5.0625 6 6.4542 9.38 7.8153 22.421 16.312 30 13.137 11.717 31.64 16.689 48.969 19.781 26.626 4.751 56.15 7.9875 81.094-2.4688 20.498-8.5927 38.262-26.238 48.188-46.125 3.8733-7.7609 3.7408-23.589 3.625-28.156z" fill="url(#h)"/>
  <path transform="translate(202.26 45.642)" d="m-38.435 175a1.2011 5.0446 0 1 1 -2.4022 0 1.2011 5.0446 0 1 1 2.4022 0z" fill="url(#a)"/>
  <path transform="translate(205.26 61.642)" d="m-38.435 175a1.2011 5.0446 0 1 1 -2.4022 0 1.2011 5.0446 0 1 1 2.4022 0z" fill="url(#a)"/>
  <path transform="translate(275.26 61.642)" d="m-38.435 175a1.2011 5.0446 0 1 1 -2.4022 0 1.2011 5.0446 0 1 1 2.4022 0z" fill="url(#a)"/>
  <path transform="translate(265.26 46.642)" d="m-38.435 175a1.2011 5.0446 0 1 1 -2.4022 0 1.2011 5.0446 0 1 1 2.4022 0z" fill="url(#a)"/>
  <path transform="translate(313.26 46.642)" d="m-38.435 175a1.2011 5.0446 0 1 1 -2.4022 0 1.2011 5.0446 0 1 1 2.4022 0z" fill="url(#a)"/>
  <path transform="translate(327.26 55.642)" d="m-38.435 175a1.2011 5.0446 0 1 1 -2.4022 0 1.2011 5.0446 0 1 1 2.4022 0z" fill="url(#a)"/>
  <path transform="translate(297.26 62.642)" d="m-38.435 175a1.2011 5.0446 0 1 1 -2.4022 0 1.2011 5.0446 0 1 1 2.4022 0z" fill="url(#a)"/>
  <path transform="translate(295.26 34.642)" d="m-38.435 175a1.2011 5.0446 0 1 1 -2.4022 0 1.2011 5.0446 0 1 1 2.4022 0z" fill="url(#a)"/>
  <path transform="translate(247.26 34.642)" d="m-38.435 175a1.2011 5.0446 0 1 1 -2.4022 0 1.2011 5.0446 0 1 1 2.4022 0z" fill="url(#a)"/>
  <path transform="translate(251.26 62.642)" d="m-38.435 175a1.2011 5.0446 0 1 1 -2.4022 0 1.2011 5.0446 0 1 1 2.4022 0z" fill="url(#a)"/>
  <path transform="translate(237.26 67.642)" d="m-38.435 175a1.2011 5.0446 0 1 1 -2.4022 0 1.2011 5.0446 0 1 1 2.4022 0z" fill="url(#a)"/>
  <path transform="translate(226.26 45.642)" d="m-38.435 175a1.2011 5.0446 0 1 1 -2.4022 0 1.2011 5.0446 0 1 1 2.4022 0z" fill="url(#a)"/>
  <path transform="translate(183.26 42.642)" d="m-38.435 175a1.2011 5.0446 0 1 1 -2.4022 0 1.2011 5.0446 0 1 1 2.4022 0z" fill="url(#a)"/>
  <path transform="translate(324.26 30.642)" d="m-38.435 175a1.2011 5.0446 0 1 1 -2.4022 0 1.2011 5.0446 0 1 1 2.4022 0z" fill="url(#a)"/>
  <path transform="translate(339.26 29.642)" d="m-38.435 175a1.2011 5.0446 0 1 1 -2.4022 0 1.2011 5.0446 0 1 1 2.4022 0z" fill="url(#a)"/>
  <path d="m266.47 189.56c-8.1002 0.56195-16.076 1.8965-24.062 3.25l-17.25 95.875 45.094-1.375 43.688-41.781-31.344-55.844c-5.3235 0.80604-10.746 0.79166-16.125-0.125z" fill="url(#g)"/>
  <path d="m333.12 178.55c-2.9434 2.6667-8.6836 2.6211-8.3538 7.256-0.086 15.993-0.0916 33.706-10.647 46.937-13.936 17.841-29.85 37.805-51.551 46.245-25.732 8.7797-54.029 5.5645-80.167-0.44721-22.109-5.8271-46.841-16.835-60.342-35.881-7.3371-11.106-11.15-23.831-13.019-36.879-5.2138 0.28524-7.8529 0.64287-13.066 0.93712 2.2521 13.875 3.9638 28.619 13.147 39.895 19.882 30.166 52.223 52.473 88.438 57.191 25.374 3.1179 52.638 4.084 76.07-7.6393 22.783-10.326 42.325-28.433 52.033-51.775 7.0822-13.957 10.081-29.543 10.511-45.115 0.30495-7.2902-0.0866-14.59-0.77647-21.848l-2.2759 1.1246z" fill="#27341a"/>
  <path d="m97.969 206.62s2.6579 19.524 6.8719 28.251c23.349 39.837 58.689 62.91 100.79 66.428 17.787 1.4402 36.418 2.2785 53.448-3.0542 17.662-5.5308 34.555-15.632 47.34-29.015 11.646-12.191 18.872-28.37 24.433-44.286 3.5061-15.748 4.5428-30.371 3.0542-46.576l-9.1626 4.5813s0.824 24.525-3.0542 35.887c-3.0332 8.8861-9.2418 16.472-15.271 23.67-9.5978 11.459-20.01 22.86-32.832 30.542-8.0781 4.8399-17.424 7.6848-26.724 9.1626-16.592 2.6363-33.8 1.8603-50.394-0.76354-13.677-2.1627-27.338-5.9856-39.704-12.217-10.728-5.4061-21.042-12.392-29.015-21.379-5.8241-6.5651-9.7613-14.742-12.98-22.906-2.4001-6.0876-4.5812-19.089-4.5812-19.089z" fill="#bbc773"/>
  <path d="m333.04 178.36-9.1035 4.5518c-5e-3 0.59629-0.0159 1.2057-0.0267 1.8475 0.10267 4.4998 0.3595 24.01-3.0791 34.085-3.0332 8.8861-9.2594 16.471-15.288 23.669-9.5978 11.459-20.004 22.841-32.826 30.523-8.0781 4.8399-17.421 7.706-26.721 9.1838-16.592 2.6363-33.797 1.8473-50.39-0.77648-13.677-2.1627-27.341-5.9782-39.707-12.209-10.728-5.4061-21.052-12.406-29.024-21.393-5.8241-6.5651-9.7401-14.728-12.959-22.893-2.4001-6.0876-4.5785-19.091-4.5785-19.091l-10.978 0.66937c1.173 6.452 3.1123 15.444 5.6227 20.644 23.349 39.837 58.682 62.91 100.78 66.429 17.787 1.4402 36.413 2.2536 53.443-3.0791 17.662-5.5307 34.553-15.615 47.338-28.997 11.646-12.191 18.884-28.37 24.446-44.286 2.1626-9.7132 3.3709-18.996 3.6414-28.489-0.0853-3.4044-0.26511-6.8623-0.58905-10.389z" fill="url(#f)"/>
  <path d="m203.71 53.693c-5.1336-2.6434-10.564-5.5773-16.335-5.7653-5.3207-0.17332-10.92 1.4082-15.374 4.324-3.8087 2.4933-7.1916 6.2567-8.6479 10.57-1.4866 4.4028-1.5974 9.7762 0.48044 13.933 3.3103 6.6219 10.135 12.055 17.296 13.933 7.5381 1.977 15.428-5.4154 23.061-3.8435 7.8318 1.6128 14.243 7.6134 20.178 12.972 10.036 9.0608 21.989 20.132 25.296 31.709 9.9072 24.274 8.887 17.193 14.374 3.3631 4.1352-12.137-7.0555-26.07-13.246-37.955-3.9217-7.5291-8.8522-14.695-14.894-20.659-9.3274-9.2077-20.537-16.581-32.189-22.581z" fill="#fff" fill-opacity=".43571" filter="url(#q)"/>
 </g>
</svg>
