<?xml version="1.0" encoding="UTF-8"?>
<svg viewBox="0 0 782.81 688.75" xmlns="http://www.w3.org/2000/svg">
 <path d="m369.13 688.58c-28.445-1.6888-59.508-5.8453-66.963-8.9603-2.849-1.1904-18.659-1.3649-123.68-1.3649h-120.41l0.2822-3.4095 0.2822-3.4095 120.01-0.4546c109.3-0.414 120.3-0.58917 123.2-1.9623 3.2226-1.527 11.271-3.7378 17.502-4.808 2.463-0.42297 3.4094-1.0407 3.4094-2.2252 0-0.90173 5.0684-22.056 11.263-47.009 6.1947-24.953 13.77-55.598 16.833-68.099 3.0635-12.501 5.8164-23.65 6.1176-24.775l0.5475-2.0457h-129.32v-16.365h-228.2v-503.68h782.82v503.68h-204.56v16.365h-130.23l0.4587 2.0457c0.25229 1.1251 7.6338 31.126 16.403 66.668 8.7695 35.542 16.45 67.067 17.067 70.055l1.122 5.4322 5.8694 1.1134c3.2281 0.61237 8.1749 2.0109 10.993 3.1078l5.1235 1.9943 119.56 0.4816 119.56 0.4816 0.2822 3.4095 0.2822 3.4095h-120.13c-82.869 0-120.69 0.29883-121.93 0.96356-3.6826 1.9709-24.206 5.4548-42.893 7.2812-14.489 1.4161-27.423 1.9528-52.015 2.158-18.002 0.15033-35.39 0.11536-38.64-0.077637zm5.2448-29.098l18.428-0.6014-0.2443-20.089-0.2443-20.089-5.9097-0.2161c-3.2503-0.11884-10.72-0.90002-16.599-1.736-5.8793-0.83594-10.836-1.3524-11.014-1.1477-0.17859 0.20471-2.6745 9.9661-5.5465 21.692s-5.4494 21.913-5.7275 22.638c-0.41687 1.0863 0.27911 1.2153 3.9621 0.73438 2.4572-0.32092 12.76-0.85419 22.896-1.185zm78.098-21.004c-3.012-12.376-5.5983-22.663-5.7472-22.859-0.1489-0.19629-4.6788 0.3175-10.066 1.1417-5.3877 0.82422-12.148 1.4962-15.024 1.4934l-5.2278-0.0052v40.914l8.8646 0.0902c4.8755 0.049622 12.342 0.39545 16.593 0.76843 4.2505 0.37299 9.6083 0.74152 11.906 0.81897l4.1782 0.1407-5.4765-22.502zm-59.704-32.62v-3.2991l-10.228 0.6096c-5.6256 0.33533-12.479 1.0687-15.229 1.6299l-5.0005 1.0202 3.6368 0.8001c5.119 1.1262 15.424 2.2812 21.593 2.4205l5.2278 0.118v-3.2991zm40.686 1.3593c4.1255-0.53656 7.5008-1.1089 7.5008-1.2718 0-0.6037-9.7817-2.1252-17.047-2.6517l-7.5008-0.5436v6.5776l4.7733-0.5674c2.6253-0.31207 8.1486-1.0064 12.274-1.543zm-58.241-12.588c3.5962-0.51062 9.0172-0.92841 12.047-0.92841h5.5083v-73.644h-10.674l-1.0376 3.8641c-2.5885 9.639-17.379 70.354-17.38 71.349-0.001282 0.70917 0.90622 0.96387 2.4983 0.70111 1.3752-0.22693 5.4426-0.83044 9.0387-1.3411zm57.565-36.23c-5.0034-20.577-9.0971-37.622-9.0971-37.878 0-0.25586-1.6365-0.46521-3.6368-0.46521h-3.6368v73.644l4.3186 0.0782c2.3753 0.042969 8.0009 0.57648 12.501 1.1856 4.5005 0.60907 8.2873 1.0489 8.4152 0.9773 0.1279-0.071533-3.8612-16.966-8.8646-37.542z" fill="#9e9ca0"/>
 <path d="m399.28 685.86c-6.1038-3.1056-6.0587-2.833-6.0587-36.667v-30.49l-5.4551-0.2102c-4.7371-0.18256-8.8945-0.67755-21.82-2.598-1.5002-0.2229-3.8008-0.6239-5.1126-0.89111l-2.385-0.4858-6.6093 27.095c-3.6351 14.902-7.1842 28.238-7.8868 29.635-1.3743 2.7314-4.186 4.1799-9.6006 4.9459-2.2154 0.31342-3.4094 0.12195-3.4094-0.54657 0-0.56592-0.5929-1.0289-1.3175-1.0289-1.9325 0-5.965-5.7154-6.5423-9.2726-0.33829-2.0846 1.0121-8.931 4.186-21.223 2.5769-9.9802 4.8436-19.169 5.037-20.419 0.19345-1.2501 3.3979-14.342 7.121-29.094s8.6962-35.004 11.051-45.005c2.3551-10.001 4.8555-19.996 5.5564-22.21 0.70093-2.2143 1.2744-4.7714 1.2744-5.6824 0-1.5867-2.6952-1.6564-64.098-1.6564-50.628 0-64.115-0.23883-64.18-1.1365-0.045319-0.62506-0.038483-4.3072 0.015182-8.1827l0.0976-7.0462h-229.14v-502.78h782.82v502.78h-205.48v16.365h-65.007c-35.754 0-65.007 0.1615-65.007 0.35883 0 0.19739 0.76749 2.959 1.7055 6.137 1.9836 6.7203 2.9285 10.493 13.289 53.056 4.2602 17.502 8.9618 36.527 10.448 42.277 9.4862 36.704 10.99 46.417 7.7424 50.006-2.1741 2.4024-6.5476 4.5454-9.2763 4.5454-5.5212 0-11.308-6.1071-12.594-13.292-0.52005-2.9048-4.9358-21.339-10.592-44.22-0.79089-3.1992-1.4381-4.2222-2.4868-3.9304-1.3286 0.36963-5.898 1.1352-11.648 1.9517-1.3738 0.19507-5.8732 0.62878-9.9987 0.96387l-7.5008 0.6093-0.0692 29.186c-0.074158 31.297-0.41232 34.017-4.6197 37.158-3.2556 2.4307-8.7524 2.8712-12.437 0.99658zm-5.7632-80.255l0.2955-3.0975-12.57 0.5714c-6.9133 0.31427-14.206 1.0435-16.206 1.6205-3.5107 1.0127-3.559 1.0782-1.3933 1.8881 3.2536 1.2167 13.911 2.2593 22.305 2.182l7.2735-0.067 0.2955-3.0975zm43.164 1.3533c3.9227-0.80499 5.0835-1.3272 3.818-1.7174-3.6474-1.1249-13.768-2.4346-18.866-2.4413l-5.2278-0.0068v6.5992l7.3196-0.6386c4.0258-0.35114 9.856-1.1589 12.956-1.795zm-61.964-11.92c0.85919-0.16547 5.1151-0.53967 9.4576-0.83154 4.3425-0.29193 8.2566-0.75397 8.698-1.0267 0.44232-0.27338 0.80261-16.797 0.80261-36.81v-36.314h-5.8125c-4.0074 0-5.957 0.37677-6.278 1.2133-0.3526 0.91888-6.7075 26.076-9.3396 36.973-0.18115 0.75012-1.1461 4.6369-2.1443 8.6373-0.99817 4.0004-2.8882 11.73-4.2001 17.177-1.3119 5.4469-2.6196 10.514-2.906 11.26-0.44226 1.1526 0.2839 1.2565 4.8196 0.68982 2.9372-0.367 6.0434-0.80267 6.9026-0.96814zm66.052-5.3351c-2.2992-9.059-6.1622-25.112-6.6955-27.824-0.24582-1.2501-0.67624-2.8867-0.95645-3.6368-0.28021-0.75006-0.70343-2.3866-0.94049-3.6367-0.4613-2.4327-6.082-25.314-7.6344-31.08-0.88284-3.2787-1.1322-3.4694-4.5359-3.4694h-3.6017v36.822c0 28.816 0.2471 36.837 1.1365 36.89 0.62509 0.03717 1.9548 0.20074 2.9549 0.36359 1.0001 0.16278 5.0506 0.53473 9.001 0.82648s7.3655 0.71338 7.589 0.93689c0.22351 0.22351 1.5125 0.375 2.8644 0.33655l2.4579-0.0699-1.6392-6.4584z" fill="#a57f45"/>
 <path d="m229.12 520.06v-16.365h-229.12v-502.78h782.82v502.78h-205.48v16.365h-348.22zm344.58-12.729v-8.1827h-340.94v16.365h340.95v-8.1827zm-345.49-10.456v-2.273h350.04v4.546h200.02v-494.6h-773.72v494.6h223.66v-2.273zm-211.84-243.21v-237.3h751.9v474.6h-751.9v-237.3z" fill="#fff"/>
 <path d="m402.32 686.47c-1.0001-0.3706-2.642-0.96149-3.6486-1.313-1.0066-0.35162-2.5409-1.8774-3.4094-3.3908-1.413-2.4621-1.5792-5.948-1.5792-33.136v-30.384h-5.5159c-3.0337 0-10.863-0.83112-17.398-1.8469-6.5349-1.0158-12.051-1.6774-12.258-1.4702-0.20721 0.20721-3.3951 12.463-7.0843 27.235-3.6891 14.772-7.3568 27.849-8.1503 29.06-3.6799 5.6162-12.429 5.7717-17.05 0.30304-4.4581-5.2754-4.6927-3.8167 10.47-65.101 7.7328-31.253 15.656-63.37 17.607-71.371l3.5477-14.547-64.366-0.2333-64.366-0.2333v-16.353h-229.12v-502.78h782.82v502.78h-205.48v16.365h-130.23l0.569 2.0457c0.31302 1.1251 5.9116 23.525 12.441 49.778 23.55 94.684 23.491 94.394 20.332 98.904-3.4114 4.8705-11.851 6.0938-16.019 2.322-3.2178-2.912-4.2749-6.0846-10.744-32.245-3.4827-14.084-6.4626-25.739-6.622-25.898-0.15939-0.15942-5.3838 0.50928-11.61 1.4859-6.226 0.97668-13.038 1.7811-15.138 1.7875l-3.818 0.0118-0.2734 29.776c-0.24976 27.204-0.42322 30.066-2.0087 33.135-2.1509 4.1633-7.9815 6.7659-11.902 5.3129zm8.7393-7.126c1.0417-2.0268 1.3049-16.133 1.5087-80.872l0.2469-78.418h-15.475l-0.2373 78.337c-0.19699 65.027-0.024597 78.776 1.0146 80.922 2.3828 4.9191 10.42 4.9384 12.942 0.031189zm-72.003-9.0466c1.833-1.4999 3.9559-9.1867 15.062-54.54 0.41714-1.7034-0.14886-2.3384-3.48-3.9042-2.188-1.0284-4.4298-2.8611-4.9817-4.0726-1.5103-3.3148 2.2206-7.3025 8.5551-9.144 3.1885-0.92694 4.9218-1.9207 4.9218-2.822 0-0.76514 4.0914-17.735 9.0919-37.71s9.0919-36.708 9.0919-37.185c0-0.48053-3.425-0.86621-7.6931-0.86621h-7.693l-0.8985 3.4095c-1.7827 6.7646-4.6314 18.244-8.291 33.413-2.0511 8.5009-8.8204 36.019-15.043 61.15-10.922 44.112-11.268 45.805-9.9815 48.883 1.9904 4.7637 7.6067 6.4415 11.339 3.3875zm137.19-0.2627c3.6361-3.3875 4.0485-1.2417-15.37-79.973-4.0085-16.252-9.3607-37.731-11.894-47.732-2.5331-10.001-4.8085-19.104-5.0563-20.229-0.42401-1.9248-0.9053-2.0457-8.145-2.0457h-7.6943l0.6208 2.9549c0.34143 1.6252 4.3147 18.093 8.8296 36.595 4.5148 18.502 8.4026 34.538 8.6396 35.634 0.29096 1.3472 1.3586 2.1947 3.2894 2.6112 4.3672 0.94208 9.499 3.8173 10.649 5.9665 1.5321 2.8627-0.62338 6.1631-5.3477 8.1882-2.9819 1.2782-3.8155 2.0715-3.4483 3.282 0.2663 0.87805 0.92776 3.6421 1.4699 6.1424 1.888 8.7072 10.75 43.658 11.681 46.068 1.7628 4.564 8.1297 5.9362 11.777 2.5383zm-83.019-56.334c-0.30908-0.5-3.7086-0.9173-7.5545-0.92718-7.0202-0.018066-15.717-1.0007-24.366-2.7532-3.3717-0.6831-4.8964-1.4939-5.5636-2.9583-0.93021-2.0416 0.31647-4.2715 2.388-4.2715 0.49164 0 1.1194-0.36481 1.3949-0.81073 0.7807-1.2632-7.0187 0.90332-8.8037 2.4455-2.31 1.9957-2.0244 2.536 2.273 4.2986 8.6159 3.5341 41.883 7.6494 40.232 4.9768zm41.645-0.8831c11.836-1.7394 15.226-2.5643 19.498-4.7444 4.1422-2.1141 1.8261-4.528-6.1763-6.4374-6.7741-1.6163-16.298-2.8037-12.689-1.5821 1.2501 0.42322 3.778 1.0206 5.6176 1.3275 1.8395 0.30695 4.2681 1.3058 5.3968 2.2198l2.0522 1.6617-2.2788 2.2788c-2.5436 2.5436-8.5664 3.8928-21.925 4.9115-4.3755 0.33362-7.9554 0.95544-7.9554 1.3817 0 1.2134 5.25 0.92413 18.461-1.0172zm-41.19-6.5193v-3.7657l-12.047 0.5011c-6.6257 0.27557-14.297 1.0172-17.047 1.648l-5.0005 1.1469 5.9097 1.2371c3.2504 0.68042 10.819 1.5746 16.82 1.9871 6.0006 0.41254 11.012 0.80878 11.138 0.88062 0.12503 0.071838 0.22732-1.564 0.22732-3.6351zm43.965 0.8898c3.3227-0.64612 4.8589-1.2957 4.0865-1.728-1.7744-0.99298-14.578-2.6696-20.387-2.6696h-4.9348v6.6326l7.9554-0.5998c4.3755-0.3299 10.351-1.0657 13.28-1.6352zm-7.1425-8.0356c-3.8472-1.053-14.092-1.6188-14.092-0.77844 0 0.38501 2.9662 0.84125 6.5916 1.0139 3.6254 0.17255 7.4099 0.35815 8.41 0.41242 1.0001 0.05426 0.59097-0.2373-0.90918-0.64783zm-36.822-0.9553c0-0.87769-15.248-0.29468-16.29 0.6228-0.20834 0.18359 3.3716 0.3338 7.9554 0.3338 5.2255 0 8.3342-0.35681 8.3342-0.9566zm-20.176-2.6329c3.3461-0.474 9.2547-1.1226 13.13-1.4413l7.0462-0.5795v-73.49l-6.137 0.0136-6.137 0.0136-9.0009 36.581c-4.9505 20.12-9.3631 37.297-9.8058 38.172-0.68085 1.3459-0.37146 1.5911 2.0078 1.5911 1.547 0 5.5504-0.38788 8.8966-0.86194zm68.856-1.1838c-0.3454-1.1251-4.5868-18.272-9.4252-38.105l-8.7972-36.059-3.8641-0.3148-3.864-0.3148v74.03l2.9549 0.4496c3.8612 0.58752 17.684 2.0505 21.017 2.2244 2.3044 0.12018 2.5336-0.10107 1.9783-1.9097zm131.34-87.055v-9.0919h-340.94v18.184h340.94v-9.0919zm-344.75-10.228l0.2877-2.5002h348.1v5.463l100.69-0.2313 100.69-0.2313 0.2289-247.53 0.2289-247.53h-775.54v247.15c0 135.93 0.27437 247.42 0.60969 247.76 0.33533 0.33536 50.966 0.50583 112.51 0.37884l111.9-0.2309 0.2877-2.5003zm-212.58-243.44v-237.3h751.9v474.6h-751.9v-237.3zm748.03-0.2229l0.2255-233.43-371.35-0.0065c-260.69-0.00457-371.52 0.28079-371.94 0.9576-0.32771 0.53026-0.65931 105.68-0.73688 233.66l-0.141 232.7 371.86-0.2251 371.86-0.2251 0.2254-233.43z" fill="#050002"/>
</svg>
