<?xml version="1.0" encoding="UTF-8"?>
<svg width="32mm" height="32mm" version="1.1" viewBox="0 0 113.38578 113.38582" xmlns="http://www.w3.org/2000/svg" xmlns:xlink="http://www.w3.org/1999/xlink">
 <defs>
  <linearGradient id="a">
   <stop stop-color="#8c8778" offset="0"/>
   <stop stop-color="#e1dbc7" offset="1"/>
  </linearGradient>
  <pattern id="u" xlink:href="#o" patternTransform="matrix(.43246 0 0 .4955 -.06169 -10.365)"/>
  <pattern id="o" width="10" height="10" patternTransform="translate(0) scale(10)" patternUnits="userSpaceOnUse">
   <circle cx="2.567" cy=".81" r=".45"/>
   <circle cx="3.048" cy="2.33" r=".45"/>
   <circle cx="4.418" cy="2.415" r=".45"/>
   <circle cx="1.844" cy="3.029" r=".45"/>
   <circle cx="6.08" cy="1.363" r=".45"/>
   <circle cx="5.819" cy="4.413" r=".45"/>
   <circle cx="4.305" cy="4.048" r=".45"/>
   <circle cx="5.541" cy="3.045" r=".45"/>
   <circle cx="4.785" cy="5.527" r=".45"/>
   <circle cx="2.667" cy="5.184" r=".45"/>
   <circle cx="7.965" cy="1.448" r=".45"/>
   <circle cx="7.047" cy="5.049" r=".45"/>
   <circle cx="4.34" cy=".895" r=".45"/>
   <circle cx="7.125" cy=".34" r=".45"/>
   <circle cx="9.553" cy="1.049" r=".45"/>
   <circle cx="7.006" cy="2.689" r=".45"/>
   <circle cx="8.909" cy="2.689" r=".45"/>
   <circle cx="9.315" cy="4.407" r=".45"/>
   <circle cx="7.82" cy="3.87" r=".45"/>
   <circle cx="8.27" cy="5.948" r=".45"/>
   <circle cx="7.973" cy="7.428" r=".45"/>
   <circle cx="9.342" cy="8.072" r=".45"/>
   <circle cx="8.206" cy="9.315" r=".45"/>
   <circle cx="9.682" cy="9.475" r=".45"/>
   <circle cx="9.688" cy="6.186" r=".45"/>
   <circle cx="3.379" cy="6.296" r=".45"/>
   <circle cx="2.871" cy="8.204" r=".45"/>
   <circle cx="4.59" cy="8.719" r=".45"/>
   <circle cx="3.181" cy="9.671" r=".45"/>
   <circle cx="5.734" cy="7.315" r=".45"/>
   <circle cx="6.707" cy="6.513" r=".45"/>
   <circle cx="5.73" cy="9.67" r=".45"/>
   <circle cx="6.535" cy="8.373" r=".45"/>
   <circle cx="4.37" cy="7.154" r=".45"/>
   <circle cx=".622" cy="7.25" r=".45"/>
   <circle cx=".831" cy="5.679" r=".45"/>
   <circle cx="1.257" cy="8.519" r=".45"/>
   <circle cx="1.989" cy="6.877" r=".45"/>
   <circle cx=".374" cy="3.181" r=".45"/>
   <circle cx="1.166" cy="1.664" r=".45"/>
   <circle cx="1.151" cy=".093" r=".45"/>
   <circle cx="1.151" cy="10.093" r=".45"/>
   <circle cx="1.302" cy="4.451" r=".45"/>
   <circle cx="3.047" cy="3.763" r=".45"/>
  </pattern>
  <pattern id="w" xlink:href="#p" patternTransform="matrix(.63262 0 0 .74931 -.061683 -10.365)"/>
  <pattern id="p" width="10" height="10" patternTransform="translate(0) scale(10)" patternUnits="userSpaceOnUse">
   <circle cx="2.567" cy=".81" r=".45"/>
   <circle cx="3.048" cy="2.33" r=".45"/>
   <circle cx="4.418" cy="2.415" r=".45"/>
   <circle cx="1.844" cy="3.029" r=".45"/>
   <circle cx="6.08" cy="1.363" r=".45"/>
   <circle cx="5.819" cy="4.413" r=".45"/>
   <circle cx="4.305" cy="4.048" r=".45"/>
   <circle cx="5.541" cy="3.045" r=".45"/>
   <circle cx="4.785" cy="5.527" r=".45"/>
   <circle cx="2.667" cy="5.184" r=".45"/>
   <circle cx="7.965" cy="1.448" r=".45"/>
   <circle cx="7.047" cy="5.049" r=".45"/>
   <circle cx="4.34" cy=".895" r=".45"/>
   <circle cx="7.125" cy=".34" r=".45"/>
   <circle cx="9.553" cy="1.049" r=".45"/>
   <circle cx="7.006" cy="2.689" r=".45"/>
   <circle cx="8.909" cy="2.689" r=".45"/>
   <circle cx="9.315" cy="4.407" r=".45"/>
   <circle cx="7.82" cy="3.87" r=".45"/>
   <circle cx="8.27" cy="5.948" r=".45"/>
   <circle cx="7.973" cy="7.428" r=".45"/>
   <circle cx="9.342" cy="8.072" r=".45"/>
   <circle cx="8.206" cy="9.315" r=".45"/>
   <circle cx="9.682" cy="9.475" r=".45"/>
   <circle cx="9.688" cy="6.186" r=".45"/>
   <circle cx="3.379" cy="6.296" r=".45"/>
   <circle cx="2.871" cy="8.204" r=".45"/>
   <circle cx="4.59" cy="8.719" r=".45"/>
   <circle cx="3.181" cy="9.671" r=".45"/>
   <circle cx="5.734" cy="7.315" r=".45"/>
   <circle cx="6.707" cy="6.513" r=".45"/>
   <circle cx="5.73" cy="9.67" r=".45"/>
   <circle cx="6.535" cy="8.373" r=".45"/>
   <circle cx="4.37" cy="7.154" r=".45"/>
   <circle cx=".622" cy="7.25" r=".45"/>
   <circle cx=".831" cy="5.679" r=".45"/>
   <circle cx="1.257" cy="8.519" r=".45"/>
   <circle cx="1.989" cy="6.877" r=".45"/>
   <circle cx=".374" cy="3.181" r=".45"/>
   <circle cx="1.166" cy="1.664" r=".45"/>
   <circle cx="1.151" cy=".093" r=".45"/>
   <circle cx="1.151" cy="10.093" r=".45"/>
   <circle cx="1.302" cy="4.451" r=".45"/>
   <circle cx="3.047" cy="3.763" r=".45"/>
  </pattern>
  <pattern id="x" xlink:href="#q" patternTransform="scale(.29496 .36567)"/>
  <pattern id="q" width="10" height="10" patternTransform="translate(0) scale(10)" patternUnits="userSpaceOnUse">
   <circle cx="2.567" cy=".81" r=".45"/>
   <circle cx="3.048" cy="2.33" r=".45"/>
   <circle cx="4.418" cy="2.415" r=".45"/>
   <circle cx="1.844" cy="3.029" r=".45"/>
   <circle cx="6.08" cy="1.363" r=".45"/>
   <circle cx="5.819" cy="4.413" r=".45"/>
   <circle cx="4.305" cy="4.048" r=".45"/>
   <circle cx="5.541" cy="3.045" r=".45"/>
   <circle cx="4.785" cy="5.527" r=".45"/>
   <circle cx="2.667" cy="5.184" r=".45"/>
   <circle cx="7.965" cy="1.448" r=".45"/>
   <circle cx="7.047" cy="5.049" r=".45"/>
   <circle cx="4.34" cy=".895" r=".45"/>
   <circle cx="7.125" cy=".34" r=".45"/>
   <circle cx="9.553" cy="1.049" r=".45"/>
   <circle cx="7.006" cy="2.689" r=".45"/>
   <circle cx="8.909" cy="2.689" r=".45"/>
   <circle cx="9.315" cy="4.407" r=".45"/>
   <circle cx="7.82" cy="3.87" r=".45"/>
   <circle cx="8.27" cy="5.948" r=".45"/>
   <circle cx="7.973" cy="7.428" r=".45"/>
   <circle cx="9.342" cy="8.072" r=".45"/>
   <circle cx="8.206" cy="9.315" r=".45"/>
   <circle cx="9.682" cy="9.475" r=".45"/>
   <circle cx="9.688" cy="6.186" r=".45"/>
   <circle cx="3.379" cy="6.296" r=".45"/>
   <circle cx="2.871" cy="8.204" r=".45"/>
   <circle cx="4.59" cy="8.719" r=".45"/>
   <circle cx="3.181" cy="9.671" r=".45"/>
   <circle cx="5.734" cy="7.315" r=".45"/>
   <circle cx="6.707" cy="6.513" r=".45"/>
   <circle cx="5.73" cy="9.67" r=".45"/>
   <circle cx="6.535" cy="8.373" r=".45"/>
   <circle cx="4.37" cy="7.154" r=".45"/>
   <circle cx=".622" cy="7.25" r=".45"/>
   <circle cx=".831" cy="5.679" r=".45"/>
   <circle cx="1.257" cy="8.519" r=".45"/>
   <circle cx="1.989" cy="6.877" r=".45"/>
   <circle cx=".374" cy="3.181" r=".45"/>
   <circle cx="1.166" cy="1.664" r=".45"/>
   <circle cx="1.151" cy=".093" r=".45"/>
   <circle cx="1.151" cy="10.093" r=".45"/>
   <circle cx="1.302" cy="4.451" r=".45"/>
   <circle cx="3.047" cy="3.763" r=".45"/>
  </pattern>
  <pattern id="v" xlink:href="#n" patternTransform="matrix(.56807 0 0 .4817 -.061678 -10.453)"/>
  <pattern id="n" width="10" height="10" patternTransform="translate(0) scale(10)" patternUnits="userSpaceOnUse">
   <circle cx="2.567" cy=".81" r=".45"/>
   <circle cx="3.048" cy="2.33" r=".45"/>
   <circle cx="4.418" cy="2.415" r=".45"/>
   <circle cx="1.844" cy="3.029" r=".45"/>
   <circle cx="6.08" cy="1.363" r=".45"/>
   <circle cx="5.819" cy="4.413" r=".45"/>
   <circle cx="4.305" cy="4.048" r=".45"/>
   <circle cx="5.541" cy="3.045" r=".45"/>
   <circle cx="4.785" cy="5.527" r=".45"/>
   <circle cx="2.667" cy="5.184" r=".45"/>
   <circle cx="7.965" cy="1.448" r=".45"/>
   <circle cx="7.047" cy="5.049" r=".45"/>
   <circle cx="4.34" cy=".895" r=".45"/>
   <circle cx="7.125" cy=".34" r=".45"/>
   <circle cx="9.553" cy="1.049" r=".45"/>
   <circle cx="7.006" cy="2.689" r=".45"/>
   <circle cx="8.909" cy="2.689" r=".45"/>
   <circle cx="9.315" cy="4.407" r=".45"/>
   <circle cx="7.82" cy="3.87" r=".45"/>
   <circle cx="8.27" cy="5.948" r=".45"/>
   <circle cx="7.973" cy="7.428" r=".45"/>
   <circle cx="9.342" cy="8.072" r=".45"/>
   <circle cx="8.206" cy="9.315" r=".45"/>
   <circle cx="9.682" cy="9.475" r=".45"/>
   <circle cx="9.688" cy="6.186" r=".45"/>
   <circle cx="3.379" cy="6.296" r=".45"/>
   <circle cx="2.871" cy="8.204" r=".45"/>
   <circle cx="4.59" cy="8.719" r=".45"/>
   <circle cx="3.181" cy="9.671" r=".45"/>
   <circle cx="5.734" cy="7.315" r=".45"/>
   <circle cx="6.707" cy="6.513" r=".45"/>
   <circle cx="5.73" cy="9.67" r=".45"/>
   <circle cx="6.535" cy="8.373" r=".45"/>
   <circle cx="4.37" cy="7.154" r=".45"/>
   <circle cx=".622" cy="7.25" r=".45"/>
   <circle cx=".831" cy="5.679" r=".45"/>
   <circle cx="1.257" cy="8.519" r=".45"/>
   <circle cx="1.989" cy="6.877" r=".45"/>
   <circle cx=".374" cy="3.181" r=".45"/>
   <circle cx="1.166" cy="1.664" r=".45"/>
   <circle cx="1.151" cy=".093" r=".45"/>
   <circle cx="1.151" cy="10.093" r=".45"/>
   <circle cx="1.302" cy="4.451" r=".45"/>
   <circle cx="3.047" cy="3.763" r=".45"/>
  </pattern>
  <radialGradient id="y" cx="103.58" cy="33.295" r="1.4811" gradientTransform="matrix(1.2507 -.079458 .1055 1.6605 -29.476 -13.762)" gradientUnits="userSpaceOnUse">
   <stop offset="0"/>
   <stop offset=".40619"/>
   <stop stop-color="#898989" offset="1"/>
  </radialGradient>
  <linearGradient id="r" x1="25.205" x2="29.357" y1="56.578" y2="66.478" gradientUnits="userSpaceOnUse" xlink:href="#a"/>
  <linearGradient id="s" x1="59.968" x2="67.869" y1="70.011" y2="75.138" gradientUnits="userSpaceOnUse" xlink:href="#a"/>
  <linearGradient id="t" x1="28.925" x2="23.854" y1="53.838" y2="19.455" gradientUnits="userSpaceOnUse">
   <stop stop-color="#818181" offset="0"/>
   <stop stop-color="#818181" offset=".33648"/>
   <stop stop-color="#3a3131" offset=".70678"/>
   <stop stop-color="#3a3131" offset="1"/>
  </linearGradient>
 </defs>
 <g transform="translate(1.6655 5.6834)">
  <path d="m85.277-1.5483c-1.146 0.34422-2.078 0.88566-2.453 1.9402-0.83515-0.8781-2.4063-0.23063-3.8086 0.066903-1.3851 0.68129-2.0742 1.8872-2.5176 3.2782-1.4588-0.58861-2.2474 0.038333-3.034 0.66903-1.6631 1.4905-2.5322 2.9027-2.3885 4.2149-2.3814 0.18239-2.046 1.8899-2.5176 3.1444-1.788 0.6551-3.6016 2.2783-4.0991 4.7166-1.5694 0.60356-3.1311 2.4193-3.3245 4.449-0.99296 1.5838-0.74898 3.0073-0.38732 4.4156l-7.1008 2.074c-4.2794 0.20043-8.3717-0.69852-12.394-2.0071l-9.3602-4.6163c-2.2514-1.2509-3.9419-1.5974-5.4225-1.6057-5.1537-0.28935-6.6185 0.99555-9.0374 1.8733l-6.3262 5.0177-3.9377 3.7465c-2.4838 2.7653-3.754 5.5306-4.2605 8.2959-0.70904 4.5929-0.017385 7.7341 0.51642 11.039 0.10937 3.1194 1.5411 5.5009 2.7112 8.0283-0.19647 2.2172 0.025068 4.272 0.51642 6.2219l2.9049 4.0811c1.1421 1.0298 2.3321 2.1755 3.2277 2.6092l1.2911 8.5635-1.3556 10.303 1.6784 1.7395-1.2911 2.2747 0.19366 2.6092 3.8086 1.5388 3.2922-0.26761c1.3294-0.85266 0.92988-1.8049 0.77464-2.743-0.77554-2.0119-1.2443-4.4574-2.9049-5.2184 0.42631-1.5658 0.94698-3.137-0.12911-4.6163-0.08403-3.1221 0.2195-6.2442-0.32277-9.3664 0.5793-1.718 1.8487-3.0785 0.83919-5.6198l-0.06455-3.5458c1.1517-4.2032 3.4426-7.2257 3.2922-12.778l2.453 4.6163 0.12911 5.7536-2.5176 6.891 3.4213 7.2255c1.4965 3.2291 2.132 5.9091 2.5176 8.4297l-0.77464 3.8804c1.2388 0.78993 2.5492 0.98621 3.8732 1.0704-1.1461 2.3478-1.5866 3.9187-1.3556 4.7501 2.1721 0.60929 4.2777 1.6148 6.7781 0.26761 1.597-0.38376 1.4208-1.4239 1.9366-2.2078l-1.8398-3.0775-3.4536-3.8804c-0.48472-3.0665-1.9642-6.3709-3.5504-9.7009-0.64665-1.939-1.161-4.0151-0.45187-7.3593 1.6957-2.8755 3.7592-5.5876 4.3251-8.9649l0.51642-2.2078c8.6161 3.4375 14.314 2.7703 20.657 3.0106 0.01483 4.3001 0.5264 6.4122 1.2265 7.6938l0.58098 7.2924 0.58098 4.9508 0.45187 3.9473c0.1013 3.1232-0.33937 5.5724-1.0974 7.6269l1.0974 1.4719-2.0657 6.155c1.5435 1.7749 2.9523 2.2935 4.3251 2.4754 2.3352 0.43105 2.8002-0.34935 3.8732-0.73593l0.77464-2.3416c1.9282 0.17739 3.6262 1.2496 6.1971-1.0704 0.09443-1.5247-0.33299-2.7113-1.6138-3.3451l-1.0974-2.5423c-0.69386-0.64673-0.58162-1.2934-2.1948-1.9402-0.25768-3.5177-1.8725-6.3961-0.45187-10.704l1.5493-2.6092-0.58098-2.8099 2.0011-5.5529 5.6807-10.704 1.6784-4.2818c1.5641-2.2256 3.2282-4.2696 4.1314-7.6938l-0.32276-2.1409 1.6138-4.7501 5.4225-7.9614 8.0046 2.5423 4.2605 3.7465c1.248 1.2041 2.496 1.2225 3.7441 1.2042l0.90375-1.0704c3.9247-1.4066 4.4459-4.4171 4.3896-7.0248-0.75989-1.9464-1.7644-3.8506-3.5504-5.6198-1.0946-2.6771-2.6584-5.192-4.2605-7.6938 0.05968-1.7221-0.68459-3.3401-2.0011-4.8839 1.1814-0.8324 1.5029-2.0468 1.4847-3.412l-1.2265-2.2747c1.3609-1.5583 2.2295-3.3718 2.9049-5.2853 0.28416-0.72066 0.2682-1.3969-0.64553-1.9402l-4.5187 2.743-3.4859-3.0106-3.0985 0.13381c-1.1967-1.2559-2.5746-1.3848-3.9377-1.6057zm-77.98 37.7c1.9067 9.4286 2.5093 9.6542 3.8409 14.484 0.53634 2.2652 1.0884 4.5141 2.1303 6.2554l-1.162 3.4455-3.8732-3.5124-1.9366-10.905s-0.74236-7.928 1.0006-9.7678z" fill="#fffbf0" fill-rule="evenodd" stroke="#f0f" stroke-width=".29055"/>
  <path d="m63.565 61.387 4.8614-0.35355 4.6846-4.8614 1.149-0.61872-2.0329 6.8943-4.5962 7.0711-1.591 5.3033 0.61872 2.8284-1.4142 2.5633c-1.1736 4.1227-0.17458 7.3142 0.17678 10.783 1.4351 0.46308 2.2453 1.3949 2.74 2.5633l0.44194 1.7678c0.8687 0.95799 1.8115 1.8419 1.7678 3.7123-1.7154 0.96083-3.542 1.7269-6.1872 1.0607l-1.6794-2.1213-0.26517-2.6516-0.70711-1.2374 0.35355-3.7123-1.2374-7.955 1.2374-3.0936-0.53033-7.3362z" fill="url(#s)" fill-rule="evenodd" stroke="#4a0" stroke-width=".29055"/>
  <path d="m21.846 52.902c1.4974 2.329 2.7826 4.7187 2.6516 7.513l-2.3865 8.3969 0.44194 3.7123 4.0659 8.3085 1.149 5.8336-0.53033 3.0936 3.8891 1.3258-1.7678 4.2426 3.9775 1.149 4.4194-1.0607c0.56532-1.1196 0.2527-2.2392-0.35355-3.3588l-2.0329-3.0052s-2.0329-1.5026-2.1213-1.8562c-0.08839-0.35355-1.9445-6.1872-1.9445-6.1872-1.5312-2.1272-2.7551-4.825-2.6517-9.9879-0.17735-1.0814 0.83331-2.8416 2.2981-4.8614 0.19723-0.23357 0.91525-0.92434 1.0933-1.1886 1.1997-1.7799 1.4326-3.8162 1.7351-7.0316-3.9897-1.4296-6.9998-4.5736-10.076-7.6014z" fill="url(#r)" fill-rule="evenodd" stroke="#4a0" stroke-width=".29055"/>
  <path d="m6.0709 57.326c-0.2753 1.9507 0.34582 4.4984 1.0974 7.1586 1.1208 1.4282 2.167 2.8178 3.615 4.4156 1.6138 1.2565 3.2277 1.1455 4.8415 1.405 0.53153-0.27425 1.289-0.31435 0.83919-1.6057-0.87251-0.6647-1.6877-1.5672-2.3885-2.9437l-2.1948-5.6198-3.4213-3.3451" fill="#7b2d00" fill-rule="evenodd" stroke="#f00" stroke-width=".29055"/>
  <path d="m104.26 25.882c-0.17324-0.19844-1.8327-0.30634-2.5176 0.20071-1.1058 0.81872-1.4156 2.4869-1.6138 3.8804-0.19268 1.3546-0.0941 2.8342 0.45187 4.0811 0.66098 1.5095 2.2099 3.5657 3.8086 3.6127 0.89228 0.02627 2.3388-1.5927 2.9049-3.0775 0.69955-1.8347 0.19287-4.0851-0.58098-5.8874-0.49549-1.154-2.453-2.8099-2.453-2.8099z" fill="#a69c9c" fill-rule="evenodd" stroke="#f0f" stroke-width=".29055"/>
  <path d="m93.96 18.372c0 0.76051-0.5363 1.4095-1.2679 1.5344-0.73162 0.12487-1.444-0.31102-1.6843-1.0305-0.24025-0.7195 0.06212-1.5116 0.71484-1.8728 0.65273-0.36114 1.4644-0.18537 1.919 0.41554-0.77192 0.37898-1.425 0.88688-1.4246 1.3548 0.63409-0.46407 1.1937-0.4653 1.7429-0.40142z" color="#000000" fill="#4f0101"/>
  <path d="m90.682 16.311c-0.5561 0.03955-1.0942-0.1636-1.6262-0.05913-0.26885 0.0528-0.5418 0.03893-0.47996 0.31561 0.12948 0.57936 0.35728 0.81195 0.3791 0.85519 0.65054 1.2898 1.5717 2.1816 2.6322 2.9391 0.71134 0.50813 1.4688 0.43668 2.2667 0.15393 0.5103-0.18085 0.91962-0.38754 1.3671-0.63925-0.02246-0.31976-0.09213-0.68429-0.16927-1.0668-0.16343-0.81038-0.29051-1.2724-0.85147-1.9046-0.50866-0.57329-1.2175-0.67828-1.9489-0.7372-0.49446-0.03983-1.0753 0.10805-1.5692 0.14318zm0.2271 0.65494c0.70107-0.07991 1.5756 0.03732 2.2507 0.19691 0.39829 0.09416 0.71381 0.62039 0.96175 0.93671 0.29386 0.37491 0.35832 0.74577 0.33062 1.2803-0.51288 0.63435-1.47 0.80021-2.1308 0.52912-0.30788-0.12632-1.0709-0.66719-1.3031-0.90624-0.49676-0.51147-1.3282-1.4144-1.629-2.0697 0.41273-0.06942 0.84271 0.11006 1.5197 0.03289z" color="#000000" color-rendering="auto" fill="#282828" fill-rule="evenodd" image-rendering="auto" shape-rendering="auto" solid-color="#000000" style="block-progression:tb;isolation:auto;mix-blend-mode:normal;text-decoration-color:#000000;text-decoration-line:none;text-decoration-style:solid;text-indent:0;text-transform:none;white-space:normal"/>
  <path d="m104.26 25.794c-0.17324-0.19844-1.8327-0.30634-2.5176 0.20071-1.1058 0.81872-1.4156 2.4869-1.6138 3.8804-0.19267 1.3546-0.0941 2.8342 0.45187 4.0811 0.66098 1.5095 2.2099 3.5657 3.8086 3.6127 0.89228 0.02627 2.3388-1.5927 2.9049-3.0775 0.69955-1.8347 0.19287-4.0851-0.58098-5.8874-0.49549-1.154-2.453-2.8099-2.453-2.8099z" fill="url(#v)" fill-rule="evenodd" opacity=".229" stroke="#f0f" stroke-width=".29055"/>
  <path d="m102.98 25.355c-0.91914-0.02579-2.1004 0.65953-2.5539 1.5668-1.0017 2.0036-0.92684 4.0041-0.62084 5.7491 0.15972 0.91082 0.585 2.2059 1.1241 2.9584 0.63766 0.88995 1.7846 1.8259 2.6055 2.2119l0.36128-0.47172c-1.2961-0.76681-2.5493-2.4433-2.8933-3.813-0.44721-1.7806-0.49193-2.9726-0.19064-4.9768 0.0915-0.60894 0.42979-1.4158 0.87078-1.8514 0.66877-0.66059 2.0086-0.63033 2.6163-0.49139l0.17754-0.67687c-0.48878-0.12766-0.99284-0.19075-1.4968-0.20489z" color="#000000" color-rendering="auto" fill="#858280" fill-rule="evenodd" image-rendering="auto" shape-rendering="auto" solid-color="#000000" style="block-progression:tb;isolation:auto;mix-blend-mode:normal;text-decoration-color:#000000;text-decoration-line:none;text-decoration-style:solid;text-indent:0;text-transform:none;white-space:normal"/>
  <path d="m85.854-1.68c-0.22473 0.00193-0.3695 0.080124-0.38328 0.26552-0.01109 0.14916-2.0657 1.3381-2.0657 1.3381l2.2916 3.4455-0.48415 4.4825c0.77815-1.9923 2.2659-3.2491 3.7118-4.5494 1.0112-0.68049 2.1123-1.1745 3.5504-0.97009 0.32391 0.96653 0.99479 0.85425 0.35504 4.817-0.30814 0.79807-0.5459 1.6448-1.0974 2.2747-0.28616 0.91739-0.63228 1.8697 0.4196 2.0071 0.11664 0.02521 0.2326 0.03678 0.34899 0.05854-0.36911 0.45839-0.69799 1.2561-0.54265 1.6747 0.7444 0.90206 0.18762 1.3946 0.16138 2.2559 0.31272 0.5706 0.58794 0.89502 0.64553-0.20907 0.09275-0.77208 0.50792-1.0951 0.03228-1.8586-0.29726-0.4045-0.24007-0.8083 0.13314-1.5555 0.02932-0.09152 0.04441-0.14476 0.06859-0.22162 1.6333 0.25977 3.2552 0.37066 4.9625 1.6287 0.55533-0.68581 1.1514-1.228 1.2911-3.3786-0.45947-2.2183-1.1591-1.9472-1.7752-2.5423-0.086969-2.0104-1.2277-3.9661-3.034-5.8874-1.3952-1.5517-3.1021-1.9495-5.0997-1.2712-0.0232-0.38482-2.5161-1.8126-3.4899-1.8043zm-4.3291 1.6203c-0.53566-0.011143-1.1071 0.12269-1.6501 0.14217l-2.7516 2.0949-0.44985 1.5137c-1.2014-0.45106-1.9794-0.24244-2.5841 0.23416-1.9132 1.2401-2.8616 2.5624-2.9775 3.9577 1.4495 2.507 3.2327 4.3252 5.2812 5.5905-0.8239 2.29-0.84334 4.664 0 7.1021 0 0 1.4713 4.0973 2.1343 6.1718 0.56616 1.7716 0.6346 3.7639 1.5735 5.3564 0.85615 1.4522 3.5383 3.55 3.5383 3.55l1.2366-2.2705c-2.4189-0.24586-4.1697-1.3307-4.2141-2.2705-0.17916-3.79-1.1057-5.2527-1.6844-7.8004-0.87933-3.871-1.433-7.2964-1.6864-10.945l-2.5841-3.4936c-0.17744-0.68656-0.90276-1.7386 0.89971-1.106l3.5948 2.6782s-0.36672 3.8898-0.16945 5.8205c0.23959 2.345 1.249 4.5452 1.63 6.8701 0.29605 1.8067-0.02282 3.7249 0.50634 5.4735 0.30861 1.0198 1.515 2.7953 1.515 2.7953s-0.62784-2.2321-0.78472-3.3786c-0.46849-3.4236 0.27274-6.9858-0.44986-10.362-0.20184-0.94293-1.0671-2.4453-1.0671-2.6782s0.05649-5.8812 0.05649-5.8812l-2.3037-3.0859c-0.31222-1.0582-0.3008-1.8512 1.4605-1.221 1.4288 1.127 2.041 2.0425 2.921 3.0273-0.44713 1.5201-1.0827 2.9589-0.95418 4.2483 0.23477 2.355 1.0439 3.691 1.0671 5.532 0.05357 4.2477-0.31233 6.4072 0.11095 7.3363 0.25144-2.462 1.6282-6.8223 1.0127-8.7914l-1.2931-4.1333c-0.36013-1.1522 0.02091-2.2628 1.0107-3.9013 0.03861-2.8588 0.30662-4.301-0.50432-7.4534-0.40396-0.5571-0.90469-0.71224-1.4403-0.72338zm-10.47 8.9336c-0.86326-0.16992-1.6144 0.3573-2.3582 0.93036-0.37032 0.98542 0.6508 1.7089 1.9084 2.3876 1.5737 1.3195 2.1504 2.8464 3.034 4.3089l-0.33689 3.435-0.89769-2.2705c-0.58446-2.6158-2.3482-4.0102-3.7642-5.7641-1.1366-0.03421-1.8676 0.2585-1.9104 1.106 1.6789 1.5792 3.4532 2.1615 4.9988 5.1222 0 0 0.74393 2.8862 1.1801 4.3089 0.63127 2.0591 1.8949 3.9611 2.0778 6.1132 0.46615 5.4843 4.7811 12.235 5.2812 11.528l0.89971-1.6308c-0.23521-0.59225-2.8629-5.4291-3.5403-9.3726-0.48575-2.8277-2.1054-5.3453-2.6951-8.1517-0.36437-1.734-0.50634-5.2978-0.50634-5.2978-0.36263-2.1061-1.241-4.5008-3.3709-6.753zm20.268 1.3715c-0.08156 0.02253-0.24784 0.16264-0.53055 0.43905-0.38292 0.75073-1.0599 1.2576-1.0611 2.3249 0.89599 0.66564 1.1358 1.4346 1.2265 2.3228 0.31272 0.5706 0.58794 0.89502 0.64553-0.20907l-0.77464-2.1262c-0.29726-0.4045-0.27235-0.70794 0.35908-1.9569 0.17347-0.54147 0.2711-0.83202 0.13516-0.79447zm3.4314 1.66c-0.08156 0.02253-0.24582 0.16263-0.52853 0.43905-0.38292 0.75073-0.76944 1.1573-0.48011 1.4551 0.7444 0.90206 0.18762 1.3946 0.16138 2.2559 0.31272 0.5706 0.58794 0.89502 0.64553-0.20907 0.09275-0.77208 0.50792-1.0951 0.03228-1.8586-0.29726-0.4045-0.27236-0.7414 0.03632-1.2879 0.17347-0.54147 0.26909-0.83202 0.13314-0.79447zm-7.0887 0.16098c-1.0556 1.2437-1.9998 1.7366-2.4974 3.6922-0.14608 0.57416-0.35748 1.9481-0.07061 2.904 0.28688 0.95589 0.73106 1.9191 0.97233 4.5097 0.24127 2.5905-0.49519 5.302 0.36916 8.574l0.38732-0.08781c-0.64505-3.1444 0.25743-5.5915-0.19769-9.6674-0.1612-1.4436-0.27395-2.7442-0.54467-3.6462-0.27066-0.90186-0.29536-1.5329-0.12709-2.3792 0.22803-1.147 1.0404-2.5702 1.7086-3.8992zm1.4202 1.0328c-0.79734 1.411-1.4189 1.4021-1.9164 3.3577-0.14608 0.57416-0.13155 1.9481 0.15533 2.904 0.28688 0.95589 1.2412 1.9223 0.97031 4.5097-0.2775 2.6503-2.1646 5.4945 0.37118 8.574l0.38732-0.087808c-1.6963-3.0803-0.07096-5.5715-0.19769-9.6674-0.04494-1.4525-0.69354-2.5769-0.96426-3.4789-0.27067-0.90186-0.33104-1.8618-0.19164-2.7137 0.22803-1.3937 1.105-1.5667 1.3859-3.3974zm8.053 0.67112-0.35504 0.03764c-0.2285 1.4266-0.12811 3.0199 0.38328 4.3905 0.44309 1.1875 2.223 3.0462 2.223 3.0462l3.0078 3.228 0.19769-0.25925-2.9251-3.3807s-1.5881-1.8316-2.0112-2.9542c-0.48489-1.2865-0.70008-2.639-0.52046-4.1082zm-1.2184 0.37214-0.35504 0.03764c-0.2285 1.4266-0.12811 3.0199 0.38328 4.3905 0.44309 1.1875 1.9669 3.1465 1.9669 3.1465l4.3291 4.0643 0.1977-0.25925-4.2161-4.1166s-1.3622-2.0323-1.7853-3.1549c-0.48489-1.2865-0.70008-2.639-0.52046-4.1082zm-30.651 0.08781-0.2804 0.93036 3.7622 5.1829s-0.27738 3.2297-0.11095 4.8316c0.229 2.2042 1.1803 4.2731 1.517 6.4624 0.3045 1.9799-0.23296 4.1195 0.44784 5.9961 0.7486 2.0636 2.8194 3.3528 3.8207 5.2978 0.66352 1.2888 1.404 4.1333 1.404 4.1333 0.31081 0.35751 3.1654-2.2874 3.1228-2.8664 0.09677-0.05422-2.5843 2.385-2.5357 1.2272 0.1692-1.762 0.06271-4.5263-0.19366-6.1613-0.36703-2.3407-1.8659-4.3511-2.4712-6.638-0.41695-1.5753-0.33572-3.2664-0.78674-4.8316-0.66702-2.3148-2.2391-4.2932-2.8081-6.6359-0.11463-0.47199-0.11297-1.4572-0.11297-1.4572zm-2.8081 3.7842-0.50634 0.46623c1.6681 1.1835 2.6635 2.5044 3.5948 3.8406 0 0-0.80423 2.2924-0.89769 3.4936-0.10588 1.3608 0.28891 2.7159 0.39337 4.0769 0.25139 3.2751-0.69405 6.8218 0.5608 9.8389 1.3738 3.3032 6.7413 7.4951 7.1351 7.859 1.3772 1.2723 3.1868 2.2804 1.404-0.75684 0 0-3.1258-4.4556-4.1011-6.9871-1.1154-2.8952-1.9104-9.1406-1.9104-9.1406-0.57812-2.7667-1.6436-5.443-1.3475-8.7893-0.90337-1.4863-2.5313-2.7226-4.3251-3.9013zm-34.604 1.1645-1.2931 0.34915s6.9256 4.0357 8.3717 7.5684c1.1497 2.8085-0.05429 6.1175-0.44986 9.1406-0.37119 2.8367-1.0656 5.6233-1.7974 8.3837-0.38124 1.438-1.3355 2.7592-1.3496 4.2504-0.02936 3.106 2.6406 8.9064 2.6406 8.9064l1.4605 0.40769s-1.5422-5.0709-1.517-7.6854c0.0392-4.0581 1.6576-7.9321 2.5841-11.875 0.68243-2.9041 1.9386-5.6989 2.1908-8.6764 0.06077-0.71764-0.55867-1.558-0.16744-2.1534 0.36342-0.55311 1.2225-0.72099 1.8539-0.58122 0.92162 0.20401 1.898 0.97585 2.1343 1.9214 0.31126 1.2453-1.1749 1.6972-1.6158 2.8935-0.51425 1.3951-0.43234 3.3959-0.8634 4.9947-0.37414 1.3877-1.2733 2.3714-1.5654 3.6378-0.83312 3.6124-1.5854 7.3601-1.2931 11.062 0.22912 2.9013 2.3602 8.3837 2.3602 8.3837l1.2931 0.23207s-0.92539-7.0528-0.84322-10.596c0.06579-2.8372 0.3728-5.6949 1.0671-8.4402 0.91606-3.6219 1.9343-7.3832 4.0447-10.422 0.38796-0.55867 0.86201-1.2262 1.517-1.3401 0.4561-0.07934 1.1125 0.08264 1.2911 0.52477 0.88108 2.1813-1.9798 4.2754-2.6951 6.5209-0.94119 2.9546-1.9351 5.9742-2.0798 9.082-0.13944 2.9936 0.67099 5.9583 1.1801 8.9085 0.32074 1.8586 0.5516 3.7577 1.1801 5.5299 0.12426 0.35038 0.50432 0.9889 0.50432 0.9889l2.0798 0.05854c-0.08267 0.11424-1.9256-1.8271-1.5735-3.6086 0.54773-2.7713 0.27566-6.6569-0.05649-10.945-0.3101-4.0033 1.1476-8.0073 2.5277-11.76 0.98519-2.679 4.0447-7.5119 4.0447-7.5119-2.8417 0.04755-5.7434-0.01745-8.7066-0.9889-3.9105-1.282-7.8301-2.7148-10.841-4.541zm-4.2686 0.46414c-2.5559 0.04367-3.6933 0.82515-5.1138 1.4572 0 0 5.335 3.2571 7.1351 5.7641 1.9432 2.7061 2.8396 6.1366 3.5383 9.4312 0.84577 3.988 0.73026 12.226 0.73026 12.226s1.945-7.6296 1.9104-11.528c-0.03402-3.8326-0.30916-7.928-2.0778-11.294-1.3492-2.5677-6.1225-6.0568-6.1225-6.0568zm61.223 0.34915c-0.07429-0.07336-0.13738 0.47085-0.17954 1.3527-0.10353 2.1655-0.2598 3.8467-0.83717 5.9606-0.12424 0.45485-0.28127 0.90027-0.47204 1.3297l0.55274 0.34706c0.73006-1.6151 1.0279-3.2152 1.053-4.9842 0.01443-1.0153 0.1173-2.1353 0.02622-3.1465-0.04941-0.54864-0.09865-0.81526-0.14323-0.85928zm-23.136 1.0495-0.56282 0.46623 2.0798 2.5611s-1.1763 1.9796-1.4605 3.0273c-1.0745 3.9607-0.74689 8.2899-0.05649 12.341 0.60071 3.5252 1.6158 7.1391 3.5948 10.073 0.94374 1.3991 2.9814 1.816 3.7643 3.318 0.92658 1.7776 3.3065 3.9175 3.4818 3.4936l0.67377-0.63976c-0.42841 0.444-3.0541-2.2488-2.5841-2.9688 0.12591-0.19288-0.04159-1.5686-0.33689-2.2705-0.91631-2.1782-3.1743-3.5025-4.2686-5.5905-1.5374-2.9337-2.6482-6.1828-3.0905-9.4897-0.41186-3.0795-0.09337-6.2566 0.44986-9.3141 0.14262-0.80273 0.39337-2.2705 0.39337-2.2705zm32.016 0.2467c-1.1418-0.04894-2.2101 0.35992-3.0602 1.0454-0.76732 0.61865-1.3079 1.8007-1.3032 2.7848 0.0049 1.0028-0.12282 2.0223 0.04237 3.0085 0.4164 2.4862 1.6625 5.0165 3.3749 5.9941l0.43775-0.19234c-1.1885-1.7997-2.4363-3.6941-2.7697-5.8791-0.1974-1.2937-0.34825-2.4178 0.18156-3.5877 0.46169-1.0194 1.9223-2.2956 3.1006-2.2705 1.338 0.02846 2.5048 0.84911 3.5807 1.5931 0.93734 0.64821 2.3765 1.8142 3.1974 2.6134l0.27032-0.49759c-1.6979-1.6104-3.659-3.6925-5.8905-4.403-0.39149-0.12465-0.78137-0.19276-1.162-0.20907zm-76.451 0.04391-2.921 1.6893s1.5127 6.2557 3.034 9.0235c1.4668 2.6686 4.2892 4.3593 5.7291 7.0436 1.1768 2.1938 1.4704 4.7853 2.2473 7.1628 1.1912 3.6452 4.8705 10.519 5.6161 10.188-0.30348 0.07863-2.3598-5.8262-2.9755-8.7914-0.66036-3.1803-1.3265-6.3685-3.147-9.1406-1.0509-1.6002-1.4843-3.5609-2.4147-5.2393-0.84598-1.5262-2.1238-2.7836-2.8645-4.3675-1.1133-2.3804-2.3037-7.5684-2.3037-7.5684zm44.435 3.3765-1.517 0.6983c-0.76252 3.0705-1.7251 5.5271-1.9104 8.7914-0.11905 2.0976 0.2716 5.4222 0.95418 7.6269 0.83241 2.6886 1.6926 5.3279 3.3144 7.744 0.23453 0.34939 0.51251 1.2982 0.11297 1.3966-0.86778 0.21373-2.2001-1.2123-2.6971-1.9799-1.0133-1.5652-1.0284-3.614-1.5715-5.4128-0.66547-2.2042-1.1485-2.4165-1.0671 0.6983 0.04553 1.7423 0.38382 3.6781 1.404 5.0637 1.1941 1.6217 3.4262 2.0687 4.8879 3.435 1.7073 1.596 4.436 5.4735 4.436 5.4735s-0.82412-3.0938-1.5715-4.4825c-0.72082-1.3394-2.0422-2.2659-2.7536-3.6106-1.3722-2.5939-2.004-4.9799-2.8645-7.8004-0.32879-1.0777-0.61988-2.7364-0.84322-3.8427-1.0584-5.2426 1.6018-13.872 1.6864-13.799zm-2.5277 1.0474-1.63 0.64185s-1.3228 3.1549-1.6279 4.8316c-0.37852 2.0801 0.08851 4.2538-0.22594 6.3453-0.586 3.8976-2.5435 6.5058-2.6971 8.7329-0.05135 0.74469 0.3389 2.2141 0.3389 2.2141-0.10868 0.07509 0.47254-1.923 1.6279-3.6692 1.5986-2.4161 1.8427-5.5622 2.3602-8.4423 0.35789-1.9916 0.13395-4.0656 0.50432-6.0547 0.29294-1.5733 1.3496-4.5996 1.3496-4.5996zm39.04 0.21325c-0.22369-9e-3 -0.43915-0.0011-0.61729 0.02718-1.7351 0.27512-3.2465 0.43762-4.1657 1.9005l0.17349 0.41814c0.97598-0.90118 2.3135-1.1818 3.4395-1.3443 0.42581-0.06145 1.1217-0.48367 1.3455 0.0042 0.16796 0.36603-0.66245 1.1677-0.97233 1.3443-0.98115 0.55911-2.0988 0.89111-3.0602 1.4886-0.8171 0.50777-1.34 1.1808-1.3718 2.1681-0.02333 0.72529 0.48371 1.4107 0.66369 2.1074l0.60922-0.2467c-0.22244-0.89888-0.42497-1.9118 0.0021-2.7785 0.33353-0.67703 1.0893-0.89686 1.7167-1.175 0.98658-0.43737 2.0744-0.76288 2.8585-1.5555 0.42982-0.43446 1.0683-1.2559 0.88761-1.8565-0.087-0.28919-0.83785-0.47481-1.5089-0.50177zm-42.187 0.7192c-0.2247 0.05822-1.9104 0.58122-1.9104 0.58122s-2.0135 3.3009-2.2452 5.0658c-0.16743 1.2752-0.4029 3.0429-0.61931 4.541-0.39004 2.7001-1.6911 5.5955-1.7409 8.3252-0.05005 2.7444 1.0091 4.9222 1.4605 7.6269 0.2894 1.7338-0.11239 3.6505 0.61729 5.2393 0.61468 1.3384 2.9775 3.203 2.9775 3.203s-1.7177-2.1775-2.0778-3.4936c-0.5108-1.8671 0.20328-3.8913 0-5.8205-0.19778-1.877-1.1801-5.2991-1.1801-5.532 0-0.23288 1.6234-5.9456 2.2473-8.9649 0.49309-2.3866 0.56522-4.8632 1.1801-7.2192 0.31874-1.2213 0.67314-2.4459 1.2911-3.5521zm-46.736 5.647s-0.43603 2.3353 0.054466 3.318c1.2063 2.4167 4.288 3.1474 6.3484 4.8337 2.4085 1.9712 4.967 3.8076 7.0222 6.1697 1.7321 1.9908 4.3815 6.638 4.3815 6.638s-1.7116-5.0735-3.1449-7.2777c-1.7985-2.7658-4.1285-5.1937-6.6853-7.2192-1.864-1.4767-4.4701-1.8274-6.1789-3.4936-0.82113-0.80062-1.7974-2.9688-1.7974-2.9688zm-0.61931 7.9175s0.96131 2.9374 1.9669 4.0183c2.199 2.3638 5.8166 2.7516 8.3132 4.7731 1.1902 0.9637 3.0905 3.435 3.0905 3.435s-0.84711-3.909-2.4712-5.1808c-1.2442-0.97434-3.99-1.6296-4.3271-1.8043-0.33705-0.17466-6.5723-5.2414-6.5723-5.2414zm47.436 5.8122c-0.15147-0.01092-0.3569 0.291-0.6415 1.1164-0.28577 0.82884-0.61931 2.5611-0.61931 2.5611s0.84201-0.53337 1.2931-0.46414c0.50388 0.07734 0.76837 0.7225 1.2366 0.93036 1.0203 0.45294 0.58624-0.37895 0.2804-0.87392-0.3393-0.54913-1.0657-0.92082-1.1236-1.5701-0.07065-0.79189-0.17319-1.6815-0.42565-1.6997zm-44.852 3.3284 0.67377 2.2705s2.6307-0.18124 3.8772 0.17562c1.5183 0.43464 4.1556 2.329 4.1556 2.329s-2.0405-2.7088-3.4818-3.435c-0.93596-0.47164-2.0839-0.19219-3.0905-0.46623-0.60202-0.1639-2.1343-0.87392-2.1343-0.87392zm44.913 1.7813c-0.1464-0.0035-0.28721 0.0046-0.42161 0.02509-1.1053 0.16865-2.5841 2.212-2.5841 2.212l0.5608 1.1645s1.4562-1.3109 2.3602-1.5137c1.8637-0.41805 5.6746 0.75684 5.6746 0.75684s-3.3939-2.5912-5.5899-2.6447zm-43.563 3.2845 0.11095 1.106c-0.05002 0.20735 1.5358 0.93691 2.4732 0.52477 0.53103-0.23347 1.6844-0.40769 1.6844-0.40769 0.03897-0.10096-1.5451-0.92199-2.6406-0.58331-0.55654 0.17206-1.6279-0.63976-1.6279-0.63976zm44.743 0.84674c-0.14023-0.0051-0.28069 0.0034-0.42161 0.02718-0.61213 0.10331-1.63 0.93036-1.63 0.93036l0.33689 1.6308s0.87294-1.1721 1.517-1.3401c0.94739-0.24713 1.9048 0.83086 2.8645 0.64185 0.99491-0.19594 2.5277-1.7478 2.5277-1.7478s-1.4777 0.50886-2.2452 0.52477c-0.99925 0.02071-1.9676-0.63119-2.9493-0.66694zm-44.743 5.0323 0.05447 1.3987c1.5167 0.15831 3.0343-0.21825 4.551-0.991-1.5653 0.04999-3.1799 0.41161-4.6055-0.40769zm43.198 0.05854-0.39337 1.3987c1.6904 0.84163 3.0326-0.12183 4.438-0.75684-1.3868-0.01354-2.8009 0.11306-4.0447-0.64185z" fill="#3a3131" fill-rule="evenodd" stroke="#000" stroke-width=".29055"/>
  <path d="m103 31.636c-0.13701 0.10133-0.86082 1.2324-0.74236 1.9067 0.13095 0.74532 0.7545 1.4376 1.4847 1.4719 0.62394 0.02924 1.0795-0.52916 1.162-1.1708 0.0843-0.65613-0.33708-1.1573-0.80692-1.6057-0.30448-0.29057-0.76047-0.85128-1.0974-0.60212z" fill="url(#y)" fill-rule="evenodd" stroke="#f0f" stroke-width=".29055"/>
  <path d="m102.97 31.36c-0.50026 0.12995-0.57766 0.60874-0.77897 1.1032-0.17037 0.41845-0.28022 0.88658-0.15699 1.3346 0.1693 0.61546 0.54055 1.2043 1.0972 1.5051 0.44806 0.2421 1.0226 0.1601 1.4041-0.1843 0.47849-0.43198 0.77855-1.1219 0.62211-1.7792-0.14053-0.59041-0.59929-1.0054-1.0208-1.3903-0.37414-0.34164-0.6845-0.71437-1.1667-0.58912zm0.249 0.66657c0.41201 0.01017 1.2002 1.1655 1.4195 1.5244 0.25183 0.4121-0.20931 0.86912-0.56864 1.0627-0.20554 0.11071-0.62292 0.1753-0.99131-0.09072-0.20026-0.1446-0.49847-0.44514-0.53679-1.0526-0.0428-0.67842 0.43231-1.4499 0.67725-1.4438z" color="#000000" color-rendering="auto" fill="#8e776e" fill-rule="evenodd" image-rendering="auto" shape-rendering="auto" solid-color="#000000" style="block-progression:tb;isolation:auto;mix-blend-mode:normal;text-decoration-color:#000000;text-decoration-line:none;text-decoration-style:solid;text-indent:0;text-transform:none;white-space:normal"/>
  <g transform="matrix(1.0328 0 0 1.0704 -.061683 -10.365)" fill="#67534b" fill-rule="evenodd">
   <path d="m13.625 95.112c2.2531 1.3347 4.208 2.734 6.625 1.9375l0.375 2.375c-1.4499 1.1698-2.7092 1.0059-4 1.0625-1.7517-0.46749-3.4314-0.98898-3.875-2.4375-0.65225-1.114 0.48974-1.9717 0.875-2.9375z"/>
   <path d="m29.903 95.332c2.2531 1.3347 3.833 1.1715 6.25 0.375l0.625 2.5625c-1.4499 1.1698-2.7717 1.3809-4.0625 1.4375-1.7517-0.46749-3.2439 0.01101-3.6875-1.4375-0.65225-1.114 0.48974-1.9717 0.875-2.9375z"/>
   <path d="m54.341 101.02c2.2531 1.3347 4.1455 1.5465 6.5625 0.75 1.4486 0.80184 1.4553 2.0844 1.4375 3.375-1.4499 1.1698-3.5217 1.1309-4.8125 1.1875-1.7517-0.46749-2.4939-0.98899-3.4375-2.0625-0.65225-1.114-0.13526-2.2842 0.25-3.25z"/>
   <path d="m60.966 99.457c2.2531 1.3347 3.458 0.35903 5.875-0.4375 0.48032 0.9784 1.6563 1.493 1.25 3.0625-1.4499 1.1698-1.3342 1.3184-2.625 1.375-1.8767-0.03-2.6189 0.0735-3.8125-1.125-0.65225-1.114-1.0728-1.9092-0.6875-2.875z"/>
  </g>
  <g transform="matrix(1.0328 0 0 1.0704 -.061683 -10.365)" fill="url(#x)" fill-rule="evenodd" opacity=".321">
   <path d="m13.625 95.112c2.2531 1.3347 4.208 2.734 6.625 1.9375l0.375 2.375c-1.4499 1.1698-2.7092 1.0059-4 1.0625-1.7517-0.46749-3.4314-0.98898-3.875-2.4375-0.65225-1.114 0.48974-1.9717 0.875-2.9375z"/>
   <path d="m29.903 95.332c2.2531 1.3347 3.833 1.1715 6.25 0.375l0.625 2.5625c-1.4499 1.1698-2.7717 1.3809-4.0625 1.4375-1.7517-0.46749-3.2439 0.01101-3.6875-1.4375-0.65225-1.114 0.48974-1.9717 0.875-2.9375z"/>
   <path d="m54.341 101.02c2.2531 1.3347 4.1455 1.5465 6.5625 0.75 1.4486 0.80184 1.4553 2.0844 1.4375 3.375-1.4499 1.1698-3.5217 1.1309-4.8125 1.1875-1.7517-0.46749-2.4939-0.98899-3.4375-2.0625-0.65225-1.114-0.13526-2.2842 0.25-3.25z"/>
   <path d="m60.966 99.457c2.2531 1.3347 3.458 0.35903 5.875-0.4375 0.48032 0.9784 1.6563 1.493 1.25 3.0625-1.4499 1.1698-1.3342 1.3184-2.625 1.375-1.8767-0.03-2.6189 0.0735-3.8125-1.125-0.65225-1.114-1.0728-1.9092-0.6875-2.875z"/>
  </g>
  <path d="m74.128 55.095c-1.334 5.3413-4.3591 9.5639-7.2852 14.079-0.04888 2.4034-0.99797 3.9552-1.4864 5.6824 1.0257 2.1131 1.0353 3.0647-0.60287 4.5702-1.3769 3.6555-0.37363 8.6643 0.3018 12.34 1.9049 0.32512 3.165 2.3276 2.9431 3.9354 0.87863 0.69074 2.6855 1.974 1.4243 3.1006-1.2858 1.1487-4.0515 0.17656-4.8988 0.69598-0.12009 0.5636-0.15726 0.92887-0.19011 1.2305 2.2251 1.0795 4.9878 0.41649 6.5809-1.5099 0.07683-1.0441-0.334-2.3152-0.85852-3.2655-1.4126-1.214-1.3945-3.2349-2.8077-4.4734-1.6402-1.2633-1.4684-3.5806-1.8601-5.5061-0.29498-1.4498 0.01625-4.7649 0.47319-5.7662 1.4893-1.756 1.6233-3.0499 0.91354-5.2103 0.94735-1.5561 1.7322-3.4215 1.9066-5.311 2.99-4.4822 5.7133-9.3958 7.0565-14.722-0.58972-0.16237-1.0206 0.29274-1.6103 0.13038z" color="#000000" color-rendering="auto" fill="#666" fill-rule="evenodd" image-rendering="auto" shape-rendering="auto" solid-color="#000000" style="block-progression:tb;isolation:auto;mix-blend-mode:normal;text-decoration-color:#000000;text-decoration-line:none;text-decoration-style:solid;text-indent:0;text-transform:none;white-space:normal"/>
  <path d="m22.623 52.663-0.97433 0.63171c1.269 2.325 2.1936 3.7061 2.1171 7.0597-0.09361 4.1038-1.3765 5.5111-1.8814 6.8955-0.50047 1.3721-0.70092 2.1964-0.69354 3.0402 0.0073 0.84378 0.33317 1.7003 1.4686 4.1017 1.3389 2.2609 3.5886 4.8047 4.5207 12.304-0.24252 0.58867-0.38277 1.5022-0.51906 2.2208-0.25579 1.3487-0.15655 1.5984 1.1404 1.938l2.5196 0.65963c-0.25232 0.44775-0.85541 1.4944-1.0411 2.0098-0.32602 0.90498-0.99054 1.4851-0.22859 2.3995 0.83846 1.0061 2.1628 1.3676 3.2204 1.4683 1.0576 0.10073 2.0811-0.11877 3.0199-0.38261 1.0129-0.28467 2.175-0.66599 2.7295-1.2446 0.55453-0.57863 0.79706-1.3795 0.72312-2.1343-0.0518-0.52882-0.42228-1.0704-0.66475-1.6032-0.24247-0.53286-0.73167-1.0108-0.81569-0.94652-0.12722-0.85815-0.57739-1.6326-1.3402-2.3261-0.06392-0.41462-1.0461-0.7573-1.5559-1.271-0.44411-0.44752-0.49799-0.87547-0.6133-1.3543-0.92269-3.8313-2.7368-6.8988-4.0011-10.285-1.0871-2.9115-0.46378-6.4224 1.5257-9.0003 2.1414-2.7747 2.6697-5.9143 2.8931-8.812l-0.78521-0.2179c-0.20818 2.701-1.1793 5.8467-2.9409 8.1292-2.2843 2.9598-2.9614 6.4748-1.8902 10.066 1.1125 3.7301 3.1475 6.9079 3.5807 9.3007 0.44009 2.4311 1.1824 2.8073 1.4726 3.0997 0.29018 0.29241 1.4822 0.97959 1.5908 1.4788 0.83742 0.62048 1.1819 1.5816 1.5573 2.5213 0.35345 0.28746 0.73357 1.133 0.50424 1.7967-0.22932 0.66367-1.5759 0.99722-2.3685 1.22-0.84911 0.23864-1.7591 0.14116-2.4538 0.07496-0.69472-0.0662-1.246-0.29261-1.7792-0.93246-0.29082-0.34898-0.26857-0.55423-0.0585-1.1373 0.21007-0.58311 0.68606-1.3409 1.1196-2.1451l0.55475-1.0286c-1.6117-0.08403-3.9358 0.17832-4.3105-1.2787-0.20172-0.78437 0.06252-1.4109 0.58974-2.1908-0.25923-4.8553-3.1209-10.847-4.2726-13.318-1.1517-2.4709-1.2585-2.8011-1.2619-3.1978-0.0035-0.3967 0.13398-0.8941 0.62683-2.5392s1.5777-2.9366 1.618-7.0873c0.04084-4.198-1.8416-5.8584-2.6423-7.9838z" color="#000000" color-rendering="auto" fill="#666" fill-rule="evenodd" image-rendering="auto" shape-rendering="auto" solid-color="#000000" style="block-progression:tb;isolation:auto;mix-blend-mode:normal;text-decoration-color:#000000;text-decoration-line:none;text-decoration-style:solid;text-indent:0;text-transform:none;white-space:normal"/>
  <path d="m85.854-1.68c-0.22473 0.00193-0.36951 0.080124-0.38329 0.26552-0.0111 0.14916-2.0657 1.3381-2.0657 1.3381l2.2916 3.4455-0.48415 4.4825c0.77815-1.9923 2.2659-3.2491 3.7118-4.5494 1.0112-0.68049 2.1123-1.1745 3.5504-0.97009 0.32391 0.96653 0.99479 0.85425 0.35504 4.817-0.30814 0.79807-0.5459 1.6448-1.0974 2.2747-0.28617 0.91739-0.63229 1.8697 0.41959 2.0071 0.11664 0.02521 0.23261 0.03678 0.34899 0.05854-0.36911 0.45839-0.69799 1.2561-0.54265 1.6747 0.74441 0.90206 0.18763 1.3946 0.16139 2.2559 0.31272 0.5706 0.58794 0.89502 0.64553-0.20907 0.0927-0.77208 0.50791-1.0951 0.0323-1.8586-0.29726-0.4045-0.24008-0.8083 0.13314-1.5555 0.0293-0.09152 0.0444-0.14476 0.0686-0.22162 1.6333 0.25977 3.2552 0.37066 4.9625 1.6287 0.55532-0.68581 1.1514-1.228 1.2911-3.3786-0.45947-2.2183-1.1591-1.9472-1.7752-2.5423-0.087-2.0104-1.2276-3.9661-3.034-5.8874-1.3952-1.5517-3.102-1.9495-5.0997-1.2712-0.0232-0.38482-2.5161-1.8126-3.4899-1.8043zm-4.3291 1.6203c-0.53566-0.011143-1.1071 0.12269-1.6501 0.14217l-2.7516 2.0949-0.44985 1.5137c-1.2014-0.45106-1.9794-0.24244-2.5841 0.23416-1.9132 1.2401-2.8616 2.5624-2.9775 3.9577 1.4495 2.507 3.2327 4.3252 5.2812 5.5905-0.8239 2.29-0.84334 4.664 0 7.1021 0 0 1.4714 4.0973 2.1343 6.1718 0.56616 1.7716 0.6346 3.7639 1.5735 5.3564 0.85616 1.4522 3.5383 3.55 3.5383 3.55l1.2366-2.2705c-2.4189-0.24586-4.1697-1.3307-4.2141-2.2705-0.17916-3.79-1.1057-5.2527-1.6844-7.8004-0.87933-3.871-1.433-7.2964-1.6864-10.945l-2.5841-3.4936c-0.17744-0.68656-0.90276-1.7386 0.89971-1.106l3.5948 2.6782s-0.36672 3.8898-0.16946 5.8205c0.2396 2.345 1.249 4.5452 1.63 6.8701 0.29604 1.8067-0.0228 3.7249 0.50634 5.4735 0.30861 1.0198 1.515 2.7953 1.515 2.7953s-0.62785-2.2321-0.78473-3.3786c-0.46848-3.4236 0.27274-6.9858-0.44985-10.362-0.20184-0.94293-1.0671-2.4453-1.0671-2.6782s0.0565-5.8812 0.0565-5.8812l-2.3037-3.0859c-0.31222-1.0582-0.3008-1.8512 1.4605-1.221 1.4288 1.127 2.041 2.0425 2.921 3.0273-0.44714 1.5201-1.0827 2.9589-0.95418 4.2483 0.23477 2.355 1.0439 3.691 1.0672 5.532 0.0536 4.2477-0.31234 6.4072 0.11095 7.3363 0.25144-2.462 1.6282-6.8223 1.0127-8.7914l-1.2931-4.1333c-0.36013-1.1522 0.0209-2.2628 1.0107-3.9013 0.0386-2.8588 0.30662-4.301-0.50432-7.4534-0.40397-0.5571-0.90469-0.71224-1.4403-0.72338zm-10.47 8.9336c-0.86327-0.16992-1.6144 0.3573-2.3582 0.93036-0.37032 0.98542 0.6508 1.7089 1.9084 2.3876 1.5738 1.3195 2.1504 2.8464 3.034 4.3089l-0.33689 3.435-0.89769-2.2705c-0.58446-2.6158-2.3482-4.0102-3.7642-5.7641-1.1366-0.03421-1.8676 0.2585-1.9104 1.106 1.6789 1.5792 3.4532 2.1615 4.9988 5.1222 0 0 0.74393 2.8862 1.1801 4.3089 0.63127 2.0591 1.8949 3.9611 2.0778 6.1132 0.46615 5.4843 4.7811 12.235 5.2812 11.528l0.89971-1.6308c-0.23521-0.59225-2.8629-5.4291-3.5403-9.3726-0.48574-2.8277-2.1054-5.3453-2.6951-8.1517-0.36437-1.734-0.50633-5.2978-0.50633-5.2978-0.36264-2.1061-1.241-4.5008-3.3709-6.753zm20.268 1.3715c-0.0816 0.02253-0.24784 0.16264-0.53055 0.43905-0.38291 0.75073-1.0599 1.2576-1.0611 2.3249 0.89599 0.66564 1.1358 1.4346 1.2265 2.3228 0.31273 0.5706 0.58795 0.89502 0.64553-0.20907l-0.77463-2.1262c-0.29726-0.4045-0.27236-0.70794 0.35907-1.9569 0.17347-0.54147 0.27111-0.83202 0.13516-0.79447zm3.4314 1.66c-0.0816 0.02253-0.24582 0.16263-0.52853 0.43905-0.38292 0.75073-0.76944 1.1573-0.48011 1.4551 0.7444 0.90206 0.18762 1.3946 0.16138 2.2559 0.31272 0.5706 0.58794 0.89502 0.64553-0.20907 0.0927-0.77208 0.50792-1.0951 0.0323-1.8586-0.29726-0.4045-0.27235-0.7414 0.0363-1.2879 0.17347-0.54147 0.26909-0.83202 0.13314-0.79447zm-7.0887 0.16098c-1.0556 1.2437-1.9998 1.7366-2.4974 3.6922-0.14609 0.57416-0.35748 1.9481-0.0706 2.904 0.28688 0.95589 0.73106 1.9191 0.97233 4.5097 0.24127 2.5905-0.49519 5.302 0.36916 8.574l0.38732-0.08781c-0.64505-3.1444 0.25743-5.5915-0.19769-9.6674-0.1612-1.4436-0.27395-2.7442-0.54467-3.6462-0.27067-0.90186-0.29536-1.5329-0.12709-2.3792 0.22803-1.147 1.0404-2.5702 1.7086-3.8992zm1.4202 1.0328c-0.79734 1.411-1.4189 1.4021-1.9164 3.3577-0.14608 0.57416-0.13154 1.9481 0.15533 2.904 0.28688 0.95589 1.2412 1.9223 0.97032 4.5097-0.27751 2.6503-2.1646 5.4945 0.37118 8.574l0.38732-0.08781c-1.6964-3.0803-0.071-5.5715-0.1977-9.6674-0.0449-1.4525-0.69354-2.5769-0.96426-3.4789-0.27066-0.90186-0.33104-1.8618-0.19164-2.7137 0.22803-1.3937 1.105-1.5667 1.3859-3.3974zm8.053 0.67112-0.35504 0.03764c-0.2285 1.4266-0.12811 3.0199 0.38328 4.3905 0.44309 1.1875 2.223 3.0462 2.223 3.0462l3.0078 3.228 0.19769-0.25925-2.9251-3.3807s-1.5881-1.8316-2.0112-2.9542c-0.4849-1.2865-0.70008-2.639-0.52046-4.1082zm-1.2184 0.37214-0.35504 0.03764c-0.2285 1.4266-0.12811 3.0199 0.38328 4.3905 0.44309 1.1875 1.9668 3.1465 1.9668 3.1465l4.3291 4.0643 0.1977-0.25925-4.2161-4.1166s-1.3622-2.0323-1.7853-3.1549c-0.4849-1.2865-0.70008-2.639-0.52046-4.1082zm-30.651 0.08781-0.2804 0.93036 3.7622 5.1829s-0.27738 3.2297-0.11095 4.8316c0.22899 2.2042 1.1803 4.2731 1.517 6.4624 0.3045 1.9799-0.23295 4.1195 0.44784 5.9961 0.74861 2.0636 2.8194 3.3528 3.8207 5.2978 0.66352 1.2888 1.404 4.1333 1.404 4.1333 0.3108 0.35751 3.1654-2.2874 3.1228-2.8664 0.0968-0.05422-2.5842 2.385-2.5357 1.2272 0.1692-1.762 0.0627-4.5263-0.19365-6.1613-0.36704-2.3407-1.8659-4.3511-2.4712-6.638-0.41694-1.5753-0.33571-3.2664-0.78674-4.8316-0.66702-2.3148-2.2391-4.2932-2.8081-6.6359-0.11463-0.47199-0.11296-1.4572-0.11296-1.4572zm-2.8081 3.7842-0.50634 0.46623c1.6681 1.1835 2.6635 2.5044 3.5948 3.8406 0 0-0.80423 2.2924-0.89769 3.4936-0.10588 1.3608 0.2889 2.7159 0.39337 4.0769 0.25139 3.2751-0.69405 6.8218 0.5608 9.8389 1.3738 3.3032 6.7413 7.4951 7.1351 7.859 1.3772 1.2723 3.1868 2.2804 1.404-0.75684 0 0-3.1258-4.4556-4.1011-6.9871-1.1154-2.8952-1.9104-9.1406-1.9104-9.1406-0.57812-2.7667-1.6436-5.443-1.3476-8.7893-0.90336-1.4863-2.5313-2.7226-4.325-3.9013zm-34.604 1.1645-1.2931 0.34915s6.9256 4.0357 8.3717 7.5684c1.1497 2.8085-0.0543 6.1175-0.44985 9.1406-0.37119 2.8367-1.0656 5.6233-1.7974 8.3837-0.38124 1.438-1.3355 2.7592-1.3496 4.2504-0.0294 3.106 2.6406 8.9064 2.6406 8.9064l1.4605 0.40769s-1.5422-5.0709-1.517-7.6854c0.0392-4.0581 1.6576-7.9321 2.5841-11.875 0.68244-2.9041 1.9386-5.6989 2.1908-8.6764 0.0608-0.71764-0.55867-1.558-0.16743-2.1534 0.36342-0.55311 1.2224-0.72099 1.8539-0.58122 0.92162 0.20401 1.898 0.97585 2.1343 1.9214 0.31125 1.2453-1.1749 1.6972-1.6158 2.8935-0.51424 1.3951-0.43233 3.3959-0.86339 4.9947-0.37414 1.3877-1.2734 2.3714-1.5654 3.6378-0.83311 3.6124-1.5854 7.3601-1.2931 11.062 0.22912 2.9013 2.3602 8.3837 2.3602 8.3837l1.2931 0.23207s-0.92539-7.0528-0.84323-10.596c0.0658-2.8372 0.3728-5.6949 1.0671-8.4402 0.91607-3.6219 1.9343-7.3832 4.0447-10.422 0.38796-0.55867 0.86201-1.2262 1.517-1.3401 0.4561-0.07934 1.1125 0.08264 1.2911 0.52477 0.88108 2.1813-1.9798 4.2754-2.6951 6.5209-0.9412 2.9546-1.9351 5.9742-2.0798 9.082-0.13944 2.9936 0.67099 5.9583 1.1801 8.9085 0.32074 1.8586 0.5516 3.7577 1.1801 5.5299 0.12426 0.35038 0.50432 0.9889 0.50432 0.9889l2.0798 0.05854c-0.0827 0.11424-1.9256-1.8271-1.5735-3.6086 0.54772-2.7713 0.27565-6.6569-0.0565-10.945-0.3101-4.0033 1.1476-8.0073 2.5276-11.76 0.98519-2.679 4.0446-7.5119 4.0446-7.5119-2.8417 0.04755-5.7434-0.01745-8.7066-0.9889-3.9105-1.282-7.8301-2.7148-10.841-4.541zm-4.2686 0.46414c-2.5559 0.04367-3.6933 0.82515-5.1138 1.4572 0 0 5.335 3.2571 7.1351 5.7641 1.9432 2.7061 2.8396 6.1366 3.5383 9.4312 0.84578 3.988 0.73026 12.226 0.73026 12.226s1.945-7.6296 1.9104-11.528c-0.034-3.8326-0.30916-7.928-2.0778-11.294-1.3492-2.5677-6.1225-6.0568-6.1225-6.0568zm61.223 0.34915c-0.0743-0.07336-0.13738 0.47085-0.17954 1.3527-0.10353 2.1655-0.2598 3.8467-0.83717 5.9606-0.12424 0.45485-0.28127 0.90027-0.47205 1.3297l0.55274 0.34706c0.73006-1.6151 1.0279-3.2152 1.053-4.9842 0.0144-1.0153 0.1173-2.1353 0.0262-3.1465-0.0494-0.54864-0.0986-0.81526-0.14323-0.85928zm-23.136 1.0495-0.56282 0.46623 2.0798 2.5611s-1.1763 1.9796-1.4605 3.0273c-1.0745 3.9607-0.74689 8.2899-0.0565 12.341 0.60071 3.5252 1.6158 7.1391 3.5948 10.073 0.94374 1.3991 2.9814 1.816 3.7642 3.318 0.92658 1.7776 3.3065 3.9175 3.4818 3.4936l0.67377-0.63976c-0.42841 0.444-3.0541-2.2488-2.5841-2.9688 0.12592-0.19288-0.0416-1.5686-0.33688-2.2705-0.91631-2.1782-3.1744-3.5025-4.2686-5.5905-1.5374-2.9337-2.6482-6.1828-3.0905-9.4897-0.41186-3.0795-0.0934-6.2566 0.44985-9.3141 0.14262-0.80273 0.39337-2.2705 0.39337-2.2705zm32.016 0.2467c-1.1418-0.04894-2.2101 0.35992-3.0602 1.0454-0.76731 0.61865-1.3079 1.8007-1.3032 2.7848 5e-3 1.0028-0.12282 2.0223 0.0424 3.0085 0.41639 2.4862 1.6625 5.0165 3.3749 5.9941l0.43775-0.19234c-1.1885-1.7997-2.4363-3.6941-2.7697-5.8791-0.1974-1.2937-0.34825-2.4178 0.18156-3.5877 0.46169-1.0194 1.9223-2.2956 3.1006-2.2705 1.338 0.02846 2.5048 0.84911 3.5807 1.5931 0.93734 0.64821 2.3765 1.8142 3.1974 2.6134l0.27032-0.49759c-1.6979-1.6104-3.659-3.6925-5.8905-4.403-0.39148-0.12465-0.78137-0.19276-1.162-0.20907zm-76.451 0.04391-2.921 1.6893s1.5127 6.2557 3.034 9.0235c1.4668 2.6686 4.2892 4.3593 5.7291 7.0436 1.1768 2.1938 1.4704 4.7853 2.2473 7.1628 1.1912 3.6452 4.8705 10.519 5.6161 10.188-0.30347 0.07863-2.3598-5.8262-2.9755-8.7914-0.66035-3.1803-1.3265-6.3685-3.147-9.1406-1.0509-1.6002-1.4843-3.5609-2.4147-5.2393-0.84598-1.5262-2.1238-2.7836-2.8645-4.3675-1.1133-2.3804-2.3037-7.5684-2.3037-7.5684zm44.435 3.3765-1.517 0.6983c-0.76252 3.0705-1.7251 5.5271-1.9104 8.7914-0.11905 2.0976 0.2716 5.4222 0.95418 7.6269 0.83241 2.6886 1.6926 5.3279 3.3144 7.744 0.23453 0.34939 0.51251 1.2982 0.11296 1.3966-0.86778 0.21373-2.2001-1.2123-2.6971-1.9799-1.0133-1.5652-1.0284-3.614-1.5715-5.4128-0.66547-2.2042-1.1485-2.4165-1.0671 0.6983 0.0455 1.7423 0.38382 3.6781 1.404 5.0637 1.1941 1.6217 3.4262 2.0687 4.8879 3.435 1.7073 1.596 4.436 5.4735 4.436 5.4735s-0.82412-3.0938-1.5715-4.4825c-0.72082-1.3394-2.0422-2.2659-2.7536-3.6106-1.3722-2.5939-2.004-4.9799-2.8646-7.8004-0.32878-1.0777-0.61987-2.7364-0.84322-3.8427-1.0584-5.2426 1.6018-13.872 1.6864-13.799zm-2.5277 1.0474-1.63 0.64185s-1.3228 3.1549-1.628 4.8316c-0.37852 2.0801 0.0885 4.2538-0.22594 6.3453-0.586 3.8976-2.5435 6.5058-2.6971 8.7329-0.0514 0.74469 0.3389 2.2141 0.3389 2.2141-0.10868 0.07509 0.47254-1.923 1.628-3.6692 1.5986-2.4161 1.8427-5.5622 2.3602-8.4423 0.35789-1.9916 0.13395-4.0656 0.50432-6.0547 0.29294-1.5733 1.3496-4.5996 1.3496-4.5996zm39.04 0.21325c-0.22369-9e-3 -0.43914-0.0011-0.61728 0.02718-1.7351 0.27512-3.2465 0.43762-4.1657 1.9005l0.17348 0.41814c0.97598-0.90118 2.3135-1.1818 3.4395-1.3443 0.42581-0.06145 1.1216-0.48367 1.3455 0.0042 0.16796 0.36603-0.66245 1.1677-0.97233 1.3443-0.98115 0.55911-2.0988 0.89111-3.0602 1.4886-0.8171 0.50777-1.34 1.1808-1.3718 2.1681-0.0233 0.72529 0.4837 1.4107 0.66368 2.1074l0.60922-0.2467c-0.22244-0.89888-0.42497-1.9118 2e-3 -2.7785 0.33353-0.67703 1.0894-0.89686 1.7167-1.175 0.98658-0.43737 2.0744-0.76288 2.8585-1.5555 0.42981-0.43446 1.0683-1.2559 0.88761-1.8565-0.087-0.28919-0.83785-0.47481-1.5089-0.50177zm-42.187 0.7192c-0.2247 0.05822-1.9104 0.58122-1.9104 0.58122s-2.0135 3.3009-2.2452 5.0658c-0.16744 1.2752-0.4029 3.0429-0.61931 4.541-0.39004 2.7001-1.6911 5.5955-1.7409 8.3252-0.05 2.7444 1.0091 4.9222 1.4605 7.6269 0.2894 1.7338-0.11239 3.6505 0.61729 5.2393 0.61468 1.3384 2.9775 3.203 2.9775 3.203s-1.7177-2.1775-2.0778-3.4936c-0.5108-1.8671 0.20328-3.8913 0-5.8205-0.19779-1.877-1.1801-5.2991-1.1801-5.532 0-0.23288 1.6234-5.9456 2.2472-8.9649 0.49309-2.3866 0.56522-4.8632 1.1801-7.2192 0.31873-1.2213 0.67314-2.4459 1.2911-3.5521zm-46.736 5.647s-0.43602 2.3353 0.0545 3.318c1.2063 2.4167 4.288 3.1474 6.3484 4.8337 2.4085 1.9712 4.967 3.8076 7.0222 6.1697 1.7321 1.9908 4.3815 6.638 4.3815 6.638s-1.7116-5.0735-3.1449-7.2777c-1.7985-2.7658-4.1286-5.1937-6.6853-7.2192-1.864-1.4767-4.4701-1.8274-6.1789-3.4936-0.82113-0.80062-1.7974-2.9688-1.7974-2.9688zm-0.6193 7.9175s0.96131 2.9374 1.9668 4.0183c2.199 2.3638 5.8166 2.7516 8.3132 4.7731 1.1902 0.9637 3.0905 3.435 3.0905 3.435s-0.84711-3.909-2.4712-5.1808c-1.2442-0.97434-3.99-1.6296-4.3271-1.8043-0.33705-0.17466-6.5723-5.2414-6.5723-5.2414zm47.436 5.8122c-0.15147-0.01092-0.3569 0.291-0.64149 1.1164-0.28578 0.82884-0.61931 2.5611-0.61931 2.5611s0.84201-0.53337 1.2931-0.46414c0.50388 0.07734 0.76837 0.7225 1.2366 0.93036 1.0203 0.45294 0.58624-0.37895 0.28041-0.87392-0.3393-0.54913-1.0657-0.92082-1.1236-1.5701-0.0707-0.79189-0.17319-1.6815-0.42565-1.6997zm-44.852 3.3284 0.67377 2.2705s2.6306-0.18124 3.8772 0.17562c1.5183 0.43464 4.1556 2.329 4.1556 2.329s-2.0405-2.7088-3.4818-3.435c-0.93596-0.47164-2.0839-0.19219-3.0905-0.46623-0.60202-0.1639-2.1343-0.87392-2.1343-0.87392zm44.913 1.7813c-0.1464-0.0035-0.28721 0.0046-0.42161 0.02509-1.1053 0.16865-2.5841 2.212-2.5841 2.212l0.5608 1.1645s1.4562-1.3109 2.3602-1.5137c1.8637-0.41805 5.6746 0.75684 5.6746 0.75684s-3.3939-2.5912-5.5899-2.6447zm-43.563 3.2845 0.11095 1.106c-0.05 0.20735 1.5358 0.93691 2.4732 0.52477 0.53103-0.23347 1.6844-0.40769 1.6844-0.40769 0.039-0.10096-1.5451-0.92199-2.6406-0.58331-0.55655 0.17206-1.628-0.63976-1.628-0.63976zm44.743 0.84674c-0.14023-0.0051-0.28069 0.0034-0.42161 0.02718-0.61213 0.10331-1.63 0.93036-1.63 0.93036l0.33689 1.6308s0.87294-1.1721 1.517-1.3401c0.94739-0.24713 1.9048 0.83086 2.8645 0.64185 0.99491-0.19594 2.5277-1.7478 2.5277-1.7478s-1.4777 0.50886-2.2452 0.52477c-0.99925 0.02071-1.9676-0.63119-2.9493-0.66694zm-44.743 5.0323 0.0545 1.3987c1.5167 0.15831 3.0343-0.21825 4.551-0.991-1.5653 0.04999-3.1799 0.41161-4.6055-0.40769zm43.198 0.05854-0.39337 1.3987c1.6904 0.84163 3.0326-0.12183 4.438-0.75684-1.3868-0.01354-2.8009 0.11306-4.0447-0.64185z" fill="url(#u)" fill-rule="evenodd" opacity=".296" stroke="#868686" stroke-width=".29055"/>
  <path d="m6.0709 57.326c-0.2753 1.9507 0.34582 4.4984 1.0974 7.1586 1.1208 1.4282 2.167 2.8178 3.615 4.4156 1.6138 1.2565 3.2277 1.1455 4.8415 1.405 0.53153-0.27425 1.289-0.31435 0.83919-1.6057-0.87251-0.6647-1.6877-1.5672-2.3885-2.9437l-2.1948-5.6198-3.4213-3.3451" fill="url(#w)" fill-rule="evenodd" opacity=".287" stroke="#f00" stroke-width=".29055"/>
  <path d="m86.048-2.1358c-2.6067 0.068692-2.3978 0.9183-3.3588 1.6914-2.2969-0.24532-2.4724-0.33855-4.3936 0.78401-2.1302 1.2447-1.6257 2.1584-2.0798 2.7702-2.1719-0.44492-2.1705-0.14462-4.5127 2.1032-1.9884 1.9083-1.0087 2.7204-0.90778 3.1632-0.30211 0.090409-0.96881-0.79566-2.0132 0.52686-0.66176 0.83795-0.95298 1.412-0.50836 2.3458-0.82406 0.08044-1.3565-0.22723-3.04 1.6537-1.6048 1.793-1.4936 2.0045-1.3415 3.0503-0.85787 0.39181-0.9784-0.73738-2.5398 1.9485-1.1029 1.8973-1.0434 2.4018-0.7242 2.9751-0.38593 0.30778-0.71981 0.55792-0.85734 1.8315-0.0987 0.91394 0.43355 1.5199 0.47003 1.8649-0.40725 0.15299-1.6012 0.70458-2.9694 1.1415-1.7174 0.54842-3.8573 0.72235-5.132 0.81119-2.2108 0.15408-4.5798-0.28919-6.8527-0.88646-3.2336-0.84971-5.569-1.7622-8.8034-3.2427-1.1427-0.52305-2.7169-1.6199-4.3069-2.4566-1.59-0.83668-3.248-1.6246-4.9403-1.6454-4.3673-0.05378-9.7015 0.88736-13.3 3.826-1.0805 0.88238-2.023 1.9177-2.8545 3.0441-0.0099-0.01686-0.01193-0.02661-0.02219-0.04391-4.1373 3.0897-7.9881 7.3824-8.8196 12.762-0.83171 5.381-0.21061 11.028 1.6501 16.036 0.51308 1.3808 1.5022 1.9238 1.7732 3.3347-0.27554 2.4742 0.20718 6.4672 1.7772 8.4067 1.4303 1.7669 2.4488 3.3312 4.1959 4.3319 0.33577 0.73314 0.99622 1.2367 1.0954 1.7457-0.04415 0.99359-0.57461 2.5799-0.1049 3.9912 0.46971 1.4112 0.36357 3.6286 0.24409 5.7223s-0.36171 3.5632-0.48415 4.9633c-0.12243 1.4001-0.24158 2.8329 0.22594 3.3681l1.0893 1.2482c-0.24622 0.33452-0.4816 0.64567-0.74438 1.0558-0.20219 0.31557-0.39316 0.65175-0.49827 1.0725-0.10448 0.41829-0.07818 1.3549 0.13112 1.8356 0.40768 0.93637 1.0082 1.9564 2.5297 2.4566 2.6908 0.88463 4.2969 0.17252 5.1037 0.01252 0.90274-0.17892 1.8814-0.86085 1.989-1.6391 0.09783-0.70738-0.37062-1.7851-0.49222-2.1639l-0.817-2.5402c-0.14289-0.44512-0.31037-1.2357-0.68991-1.7416-0.33676-0.44882-0.85924-0.69935-1.0671-0.95545 0.03303-0.81525 0.31924-0.90418 0.37522-1.8837 0.02986-0.52261-0.23716-1.4354-0.58905-1.8001 0.2035-2.7824 0.22313-5.3004-0.18962-8.0659-0.10852-0.72714-0.32587-1.7425 0.29251-2.6489 0.60562-0.88774 1.0056-2.696 0.59913-4.0727-0.87303-2.9569-0.17049-3.6594 0.55475-5.6345 1.7378-4.7324 2.5676-8.0946 2.9715-11.9 0.35099-0.2714 0.60727-0.66057 0.69394-1.2607l2.4107 2.4127c2.9073 2.9092 6.2085 5.2713 10.48 6.6296 3.3767 1.0738 6.3416 2.0268 9.5054 2.3102 1.8093 0.16207 3.527 0.229 5.1057 0.19862 1.0435-0.02007 1.9016-0.20616 2.7375-0.37214-0.08795 1.0248-0.22487 1.6068-0.2804 2.7618-0.06725 1.3987 0.17716 2.9033 1.049 4.2588 0.01935 2.4101-0.084 5.0357 0.89567 7.2861-0.72046 1.7748-0.48443 2.5838 0.33285 4.8442s0.78934 6.4014 0.27637 8.5238c-0.51298 2.1224-0.65931 2.5882-0.62132 3.2573 0.0264 0.46496 0.3819 1.0068 0.69596 1.5346l-1.1499 2.6657-0.55274 2.1032c-0.1524 0.57982-0.01072 1.1427 0.2219 1.6036 0.23262 0.46089 0.56759 0.86262 0.96628 1.2293 0.79738 0.73343 1.8612 1.3287 3.0279 1.5973 1.3289 0.30597 2.6952 0.12892 3.7945-0.19862 0.54966-0.16377 1.0302-0.36476 1.4282-0.60421 0.55037-0.2623 0.75771-0.78876 0.9683-1.1959 0.16606-1.0326 0.17373-1.9106-0.12104-2.6991-0.2193-0.5866-0.72148-0.95783-1.2023-1.336l-0.53055-2.6573-0.94005-1.5116c0.53921-1.8298 0.30689-3.0844 0.03632-4.1689l-0.62132-6.9725c1.4569-2.2553 0.95429-4.6684 0.33689-6.178 0.01815-1.9213-0.19047-3.6926 0.67579-6.2596 0.86626-2.5669 1.2784-5.4737 1.5513-7.8109 1.6053 0.26215 2.9953-0.03654 4.0467-0.4955l4e-3 -0.0021 4e-3 -0.0021c2.5928-1.1633 4.128-3.1915 5.481-5.1222 2.7771-1.9874 4.8781-4.2911 5.6-7.1523 0.18081-0.71595 0.6195-1.4704 0.95821-2.4022 0.287-0.78962 0.11742-1.8752-0.18156-2.9144 0.35403-0.76507 0.8349-1.4846 1.1377-2.2621 0.25668-1.9556 0.72289-2.7177 1.1821-3.3493 0.44566-0.6129 1.1116-1.1956 1.7268-2.352l2.3461-3.4997c0.80945 0.48205 1.6574 0.27884 2.6164 0.72338 1.2334 0.57175 2.509 1.343 3.7441 1.3861 1.3411 0.04683 2.5826 1.5154 3.4173 2.2308l2.8323 2.4273c0.67357 0.57726 1.5594 0.61888 2.2372 0.6983 0.78101 0.0915 1.7379-0.29909 2.1646-1.5053 1.4652 0.06847 3.1721-1.6406 3.7037-2.8371 0.54072-1.217 0.72362-1.9784 0.82103-4.1501 0.0974-2.1717-1.9479-5.2363-3.6008-6.1425-1.0327-2.939-2.2409-5.2701-3.9075-7.7795-0.0786-1.1754-0.17404-2.1242-0.79682-2.9772-0.40447-0.55399-1.0189-1.1156-1.5896-1.5471 1.1034-0.7385 1.8513-1.6872 1.4888-3.6838-0.36033-1.198-0.56395-1.9665-0.94611-2.4169 0.7184-1.0596 1.5211-2.3091 2.0718-3.5375 0.70887-1.5812 0.66808-2.7163 0.28443-3.3932-0.28542-0.50365-1.3109-0.64798-1.8478-0.53522-0.5742 0.12059-1.3697 0.4937-1.87 0.76938l-2.0899 1.1498c-0.79651-0.87311-1.2946-1.62-2.221-2.0426-1.2035-0.54899-2.7667-0.87339-3.9498-0.21952-0.7935-0.81159-0.38149-1.6807-3.151-1.6078zm-0.32882 1.5367c2.2269-0.039978 2.801 0.18565 3.2256 1.2461 1.0129-0.39092 2.6583-0.18869 3.4939 0.1359 1.4882 0.5781 1.6424 1.0678 2.4207 1.9736 1.2049 1.4023 1.9422 3.3901 2.1565 4.8881 0.81453 0.23961 1.3666 1.1947 1.5997 1.9736 0.03329 0.61155-0.37982 1.9892-0.72824 2.6385l-0.86945 0.79656c1.2785 0.72588 1.5903 1.6688 1.8095 2.6677 0.23666 1.0784 0.32457 1.8078 0.34496 2.7326 1.9125 2.1749 3.1156 4.8644 4.5409 7.3927 1.2671 0.84889 3.0464 4.191 2.9795 6.1864s-0.2541 2.6824-0.70404 3.3786c-0.87675 1.3565-1.9352 1.8557-3.1994 2.1994h-2e-3c-0.47537-0.07072-0.95628-0.34-1.3314-0.63139-0.27706-0.21522-0.59396-0.42326-0.76253-0.73593-0.4204-0.77973-0.67486-1.6727-1.285-2.329-0.45589-0.49044-1.1075-0.60519-1.7429-0.76729-0.66097-0.16862-0.77313 0.28007-0.32277 0.64185 0.70002 0.32292 1.343 0.82675 1.7127 1.5388 0.2852 0.54935 0.41944 1.1924 0.79481 1.6809 0.54788 0.71308 1.3349 1.2513 2.2029 1.4593-0.16279 0.07997-0.33495 0.13293-0.49222 0.16517-0.34292 0.07029-0.92207-0.15726-1.4807-0.65857l-2.4671-2.2141c-1.4255-1.2793-2.7501-2.5876-4.7164-2.4231-0.66373 0.05552-2.3293-0.52078-3.272-1.2837-1.2581-0.60948-1.6384-0.08792-2.7132-0.84464-1.1864-0.83528-2.4822-2.2413-2.9372-3.5291-0.55118-1.5601-0.52402-3.1653-0.4781-4.8295 0.08271-2.9972-0.5108-0.84409-0.62334-0.08781-0.24656 1.6568-0.4235 3.7098 0.10288 5.4107 0.41314 1.335 1.1553 2.6668 2.2271 3.4978l-2.4449 3.6483c-0.4686 0.92088-1.1916 1.6174-1.6542 2.2454-0.59795 0.82235-1.1173 2.0221-1.4101 4.0351l-1.1579 2.6594c0.46299 0.79684 0.31543 1.6445 0.17752 2.304-0.25335 0.69703-0.74509 1.5213-1.4625 3.5019-0.71744 1.9806-2.7529 3.9979-4.7063 5.3919-1.5628 1.9415-3.1099 3.8791-4.8859 4.7104-1.2611 0.55057-2.1696 0.95906-3.8127 0.33033l-1.0409-0.39724-0.17954 1.1353c-0.46024 2.9273-0.49816 6.0697-1.4444 8.6597-0.94621 2.59-0.50358 4.2214-0.36311 6.799-0.0771 2.0961 0.08031 3.9563-0.92997 5.4923l0.87147 8.4694c0.19903 1.8924 0.21201 1.8835-0.38127 3.4685l1.1922 1.9151 0.57896 2.9082 0.36109 0.21117c0.49796 0.2913 0.69053 0.51329 0.80893 0.83001 0.10517 0.2813 0.10845 0.8133-0.08472 1.2565-0.19318 0.44324-0.55947 0.60543-0.99049 0.73384-0.86203 0.25683-1.9898 0.37887-2.8908 0.17144-0.81878-0.18851-1.6658-0.66515-2.2109-1.1666-0.32877-0.20083-0.48959-0.66943-0.63746-0.91363l0.51642-1.9632 1.4867-3.4455-0.40144-0.45786c-0.46856-0.53721-0.51797-0.79051-0.53256-1.0474-0.01352-0.23826-0.26999 0.47115 0.15331-1.6726 0.4233-2.1437 0.63583-7.125-0.02421-10.443-0.79843-1.5083-0.52771-3.2586 0-4.4177-1.0584-2.4754-0.99511-5.4294-1.0167-7.7732-0.83573-1.1262-1.0923-2.5341-1.045-3.6587 0.06253-1.3004 0.3589-2.7633 0.37118-4.2901 0.56799-1.9173 0.39275-3.1859-0.0061-4.1689-0.59841-1.4753-2.151-2.5926-2.5156-3.9431-0.37474-1.3882-0.41993-3.488 0.82709-6.3432 0.26616-0.55831-0.03589-0.97064-0.4781-0.32824-1.3589 3.1115-1.8352 5.0837-1.3637 6.9474 0.45694 1.8062 1.5543 3.0383 2.2553 4.3131 0.38156 0.69394-0.03002 1.3741-0.39135 2.6803-0.66858 0.18154-1.7087 0.2962-2.9392 0.31988-1.5021 0.0289-3.2716-0.03605-5.0533-0.05436-2.8441-0.02922-5.7072-0.87004-9.0657-1.9381-3.9584-1.2588-7.1555-2.8547-9.923-5.624-1.4439-1.5366-3.1223-2.7211-4.4017-4.3152 0.15104-0.4624 0.28427-0.87773 0.49222-1.5576 0.74247-2.4274 0.4523-4.8611-0.92795-7.0791-0.88544-1.4229-1.1887-1.2392-0.55677 0.45159 1.1276 3.017 0.66919 4.7267 0.13919 7.0143-0.17494 0.75508-0.29272 1.599-0.11095 1.9088 0.20778 0.3541 0.44988 0.91598 0.90172 1.014-0.02704 0.93862-0.75708 1.1595-1.4726 1.5492-0.11352 5.3109-1.8205 8.7373-2.9674 11.969-0.74297 2.0937-0.71133 3.3972-0.31873 6.6171 0.09197 0.75437 0.07983 2.1847-0.46801 3.0692-0.55558 0.89693-0.7475 2.2458-0.49625 3.3577 0.67075 2.9684 0.43767 5.2589 0.19769 8.1517 0.76159 0.17506 0.69832 1.2614 0.72622 1.9485 0.04302 1.0594-0.32585 1.3266-0.54668 2.1576 0.61257 0.40582 1.0406 0.92441 1.2205 1.5241 0.23081 0.30761 0.35065 0.51403 0.32882 0.88646l0.95418 2.4064c0.10555 0.26608 0.86377 1.5192 0.2098 1.8984-0.65397 0.37914-2.2501 0.73876-4.5288-0.01049-0.71233-0.23419-1.7344-0.81425-1.9063-1.359-0.17196-0.54471 0.26218-1.3827 0.41758-1.6015 0.59539-0.83831 0.69232-1.701 1.045-2.5862l-1.3697-0.92618c-0.47389-0.32032-0.35817-1.3632-0.24611-2.6447 0.10945-1.2516 0.89434-2.7221 1.0187-4.9362 0.12438-2.214 0.30061-4.5315-0.16744-6.0233-0.46804-1.4919-0.45821-2.9579-0.53458-4.0811-0.02641-0.38835-0.08545-0.6044-0.15332-0.77565 1.4588 0.17501 3.5786-0.20124 3.2176-1.6517-0.3792-1.5233-2.1085-2.561-2.3986-3.5082-0.29002-0.94725 0.24116-1.2912-0.12709-1.7269-0.80868-0.85527-1.4962-2.2906-1.4645-3.5082 0.03555-1.3674 0.64207-2.1874 0.94812-3.4413-1.1532-2.1054-1.7456-4.5275-1.8457-6.7279-1.1869-1.8522-1.7147-3.6956-2.2372-5.5508-0.87554-3.109-1.2614-7.0903-0.99049-9.1531 0.59837-4.5568 2.7184-9.1243 6.1305-11.911 3.0372-2.4803 8.0638-3.8198 12.144-3.7695 1.1162 0.01374 2.611 0.98747 4.1354 1.7896s3.068 1.7533 4.5449 2.2726c3.1933 1.1227 5.5966 2.2316 8.983 3.1214 2.3378 0.61432 4.83 1.1363 7.3651 0.95963 1.6257-0.1133 3.7373-0.72045 5.5092-1.2816 1.2871-0.40762 2.5565-0.86989 3.8187-1.3527-0.06215-0.72432-0.65145-1.5714-0.53256-2.2182 0.34824-1.8948 0.69957-1.2722 1.3738-1.6537-0.53479-0.71667-1.0391-1.0177 0-2.7493 1.0838-1.8061 1.7664-1.1834 2.7818-1.5806-0.01048-1.2965-0.15517-1.7828 1.1236-3.226 1.6896-1.9068 2.0639-1.479 3.1651-1.6224-0.37485-0.70455-0.38015-1.4873 0.50432-2.4273 0.95944-1.0197 1.502-0.37893 1.983-0.36169 0.07785-1.0717-0.67496-1.7154 0.78271-3.3556 2.6547-2.987 3.4688-1.8935 4.2545-1.7604 0.33125-0.85862-0.2733-1.6533 1.8236-2.9019 2.9217-1.7397 2.9977-1.0216 4.3029-0.34706 0.53311-0.74438 0.3533-1.7057 2.5862-1.7457zm14.699 1.5082c0.55386 0.374 0.18207 0.99052 0.10472 1.2722-0.1504 0.54759-0.59868 1.4804-0.83656 1.9915-0.45269 0.9727-0.73833 1.6217-1.6361 2.4716 0.04628-0.72387-0.57005-2.1339-1.2019-2.8257 0.76141-0.7583 1.5051-1.5356 2.2856-2.2726 0.18289-0.17268 0.9858-0.83844 1.2843-0.63691zm-91.554 28.128c-0.68438 1.5669-1.1886 3.2138-1.5069 4.8839-1.7265 2.7861-2.2118 6.2855-1.9265 9.5294 0.40939 4.6551 1.8568 9.1031 2.5377 13.713 1.622 1.5407 2.7753 2.0678 3.6372 3.5939 0.58543 1.0367 0.85231 2.6422 1.4081 3.9744 0.72721 1.7432 1.7675 3.2249 2.8403 4.4407 0.91379 1.0356-3.0169 0.59274-3.5968 0.09199-1.7304-1.4942-3.7917-3.3395-4.7305-5.4505-1.0025-2.2542-1.0703-4.6979-0.91181-6.6317-1.3564-2.2057-2.1918-5.8727-2.7475-9.1029-0.46568-2.7067-0.38894-5.6739-0.29856-8.1558 0.15188-4.1705 2.5725-7.8266 5.2954-10.886zm-1.753 8.9482c0.18832 2.2493 0.79014 4.7551 1.4182 6.9934 0.87867 3.1317 1.6351 4.959 2.1726 5.7264 0.09065 2.243 0.49538 4.4448 1.7389 6.5146-0.13666 0.56043-0.59945 1.1175-0.77262 1.9778-0.10683-0.1181-0.20347-0.24006-0.32276-0.35333-0.8398-0.79736-0.95262-1.3134-2.4893-2.281-1.3363-5.0906-2.4633-12.54-1.8841-17.83 0.027615-0.25224 0.078223-0.5008 0.13919-0.74847z" color="#000000" color-rendering="auto" fill="url(#t)" fill-rule="evenodd" image-rendering="auto" shape-rendering="auto" solid-color="#000000" style="block-progression:tb;isolation:auto;mix-blend-mode:normal;text-decoration-color:#000000;text-decoration-line:none;text-decoration-style:solid;text-indent:0;text-transform:none;white-space:normal"/>
  <path d="m82.717 7.4464c-1.2877-0.23017-2.162 0.73544-2.9458 1.64-2.6698 3.0813-5.3464 6.2123-8.5084 8.7604-1.8679 1.5053-3.6724 2.9955-5.6656 4.2195-1.3846 0.85026-2.8725 1.7332-4.356 2.3115l0.21479 1.0363c1.5199-0.5932 3.0146-1.5198 4.4186-2.3497 2.3573-1.3934 4.4645-2.9651 6.5435-4.7141 3.3496-2.8179 6.0809-6.2913 8.9878-9.5787 0.74254-0.83973 1.6041-0.52081 1.9922-0.075712 0.48569 0.55707 0.98112 0.17798 0.52536-0.44961-0.38604-0.53158-0.5713-0.68647-1.2064-0.79999z" color="#000000" color-rendering="auto" fill="#535353" fill-rule="evenodd" image-rendering="auto" shape-rendering="auto" solid-color="#000000" style="block-progression:tb;isolation:auto;mix-blend-mode:normal;text-decoration-color:#000000;text-decoration-line:none;text-decoration-style:solid;text-indent:0;text-transform:none;white-space:normal"/>
  <path d="m91.049 2.0583c-1.2 0.36015-2.0672 0.69053-2.9993 1.4913-1.3904 1.1946-2.437 2.6047-3.2185 4.3143-0.39239 0.85841-0.66302 2.2486-0.48508 3.1801 0.14268 0.74688 1.3036 1.1712 2.0765 1.0038 0.27544-0.05962 1.2852-0.91724 0.90132-0.86313l-0.90511 0.12757c-0.42443 0.059816-0.79108-0.23734-0.83041-0.97266-0.07659-1.432 0.27309-2.0979 0.9238-3.4025 0.4135-0.82904 1.129-1.6491 1.9364-2.4808 1.0834-1.1159 2.2167-1.5409 2.8221-1.4724-0.86201 0.65855-1.8619 1.5889-2.021 1.8314-0.66721 1.0171-1.2352 1.8073-1.4232 3.4088-0.11461 0.97637-0.30313 1.9259 0.15588 2.5669 0.41572 0.58051 0.66243 0.83385 0.59369-0.22596-0.0569-0.87728 0.23586-1.5479 0.40797-2.473 0.34958-1.8788 1.3874-3.4473 2.7949-4.6562 0.46491-0.39928 0.60447 0.45087 0.61485 0.77869 0.04571 1.444 0.23597 3.4914-0.65053 4.588-0.44343 0.54852-1.2837 0.2218-1.8294 0.70047-0.18631 0.1634-0.51163 0.94387-0.11192 0.88685 0.68589-0.09785 0.9773-0.44372 1.4871-0.60579 0.4334-0.13777 0.73606-0.083034 1.0144-0.45243 0.92866-1.2325 1.0945-2.9426 1.1909-4.5042 0.05231-0.84754 0.26089-2.1451-0.43731-2.7031-0.35483-0.28362-1.5217-0.21202-2.0081-0.066068z" color="#000000" color-rendering="auto" fill="#535353" fill-rule="evenodd" image-rendering="auto" shape-rendering="auto" solid-color="#000000" style="block-progression:tb;isolation:auto;mix-blend-mode:normal;text-decoration-color:#000000;text-decoration-line:none;text-decoration-style:solid;text-indent:0;text-transform:none;white-space:normal"/>
  <path d="m7.9471 58.389c1.5559 1.1681 1.6273 1.7519 2.339 3.5384 0.41561 1.0431 0.57033 3.4984 1.5955 4.314 2.0306 1.6155 1.8937 1.1998 0.48352-0.2985-0.56681-0.60222-0.50174-1.7656-1.3963-4.3561-0.51666-1.4962-1.4357-3.075-2.8706-3.6838-1.4638-0.62116-0.68892 0.08227-0.15115 0.48601zm-1.0088 1.2012c0.13818 2.5876 1.4626 4.9952 3.1994 6.8722 0.7865 0.84999 1.5916 1.3877 2.5458 2.0278 0.60872 0.40835 1.2494 0.7295 2.0778 0.89706 0.633 0.12804 0.49172-0.28715-0.03273-0.4775-0.58215-0.21129-1.1979-0.61033-1.7223-1.0069-1.6947-1.2816-3.5043-2.66-4.4501-4.6242-0.54166-1.1249-0.84077-2.4896-1.1781-3.6948-0.2591-0.9256-0.48654-0.86952-0.43977 0.0063z" color="#000000" color-rendering="auto" fill="#3b1000" fill-rule="evenodd" image-rendering="auto" shape-rendering="auto" solid-color="#000000" style="block-progression:tb;isolation:auto;mix-blend-mode:normal;text-decoration-color:#000000;text-decoration-line:none;text-decoration-style:solid;text-indent:0;text-transform:none;white-space:normal"/>
  <path d="m8.7051 56.012-0.83751 0.13086 0.1101 1.0679c1.2904 1.0576 2.4107 2.0891 3.4394 3.3509 0.86147 1.2573 0.89342 3.0655 1.6561 4.3752 0.71963 1.6821 1.8237 3.1222 2.6234 4.1302 0.45209 0.29506 0.45366 0.66358-0.33589 0.69742-1.3099 0.10026-2.1961-0.08093-3.2736-0.64053-2.1027-1.7601-4.0312-3.7982-4.9344-6.3226-0.43566-1.7839-0.63994-3.7141-0.54618-5.5274l-0.35648-0.78149-0.66782 0.29492c0.098939 0.37742 0.10583 0.72022-0.00484 1.1214-0.073907 1.7939-0.2499 3.665 0.28087 5.4023 1.1133 2.895 3.2656 5.3717 5.9274 6.9506 1.2354 0.65059 2.687 0.7263 4.0495 0.57344 0.74295-0.07601 1.4983-0.76275 1.2749-1.5579-0.19795-0.67696-0.48801-1.2018-0.99869-1.8391-1.0897-1.0189-2.3829-2.7134-2.7526-4.5207-0.29543-1.282-0.74987-2.8189-1.7258-3.7517-0.5039-0.51782-1.011-1.128-1.5232-1.6198-0.40378-0.3877-0.80241-0.66841-1.2627-1.0023z" color="#000000" color-rendering="auto" fill="#3b1000" fill-rule="evenodd" image-rendering="auto" shape-rendering="auto" solid-color="#000000" style="block-progression:tb;isolation:auto;mix-blend-mode:normal;text-decoration-color:#000000;text-decoration-line:none;text-decoration-style:solid;text-indent:0;text-transform:none;white-space:normal"/>
 </g>
</svg>
